<?xml version="1.0" encoding="iso-8859-1"?>
<!-- Generator: Adobe Illustrator 19.0.0, SVG Export Plug-In . SVG Version: 6.00 Build 0)  -->
<svg version="1.1" id="Layer_1" xmlns="http://www.w3.org/2000/svg" xmlns:xlink="http://www.w3.org/1999/xlink" x="0px" y="0px"
	 viewBox="0 0 512 512" style="enable-background:new 0 0 512 512;" xml:space="preserve">
<g>
	<circle style="fill:#FF0C38;" cx="196.545" cy="47.104" r="47.104"/>
	<circle style="fill:#FF0C38;" cx="315.455" cy="47.104" r="47.104"/>
</g>
<g>
	<path style="fill:#D80027;" d="M177.554,61.441c0,11.025,2.297,21.519,6.42,31.047c4.003,1.107,8.215,1.709,12.57,1.709
		c26.012,0,47.099-21.087,47.099-47.099c0-22.742-16.12-41.719-37.556-46.13C188.671,15.368,177.554,37.13,177.554,61.441z"/>
	<path style="fill:#D80027;" d="M334.446,61.441c0,11.025-2.297,21.519-6.42,31.047c-4.003,1.107-8.215,1.709-12.57,1.709
		c-26.012,0-47.099-21.087-47.099-47.099c0-22.742,16.12-41.719,37.556-46.13C323.329,15.368,334.446,37.13,334.446,61.441z"/>
</g>
<circle style="fill:#FF3F62;" cx="256" cy="61.441" r="47.104"/>
<g>
	<path style="fill:#6DC82A;" d="M209.984,61.441H158.39c-16.434,0-29.881,13.446-29.881,29.881v67.53
		c0,16.434,13.446,29.881,29.881,29.881h51.594c16.434,0,29.881-13.446,29.881-29.881v-67.53
		C239.865,74.888,226.418,61.441,209.984,61.441z"/>
	<path style="fill:#6DC82A;" d="M353.609,61.441h-51.594c-16.434,0-29.881,13.446-29.881,29.881v67.53
		c0,16.434,13.446,29.881,29.881,29.881h51.594c16.434,0,29.881-13.446,29.881-29.881v-67.53
		C383.49,74.888,370.044,61.441,353.609,61.441z"/>
</g>
<g>
	<path style="fill:#5EAC24;" d="M209.984,61.441c0,0-41.008,8.175-41.008,57.331v69.959h41.008
		c16.434,0,29.881-13.446,29.881-29.881V91.322C239.865,74.888,226.418,61.441,209.984,61.441z"/>
	<path style="fill:#5EAC24;" d="M302.016,61.441c0,0,41.008,8.045,41.008,57.331v69.959h-41.008
		c-16.434,0-29.881-13.446-29.881-29.881V91.322C272.135,74.888,285.582,61.441,302.016,61.441z"/>
</g>
<path style="fill:#91DC5A;" d="M281.796,88.893h-51.594c-16.434,0-29.881,13.446-29.881,29.881v67.53
	c0,16.434,13.446,29.881,29.881,29.881h51.594c16.434,0,29.881-13.446,29.881-29.881v-67.53
	C311.677,102.338,298.231,88.893,281.796,88.893z"/>
<path style="fill:#AA6100;" d="M357.992,122.039L357.992,122.039c-14.024,0-25.498,11.474-25.498,25.498v30.319
	c0-14.024-11.474-25.498-25.498-25.498l0,0c-14.024,0-25.498,11.474-25.498,25.498v14.224c0-14.024-11.474-25.498-25.498-25.498
	s-25.498,11.474-25.498,25.498v-14.224c0-14.024-11.474-25.498-25.498-25.498l0,0c-14.024,0-25.498,11.474-25.498,25.498v-30.319
	c0-14.024-11.474-25.498-25.498-25.498l0,0c-14.024,0-25.498,11.474-25.498,25.498v131.373c0,14.024,11.474,25.498,25.498,25.498
	l0,0c14.024,0,25.498-11.474,25.498-25.498v30.319c0,14.024,11.474,25.498,25.498,25.498l0,0c14.024,0,25.498-11.474,25.498-25.498
	v14.224c0,14.024,11.474,25.498,25.498,25.498c14.024,0,25.498-11.474,25.498-25.498v-14.224c0,14.024,11.474,25.498,25.498,25.498
	l0,0c14.024,0,25.498-11.474,25.498-25.498v-30.319c0,14.024,11.474,25.498,25.498,25.498l0,0c14.024,0,25.498-11.474,25.498-25.498
	V147.537C383.49,133.514,372.016,122.039,357.992,122.039z"/>
<g>
	<path style="fill:#9A4C00;" d="M154.008,278.91V147.537c0-9.386,5.144-17.624,12.749-22.05c-3.757-2.187-8.112-3.447-12.749-3.447
		l0,0c-14.024,0-25.498,11.474-25.498,25.498V278.91c0,14.024,11.474,25.498,25.498,25.498l0,0c4.637,0,8.991-1.26,12.749-3.447
		C159.153,296.535,154.008,288.297,154.008,278.91z"/>
	<path style="fill:#9A4C00;" d="M205.004,309.229V177.855c0-9.386,5.144-17.624,12.749-22.05c-3.757-2.187-8.112-3.447-12.749-3.447
		l0,0c-14.024,0-25.498,11.474-25.498,25.498v131.373c0,14.024,11.474,25.498,25.498,25.498l0,0c4.637,0,8.991-1.26,12.749-3.447
		C210.149,326.853,205.004,318.615,205.004,309.229z"/>
	<path style="fill:#9A4C00;" d="M256,323.452V192.079c0-9.386,5.144-17.624,12.749-22.05c-3.757-2.187-8.112-3.447-12.749-3.447l0,0
		c-14.024,0-25.498,11.474-25.498,25.498v131.373c0,14.024,11.474,25.498,25.498,25.498l0,0c4.637,0,8.991-1.26,12.749-3.447
		C261.144,341.078,256,332.84,256,323.452z"/>
	<path style="fill:#9A4C00;" d="M306.996,309.229V177.855c0-9.386,5.144-17.624,12.749-22.05c-3.757-2.187-8.112-3.447-12.749-3.447
		l0,0c-14.024,0-25.498,11.474-25.498,25.498v131.373c0,14.024,11.474,25.498,25.498,25.498l0,0c4.637,0,8.991-1.26,12.749-3.447
		C312.14,326.853,306.996,318.615,306.996,309.229z"/>
	<path style="fill:#9A4C00;" d="M357.991,278.91V147.537c0-9.386,5.144-17.624,12.749-22.05c-3.757-2.187-8.112-3.447-12.749-3.447
		l0,0c-14.024,0-25.498,11.474-25.498,25.498V278.91c0,14.024,11.474,25.498,25.498,25.498l0,0c4.637,0,8.991-1.26,12.749-3.447
		C363.137,296.535,357.991,288.297,357.991,278.91z"/>
</g>
<path style="fill:#FFC477;" d="M383.486,135.166c0,0,0.004,15.067,0.004,15.389c0,77.37-57.08,140.09-127.49,140.09
	s-127.49-62.721-127.49-140.091c0-0.322,0-15.387,0-15.387c-10.097,4.809-17.131,15.102-17.131,26.978v319.973
	c0,16.434,13.446,29.881,29.88,29.881h229.483c16.434,0,29.88-13.446,29.88-29.881V162.146
	C400.621,150.269,393.585,139.973,383.486,135.166z"/>
<path style="fill:#FFB655;" d="M343.024,511.911c-0.063-21.713-0.123-51.581-0.132-73.743h0.132v-31.347
	c0-41.78-20.109-81.319-58.154-114.342c-1.69-1.467-3.382-2.893-5.073-4.28c-7.71,1.6-15.663,2.447-23.798,2.447
	c-70.41,0-127.49-62.721-127.49-140.09c0-0.322,0-15.387,0-15.387c-10.097,4.808-17.131,15.102-17.131,26.978V482.12
	c0,16.434,13.446,29.88,29.88,29.88h201.766L343.024,511.911z"/>
<path style="fill:#FFDAAA;" d="M311.677,406.821c0-78.471-92.261-121.401-102.055-125.738
	c-47.478-20.385-81.111-71.139-81.111-130.528c0-0.322,0-15.387,0-15.387c-10.097,4.809-17.131,15.102-17.131,26.978v319.973
	c0,16.434,13.446,29.881,29.88,29.881h170.419C311.677,512,311.379,406.821,311.677,406.821z"/>
<g>
	<path style="fill:#FFC477;" d="M160.763,482.119V243.66c-20.056-24.75-32.253-57.357-32.253-93.105c0-0.322,0-15.387,0-15.387
		c-10.097,4.809-17.131,15.102-17.131,26.978v319.973c0,16.434,13.446,29.881,29.88,29.881h49.385
		C174.21,512,160.763,498.554,160.763,482.119z"/>
	<path style="fill:#FFC477;" d="M197.167,394.012c-2.059,0-4.075-0.836-5.538-2.288c-1.463-1.463-2.299-3.479-2.299-5.548
		c0-2.058,0.836-4.086,2.299-5.538c1.462-1.463,3.478-2.299,5.538-2.299c2.068,0,4.086,0.836,5.548,2.299
		c1.453,1.463,2.288,3.479,2.288,5.538c0,2.069-0.836,4.086-2.288,5.548C201.253,393.176,199.236,394.012,197.167,394.012z"/>
	<path style="fill:#FFC477;" d="M200.323,342.564c-2.059,0-4.075-0.836-5.538-2.288c-1.463-1.463-2.299-3.479-2.299-5.548
		c0-2.058,0.836-4.086,2.299-5.538c1.462-1.463,3.478-2.299,5.538-2.299c2.068,0,4.086,0.836,5.548,2.299
		c1.453,1.463,2.288,3.48,2.288,5.538c0,2.069-0.836,4.086-2.288,5.548C204.408,341.728,202.392,342.564,200.323,342.564z"/>
	<path style="fill:#FFC477;" d="M234.637,368.118c-2.059,0-4.075-0.836-5.538-2.288c-1.463-1.463-2.299-3.479-2.299-5.548
		c0-2.058,0.836-4.086,2.299-5.538c1.462-1.463,3.478-2.299,5.538-2.299c2.068,0,4.086,0.836,5.548,2.299
		c1.453,1.463,2.288,3.48,2.288,5.538c0,2.069-0.836,4.086-2.288,5.548C238.723,367.282,236.705,368.118,234.637,368.118z"/>
	<path style="fill:#FFC477;" d="M205.004,460.766c-2.059,0-4.075-0.836-5.538-2.288c-1.463-1.463-2.299-3.479-2.299-5.548
		c0-2.058,0.836-4.086,2.299-5.538c1.462-1.463,3.478-2.299,5.538-2.299c2.068,0,4.086,0.836,5.548,2.299
		c1.453,1.463,2.288,3.479,2.288,5.538c0,2.069-0.836,4.086-2.288,5.548C209.089,459.93,207.073,460.766,205.004,460.766z"/>
	<circle style="fill:#FFC477;" cx="249.626" cy="410.896" r="16.886"/>
</g>
<g>
	<path style="fill:#FFB655;" d="M369.274,290.482c-4.329,0-7.837-3.509-7.837-7.837v-20.376c0-4.328,3.508-7.837,7.837-7.837
		s7.837,3.509,7.837,7.837v20.376C377.111,286.974,373.603,290.482,369.274,290.482z"/>
	<path style="fill:#FFB655;" d="M369.274,386.09c-4.329,0-7.837-3.509-7.837-7.837v-72.62c0-4.328,3.508-7.837,7.837-7.837
		s7.837,3.509,7.837,7.837v72.62C377.111,382.581,373.603,386.09,369.274,386.09z"/>
</g>
<g>
</g>
<g>
</g>
<g>
</g>
<g>
</g>
<g>
</g>
<g>
</g>
<g>
</g>
<g>
</g>
<g>
</g>
<g>
</g>
<g>
</g>
<g>
</g>
<g>
</g>
<g>
</g>
<g>
</g>
</svg>
