<?xml version="1.0" encoding="iso-8859-1"?>
<!-- Generator: Adobe Illustrator 19.0.0, SVG Export Plug-In . SVG Version: 6.00 Build 0)  -->
<svg version="1.1" id="Layer_1" xmlns="http://www.w3.org/2000/svg" xmlns:xlink="http://www.w3.org/1999/xlink" x="0px" y="0px"
	 viewBox="0 0 512 512" style="enable-background:new 0 0 512 512;" xml:space="preserve">
<path style="fill:#3E3D42;" d="M416.908,477.07c0,0-6.409-134.277-160.908-134.277S94.706,477.094,94.706,477.094
	c-0.041,0.513-2.504,32.643,26.997,32.638h268.21C419.651,509.736,416.908,477.07,416.908,477.07z"/>
<path style="fill:#2D2D30;" d="M94.706,477.094c-0.041,0.513-2.504,32.643,26.997,32.638h61.132
	c-29.501,0.004-27.039-32.125-26.997-32.638c0,0,5.895-115.968,130.727-132.361c-9.49-1.247-19.645-1.938-30.564-1.938
	C101.503,342.793,94.706,477.094,94.706,477.094z"/>
<circle style="fill:#FF9811;" cx="127.697" cy="299.729" r="37.689"/>
<circle style="fill:#FFA733;" cx="384.303" cy="299.729" r="37.689"/>
<path style="fill:#FFC477;" d="M256,101.245L256,101.245c-68.203,0-124.005,55.803-124.005,124.005v59.504
	c0,68.203,55.802,124.005,124.005,124.005l0,0c68.203,0,124.005-55.802,124.005-124.005v-59.504
	C380.006,157.047,324.203,101.245,256,101.245z"/>
<path style="fill:#FFB655;" d="M184.518,284.754V225.25c0-59.199,42.045-109.046,97.744-121.178
	c-8.472-1.845-17.257-2.827-26.26-2.827l0,0c-68.203,0-124.005,55.803-124.005,124.005v59.504
	c0,68.203,55.803,124.005,124.005,124.005l0,0c9.004,0,17.789-0.981,26.26-2.827C226.562,393.799,184.518,343.952,184.518,284.754z"
	/>
<path style="fill:#5F4D37;" d="M131.995,224.996v38.169c59.676-31.882,100.112-120.741,116.201-161.918
	C183.593,105.308,131.995,159.414,131.995,224.996z"/>
<path style="fill:#806749;" d="M380.006,224.996v38.169c-59.676-31.882-100.112-120.741-116.201-161.918
	C328.408,105.308,380.006,159.414,380.006,224.996z"/>
<g>
	<path style="fill:#3E3D42;" d="M201.281,263.419c-2.212,0-4.377-0.899-5.948-2.459c-1.572-1.57-2.469-3.737-2.469-5.958
		c0-2.211,0.898-4.388,2.469-5.949c1.57-1.57,3.736-2.468,5.948-2.468c2.221,0,4.388,0.898,5.958,2.468
		c1.561,1.57,2.459,3.737,2.459,5.949c0,2.221-0.898,4.388-2.459,5.958C205.67,262.52,203.503,263.419,201.281,263.419z"/>
	<path style="fill:#3E3D42;" d="M316.939,263.419c-2.212,0-4.377-0.899-5.948-2.459c-1.572-1.57-2.469-3.737-2.469-5.958
		c0-2.211,0.898-4.388,2.469-5.949c1.57-1.57,3.736-2.468,5.948-2.468c2.221,0,4.388,0.898,5.958,2.468
		c1.561,1.57,2.459,3.737,2.459,5.949c0,2.221-0.898,4.388-2.459,5.958C321.327,262.52,319.16,263.419,316.939,263.419z"/>
</g>
<path style="fill:#FF9811;" d="M259.551,350.956c-37.222,0-72.076-16.562-95.626-45.437c-2.736-3.354-2.234-8.29,1.121-11.026
	c3.354-2.734,8.29-2.234,11.026,1.121c20.559,25.21,50.986,39.67,83.479,39.67c30.777,0,60.148-13.218,80.584-36.264
	c2.869-3.239,7.822-3.537,11.062-0.665c3.239,2.871,3.536,7.824,0.665,11.062C328.456,335.816,294.81,350.956,259.551,350.956z"/>
<path style="fill:#6A563D;" d="M296.605,285.421c-12.605-8.255-28.751-6.794-39.651,2.533c-10.899-9.327-27.046-10.788-39.651-2.533
	c-15.295,10.017-49.615,50.213-39.598,65.508c10.017,15.295,78.19-11.755,79.249-12.659c1.06,0.904,69.232,27.954,79.249,12.659
	C346.22,335.634,311.9,295.439,296.605,285.421z"/>
<path style="fill:#554431;" d="M252.125,284.546c-10.495-6.119-23.968-6.232-34.821,0.877
	c-15.295,10.017-49.615,50.213-39.598,65.508c4.308,6.579,19.377,5.321,35.235,1.682
	C212.402,352.094,195.919,329.143,252.125,284.546z"/>
<path style="fill:#FFA733;" d="M256.739,255.002c-12.141,0-22.073,9.933-22.073,22.073v13.608c0,12.141,9.933,22.073,22.073,22.073
	c12.141,0,22.073-9.933,22.073-22.073v-13.608C278.814,264.935,268.88,255.002,256.739,255.002z"/>
<path style="fill:#FF9811;" d="M256.739,290.683v-13.608c0-8.123,4.458-15.24,11.037-19.073c-3.255-1.895-7.019-3.002-11.037-3.002
	c-12.141,0-22.073,9.933-22.073,22.073v13.608c0,12.141,9.933,22.073,22.073,22.073c4.018,0,7.782-1.106,11.037-3.002
	C261.197,305.922,256.739,298.806,256.739,290.683z"/>
<path style="fill:#2D2D30;" d="M378.047,122.469c0-0.14,0.005-0.278,0.005-0.418C378.053,54.644,323.408,0,256,0
	S133.948,54.644,133.948,122.052c0,0.14,0.005,0.278,0.005,0.418h244.093V122.469z"/>
<path style="fill:#1D1D1F;" d="M297.955,23.567c13.11,0,25.734,2.075,37.57,5.902C314.165,11.103,286.381,0,256,0
	c-67.407,0-122.051,54.644-122.051,122.052c0,0.14,0.005,0.278,0.005,0.418h44.151C188.922,66.134,238.464,23.567,297.955,23.567z"
	/>
<path style="fill:#FFDE55;" d="M256.954,178.678c-30.698,0-55.672-24.975-55.672-55.672s24.975-55.672,55.672-55.672
	s55.672,24.975,55.672,55.672S287.651,178.678,256.954,178.678z"/>
<path style="fill:#FFCD00;" d="M234.738,123.005c0-24.871,16.395-45.982,38.944-53.101c-5.283-1.668-10.901-2.571-16.728-2.571
	c-30.698,0-55.672,24.975-55.672,55.672s24.974,55.672,55.672,55.672c5.826,0,11.445-0.904,16.728-2.571
	C251.133,168.987,234.738,147.877,234.738,123.005z"/>
<path style="fill:#3E3D42;" d="M490.657,108.32H21.344c-21.275,0-19.999,16.88-19.999,16.88s-0.019,62.609,79.322,95.467
	c0,0,12.304,5.669,38.543,5.669h273.581c26.239,0,38.543-5.669,38.543-5.669c79.341-32.859,79.322-95.467,79.322-95.467
	S511.934,108.32,490.657,108.32z"/>
<path style="fill:#2D2D30;" d="M115.244,125.201c0,0-1.276-16.88,20-16.88H21.344c-21.275,0-20,16.88-20,16.88
	s-0.018,62.609,79.323,95.467c0,0,12.304,5.669,38.543,5.669h113.901c-26.239,0-38.543-5.669-38.543-5.669
	C115.227,187.81,115.244,125.201,115.244,125.201z"/>
<g>
	<circle style="fill:#FFE477;" cx="255.823" cy="167.33" r="27.314"/>
	<circle style="fill:#FFE477;" cx="173.903" cy="167.33" r="27.314"/>
	<circle style="fill:#FFE477;" cx="91.983" cy="167.33" r="27.314"/>
</g>
<g>
	<path style="fill:#FFD422;" d="M91.981,167.329c0-10.108,5.495-18.928,13.657-23.651c-4.019-2.326-8.68-3.663-13.657-3.663
		c-15.085,0-27.315,12.229-27.315,27.315c0,15.085,12.229,27.315,27.315,27.315c4.977,0,9.639-1.337,13.657-3.663
		C97.476,186.256,91.981,177.437,91.981,167.329z"/>
	<path style="fill:#FFD422;" d="M173.903,167.329c0-10.108,5.495-18.928,13.657-23.651c-4.019-2.326-8.68-3.663-13.657-3.663
		c-15.085,0-27.315,12.229-27.315,27.315c0,15.085,12.229,27.315,27.315,27.315c4.977,0,9.639-1.337,13.657-3.663
		C179.398,186.256,173.903,177.437,173.903,167.329z"/>
	<path style="fill:#FFD422;" d="M255.825,167.329c0-10.108,5.495-18.928,13.657-23.651c-4.019-2.326-8.68-3.663-13.657-3.663
		c-15.085,0-27.315,12.229-27.315,27.315c0,15.085,12.229,27.315,27.315,27.315c4.977,0,9.639-1.337,13.657-3.663
		C261.32,186.256,255.825,177.437,255.825,167.329z"/>
</g>
<g>
	<circle style="fill:#FFE477;" cx="420.018" cy="167.33" r="27.314"/>
	<circle style="fill:#FFE477;" cx="338.098" cy="167.33" r="27.314"/>
</g>
<path style="fill:#D1E7F8;" d="M509.618,407.877H312.02c-0.677,3.645-1.049,7.394-1.049,11.227v31.173
	c0,3.834,0.372,7.583,1.049,11.227h197.599c0.677-3.645,1.049-7.394,1.049-11.227v-31.173
	C510.668,415.271,510.296,411.522,509.618,407.877z"/>
<path style="fill:#C2DFF6;" d="M384.301,450.278v-31.173c0-33.947,27.774-61.722,61.722-61.722h-73.332
	c-33.947,0-61.722,27.774-61.722,61.722v31.173c0,33.947,27.774,61.722,61.722,61.722h73.332
	C412.077,512,384.301,484.226,384.301,450.278z"/>
<path style="fill:#4E901E;" d="M311.831,408.922h197.975c-4.892-29.144-30.381-51.54-60.861-51.54h-76.254
	C342.213,357.382,316.724,379.778,311.831,408.922z"/>
<path style="fill:#47821C;" d="M311.831,408.922h73.332c4.892-29.144,30.381-51.54,60.86-51.54h-73.332
	C342.213,357.382,316.724,379.778,311.831,408.922z"/>
<path style="fill:#FF3F62;" d="M311.831,460.46h197.975c-4.892,29.144-30.381,51.54-60.86,51.54h-76.254
	C342.213,512,316.724,489.605,311.831,460.46z"/>
<path style="fill:#FF0C38;" d="M372.692,512h73.329c-30.478-0.001-55.966-22.395-60.858-51.54H311.83
	C316.724,489.605,342.213,512,372.692,512z"/>
<g>
	<path style="fill:#FFD422;" d="M338.098,167.329c0-10.108,5.495-18.928,13.657-23.651c-4.019-2.326-8.68-3.663-13.657-3.663
		c-15.085,0-27.315,12.229-27.315,27.315c0,15.085,12.229,27.315,27.315,27.315c4.977,0,9.639-1.337,13.657-3.663
		C343.593,186.256,338.098,177.437,338.098,167.329z"/>
	<path style="fill:#FFD422;" d="M420.02,167.329c0-10.108,5.495-18.928,13.657-23.651c-4.019-2.326-8.68-3.663-13.657-3.663
		c-15.085,0-27.315,12.229-27.315,27.315c0,15.085,12.229,27.315,27.315,27.315c4.977,0,9.639-1.337,13.657-3.663
		C425.515,186.256,420.02,177.437,420.02,167.329z"/>
</g>
<g>
</g>
<g>
</g>
<g>
</g>
<g>
</g>
<g>
</g>
<g>
</g>
<g>
</g>
<g>
</g>
<g>
</g>
<g>
</g>
<g>
</g>
<g>
</g>
<g>
</g>
<g>
</g>
<g>
</g>
</svg>
