<?xml version="1.0" encoding="iso-8859-1"?>
<!-- Generator: Adobe Illustrator 19.0.0, SVG Export Plug-In . SVG Version: 6.00 Build 0)  -->
<svg version="1.1" id="Layer_1" xmlns="http://www.w3.org/2000/svg" xmlns:xlink="http://www.w3.org/1999/xlink" x="0px" y="0px"
	 viewBox="0 0 512 512" style="enable-background:new 0 0 512 512;" xml:space="preserve">
<path style="fill:#B9D8F4;" d="M370.352,229.604v164.222c0,0,0.413,27.192-25.449,36.908v-8.193c0-9.112-7.454-16.566-16.566-16.566
	H183.66c-9.112,0-16.566,7.455-16.566,16.566v8.193c-25.861-9.715-25.448-36.908-25.448-36.908V229.604
	c-19.483,21.117-31.429,49.282-31.429,80.103v83.937c0,65.096,53.261,118.356,118.356,118.356h54.853
	c65.096,0,118.356-53.261,118.356-118.356v-83.936C401.781,278.885,389.835,250.722,370.352,229.604z"/>
<g>
	<path style="fill:#96C8EF;" d="M131.183,379.813c5.875,1.49,8.908,4.385,10.463,7.22v-157.43
		c-19.483,21.117-31.428,49.282-31.428,80.103v62.364C116.764,375.315,123.769,377.932,131.183,379.813z"/>
	<path style="fill:#96C8EF;" d="M401.781,309.708c0-30.821-11.945-58.986-31.428-80.103v157.066c1.199-2.38,3.434-5.252,9.883-6.717
		c7.48-1.699,14.707-4.312,21.547-7.705v-62.541H401.781z"/>
</g>
<path style="fill:#ED539D;" d="M279.411,512c-0.068,0-0.132-0.004-0.201-0.004c66.808,0,21.798-77.959-11.607-20.103
	c33.403-57.857-56.616-57.857-23.212,0c-33.403-57.857-78.413,20.103-11.607,20.103c-0.069,0-0.132,0.003-0.201,0.004H279.411z"/>
<path style="fill:#FFE477;" d="M255.998,494.207c-9.824,0-17.788,7.964-17.788,17.788c0,0.001,0,0.002,0,0.003h35.577
	c0-0.001,0-0.002,0-0.003C273.787,502.172,265.823,494.207,255.998,494.207z"/>
<path style="fill:#D1E7F8;" d="M440.319,184.317C440.319,82.522,357.794,0,255.998,0S71.681,82.522,71.681,184.317
	c0,24.875,4.939,48.593,13.871,70.243c-3.87,9.015-6.021,18.944-6.021,29.377c0,35.325,23.499,63.941,57.559,72.58
	c29.396,7.455,30.073,34.288,30.073,34.288c0.717,8.463,7.856,15.169,16.495,15.169H328.34c8.639,0,15.778-6.706,16.495-15.169
	c0,0,0.329-27.53,30.073-34.288c33.025-7.503,57.559-37.256,57.559-72.58c0-10.433-2.15-20.362-6.021-29.377
	C435.38,232.911,440.319,209.192,440.319,184.317z"/>
<g>
	<path style="fill:#B9D8F4;" d="M256,430.498c-4.329,0-7.837-3.509-7.837-7.837v-28.867c0-4.328,3.508-7.837,7.837-7.837
		c4.329,0,7.837,3.509,7.837,7.837v28.867C263.837,426.989,260.329,430.498,256,430.498z"/>
	<path style="fill:#B9D8F4;" d="M229.355,430.498c-4.329,0-7.837-3.509-7.837-7.837v-28.867c0-4.328,3.508-7.837,7.837-7.837
		c4.329,0,7.837,3.509,7.837,7.837v28.867C237.192,426.989,233.684,430.498,229.355,430.498z"/>
	<path style="fill:#B9D8F4;" d="M202.71,430.498c-4.329,0-7.837-3.509-7.837-7.837v-28.867c0-4.328,3.508-7.837,7.837-7.837
		c4.329,0,7.837,3.509,7.837,7.837v28.867C210.547,426.989,207.039,430.498,202.71,430.498z"/>
	<path style="fill:#B9D8F4;" d="M309.292,430.498c-4.329,0-7.837-3.509-7.837-7.837v-28.867c0-4.328,3.508-7.837,7.837-7.837
		s7.837,3.509,7.837,7.837v28.867C317.129,426.989,313.621,430.498,309.292,430.498z"/>
	<path style="fill:#B9D8F4;" d="M282.647,430.498c-4.329,0-7.837-3.509-7.837-7.837v-28.867c0-4.328,3.508-7.837,7.837-7.837
		s7.837,3.509,7.837,7.837v28.867C290.484,426.989,286.976,430.498,282.647,430.498z"/>
</g>
<g>
	<path style="fill:#96C8EF;" d="M256,430.498c4.329,0,7.837-3.509,7.837-7.837v-16.686h-15.673v16.686
		C248.163,426.989,251.671,430.498,256,430.498z"/>
	<path style="fill:#96C8EF;" d="M229.355,430.498c4.329,0,7.837-3.509,7.837-7.837v-16.686h-15.673v16.686
		C221.518,426.989,225.026,430.498,229.355,430.498z"/>
	<path style="fill:#96C8EF;" d="M202.71,430.498c4.329,0,7.837-3.509,7.837-7.837v-16.686h-15.673v16.686
		C194.873,426.989,198.381,430.498,202.71,430.498z"/>
	<path style="fill:#96C8EF;" d="M309.292,430.498c4.329,0,7.837-3.509,7.837-7.837v-16.686h-15.673v16.686
		C301.455,426.989,304.963,430.498,309.292,430.498z"/>
	<path style="fill:#96C8EF;" d="M282.647,430.498c4.329,0,7.837-3.509,7.837-7.837v-16.686H274.81v16.686
		C274.81,426.989,278.318,430.498,282.647,430.498z"/>
</g>
<g>
	<path style="fill:#B9D8F4;" d="M402.204,159.946c0,0,1.104-18.218,24.337,0.342c3.373,2.695,8.107,6.142,13.296,10.722
		c0.31,4.375,0.478,8.79,0.478,13.243c0,24.784-4.906,48.418-13.776,70.005C420.652,242.768,398.457,196.57,402.204,159.946z"/>
	<path style="fill:#B9D8F4;" d="M109.793,160.01c0,0-1.104-18.218-24.337,0.342c-3.373,2.695-8.107,6.142-13.296,10.722
		c-0.31,4.375-0.478,8.79-0.478,13.243c0,24.784,4.906,48.418,13.776,70.004C91.345,242.832,113.54,196.634,109.793,160.01z"/>
	<path style="fill:#B9D8F4;" d="M358.923,81.052c-6.548-6.461-13.736-12.326-21.363-17.431c-3.597-2.407-4.561-7.275-2.154-10.872
		c2.407-3.597,7.276-4.56,10.871-2.154c8.446,5.654,16.404,12.147,23.653,19.299c3.08,3.04,3.115,8.003,0.074,11.082
		C365.017,86.03,360.45,82.558,358.923,81.052z"/>
	<path style="fill:#B9D8F4;" d="M374.923,99.742c-0.661-0.921-1.333-1.832-2.018-2.736c-2.609-3.452-1.927-8.368,1.527-10.977
		c3.452-2.61,8.366-1.927,10.978,1.526c0.758,1.002,1.503,2.015,2.238,3.034c2.527,3.514,1.947,8.747-1.787,10.938
		C380.221,104.838,376.454,101.87,374.923,99.742z"/>
</g>
<path style="fill:#3E3D42;" d="M281.539,347.659c0,14.105-11.434,18.767-25.539,18.767s-25.539-4.662-25.539-18.767
	S241.895,293.59,256,293.59S281.539,333.553,281.539,347.659z"/>
<path style="fill:#2D2D30;" d="M250.375,347.658c0-10.572,6.424-35.672,15.583-47.582c-3.059-3.979-6.425-6.487-9.958-6.487
	c-14.105,0-25.54,39.964-25.54,54.069s11.434,18.767,25.54,18.767c3.533,0,6.897-0.293,9.958-0.953
	C256.799,363.498,250.375,358.232,250.375,347.658z"/>
<path style="fill:#FF3F62;" d="M231.611,253.721c6.459-2.185,11.114-8.281,11.114-15.477c0-9.029-6.403-16.899-18.665-16.167
	c1.461-2.448,2.317-5.3,2.317-8.357c0-9.029-7.32-16.35-16.35-16.35c-5.149,0-9.736,2.387-12.733,6.107
	c-1.018-8.051-7.876-14.282-16.204-14.282c-6.87,0-12.741,4.243-15.16,10.248c-2.843-4.82-8.096-8.557-14.077-8.065
	c0,0-16.711,1.229-15.898,20.107c-2.605-1.753-5.741-2.777-9.117-2.777c-9.029,0-16.348,7.32-16.348,16.348
	c0,4.502,1.821,8.579,4.766,11.535c-8.658,0.417-15.555,7.547-15.555,16.309c0,8.14,5.955,14.871,13.742,16.122
	c-3.029,2.967-4.914,7.099-4.914,11.675c0,9.029,7.32,16.348,16.35,16.348c1.979,0,3.868-0.37,5.624-1.014
	c-0.563,1.654-0.883,3.42-0.883,5.264c0,9.029,7.32,16.35,16.348,16.35c6.485,0,12.072-3.786,14.714-9.259
	c2.643,5.473,8.229,9.259,14.714,9.259c9.029,0,18.435-8.185,16.29-17.51c2.978,3.126,7.171,5.086,11.83,5.086
	c9.029,0,16.35-7.32,16.35-16.35c0-1.9-0.341-3.716-0.936-5.411c1.345,0.357,2.749,0.566,4.207,0.566
	c9.029,0,16.348-7.32,16.348-16.35C239.482,261.759,236.324,256.589,231.611,253.721z"/>
<path style="fill:#3E3D42;" d="M178.598,297.839c-23.702,7.657-49.125-5.35-56.782-29.052c-7.657-23.702,5.35-49.125,29.052-56.782
	c23.702-7.657,65.568,0.038,73.225,23.74S202.301,290.182,178.598,297.839z"/>
<path style="fill:#2D2D30;" d="M148.676,270.203c-7.657-23.702,5.35-49.125,29.052-56.782c3.451-1.115,7.295-1.894,11.355-2.356
	c-13.239-2.822-27.56-2.493-38.216,0.949c-23.702,7.657-36.709,33.079-29.052,56.782c7.37,22.811,31.192,35.706,54.101,29.819
	C163.421,293.973,153.092,283.872,148.676,270.203z"/>
<path style="fill:#FF3F62;" d="M412.302,252.904c0-8.761-6.897-15.893-15.555-16.309c2.945-2.957,4.766-7.033,4.766-11.535
	c0-9.029-7.32-16.348-16.348-16.348c-3.376,0-6.512,1.024-9.117,2.777c1.51-14.35-6.868-20.107-15.898-20.107
	c-6.002,0-11.234,3.243-14.077,8.065c-2.419-6.005-8.289-10.248-15.16-10.248c-8.328,0-15.185,6.231-16.204,14.282
	c-2.997-3.721-7.584-6.107-12.733-6.107c-9.029,0-16.35,7.32-16.35,16.35c0,3.058,0.855,5.91,2.317,8.357
	c-12.435-1.081-18.665,7.137-18.665,16.167c0,7.196,4.655,13.292,11.114,15.477c-4.712,2.868-7.871,8.038-7.871,13.96
	c0,9.029,7.32,16.35,16.348,16.35c1.457,0,2.862-0.209,4.207-0.566c-0.596,1.696-0.936,3.512-0.936,5.411
	c0,9.029,7.32,16.35,16.35,16.35c4.659,0,8.852-1.958,11.83-5.086c-1.101,10.715,7.259,17.507,16.289,17.507
	c6.485,0,12.072-3.786,14.714-9.259c2.643,5.473,8.23,9.259,14.714,9.259c9.029,0,19.707-10.449,15.467-21.614
	c1.755,0.645,3.645,1.014,5.624,1.014c9.029,0,16.35-7.32,16.35-16.348c0-4.576-1.885-8.707-4.914-11.675
	C406.347,267.775,412.302,261.044,412.302,252.904z"/>
<path style="fill:#3E3D42;" d="M333.402,297.839c23.702,7.657,49.125-5.35,56.782-29.052s-5.35-49.125-29.052-56.782
	c-23.702-7.657-65.568,0.038-73.225,23.74C280.249,259.447,309.699,290.182,333.402,297.839z"/>
<path style="fill:#2D2D30;" d="M317.689,237.156c4.753-14.714,22.691-23.254,41.282-25.787c-24-6.544-63.634,1.381-71.064,24.38
	c-7.657,23.702,21.793,54.437,45.496,62.094c9.026,2.916,18.298,2.828,26.747,0.301
	C337.057,288.994,310.355,259.857,317.689,237.156z"/>
<path style="fill:#ED539D;" d="M272.21,168.765c0,8.953-7.257,16.21-16.21,16.21c-8.953,0-16.21-7.257-16.21-16.21
	c0-8.953,7.257-35.949,16.21-35.949C264.953,132.816,272.21,159.812,272.21,168.765z"/>
<path style="fill:#FF5023;" d="M175.492,18.473c-1.273,14.559,11.843,30.375,39.364,18.976
	c-52.611,21.791,2.309,76.71,24.102,24.101c-21.792,52.609,55.877,52.609,34.085,0c21.792,52.609,76.712-2.309,24.102-24.101
	c27.521,11.399,40.636-4.416,39.364-18.974C312.182,6.642,284.867,0,255.998,0C227.131,0,199.817,6.642,175.492,18.473z"/>
<path style="fill:#FFE477;" d="M233.238,1.399c-4.303,5.147-6.896,11.774-6.896,19.008c0,16.38,13.279,29.657,29.657,29.657
	c16.38,0,29.657-13.279,29.657-29.657c0-7.234-2.592-13.86-6.895-19.007c-7.458-0.92-15.054-1.4-22.763-1.4
	C248.291,0,240.697,0.481,233.238,1.399z"/>
<g>
	<path style="fill:#424EDE;" d="M305.85,166.654c-13.213-20.537-7.252-47.995,13.286-61.209
		c17.157-11.037,40.095-6.058,51.134,11.099c9.296,14.453,5.103,33.775-9.349,43.073c-12.289,7.906-28.719,4.339-36.625-7.95
		c-2.342-3.639-1.288-8.49,2.351-10.83c3.637-2.342,8.489-1.289,10.83,2.351c3.229,5.02,9.942,6.477,14.963,3.248
		c7.184-4.622,9.268-14.226,4.647-21.411c-6.363-9.889-19.583-12.757-29.472-6.397c-13.269,8.537-17.121,26.278-8.584,39.547
		c2.342,3.639,1.457,8.772-2.351,10.83C311.032,172.06,307.348,168.983,305.85,166.654z"/>
	<path style="fill:#424EDE;" d="M195.32,169.005c-3.9-1.878-4.693-7.191-2.351-10.83c8.537-13.269,4.685-31.01-8.584-39.547
		c-9.89-6.362-23.111-3.49-29.472,6.398c-4.622,7.184-2.537,16.789,4.647,21.411c5.023,3.231,11.734,1.773,14.963-3.248
		c2.343-3.64,7.191-4.693,10.83-2.351c3.639,2.342,4.693,7.191,2.351,10.83c-7.905,12.288-24.335,15.855-36.625,7.95
		c-14.452-9.298-18.646-28.62-9.349-43.073c11.038-17.157,33.978-22.135,51.134-11.099c20.537,13.214,26.498,40.672,13.286,61.209
		C204.652,168.982,201.665,172.06,195.32,169.005z"/>
</g>
<g>
</g>
<g>
</g>
<g>
</g>
<g>
</g>
<g>
</g>
<g>
</g>
<g>
</g>
<g>
</g>
<g>
</g>
<g>
</g>
<g>
</g>
<g>
</g>
<g>
</g>
<g>
</g>
<g>
</g>
</svg>
