<?xml version="1.0" encoding="iso-8859-1"?>
<!-- Generator: Adobe Illustrator 19.0.0, SVG Export Plug-In . SVG Version: 6.00 Build 0)  -->
<svg version="1.1" id="Layer_1" xmlns="http://www.w3.org/2000/svg" xmlns:xlink="http://www.w3.org/1999/xlink" x="0px" y="0px"
	 viewBox="0 0 512 512" style="enable-background:new 0 0 512 512;" xml:space="preserve">
<path style="fill:#FF9811;" d="M442.191,72.971L358.584,58.48c-23.18-4.018-45.433,11.66-49.452,34.84l-61.38,354.109
	c-4.018,23.18,11.66,45.433,34.84,49.451l83.606,14.493c23.18,4.018,45.433-11.66,49.452-34.84l61.38-354.109
	C481.05,99.243,465.371,76.99,442.191,72.971z"/>
<g>
	<path style="fill:#EE8700;" d="M442.191,72.982l-10.085-1.748l-76.526,438.308l10.62,1.841c1.632,0.283,3.257,0.458,4.874,0.55
		L447.49,74.266C445.771,73.735,444.007,73.296,442.191,72.982z"/>
	<polygon style="fill:#EE8700;" points="392.45,64.359 315.923,502.667 331.367,505.344 407.894,67.036 	"/>
	<path style="fill:#EE8700;" d="M358.584,58.49c-1.965-0.341-3.923-0.529-5.864-0.594l-76.372,437.417
		c2.01,0.672,4.094,1.203,6.243,1.576l9.117,1.58l76.527-438.308L358.584,58.49z"/>
</g>
<path style="fill:#FF9811;" d="M69.81,69.528l83.606-14.492c23.18-4.018,45.433,11.66,49.452,34.84l61.38,354.109
	c4.018,23.18-11.66,45.433-34.84,49.451l-83.606,14.493c-23.18,4.018-45.433-11.66-49.452-34.84L34.969,118.979
	C30.951,95.799,46.63,73.546,69.81,69.528z"/>
<g>
	<path style="fill:#EE8700;" d="M69.81,69.538l10.085-1.748l76.526,438.307l-10.62,1.841c-1.632,0.283-3.257,0.458-4.874,0.55
		L64.512,70.822C66.23,70.292,67.994,69.852,69.81,69.538z"/>
	<polygon style="fill:#EE8700;" points="119.551,60.917 196.078,499.223 180.634,501.9 104.107,63.594 	"/>
	<path style="fill:#EE8700;" d="M153.417,55.046c1.965-0.341,3.923-0.529,5.864-0.594l76.372,437.417
		c-2.01,0.672-4.094,1.203-6.243,1.576l-9.117,1.58L143.764,56.719L153.417,55.046z"/>
</g>
<path style="fill:#FFC477;" d="M309.468,0H202.533c-23.526,0-42.774,19.248-42.774,42.774v417.05
	c0,23.526,19.248,42.774,42.774,42.774h106.935c23.526,0,42.774-19.248,42.774-42.774V42.774C352.243,19.248,332.994,0,309.468,0z"
	/>
<g>
	<path style="fill:#FFA733;" d="M202.533,0c-5.166,0-10.125,0.929-14.719,2.627v497.344c4.594,1.698,9.555,2.627,14.719,2.627h0.954
		V0H202.533z"/>
	<rect x="228.049" style="fill:#FFA733;" width="15.673" height="502.596"/>
	<rect x="268.278" style="fill:#FFA733;" width="15.673" height="502.596"/>
	<path style="fill:#FFA733;" d="M309.468,0h-0.954v502.598h0.954c5.166,0,10.125-0.929,14.719-2.627V2.627
		C319.593,0.929,314.634,0,309.468,0z"/>
</g>
<path style="fill:#A78966;" d="M341.112,281.245l-175.336-29.67c-8.311-1.406-13.96-9.357-12.553-17.667l0,0
	c1.406-8.311,9.357-13.96,17.667-12.553l175.336,29.67c8.311,1.406,13.96,9.357,12.553,17.667l0,0
	C357.372,277.001,349.422,282.651,341.112,281.245z"/>
<path style="fill:#B39A7C;" d="M170.889,281.245l175.336-29.67c8.311-1.406,13.96-9.357,12.553-17.667l0,0
	c-1.406-8.311-9.357-13.96-17.667-12.553l-175.336,29.67c-8.311,1.406-13.96,9.357-12.553,17.667l0,0
	C154.629,277.001,162.579,282.651,170.889,281.245z"/>
<path style="fill:#806749;" d="M254.567,297.969l-12.864-49.162c-2.134-8.154,2.792-16.572,10.946-18.706l0,0
	c8.154-2.134,16.572,2.792,18.706,10.946l12.864,49.162c2.134,8.154-2.792,16.572-10.946,18.706l0,0
	C265.117,311.049,256.701,306.124,254.567,297.969z"/>
<path style="fill:#957856;" d="M258.384,297.969l12.864-49.162c2.134-8.154-2.792-16.572-10.946-18.706l0,0
	c-8.154-2.134-16.572,2.792-18.706,10.946l-12.864,49.162c-2.134,8.154,2.792,16.572,10.946,18.706l0,0
	C247.833,311.049,256.25,306.124,258.384,297.969z"/>
<g>
</g>
<g>
</g>
<g>
</g>
<g>
</g>
<g>
</g>
<g>
</g>
<g>
</g>
<g>
</g>
<g>
</g>
<g>
</g>
<g>
</g>
<g>
</g>
<g>
</g>
<g>
</g>
<g>
</g>
</svg>
