<?xml version="1.0" encoding="iso-8859-1"?>
<!-- Generator: Adobe Illustrator 19.0.0, SVG Export Plug-In . SVG Version: 6.00 Build 0)  -->
<svg version="1.1" id="Layer_1" xmlns="http://www.w3.org/2000/svg" xmlns:xlink="http://www.w3.org/1999/xlink" x="0px" y="0px"
	 viewBox="0 0 511.999 511.999" style="enable-background:new 0 0 511.999 511.999;" xml:space="preserve">
<path style="fill:#B9D8F4;" d="M399.623,511.999H112.378c-8.586,0-15.612-7.025-15.612-15.612V364.481
	c0-8.586,7.025-15.612,15.612-15.612h287.245c8.586,0,15.612,7.025,15.612,15.612v131.906
	C415.235,504.974,408.209,511.999,399.623,511.999z"/>
<g>
	<path style="fill:#96C8EF;" d="M188.965,348.869h-76.587c-8.586,0-15.612,7.025-15.612,15.612v131.906
		c0,8.586,7.025,15.612,15.612,15.612h76.587V348.869z"/>
	<path style="fill:#96C8EF;" d="M256,400.141c-25.762,0-46.84,21.078-46.84,46.84v65.018h93.681v-65.018
		C302.841,400.141,256,400.141,256,400.141z"/>
</g>
<path style="fill:#78B9EB;" d="M125.032,400.141c-10.597,0-20.396,3.572-28.268,9.564v86.683c0,8.586,7.025,15.612,15.612,15.612
	h59.496v-65.018C171.874,400.141,125.032,400.141,125.032,400.141z"/>
<path style="fill:#96C8EF;" d="M386.967,400.14c10.597,0,20.396,3.572,28.268,9.564v86.683c0,8.586-7.025,15.612-15.612,15.612
	h-59.496v-65.018C340.127,400.14,386.967,400.14,386.967,400.14z"/>
<path style="fill:#D1E7F8;" d="M440.566,74.649H71.434c-11.535,0-20.974,9.438-20.974,20.974v214.458
	c0,38.452,31.46,69.911,69.911,69.911h271.256c38.452,0,69.911-31.46,69.911-69.911V95.623
	C461.539,84.088,452.101,74.649,440.566,74.649z"/>
<path style="fill:#B9D8F4;" d="M143.623,310.082V95.623c0-11.535,9.438-20.974,20.974-20.974H71.434
	c-11.535,0-20.974,9.438-20.974,20.974v214.458c0,38.452,31.46,69.911,69.911,69.911h93.161
	C175.083,379.993,143.623,348.532,143.623,310.082z"/>
<path style="fill:#AAFFF5;" d="M303.091,180.137l-87.236-66.774c-6.363-4.871-7.585-14.063-2.714-20.427l66.774-87.236
	c4.871-6.363,14.063-7.585,20.427-2.714l87.236,66.774c6.363,4.871,7.585,14.063,2.714,20.427l-66.774,87.236
	C318.648,183.786,309.456,185.008,303.091,180.137z"/>
<g>
	<path style="fill:#DDFFFB;" d="M211.657,180.137l-87.236-66.774c-6.363-4.871-7.585-14.063-2.714-20.427l66.774-87.236
		c4.871-6.363,14.063-7.585,20.427-2.714l87.236,66.774c6.363,4.871,7.585,14.063,2.714,20.427l-66.774,87.236
		C227.213,183.786,218.021,185.008,211.657,180.137z"/>
	<path style="fill:#DDFFFB;" d="M227.137,74.649l-13.996,18.284c-4.871,6.363-3.65,15.556,2.714,20.427l87.236,66.774
		c6.363,4.871,15.556,3.65,20.427-2.714l66.774-87.235c3.523-4.603,3.844-10.678,1.352-15.536H227.137V74.649z"/>
</g>
<path style="fill:#FFFFFF;" d="M121.707,92.935c-4.871,6.363-3.65,15.556,2.714,20.427l87.236,66.774
	c6.363,4.871,15.556,3.65,20.427-2.714l66.774-87.236c3.523-4.603,3.844-10.678,1.352-15.536H135.702L121.707,92.935z"/>
<path style="fill:#FF9811;" d="M408.322,109.605H103.679c-10.086,0-18.263,8.176-18.263,18.263v182.214
	c0,38.788,46.304,41.247,46.304,41.247v110.801c0,8.237,6.678,14.914,14.914,14.914h218.729c8.237,0,14.914-6.678,14.914-14.914
	V351.329c0,0,46.304-2.459,46.304-41.247V127.868C426.583,117.781,418.407,109.605,408.322,109.605z"/>
<g>
	<path style="fill:#EE8700;" d="M131.722,379.993v82.136c0,8.237,6.678,14.914,14.914,14.914h218.729
		c8.237,0,14.914-6.678,14.914-14.914v-82.136H131.722z"/>
	<path style="fill:#EE8700;" d="M188.965,364.241c0-10.807-7.785-13.856-10.245-14.549c-13.638-3.22-36.059-12.617-36.059-39.61
		V127.868c0-10.086,8.176-18.263,18.263-18.263H103.68c-10.086,0-18.263,8.176-18.263,18.263v182.214
		c0,38.788,46.304,41.247,46.304,41.247v110.801c0,8.237,6.678,14.914,14.914,14.914h42.329L188.965,364.241L188.965,364.241z"/>
</g>
<path style="fill:#CC7400;" d="M188.965,462.129v-74.991v-7.145h-57.243v82.136c0,8.237,6.678,14.914,14.914,14.914h42.329V462.129z
	"/>
<g>
	<circle style="fill:#EE8700;" cx="235.186" cy="191.004" r="18.214"/>
	<circle style="fill:#EE8700;" cx="317.303" cy="237.787" r="18.214"/>
	<circle style="fill:#EE8700;" cx="271.613" cy="324.963" r="18.214"/>
	<path style="fill:#EE8700;" d="M395.36,198.809c-4.311,0-7.806-3.495-7.806-7.806v-9.942c0-4.311,3.495-7.806,7.806-7.806
		s7.806,3.495,7.806,7.806v9.942C403.166,195.315,399.671,198.809,395.36,198.809z"/>
	<path style="fill:#EE8700;" d="M395.36,288.264c-4.311,0-7.806-3.495-7.806-7.806V216.97c0-4.311,3.495-7.806,7.806-7.806
		s7.806,3.495,7.806,7.806v63.488C403.166,284.769,399.671,288.264,395.36,288.264z"/>
</g>
<g>
	<path style="fill:#957856;" d="M256,400.141c-25.762,0-46.84,21.078-46.84,46.84v30.062h93.681v-30.062
		C302.841,400.141,256,400.141,256,400.141z"/>
	<path style="fill:#957856;" d="M380.279,400.772v61.357c0,8.237-6.678,14.914-14.914,14.914h-25.238v-30.062
		C340.127,411.279,367.338,402.79,380.279,400.772z"/>
</g>
<path style="fill:#806749;" d="M131.722,400.772v61.357c0,8.237,6.678,14.914,14.914,14.914h25.238v-30.062
	C171.874,411.279,144.663,402.79,131.722,400.772z"/>
<g>
</g>
<g>
</g>
<g>
</g>
<g>
</g>
<g>
</g>
<g>
</g>
<g>
</g>
<g>
</g>
<g>
</g>
<g>
</g>
<g>
</g>
<g>
</g>
<g>
</g>
<g>
</g>
<g>
</g>
</svg>
