<?xml version="1.0" encoding="iso-8859-1"?>
<!-- Generator: Adobe Illustrator 19.0.0, SVG Export Plug-In . SVG Version: 6.00 Build 0)  -->
<svg version="1.1" id="Layer_1" xmlns="http://www.w3.org/2000/svg" xmlns:xlink="http://www.w3.org/1999/xlink" x="0px" y="0px"
	 viewBox="0 0 512 512" style="enable-background:new 0 0 512 512;" xml:space="preserve">
<path style="fill:#806749;" d="M381.902,224.237H217.497l-60.666,10.492l-48.725-10.492H45.433C20.445,224.237,0,244.682,0,269.67
	l0,0c0,24.988,20.445,45.433,45.433,45.433h62.196l44.663-11.035l65.443,11.035h164.167c9.233,0,16.787-7.554,16.787-16.787v-57.292
	C398.689,231.791,391.135,224.237,381.902,224.237z"/>
<g>
	<path style="fill:#6A563D;" d="M0,269.67c0,24.988,20.445,45.433,45.433,45.433h62.434l44.186-10.492l65.921,10.492h163.928
		c9.233,0,16.787-7.554,16.787-16.787V268.94c0,9.233-7.554,16.787-16.787,16.787H45.432c-19.852,0-36.825-12.91-42.968-30.745
		C0.876,259.596,0,264.534,0,269.67L0,269.67z"/>
	<path style="fill:#6A563D;" d="M304.264,263.581h-74.142c-4.346,0-7.869-3.523-7.869-7.869c0-4.346,3.523-7.869,7.869-7.869h74.142
		c4.347,0,7.869,3.523,7.869,7.869C312.132,260.058,308.61,263.581,304.264,263.581z"/>
	<path style="fill:#6A563D;" d="M351.127,263.581h-18.885c-4.347,0-7.869-3.523-7.869-7.869c0-4.346,3.522-7.869,7.869-7.869h18.885
		c4.347,0,7.869,3.523,7.869,7.869C358.996,260.058,355.474,263.581,351.127,263.581z"/>
</g>
<path style="fill:#FFE477;" d="M180.723,261.221l37.058-36.983H108.508l-38.014,38.014c-4.097,4.097-4.097,10.74,0,14.838
	l38.014,38.014h109.274l-37.451-38.031C173.117,268.04,180.723,261.221,180.723,261.221z"/>
<polygon style="fill:#FFDA44;" points="108.509,315.103 217.782,315.103 188.853,285.726 79.132,285.726 "/>
<circle style="fill:#FFA733;" cx="139.897" cy="269.669" r="22.732"/>
<g>
	<path style="fill:#3E3D42;" d="M419.673,224.237c-12.118,0-22.033,9.915-22.033,22.033v46.8c0,12.118,9.915,22.033,22.033,22.033
		c12.118,0,22.033-9.915,22.033-22.033v-46.8C441.705,234.151,431.791,224.237,419.673,224.237z"/>
	<path style="fill:#3E3D42;" d="M455.72,340.571c-2.068,0-4.092-0.839-5.561-2.298c-1.469-1.469-2.308-3.494-2.308-5.571
		c0-2.067,0.839-4.102,2.308-5.561c1.468-1.469,3.493-2.308,5.561-2.308c2.076,0,4.102,0.839,5.571,2.308
		c1.459,1.469,2.298,3.494,2.298,5.561c0,2.077-0.839,4.102-2.298,5.571C459.824,339.731,457.798,340.571,455.72,340.571z"/>
	<path style="fill:#3E3D42;" d="M420.722,381.139c-2.068,0-4.092-0.839-5.561-2.298c-1.469-1.469-2.308-3.494-2.308-5.571
		c0-2.067,0.839-4.102,2.308-5.561c1.468-1.469,3.493-2.308,5.561-2.308c2.076,0,4.102,0.839,5.571,2.308
		c1.459,1.469,2.298,3.494,2.298,5.561c0,2.077-0.839,4.102-2.298,5.571C424.824,380.299,422.799,381.139,420.722,381.139z"/>
	<path style="fill:#3E3D42;" d="M455.72,423.106c-2.068,0-4.092-0.839-5.561-2.298c-1.469-1.469-2.308-3.494-2.308-5.571
		c0-2.067,0.839-4.102,2.308-5.561c1.468-1.469,3.493-2.308,5.561-2.308c2.076,0,4.102,0.839,5.571,2.308
		c1.459,1.469,2.298,3.494,2.298,5.561c0,2.077-0.839,4.102-2.298,5.571C459.824,422.266,457.798,423.106,455.72,423.106z"/>
</g>
<path style="fill:#2D2D30;" d="M419.673,285.726c-12.118,0-22.033-9.915-22.033-22.033v29.377c0,12.118,9.915,22.033,22.033,22.033
	c12.118,0,22.033-9.915,22.033-22.033v-29.377C441.705,275.812,431.791,285.726,419.673,285.726z"/>
<g>
	<path style="fill:#B9D8F4;" d="M424.77,181.221h-72.703c-12.695,0-23.082-10.387-23.082-23.082l0,0
		c0-12.695,10.387-23.082,23.082-23.082h72.702c12.695,0,23.082,10.387,23.082,23.082l0,0
		C447.851,170.834,437.465,181.221,424.77,181.221z"/>
	<path style="fill:#B9D8F4;" d="M205.18,135.058h-27.588c-12.695,0-23.082-10.387-23.082-23.082l0,0
		c0-12.695,10.387-23.082,23.082-23.082h27.588c12.695,0,23.082,10.387,23.082,23.082l0,0
		C228.261,124.671,217.875,135.058,205.18,135.058z"/>
</g>
<g>
	<path style="fill:#D1E7F8;" d="M488.918,235.778L488.918,235.778c-12.695,0-23.082-10.387-23.082-23.082l0,0
		c0-12.695,10.387-23.082,23.082-23.082l0,0c12.695,0,23.082,10.387,23.082,23.082l0,0C512,225.391,501.613,235.778,488.918,235.778
		z"/>
	<path style="fill:#D1E7F8;" d="M465.836,135.058H279.629c-12.695,0-23.082-10.387-23.082-23.082l0,0
		c0-12.695,10.387-23.082,23.082-23.082h186.207c12.695,0,23.082,10.387,23.082,23.082l0,0
		C488.918,124.671,478.531,135.058,465.836,135.058z"/>
</g>
<g>
</g>
<g>
</g>
<g>
</g>
<g>
</g>
<g>
</g>
<g>
</g>
<g>
</g>
<g>
</g>
<g>
</g>
<g>
</g>
<g>
</g>
<g>
</g>
<g>
</g>
<g>
</g>
<g>
</g>
</svg>
