<?xml version="1.0" encoding="iso-8859-1"?>
<!-- Generator: Adobe Illustrator 19.0.0, SVG Export Plug-In . SVG Version: 6.00 Build 0)  -->
<svg version="1.1" id="Layer_1" xmlns="http://www.w3.org/2000/svg" xmlns:xlink="http://www.w3.org/1999/xlink" x="0px" y="0px"
	 viewBox="0 0 512.001 512.001" style="enable-background:new 0 0 512.001 512.001;" xml:space="preserve">
<path style="fill:#4E901E;" d="M496.599,270.433c36.135-84.043,7.334-184.312-72.179-235.382
	C344.885-16.033,241.688-0.503,180.292,67.358c-1.144,1.508-18.629,25.388,8.005,42.495l143.739,76.504l122.559,94.537
	C481.097,297.916,496.351,270.875,496.599,270.433z"/>
<path style="fill:#47821C;" d="M262.689,67.349c27.095-29.948,62.333-49.696,100.085-58.034
	c-65.868-14.621-136.102,6.769-182.483,58.034c-1.144,1.508-18.629,25.388,8.005,42.495l266.299,171.041
	c26.503,17.022,41.756-10.018,42.004-10.46c1.761-4.094,3.361-8.228,4.815-12.391l-230.719-148.19
	C244.059,92.737,261.545,68.855,262.689,67.349z"/>
<path style="fill:#FFEB99;" d="M406.965,62.223c-73.419-47.156-171.514-25.79-218.67,47.629l266.299,171.041
	C501.751,207.475,480.385,109.38,406.965,62.223z"/>
<g>
	<path style="fill:#FFE477;" d="M439.311,89.768L439.311,89.768c-9.282-10.365-20.084-19.669-32.346-27.545
		c-73.419-47.156-171.514-25.79-218.67,47.629l35.844,23.022C309.291,9.126,439.346,90.218,439.311,89.768z"/>
	<path style="fill:#FFE477;" d="M406.965,62.223c-24.23-15.563-51.147-23.658-78.034-24.885l-7.487,158.036L462.05,122.84
		C449.752,98.898,431.196,77.786,406.965,62.223z"/>
</g>
<path style="fill:#FFDA44;" d="M328.931,37.338l-1.321,27.876c59.749-7.466,111.722,24.839,111.701,24.555l0,0
	c-0.004-0.005-0.008-0.01-0.013-0.015c-9.278-10.36-20.077-19.658-32.333-27.53C382.735,46.661,355.819,38.567,328.931,37.338z"/>
<path style="fill:#FFE477;" d="M439.39,242.897c-4.011-1.626-6.328-5.803-4.961-9.91c6.153-18.491,7.638-38.49,4.293-57.837
	c-0.738-4.265,2.122-8.319,6.386-9.057c4.264-0.737,8.319,2.122,9.057,6.386c3.785,21.886,2.101,44.521-4.866,65.457
	C448.207,241.221,445.081,245.204,439.39,242.897z"/>
<path style="fill:#D1E7F8;" d="M344.753,123.546H29.077c0,0-34.844,0.92-28.246,43.288l47.935,307.797
	c0.003,0.019,6.157,32.56,39.519,32.56h197.259c33.363,0,39.516-32.541,39.519-32.56l47.935-307.797
	C379.598,124.466,344.753,123.546,344.753,123.546z"/>
<path style="fill:#B9D8F4;" d="M146.988,474.631L99.053,166.834c-6.599-42.369,28.246-43.288,28.246-43.288h-98.22
	c0,0-34.843,0.92-28.246,43.288l47.935,307.797c0.003,0.019,6.157,32.56,39.519,32.56h98.22
	C153.144,507.191,146.991,474.65,146.988,474.631z"/>
<path style="fill:#FFE477;" d="M314.611,163.91H59.22c0,0-17.961,0.155-14.927,19.602c8.846,56.688,34.321,219.909,42.025,269.099
	c0.317,1.924,2.877,14.204,16.771,14.204h167.655c13.893,0,16.454-12.281,16.771-14.204c7.705-49.191,33.179-212.412,42.025-269.099
	C332.572,164.065,314.611,163.91,314.611,163.91z"/>
<g>
	<path style="fill:#FFDA44;" d="M165.73,452.612c-7.705-49.191-33.179-212.412-42.025-269.099
		c-3.033-19.448,14.927-19.602,14.927-19.602H59.22c0,0-17.961,0.156-14.927,19.602c8.846,56.688,34.321,219.909,42.025,269.099
		c0.317,1.924,2.877,14.204,16.771,14.204h79.412C168.608,466.816,166.047,454.536,165.73,452.612z"/>
	<circle style="fill:#FFDA44;" cx="216.817" cy="237.715" r="18.286"/>
	<circle style="fill:#FFDA44;" cx="253.388" cy="304.798" r="18.286"/>
	<circle style="fill:#FFDA44;" cx="204.79" cy="376.896" r="18.286"/>
</g>
<g>
</g>
<g>
</g>
<g>
</g>
<g>
</g>
<g>
</g>
<g>
</g>
<g>
</g>
<g>
</g>
<g>
</g>
<g>
</g>
<g>
</g>
<g>
</g>
<g>
</g>
<g>
</g>
<g>
</g>
</svg>
