<?xml version="1.0" encoding="iso-8859-1"?>
<!-- Generator: Adobe Illustrator 19.0.0, SVG Export Plug-In . SVG Version: 6.00 Build 0)  -->
<svg version="1.1" id="Layer_1" xmlns="http://www.w3.org/2000/svg" xmlns:xlink="http://www.w3.org/1999/xlink" x="0px" y="0px"
	 viewBox="0 0 512 512" style="enable-background:new 0 0 512 512;" xml:space="preserve">
<g>
	<path style="fill:#FFDAAA;" d="M123.594,179.303H106.37c-10.344,0-18.808-8.464-18.808-18.808V18.808
		C87.561,8.464,96.025,0,106.37,0h17.224c10.344,0,18.808,8.464,18.808,18.808v141.687
		C142.402,170.84,133.938,179.303,123.594,179.303z"/>
	<path style="fill:#FFDAAA;" d="M178.433,221.691h-17.224c-10.344,0-18.808-8.464-18.808-18.808V18.808
		C142.401,8.464,150.864,0,161.209,0h17.224c10.344,0,18.808,8.464,18.808,18.808v184.074
		C197.241,213.227,188.778,221.691,178.433,221.691z"/>
	<path style="fill:#FFDAAA;" d="M233.273,282.199h-17.224c-10.344,0-18.808-8.464-18.808-18.808V18.808
		C197.241,8.464,205.705,0,216.049,0h17.224c10.344,0,18.808,8.464,18.808,18.808v244.582
		C252.082,273.735,243.618,282.199,233.273,282.199z"/>
	<path style="fill:#FFDAAA;" d="M288.114,350.414H270.89c-10.344,0-18.808-8.464-18.808-18.808V18.808
		C252.082,8.464,260.545,0,270.89,0h17.224c10.344,0,18.808,8.464,18.808,18.808v312.797
		C306.922,341.95,298.458,350.414,288.114,350.414z"/>
	<path style="fill:#FFDAAA;" d="M342.953,438.88h-17.224c-10.344,0-18.808-8.464-18.808-18.808V18.808
		C306.921,8.464,315.385,0,325.729,0h17.224c10.344,0,18.808,8.464,18.808,18.808v401.264
		C361.761,430.416,353.298,438.88,342.953,438.88z"/>
	<path style="fill:#FFDAAA;" d="M397.794,512H380.57c-10.344,0-18.808-8.464-18.808-18.808V18.808C361.761,8.464,370.225,0,380.57,0
		h17.224c10.344,0,18.808,8.464,18.808,18.808v474.384C416.602,503.536,408.138,512,397.794,512z"/>
</g>
<g>
	<path style="fill:#FFC477;" d="M129.557,0.992C127.679,0.358,125.677,0,123.594,0H106.37C96.025,0,87.561,8.464,87.561,18.808
		v141.687c0,10.344,8.464,18.808,18.808,18.808h17.224c2.131,0,4.173-0.376,6.088-1.037c-8.009-3.278-14.7-11.748-14.7-20.899
		V21.936C114.982,12.783,121.547,4.268,129.557,0.992z"/>
	<path style="fill:#FFC477;" d="M184.646,1.084C182.696,0.394,180.611,0,178.433,0h-17.224c-10.344,0-18.808,8.464-18.808,18.808
		v184.074c0,10.344,8.464,18.808,18.808,18.808h17.224c2.178,0,4.263-0.394,6.213-1.083c-8.007-3.279-14.824-11.704-14.824-20.853
		V21.936C169.821,12.787,176.639,4.362,184.646,1.084z"/>
	<path style="fill:#FFC477;" d="M239.424,1.061C237.492,0.386,235.428,0,233.273,0h-17.224c-10.344,0-18.808,8.464-18.808,18.808
		v244.582c0,10.344,8.464,18.808,18.808,18.808h17.224c2.154,0,4.216-0.385,6.147-1.058c-8.006-3.28-14.758-11.729-14.758-20.877
		V21.936C224.661,12.786,231.416,4.338,239.424,1.061z"/>
	<path style="fill:#FFC477;" d="M294.367,1.098C292.405,0.4,290.306,0,288.114,0H270.89c-10.344,0-18.808,8.464-18.808,18.808
		v312.797c0,10.344,8.464,18.808,18.808,18.808h17.224c2.192,0,4.291-0.4,6.253-1.098c-8.007-3.279-14.865-11.689-14.865-20.838
		V21.936C279.502,12.787,286.359,4.377,294.367,1.098z"/>
	<path style="fill:#FFC477;" d="M349.187,1.091C347.231,0.397,345.139,0,342.953,0h-17.224c-10.344,0-18.808,8.464-18.808,18.808
		v401.264c0,10.344,8.464,18.808,18.808,18.808h17.224c2.186,0,4.278-0.397,6.234-1.091c-8.007-3.279-14.846-11.697-14.846-20.846
		V21.936C334.341,12.787,341.18,4.37,349.187,1.091z"/>
	<path style="fill:#FFC477;" d="M404.076,1.109C402.106,0.404,399.997,0,397.794,0H380.57c-10.344,0-18.808,8.464-18.808,18.808
		v474.384c0,10.344,8.464,18.808,18.808,18.808h17.224c2.204,0,4.313-0.404,6.282-1.109c-8.006-3.28-14.894-11.679-14.894-20.827
		V21.936C389.182,12.787,396.07,4.389,404.076,1.109z"/>
</g>
<g>
	<path style="fill:#D80027;" d="M416.602,240.98H197.241c-4.329,0-7.837-3.508-7.837-7.837c0-4.329,3.508-7.837,7.837-7.837h219.361
		c4.329,0,7.837,3.508,7.837,7.837C424.439,237.472,420.931,240.98,416.602,240.98z"/>
	<path style="fill:#D80027;" d="M416.602,378.266H306.921c-4.329,0-7.837-3.508-7.837-7.837c0-4.329,3.508-7.837,7.837-7.837
		h109.681c4.329,0,7.837,3.508,7.837,7.837C424.439,374.758,420.931,378.266,416.602,378.266z"/>
</g>
<rect x="87.562" y="91.366" style="fill:#FFB655;" width="329.038" height="45.633"/>
<g>
	<rect x="361.765" y="91.366" style="fill:#FF9811;" width="27.418" height="45.633"/>
	<rect x="306.918" y="91.366" style="fill:#FF9811;" width="27.418" height="45.633"/>
	<rect x="252.082" y="91.366" style="fill:#FF9811;" width="27.418" height="45.633"/>
	<rect x="87.562" y="91.366" style="fill:#FF9811;" width="27.418" height="45.633"/>
	<rect x="142.399" y="91.366" style="fill:#FF9811;" width="27.418" height="45.633"/>
	<rect x="197.245" y="91.366" style="fill:#FF9811;" width="27.418" height="45.633"/>
</g>
<rect x="87.562" y="43.684" style="fill:#FF3F62;" width="329.038" height="67.166"/>
<rect x="87.562" y="43.684" style="fill:#FF0C38;" width="27.418" height="67.166"/>
<path style="fill:#A4E276;" d="M416.602,66.963l-30.126,8.431l-42.692-11.948c-1.381-0.386-2.843-0.386-4.225,0L296.87,75.395
	l-42.688-11.948c-1.382-0.386-2.844-0.386-4.225,0L207.27,75.395l-42.685-11.948c-1.381-0.386-2.843-0.386-4.225,0L117.68,75.395
	l-30.118-8.43v16.276l28.005,7.839c1.38,0.385,2.842,0.387,4.225,0l42.681-11.948l42.686,11.948c1.381,0.386,2.843,0.386,4.225,0
	l42.687-11.948l42.689,11.948c1.382,0.387,2.844,0.385,4.225,0l42.688-11.948l42.692,11.948c0.691,0.193,1.402,0.289,2.112,0.289
	c0.709,0,1.421-0.097,2.112-0.289l28.014-7.84V66.963z"/>
<polygon style="fill:#7ED63E;" points="114.982,74.639 87.561,66.964 87.561,83.241 114.982,90.916 "/>
<g>
</g>
<g>
</g>
<g>
</g>
<g>
</g>
<g>
</g>
<g>
</g>
<g>
</g>
<g>
</g>
<g>
</g>
<g>
</g>
<g>
</g>
<g>
</g>
<g>
</g>
<g>
</g>
<g>
</g>
</svg>
