<?xml version="1.0" encoding="iso-8859-1"?>
<!-- Generator: Adobe Illustrator 19.0.0, SVG Export Plug-In . SVG Version: 6.00 Build 0)  -->
<svg version="1.1" id="Layer_1" xmlns="http://www.w3.org/2000/svg" xmlns:xlink="http://www.w3.org/1999/xlink" x="0px" y="0px"
	 viewBox="0 0 512 512" style="enable-background:new 0 0 512 512;" xml:space="preserve">
<path style="fill:#FF9811;" d="M105.012,512L105.012,512c-10.823,0-19.679-8.855-19.679-19.679V19.679
	C85.334,8.856,94.189,0,105.012,0l0,0c10.823,0,19.679,8.856,19.679,19.679V492.32C124.691,503.144,115.835,512,105.012,512z"/>
<path style="fill:#EE8700;" d="M105.012,492.321V19.679c0-7.241,3.975-13.586,9.84-17.003C111.95,0.986,108.594,0,105.012,0
	C94.189,0,85.334,8.856,85.334,19.679V492.32c0,10.823,8.856,19.679,19.679,19.679c3.582,0,6.938-0.986,9.84-2.676
	C108.987,505.907,105.012,499.563,105.012,492.321z"/>
<rect x="45.976" y="157.675" style="fill:#AA6100;" width="434.678" height="101.136"/>
<rect x="45.976" y="157.675" style="fill:#FFB655;" width="118.418" height="101.136"/>
<rect x="85.337" y="157.675" style="fill:#FFA733;" width="39.358" height="101.136"/>
<rect x="124.688" y="157.675" style="fill:#FF9811;" width="39.358" height="101.136"/>
<rect x="304.065" y="157.675" style="fill:#FFA733;" width="176.588" height="101.136"/>
<path style="fill:#D1E7F8;" d="M489.232,180.447H22.768C10.245,180.447,0,170.2,0,157.678l0,0c0-12.523,10.246-22.768,22.768-22.768
	h466.463c12.523,0,22.768,10.246,22.768,22.768l0,0C512,170.2,501.754,180.447,489.232,180.447z"/>
<path style="fill:#4E901E;" d="M22.768,180.447h147.898v-45.538H22.768C10.246,134.909,0,145.155,0,157.677
	C0,170.199,10.246,180.447,22.768,180.447z"/>
<path style="fill:#47821C;" d="M89.861,157.677c0-12.523,10.246-22.769,22.768-22.769H22.768C10.246,134.909,0,145.155,0,157.677
	c0,12.522,10.246,22.769,22.768,22.769h89.861C100.107,180.447,89.861,170.2,89.861,157.677z"/>
<path style="fill:#FF3F62;" d="M489.232,180.447H341.334v-45.538h147.898c12.523,0,22.768,10.246,22.768,22.769
	S501.754,180.447,489.232,180.447z"/>
<path style="fill:#FFC477;" d="M489.232,278.768H22.768C10.246,278.768,0,268.523,0,256l0,0c0-12.523,10.246-22.768,22.768-22.768
	h466.463C501.755,233.232,512,243.478,512,256l0,0C512,268.523,501.754,278.768,489.232,278.768z"/>
<path style="fill:#FFB655;" d="M89.861,256L89.861,256c0-12.523,10.246-22.768,22.768-22.768H22.768C10.246,233.232,0,243.477,0,256
	l0,0c0,12.523,10.246,22.769,22.768,22.769h89.861C100.107,278.768,89.861,268.523,89.861,256z"/>
<g>
</g>
<g>
</g>
<g>
</g>
<g>
</g>
<g>
</g>
<g>
</g>
<g>
</g>
<g>
</g>
<g>
</g>
<g>
</g>
<g>
</g>
<g>
</g>
<g>
</g>
<g>
</g>
<g>
</g>
</svg>
