<?xml version="1.0" encoding="iso-8859-1"?>
<!-- Generator: Adobe Illustrator 19.0.0, SVG Export Plug-In . SVG Version: 6.00 Build 0)  -->
<svg version="1.1" id="Layer_1" xmlns="http://www.w3.org/2000/svg" xmlns:xlink="http://www.w3.org/1999/xlink" x="0px" y="0px"
	 viewBox="0 0 512 512" style="enable-background:new 0 0 512 512;" xml:space="preserve">
<path style="fill:#806749;" d="M367.987,131.212H144.347c-28.16,0-51.2-23.04-51.2-51.2V51.2c0-28.16,23.04-51.2,51.2-51.2h223.641
	c28.16,0,51.2,23.04,51.2,51.2v28.812C419.187,108.172,396.147,131.212,367.987,131.212z"/>
<path style="fill:#5F4D37;" d="M193.819,80.011V51.2c0-28.16,23.04-51.2,51.2-51.2H144.347c-28.16,0-51.2,23.04-51.2,51.2v28.811
	c0,28.16,23.04,51.2,51.2,51.2h100.672C216.859,131.211,193.819,108.171,193.819,80.011z"/>
<path style="fill:#AA6100;" d="M400.632,44.145h-288.93c-10.206,0-18.555,8.35-18.555,18.555v430.745
	c0,10.206,8.35,18.555,18.555,18.555h71.57c10.206,0,18.555-8.35,18.555-18.555v-73.15c0-10.206,8.35-18.555,18.555-18.555h71.57
	c10.206,0,18.555,8.35,18.555,18.555v73.15c0,10.206,8.35,18.555,18.555,18.555h71.57c10.206,0,18.555-8.35,18.555-18.555V62.7
	C419.187,52.495,410.838,44.145,400.632,44.145z"/>
<path style="fill:#CC7400;" d="M111.702,44.145c-10.206,0-18.555,8.35-18.555,18.555v430.745c0,10.206,8.35,18.555,18.555,18.555
	h71.57c10.206,0,18.555-8.35,18.555-18.555v-449.3H111.702z"/>
<path style="fill:#9A4C00;" d="M400.632,44.145c10.206,0,18.555,8.35,18.555,18.555v430.745c0,10.206-8.35,18.555-18.555,18.555
	h-71.57c-10.206,0-18.555-8.35-18.555-18.555v-449.3H400.632z"/>
<g>
	<path style="fill:#663A00;" d="M387.84,414.505c-4.328,0-7.837-3.508-7.837-7.837v-61.473c0-4.329,3.509-7.837,7.837-7.837
		s7.837,3.508,7.837,7.837v61.473C395.677,410.996,392.168,414.505,387.84,414.505z"/>
	<path style="fill:#663A00;" d="M387.84,452.645c-4.328,0-7.837-3.508-7.837-7.837v-11.152c0-4.329,3.509-7.837,7.837-7.837
		s7.837,3.508,7.837,7.837v11.152C395.677,449.136,392.168,452.645,387.84,452.645z"/>
</g>
<path style="fill:#957856;" d="M409.744,78.197H102.257c-12.757,0-23.194-10.437-23.194-23.194l0,0
	c0-12.757,10.437-23.194,23.194-23.194h307.485c12.757,0,23.194,10.437,23.194,23.194l0,0
	C432.937,67.76,422.5,78.197,409.744,78.197z"/>
<path style="fill:#806749;" d="M170.624,55.002L170.624,55.002c0-12.756,10.437-23.194,23.194-23.194h-91.56
	c-12.756,0-23.194,10.437-23.194,23.194l0,0c0,12.756,10.437,23.195,23.194,23.195h91.56
	C181.061,78.197,170.624,67.76,170.624,55.002z"/>
<g>
	<path style="fill:#3E3D42;" d="M364.848,195.598c-0.008,0-0.018,0-0.026,0c-2.969-0.01-5.676-1.696-6.995-4.355l-47.33-95.429
		l-47.483,95.439c-1.325,2.662-4.043,4.346-7.016,4.346c-0.003,0-0.006,0-0.009,0c-2.978-0.004-5.696-1.695-7.015-4.363
		l-47.21-95.485l-48.109,95.536c-1.331,2.645-4.04,4.312-7,4.312c-0.007,0-0.015,0-0.022,0c-2.967-0.008-5.677-1.693-6.997-4.351
		L86.128,83.497c-1.925-3.877-0.344-8.58,3.533-10.505c3.878-1.925,8.58-0.342,10.504,3.534l46.538,93.714l48.124-95.566
		c1.335-2.654,4.096-4.337,7.028-4.312c2.971,0.011,5.68,1.7,6.997,4.363l47.167,95.399l47.473-95.416
		c1.325-2.662,4.043-4.346,7.017-4.346c0.001,0,0.003,0,0.005,0c2.976,0.002,5.694,1.689,7.015,4.355l47.378,95.526l47.284-93.758
		c1.949-3.864,6.661-5.419,10.526-3.468c3.864,1.949,5.418,6.661,3.468,10.525l-54.339,107.748
		C370.512,193.932,367.805,195.598,364.848,195.598z"/>
	<path style="fill:#3E3D42;" d="M201.657,305.16c-2.96,0-5.668-1.668-7-4.312l-48.124-95.566l-46.539,93.714
		c-1.925,3.877-6.627,5.459-10.504,3.534c-3.877-1.926-5.459-6.629-3.533-10.505l53.508-107.749c1.32-2.658,4.029-4.343,6.997-4.351
		c0.007,0,0.015,0,0.022,0c2.96,0,5.668,1.668,7,4.312l48.109,95.536l47.21-95.485c1.32-2.669,4.037-4.359,7.015-4.363
		c0.003,0,0.006,0,0.009,0c2.974,0,5.692,1.682,7.016,4.346l47.483,95.439l47.331-95.43c1.319-2.659,4.026-4.345,6.995-4.355
		c0.008,0,0.018,0,0.026,0c2.958,0,5.664,1.666,6.998,4.308l54.34,107.749c1.949,3.864,0.396,8.577-3.468,10.525
		c-3.866,1.951-8.577,0.396-10.526-3.468l-47.284-93.758l-47.379,95.526c-1.322,2.667-4.04,4.353-7.015,4.355
		c-0.002,0-0.003,0-0.005,0c-2.974,0-5.692-1.683-7.017-4.346L255.851,205.4l-47.167,95.399c-1.317,2.663-4.026,4.352-6.997,4.363
		C201.676,305.16,201.667,305.16,201.657,305.16z"/>
</g>
<path style="fill:#1D1D1F;" d="M419.187,195.598H93.147c-4.328,0-7.837-3.508-7.837-7.837c0-4.329,3.509-7.837,7.837-7.837h326.041
	c4.328,0,7.837,3.508,7.837,7.837C427.024,192.09,423.515,195.598,419.187,195.598z"/>
<g>
</g>
<g>
</g>
<g>
</g>
<g>
</g>
<g>
</g>
<g>
</g>
<g>
</g>
<g>
</g>
<g>
</g>
<g>
</g>
<g>
</g>
<g>
</g>
<g>
</g>
<g>
</g>
<g>
</g>
</svg>
