<?xml version="1.0" encoding="iso-8859-1"?>
<!-- Generator: Adobe Illustrator 19.0.0, SVG Export Plug-In . SVG Version: 6.00 Build 0)  -->
<svg version="1.1" id="Layer_1" xmlns="http://www.w3.org/2000/svg" xmlns:xlink="http://www.w3.org/1999/xlink" x="0px" y="0px"
	 viewBox="0 0 512 512" style="enable-background:new 0 0 512 512;" xml:space="preserve">
<path style="fill:#D1E7F8;" d="M296.474,209.19V49.768h-80.946V209.19c-24.424,14.101-40.967,40.49-40.967,70.572v203.96
	c0,15.553,12.725,28.278,28.278,28.278h106.325c15.553,0,28.278-12.725,28.278-28.278v-203.96
	C337.441,249.68,320.898,223.292,296.474,209.19z"/>
<path style="fill:#FF0C38;" d="M337.429,484.148c0.002-0.142,0.01-0.283,0.01-0.426v-203.96c0-30.082-16.542-56.47-40.967-70.572
	V49.768h-80.946V209.19c-24.424,14.101-40.967,40.49-40.967,70.572v203.96c0,0.143,0.008,0.284,0.01,0.426H337.429z"/>
<path style="fill:#D80027;" d="M215.033,483.722v-203.96c0-25.514,11.903-48.368,30.42-63.325
	c3.059-2.824,10.267-11.2,10.543-27.646l0.004-139.023h-40.473V209.19c-24.424,14.101-40.967,40.49-40.967,70.572v203.96
	C174.56,499.275,215.033,499.275,215.033,483.722z"/>
<path style="fill:#FFFFFF;" d="M242.701,426.954l-48.044-48.044c-7.314-7.314-7.314-19.285,0-26.599l48.044-48.044
	c7.314-7.314,19.284-7.314,26.599,0l48.044,48.044c7.314,7.314,7.314,19.284,0,26.599L269.3,426.954
	C261.986,434.268,250.015,434.268,242.701,426.954z"/>
<path style="fill:#D1E7F8;" d="M255.997,298.78c-4.82,0.001-9.639,1.83-13.296,5.486l-48.044,48.044
	c-7.314,7.314-7.314,19.285,0,26.599l48.044,48.044c3.656,3.656,8.476,5.485,13.296,5.486V298.78z"/>
<path style="fill:#B9D8F4;" d="M215.281,484.148h-40.709C174.803,499.506,187.428,512,202.838,512h40.709
	C228.137,512,215.512,499.506,215.281,484.148z"/>
<path style="fill:#4E901E;" d="M256.001,401.828c-19.97,0-36.218-16.248-36.218-36.218s16.247-36.217,36.218-36.217
	s36.218,16.247,36.218,36.217S275.971,401.828,256.001,401.828z M256.001,345.066c-11.328,0-20.545,9.216-20.545,20.544
	c0,11.329,9.216,20.545,20.545,20.545s20.545-9.216,20.545-20.545C276.545,354.282,267.328,345.066,256.001,345.066z"/>
<g>
	<path style="fill:#D80027;" d="M306.055,285.793c-4.195,0-7.671-3.321-7.826-7.548c-0.53-14.367-8.71-27.825-21.347-35.12
		c-3.748-2.164-5.032-6.957-2.868-10.705c2.164-3.749,6.956-5.032,10.705-2.868c17.267,9.969,28.445,28.407,29.174,48.117
		c0.16,4.325-3.217,7.96-7.542,8.12C306.252,285.791,306.152,285.793,306.055,285.793z"/>
	<path style="fill:#D80027;" d="M306.094,313.655c-4.328,0-7.837-3.508-7.837-7.837v-4.528c0-4.329,3.509-7.837,7.837-7.837
		c4.328,0,7.837,3.508,7.837,7.837v4.528C313.931,310.148,310.422,313.655,306.094,313.655z"/>
</g>
<path style="fill:#A5001E;" d="M276.114,0h-40.225c-11.198,0-20.36,9.162-20.36,20.36V81.44c0,11.198,9.162,20.36,20.36,20.36
	h40.225c11.198,0,20.36-9.162,20.36-20.36V20.36C296.474,9.162,287.312,0,276.114,0z"/>
<path style="fill:#D80027;" d="M235.887,0c-11.198,0-20.36,9.162-20.36,20.36V81.44c0,11.198,9.162,20.36,20.36,20.36h4.248V0
	H235.887z"/>
<path style="fill:#720015;" d="M276.114,0c11.198,0,20.36,9.162,20.36,20.36V81.44c0,11.198-9.162,20.36-20.36,20.36h-4.248V0
	H276.114z"/>
<rect x="215.532" y="49.77" style="fill:#4E901E;" width="80.948" height="122.284"/>
<rect x="215.532" y="49.77" style="fill:#47821C;" width="40.473" height="122.284"/>
<path style="fill:#D1E7F8;" d="M292.762,41.851H219.24c-8.088,0-14.705,6.617-14.705,14.705s6.617,14.705,14.705,14.705h73.522
	c8.088,0,14.705-6.617,14.705-14.705C307.466,48.469,300.85,41.851,292.762,41.851z"/>
<path style="fill:#B9D8F4;" d="M245.008,56.556c0-8.088,6.617-14.705,14.705-14.705H219.24c-8.088,0-14.705,6.617-14.705,14.705
	s6.617,14.705,14.705,14.705h40.473C251.624,71.26,245.008,64.643,245.008,56.556z"/>
<g>
</g>
<g>
</g>
<g>
</g>
<g>
</g>
<g>
</g>
<g>
</g>
<g>
</g>
<g>
</g>
<g>
</g>
<g>
</g>
<g>
</g>
<g>
</g>
<g>
</g>
<g>
</g>
<g>
</g>
</svg>
