<?xml version="1.0" encoding="iso-8859-1"?>
<!-- Generator: Adobe Illustrator 19.0.0, SVG Export Plug-In . SVG Version: 6.00 Build 0)  -->
<svg version="1.1" id="Layer_1" xmlns="http://www.w3.org/2000/svg" xmlns:xlink="http://www.w3.org/1999/xlink" x="0px" y="0px"
	 viewBox="0 0 512 512" style="enable-background:new 0 0 512 512;" xml:space="preserve">
<circle style="fill:#4E901E;" cx="143.276" cy="262.865" r="143.276"/>
<g>
	<path style="fill:#47821C;" d="M143.271,119.598c-16.337,0-32.031,2.741-46.659,7.777C65.803,161.436,47.013,206.564,47.013,256
		c0,59.29,27.026,112.381,69.401,147.616c8.701,1.651,17.677,2.524,26.858,2.524c79.127,0,143.271-64.145,143.271-143.271
		S222.398,119.598,143.271,119.598z"/>
	<path style="fill:#47821C;" d="M23.503,274.705c-2.059,0-4.075-0.836-5.538-2.288c-1.463-1.463-2.299-3.479-2.299-5.548
		c0-2.058,0.836-4.086,2.299-5.538c1.462-1.463,3.478-2.299,5.538-2.299c2.068,0,4.086,0.836,5.548,2.299
		c1.453,1.463,2.288,3.479,2.288,5.538c0,2.069-0.836,4.086-2.288,5.548C27.588,273.868,25.571,274.705,23.503,274.705z"/>
	<path style="fill:#47821C;" d="M36.536,215.248c-2.059,0-4.075-0.836-5.538-2.288c-1.463-1.463-2.299-3.48-2.299-5.548
		c0-2.058,0.836-4.086,2.299-5.538c1.462-1.463,3.478-2.299,5.538-2.299c2.068,0,4.086,0.836,5.548,2.299
		c1.453,1.463,2.288,3.48,2.288,5.538c0,2.069-0.836,4.086-2.288,5.548C40.622,214.412,38.605,215.248,36.536,215.248z"/>
	<path style="fill:#47821C;" d="M39.176,324.373c-2.059,0-4.075-0.836-5.538-2.288c-1.463-1.463-2.299-3.48-2.299-5.548
		c0-2.058,0.836-4.086,2.299-5.538c1.462-1.463,3.478-2.299,5.538-2.299c2.068,0,4.086,0.836,5.548,2.299
		c1.453,1.463,2.288,3.479,2.288,5.538c0,2.069-0.836,4.086-2.288,5.548C43.262,323.537,41.244,324.373,39.176,324.373z"/>
</g>
<path style="fill:#5EAC24;" d="M375.475,105.86H238.949v300.282h136.525c75.088,0,136.525-61.437,136.525-136.525v-27.231
	C512,167.295,450.563,105.86,375.475,105.86z"/>
<g>
	<path style="fill:#4E901E;" d="M238.949,292.696v113.446h136.525c67.227,0,123.501-49.247,134.55-113.446L238.949,292.696
		L238.949,292.696z"/>
	<path style="fill:#4E901E;" d="M427.35,278.543c-2.06,0-4.075-0.836-5.538-2.288c-1.463-1.463-2.299-3.479-2.299-5.548
		c0-2.058,0.836-4.086,2.299-5.538c1.462-1.463,3.478-2.299,5.538-2.299c2.068,0,4.086,0.836,5.548,2.299
		c1.453,1.463,2.288,3.479,2.288,5.538c0,2.069-0.836,4.086-2.288,5.548C431.435,277.707,429.418,278.543,427.35,278.543z"/>
	<path style="fill:#4E901E;" d="M477.027,263.837c-2.06,0-4.075-0.836-5.538-2.288c-1.463-1.463-2.299-3.48-2.299-5.548
		c0-2.058,0.836-4.086,2.299-5.538c1.462-1.463,3.478-2.299,5.538-2.299c2.068,0,4.086,0.836,5.548,2.299
		c1.453,1.463,2.288,3.48,2.288,5.538c0,2.069-0.836,4.086-2.288,5.548C481.113,263.001,479.096,263.837,477.027,263.837z"/>
	<path style="fill:#4E901E;" d="M414.636,235.286c-2.059,0-4.075-0.836-5.538-2.288c-1.463-1.463-2.299-3.48-2.299-5.548
		c0-2.058,0.836-4.086,2.299-5.538c1.462-1.463,3.478-2.299,5.538-2.299c2.068,0,4.086,0.836,5.548,2.299
		c1.453,1.463,2.288,3.48,2.288,5.538c0,2.069-0.836,4.086-2.288,5.548C418.722,234.45,416.705,235.286,414.636,235.286z"/>
	<path style="fill:#4E901E;" d="M477.027,211.137c-2.06,0-4.075-0.836-5.538-2.288c-1.463-1.463-2.299-3.48-2.299-5.548
		c0-2.058,0.836-4.086,2.299-5.538c1.462-1.463,3.478-2.299,5.538-2.299c2.068,0,4.086,0.836,5.548,2.299
		c1.453,1.463,2.288,3.48,2.288,5.538c0,2.069-0.836,4.086-2.288,5.548C481.113,210.301,479.096,211.137,477.027,211.137z"/>
	<path style="fill:#4E901E;" d="M456.882,234.978c-2.06,0-4.075-0.836-5.538-2.288c-1.463-1.463-2.299-3.48-2.299-5.548
		c0-2.058,0.836-4.086,2.299-5.538c1.462-1.463,3.478-2.299,5.538-2.299c2.068,0,4.086,0.836,5.548,2.299
		c1.453,1.463,2.288,3.48,2.288,5.538c0,2.069-0.836,4.086-2.288,5.548C460.967,234.142,458.949,234.978,456.882,234.978z"/>
	<path style="fill:#4E901E;" d="M435.186,202.992c-2.06,0-4.075-0.836-5.538-2.288c-1.463-1.463-2.299-3.48-2.299-5.548
		c0-2.058,0.836-4.086,2.299-5.538c1.462-1.463,3.478-2.299,5.538-2.299c2.068,0,4.086,0.836,5.548,2.299
		c1.453,1.463,2.288,3.48,2.288,5.538c0,2.069-0.836,4.086-2.288,5.548C439.272,202.156,437.254,202.992,435.186,202.992z"/>
	<path style="fill:#4E901E;" d="M456.882,178.008c-2.06,0-4.075-0.836-5.538-2.288c-1.463-1.463-2.299-3.48-2.299-5.548
		c0-2.058,0.836-4.086,2.299-5.538c1.462-1.463,3.478-2.299,5.538-2.299c2.068,0,4.086,0.836,5.548,2.299
		c1.453,1.463,2.288,3.48,2.288,5.538c0,2.069-0.836,4.086-2.288,5.548C460.967,177.172,458.949,178.008,456.882,178.008z"/>
	<path style="fill:#4E901E;" d="M392.846,182.093c-2.06,0-4.075-0.836-5.538-2.288c-1.463-1.463-2.299-3.48-2.299-5.548
		c0-2.058,0.836-4.086,2.299-5.538c1.462-1.463,3.478-2.299,5.538-2.299c2.068,0,4.086,0.836,5.548,2.299
		c1.453,1.463,2.288,3.48,2.288,5.538c0,2.069-0.836,4.086-2.288,5.548C396.933,181.257,394.915,182.093,392.846,182.093z"/>
	<path style="fill:#4E901E;" d="M419.513,148.604c-2.06,0-4.075-0.836-5.538-2.288c-1.463-1.463-2.299-3.48-2.299-5.548
		c0-2.058,0.836-4.086,2.299-5.538c1.462-1.463,3.478-2.299,5.538-2.299c2.068,0,4.086,0.836,5.548,2.299
		c1.453,1.463,2.288,3.48,2.288,5.538c0,2.069-0.836,4.086-2.288,5.548C423.598,147.768,421.581,148.604,419.513,148.604z"/>
	<path style="fill:#4E901E;" d="M371.448,140.768c-2.06,0-4.075-0.836-5.538-2.288c-1.463-1.463-2.299-3.48-2.299-5.548
		c0-2.058,0.836-4.086,2.299-5.538c1.462-1.463,3.478-2.299,5.538-2.299c2.068,0,4.086,0.836,5.548,2.299
		c1.453,1.463,2.288,3.48,2.288,5.538c0,2.069-0.836,4.086-2.288,5.548C375.533,139.932,373.515,140.768,371.448,140.768z"/>
</g>
<g>
	<path style="fill:#47821C;" d="M459.678,332.907c-3.548-2.479-4.673-7.204-2.321-10.837c1.486-2.297,2.892-4.684,4.176-7.096
		c2.035-3.818,6.78-5.267,10.602-3.232c3.821,2.035,5.266,6.781,3.232,10.602c-1.493,2.802-3.125,5.575-4.853,8.243
		C469.015,332.903,464.718,336.427,459.678,332.907z"/>
	<path style="fill:#47821C;" d="M388.377,374.302c-0.415-4.309,1.905-8.373,6.149-9.22c18.731-3.742,35.903-12.993,49.661-26.753
		c3.062-3.062,8.024-3.061,11.082-0.001c3.062,3.06,3.062,8.023,0.001,11.082c-15.956,15.957-35.897,26.69-57.673,31.04
		C397.08,380.555,389.091,381.705,388.377,374.302z"/>
</g>
<circle style="fill:#FFF5CC;" cx="238.947" cy="256" r="150.141"/>
<path style="fill:#FFEB99;" d="M238.949,105.859c-9.644,0-19.074,0.921-28.212,2.658C280.17,121.72,332.665,182.724,332.665,256
	S280.17,390.28,210.737,403.483c9.139,1.738,18.568,2.658,28.212,2.658c82.921,0,150.14-67.22,150.14-150.141
	C389.091,173.079,321.87,105.859,238.949,105.859z"/>
<g>
	<path style="fill:#6A563D;" d="M254.405,169.794c0,8.536-2.262,29.781-15.456,29.781s-15.456-21.245-15.456-29.781
		s1.508-29.026,15.456-29.026C252.898,140.768,254.405,161.258,254.405,169.794z"/>
	<path style="fill:#6A563D;" d="M254.405,341.452c0,8.536-2.262,29.781-15.456,29.781s-15.456-21.245-15.456-29.781
		c0-8.536,1.508-29.026,15.456-29.026C252.898,312.426,254.405,332.916,254.405,341.452z"/>
	<path style="fill:#6A563D;" d="M188.922,184.114c6.035,6.035,19.458,22.658,10.129,31.986c-9.33,9.33-25.951-4.093-31.986-10.129
		c-6.035-6.035-19.459-21.591-9.596-31.454C167.331,164.655,182.885,178.079,188.922,184.114z"/>
	<path style="fill:#6A563D;" d="M310.302,305.495c6.035,6.035,19.458,22.658,10.129,31.986s-25.951-4.093-31.986-10.129
		c-6.035-6.036-19.459-21.591-9.596-31.453C288.712,286.036,304.266,299.459,310.302,305.495z"/>
	<path style="fill:#6A563D;" d="M152.744,240.544c8.536,0,29.781,2.262,29.781,15.456c0,13.194-21.245,15.456-29.781,15.456
		c-8.536,0-29.026-1.508-29.026-15.456C123.718,242.052,144.207,240.544,152.744,240.544z"/>
	<path style="fill:#6A563D;" d="M324.402,240.544c8.536,0,29.781,2.262,29.781,15.456c0,13.194-21.245,15.456-29.781,15.456
		c-8.536,0-29.026-1.508-29.026-15.456C295.376,242.052,315.865,240.544,324.402,240.544z"/>
	<path style="fill:#6A563D;" d="M167.065,306.028c6.035-6.035,22.658-19.458,31.986-10.129c9.33,9.33-4.093,25.951-10.129,31.986
		c-6.035,6.035-21.591,19.459-31.454,9.596S161.028,312.064,167.065,306.028z"/>
	<path style="fill:#6A563D;" d="M288.444,184.647c6.035-6.035,22.658-19.459,31.986-10.129s-4.093,25.951-10.129,31.986
		c-6.035,6.035-21.591,19.459-31.454,9.596C268.986,206.239,282.409,190.683,288.444,184.647z"/>
</g>
<g>
	<path style="fill:#554431;" d="M320.432,337.477c5.41-5.41,3.165-13.272-0.851-20.101c-3.517,7.84-7.686,15.323-12.441,22.38
		C311.973,341.288,316.765,341.142,320.432,337.477z"/>
	<path style="fill:#554431;" d="M354.182,255.995c0-10.153-12.576-13.829-22.265-14.986c0.489,4.93,0.748,9.928,0.748,14.986
		c0,5.058-0.259,10.056-0.748,14.986C341.605,269.824,354.182,266.147,354.182,255.995z"/>
	<path style="fill:#554431;" d="M320.432,174.513c-3.665-3.667-8.458-3.811-13.291-2.279c4.754,7.057,8.923,14.541,12.441,22.381
		C323.596,187.785,325.842,179.924,320.432,174.513z"/>
</g>
<g>
</g>
<g>
</g>
<g>
</g>
<g>
</g>
<g>
</g>
<g>
</g>
<g>
</g>
<g>
</g>
<g>
</g>
<g>
</g>
<g>
</g>
<g>
</g>
<g>
</g>
<g>
</g>
<g>
</g>
</svg>
