<?xml version="1.0" encoding="iso-8859-1"?>
<!-- Generator: Adobe Illustrator 19.0.0, SVG Export Plug-In . SVG Version: 6.00 Build 0)  -->
<svg version="1.1" id="Layer_1" xmlns="http://www.w3.org/2000/svg" xmlns:xlink="http://www.w3.org/1999/xlink" x="0px" y="0px"
	 viewBox="0 0 512 512" style="enable-background:new 0 0 512 512;" xml:space="preserve">
<circle style="fill:#B39A7C;" cx="97.165" cy="386.946" r="82.254"/>
<path style="fill:#957856;" d="M179.417,386.944c0-45.429-36.827-82.257-82.258-82.257c-3.896,0-7.723,0.29-11.475,0.814v18.751
	c0,49.996,18.552,97.262,52.402,134.034C162.777,444.089,179.417,417.469,179.417,386.944z"/>
<path style="fill:#B39A7C;" d="M340.237,20.684c-19.839,0-38.782,3.826-56.142,10.77c-17.36-6.943-36.303-10.77-56.142-10.77
	c-83.536,0-151.257,67.72-151.257,151.257s67.72,151.257,151.257,151.257c19.839,0,38.782-3.826,56.142-10.77
	c17.36,6.944,36.303,10.77,56.142,10.77c83.536,0,151.257-67.72,151.257-151.257S423.775,20.684,340.237,20.684z"/>
<path style="fill:#957856;" d="M146.692,167.762c0-68.304,45.28-126.025,107.456-144.807c-8.509-1.487-17.26-2.27-26.195-2.27
	c-83.536,0-151.257,67.72-151.257,151.257S144.416,323.2,227.954,323.2c15.226,0,29.923-2.261,43.783-6.449
	C200.694,304.336,146.692,242.358,146.692,167.762z"/>
<g>
	<circle style="fill:#FFDAAA;" cx="107.551" cy="294.138" r="51.367"/>
	<circle style="fill:#FFDAAA;" cx="460.633" cy="294.138" r="51.367"/>
</g>
<g>
	<path style="fill:#FFC477;" d="M107.555,242.775c-7.823,0-15.234,1.756-21.87,4.885v76.591c0,5.602,0.247,11.166,0.707,16.687
		c6.455,2.924,13.615,4.565,21.162,4.565c28.368,0,51.364-22.996,51.364-51.364S135.922,242.775,107.555,242.775z"/>
	<path style="fill:#FFC477;" d="M460.636,242.775c7.823,0,15.234,1.756,21.87,4.885v76.591c0,5.602-0.247,11.166-0.707,16.687
		c-6.455,2.924-13.615,4.565-21.162,4.565c-28.368,0-51.364-22.996-51.364-51.364S432.268,242.775,460.636,242.775z"/>
</g>
<path style="fill:#D1E7F8;" d="M284.095,52.537c-91.885,0-167.064,75.178-167.064,167.064v104.651
	c0,91.884,75.178,167.063,167.064,167.063l0,0c91.885,0,167.064-75.178,167.064-167.064V219.6
	C451.159,127.715,375.98,52.537,284.095,52.537z"/>
<g>
	<path style="fill:#B9D8F4;" d="M184.132,324.251V219.6c0-80.403,57.563-148.013,133.514-163.655
		c-10.846-2.234-22.067-3.407-33.55-3.407c-91.884,0-167.063,75.178-167.063,167.064v104.651
		c0,91.885,75.178,167.063,167.063,167.063l0,0c11.482,0,22.704-1.174,33.55-3.407C241.695,472.264,184.132,404.654,184.132,324.251
		z"/>
	<path style="fill:#B9D8F4;" d="M399.499,164.624c-6.264-13.022-14.715-24.9-25.121-35.305c-3.06-3.062-3.06-8.023,0-11.083
		c3.06-3.059,8.023-3.059,11.082,0c11.657,11.657,21.132,24.978,28.163,39.595c1.876,3.9,0.342,8.821-3.665,10.459
		C404.114,170.678,400.848,167.43,399.499,164.624z"/>
	<path style="fill:#B9D8F4;" d="M409.536,194.694c-0.522-2.632-1.138-5.283-1.829-7.876c-1.113-4.183,1.374-8.475,5.557-9.589
		c4.182-1.12,8.475,1.373,9.589,5.556c0.776,2.917,1.468,5.898,2.056,8.859c0.843,4.245-1.912,8.385-6.161,9.212
		C412.734,202.025,410.277,198.424,409.536,194.694z"/>
</g>
<path style="fill:#FF0C38;" d="M237.885,401.566c0,0-11.921,54.024,45.829,54.024s45.828-53.951,45.828-53.951L237.885,401.566z"/>
<path style="fill:#D80027;" d="M269.297,401.591l-31.412-0.025c0,0-11.921,54.024,45.829,54.024c5.952,0,11.152-0.581,15.714-1.608
	C260.163,445.128,269.093,402.538,269.297,401.591z"/>
<path style="fill:#FF3F62;" d="M283.714,424.489c5.932-2.786,46.082-22.969,45.828-22.85
	c-26.717-24.807-42.996-14.787-45.781-12.721c-2.451-1.868-18.798-12.495-45.876,12.647
	C237.632,401.447,283.714,424.489,283.714,424.489z"/>
<path style="fill:#3E3D42;" d="M284.207,363.986L284.207,363.986c-13.116,0-23.847-10.731-23.847-23.847v-11.607
	c0-13.116,10.731-23.847,23.847-23.847l0,0c13.116,0,23.847,10.731,23.847,23.847v11.607
	C308.053,353.255,297.322,363.986,284.207,363.986z"/>
<path style="fill:#FF0C38;" d="M237.885,401.565c-0.138-0.065,13.503,6.758,25.936,12.976c3.689-20.255,19.94-25.623,19.94-25.623
	C281.31,387.049,264.963,376.424,237.885,401.565z"/>
<path style="fill:#3E3D42;" d="M401.515,368.205c-1.837-3.918-6.502-5.606-10.423-3.767l-9.957,4.669l-4.639-8.781
	c-2.022-3.827-6.763-5.29-10.59-3.27c-3.827,2.023-5.29,6.764-3.268,10.59l4.29,8.122l-12.923,6.059l-4.708-8.912
	c-2.022-3.826-6.763-5.29-10.59-3.268c-3.827,2.023-5.29,6.764-3.268,10.591l4.359,8.252l-55.674,26.106l-54.018-25.771l4.536-8.587
	c2.022-3.826,0.559-8.567-3.268-10.59c-3.826-2.021-8.568-0.558-10.59,3.269l-4.836,9.153l-12.879-6.145l4.374-8.279
	c2.022-3.826,0.559-8.567-3.268-10.59c-3.826-2.021-8.568-0.558-10.59,3.27l-4.673,8.845l-9.875-4.711
	c-3.909-1.864-8.585-0.208-10.448,3.699c-1.864,3.906-0.208,8.584,3.699,10.448l9.296,4.436l-5.652,10.698
	c-2.022,3.826-0.515,8.487,3.268,10.59c4.962,2.759,9.185-0.609,10.59-3.269l5.951-11.264l12.879,6.145l-5.488,10.388
	c-2.022,3.826-0.526,8.507,3.268,10.59c4.93,2.707,9.185-0.609,10.59-3.27l5.788-10.955l57.943,27.644
	c1.067,0.508,2.22,0.763,3.374,0.763c1.136,0,2.273-0.247,3.327-0.741l59.707-27.997l5.962,11.287
	c1.405,2.659,5.047,6.237,10.59,3.268c3.816-2.044,5.29-6.764,3.268-10.591l-5.613-10.626l12.923-6.059l6.031,11.418
	c1.405,2.66,4.753,6.289,10.59,3.269c3.844-1.989,5.29-6.764,3.268-10.59l-5.683-10.758l9.282-4.352
	C401.666,376.791,403.353,372.124,401.515,368.205z"/>
<path style="fill:#FF3F62;" d="M258.434,262.6c5.842-1.976,10.054-7.492,10.054-14.002c0-8.168-5.958-14.965-16.886-14.624
	c1.322-2.214,2.095-4.794,2.095-7.561c0-8.168-6.622-14.791-14.791-14.791c-4.658,0-8.808,2.159-11.519,5.524
	c-0.922-7.283-7.126-12.92-14.659-12.92c-6.216,0-11.526,3.839-13.715,9.271c-2.573-4.36-7.305-7.295-12.735-7.295
	c-8.168,0-15.962,6.794-14.382,18.19c-2.356-1.586-5.193-2.512-8.247-2.512c-8.168,0-14.791,6.622-14.791,14.791
	c0,4.073,1.648,7.76,4.311,10.435c-7.833,0.377-14.073,6.827-14.073,14.754c0,7.363,5.387,13.453,12.432,14.585
	c-2.741,2.684-4.446,6.422-4.446,10.562c0,8.168,6.622,14.791,14.791,14.791c1.791,0,3.499-0.334,5.088-0.917
	c-0.509,1.496-0.798,3.094-0.798,4.763c0,8.168,6.622,14.791,14.791,14.791c5.867,0,10.92-3.424,13.311-8.376
	c2.391,4.951,7.445,8.376,13.311,8.376c8.168,0,16.552-6.865,14.737-15.841c2.694,2.829,6.488,4.601,10.702,4.601
	c8.168,0,17.236-9.73,13.943-19.686c1.216,0.324,2.487,0.512,3.806,0.512c8.168,0,14.791-6.622,14.791-14.791
	C265.555,269.873,262.699,265.196,258.434,262.6z"/>
<path style="fill:#3E3D42;" d="M210.477,302.512c-21.442,6.928-44.441-4.84-51.368-26.282c-6.928-21.442,4.84-44.442,26.282-51.368
	c21.442-6.928,59.317,0.034,66.243,21.477C258.562,267.781,231.919,295.584,210.477,302.512z"/>
<path style="fill:#FF3F62;" d="M302.636,275.229c0,8.168,6.622,14.791,14.791,14.791c1.318,0,2.589-0.189,3.806-0.512
	c-3.586,11.523,5.775,19.686,13.943,19.686c4.215,0,8.008-1.772,10.702-4.601c-0.798,10.283,6.568,15.841,14.737,15.841
	c5.867,0,10.92-3.424,13.311-8.376c2.391,4.951,7.445,8.376,13.311,8.376c8.168,0,14.791-6.622,14.791-14.791
	c0-1.669-0.289-3.266-0.798-4.763c1.588,0.583,3.297,0.917,5.088,0.917c8.168,0,14.791-6.622,14.791-14.791
	c0-4.14-1.705-7.878-4.446-10.562c7.045-1.132,12.432-7.221,12.432-14.585c0-7.927-6.24-14.377-14.073-14.754
	c2.663-2.675,4.311-6.362,4.311-10.435c0-8.168-6.622-14.791-14.791-14.791c-3.054,0-5.891,0.927-8.247,2.512
	c1.552-10.874-6.214-18.19-14.382-18.19c-5.429,0-10.163,2.934-12.735,7.295c-2.188-5.432-7.499-9.271-13.715-9.271
	c-7.534,0-13.738,5.636-14.659,12.92c-2.71-3.367-6.861-5.524-11.52-5.524c-8.168,0-14.791,6.622-14.791,14.791
	c0,2.766,0.773,5.346,2.095,7.561c-8.534-1.384-16.886,6.456-16.886,14.624c0,6.51,4.211,12.025,10.054,14.002
	C305.492,265.196,302.636,269.873,302.636,275.229z"/>
<path style="fill:#3E3D42;" d="M357.714,302.512c21.442,6.928,44.441-4.84,51.368-26.282s-4.84-44.442-26.282-51.368
	c-21.442-6.928-59.317,0.034-66.243,21.477C309.629,267.781,336.272,295.584,357.714,302.512z"/>
<g>
	<circle style="fill:#A4E276;" cx="203.797" cy="262.331" r="17.53"/>
	<circle style="fill:#A4E276;" cx="364.397" cy="262.331" r="17.53"/>
</g>
<path style="fill:#FFE477;" d="M307.826,93.363c28.174,48.799,67.461,9.978,60.843-17.67c-24.846-14.695-53.765-23.155-84.57-23.155
	c-29.908,0-58.042,7.97-82.393,21.884c0.031,0.183,0.055,0.364,0.09,0.548c-7.488,27.685,32.248,67.618,60.668,18.394
	C222.235,163.039,348.053,163.039,307.826,93.363z"/>
<path style="fill:#FFDA44;" d="M284.099,52.537c-29.908,0-58.042,7.97-82.393,21.884c0.031,0.183,0.055,0.364,0.09,0.548
	c-4.028,14.893,5.612,33.323,19.803,39.519c23.934-29.421,57.629-50.626,96.032-58.539C306.79,53.714,295.576,52.537,284.099,52.537
	z"/>
<path style="fill:#FF3F62;" d="M308.777,54.495c0-0.041-0.003-0.079-0.003-0.12l0,0c-8.058-1.207-16.297-1.839-24.677-1.839
	s-16.619,0.632-24.677,1.839l0,0c0,0.04-0.003,0.079-0.003,0.12c0,13.631,11.05,24.68,24.681,24.68S308.777,68.127,308.777,54.495z"
	/>
<path style="fill:#FF0C38;" d="M284.095,52.537c-8.38,0-16.619,0.632-24.677,1.839l0,0c0,0.04-0.003,0.079-0.003,0.12
	c0,8.043,3.849,15.184,9.803,19.691c12.234-6.943,25.415-12.386,39.292-16.078c0.173-1.18,0.265-2.386,0.265-3.613
	c0-0.041-0.003-0.079-0.003-0.12l0,0C300.715,53.169,292.476,52.537,284.095,52.537z"/>
<path style="fill:#FF728B;" d="M115.548,138.848c0,22.979-18.628,42.013-41.608,42.013s-41.608-19.034-41.608-42.013
	S50.961,106.05,73.94,106.05S115.548,115.867,115.548,138.848z"/>
<path style="fill:#FF3F62;" d="M47.351,134.227c21.855,7.101,34.201,30.7,27.099,52.554c-7.101,21.855-30.96,33.69-52.814,26.588
	c-21.854-7.101-25.436-27.852-18.335-49.707S25.496,127.126,47.351,134.227z"/>
<path style="fill:#FF728B;" d="M16.234,196.969c13.507-18.591,39.766-23.04,58.357-9.533s22.474,39.856,8.967,58.446
	s-34.349,15.584-52.94,2.077C12.028,234.453,2.728,215.56,16.234,196.969z"/>
<path style="fill:#FF3F62;" d="M65.047,245.883c-13.507-18.591-9.624-44.939,8.967-58.446s44.849-9.058,58.357,9.533
	c13.507,18.591,4.207,37.484-14.384,50.99C99.396,261.466,78.554,264.474,65.047,245.883z"/>
<path style="fill:#FF0C38;" d="M127.502,212.11c-21.855,7.101-45.713-4.734-52.814-26.588c-7.101-21.854,5.244-45.453,27.099-52.554
	c21.855-7.101,36.949,7.582,44.05,29.437C152.938,184.259,149.358,205.008,127.502,212.11z"/>
<circle style="fill:#FFE477;" cx="73.937" cy="186.953" r="22.695"/>
<g>
</g>
<g>
</g>
<g>
</g>
<g>
</g>
<g>
</g>
<g>
</g>
<g>
</g>
<g>
</g>
<g>
</g>
<g>
</g>
<g>
</g>
<g>
</g>
<g>
</g>
<g>
</g>
<g>
</g>
</svg>
