<?xml version="1.0" encoding="iso-8859-1"?>
<!-- Generator: Adobe Illustrator 19.0.0, SVG Export Plug-In . SVG Version: 6.00 Build 0)  -->
<svg version="1.1" id="Layer_1" xmlns="http://www.w3.org/2000/svg" xmlns:xlink="http://www.w3.org/1999/xlink" x="0px" y="0px"
	 viewBox="0 0 512.001 512.001" style="enable-background:new 0 0 512.001 512.001;" xml:space="preserve">
<path style="fill:#D1E7F8;" d="M414.449,0H97.552c0,0-45.561,0.574-40.711,50.782L98.039,477.32c0,0,3.35,34.68,35.75,34.68h244.423
	c32.4,0,35.75-34.68,35.75-34.68L455.16,50.782C460.01,0.574,414.449,0,414.449,0z"/>
<g>
	<path style="fill:#B9D8F4;" d="M184.722,477.32L143.523,50.782C138.674,0.574,184.235,0,184.235,0H97.552
		c0,0-45.561,0.574-40.711,50.782L98.039,477.32c0,0,3.35,34.68,35.75,34.68h86.683C188.072,512,184.722,477.32,184.722,477.32z"/>
	<path style="fill:#B9D8F4;" d="M94.677,442.51l3.362,34.811c0,0,3.35,34.68,35.75,34.68h244.423c32.4,0,35.75-34.68,35.75-34.68
		l3.362-34.811H94.677z"/>
</g>
<path style="fill:#96C8EF;" d="M98.039,477.32c0,0,3.35,34.68,35.75,34.68h86.681c-32.399-0.001-35.748-34.68-35.748-34.68
	l-3.362-34.811H94.677L98.039,477.32z"/>
<g>
	<path style="fill:#B9D8F4;" d="M393.615,369.857c-0.252,0-8.569,0-7.81-8.591l6.901-71.432c0.415-4.308,4.239-7.46,8.554-7.047
		c4.308,0.416,7.464,4.245,7.047,8.555l-6.9,71.432C401.014,366.825,397.604,369.857,393.615,369.857z"/>
	<path style="fill:#B9D8F4;" d="M389.269,406.91c-4.308-0.416-7.463-4.246-7.046-8.555l1.103-11.414
		c0.415-4.308,4.228-7.458,8.555-7.047c4.308,0.416,7.463,4.246,7.046,8.555l-1.103,11.414
		C397.055,407.771,389.525,406.936,389.269,406.91z"/>
</g>
<path style="fill:#FFA733;" d="M400.781,80.161c2.792-28.857-23.278-29.003-23.278-29.003H134.358c0,0-26.07,0.146-23.278,29.002
	l15.197,157.081c0,0,10.762,113.183,129.724,113.183c118.963,0,129.718-112.812,129.718-112.812S400.781,80.159,400.781,80.161z"/>
<path style="fill:#FF9811;" d="M192.453,237.241L177.256,80.161c-2.791-28.857,23.278-29.003,23.278-29.003h-66.176
	c0,0-26.07,0.146-23.278,29.002l15.197,157.081c0,0,10.762,113.183,129.724,113.183c12.135,0,23.127-1.19,33.114-3.299
	C201.153,328.529,192.453,237.241,192.453,237.241z"/>
<circle style="fill:#FFF5CC;" cx="222.961" cy="262.98" r="27.652"/>
<circle style="fill:#FFEB99;" cx="246.68" cy="237.453" r="35.6"/>
<circle style="fill:#FFF5CC;" cx="272.771" cy="208.562" r="35.6"/>
<circle style="fill:#FFEB99;" cx="297.316" cy="175.553" r="35.6"/>
<circle style="fill:#FFF5CC;" cx="319.165" cy="143.83" r="27.652"/>
<g>
</g>
<g>
</g>
<g>
</g>
<g>
</g>
<g>
</g>
<g>
</g>
<g>
</g>
<g>
</g>
<g>
</g>
<g>
</g>
<g>
</g>
<g>
</g>
<g>
</g>
<g>
</g>
<g>
</g>
</svg>
