<?xml version="1.0" encoding="iso-8859-1"?>
<!-- Generator: Adobe Illustrator 19.0.0, SVG Export Plug-In . SVG Version: 6.00 Build 0)  -->
<svg version="1.1" id="Layer_1" xmlns="http://www.w3.org/2000/svg" xmlns:xlink="http://www.w3.org/1999/xlink" x="0px" y="0px"
	 viewBox="0 0 512.001 512.001" style="enable-background:new 0 0 512.001 512.001;" xml:space="preserve">
<path style="fill:#4E901E;" d="M147.123,321.563c-0.018,1.867,0.334,13.152,11.436,13.152h27.429l10.582-183.07
	C196.57,151.646,150.046,189.424,147.123,321.563z"/>
<path style="fill:#5EAC24;" d="M364.878,321.563c0.018,1.867-0.334,13.152-11.436,13.152h-27.429l-10.582-183.069
	C315.431,151.646,361.955,189.424,364.878,321.563z"/>
<path style="fill:#D1E7F8;" d="M256.001,127.399L256.001,127.399c-46.934,0-85.334,38.4-85.334,85.334v278.836
	c0,11.238,9.194,20.432,20.432,20.432h129.802c11.238,0,20.432-9.194,20.432-20.432V212.732
	C341.334,165.799,302.934,127.399,256.001,127.399z"/>
<path style="fill:#B9D8F4;" d="M256.001,127.399c-46.934,0-85.334,38.4-85.334,85.334v278.836c0,11.238,9.194,20.432,20.432,20.432
	h45.279c-11.238,0-20.432-9.194-20.432-20.432V212.732c0-39.1,26.661-72.256,62.694-82.241
	C271.421,128.491,263.834,127.399,256.001,127.399L256.001,127.399z"/>
<g>
	<path style="fill:#44F2D8;" d="M289.11,469.207v9.029c0,12.248,10.022,22.27,22.27,22.27l0,0c12.248,0,22.27-10.022,22.27-22.27
		v-9.029H289.11z"/>
	<path style="fill:#44F2D8;" d="M233.731,469.207v9.029c0,12.248,10.022,22.27,22.27,22.27l0,0c12.248,0,22.27-10.022,22.27-22.27
		v-9.029H233.731z"/>
	<path style="fill:#44F2D8;" d="M178.351,469.207v9.029c0,12.248,10.022,22.27,22.27,22.27l0,0c12.248,0,22.27-10.022,22.27-22.27
		v-9.029H178.351z"/>
</g>
<g>
	<path style="fill:#03EAC8;" d="M200.621,478.236v-9.029h-22.27v9.029c0,12.248,10.022,22.27,22.27,22.27l0,0
		c4.054,0,7.851-1.116,11.135-3.028C205.118,493.611,200.621,486.43,200.621,478.236z"/>
	<path style="fill:#03EAC8;" d="M256.001,478.236v-9.029h-22.27v9.029c0,12.248,10.022,22.27,22.27,22.27l0,0
		c4.054,0,7.851-1.116,11.135-3.028C260.499,493.611,256.001,486.43,256.001,478.236z"/>
	<path style="fill:#03EAC8;" d="M311.38,478.236v-9.029h-22.27v9.029c0,12.248,10.022,22.27,22.27,22.27l0,0
		c4.054,0,7.851-1.116,11.135-3.028C315.878,493.611,311.38,486.43,311.38,478.236z"/>
</g>
<path style="fill:#91DC5A;" d="M330.188,472.991H181.813c-9.004,0-16.37-7.367-16.37-16.37l0,0c0-9.004,7.367-16.37,16.37-16.37
	h148.376c9.004,0,16.37,7.367,16.37,16.37l0,0C346.559,465.624,339.192,472.991,330.188,472.991z"/>
<path style="fill:#6DC82A;" d="M200.621,456.62L200.621,456.62c0-9.004,7.367-16.37,16.37-16.37h-35.179
	c-9.004,0-16.37,7.367-16.37,16.37l0,0c0,9.004,7.367,16.37,16.37,16.37h35.179C207.987,472.991,200.621,465.624,200.621,456.62z"/>
<polygon style="fill:#C2DFF6;" points="299.347,159.084 286.562,52.281 225.439,52.281 212.654,159.084 255.998,179.993 "/>
<polygon style="fill:#96C8EF;" points="268.786,52.281 225.439,52.281 212.654,159.084 255.998,179.993 277.673,169.538 
	256.001,159.084 "/>
<g>
	<path style="fill:#4E901E;" d="M256.001,398.281c-4.328,0-7.837-3.509-7.837-7.837v-33.437c0-4.328,3.509-7.837,7.837-7.837
		c4.329,0,7.837,3.509,7.837,7.837v33.437C263.837,394.772,260.33,398.281,256.001,398.281z"/>
	<path style="fill:#4E901E;" d="M228.311,398.281c-4.328,0-7.837-3.509-7.837-7.837v-33.437c0-4.328,3.509-7.837,7.837-7.837
		c4.328,0,7.837,3.509,7.837,7.837v33.437C236.147,394.772,232.639,398.281,228.311,398.281z"/>
	<path style="fill:#4E901E;" d="M200.621,398.281c-4.328,0-7.837-3.509-7.837-7.837v-33.437c0-4.328,3.509-7.837,7.837-7.837
		s7.837,3.509,7.837,7.837v33.437C208.458,394.772,204.949,398.281,200.621,398.281z"/>
	<path style="fill:#4E901E;" d="M311.38,398.281c-4.329,0-7.837-3.509-7.837-7.837v-33.437c0-4.328,3.508-7.837,7.837-7.837
		s7.837,3.509,7.837,7.837v33.437C319.217,394.772,315.709,398.281,311.38,398.281z"/>
	<path style="fill:#4E901E;" d="M283.69,398.281c-4.329,0-7.837-3.509-7.837-7.837v-33.437c0-4.328,3.508-7.837,7.837-7.837
		c4.329,0,7.837,3.509,7.837,7.837v33.437C291.527,394.772,288.019,398.281,283.69,398.281z"/>
</g>
<path style="fill:#6DC82A;" d="M256.001,127.399L256.001,127.399c-46.934,0-85.334,38.4-85.334,85.334v144.622
	c0,5.771,4.678,10.449,10.449,10.449h149.768c5.771,0,10.449-4.678,10.449-10.449V212.732
	C341.334,165.799,302.934,127.399,256.001,127.399z"/>
<g>
	<path style="fill:#5EAC24;" d="M256.001,127.399c-46.934,0-85.334,38.4-85.334,85.334v144.622c0,5.771,4.678,10.449,10.449,10.449
		h46.433c-5.771,0-10.449-4.678-10.449-10.449V212.732c0-38.89,26.376-71.897,62.117-82.076
		C271.826,128.551,264.043,127.399,256.001,127.399L256.001,127.399z"/>
	<path style="fill:#5EAC24;" d="M309.987,220.569c-4.329,0-7.837-3.509-7.837-7.837c0-12.807-5.147-24.72-14.493-33.545
		c-3.147-2.972-3.288-7.931-0.318-11.078c2.973-3.148,7.93-3.289,11.079-0.318c12.332,11.645,19.405,28.025,19.405,44.941
		C317.824,217.06,314.316,220.569,309.987,220.569z"/>
	<path style="fill:#5EAC24;" d="M309.987,249.731c-4.329,0-7.837-3.509-7.837-7.837v-6.792c0-4.328,3.508-7.837,7.837-7.837
		c4.329,0,7.837,3.509,7.837,7.837v6.792C317.824,246.222,314.316,249.731,309.987,249.731z"/>
</g>
<path style="fill:#FFC477;" d="M295.207,59.338c0,21.653-17.553,59.166-39.207,59.166s-39.207-37.513-39.207-59.166
	s17.553-39.207,39.207-39.207S295.207,37.685,295.207,59.338z"/>
<path style="fill:#FFB655;" d="M248.16,59.338c0-16.076,9.679-29.884,23.524-35.935c-4.803-2.099-10.105-3.272-15.683-3.272
	c-21.653,0-39.207,17.553-39.207,39.207s17.553,59.166,39.207,59.166c5.578,0,10.879-2.501,15.683-6.568
	C257.839,100.218,248.16,75.413,248.16,59.338z"/>
<g>
	<path style="fill:#957856;" d="M242.417,81.771c-2.059,0-4.075-0.836-5.538-2.288c-1.463-1.463-2.299-3.48-2.299-5.548
		c0-2.058,0.836-4.086,2.299-5.538c1.462-1.463,3.478-2.299,5.538-2.299c2.068,0,4.086,0.836,5.548,2.299
		c1.453,1.463,2.288,3.48,2.288,5.538c0,2.069-0.836,4.086-2.288,5.548C246.502,80.934,244.485,81.771,242.417,81.771z"/>
	<path style="fill:#957856;" d="M269.584,81.771c-2.06,0-4.075-0.836-5.538-2.288c-1.463-1.463-2.299-3.48-2.299-5.548
		c0-2.058,0.836-4.086,2.299-5.538c1.462-1.463,3.478-2.299,5.538-2.299c2.068,0,4.086,0.836,5.548,2.299
		c1.453,1.463,2.288,3.48,2.288,5.538c0,2.069-0.836,4.086-2.288,5.548C273.67,80.934,271.652,81.771,269.584,81.771z"/>
</g>
<path style="fill:#44F2D8;" d="M296.56,40.263V20.432C296.56,9.194,287.365,0,276.128,0h-40.263
	c-11.238,0-20.432,9.194-20.432,20.432v19.831H296.56z"/>
<path style="fill:#FFE477;" d="M232.486,0.305v39.957h15.673V0h-12.294C234.713,0,233.589,0.12,232.486,0.305z"/>
<path style="fill:#FF3F62;" d="M263.833,0v40.263h15.673V0.305C278.405,0.12,277.281,0,276.128,0H263.833z"/>
<path style="fill:#AAFFF5;" d="M335.152,55.38H176.85c-4.328,0-7.837-3.509-7.837-7.837s3.509-7.837,7.837-7.837h158.302
	c4.329,0,7.837,3.509,7.837,7.837S339.481,55.38,335.152,55.38z"/>
<path style="fill:#FFE477;" d="M176.653,78.636c0,4.328,3.509,7.837,7.837,7.837c4.328,0,7.837-3.509,7.837-7.837v-38.93h-15.673
	V78.636z"/>
<path style="fill:#FF3F62;" d="M201.731,78.636c0,4.328,3.509,7.837,7.837,7.837c4.328,0,7.837-3.509,7.837-7.837v-38.93h-15.673
	V78.636z"/>
<path style="fill:#FFE477;" d="M335.348,78.636c0,4.328-3.509,7.837-7.837,7.837c-4.328,0-7.837-3.509-7.837-7.837v-38.93h15.673
	V78.636z"/>
<path style="fill:#FF3F62;" d="M310.27,78.636c0,4.328-3.509,7.837-7.837,7.837s-7.837-3.509-7.837-7.837v-38.93h15.673V78.636z"/>
<g>
</g>
<g>
</g>
<g>
</g>
<g>
</g>
<g>
</g>
<g>
</g>
<g>
</g>
<g>
</g>
<g>
</g>
<g>
</g>
<g>
</g>
<g>
</g>
<g>
</g>
<g>
</g>
<g>
</g>
</svg>
