<?xml version="1.0" encoding="iso-8859-1"?>
<!-- Generator: Adobe Illustrator 19.0.0, SVG Export Plug-In . SVG Version: 6.00 Build 0)  -->
<svg version="1.1" id="Layer_1" xmlns="http://www.w3.org/2000/svg" xmlns:xlink="http://www.w3.org/1999/xlink" x="0px" y="0px"
	 viewBox="0 0 512.001 512.001" style="enable-background:new 0 0 512.001 512.001;" xml:space="preserve">
<path style="fill:#FFA733;" d="M303.041,166.767L287.667,32.928h-63.34l-15.374,133.839c-23.777,15.208-39.635,41.829-39.635,71.991
	v241.896c0,17.241,14.106,31.347,31.347,31.347H311.33c17.241,0,31.347-14.106,31.347-31.347V238.758
	C342.676,208.596,326.817,181.974,303.041,166.767z"/>
<g>
	<path style="fill:#FF9811;" d="M224.597,480.654V238.758c0-24.141,10.166-46.008,26.413-61.576l0,0l0,0
		c0.555-0.532,13.694-11.727,16.094-35.415l12.502-108.84h-55.278l-15.374,133.839c-23.777,15.208-39.635,41.829-39.635,71.991
		v241.896c0,17.241,14.106,31.347,31.347,31.347h55.278C238.703,512.001,224.597,497.895,224.597,480.654z"/>
	<rect x="169.323" y="388.024" style="fill:#FF9811;" width="173.359" height="27.481"/>
</g>
<path style="fill:#CC7400;" d="M292.467,480.654h-73.019c-10.344,0-18.808-8.464-18.808-18.808V243.823
	c0-10.344,8.464-18.808,18.808-18.808h73.019c10.344,0,18.808,8.464,18.808,18.808v218.023
	C311.276,472.19,302.812,480.654,292.467,480.654z"/>
<g>
	<path style="fill:#AA6100;" d="M229.573,461.846V243.823c0-10.344,8.464-18.808,18.808-18.808h-28.932
		c-10.344,0-18.808,8.464-18.808,18.808v218.023c0,10.344,8.464,18.808,18.808,18.808h28.932
		C238.037,480.654,229.573,472.19,229.573,461.846z"/>
	<rect x="200.639" y="281.58" style="fill:#AA6100;" width="110.634" height="133.914"/>
	<path style="fill:#AA6100;" d="M254.104,457.194c-2.059,0-4.075-0.836-5.538-2.288c-1.463-1.463-2.299-3.479-2.299-5.548
		c0-2.058,0.836-4.086,2.299-5.538c1.462-1.463,3.478-2.299,5.538-2.299c2.068,0,4.086,0.836,5.548,2.299
		c1.453,1.463,2.288,3.479,2.288,5.538c0,2.069-0.836,4.086-2.288,5.548C258.19,456.358,256.173,457.194,254.104,457.194z"/>
	<path style="fill:#AA6100;" d="M284.89,444.482c-2.059,0-4.075-0.836-5.538-2.288c-1.463-1.463-2.299-3.48-2.299-5.548
		c0-2.058,0.836-4.086,2.299-5.538c1.462-1.463,3.478-2.299,5.538-2.299c2.068,0,4.086,0.836,5.548,2.299
		c1.453,1.463,2.288,3.479,2.288,5.538c0,2.069-0.836,4.086-2.288,5.548C288.975,443.645,286.959,444.482,284.89,444.482z"/>
	<path style="fill:#AA6100;" d="M254.104,262.773c-2.059,0-4.075-0.836-5.538-2.288c-1.463-1.463-2.299-3.479-2.299-5.548
		c0-2.058,0.836-4.086,2.299-5.538c1.462-1.463,3.478-2.299,5.538-2.299c2.068,0,4.086,0.836,5.548,2.299
		c1.453,1.463,2.288,3.48,2.288,5.538c0,2.069-0.836,4.086-2.288,5.548C258.19,261.937,256.173,262.773,254.104,262.773z"/>
</g>
<path style="fill:#FFFFFF;" d="M286.37,388.019h-60.747c-3.423,0-6.198-2.775-6.198-6.198v-94.738c0-3.423,2.775-6.198,6.198-6.198
	h60.747c3.423,0,6.198,2.775,6.198,6.198v94.738C292.569,385.244,289.794,388.019,286.37,388.019z"/>
<rect x="169.323" y="280.88" style="fill:#4E901E;" width="57.783" height="107.133"/>
<rect x="169.323" y="280.88" style="fill:#47821C;" width="28.892" height="107.133"/>
<rect x="284.889" y="280.88" style="fill:#FF3F62;" width="57.783" height="107.133"/>
<path style="fill:#FF9811;" d="M278.314,66.574h-44.635c-12.434,0-22.607-10.173-22.607-22.607l0,0
	c0-12.434,10.173-22.607,22.607-22.607h44.635c12.434,0,22.607,10.173,22.607,22.607l0,0
	C300.922,56.4,290.749,66.574,278.314,66.574z"/>
<path style="fill:#EE8700;" d="M252.828,43.966c0-12.434,10.173-22.607,22.607-22.607h-41.754
	c-12.434,0-22.607,10.173-22.607,22.607s10.173,22.607,22.607,22.607h41.754C263.001,66.574,252.828,56.4,252.828,43.966z"/>
<path style="fill:#FF0C38;" d="M287.735,24.755h-63.474c-6.708,0-12.197-5.489-12.197-12.197v-0.36
	C212.064,5.489,217.552,0,224.261,0h63.474c6.708,0,12.197,5.489,12.197,12.197v0.36C299.931,19.267,294.443,24.755,287.735,24.755z
	"/>
<path style="fill:#D80027;" d="M254.104,12.559v-0.36c0-6.708,5.489-12.197,12.197-12.197h-42.04
	c-6.708,0-12.197,5.489-12.197,12.197v0.36c0,6.708,5.489,12.197,12.197,12.197h42.04C259.593,24.755,254.104,19.267,254.104,12.559
	z"/>
<g>
</g>
<g>
</g>
<g>
</g>
<g>
</g>
<g>
</g>
<g>
</g>
<g>
</g>
<g>
</g>
<g>
</g>
<g>
</g>
<g>
</g>
<g>
</g>
<g>
</g>
<g>
</g>
<g>
</g>
</svg>
