<?xml version="1.0" encoding="iso-8859-1"?>
<!-- Generator: Adobe Illustrator 19.0.0, SVG Export Plug-In . SVG Version: 6.00 Build 0)  -->
<svg version="1.1" id="Layer_1" xmlns="http://www.w3.org/2000/svg" xmlns:xlink="http://www.w3.org/1999/xlink" x="0px" y="0px"
	 viewBox="0 0 512.001 512.001" style="enable-background:new 0 0 512.001 512.001;" xml:space="preserve">
<path style="fill:#3E3D42;" d="M384.615,14.517c19.456-27.504,41.178-10.92,68.682,8.537c27.504,19.457,50.372,34.418,30.916,61.922
	c-19.457,27.504-136.439,145.577-163.941,126.12C292.769,191.64,365.159,42.021,384.615,14.517z"/>
<g>
	<path style="fill:#2D2D30;" d="M451.462,21.754c-26.637-18.875-47.825-34.125-66.846-7.237
		c-19.456,27.504-91.847,177.122-64.343,196.579c10.177,7.199,32.61-4.441,57.816-23.347
		c10.288-51.811,53.86-139.448,68.298-159.856C448.06,25.526,449.752,23.494,451.462,21.754z"/>
	<path style="fill:#2D2D30;" d="M320.273,211.096c20.132,14.242,88.205-45.205,130.88-88.88c-3.01-1.148-6.115-2.104-9.308-2.827
		c-13.255-31.226-43.895-53.199-79.331-54.128c-1.124-1.427-2.285-2.821-3.463-4.198
		C332.352,115.858,300.501,197.109,320.273,211.096z"/>
</g>
<path style="fill:#91DC5A;" d="M463.698,195.153c0.561-2.6,0.864-5.296,0.864-8.063c0-21.022-17.042-38.065-38.065-38.065
	c-3.147,0-6.203,0.39-9.127,1.11c-1.944-29.902-26.799-53.558-57.192-53.558c-4.574,0-9.016,0.552-13.281,1.563
	c-17.836-31.794-51.848-53.292-90.897-53.292s-73.06,21.498-90.898,53.292c-4.264-1.011-8.706-1.563-13.281-1.563
	c-30.394,0-55.249,23.656-57.192,53.558c-2.925-0.72-5.98-1.11-9.127-1.11c-21.022,0-38.065,17.042-38.065,38.065
	c0,2.768,0.303,5.464,0.864,8.063H463.698z"/>
<path style="fill:#6DC82A;" d="M256.001,44.847c-39.049,0-73.06,21.498-90.898,53.292c-4.264-1.011-8.707-1.563-13.281-1.563
	c-30.394,0-55.249,23.656-57.192,53.558c-2.925-0.72-5.98-1.11-9.127-1.11c-21.022,0-38.065,17.042-38.065,38.065
	c0,2.768,0.303,5.464,0.864,8.063h154.116c6.157-70.512,35.368-122.894,54.452-150.291C256.58,44.86,256.292,44.847,256.001,44.847z
	"/>
<g>
	<path style="fill:#FF0C38;" d="M236.868,98.088c-2.059,0-4.075-0.836-5.538-2.288c-1.463-1.463-2.299-3.48-2.299-5.548
		c0-2.058,0.836-4.086,2.299-5.538c1.462-1.463,3.478-2.299,5.538-2.299c2.068,0,4.086,0.836,5.548,2.299
		c1.453,1.463,2.288,3.48,2.288,5.538c0,2.069-0.836,4.086-2.288,5.548C240.954,97.252,238.937,98.088,236.868,98.088z"/>
	<path style="fill:#FF0C38;" d="M158.831,160.782c-2.059,0-4.075-0.836-5.538-2.288c-1.463-1.463-2.299-3.48-2.299-5.548
		c0-2.058,0.836-4.086,2.299-5.538c1.462-1.463,3.478-2.299,5.538-2.299c2.068,0,4.086,0.836,5.548,2.299
		c1.453,1.463,2.288,3.48,2.288,5.538c0,2.069-0.836,4.086-2.288,5.548C162.916,159.946,160.9,160.782,158.831,160.782z"/>
	<path style="fill:#FF0C38;" d="M314.114,145.109c-2.06,0-4.075-0.836-5.538-2.288c-1.463-1.463-2.299-3.48-2.299-5.548
		c0-2.058,0.836-4.086,2.299-5.538c1.462-1.463,3.478-2.299,5.538-2.299c2.068,0,4.086,0.836,5.548,2.299
		c1.453,1.463,2.288,3.48,2.288,5.538c0,2.069-0.836,4.086-2.288,5.548C318.2,144.273,316.182,145.109,314.114,145.109z"/>
	<path style="fill:#FF0C38;" d="M355.398,168.619c-2.06,0-4.075-0.836-5.538-2.288c-1.463-1.463-2.299-3.48-2.299-5.548
		c0-2.058,0.836-4.086,2.299-5.538c1.462-1.463,3.478-2.299,5.538-2.299c2.068,0,4.086,0.836,5.548,2.299
		c1.453,1.463,2.288,3.48,2.288,5.538c0,2.069-0.836,4.086-2.288,5.548C359.484,167.783,357.467,168.619,355.398,168.619z"/>
</g>
<g>
	<path style="fill:#FFFFFF;" d="M255.998,152.945c-2.059,0-4.075-0.836-5.538-2.288c-1.463-1.463-2.299-3.48-2.299-5.548
		c0-2.058,0.836-4.086,2.299-5.538c1.462-1.463,3.478-2.299,5.538-2.299c2.068,0,4.086,0.836,5.548,2.299
		c1.453,1.463,2.288,3.48,2.288,5.538c0,2.069-0.836,4.086-2.288,5.548C260.083,152.109,258.066,152.945,255.998,152.945z"/>
	<path style="fill:#FFFFFF;" d="M204.477,135.674c-2.059,0-4.075-0.836-5.538-2.288c-1.463-1.463-2.299-3.48-2.299-5.548
		c0-2.058,0.836-4.086,2.299-5.538c1.462-1.463,3.478-2.299,5.538-2.299c2.068,0,4.086,0.836,5.548,2.299
		c1.453,1.463,2.288,3.48,2.288,5.538c0,2.069-0.836,4.086-2.288,5.548C208.564,134.837,206.546,135.674,204.477,135.674z"/>
	<path style="fill:#FFFFFF;" d="M291.933,105.925c-2.06,0-4.075-0.836-5.538-2.288c-1.463-1.463-2.299-3.48-2.299-5.548
		c0-2.058,0.836-4.086,2.299-5.538c1.462-1.463,3.478-2.299,5.538-2.299c2.068,0,4.086,0.836,5.548,2.299
		c1.453,1.463,2.288,3.48,2.288,5.538c0,2.069-0.836,4.086-2.288,5.548C296.019,105.089,294.002,105.925,291.933,105.925z"/>
</g>
<path style="fill:#1D1D1F;" d="M223.167,407.235c-8.979,25.217-56.996,95.388-82.213,86.409
	c-25.217-8.979-18.083-93.705-9.105-118.922c8.979-25.217,31.03-22.459,56.247-13.48
	C213.313,370.22,232.146,382.018,223.167,407.235z"/>
<path style="fill:#2D2D30;" d="M288.835,407.235c8.979,25.217,56.996,95.388,82.213,86.409
	c25.217-8.979,18.083-93.705,9.105-118.922c-8.979-25.217-31.03-22.459-56.247-13.48
	C298.689,370.219,279.857,382.018,288.835,407.235z"/>
<path style="fill:#57565C;" d="M476.186,188.32H35.816c-11.859,0-21.473,9.613-21.473,21.473v29.057
	c0.001,132.911,108.747,241.657,241.658,241.657l0,0c132.911,0,241.657-108.746,241.657-241.657v-29.057
	C497.658,197.934,488.045,188.32,476.186,188.32z"/>
<g>
	<path style="fill:#3E3D42;" d="M109.539,238.85v-29.057c0-11.859,9.613-21.473,21.473-21.473H35.816
		c-11.859,0-21.473,9.613-21.473,21.473v29.057c0,132.911,108.746,241.657,241.657,241.657l0,0c16.282,0,32.196-1.642,47.597-4.75
		C193.278,453.491,109.539,355.48,109.539,238.85z"/>
	<path style="fill:#3E3D42;" d="M162.167,424.804c-8.979,25.217-56.996,95.388-82.213,86.409
		c-25.217-8.979-18.083-93.705-9.105-118.922c8.979-25.217,31.03-22.459,56.247-13.48
		C152.313,387.789,171.145,399.587,162.167,424.804z"/>
</g>
<path style="fill:#2D2D30;" d="M100.348,423.268c0,0-10.71-10.318-15.002,6.535c-5.683,22.322-11.366,55.617-4.648,81.633
	c18.151,5.359,47.463-28.438,65.957-57.28C130.092,445.676,114.444,435.186,100.348,423.268z"/>
<path style="fill:#57565C;" d="M349.835,424.804c8.979,25.217,56.996,95.388,82.213,86.409s18.083-93.705,9.105-118.922
	c-8.979-25.217-31.03-22.459-56.247-13.48C359.689,387.789,340.857,399.587,349.835,424.804z"/>
<g>
	<path style="fill:#3E3D42;" d="M411.654,423.268c0,0,10.71-10.318,15.002,6.535c5.683,22.322,11.366,55.617,4.648,81.633
		c-18.151,5.359-47.463-28.438-65.957-57.28C381.91,445.676,397.557,435.186,411.654,423.268z"/>
	<path style="fill:#3E3D42;" d="M416.521,374.541c-3.381-2.702-3.982-7.607-1.302-11.006c2.053-2.604,4.065-5.287,5.979-7.973
		c2.513-3.523,7.406-4.342,10.93-1.833c3.524,2.512,4.346,7.406,1.833,10.931c-2.061,2.891-4.225,5.776-6.434,8.579
		C425.981,375.2,420.747,377.918,416.521,374.541z"/>
	<path style="fill:#3E3D42;" d="M340.134,431.712c-1.793-3.939-0.266-8.582,3.627-10.472c20.35-9.88,38.923-23.145,55.205-39.426
		c3.06-3.059,8.023-3.059,11.082,0c3.06,3.062,3.06,8.023,0,11.083c-17.519,17.519-37.517,31.798-59.441,42.443
		C349.504,435.873,343.075,438.173,340.134,431.712z"/>
</g>
<g>
</g>
<g>
</g>
<g>
</g>
<g>
</g>
<g>
</g>
<g>
</g>
<g>
</g>
<g>
</g>
<g>
</g>
<g>
</g>
<g>
</g>
<g>
</g>
<g>
</g>
<g>
</g>
<g>
</g>
</svg>
