<?xml version="1.0" encoding="iso-8859-1"?>
<!-- Generator: Adobe Illustrator 19.0.0, SVG Export Plug-In . SVG Version: 6.00 Build 0)  -->
<svg version="1.1" id="Layer_1" xmlns="http://www.w3.org/2000/svg" xmlns:xlink="http://www.w3.org/1999/xlink" x="0px" y="0px"
	 viewBox="0 0 512 512" style="enable-background:new 0 0 512 512;" xml:space="preserve">
<path style="fill:#FFC477;" d="M206.863,317.146l-12.008-12.008c-4.053-4.053-4.053-10.686,0-14.739L482.213,3.041
	c4.053-4.053,10.686-4.053,14.739,0L508.96,15.05c4.053,4.053,4.053,10.686,0,14.739L221.602,317.146
	C217.549,321.199,210.917,321.199,206.863,317.146z"/>
<path style="fill:#FFB655;" d="M508.96,15.05L496.952,3.041c-4.053-4.053-10.686-4.053-14.739,0L194.855,290.399
	c-4.053,4.053-4.053,10.686,0,14.739l12.008,12.008c0.324,0.325,0.67,0.614,1.026,0.886c-2.621-5.112-1.686-12.233,2.581-16.5
	L493.345,18.656c4.266-4.266,11.418-5.159,16.531-2.54C509.596,15.747,509.297,15.386,508.96,15.05z"/>
<path style="fill:#898890;" d="M169.464,368.803l-26.265-26.265c-4.053-4.053-4.053-10.686,0-14.739l74.317-74.317
	c4.053-4.053,10.686-4.053,14.739,0l26.265,26.265c4.053,4.053,4.053,10.686,0,14.739l-74.317,74.317
	C180.149,372.856,173.517,372.856,169.464,368.803z"/>
<path style="fill:#787680;" d="M217.516,253.482l-74.317,74.317c-4.053,4.053-4.053,10.686,0,14.739l22.742,22.742l0,0
	c-5.286-5.286-5.286-13.935,0-19.22l69.835-69.835c5.286-5.286,13.935-5.286,19.22,0l0,0l-22.743-22.743
	C228.202,249.429,221.569,249.429,217.516,253.482z"/>
<path style="fill:#57565C;" d="M232.255,253.482c-4.053-4.053-10.686-4.053-14.739,0l-18.434,18.434l0,0l41.004,41.004l0,0
	l18.433-18.433c4.053-4.053,4.053-10.686,0-14.739L232.255,253.482z"/>
<path style="fill:#3E3D42;" d="M254.997,276.224l-22.742-22.742c-4.053-4.053-10.686-4.053-14.739,0l-18.434,18.434l20.501,20.501
	l16.193-16.193C241.063,270.939,249.711,270.939,254.997,276.224z"/>
<circle style="fill:#C6C5CA;" cx="109.422" cy="402.576" r="109.422"/>
<g>
	<path style="fill:#ACABB1;" d="M80.592,373.748c34.251-34.251,85.548-41.02,126.569-20.366
		c-5.114-10.157-11.884-19.696-20.366-28.177c-42.732-42.732-112.015-42.732-154.747,0s-42.732,112.015,0,154.747
		c8.482,8.482,18.019,15.251,28.177,20.366C39.572,459.296,46.341,407.999,80.592,373.748z"/>
	<path style="fill:#ACABB1;" d="M60.881,451.121c-26.766-26.766-26.767-70.318-0.001-97.084s70.319-26.766,97.085,0
		s26.766,70.319,0,97.085S87.647,477.888,60.881,451.121z"/>
</g>
<g>
	<path style="fill:#898890;" d="M49.592,436.211c3.117-22.846,13.435-44.897,31.001-62.462
		c17.565-17.564,39.616-27.883,62.463-31.001c-26.153-14.688-59.948-10.937-82.175,11.289
		C38.653,376.264,34.903,410.057,49.592,436.211z"/>
	<path style="fill:#898890;" d="M124.794,437.555c-2.577-3.463-1.704-8.394,1.806-10.906c1.316-0.941,2.571-2.007,3.73-3.165
		c3.055-3.052,8.004-3.053,11.054,0.003c3.053,3.055,3.051,8.003-0.003,11.054c-1.762,1.761-3.674,3.383-5.682,4.82
		C134.322,440.348,128.59,442.657,124.794,437.555z"/>
	<path style="fill:#898890;" d="M109.424,447.747c-12.094,0-23.444-4.69-31.962-13.207c-3.054-3.053-3.054-8.002-0.001-11.054
		c3.054-3.054,8.001-3.053,11.054-0.001c5.565,5.564,12.991,8.628,20.909,8.628c4.318,0,7.817,3.499,7.817,7.817
		C117.24,444.248,113.742,447.747,109.424,447.747z"/>
</g>
<g>
</g>
<g>
</g>
<g>
</g>
<g>
</g>
<g>
</g>
<g>
</g>
<g>
</g>
<g>
</g>
<g>
</g>
<g>
</g>
<g>
</g>
<g>
</g>
<g>
</g>
<g>
</g>
<g>
</g>
</svg>
