<?xml version="1.0" encoding="iso-8859-1"?>
<!-- Generator: Adobe Illustrator 19.0.0, SVG Export Plug-In . SVG Version: 6.00 Build 0)  -->
<svg version="1.1" id="Layer_1" xmlns="http://www.w3.org/2000/svg" xmlns:xlink="http://www.w3.org/1999/xlink" x="0px" y="0px"
	 viewBox="0 0 511.999 511.999" style="enable-background:new 0 0 511.999 511.999;" xml:space="preserve">
<g>
	<path style="fill:#57565C;" d="M85.706,190.307H52.269c-4.329,0-7.837-3.508-7.837-7.837c0-4.329,3.508-7.837,7.837-7.837h33.437
		c4.329,0,7.837,3.508,7.837,7.837C93.543,186.8,90.035,190.307,85.706,190.307z"/>
	<path style="fill:#57565C;" d="M103.469,225.538H70.033c-4.329,0-7.837-3.508-7.837-7.837c0-4.329,3.508-7.837,7.837-7.837h33.437
		c4.329,0,7.837,3.508,7.837,7.837C111.306,222.03,107.798,225.538,103.469,225.538z"/>
	<path style="fill:#57565C;" d="M204.774,56.263h-33.437c-4.329,0-7.837-3.508-7.837-7.837s3.508-7.837,7.837-7.837h33.437
		c4.329,0,7.837,3.508,7.837,7.837S209.103,56.263,204.774,56.263z"/>
	<path style="fill:#57565C;" d="M204.774,92.834h-33.437c-4.329,0-7.837-3.508-7.837-7.837s3.508-7.837,7.837-7.837h33.437
		c4.329,0,7.837,3.508,7.837,7.837S209.103,92.834,204.774,92.834z"/>
	<path style="fill:#57565C;" d="M204.774,129.405h-33.437c-4.329,0-7.837-3.508-7.837-7.837s3.508-7.837,7.837-7.837h33.437
		c4.329,0,7.837,3.508,7.837,7.837S209.103,129.405,204.774,129.405z"/>
	<path style="fill:#57565C;" d="M459.729,136.72h-33.437c-4.329,0-7.837-3.508-7.837-7.837s3.508-7.837,7.837-7.837h33.437
		c4.329,0,7.837,3.508,7.837,7.837S464.058,136.72,459.729,136.72z"/>
	<path style="fill:#57565C;" d="M459.729,174.336h-33.437c-4.329,0-7.837-3.508-7.837-7.837c0-4.329,3.508-7.837,7.837-7.837h33.437
		c4.329,0,7.837,3.508,7.837,7.837C467.566,170.828,464.058,174.336,459.729,174.336z"/>
	<path style="fill:#57565C;" d="M459.729,211.952h-33.437c-4.329,0-7.837-3.508-7.837-7.837c0-4.329,3.508-7.837,7.837-7.837h33.437
		c4.329,0,7.837,3.508,7.837,7.837C467.566,208.445,464.058,211.952,459.729,211.952z"/>
	<path style="fill:#57565C;" d="M298.443,416.752h-33.437c-4.329,0-7.837-3.508-7.837-7.837c0-4.329,3.508-7.837,7.837-7.837h33.437
		c4.329,0,7.837,3.508,7.837,7.837C306.28,413.245,302.771,416.752,298.443,416.752z"/>
	<path style="fill:#57565C;" d="M298.444,453.324h-33.437c-4.329,0-7.837-3.508-7.837-7.837s3.508-7.837,7.837-7.837h33.437
		c4.329,0,7.837,3.508,7.837,7.837S302.772,453.324,298.444,453.324z"/>
	<path style="fill:#57565C;" d="M363.599,136.72h-33.437c-4.329,0-7.837-3.508-7.837-7.837s3.508-7.837,7.837-7.837h33.437
		c4.329,0,7.837,3.508,7.837,7.837S367.928,136.72,363.599,136.72z"/>
	<path style="fill:#57565C;" d="M363.599,174.336h-33.437c-4.329,0-7.837-3.508-7.837-7.837c0-4.329,3.508-7.837,7.837-7.837h33.437
		c4.329,0,7.837,3.508,7.837,7.837C371.436,170.828,367.928,174.336,363.599,174.336z"/>
</g>
<path style="fill:#85BB04;" d="M205.494,270.779c-80.282,0-145.596-66.998-145.596-149.347c0-22.492,18.233-40.726,40.726-40.726
	s40.726,18.233,40.726,40.726c0,37.437,28.774,67.895,64.144,67.895c22.492,0,40.726,18.233,40.726,40.726
	S227.987,270.779,205.494,270.779z"/>
<path style="fill:#79AB03;" d="M205.494,189.327c-21.53,0-40.603-11.298-52.242-28.575V260.83c16.224,6.42,33.838,9.95,52.242,9.95
	c22.492,0,40.726-18.233,40.726-40.726S227.987,189.327,205.494,189.327z"/>
<g>
	<path style="fill:#57565C;" d="M111.306,153.433c-2.059,0-4.075-0.836-5.538-2.288c-1.463-1.463-2.299-3.48-2.299-5.548
		c0-2.058,0.836-4.086,2.299-5.538c1.462-1.463,3.478-2.299,5.538-2.299c2.068,0,4.086,0.836,5.548,2.299
		c1.453,1.463,2.288,3.48,2.288,5.538c0,2.069-0.836,4.086-2.288,5.548C115.392,152.597,113.375,153.433,111.306,153.433z"/>
	<path style="fill:#57565C;" d="M126.98,204.116c-2.059,0-4.075-0.836-5.538-2.288c-1.463-1.463-2.299-3.48-2.299-5.548
		c0-2.058,0.836-4.086,2.299-5.538c1.462-1.463,3.478-2.299,5.538-2.299c2.068,0,4.086,0.836,5.548,2.299
		c1.453,1.463,2.288,3.48,2.288,5.538c0,2.069-0.836,4.086-2.288,5.548C131.065,203.28,129.049,204.116,126.98,204.116z"/>
</g>
<path style="fill:#91CC04;" d="M235.774,439.842L235.774,439.842c-22.399,0-40.726-18.326-40.726-40.726V40.726
	C195.048,18.326,213.375,0,235.774,0l0,0C258.174,0,276.5,18.326,276.5,40.726v358.391
	C276.5,421.516,258.174,439.842,235.774,439.842z"/>
<path style="fill:#85BB04;" d="M195.047,261.708v137.408c0,22.4,18.326,40.726,40.726,40.726l0,0
	c22.399,0,40.726-18.326,40.726-40.726v-186.64C246.945,219.68,209.999,242.777,195.047,261.708z"/>
<g>
	<path style="fill:#57565C;" d="M235.774,56.263c-2.059,0-4.075-0.836-5.538-2.288c-1.463-1.463-2.299-3.48-2.299-5.548
		c0-2.058,0.836-4.086,2.299-5.538c1.462-1.463,3.478-2.299,5.538-2.299c2.068,0,4.086,0.836,5.548,2.299
		c1.453,1.463,2.288,3.48,2.288,5.538c0,2.069-0.836,4.086-2.288,5.548C239.86,55.427,237.842,56.263,235.774,56.263z"/>
	<path style="fill:#57565C;" d="M246.22,100.467c-2.059,0-4.075-0.836-5.538-2.288c-1.463-1.463-2.299-3.48-2.299-5.548
		c0-2.058,0.836-4.086,2.299-5.538c1.462-1.463,3.478-2.299,5.538-2.299c2.068,0,4.086,0.836,5.548,2.299
		c1.453,1.463,2.288,3.48,2.288,5.538c0,2.069-0.836,4.086-2.288,5.548C250.306,99.631,248.289,100.467,246.22,100.467z"/>
</g>
<path style="fill:#9CDD05;" d="M394.606,68.784c-22.492,0-40.726,18.233-40.726,40.726v98.412c0,23.799-16.634,41.745-38.689,41.745
	c-33.035,0-63.67,13.11-86.26,36.918c-21.849,23.025-33.882,53.667-33.882,86.278v98.411c0,22.492,18.233,40.726,40.726,40.726
	s40.726-18.233,40.726-40.726v-98.411c0-23.799,16.634-41.745,38.689-41.745c33.034,0,63.669-13.111,86.259-36.919
	c21.85-23.024,33.883-53.666,33.883-86.277v-98.412C435.332,87.017,417.1,68.784,394.606,68.784z"/>
<g>
	<path style="fill:#85BB04;" d="M384.416,266.543c-3.732-2.19-4.627-7.233-2.252-10.852c0.959-1.461,1.879-2.963,2.732-4.463
		c2.142-3.761,6.927-5.073,10.688-2.932c3.761,2.142,5.073,6.928,2.932,10.688c-1.017,1.785-2.111,3.569-3.249,5.306
		C393.763,266.584,390.212,269.944,384.416,266.543z"/>
	<path style="fill:#85BB04;" d="M315.191,307.609c-4.329,0-7.837-3.508-7.837-7.837c0-4.329,3.508-7.837,7.837-7.837
		c19.902,0,38.864-7.234,53.392-20.369c3.212-2.9,8.167-2.653,11.07,0.557c2.902,3.211,2.653,8.166-0.557,11.07
		C361.679,298.937,338.984,307.609,315.191,307.609z"/>
</g>
<g>
	<path style="fill:#57565C;" d="M235.774,441.347c-2.059,0-4.075-0.836-5.538-2.288c-1.463-1.463-2.299-3.479-2.299-5.548
		c0-2.058,0.836-4.086,2.299-5.538c1.462-1.463,3.478-2.299,5.538-2.299c2.068,0,4.086,0.836,5.548,2.299
		c1.453,1.463,2.288,3.479,2.288,5.538c0,2.069-0.836,4.086-2.288,5.548C239.86,440.511,237.842,441.347,235.774,441.347z"/>
	<path style="fill:#57565C;" d="M246.22,379.658c-2.059,0-4.075-0.836-5.538-2.288c-1.463-1.463-2.299-3.48-2.299-5.548
		c0-2.058,0.836-4.086,2.299-5.538c1.462-1.463,3.478-2.299,5.538-2.299c2.068,0,4.086,0.836,5.548,2.299
		c1.453,1.463,2.288,3.479,2.288,5.538c0,2.069-0.836,4.086-2.288,5.548C250.306,378.821,248.289,379.658,246.22,379.658z"/>
	<path style="fill:#57565C;" d="M220.101,404.172c-2.059,0-4.075-0.836-5.538-2.288c-1.463-1.463-2.299-3.479-2.299-5.548
		c0-2.058,0.836-4.086,2.299-5.538c1.462-1.463,3.478-2.299,5.538-2.299c2.068,0,4.086,0.836,5.548,2.299
		c1.453,1.463,2.288,3.479,2.288,5.538c0,2.069-0.836,4.086-2.288,5.548C224.187,403.336,222.169,404.172,220.101,404.172z"/>
	<path style="fill:#57565C;" d="M404.003,129.405c-2.059,0-4.075-0.836-5.538-2.288c-1.463-1.463-2.299-3.48-2.299-5.548
		c0-2.058,0.836-4.086,2.299-5.538c1.462-1.463,3.478-2.299,5.538-2.299c2.068,0,4.086,0.836,5.548,2.299
		c1.453,1.463,2.288,3.48,2.288,5.538c0,2.069-0.836,4.086-2.288,5.548C408.089,128.569,406.071,129.405,404.003,129.405z"/>
	<path style="fill:#57565C;" d="M384.15,174.336c-2.059,0-4.075-0.836-5.538-2.288c-1.463-1.463-2.299-3.48-2.299-5.548
		c0-2.058,0.836-4.086,2.299-5.538c1.462-1.463,3.478-2.299,5.538-2.299c2.068,0,4.086,0.836,5.548,2.299
		c1.453,1.463,2.288,3.48,2.288,5.538c0,2.069-0.836,4.086-2.288,5.548C388.235,173.5,386.218,174.336,384.15,174.336z"/>
	<path style="fill:#57565C;" d="M404.003,211.952c-2.059,0-4.075-0.836-5.538-2.288c-1.463-1.463-2.299-3.48-2.299-5.548
		c0-2.058,0.836-4.086,2.299-5.538c1.462-1.463,3.478-2.299,5.538-2.299c2.068,0,4.086,0.836,5.548,2.299
		c1.453,1.463,2.288,3.48,2.288,5.538c0,2.069-0.836,4.086-2.288,5.548C408.089,211.116,406.071,211.952,404.003,211.952z"/>
</g>
<g>
</g>
<g>
</g>
<g>
</g>
<g>
</g>
<g>
</g>
<g>
</g>
<g>
</g>
<g>
</g>
<g>
</g>
<g>
</g>
<g>
</g>
<g>
</g>
<g>
</g>
<g>
</g>
<g>
</g>
</svg>
