<?xml version="1.0" encoding="iso-8859-1"?>
<!-- Generator: Adobe Illustrator 19.0.0, SVG Export Plug-In . SVG Version: 6.00 Build 0)  -->
<svg version="1.1" id="Layer_1" xmlns="http://www.w3.org/2000/svg" xmlns:xlink="http://www.w3.org/1999/xlink" x="0px" y="0px"
	 viewBox="0 0 512.002 512.002" style="enable-background:new 0 0 512.002 512.002;" xml:space="preserve">
<g>
	<path style="fill:#2D2D30;" d="M495.897,78.662l-62.559-62.559c-3.06-3.061-3.06-8.023,0-11.082c3.06-3.061,8.023-3.061,11.082,0
		L506.98,67.58c3.06,3.061,3.136,8.099,0,11.082C502.074,83.331,497.427,80.192,495.897,78.662z"/>
	<path style="fill:#2D2D30;" d="M478.936,95.624l-62.559-62.559c-3.06-3.061-3.06-8.023,0-11.082c3.06-3.061,8.023-3.061,11.082,0
		l62.559,62.559c3.06,3.061,3.219,8.19,0,11.082C485.094,100.049,480.465,97.154,478.936,95.624z"/>
</g>
<polygon style="fill:#CD2A00;" points="440.999,92.53 419.47,71.002 335.313,144.732 367.268,176.687 "/>
<polygon style="fill:#AB2300;" points="419.47,71.002 335.313,144.732 347.534,156.953 431.691,83.223 "/>
<path style="fill:#781900;" d="M508.789,50.808l3.181-40.276c0.226-2.848-0.809-5.652-2.83-7.673
	c-2.021-2.021-4.824-3.054-7.673-2.83l-40.277,3.18c-2.317,0.183-4.493,1.186-6.136,2.83l-38.61,38.61
	c-1.778,1.778-2.801,4.173-2.858,6.687l-0.465,20.949c-0.06,2.663,0.974,5.237,2.858,7.121l16.613,16.613
	c1.884,1.884,4.458,2.916,7.121,2.858l20.949-0.465c2.514-0.056,4.909-1.079,6.687-2.858l38.61-38.61
	C507.603,55.301,508.607,53.126,508.789,50.808z M437.669,65.631c-2.474,2.474-6.522,2.474-8.997,0
	c-2.474-2.474-2.474-6.522,0-8.997l37.418-37.418c2.474-2.474,6.522-2.474,8.996,0c2.474,2.474,2.474,6.522,0,8.997L437.669,65.631z
	 M455.365,83.326c-2.474,2.474-6.522,2.474-8.997,0c-2.474-2.474-2.474-6.522,0-8.997l37.418-37.418
	c2.474-2.474,6.522-2.474,8.996,0c2.474,2.474,2.474,6.522,0,8.996L455.365,83.326z"/>
<path style="fill:#FFDAAA;" d="M315.577,376.526c0.565-22.058,8.27-24.407,12.495-26.587c4.245-2.191,24.193-9.992,39.148-24.948
	c11.464-11.464,20.04-25.09,25.493-40.501c5.157-14.573,7.282-30.068,6.316-46.052c-1.923-31.855-15.96-62.376-39.525-85.942
	c-23.566-23.566-54.086-37.602-85.942-39.525c-15.984-0.964-31.479,1.161-46.052,6.316c-15.412,5.453-29.039,14.03-40.501,25.493
	c-14.586,14.586-22.791,33.644-24.999,39.244c-0.66,1.458-5.61,10.575-26.565,12.401c-36.475,1.364-70.14,15.709-94.88,40.45
	c-14.623,14.623-25.53,32.045-32.418,51.781c-6.533,18.718-9.156,38.664-7.799,59.282c2.719,41.296,21.166,80.99,51.946,111.77
	s70.473,49.227,111.77,51.946c20.618,1.357,40.564-1.266,59.282-7.799c19.736-6.888,37.158-17.795,51.781-32.418
	C299.874,446.688,314.219,413.011,315.577,376.526z"/>
<g>
	<path style="fill:#FFC477;" d="M56.546,337.054c6.888-19.736,17.795-37.158,32.418-51.781c24.741-24.741,58.406-39.086,94.88-40.45
		c20.954-1.825,25.904-10.943,26.565-12.401c2.208-5.601,10.413-24.659,24.999-39.244c11.464-11.464,25.09-20.04,40.501-25.493
		c14.573-5.157,30.068-7.282,46.052-6.316c20.654,1.247,40.746,7.592,58.747,18.32c-5.817-9.761-12.919-18.91-21.204-27.195
		c-23.566-23.566-54.086-37.602-85.942-39.525c-15.984-0.964-31.479,1.161-46.052,6.316c-15.412,5.453-29.039,14.03-40.501,25.493
		c-14.586,14.586-22.791,33.644-24.999,39.244c-0.66,1.458-5.61,10.575-26.565,12.401c-36.475,1.364-70.14,15.709-94.88,40.45
		c-14.623,14.623-25.53,32.045-32.418,51.781c-6.533,18.718-9.156,38.664-7.799,59.282c2.719,41.296,21.166,80.99,51.946,111.77
		c8.223,8.223,17.088,15.556,26.444,21.955c-17.549-25.664-27.999-55.062-29.991-85.325
		C47.39,375.718,50.013,355.772,56.546,337.054z"/>
	<path style="fill:#FFC477;" d="M174.523,472.438c-2.609,0-5.235-0.087-7.861-0.259c-4.319-0.284-7.59-4.016-7.306-8.334
		c0.284-4.319,4.016-7.582,8.334-7.306c4.66,0.307,9.309,0.301,13.817-0.018c4.315-0.305,8.065,2.948,8.37,7.265
		c0.305,4.318-2.948,8.065-7.265,8.37C179.947,472.344,177.244,472.438,174.523,472.438z"/>
	<path style="fill:#FFC477;" d="M142.439,468.163c-22.99-6.148-44.489-18.745-62.172-36.429c-3.061-3.06-3.061-8.022,0-11.082
		c3.061-3.061,8.023-3.062,11.082,0c15.739,15.739,34.807,26.933,55.14,32.371c4.181,1.118,6.66,5.414,5.545,9.595
		C149.943,470.465,143.118,468.345,142.439,468.163z"/>
</g>
<path style="fill:#AB2300;" d="M315.577,376.526c0.565-22.058,8.27-24.407,12.495-26.587c4.245-2.191,24.193-9.992,39.148-24.948
	c11.464-11.464,20.04-25.09,25.493-40.501c5.157-14.573,7.282-30.068,6.316-46.052c-1.923-31.855-15.96-62.376-39.525-85.942
	c-23.566-23.566-54.086-37.602-85.942-39.525c-15.984-0.964-31.479,1.161-46.052,6.316c-15.412,5.453-29.039,14.03-40.501,25.493
	c-14.586,14.586-22.791,33.644-24.999,39.244c-0.66,1.458-5.61,10.575-26.565,12.401c-36.475,1.364-70.14,15.709-94.88,40.45
	c-14.623,14.623-25.53,32.045-32.418,51.781c-6.533,18.718-9.156,38.664-7.799,59.282c2.719,41.296,21.166,80.99,51.946,111.77
	s70.473,49.227,111.77,51.946c20.618,1.357,40.564-1.266,59.282-7.799c19.736-6.888,37.158-17.795,51.781-32.418
	C299.874,446.688,314.219,413.011,315.577,376.526z M218.14,488.936c-16.705,5.829-34.55,8.169-53.038,6.951
	c-37.472-2.467-73.567-19.284-101.636-47.353C35.396,420.465,18.58,384.37,16.113,346.899c-1.217-18.491,1.121-36.334,6.951-53.039
	c6.097-17.472,15.745-32.887,28.673-45.816c21.894-21.894,51.832-34.62,84.299-35.833c0.26-0.01,0.521-0.025,0.781-0.049
	c32.627-3.028,39.795-22.1,39.891-22.345c1.348-3.417,8.715-21.109,21.474-33.867c9.785-9.785,21.427-17.11,34.6-21.77
	c12.569-4.447,25.97-6.278,39.83-5.441c27.998,1.69,54.89,14.094,75.723,34.926s33.236,47.725,34.926,75.723
	c0.837,13.861-0.993,27.26-5.44,39.83c-4.661,13.173-11.985,24.814-21.77,34.6c-10.771,10.771-25.492,17.548-31.778,20.442
	c-1.401,0.645-22.635,6.881-24.485,41.765c-1.72,32.421-13.951,62.357-35.831,84.238
	C251.027,473.191,235.612,482.839,218.14,488.936z"/>
<g>
	<path style="fill:#781900;" d="M16.113,346.9c-1.217-18.491,1.121-36.334,6.951-53.039c6.097-17.472,15.745-32.887,28.673-45.816
		c21.894-21.894,51.832-34.62,84.299-35.833c0.26-0.01,0.521-0.025,0.781-0.049c32.627-3.028,39.795-22.1,39.891-22.345
		c1.348-3.417,8.715-21.109,21.474-33.867c9.785-9.785,21.427-17.11,34.6-21.77c12.569-4.447,25.97-6.278,39.83-5.441
		c27.998,1.69,54.89,14.094,75.723,34.926c0.97,0.97,1.914,1.956,2.847,2.952c10.265,3.105,20.178,7.499,29.529,13.072
		c-5.817-9.761-12.919-18.91-21.204-27.195c-23.566-23.566-54.086-37.602-85.942-39.525c-15.984-0.964-31.479,1.161-46.052,6.316
		c-15.412,5.453-29.039,14.03-40.501,25.493c-14.586,14.586-22.791,33.644-24.999,39.244c-0.66,1.458-5.61,10.575-26.565,12.401
		c-36.475,1.364-70.14,15.709-94.88,40.45c-14.623,14.623-25.53,32.045-32.418,51.781c-6.533,18.718-9.156,38.664-7.799,59.282
		c2.719,41.296,21.166,80.99,51.946,111.77c8.223,8.223,17.088,15.556,26.444,21.955c-8.103-11.85-14.69-24.496-19.631-37.657
		C33.662,416.634,18.449,382.387,16.113,346.9z"/>
	<path style="fill:#781900;" d="M246.966,347.157c-21.968,0-42.599-8.534-58.095-24.03c-32.033-32.033-32.033-84.155,0-116.188
		c15.496-15.496,36.127-24.03,58.095-24.03c21.967,0,42.599,8.534,58.094,24.028c32.033,32.033,32.033,84.156,0,116.189
		C289.566,338.623,268.934,347.157,246.966,347.157z M246.967,198.584c-17.781,0-34.477,6.904-47.012,19.438
		c-25.923,25.923-25.923,68.101,0,94.023c12.536,12.535,29.231,19.438,47.012,19.438s34.476-6.904,47.012-19.438
		c25.923-25.923,25.923-68.101,0-94.024C281.444,205.486,264.748,198.584,246.967,198.584z"/>
</g>
<path style="fill:#CD2A00;" d="M209.308,302.692c-20.765-20.765-20.765-54.552,0-75.316c20.764-20.764,54.551-20.764,75.316,0
	c20.765,20.765,20.765,54.552,0,75.316C263.86,323.457,230.073,323.457,209.308,302.692z"/>
<circle style="fill:#2D2D30;" cx="246.962" cy="265.038" r="37.459"/>
<path style="fill:#1D1D1F;" d="M233.737,257.243c13.353-13.353,34.274-14.509,48.947-3.487c-1.751-5.563-4.821-10.801-9.231-15.211
	c-14.629-14.629-38.346-14.629-52.974,0c-14.629,14.629-14.629,38.346,0,52.974c1.276,1.276,2.625,2.434,4.027,3.487
	C220.448,282.114,223.518,267.462,233.737,257.243z"/>
<g>
	<path style="fill:#2D2D30;" d="M103.581,354.052c-3.098-3.022-3.061-8.023,0-11.082l46.546-46.547c3.061-3.06,8.023-3.06,11.082,0
		c3.061,3.061,3.061,8.023,0,11.082l-46.546,46.547C113.134,355.582,108.409,358.759,103.581,354.052z"/>
	<path style="fill:#2D2D30;" d="M130.765,381.235c-3.135-2.984-3.061-8.023,0-11.082l33.886-33.886c3.061-3.06,8.023-3.06,11.082,0
		c3.061,3.06,3.061,8.023,0,11.082l-33.886,33.886C140.318,382.765,135.315,385.567,130.765,381.235z"/>
	<path style="fill:#2D2D30;" d="M157.948,408.419c-3.045-3.076-3.061-8.023,0-11.082l20.853-20.853c3.061-3.06,8.023-3.06,11.082,0
		c3.061,3.06,3.061,8.023,0,11.082l-20.853,20.853C167.501,409.949,162.221,412.735,157.948,408.419z"/>
</g>
<path style="fill:#CD2A00;" d="M163.99,438.314l-90.303-90.303c-6.17-6.17-6.17-16.173,0-22.342c6.17-6.17,16.173-6.17,22.342,0
	l90.303,90.303c6.17,6.17,6.17,16.173,0,22.342C180.163,444.483,170.159,444.483,163.99,438.314z"/>
<path style="fill:#AB2300;" d="M108.442,360.423c6.17-6.17,16.173-6.17,22.342,0l-34.755-34.755c-6.17-6.17-16.173-6.17-22.342,0
	c-6.17,6.17-6.17,16.173,0,22.342l34.755,34.755C102.272,376.596,102.272,366.593,108.442,360.423z"/>
<g>
</g>
<g>
</g>
<g>
</g>
<g>
</g>
<g>
</g>
<g>
</g>
<g>
</g>
<g>
</g>
<g>
</g>
<g>
</g>
<g>
</g>
<g>
</g>
<g>
</g>
<g>
</g>
<g>
</g>
</svg>
