<?xml version="1.0" encoding="iso-8859-1"?>
<!-- Generator: Adobe Illustrator 19.0.0, SVG Export Plug-In . SVG Version: 6.00 Build 0)  -->
<svg version="1.1" id="Layer_1" xmlns="http://www.w3.org/2000/svg" xmlns:xlink="http://www.w3.org/1999/xlink" x="0px" y="0px"
	 viewBox="0 0 512.001 512.001" style="enable-background:new 0 0 512.001 512.001;" xml:space="preserve">
<path style="fill:#FFE477;" d="M169.96,263.191c7.259-6.442,11.838-15.835,11.838-26.304c0-19.42-15.743-35.164-35.164-35.164
	c-9.824,0-18.703,4.032-25.083,10.527c-3.562-3.593-8.499-5.821-13.958-5.821c-8.675,0-16.022,5.626-18.631,13.422
	c-3.027-1.328-6.37-2.07-9.887-2.07c-11.982,0-21.963,8.553-24.18,19.886c-1.731-0.498-3.555-0.782-5.447-0.782
	c-10.857,0-19.659,8.801-19.659,19.659c0,2.336,0.428,4.566,1.177,6.646H169.96V263.191z"/>
<path style="fill:#FFDA44;" d="M146.634,201.723c-5.192,0-10.115,1.136-14.55,3.157c-3.393,23.082-0.83,58.311-0.83,58.311h38.706
	c7.259-6.442,11.838-15.835,11.838-26.304C181.798,217.468,166.054,201.723,146.634,201.723z"/>
<path style="fill:#91CC04;" d="M143.41,236.463c-2.059,0-4.075-0.836-5.538-2.288c-1.463-1.463-2.299-3.479-2.299-5.548
	c0-2.058,0.836-4.086,2.299-5.538c1.462-1.463,3.478-2.299,5.538-2.299c2.068,0,4.086,0.836,5.548,2.299
	c1.453,1.463,2.288,3.479,2.288,5.538c0,2.069-0.836,4.086-2.288,5.548C147.497,235.627,145.479,236.463,143.41,236.463z"/>
<path style="fill:#FF3F62;" d="M117.72,248.131c-2.059,0-4.075-0.836-5.538-2.288c-1.463-1.463-2.299-3.479-2.299-5.548
	c0-2.058,0.836-4.086,2.299-5.538c1.462-1.463,3.478-2.299,5.538-2.299c2.068,0,4.086,0.836,5.548,2.299
	c1.453,1.463,2.288,3.479,2.288,5.538c0,2.069-0.836,4.086-2.288,5.548C121.805,247.295,119.788,248.131,117.72,248.131z"/>
<path style="fill:#91CC04;" d="M83.852,249.062c-2.059,0-4.075-0.836-5.538-2.288c-1.463-1.463-2.299-3.479-2.299-5.548
	c0-2.058,0.836-4.086,2.299-5.538c1.462-1.463,3.478-2.299,5.538-2.299c2.068,0,4.086,0.836,5.548,2.299
	c1.453,1.463,2.288,3.479,2.288,5.538c0,2.069-0.836,4.086-2.288,5.548C87.938,248.226,85.92,249.062,83.852,249.062z"/>
<path style="fill:#891C00;" d="M422.501,309.888H319.13c-21.264,0-38.661-17.397-38.661-38.661v-34.169
	c0-21.264,17.397-38.661,38.661-38.661h103.371c21.264,0,38.661,17.397,38.661,38.661v34.169
	C461.162,292.491,443.764,309.888,422.501,309.888z"/>
<path style="fill:#781900;" d="M404.041,217.967c0-6.774-0.93-13.331-2.638-19.57H319.13c-21.264,0-38.661,17.397-38.661,38.661
	v34.169c0,21.264,17.397,38.661,38.661,38.661h69.336c9.75-12.561,15.575-28.31,15.575-45.405V217.967z"/>
<path style="fill:#AB2300;" d="M332.154,305.462H201.261c-21.264,0-38.661-17.397-38.661-38.661v-51.152
	c0-21.264,17.397-38.661,38.661-38.661h130.894c21.264,0,38.661,17.397,38.661,38.661v51.152
	C370.815,288.065,353.418,305.462,332.154,305.462z"/>
<path style="fill:#891C00;" d="M215.762,264.483v-46.516c0-22.538,18.44-40.979,40.979-40.979h-55.479
	c-21.264,0-38.661,17.397-38.661,38.661v51.152c0,21.264,17.397,38.661,38.661,38.661h55.479
	C234.202,305.462,215.762,287.022,215.762,264.483z"/>
<g>
	<path style="fill:#FFEB99;" d="M266.708,217.396c-2.059,0-4.075-0.836-5.538-2.288c-1.463-1.463-2.299-3.479-2.299-5.548
		c0-2.058,0.836-4.086,2.299-5.538c1.462-1.463,3.478-2.299,5.538-2.299c2.069,0,4.086,0.836,5.548,2.299
		c1.453,1.463,2.288,3.479,2.288,5.538c0,2.069-0.836,4.086-2.288,5.548C270.794,216.561,268.776,217.396,266.708,217.396z"/>
	<path style="fill:#FFEB99;" d="M297.358,240.294c-2.06,0-4.075-0.836-5.538-2.288c-1.463-1.463-2.299-3.479-2.299-5.548
		c0-2.058,0.836-4.086,2.299-5.538c1.462-1.463,3.478-2.299,5.538-2.299c2.068,0,4.086,0.836,5.548,2.299
		c1.453,1.463,2.288,3.479,2.288,5.538c0,2.069-0.836,4.086-2.288,5.548C301.444,239.458,299.426,240.294,297.358,240.294z"/>
	<path style="fill:#FFEB99;" d="M313.032,209.56c-2.059,0-4.075-0.836-5.538-2.288c-1.463-1.463-2.299-3.479-2.299-5.548
		c0-2.058,0.836-4.086,2.299-5.538c1.462-1.463,3.478-2.299,5.538-2.299c2.068,0,4.086,0.836,5.548,2.299
		c1.453,1.463,2.288,3.479,2.288,5.538c0,2.069-0.836,4.086-2.288,5.548C317.117,208.724,315.1,209.56,313.032,209.56z"/>
	<path style="fill:#FFEB99;" d="M342.255,240.294c-2.059,0-4.075-0.836-5.538-2.288c-1.463-1.463-2.299-3.479-2.299-5.548
		c0-2.058,0.836-4.086,2.299-5.538c1.462-1.463,3.478-2.299,5.538-2.299c2.068,0,4.086,0.836,5.548,2.299
		c1.453,1.463,2.288,3.479,2.288,5.538c0,2.069-0.836,4.086-2.288,5.548C346.341,239.458,344.324,240.294,342.255,240.294z"/>
	<path style="fill:#FFEB99;" d="M240.553,248.131c-2.059,0-4.075-0.836-5.538-2.288c-1.463-1.463-2.299-3.479-2.299-5.548
		c0-2.058,0.836-4.086,2.299-5.538c1.462-1.463,3.478-2.299,5.538-2.299c2.068,0,4.086,0.836,5.548,2.299
		c1.453,1.463,2.288,3.479,2.288,5.538c0,2.069-0.836,4.086-2.288,5.548C244.638,247.295,242.621,248.131,240.553,248.131z"/>
	<path style="fill:#FFEB99;" d="M427.066,248.131c-2.059,0-4.075-0.836-5.538-2.288c-1.463-1.463-2.299-3.479-2.299-5.548
		c0-2.058,0.836-4.086,2.299-5.538c1.462-1.463,3.478-2.299,5.538-2.299c2.068,0,4.086,0.836,5.548,2.299
		c1.453,1.463,2.288,3.479,2.288,5.538c0,2.069-0.836,4.086-2.288,5.548C431.152,247.295,429.134,248.131,427.066,248.131z"/>
	<path style="fill:#FFEB99;" d="M404.042,228.626c-2.06,0-4.075-0.836-5.538-2.288c-1.463-1.463-2.299-3.479-2.299-5.548
		c0-2.058,0.836-4.086,2.299-5.538c1.462-1.463,3.478-2.299,5.538-2.299c2.068,0,4.086,0.836,5.548,2.299
		c1.453,1.463,2.288,3.479,2.288,5.538c0,2.069-0.836,4.086-2.288,5.548C408.127,227.79,406.11,228.626,404.042,228.626z"/>
</g>
<path style="fill:#9BC9FF;" d="M26.116,291.187l26.125,38.306c2.355,3.453,6.264,5.519,10.445,5.519h386.632
	c4.181,0,8.089-2.066,10.445-5.519l26.125-38.306H26.116z"/>
<path style="fill:#57A4FF;" d="M138.495,329.493l-26.125-38.307H26.116l26.125,38.307c2.355,3.453,6.264,5.519,10.445,5.519h86.254
	C144.759,335.013,140.85,332.947,138.495,329.493z"/>
<path style="fill:#BDDBFF;" d="M494.998,294.898H17.002C7.651,294.898,0,287.247,0,277.896l0,0c0-9.351,7.651-17.002,17.002-17.002
	h477.996c9.351,0,17.002,7.651,17.002,17.002l0,0C512,287.247,504.349,294.898,494.998,294.898z"/>
<path style="fill:#9BC9FF;" d="M105.793,277.896L105.793,277.896c0-9.352,7.651-17.002,17.002-17.002H17.002
	C7.651,260.893,0,268.545,0,277.896l0,0c0,9.351,7.651,17.003,17.002,17.003h105.793
	C113.444,294.898,105.793,287.247,105.793,277.896z"/>
<g>
</g>
<g>
</g>
<g>
</g>
<g>
</g>
<g>
</g>
<g>
</g>
<g>
</g>
<g>
</g>
<g>
</g>
<g>
</g>
<g>
</g>
<g>
</g>
<g>
</g>
<g>
</g>
<g>
</g>
</svg>
