<?xml version="1.0" encoding="iso-8859-1"?>
<!-- Generator: Adobe Illustrator 19.0.0, SVG Export Plug-In . SVG Version: 6.00 Build 0)  -->
<svg version="1.1" id="Layer_1" xmlns="http://www.w3.org/2000/svg" xmlns:xlink="http://www.w3.org/1999/xlink" x="0px" y="0px"
	 viewBox="0 0 512 512" style="enable-background:new 0 0 512 512;" xml:space="preserve">
<circle style="fill:#D8D7DA;" cx="399.956" cy="138.263" r="52.423"/>
<path style="fill:#C6C5CA;" d="M362.887,101.192c3.861-3.861,8.175-6.991,12.77-9.396l70.758,70.759
	c-2.404,4.594-5.535,8.909-9.396,12.77c-20.472,20.472-53.662,20.472-74.132,0C342.415,154.854,342.415,121.664,362.887,101.192z"/>
<path style="fill:#ACABB1;" d="M399.953,164.557c-7.025,0-13.629-2.736-18.595-7.702c-4.966-4.967-7.702-11.57-7.702-18.595
	s2.736-13.628,7.702-18.595c4.967-4.967,11.571-7.702,18.595-7.702c7.024,0,13.628,2.734,18.595,7.702
	c4.966,4.966,7.702,11.57,7.702,18.595s-2.736,13.629-7.702,18.595C413.582,161.82,406.977,164.557,399.953,164.557z"/>
<path style="fill:#898890;" d="M396.101,112.242l29.869,29.869c-0.812,5.562-3.376,10.697-7.422,14.743
	c-4.966,4.966-11.571,7.702-18.595,7.702c-7.024,0-13.629-2.736-18.595-7.702c-4.966-4.967-7.703-11.57-7.703-18.595
	s2.736-13.628,7.703-18.595C385.405,115.617,390.539,113.053,396.101,112.242z"/>
<circle style="fill:#D8D7DA;" cx="459.577" cy="282.208" r="52.423"/>
<path style="fill:#C6C5CA;" d="M475.253,332.246c-4.95,1.549-10.214,2.385-15.673,2.385c-28.951,0-52.419-23.469-52.419-52.419
	c0-28.951,23.469-52.419,52.419-52.419c5.46,0,10.724,0.837,15.673,2.385V332.246z"/>
<path style="fill:#ACABB1;" d="M459.581,308.509c-14.5,0-26.297-11.797-26.297-26.298c0-14.5,11.797-26.297,26.297-26.297
	s26.297,11.797,26.297,26.297C485.878,296.712,474.081,308.509,459.581,308.509z"/>
<path style="fill:#898890;" d="M459.58,308.509c-14.5,0-26.297-11.797-26.297-26.297s11.797-26.297,26.297-26.297
	c5.868,0,11.293,1.933,15.673,5.195v42.204C470.873,306.576,465.448,308.509,459.58,308.509z"/>
<circle style="fill:#D8D7DA;" cx="399.956" cy="426.164" r="52.423"/>
<path style="fill:#C6C5CA;" d="M362.887,463.231c3.861,3.861,8.175,6.991,12.77,9.396l70.758-70.759
	c-2.404-4.594-5.535-8.909-9.396-12.77c-20.472-20.472-53.662-20.472-74.132,0C342.415,409.57,342.415,442.76,362.887,463.231z"/>
<path style="fill:#ACABB1;" d="M399.953,452.462c-7.025,0-13.628-2.734-18.595-7.702c-4.967-4.967-7.703-11.57-7.703-18.595
	c0-7.024,2.736-13.628,7.703-18.595c4.966-4.966,11.57-7.702,18.595-7.702s13.629,2.736,18.595,7.702
	c4.966,4.966,7.702,11.57,7.702,18.595s-2.736,13.629-7.702,18.595C413.581,449.727,406.977,452.462,399.953,452.462z"/>
<path style="fill:#898890;" d="M396.101,452.182l29.869-29.869c-0.812-5.562-3.376-10.697-7.422-14.743
	c-4.966-4.966-11.571-7.702-18.595-7.702c-7.024,0-13.629,2.736-18.595,7.702c-4.966,4.967-7.703,11.57-7.703,18.595
	s2.736,13.628,7.703,18.595C385.405,448.807,390.539,451.371,396.101,452.182z"/>
<circle style="fill:#D8D7DA;" cx="112.044" cy="426.164" r="52.423"/>
<path style="fill:#C6C5CA;" d="M149.113,463.231c-3.861,3.861-8.175,6.991-12.77,9.396l-70.758-70.759
	c2.404-4.594,5.535-8.909,9.396-12.77c20.472-20.472,53.662-20.472,74.132,0C169.585,409.57,169.585,442.76,149.113,463.231z"/>
<path style="fill:#ACABB1;" d="M112.046,452.462c-7.024,0-13.628-2.734-18.595-7.702c-4.966-4.966-7.702-11.57-7.702-18.595
	s2.736-13.629,7.702-18.595s11.57-7.702,18.595-7.702s13.629,2.736,18.595,7.702c4.966,4.967,7.702,11.571,7.702,18.595
	c0,7.025-2.736,13.628-7.702,18.595C125.675,449.727,119.071,452.462,112.046,452.462z"/>
<path style="fill:#898890;" d="M115.899,452.182L86.03,422.312c0.812-5.562,3.376-10.697,7.422-14.743
	c4.966-4.966,11.571-7.702,18.595-7.702s13.629,2.736,18.595,7.702c4.966,4.967,7.703,11.57,7.703,18.595
	s-2.736,13.628-7.703,18.595C126.595,448.807,121.461,451.371,115.899,452.182z"/>
<circle style="fill:#D8D7DA;" cx="52.423" cy="282.208" r="52.423"/>
<path style="fill:#C6C5CA;" d="M36.747,332.246c4.95,1.549,10.214,2.385,15.673,2.385c28.951,0,52.419-23.469,52.419-52.419
	c0-28.951-23.469-52.419-52.419-52.419c-5.46,0-10.724,0.837-15.673,2.385V332.246z"/>
<path style="fill:#ACABB1;" d="M52.419,308.509c-14.5,0-26.297-11.797-26.297-26.298c0-14.5,11.797-26.297,26.297-26.297
	s26.297,11.797,26.297,26.297C78.717,296.712,66.92,308.509,52.419,308.509z"/>
<path style="fill:#898890;" d="M52.42,308.509c14.5,0,26.297-11.797,26.297-26.297S66.92,255.915,52.42,255.915
	c-5.868,0-11.293,1.933-15.673,5.195v42.204C41.127,306.576,46.552,308.509,52.42,308.509z"/>
<circle style="fill:#D8D7DA;" cx="112.044" cy="138.263" r="52.423"/>
<path style="fill:#C6C5CA;" d="M149.113,101.192c-3.861-3.861-8.175-6.991-12.77-9.396l-70.758,70.759
	c2.404,4.594,5.535,8.909,9.396,12.77c20.472,20.472,53.662,20.472,74.132,0C169.585,154.854,169.585,121.664,149.113,101.192z"/>
<path style="fill:#ACABB1;" d="M112.046,164.557c-7.025,0-13.629-2.736-18.595-7.702c-4.966-4.966-7.702-11.57-7.702-18.595
	s2.736-13.629,7.702-18.595c4.967-4.967,11.571-7.702,18.595-7.702c7.025,0,13.628,2.734,18.595,7.702
	c4.967,4.967,7.703,11.57,7.703,18.595s-2.736,13.628-7.703,18.595C125.675,161.82,119.071,164.557,112.046,164.557z"/>
<path style="fill:#898890;" d="M115.899,112.242L86.03,142.111c0.812,5.562,3.376,10.697,7.422,14.743
	c4.966,4.966,11.571,7.702,18.595,7.702s13.629-2.736,18.595-7.702c4.966-4.967,7.703-11.57,7.703-18.595
	s-2.736-13.628-7.703-18.595C126.595,115.617,121.461,113.053,115.899,112.242z"/>
<circle style="fill:#D8D7DA;" cx="256" cy="78.631" r="52.423"/>
<path style="fill:#C6C5CA;" d="M203.581,78.632c0,28.951,23.469,52.419,52.419,52.419s52.419-23.469,52.419-52.419
	c0-5.46-0.837-10.724-2.385-15.673H205.965C204.417,67.908,203.581,73.172,203.581,78.632z"/>
<path style="fill:#ACABB1;" d="M256,104.929c-14.5,0-26.297-11.797-26.297-26.297c0-14.501,11.797-26.298,26.297-26.298
	c14.5,0,26.297,11.797,26.297,26.298C282.297,93.132,270.5,104.929,256,104.929z"/>
<path style="fill:#898890;" d="M229.703,78.632c0,14.5,11.797,26.297,26.297,26.297c14.5,0,26.297-11.797,26.297-26.297
	c0-5.868-1.933-11.293-5.195-15.673h-42.204C231.636,67.338,229.703,72.764,229.703,78.632z"/>
<path style="fill:#FFDAAA;" d="M453.439,191.745L346.467,84.773c-3.932-3.932-9.265-6.141-14.826-6.141H180.36
	c-5.561,0-10.894,2.209-14.826,6.141L58.561,191.745c-3.933,3.933-6.142,9.265-6.142,14.827v151.281
	c0,5.561,2.209,10.894,6.142,14.827l106.971,106.97c3.933,3.932,9.265,6.141,14.826,6.141H331.64c5.561,0,10.894-2.209,14.826-6.141
	L453.438,372.68c3.933-3.933,6.142-9.265,6.142-14.827v-151.28C459.581,201.01,457.372,195.677,453.439,191.745z"/>
<g>
	<path style="fill:#FFC477;" d="M150.094,372.68c-3.933-3.932-6.142-9.265-6.142-14.827v-151.28c0-5.561,2.209-10.894,6.142-14.827
		L257.066,84.773c3.932-3.931,9.265-6.141,14.826-6.141h-91.533c-5.561,0-10.894,2.21-14.826,6.141L58.561,191.745
		c-3.932,3.933-6.142,9.266-6.142,14.827v151.281c0,5.562,2.209,10.894,6.142,14.827l106.971,106.97
		c3.933,3.931,9.265,6.141,14.826,6.141h91.533c-5.561,0-10.894-2.21-14.826-6.141L150.094,372.68z"/>
	<path style="fill:#FFC477;" d="M428.234,348.155c-4.328,0-7.837-3.508-7.837-7.837v-6.53c0-4.329,3.509-7.837,7.837-7.837
		c4.328,0,7.837,3.508,7.837,7.837v6.53C436.07,344.646,432.562,348.155,428.234,348.155z"/>
	<path style="fill:#FFC477;" d="M376.765,405.022c-3.06-3.062-3.06-8.023,0-11.083l37.743-37.743c3.06-3.059,8.023-3.059,11.082,0
		c3.06,3.062,3.06,8.023,0,11.083l-37.743,37.743C382.781,409.281,378.296,406.552,376.765,405.022z"/>
</g>
<g>
</g>
<g>
</g>
<g>
</g>
<g>
</g>
<g>
</g>
<g>
</g>
<g>
</g>
<g>
</g>
<g>
</g>
<g>
</g>
<g>
</g>
<g>
</g>
<g>
</g>
<g>
</g>
<g>
</g>
</svg>
