<?xml version="1.0" encoding="iso-8859-1"?>
<!-- Generator: Adobe Illustrator 19.0.0, SVG Export Plug-In . SVG Version: 6.00 Build 0)  -->
<svg version="1.1" id="Layer_1" xmlns="http://www.w3.org/2000/svg" xmlns:xlink="http://www.w3.org/1999/xlink" x="0px" y="0px"
	 viewBox="0 0 512 512" style="enable-background:new 0 0 512 512;" xml:space="preserve">
<path style="fill:#5EAC24;" d="M287.051,0C169.553,0,74.303,254.93,74.303,338.129S169.553,512,287.051,512L287.051,0L287.051,0z"/>
<path style="fill:#4E901E;" d="M168.284,84.788c-5.869,13.006-11.596,27.089-17.175,42.258
	c-26.684,72.559-46.05,161.332-46.05,211.084c0,43.922,15.516,89.592,42.915,127.262C185.269,493.431,233.882,512,287.051,512V0
	C243.068,0,202.203,35.723,168.284,84.788z"/>
<path style="fill:#FFE477;" d="M437.697,338.129c0,83.199-67.446,173.871-150.645,173.871s-150.645-90.671-150.645-173.871
	S203.852,0,287.051,0S437.697,254.93,437.697,338.129z"/>
<path style="fill:#FFDA44;" d="M219.926,338.129c0-68.71,46.002-254.539,108.886-317.181C315.551,7.739,301.541,0,287.051,0
	c-83.199,0-150.645,254.93-150.645,338.129S203.852,512,287.051,512c14.49,0,28.499-2.756,41.76-7.739
	C265.929,480.638,219.926,406.839,219.926,338.129z"/>
<path style="fill:#FF7956;" d="M287.052,480.653c-39.841,0-68.686-27.773-82.336-44.329c-23.144-28.075-36.963-64.784-36.963-98.195
	c0-36.719,15.783-117.619,42.197-189.445c34.132-92.813,65.359-117.337,77.102-117.337c11.743,0,42.97,24.524,77.101,117.338
	c26.413,71.825,42.197,152.726,42.197,189.445c0,33.412-13.819,70.12-36.963,98.195C355.739,452.88,326.893,480.653,287.052,480.653
	z"/>
<g>
	<path style="fill:#FF6243;" d="M287.052,31.347c-11.743,0-42.97,24.524-77.102,117.338
		c-26.413,71.825-42.197,152.726-42.197,189.445c0,33.412,13.819,70.119,36.963,98.195c13.648,16.554,42.495,44.328,82.336,44.328
		c0.456,0,0.903-0.022,1.355-0.029c-41.226-33.716-68.482-89.61-68.482-142.495c0-61.248,36.553-215.554,89.033-292.718
		C299.313,35.149,291.673,31.347,287.052,31.347z"/>
	<path style="fill:#FF6243;" d="M349.902,235.327c-6.5-25.441-14.289-50.725-22.525-73.118c-1.494-4.063,0.588-8.566,4.65-10.06
		c4.062-1.499,8.567,0.588,10.06,4.65c8.417,22.885,16.369,48.697,23,74.648c1.071,4.193-1.382,8.825-5.653,9.533
		C353.045,242.038,350.807,238.869,349.902,235.327z"/>
	<path style="fill:#FF6243;" d="M358.531,272.86c-0.95-4.674-1.982-9.506-3.07-14.362c-0.946-4.223,1.71-8.415,5.934-9.36
		c4.225-0.951,8.416,1.71,9.36,5.934c1.111,4.958,2.166,9.893,3.136,14.668c0.862,4.242-1.848,8.54-6.119,9.24
		C362.057,279.916,359.285,276.575,358.531,272.86z"/>
</g>
<path style="fill:#3E3D42;" d="M349.043,363.246c0,34.237-27.755,61.992-61.992,61.992s-61.992-27.755-61.992-61.992
	s27.755-174.841,61.992-174.841S349.043,329.009,349.043,363.246z"/>
<g>
	<path style="fill:#2D2D30;" d="M263.837,388.44c-2.059,0-4.075-0.836-5.538-2.288c-1.463-1.463-2.299-3.479-2.299-5.548
		c0-2.058,0.836-4.086,2.299-5.538c1.462-1.463,3.478-2.299,5.538-2.299c2.068,0,4.086,0.836,5.548,2.299
		c1.453,1.463,2.288,3.479,2.288,5.538c0,2.069-0.836,4.086-2.288,5.548C267.922,387.604,265.906,388.44,263.837,388.44z"/>
	<path style="fill:#2D2D30;" d="M290.482,353.842c-2.059,0-4.075-0.836-5.538-2.288c-1.463-1.463-2.299-3.479-2.299-5.548
		c0-2.058,0.836-4.086,2.299-5.538c1.462-1.463,3.478-2.299,5.538-2.299c2.068,0,4.086,0.836,5.548,2.299
		c1.453,1.463,2.288,3.479,2.288,5.538c0,2.069-0.836,4.086-2.288,5.548C294.567,353.005,292.551,353.842,290.482,353.842z"/>
	<path style="fill:#2D2D30;" d="M326.531,353.842c-2.059,0-4.075-0.836-5.538-2.288c-1.463-1.463-2.299-3.479-2.299-5.548
		c0-2.058,0.836-4.086,2.299-5.538c1.462-1.463,3.478-2.299,5.538-2.299c2.068,0,4.086,0.836,5.548,2.299
		c1.453,1.463,2.288,3.479,2.288,5.538c0,2.069-0.836,4.086-2.288,5.548C330.616,353.005,328.599,353.842,326.531,353.842z"/>
	<path style="fill:#2D2D30;" d="M256,338.169c-2.059,0-4.075-0.836-5.538-2.288c-1.463-1.463-2.299-3.479-2.299-5.548
		c0-2.058,0.836-4.086,2.299-5.538c1.462-1.463,3.478-2.299,5.538-2.299c2.068,0,4.086,0.836,5.548,2.299
		c1.453,1.463,2.288,3.48,2.288,5.538c0,2.069-0.836,4.086-2.288,5.548C260.086,337.332,258.069,338.169,256,338.169z"/>
	<path style="fill:#2D2D30;" d="M302.299,306.668c-2.06,0-4.075-0.836-5.538-2.288c-1.463-1.463-2.299-3.479-2.299-5.548
		c0-2.058,0.836-4.086,2.299-5.538c1.462-1.463,3.478-2.299,5.538-2.299c2.068,0,4.086,0.836,5.548,2.299
		c1.453,1.463,2.288,3.479,2.288,5.538c0,2.069-0.836,4.086-2.288,5.548C306.385,305.832,304.367,306.668,302.299,306.668z"/>
	<path style="fill:#2D2D30;" d="M306.155,396.276c-2.06,0-4.075-0.836-5.538-2.288c-1.463-1.463-2.299-3.479-2.299-5.548
		c0-2.058,0.836-4.086,2.299-5.538c1.462-1.463,3.478-2.299,5.538-2.299c2.068,0,4.086,0.836,5.548,2.299
		c1.453,1.463,2.288,3.479,2.288,5.538c0,2.069-0.836,4.086-2.288,5.548C310.241,395.441,308.224,396.276,306.155,396.276z"/>
	<path style="fill:#2D2D30;" d="M298.318,250.959c-2.06,0-4.075-0.836-5.538-2.288c-1.463-1.463-2.299-3.48-2.299-5.548
		c0-2.058,0.836-4.086,2.299-5.538c1.462-1.463,3.478-2.299,5.538-2.299c2.068,0,4.086,0.836,5.548,2.299
		c1.453,1.463,2.288,3.48,2.288,5.538c0,2.069-0.836,4.086-2.288,5.548C302.404,250.123,300.387,250.959,298.318,250.959z"/>
	<path style="fill:#2D2D30;" d="M271.673,287.13c-2.06,0-4.075-0.836-5.538-2.288c-1.463-1.463-2.299-3.479-2.299-5.548
		c0-2.058,0.836-4.086,2.299-5.538c1.462-1.463,3.478-2.299,5.538-2.299c2.068,0,4.086,0.836,5.548,2.299
		c1.453,1.463,2.288,3.479,2.288,5.538c0,2.069-0.836,4.086-2.288,5.548C275.759,286.293,273.742,287.13,271.673,287.13z"/>
</g>
<g>
</g>
<g>
</g>
<g>
</g>
<g>
</g>
<g>
</g>
<g>
</g>
<g>
</g>
<g>
</g>
<g>
</g>
<g>
</g>
<g>
</g>
<g>
</g>
<g>
</g>
<g>
</g>
<g>
</g>
</svg>
