<?xml version="1.0" encoding="iso-8859-1"?>
<!-- Generator: Adobe Illustrator 19.0.0, SVG Export Plug-In . SVG Version: 6.00 Build 0)  -->
<svg version="1.1" id="Layer_1" xmlns="http://www.w3.org/2000/svg" xmlns:xlink="http://www.w3.org/1999/xlink" x="0px" y="0px"
	 viewBox="0 0 512 512" style="enable-background:new 0 0 512 512;" xml:space="preserve">
<path style="fill:#C2FB3B;" d="M322.134,342.107c0,88.955-72.113,161.067-161.067,161.067S0,431.061,0,342.107
	S72.113,8.826,161.067,8.826S322.134,253.152,322.134,342.107z"/>
<g>
	<path style="fill:#9CDD05;" d="M161.067,8.826c-5.119,0-10.181,0.818-15.178,2.36c-36.91,97.271-121.737,357.54-28.623,485.956
		c13.926,3.927,28.618,6.031,43.801,6.031c15.183,0,29.874-2.104,43.801-6.031c93.115-128.416,8.287-388.685-28.623-485.956
		C171.248,9.644,166.186,8.826,161.067,8.826z"/>
	<path style="fill:#9CDD05;" d="M198.285,126.468c-29.565,73.237-50.215,161.913-50.215,215.645
		c0,60.138,26.314,114.238,68.02,151.419c61.859-22.484,106.044-81.79,106.044-151.419c0-63.816-37.115-207.592-90.934-283.76
		C219.654,78.055,208.642,100.812,198.285,126.468z"/>
</g>
<path style="fill:#91CC04;" d="M207.695,104.356c-3.192,7.112-6.331,14.477-9.41,22.106
	c-29.565,73.237-50.215,161.913-50.215,215.645c0,57.504,24.07,109.476,62.641,146.426
	C273.959,389.325,242.428,221.417,207.695,104.356z"/>
<g>
	<path style="fill:#9CDD05;" d="M29.082,380.907c-3.697-12.557-5.571-25.61-5.571-38.8c0-5.067,0.276-10.857,0.819-17.209
		c0.37-4.312,4.169-7.511,8.476-7.14c4.312,0.37,7.51,4.164,7.14,8.476c-0.506,5.91-0.762,11.251-0.762,15.872
		c0,11.69,1.659,23.255,4.933,34.373c1.223,4.152-1.337,7.999-5.304,9.731C33.974,388.324,30.087,384.321,29.082,380.907z"/>
	<path style="fill:#9CDD05;" d="M34.247,306.716c-4.328-0.001-7.189-4.695-6.51-8.969c0.385-2.42,0.795-4.887,1.231-7.398
		c0.741-4.264,4.792-7.119,9.063-6.379c4.264,0.741,7.12,4.799,6.379,9.063c-0.423,2.434-0.821,4.826-1.194,7.173
		C42.603,304.064,39.706,306.717,34.247,306.716z"/>
</g>
<path style="fill:#D7FC7E;" d="M512,342.107c0,88.955-72.113,161.067-161.067,161.067s-161.067-72.113-161.067-161.067
	S261.978,8.826,350.933,8.826S512,253.152,512,342.107z"/>
<path style="fill:#FF7956;" d="M350.933,487.5c-80.17,0-145.393-65.224-145.393-145.393c0-38.828,16.134-120.062,46.036-194.132
	C282.788,70.659,319.931,24.5,350.933,24.5s68.145,46.159,99.358,123.476c29.901,74.069,46.035,155.303,46.035,194.132
	C496.327,422.277,431.103,487.5,350.933,487.5z"/>
<path style="fill:#FF5023;" d="M401.845,167.534c-14.257-35.314-28.14-59.83-38.568-74.029c0,0-10.449-17.258-24.595,0.876
	c-10.831,13.885-24.197,37.326-38.66,73.152c-29.133,72.167-42.237,145.53-42.237,174.574c0,51.362,41.785,93.148,93.148,93.148
	s93.148-41.785,93.148-93.148C444.082,313.062,430.978,239.699,401.845,167.534z"/>
<g>
	<circle style="fill:#FF3501;" cx="339.811" cy="289.134" r="17.683"/>
	<circle style="fill:#FF3501;" cx="385.787" cy="358.316" r="17.683"/>
	<circle style="fill:#FF3501;" cx="357.501" cy="202.992" r="17.683"/>
	<path style="fill:#FF3501;" d="M393.629,279.293c-2.06,0-4.075-0.836-5.538-2.288c-1.463-1.463-2.299-3.479-2.299-5.548
		c0-2.058,0.836-4.086,2.299-5.538c1.462-1.463,3.478-2.299,5.538-2.299c2.068,0,4.086,0.836,5.548,2.299
		c1.453,1.463,2.288,3.479,2.288,5.538c0,2.069-0.836,4.086-2.288,5.548C397.714,278.456,395.698,279.293,393.629,279.293z"/>
	<path style="fill:#FF3501;" d="M314.297,380.603c-2.06,0-4.075-0.836-5.538-2.288c-1.463-1.463-2.299-3.479-2.299-5.548
		c0-2.058,0.836-4.086,2.299-5.538c1.462-1.463,3.478-2.299,5.538-2.299c2.068,0,4.086,0.836,5.548,2.299
		c1.453,1.463,2.288,3.479,2.288,5.538c0,2.069-0.836,4.086-2.288,5.548C318.382,379.767,316.366,380.603,314.297,380.603z"/>
	<path style="fill:#FF3501;" d="M306.46,243.123c-2.06,0-4.075-0.836-5.538-2.288c-1.463-1.463-2.299-3.48-2.299-5.548
		c0-2.058,0.836-4.086,2.299-5.538c1.462-1.463,3.478-2.299,5.538-2.299c2.068,0,4.086,0.836,5.548,2.299
		c1.453,1.463,2.288,3.48,2.288,5.538c0,2.069-0.836,4.086-2.288,5.548C310.546,242.287,308.529,243.123,306.46,243.123z"/>
	<path style="fill:#FF3501;" d="M350.933,148.604c-2.059,0-4.075-0.836-5.538-2.288c-1.463-1.463-2.299-3.48-2.299-5.548
		c0-2.058,0.836-4.086,2.299-5.538c1.462-1.463,3.478-2.299,5.538-2.299c2.068,0,4.086,0.836,5.548,2.299
		c1.453,1.463,2.288,3.48,2.288,5.538c0,2.069-0.836,4.086-2.288,5.548C355.019,147.768,353.001,148.604,350.933,148.604z"/>
</g>
<g>
</g>
<g>
</g>
<g>
</g>
<g>
</g>
<g>
</g>
<g>
</g>
<g>
</g>
<g>
</g>
<g>
</g>
<g>
</g>
<g>
</g>
<g>
</g>
<g>
</g>
<g>
</g>
<g>
</g>
</svg>
