<?xml version="1.0" encoding="iso-8859-1"?>
<!-- Generator: Adobe Illustrator 19.0.0, SVG Export Plug-In . SVG Version: 6.00 Build 0)  -->
<svg version="1.1" id="Layer_1" xmlns="http://www.w3.org/2000/svg" xmlns:xlink="http://www.w3.org/1999/xlink" x="0px" y="0px"
	 viewBox="0 0 512 512" style="enable-background:new 0 0 512 512;" xml:space="preserve">
<path style="fill:#FFE477;" d="M195.343,454.669c-37.158,0-74.315,0-111.474,0c-26.743,0.001-59.076-21.784-67.628-49.366
	c-21.656-77.25-21.656-159.012,0-236.262c8.552-27.583,40.885-49.366,67.628-49.366c37.158,0,74.315,0,111.474,0
	c26.743,0,59.076,21.783,67.628,49.366c21.655,77.25,21.655,159.012,0,236.262C254.42,432.886,222.087,454.669,195.343,454.669z"/>
<g>
	<path style="fill:#004FAC;" d="M10.01,380.174c1.831,8.42,3.897,16.802,6.232,25.129c8.551,27.582,40.885,49.367,67.628,49.366
		c37.158,0,74.315,0,111.474,0c26.742,0,59.075-21.783,67.628-49.366c2.334-8.327,4.401-16.708,6.232-25.129H10.01z"/>
	<path style="fill:#004FAC;" d="M269.203,194.169c-1.831-8.42-3.897-16.802-6.232-25.129c-8.551-27.583-40.885-49.366-67.628-49.366
		c-37.158,0-74.315,0-111.474,0c-26.743,0-59.075,21.783-67.628,49.366c-2.334,8.327-4.401,16.708-6.232,25.129H269.203z"/>
</g>
<g>
	<path style="fill:#003F8A;" d="M263.158,404.613c2.256-8.1,4.265-16.25,6.046-24.439h-30.62
		C245.833,390.343,253.919,398.733,263.158,404.613z"/>
	<path style="fill:#003F8A;" d="M148.597,119.675c-11.628,0-23.255,0-34.884,0c-4.529,3.618-7.438,9.178-7.438,15.426
		c0,10.907,8.841,19.746,19.746,19.746c14.408,0,26.731,16.204,37.717,39.322h43.074
		C192.321,159.085,174.632,130.231,148.597,119.675z"/>
	<path style="fill:#003F8A;" d="M100.878,169.041c8.552-27.583,40.885-49.366,67.628-49.366c-28.212,0-56.424,0-84.637,0
		c-26.743,0-59.075,21.783-67.628,49.366c-2.334,8.327-4.401,16.708-6.232,25.129h84.637
		C96.478,185.749,98.545,177.367,100.878,169.041z"/>
	<path style="fill:#003F8A;" d="M100.878,405.303c-2.334-8.327-4.401-16.708-6.232-25.129H10.01
		c1.831,8.42,3.897,16.802,6.232,25.129c8.551,27.582,40.886,49.367,67.628,49.366c28.212,0,56.424,0,84.637,0
		C141.764,454.67,109.43,432.885,100.878,405.303z"/>
	<path style="fill:#003F8A;" d="M201.168,423.3c-1.782-3.944,0.057-8.587,4.02-10.329c4.601-2.024,9.16-5.026,12.834-8.454
		c3.167-2.953,8.125-2.778,11.077,0.386c2.952,3.165,2.779,8.123-0.386,11.076c-4.931,4.599-11.045,8.627-17.217,11.34
		C210.47,427.77,203.756,429.03,201.168,423.3z"/>
	<path style="fill:#003F8A;" d="M183.903,431.158h-37.616c-4.328,0-7.837-3.508-7.837-7.837s3.509-7.837,7.837-7.837h37.616
		c4.328,0,7.837,3.508,7.837,7.837S188.231,431.158,183.903,431.158z"/>
</g>
<g>
	<path style="fill:#FFDA44;" d="M94.647,194.169H10.01c-13.325,61.278-13.325,124.727,0,186.005h84.637
		C81.322,318.897,81.322,255.447,94.647,194.169z"/>
	<path style="fill:#FFDA44;" d="M272.993,360.565c-16.963-21.317-30.76-63.468-43.365-101.987c-7.199-22-14.476-44.235-22.809-64.41
		H163.74c10.443,21.973,19.679,50.194,28.351,76.693c13.214,40.378,26.689,81.539,46.475,109.312h30.637
		C270.621,373.661,271.878,367.122,272.993,360.565z"/>
</g>
<path style="fill:#FF3F62;" d="M3.41,341.593h272.393c4.528-36.138,4.528-72.705,0-108.844H3.41
	C-1.117,268.888-1.117,305.455,3.41,341.593z"/>
<g>
	<path style="fill:#FF0C38;" d="M192.096,270.862c7.961,24.327,16.019,48.935,25.493,70.731h43.53
		c-11.746-22.701-21.959-53.893-31.488-83.015c-2.821-8.621-5.657-17.274-8.561-25.829h-41.802
		C183.717,245.273,187.972,258.259,192.096,270.862z"/>
	<path style="fill:#FF0C38;" d="M88.047,232.75H3.41c-4.528,36.138-4.528,72.705,0,108.844h84.637
		C83.519,305.455,83.519,268.888,88.047,232.75z"/>
</g>
<path style="fill:#FFDAAA;" d="M510.704,411.894c0,23.624-19.151,42.775-42.775,42.775s-42.775-19.151-42.775-42.775
	s19.151-311.427,42.775-311.427S510.704,388.27,510.704,411.894z"/>
<path style="fill:#FFC477;" d="M458.844,411.894c0-17.643,10.682-182.626,25.931-265.036c-5.169-27.936-10.863-46.39-16.844-46.39
	c-23.624,0-42.775,287.804-42.775,311.427c0,23.624,19.151,42.775,42.775,42.775c5.982,0,11.675-1.232,16.844-3.449
	C469.526,444.68,458.844,429.536,458.844,411.894z"/>
<path style="fill:#FFDAAA;" d="M468.578,57.332c-13.189,0-23.979,10.791-23.979,23.979v48.143c0,13.189,10.791,23.979,23.979,23.979
	c13.189,0,23.979-10.791,23.979-23.979V81.311C492.557,68.122,481.767,57.332,468.578,57.332z"/>
<g>
	<path style="fill:#FFC477;" d="M468.578,129.454V81.311c0-8.827,4.838-16.575,11.99-20.738c-3.534-2.056-7.629-3.242-11.99-3.242
		c-13.189,0-23.979,10.791-23.979,23.979v48.143c0,13.189,10.791,23.979,23.979,23.979c4.361,0,8.456-1.186,11.99-3.242
		C473.416,146.029,468.578,138.282,468.578,129.454z"/>
	<path style="fill:#FFC477;" d="M490.19,121.986h-44.519c-11.996,0-21.811,9.815-21.811,21.811l0,0
		c0,11.996,9.815,21.811,21.811,21.811h44.518c11.996,0,21.811-9.815,21.811-21.811l0,0
		C512.001,131.801,502.186,121.986,490.19,121.986z"/>
</g>
<path style="fill:#FFB655;" d="M461.476,143.797c0-11.996,9.816-21.812,21.812-21.812h-37.616c-11.996,0-21.812,9.816-21.812,21.812
	s9.816,21.812,21.812,21.812h37.616C471.29,165.609,461.476,155.794,461.476,143.797z"/>
<path style="fill:#B39A7C;" d="M309.277,397.774c-56.733,0-80.561-72.812-103.603-143.225
	c-17.796-54.38-37.965-116.015-66.068-116.015c-10.907,0-19.746-8.841-19.746-19.746s8.841-19.746,19.746-19.746
	c56.733,0,80.561,72.812,103.603,143.225c17.796,54.38,37.965,116.015,66.068,116.015c28.374,0,44.795-47.25,60.673-92.947
	c9.419-27.103,19.157-55.128,32.501-76.867c17.354-28.274,39.383-42.609,65.48-42.609c10.907,0,19.746,8.841,19.746,19.746
	s-8.841,19.746-19.746,19.746c-28.374,0-44.795,47.252-60.673,92.947c-9.419,27.103-19.157,55.128-32.501,76.867
	C357.405,383.439,335.374,397.774,309.277,397.774z"/>
<g>
	<path style="fill:#A78966;" d="M438.894,204.907c8.254-11.993,17.688-19.555,29.036-19.555c10.583,0,19.195-8.33,19.698-18.787
		c-3.073,1.973-6.72,3.131-10.642,3.131C461.266,169.694,449.216,184.2,438.894,204.907z"/>
	<path style="fill:#A78966;" d="M318.333,382.116c-56.733,0-80.561-72.812-103.603-143.225
		c-17.796-54.38-37.965-116.015-66.068-116.015c-10.907,0-19.746-8.841-19.746-19.746c0-0.324,0.032-0.639,0.048-0.959
		c-5.47,3.511-9.104,9.633-9.104,16.616c0,10.907,8.841,19.746,19.746,19.746c28.103,0,48.272,61.635,66.068,116.015
		c23.043,70.414,46.87,143.225,103.603,143.225c26.096,0,48.127-14.335,65.48-42.609c2.317-3.775,4.519-7.75,6.636-11.866
		C364.428,369.056,343.233,382.116,318.333,382.116z"/>
</g>
<g>
</g>
<g>
</g>
<g>
</g>
<g>
</g>
<g>
</g>
<g>
</g>
<g>
</g>
<g>
</g>
<g>
</g>
<g>
</g>
<g>
</g>
<g>
</g>
<g>
</g>
<g>
</g>
<g>
</g>
</svg>
