<?xml version="1.0" encoding="iso-8859-1"?>
<!-- Generator: Adobe Illustrator 19.0.0, SVG Export Plug-In . SVG Version: 6.00 Build 0)  -->
<svg version="1.1" id="Layer_1" xmlns="http://www.w3.org/2000/svg" xmlns:xlink="http://www.w3.org/1999/xlink" x="0px" y="0px"
	 viewBox="0 0 512.001 512.001" style="enable-background:new 0 0 512.001 512.001;" xml:space="preserve">
<path style="fill:#FFB655;" d="M302.637,497.646c7.291,13.356,24.028,18.272,37.384,10.981
	c13.356-7.291,18.272-24.028,10.981-37.384S186.866,196.319,173.51,203.61S295.346,484.29,302.637,497.646z"/>
<path style="fill:#FFA733;" d="M326.82,484.443c-4.886-8.951-76.945-129.385-127.967-205.659
	c-17.993-41.418-29.748-72.769-25.343-75.174c13.356-7.291,170.201,254.276,177.493,267.631
	c7.291,13.356,2.374,30.093-10.981,37.384c-4.411,2.407-9.187,3.459-13.872,3.34C331.087,503.84,331.703,493.39,326.82,484.443z"/>
<ellipse transform="matrix(0.4792 0.8777 -0.8777 0.4792 316.2753 -44.5437)" style="fill:#830018;" cx="195.673" cy="244.239" rx="31.42" ry="30.927"/>
<path style="fill:#FFC477;" d="M27.008,157.648c28.201,51.658,116.964,114.683,168.622,86.482s46.649-136.948,18.449-188.606
	S121.14-15.151,69.481,13.05S-1.193,105.99,27.008,157.648z"/>
<path style="fill:#FFB655;" d="M156.323,87.053C133.626,45.476,87.261,25.068,43.095,33.381c7.487-7.917,16.305-14.826,26.386-20.33
	c51.659-28.202,116.397-9.186,144.598,42.473s33.21,160.405-18.449,188.606c-10.079,5.502-21.573,7.518-33.751,6.838
	C186.687,207.188,179.022,128.633,156.323,87.053z"/>
<path style="fill:#FF0C38;" d="M225.606,83.852c6.648,22.031,10.144,47.95,9.27,72.72c-16.928,17.951-37.563,34.043-61.367,47.037
	c-23.804,12.994-48.499,21.649-72.753,26.18c-21.308-12.66-41.219-29.62-56.155-47.125c33.087-1.797,68.06-11.481,101.3-29.627
	C179.141,134.893,206.202,110.712,225.606,83.852z"/>
<path style="fill:#D80027;" d="M172.916,136.005c21.094-15.215,38.848-32.995,52.69-52.152c6.648,22.031,10.144,47.95,9.27,72.72
	c-16.303,17.288-36.051,32.841-58.749,45.575C178.445,180.59,177.078,157.351,172.916,136.005z"/>
<path style="fill:#6DC82A;" d="M44.602,182.665c-7.126-8.353-13.123-16.828-17.594-25.018c-4.921-9.014-8.373-18.431-10.496-27.978
	c32.845-1.913,67.517-11.587,100.483-29.583s59.853-41.929,79.226-68.521c6.883,6.95,12.937,14.945,17.858,23.96
	c4.471,8.19,8.356,17.818,11.528,28.329c-19.408,26.858-46.467,51.04-79.705,69.185C112.663,171.183,77.691,180.866,44.602,182.665z
	"/>
<path style="fill:#5EAC24;" d="M156.323,87.054c-1.714-3.14-3.578-6.143-5.55-9.037c17.913-13.867,33.189-29.623,45.449-46.451
	c6.883,6.95,12.937,14.945,17.858,23.96c4.471,8.19,8.356,17.818,11.528,28.329c-13.843,19.157-31.597,36.937-52.69,52.152
	C169.304,117.47,163.59,100.364,156.323,87.054z"/>
<path style="fill:#FFC477;" d="M209.363,497.646c-7.291,13.356-24.028,18.272-37.384,10.981
	c-13.356-7.291-18.272-24.028-10.981-37.384c7.291-13.356,164.137-274.922,177.493-267.632
	C351.847,210.902,216.655,484.29,209.363,497.646z"/>
<path style="fill:#FFB655;" d="M185.18,484.443c4.886-8.951,76.945-129.385,127.967-205.659
	c17.993-41.418,29.748-72.769,25.343-75.174c-13.356-7.291-170.201,254.276-177.493,267.631
	c-7.291,13.356-2.374,30.093,10.981,37.384c4.411,2.407,9.187,3.459,13.872,3.34C180.914,503.84,180.297,493.39,185.18,484.443z"/>
<ellipse transform="matrix(0.4792 -0.8777 0.8777 0.4792 -49.6185 404.8143)" style="fill:#C70024;" cx="316.309" cy="244.218" rx="31.42" ry="30.927"/>
<path style="fill:#FFDAAA;" d="M484.993,157.648c-28.201,51.658-116.964,114.683-168.622,86.482s-46.649-136.948-18.449-188.606
	c28.201-51.658,92.94-70.675,144.598-42.474S513.194,105.99,484.993,157.648z"/>
<g>
	<path style="fill:#FFC477;" d="M355.677,87.053c22.697-41.578,69.063-61.985,113.227-53.673
		c-7.487-7.917-16.305-14.826-26.386-20.33c-51.658-28.201-116.396-9.185-144.597,42.474
		c-28.201,51.659-33.21,160.405,18.449,188.606c10.079,5.502,21.573,7.518,33.751,6.838
		C325.314,207.188,332.979,128.633,355.677,87.053z"/>
	<path style="fill:#FFC477;" d="M454.224,76.944c-3.01-7.758-7.353-14.796-12.908-20.917c-2.909-3.205-2.669-8.162,0.537-11.07
		c3.206-2.908,8.163-2.669,11.07,0.537c6.851,7.549,12.205,16.223,15.913,25.779c1.565,4.035-0.494,8.433-4.471,10.142
		C460.103,83.244,455.427,80.046,454.224,76.944z"/>
	<path style="fill:#FFC477;" d="M466.655,110.745c-0.051,0-7.595,0-7.839-7.985c-0.062-2.009-0.016-4.051-0.159-6.067
		c-0.307-4.318,2.942-8.067,7.26-8.374c4.336-0.315,8.067,2.942,8.375,7.26c0.177,2.484,0.242,5,0.196,7.478
		C474.406,107.333,470.913,110.745,466.655,110.745z"/>
</g>
<path style="fill:#FF3F62;" d="M286.394,83.852c-6.648,22.031-10.144,47.95-9.27,72.72c16.928,17.951,37.563,34.043,61.367,47.037
	c23.804,12.994,48.499,21.649,72.753,26.18c21.308-12.66,41.219-29.62,56.155-47.125c-33.087-1.797-68.06-11.481-101.3-29.627
	C332.86,134.893,305.799,110.712,286.394,83.852z"/>
<path style="fill:#FF0C38;" d="M339.084,136.005c-21.094-15.215-38.848-32.995-52.69-52.152c-6.648,22.031-10.144,47.95-9.27,72.72
	c16.302,17.288,36.051,32.841,58.749,45.575C333.556,180.59,334.922,157.351,339.084,136.005z"/>
<path style="fill:#7ED63E;" d="M467.399,182.665c7.126-8.353,13.123-16.828,17.594-25.018c4.921-9.014,8.373-18.431,10.496-27.978
	c-32.845-1.913-67.517-11.587-100.483-29.583s-59.853-41.929-79.226-68.521c-6.883,6.95-12.937,14.945-17.858,23.96
	c-4.471,8.19-8.356,17.818-11.528,28.329c19.408,26.858,46.467,51.04,79.705,69.185C399.337,171.183,434.31,180.866,467.399,182.665
	z"/>
<path style="fill:#6DC82A;" d="M355.677,87.054c1.714-3.14,3.578-6.143,5.551-9.037c-17.913-13.867-33.189-29.623-45.449-46.451
	c-6.883,6.95-12.937,14.945-17.858,23.96c-4.471,8.19-8.356,17.818-11.528,28.329c13.843,19.157,31.597,36.937,52.69,52.152
	C342.697,117.47,348.411,100.364,355.677,87.054z"/>
<g>
</g>
<g>
</g>
<g>
</g>
<g>
</g>
<g>
</g>
<g>
</g>
<g>
</g>
<g>
</g>
<g>
</g>
<g>
</g>
<g>
</g>
<g>
</g>
<g>
</g>
<g>
</g>
<g>
</g>
</svg>
