<?xml version="1.0" encoding="iso-8859-1"?>
<!-- Generator: Adobe Illustrator 19.0.0, SVG Export Plug-In . SVG Version: 6.00 Build 0)  -->
<svg version="1.1" id="Layer_1" xmlns="http://www.w3.org/2000/svg" xmlns:xlink="http://www.w3.org/1999/xlink" x="0px" y="0px"
	 viewBox="0 0 512 512" style="enable-background:new 0 0 512 512;" xml:space="preserve">
<path style="fill:#A4E276;" d="M256.066,454.861c-4.329,0-7.837-3.509-7.837-7.837v-86.379c0-4.328,3.508-7.837,7.837-7.837
	s7.837,3.509,7.837,7.837v86.379C263.902,451.352,260.395,454.861,256.066,454.861z"/>
<path style="fill:#FF3F62;" d="M216.643,441.614c-4.329,0-7.837-3.509-7.837-7.837v-86.379c0-4.328,3.508-7.837,7.837-7.837
	c4.329,0,7.837,3.509,7.837,7.837v86.379C224.479,438.105,220.972,441.614,216.643,441.614z"/>
<path style="fill:#FFE477;" d="M177.22,422.098c-4.329,0-7.837-3.509-7.837-7.837v-86.379c0-4.328,3.508-7.837,7.837-7.837
	c4.329,0,7.837,3.509,7.837,7.837v86.379C185.057,418.589,181.549,422.098,177.22,422.098z"/>
<path style="fill:#A4E276;" d="M137.797,401.538c-4.329,0-7.837-3.509-7.837-7.837v-86.379c0-4.328,3.508-7.837,7.837-7.837
	c4.329,0,7.837,3.509,7.837,7.837v86.379C145.634,398.029,142.126,401.538,137.797,401.538z"/>
<path style="fill:#FF3F62;" d="M98.373,379.932c-4.329,0-7.837-3.509-7.837-7.837v-86.379c0-4.328,3.508-7.837,7.837-7.837
	s7.837,3.509,7.837,7.837v86.379C106.21,376.424,102.702,379.932,98.373,379.932z"/>
<path style="fill:#FFE477;" d="M58.951,352.056c-4.329,0-7.837-3.509-7.837-7.837v-86.379c0-4.328,3.508-7.837,7.837-7.837
	s7.837,3.509,7.837,7.837v86.379C66.788,348.548,63.28,352.056,58.951,352.056z"/>
<path style="fill:#A4E276;" d="M19.527,316.867c-4.329,0-7.837-3.509-7.837-7.837v-86.379c0-4.328,3.508-7.837,7.837-7.837
	s7.837,3.509,7.837,7.837v86.379C27.364,313.359,23.856,316.867,19.527,316.867z"/>
<path style="fill:#FF3F62;" d="M295.424,441.451c-4.329,0-7.837-3.509-7.837-7.837v-86.379c0-4.328,3.508-7.837,7.837-7.837
	s7.837,3.509,7.837,7.837v86.379C303.261,437.942,299.753,441.451,295.424,441.451z"/>
<path style="fill:#FFE477;" d="M334.847,421.935c-4.329,0-7.837-3.509-7.837-7.837V327.72c0-4.328,3.508-7.837,7.837-7.837
	c4.329,0,7.837,3.509,7.837,7.837v86.379C342.684,418.426,339.176,421.935,334.847,421.935z"/>
<path style="fill:#A4E276;" d="M374.27,401.375c-4.329,0-7.837-3.509-7.837-7.837v-86.379c0-4.328,3.508-7.837,7.837-7.837
	s7.837,3.509,7.837,7.837v86.379C382.107,397.866,378.599,401.375,374.27,401.375z"/>
<path style="fill:#FF3F62;" d="M413.694,379.768c-4.329,0-7.837-3.509-7.837-7.837v-86.379c0-4.328,3.508-7.837,7.837-7.837
	c4.329,0,7.837,3.509,7.837,7.837v86.379C421.53,376.259,418.023,379.768,413.694,379.768z"/>
<path style="fill:#FFE477;" d="M453.116,351.894c-4.329,0-7.837-3.509-7.837-7.837v-86.379c0-4.328,3.508-7.837,7.837-7.837
	c4.329,0,7.837,3.509,7.837,7.837v86.379C460.952,348.385,457.445,351.894,453.116,351.894z"/>
<path style="fill:#A4E276;" d="M492.54,316.704c-4.329,0-7.837-3.509-7.837-7.837v-86.379c0-4.328,3.508-7.837,7.837-7.837
	c4.329,0,7.837,3.509,7.837,7.837v86.379C500.376,313.196,496.869,316.704,492.54,316.704z"/>
<path style="fill:#FF0C38;" d="M216.643,339.562c-4.329,0-7.837,3.509-7.837,7.837v65.072c5.24,1.625,10.483,3.073,15.673,4.293
	v-69.367C224.479,343.07,220.972,339.562,216.643,339.562z"/>
<path style="fill:#FFD422;" d="M177.22,320.046c-4.329,0-7.837,3.509-7.837,7.837v69.515c5.072,2.26,10.318,4.487,15.673,6.618
	v-76.132C185.057,323.555,181.549,320.046,177.22,320.046z"/>
<path style="fill:#7ED63E;" d="M137.797,299.486c-4.329,0-7.837,3.509-7.837,7.837v70.424c4.561,2.509,9.845,5.33,15.673,8.299
	v-78.724C145.634,302.994,142.126,299.486,137.797,299.486z"/>
<path style="fill:#FF0C38;" d="M98.373,277.88c-4.329,0-7.837,3.509-7.837,7.837v67.542c5.12,3.617,10.343,7.123,15.673,10.509
	v-78.051C106.21,281.388,102.702,277.88,98.373,277.88z"/>
<path style="fill:#FFD422;" d="M58.951,250.004c-4.329,0-7.837,3.509-7.837,7.837v63.306c5.074,4.755,10.302,9.375,15.673,13.857
	v-77.164C66.788,253.513,63.28,250.004,58.951,250.004z"/>
<path style="fill:#7ED63E;" d="M19.527,214.815c-4.329,0-7.837,3.509-7.837,7.837v54.888c4.656,6.126,9.865,12.534,15.673,19.128
	v-74.015C27.364,218.324,23.856,214.815,19.527,214.815z"/>
<path style="fill:#FF0C38;" d="M295.424,339.4c4.329,0,7.837,3.509,7.837,7.837v65.072c-5.24,1.625-10.483,3.073-15.673,4.293
	v-69.367C287.587,342.907,291.096,339.4,295.424,339.4z"/>
<path style="fill:#FFD422;" d="M334.847,319.883c4.329,0,7.837,3.509,7.837,7.837v69.515c-5.072,2.26-10.318,4.487-15.673,6.618
	v-76.132C327.01,323.392,330.518,319.883,334.847,319.883z"/>
<path style="fill:#7ED63E;" d="M374.27,299.323c4.329,0,7.837,3.509,7.837,7.837v70.424c-4.561,2.509-9.845,5.33-15.673,8.299
	v-78.724C366.433,302.831,369.942,299.323,374.27,299.323z"/>
<path style="fill:#FF0C38;" d="M413.694,277.717c4.329,0,7.837,3.509,7.837,7.837v67.542c-5.12,3.617-10.343,7.123-15.673,10.509
	v-78.05C405.857,281.226,409.365,277.717,413.694,277.717z"/>
<path style="fill:#FFD422;" d="M453.116,249.843c4.329,0,7.837,3.509,7.837,7.837v63.306c-5.074,4.755-10.302,9.375-15.673,13.857
	v-77.164C445.279,253.35,448.788,249.843,453.116,249.843z"/>
<g>
	<path style="fill:#7ED63E;" d="M492.54,214.652c4.329,0,7.837,3.509,7.837,7.837v54.888c-4.656,6.126-9.865,12.534-15.673,19.128
		V222.49C484.703,218.161,488.211,214.652,492.54,214.652z"/>
	<path style="fill:#7ED63E;" d="M256.001,420.89c2.582,0,5.22-0.112,7.903-0.313v-59.931c0-4.328-3.508-7.837-7.837-7.837
		c-4.329,0-7.837,3.509-7.837,7.837v59.942C250.866,420.783,253.461,420.89,256.001,420.89z"/>
</g>
<path style="fill:#FF7956;" d="M499.284,175.535l-27.763-19.239l-25.056-17.363l-8.799-1.515l-4.941-8.007l-15.598-10.809
	l-18.883-4.964L387.644,98.17l-54.769-37.955c-10.524-7.597-16.533,1.414-16.533,1.414s-21.332,33.565-60.341,33.565
	c-25.475,0-47.807-13.419-60.34-33.568c0,0-5.032-9.008-16.414-1.496l-56.064,38.852l-10.261,15.552l-17.285,3.537l-16.843,11.672
	l-3.986,10.479l-10.307-0.575l-51.785,35.886C1.473,183.324-2.95,197.817,2.027,210.559c1.475,3.774,15.482,38.014,52.824,77.491
	c21.92,23.174,47.501,43.423,76.034,60.186c35.328,20.756,89.725,46.531,125.115,46.531s89.786-25.776,125.115-46.531
	c28.532-16.763,54.114-37.012,76.034-60.186c37.341-39.477,51.349-73.717,52.824-77.491
	C514.951,197.817,510.528,183.325,499.284,175.535z"/>
<path style="fill:#FF6243;" d="M195.661,61.626c0,0-5.032-9.008-16.414-1.496l-56.084,38.866l-12.357,12.743l-15.216,6.366
	l-16.973,11.762l-5.005,7.007l-8.758,2.531l-52.136,36.131C1.474,183.325-2.949,197.818,2.028,210.56
	c1.475,3.774,15.482,38.014,52.824,77.491c2.008,2.123,4.058,4.213,6.127,6.287L223.284,87.216
	C211.941,81.313,202.388,72.442,195.661,61.626z"/>
<path style="fill:#FF0C38;" d="M457.149,237.977c17.71-21.215,33.77-46.946,42.135-62.442l-27.759-19.237
	c-7.441,14.221-21.01,40.709-38.441,61.59c-19.988,23.944-43.317,44.869-69.341,62.194c-42.651,28.395-85.95,47.474-107.743,47.474
	s-65.092-19.078-107.744-47.474c-26.023-17.325-49.353-38.251-69.34-62.194c-17.426-20.875-30.997-47.366-38.441-61.59
	l-27.759,19.237c8.365,15.496,24.426,41.227,42.134,62.442c21.92,26.259,47.501,49.204,76.034,68.199
	c35.328,23.52,89.725,52.728,125.115,52.728s89.786-29.208,125.115-52.728C409.648,287.181,435.229,264.236,457.149,237.977z"/>
<path style="fill:#D80027;" d="M78.916,217.888c-17.426-20.875-30.997-47.366-38.441-61.59l-27.759,19.237
	c8.365,15.496,24.426,41.227,42.134,62.442c8.575,10.272,17.718,20.03,27.372,29.251l19.436-24.803
	C93.672,234.648,86.076,226.466,78.916,217.888z"/>
<path style="fill:#A4E276;" d="M388.008,98.456c-5.998,7.211-12.358,13.982-19.284,20.122
	c-42.651,37.812-91.057,74.985-112.849,74.985c-21.792,0-70.197-36.128-112.849-73.94c-7.078-6.275-13.567-13.285-19.681-20.787
	L95.36,118.228c10.29,13.179,21.204,25.384,33.038,35.874c35.328,31.319,92.089,76.278,127.478,76.278s92.15-43.914,127.478-75.233
	c11.98-10.62,23.017-23.18,33.42-36.76L388.008,98.456z"/>
<path style="fill:#7ED63E;" d="M143.027,119.634c-7.078-6.275-13.567-13.286-19.681-20.787L95.36,118.24
	c10.29,13.179,21.204,25.384,33.038,35.874c7.643,6.776,16.291,14.19,25.507,21.649l22.145-28.259
	C165.024,138.697,153.84,129.221,143.027,119.634z"/>
<path style="fill:#FF0C38;" d="M332.876,60.215c-10.524-7.597-16.533,1.414-16.533,1.414s-21.333,33.565-60.342,33.565
	c-25.475,0-47.807-13.42-60.34-33.568c0,0-5.032-9.008-16.414-1.496l-14.633,10.141c16.894,33.353,51.512,56.271,91.386,56.271
	s74.493-22.918,91.386-56.271L332.876,60.215z"/>
<path style="fill:#D80027;" d="M195.661,61.626c0,0-5.032-9.008-16.414-1.496l-14.633,10.141
	c8.81,17.392,22.445,31.936,39.127,41.884l19.543-24.939l0,0C211.941,81.313,202.388,72.441,195.661,61.626z"/>
<path style="fill:#FFE477;" d="M433.101,129.669l-12.586,50.091l-46.367,20.536c-1.581,0.7-2.885,1.903-3.71,3.42l-24.175,44.437
	l-50.017,6.507c-1.521,0.197-2.951,0.838-4.113,1.841l-36.132,31.217l-36.133-31.216c-1.161-1.003-2.59-1.644-4.113-1.841
	l-50.017-6.507l-24.175-44.437c-0.825-1.518-2.13-2.721-3.71-3.42l-46.367-20.536l-12.603-50.08l-13.793,9.559l12.133,48.059
	c0.589,2.336,2.221,4.272,4.424,5.246l47.422,21.003l24.81,45.607c1.199,2.206,3.382,3.702,5.872,4.027l51.648,6.719l39.476,34.104
	c1.482,1.28,3.305,1.907,5.12,1.907c1.829,0,3.644-0.646,5.096-1.892c0.01-0.008,0.021-0.005,0.03-0.014l39.476-34.104l51.648-6.719
	c2.49-0.324,4.674-1.821,5.872-4.027l24.81-45.607l47.422-21.003c2.203-0.976,3.835-2.911,4.424-5.246l12.133-48.059
	L433.101,129.669z"/>
<path style="fill:#FFDA44;" d="M91.487,179.749l-12.603-50.08l-13.793,9.559l12.133,48.059c0.589,2.336,2.221,4.272,4.424,5.246
	l43.871,19.431l9.971-12.726L91.487,179.749z"/>
<g>
</g>
<g>
</g>
<g>
</g>
<g>
</g>
<g>
</g>
<g>
</g>
<g>
</g>
<g>
</g>
<g>
</g>
<g>
</g>
<g>
</g>
<g>
</g>
<g>
</g>
<g>
</g>
<g>
</g>
</svg>
