<?xml version="1.0" encoding="iso-8859-1"?>
<!-- Generator: Adobe Illustrator 19.0.0, SVG Export Plug-In . SVG Version: 6.00 Build 0)  -->
<svg version="1.1" id="Layer_1" xmlns="http://www.w3.org/2000/svg" xmlns:xlink="http://www.w3.org/1999/xlink" x="0px" y="0px"
	 viewBox="0 0 512 512" style="enable-background:new 0 0 512 512;" xml:space="preserve">
<path style="fill:#D1E7F8;" d="M288.885,160.279V69.71h-65.77v90.569c-31.321,6.658-55.008,34.615-55.008,67.845v245.61
	c0,21.046,17.22,38.266,38.266,38.266h99.254c21.046,0,38.266-17.22,38.266-38.266V228.124
	C343.894,194.894,320.206,166.936,288.885,160.279z"/>
<g>
	<path style="fill:#B9D8F4;" d="M210.558,473.734V228.124c0-28.714,17.693-53.479,42.708-63.978c0,0,12.299-5.003,12.299-19.284
		V69.71h-42.452v90.569c-31.321,6.658-55.008,34.615-55.008,67.845v245.61c0,21.046,17.22,38.266,38.266,38.266h42.452
		C227.778,512,210.558,494.78,210.558,473.734z"/>
	<path style="fill:#B9D8F4;" d="M321.158,436.634H190.842c-20.726,0-37.683,16.958-37.683,37.683l0,0
		c0,20.726,16.958,37.683,37.683,37.683h130.316c20.726,0,37.683-16.958,37.683-37.683l0,0
		C358.841,453.591,341.883,436.634,321.158,436.634z"/>
</g>
<path style="fill:#96C8EF;" d="M210.558,473.734v-37.1h-19.716c-20.726,0-37.683,16.958-37.683,37.683l0,0
	c0,20.726,16.958,37.683,37.683,37.683h57.982C227.778,512,210.558,494.78,210.558,473.734z"/>
<path style="fill:#FFE477;" d="M321.158,462.756h-3.387V228.124c0-23.839-19.395-43.236-43.236-43.236h-37.071
	c-23.84,0-43.236,19.396-43.236,43.236v234.632h-3.387c-6.267,0-11.561,5.294-11.561,11.561s5.294,11.561,11.561,11.561h130.316
	c6.267,0,11.561-5.293,11.561-11.561S327.424,462.756,321.158,462.756z"/>
<g>
	<path style="fill:#FFDA44;" d="M321.158,462.756h-3.387v-26.122H194.229v26.122h-3.387c-6.267,0-11.561,5.294-11.561,11.561
		s5.295,11.561,11.561,11.561h130.316c6.267,0,11.561-5.293,11.561-11.561S327.424,462.756,321.158,462.756z"/>
	<path style="fill:#FFDA44;" d="M218.465,474.318c0-5.378,3.904-9.722,8.971-10.935c0,0,5.976-0.958,5.976-10.013V228.124
		c0-31.54,41.477-43.236,41.122-43.236h-37.071c-23.84,0-43.236,19.396-43.236,43.236v234.632h-3.387
		c-6.267,0-11.561,5.294-11.561,11.561s5.296,11.561,11.562,11.561h39.184C223.76,485.878,218.465,480.584,218.465,474.318z"/>
</g>
<path style="fill:#FFCD00;" d="M218.465,474.318c0-5.378,3.904-9.722,8.971-10.936c0,0,5.976-0.958,5.976-10.013v-16.735h-39.184
	v26.122h-3.387c-6.267,0-11.561,5.294-11.561,11.561s5.295,11.561,11.561,11.561h39.184
	C223.76,485.878,218.465,480.584,218.465,474.318z"/>
<g>
	<path style="fill:#FFDA44;" d="M286.424,235.961c-4.328,0-7.837-3.508-7.837-7.837c0-2.235-1.818-4.052-4.052-4.052
		c-4.328,0-7.837-3.508-7.837-7.837c0-4.329,3.509-7.837,7.837-7.837c10.876,0,19.726,8.849,19.726,19.726
		C294.261,232.453,290.752,235.961,286.424,235.961z"/>
	<path style="fill:#FFDA44;" d="M286.424,264.242c-4.328,0-7.837-3.508-7.837-7.837v-4.963c0-4.329,3.509-7.837,7.837-7.837
		s7.837,3.508,7.837,7.837v4.963C294.261,260.733,290.752,264.242,286.424,264.242z"/>
</g>
<path style="fill:#FFFFFF;" d="M256,397.441L256,397.441c-21.551,0-39.184-17.633-39.184-39.184v-45.749
	c0-21.551,17.633-39.184,39.184-39.184l0,0c21.551,0,39.184,17.633,39.184,39.184v45.749
	C295.184,379.808,277.551,397.441,256,397.441z"/>
<g>
	<path style="fill:#3E3D42;" d="M256,405.277c-25.927,0-47.02-21.093-47.02-47.02v-45.748c0-25.927,21.093-47.02,47.02-47.02
		s47.02,21.093,47.02,47.02v45.748C303.02,384.185,281.927,405.277,256,405.277z M256,281.162
		c-17.285,0-31.347,14.062-31.347,31.347v45.748c0,17.285,14.062,31.347,31.347,31.347s31.347-14.062,31.347-31.347v-45.748
		C287.347,295.224,273.285,281.162,256,281.162z"/>
	<path style="fill:#3E3D42;" d="M272.051,312.28h-32.102c-4.328,0-7.837,3.508-7.837,7.837c0,4.329,3.509,7.837,7.837,7.837h8.214
		v31.054c0,4.329,3.509,7.837,7.837,7.837c4.328,0,7.837-3.508,7.837-7.837v-31.054h8.214c4.328,0,7.837-3.508,7.837-7.837
		C279.886,315.788,276.379,312.28,272.051,312.28z"/>
</g>
<path style="fill:#806749;" d="M274.777,58.903h-37.288c-14.154,0-25.734-11.581-25.734-25.734v-7.434
	C211.755,11.581,223.334,0,237.489,0h37.288c14.154,0,25.734,11.581,25.734,25.734v7.434
	C300.512,47.322,288.931,58.903,274.777,58.903z"/>
<path style="fill:#6A563D;" d="M256.133,33.168v-7.434C256.133,4.585,274.777,0,274.777,0h-37.288
	c-14.154,0-25.734,11.581-25.734,25.734v7.434c0,14.154,11.581,25.734,25.734,25.734h37.288
	C274.777,58.902,256.133,53.956,256.133,33.168z"/>
<path style="fill:#B9D8F4;" d="M283.504,46.637h-55.008c-9.866,0-17.938,8.072-17.938,17.938s8.072,17.938,17.938,17.938h55.008
	c9.866,0,17.938-8.072,17.938-17.938S293.37,46.637,283.504,46.637z"/>
<path style="fill:#96C8EF;" d="M243.443,64.575c0-9.866,8.072-17.938,17.938-17.938h-32.885c-9.866,0-17.938,8.072-17.938,17.938
	s8.072,17.938,17.938,17.938h32.885C251.515,82.512,243.443,74.441,243.443,64.575z"/>
<rect x="223.117" y="104.375" style="fill:#FF3F62;" width="65.77" height="55.568"/>
<rect x="223.117" y="104.375" style="fill:#6DC82A;" width="65.77" height="27.785"/>
<g>
</g>
<g>
</g>
<g>
</g>
<g>
</g>
<g>
</g>
<g>
</g>
<g>
</g>
<g>
</g>
<g>
</g>
<g>
</g>
<g>
</g>
<g>
</g>
<g>
</g>
<g>
</g>
<g>
</g>
</svg>
