<?xml version="1.0" encoding="iso-8859-1"?>
<!-- Generator: Adobe Illustrator 19.0.0, SVG Export Plug-In . SVG Version: 6.00 Build 0)  -->
<svg version="1.1" id="Layer_1" xmlns="http://www.w3.org/2000/svg" xmlns:xlink="http://www.w3.org/1999/xlink" x="0px" y="0px"
	 viewBox="0 0 512.001 512.001" style="enable-background:new 0 0 512.001 512.001;" xml:space="preserve">
<path style="fill:#6A563D;" d="M54.073,498.534H37.355c-9.195,0-16.718-7.523-16.718-16.718v-26.104
	c0-9.195,7.523-16.718,16.718-16.718h16.718c9.195,0,16.718,7.523,16.718,16.718v26.104
	C70.792,491.011,63.269,498.534,54.073,498.534z"/>
<path style="fill:#806749;" d="M474.645,498.534h-16.718c-9.195,0-16.718-7.523-16.718-16.718v-26.104
	c0-9.195,7.523-16.718,16.718-16.718h16.718c9.195,0,16.718,7.523,16.718,16.718v26.104
	C491.363,491.011,483.84,498.534,474.645,498.534z"/>
<path style="fill:#957856;" d="M282.934,13.467h-53.868C103.08,13.467,0,116.547,0,242.533v191.673
	c0,20.567,16.827,37.394,37.394,37.394h437.213c20.567,0,37.394-16.827,37.394-37.394V242.533
	C512,116.547,408.92,13.467,282.934,13.467z"/>
<g>
	<path style="fill:#806749;" d="M79.999,434.119V242.446c0-159.871,202.934-228.979,202.934-228.979h-53.868
		C103.08,13.467,0,116.547,0,242.534v191.673c0,20.567,16.827,37.394,37.393,37.394l80.001-0.088
		C96.828,471.513,79.999,454.686,79.999,434.119z"/>
	<path style="fill:#806749;" d="M417.004,108.464c-35.989-35.99-83.603-55.812-134.071-55.812c-4.329,0-7.837-3.508-7.837-7.837
		s3.508-7.837,7.837-7.837c54.654,0,106.204,21.451,145.154,60.402c3.061,3.062,3.18,8.147-0.001,11.083
		C423.967,112.267,418.535,109.994,417.004,108.464z"/>
	<path style="fill:#806749;" d="M441.602,138.534c-2.765-4.181-5.736-8.307-8.831-12.265c-2.666-3.411-2.062-8.336,1.348-11.001
		c3.41-2.662,8.335-2.061,11.001,1.348c3.347,4.283,6.561,8.747,9.555,13.269c2.388,3.609,1.506,8.642-2.211,10.861
		C447.216,143.876,443.11,140.813,441.602,138.534z"/>
</g>
<path style="fill:#3E3D42;" d="M376.163,252.661v-53.29c0-52.872-43.259-96.131-96.131-96.131h-48.065
	c-52.872,0-96.131,43.259-96.131,96.131v53.29H376.163z"/>
<path style="fill:#2D2D30;" d="M231.967,103.241c-52.872,0-96.131,43.259-96.131,96.131v53.29H192v-53.29
	c0-74.044,88.033-96.131,88.033-96.131H231.967z"/>
<g>
	<path style="fill:#6A563D;" d="M65.306,262.065h45.976c9.195,0,16.718-7.523,16.718-16.718l0,0c0-9.195-7.523-16.718-16.718-16.718
		H65.306c-9.195,0-16.718,7.523-16.718,16.718l0,0C48.588,254.542,56.111,262.065,65.306,262.065z"/>
	<path style="fill:#6A563D;" d="M65.306,345.657h45.976c9.195,0,16.718-7.523,16.718-16.718l0,0c0-9.195-7.523-16.718-16.718-16.718
		H65.306c-9.195,0-16.718,7.523-16.718,16.718l0,0C48.588,338.134,56.111,345.657,65.306,345.657z"/>
	<path style="fill:#6A563D;" d="M400.718,262.065h45.975c9.195,0,16.718-7.523,16.718-16.718l0,0
		c0-9.195-7.523-16.718-16.718-16.718h-45.975c-9.195,0-16.718,7.523-16.718,16.718l0,0
		C384,254.542,391.523,262.065,400.718,262.065z"/>
	<path style="fill:#6A563D;" d="M400.718,345.657h45.975c9.195,0,16.718-7.523,16.718-16.718l0,0
		c0-9.195-7.523-16.718-16.718-16.718h-45.975c-9.195,0-16.718,7.523-16.718,16.718l0,0
		C384,338.134,391.523,345.657,400.718,345.657z"/>
</g>
<path style="fill:#ACABB1;" d="M256,140.894L256,140.894c-11.733,0-21.334,10.529-21.334,23.4v167.012
	c0,12.87,9.601,23.4,21.334,23.4l0,0c11.733,0,21.334-10.529,21.334-23.4V164.293C277.334,151.423,267.733,140.894,256,140.894z"/>
<path style="fill:#C6C5CA;" d="M213.334,159.973L213.334,159.973c-11.733,0-21.334,10.529-21.334,23.4v167.012
	c0,12.87,9.601,23.4,21.334,23.4l0,0c11.733,0,21.334-10.529,21.334-23.4V183.374C234.666,170.504,225.067,159.973,213.334,159.973z
	"/>
<path style="fill:#ACABB1;" d="M170.666,177.089L170.666,177.089c-11.733,0-21.334,10.529-21.334,23.4v167.012
	c0,12.87,9.601,23.4,21.334,23.4l0,0c11.733,0,21.334-10.529,21.334-23.4V200.489C192,187.619,182.401,177.089,170.666,177.089z"/>
<g>
	<path style="fill:#C6C5CA;" d="M128,193.389L128,193.389c-11.733,0-21.334,10.529-21.334,23.4v167.012
		c0,12.87,9.601,23.4,21.334,23.4l0,0c11.733,0,21.334-10.529,21.334-23.4V216.789C149.334,203.919,139.733,193.389,128,193.389z"/>
	<path style="fill:#C6C5CA;" d="M298.666,159.973L298.666,159.973c11.733,0,21.334,10.529,21.334,23.4v167.012
		c0,12.87-9.601,23.4-21.334,23.4l0,0c-11.733,0-21.334-10.529-21.334-23.4V183.374
		C277.334,170.504,286.933,159.973,298.666,159.973z"/>
</g>
<path style="fill:#ACABB1;" d="M341.334,177.089L341.334,177.089c11.733,0,21.334,10.529,21.334,23.4v167.012
	c0,12.87-9.6,23.4-21.334,23.4l0,0c-11.733,0-21.334-10.529-21.334-23.4V200.489C320,187.619,329.6,177.089,341.334,177.089z"/>
<path style="fill:#C6C5CA;" d="M384,193.389L384,193.389c11.733,0,21.334,10.529,21.334,23.4v167.012c0,12.87-9.6,23.4-21.334,23.4
	l0,0c-11.733,0-21.334-10.529-21.334-23.4V216.789C362.666,203.919,372.267,193.389,384,193.389z"/>
<g>
	<path style="fill:#787680;" d="M170.666,367.502V200.489c0-8.614,4.304-16.175,10.666-20.237
		c-3.143-2.007-6.787-3.164-10.666-3.164l0,0c-11.733,0-21.334,10.529-21.334,23.4v167.012c0,12.87,9.601,23.4,21.334,23.4l0,0
		c3.88,0,7.523-1.157,10.666-3.164C174.97,383.677,170.666,376.116,170.666,367.502z"/>
	<path style="fill:#787680;" d="M256,331.305V164.293c0-8.614,4.304-16.175,10.666-20.237c-3.143-2.007-6.787-3.164-10.666-3.164
		l0,0c-11.733,0-21.334,10.529-21.334,23.4v167.012c0,12.87,9.601,23.4,21.334,23.4l0,0c3.88,0,7.523-1.157,10.666-3.164
		C260.304,347.48,256,339.92,256,331.305z"/>
	<path style="fill:#787680;" d="M341.334,367.502V200.489c0-8.614,4.304-16.175,10.666-20.237
		c-3.143-2.007-6.787-3.164-10.666-3.164l0,0c-11.733,0-21.334,10.529-21.334,23.4v167.012c0,12.87,9.6,23.4,21.334,23.4l0,0
		c3.88,0,7.523-1.157,10.666-3.164C345.638,383.677,341.334,376.116,341.334,367.502z"/>
</g>
<g>
	<path style="fill:#898890;" d="M128,383.801V216.789c0-8.614,4.304-16.175,10.666-20.237c-3.143-2.007-6.787-3.164-10.666-3.164
		l0,0c-11.733,0-21.334,10.529-21.334,23.4v167.012c0,12.87,9.601,23.4,21.334,23.4l0,0c3.88,0,7.523-1.157,10.666-3.164
		C132.304,399.976,128,392.415,128,383.801z"/>
	<path style="fill:#898890;" d="M213.334,350.386V183.374c0-8.614,4.304-16.175,10.666-20.237
		c-3.143-2.007-6.787-3.164-10.666-3.164l0,0c-11.733,0-21.334,10.529-21.334,23.4v167.012c0,12.87,9.601,23.4,21.334,23.4l0,0
		c3.88,0,7.523-1.157,10.666-3.164C217.638,366.561,213.334,359,213.334,350.386z"/>
	<path style="fill:#898890;" d="M298.666,350.386V183.374c0-8.614,4.304-16.175,10.666-20.237
		c-3.143-2.007-6.787-3.164-10.666-3.164l0,0c-11.733,0-21.334,10.529-21.334,23.4v167.012c0,12.87,9.6,23.4,21.334,23.4l0,0
		c3.88,0,7.523-1.157,10.666-3.164C302.971,366.561,298.666,359,298.666,350.386z"/>
	<path style="fill:#898890;" d="M384,383.801V216.789c0-8.614,4.304-16.175,10.666-20.237c-3.143-2.007-6.787-3.164-10.666-3.164
		l0,0c-11.733,0-21.334,10.529-21.334,23.4v167.012c0,12.87,9.6,23.4,21.334,23.4l0,0c3.88,0,7.523-1.157,10.666-3.164
		C388.304,399.976,384,392.415,384,383.801z"/>
</g>
<path style="fill:#3E3D42;" d="M415.869,312.22H96.131c-6.896,0-12.539-5.642-12.539-12.539v-25.078
	c0-6.896,5.642-12.539,12.539-12.539h319.739c6.896,0,12.539,5.642,12.539,12.539v25.078
	C428.408,306.578,422.766,312.22,415.869,312.22z"/>
<g>
	<path style="fill:#FFE477;" d="M128,294.979c-2.059,0-4.075-0.836-5.538-2.288c-1.463-1.463-2.299-3.48-2.299-5.548
		c0-2.058,0.836-4.086,2.299-5.538c1.462-1.463,3.478-2.299,5.538-2.299c2.068,0,4.086,0.836,5.548,2.299
		c1.453,1.463,2.288,3.479,2.288,5.538c0,2.069-0.836,4.086-2.288,5.548C132.086,294.143,130.068,294.979,128,294.979z"/>
	<path style="fill:#FFE477;" d="M170.666,294.979c-2.059,0-4.075-0.836-5.538-2.288c-1.463-1.463-2.299-3.48-2.299-5.548
		c0-2.058,0.836-4.086,2.299-5.538c1.462-1.463,3.478-2.299,5.538-2.299c2.068,0,4.086,0.836,5.548,2.299
		c1.453,1.463,2.288,3.479,2.288,5.538c0,2.069-0.836,4.086-2.288,5.548C174.752,294.143,172.735,294.979,170.666,294.979z"/>
	<path style="fill:#FFE477;" d="M213.334,294.979c-2.059,0-4.075-0.836-5.538-2.288c-1.463-1.463-2.299-3.48-2.299-5.548
		c0-2.058,0.836-4.086,2.299-5.538c1.462-1.463,3.478-2.299,5.538-2.299c2.068,0,4.086,0.836,5.548,2.299
		c1.453,1.463,2.288,3.479,2.288,5.538c0,2.069-0.836,4.086-2.288,5.548C217.419,294.143,215.402,294.979,213.334,294.979z"/>
	<path style="fill:#FFE477;" d="M256,294.979c-2.059,0-4.075-0.836-5.538-2.288c-1.463-1.463-2.299-3.48-2.299-5.548
		c0-2.058,0.836-4.086,2.299-5.538c1.462-1.463,3.478-2.299,5.538-2.299c2.068,0,4.086,0.836,5.548,2.299
		c1.453,1.463,2.288,3.479,2.288,5.538c0,2.069-0.836,4.086-2.288,5.548C260.086,294.143,258.068,294.979,256,294.979z"/>
	<path style="fill:#FFE477;" d="M298.666,294.979c-2.06,0-4.075-0.836-5.538-2.288c-1.463-1.463-2.299-3.48-2.299-5.548
		c0-2.058,0.836-4.086,2.299-5.538c1.462-1.463,3.478-2.299,5.538-2.299c2.068,0,4.086,0.836,5.548,2.299
		c1.453,1.463,2.288,3.479,2.288,5.538c0,2.069-0.836,4.086-2.288,5.548C302.752,294.143,300.735,294.979,298.666,294.979z"/>
	<path style="fill:#FFE477;" d="M341.334,294.979c-2.059,0-4.075-0.836-5.538-2.288c-1.463-1.463-2.299-3.48-2.299-5.548
		c0-2.058,0.836-4.086,2.299-5.538c1.462-1.463,3.478-2.299,5.538-2.299c2.068,0,4.086,0.836,5.548,2.299
		c1.453,1.463,2.288,3.479,2.288,5.538c0,2.069-0.836,4.086-2.288,5.548C345.419,294.143,343.402,294.979,341.334,294.979z"/>
	<path style="fill:#FFE477;" d="M384,294.979c-2.059,0-4.075-0.836-5.538-2.288c-1.463-1.463-2.299-3.48-2.299-5.548
		c0-2.058,0.836-4.086,2.299-5.538c1.462-1.463,3.478-2.299,5.538-2.299c2.068,0,4.086,0.836,5.548,2.299
		c1.453,1.463,2.288,3.479,2.288,5.538c0,2.069-0.836,4.086-2.288,5.548C388.086,294.143,386.069,294.979,384,294.979z"/>
</g>
<g>
</g>
<g>
</g>
<g>
</g>
<g>
</g>
<g>
</g>
<g>
</g>
<g>
</g>
<g>
</g>
<g>
</g>
<g>
</g>
<g>
</g>
<g>
</g>
<g>
</g>
<g>
</g>
<g>
</g>
</svg>
