<?xml version="1.0" encoding="iso-8859-1"?>
<!-- Generator: Adobe Illustrator 19.0.0, SVG Export Plug-In . SVG Version: 6.00 Build 0)  -->
<svg version="1.1" id="Layer_1" xmlns="http://www.w3.org/2000/svg" xmlns:xlink="http://www.w3.org/1999/xlink" x="0px" y="0px"
	 viewBox="0 0 512 512" style="enable-background:new 0 0 512 512;" xml:space="preserve">
<path style="fill:#806749;" d="M335.525,345.884c-12.469,81.364-82.764,143.682-167.615,143.682S12.764,427.247,0.294,345.884
	c-0.01-0.143-4.628-25.9,23.129-25.9h288.974C340.153,319.984,335.536,345.739,335.525,345.884z"/>
<g>
	<path style="fill:#6A563D;" d="M312.396,319.984H180.738l6.305,140.228c0.178,4.098,1.084,14.931,5.601,27.553
		c73.469-10.737,131.647-68.575,142.881-141.881C335.537,345.739,340.153,319.984,312.396,319.984z"/>
	<path style="fill:#6A563D;" d="M82.631,362.021c-2.06,0-4.075-0.836-5.538-2.288c-1.463-1.463-2.299-3.479-2.299-5.548
		c0-2.058,0.836-4.086,2.299-5.538c1.462-1.463,3.478-2.299,5.538-2.299c2.068,0,4.086,0.836,5.548,2.299
		c1.453,1.463,2.288,3.479,2.288,5.538c0,2.069-0.836,4.086-2.288,5.548C86.716,361.184,84.7,362.021,82.631,362.021z"/>
	<path style="fill:#6A563D;" d="M108.914,399.651c-2.059,0-4.075-0.836-5.538-2.288c-1.463-1.463-2.299-3.479-2.299-5.548
		c0-2.058,0.836-4.086,2.299-5.538c1.462-1.463,3.478-2.299,5.538-2.299c2.068,0,4.086,0.836,5.548,2.299
		c1.453,1.463,2.288,3.479,2.288,5.538c0,2.069-0.836,4.086-2.288,5.548C113,398.814,110.982,399.651,108.914,399.651z"/>
	<path style="fill:#6A563D;" d="M140.261,362.021c-2.059,0-4.075-0.836-5.538-2.288c-1.463-1.463-2.299-3.479-2.299-5.548
		c0-2.058,0.836-4.086,2.299-5.538c1.462-1.463,3.478-2.299,5.538-2.299c2.068,0,4.086,0.836,5.548,2.299
		c1.453,1.463,2.288,3.479,2.288,5.538c0,2.069-0.836,4.086-2.288,5.548C144.347,361.184,142.329,362.021,140.261,362.021z"/>
	<path style="fill:#6A563D;" d="M157.624,412.612c-2.059,0-4.075-0.836-5.538-2.288c-1.463-1.463-2.299-3.479-2.299-5.548
		c0-2.058,0.836-4.086,2.299-5.538c1.462-1.463,3.478-2.299,5.538-2.299c2.068,0,4.086,0.836,5.548,2.299
		c1.453,1.463,2.288,3.479,2.288,5.538c0,2.069-0.836,4.086-2.288,5.548C161.71,411.775,159.692,412.612,157.624,412.612z"/>
	<path style="fill:#6A563D;" d="M150.637,465.031c-29.097-3.462-56.168-15.415-78.289-34.568c-3.273-2.833-3.628-7.782-0.795-11.054
		c2.835-3.273,7.784-3.627,11.054-0.795c19.744,17.095,43.908,27.764,69.881,30.855c4.298,0.511,7.702,4.463,6.857,8.707
		C157.624,466.809,150.951,465.069,150.637,465.031z"/>
	<path style="fill:#6A563D;" d="M53.531,410.84c-2.449-2.738-4.489-5.872-6.548-8.907c-2.43-3.582-1.497-8.455,2.085-10.885
		c3.579-2.43,8.453-1.497,10.885,2.085c1.839,2.71,3.807,5.386,5.848,7.954c2.693,3.389,2.129,8.317-1.258,11.011
		C63.102,413.243,58.776,416.702,53.531,410.84z"/>
</g>
<path style="fill:#D1E7F8;" d="M486.773,20.91H246.236c0,0-26.632,0.349-25.168,32.892l0,0l18.172,404.136
	c0.004,0.118,1.327,33.151,31.671,33.151h191.191c30.344,0,31.666-33.034,31.671-33.151l18.17-404.136l0,0
	C513.406,21.259,486.773,20.91,486.773,20.91z"/>
<path style="fill:#B9D8F4;" d="M319.723,457.938L301.553,53.802l0,0c-1.463-32.543,25.168-32.892,25.168-32.892h-80.485
	c0,0-26.632,0.349-25.168,32.892l0,0l18.172,404.136c0.004,0.118,1.327,33.151,31.671,33.151h80.485
	C321.051,491.091,319.728,458.057,319.723,457.938z"/>
<path style="fill:#FFFFFF;" d="M455.98,56.441H277.028c0,0-20.269,0.135-19.273,22.295l16.043,356.805c0,0,0.862,20.02,17.442,20.02
	h150.528c16.58,0,17.442-20.02,17.442-20.02l16.043-356.805C476.25,56.575,455.98,56.441,455.98,56.441z"/>
<g>
	<path style="fill:#EBE5DD;" d="M339.331,435.541L323.287,78.736c-0.996-22.161,19.273-22.295,19.273-22.295h-65.533
		c0,0-20.27,0.135-19.273,22.295l16.043,356.805c0,0,0.862,20.02,17.442,20.02h65.533
		C340.193,455.56,339.331,435.541,339.331,435.541z"/>
	<circle style="fill:#EBE5DD;" cx="392.913" cy="362.016" r="18.286"/>
	<circle style="fill:#EBE5DD;" cx="411.199" cy="237.454" r="18.286"/>
	<circle style="fill:#EBE5DD;" cx="374.627" cy="125.545" r="18.286"/>
</g>
<g>
</g>
<g>
</g>
<g>
</g>
<g>
</g>
<g>
</g>
<g>
</g>
<g>
</g>
<g>
</g>
<g>
</g>
<g>
</g>
<g>
</g>
<g>
</g>
<g>
</g>
<g>
</g>
<g>
</g>
</svg>
