<?xml version="1.0" encoding="iso-8859-1"?>
<!-- Generator: Adobe Illustrator 19.0.0, SVG Export Plug-In . SVG Version: 6.00 Build 0)  -->
<svg version="1.1" id="Layer_1" xmlns="http://www.w3.org/2000/svg" xmlns:xlink="http://www.w3.org/1999/xlink" x="0px" y="0px"
	 viewBox="0 0 512 512" style="enable-background:new 0 0 512 512;" xml:space="preserve">
<path style="fill:#957856;" d="M446.772,271.941c-33.144-35.172-59.98-76.135-74.202-92.452
	c-28.546-30.851-71.987-47.07-116.57-25.898c-43.886-21.869-88.024-4.953-116.57,25.897c-14.222,16.316-41.058,57.279-74.202,92.452
	c-31.404,36.071-69.116,66.349-64.904,82.019c2.577,13.346,56.326,21.528,114.194,5.549C206.89,334.085,255.407,282.102,256,281.42
	c0.592,0.682,50.503,56.845,141.482,78.088c57.867,15.979,111.617,7.797,114.194-5.549
	C515.888,338.289,478.176,308.011,446.772,271.941z"/>
<path style="fill:#806749;" d="M139.43,179.492c-14.222,16.316-41.058,57.279-74.202,92.452
	c-31.404,36.07-69.116,66.348-64.904,82.018c2.077,10.759,37.41,18.158,81.347,12.254c0.008-0.007,0.017-0.015,0.025-0.022
	c-14.167-2.485-23.23-6.96-24.251-12.249c-4.211-15.67,33.499-45.948,64.904-82.018c33.144-35.172,59.98-76.135,74.202-92.452
	c13.076-14.131,30.051-24.744,48.293-30.597C204.743,134.716,165.556,151.257,139.43,179.492z"/>
<g>
	<path style="fill:#6A563D;" d="M153.301,238.506c26.302-26.33,47.579-33.773,60.796-35.381c12.805-1.558,20.218,2.006,20.287,2.043
		c3.822,2.033,8.567,0.581,10.598-3.241c2.032-3.821,0.581-8.566-3.241-10.598c-1.693-0.901-42.113-21.377-99.529,36.101
		c-3.058,3.062-3.248,8.228,0.006,11.082C147.431,243.086,151.77,240.038,153.301,238.506z"/>
	<path style="fill:#6A563D;" d="M100.351,312.839c-1.573-4.032,0.897-8.539,5.009-9.886c81.99-26.841,126.556-73.385,126.997-73.853
		c2.969-3.146,7.926-3.296,11.075-0.331c3.149,2.964,3.304,7.917,0.343,11.069c-1.9,2.022-47.513,49.848-133.538,78.011
		C109.427,318.113,103.27,320.327,100.351,312.839z"/>
	<path style="fill:#6A563D;" d="M358.699,238.506c-26.302-26.33-47.579-33.773-60.796-35.381
		c-12.805-1.558-20.218,2.006-20.287,2.043c-3.822,2.033-8.567,0.581-10.598-3.241c-2.032-3.821-0.581-8.566,3.241-10.598
		c1.693-0.901,42.113-21.377,99.529,36.101c3.058,3.062,3.218,8.195-0.006,11.082C364.571,243.179,360.229,240.038,358.699,238.506z
		"/>
	<path style="fill:#6A563D;" d="M401.763,317.848c-8.589-2.812-17.175-5.961-25.518-9.36c-4.008-1.633-5.934-6.206-4.302-10.214
		c1.633-4.008,6.208-5.935,10.214-4.302c8.005,3.26,16.242,6.282,24.483,8.979c4.114,1.347,6.45,5.805,5.009,9.886
		C409.252,319.63,402.573,318.113,401.763,317.848z"/>
	<path style="fill:#6A563D;" d="M353.257,298.228c-54.964-26.749-83.829-57.112-85.031-58.391
		c-2.963-3.155-2.809-8.115,0.346-11.078c3.152-2.962,8.107-2.809,11.072,0.34l0,0c0.277,0.294,28.289,29.639,80.473,55.036
		c3.891,1.894,5.616,6.637,3.616,10.476C360.315,301.171,354.361,298.765,353.257,298.228z"/>
</g>
<g>
</g>
<g>
</g>
<g>
</g>
<g>
</g>
<g>
</g>
<g>
</g>
<g>
</g>
<g>
</g>
<g>
</g>
<g>
</g>
<g>
</g>
<g>
</g>
<g>
</g>
<g>
</g>
<g>
</g>
</svg>
