<?xml version="1.0" encoding="iso-8859-1"?>
<!-- Generator: Adobe Illustrator 19.0.0, SVG Export Plug-In . SVG Version: 6.00 Build 0)  -->
<svg version="1.1" id="Layer_1" xmlns="http://www.w3.org/2000/svg" xmlns:xlink="http://www.w3.org/1999/xlink" x="0px" y="0px"
	 viewBox="0 0 512 512" style="enable-background:new 0 0 512 512;" xml:space="preserve">
<path style="fill:#B9D8F4;" d="M39.114,410.094l24.648,36.14c2.222,3.258,5.91,5.207,9.853,5.207h364.768
	c3.943,0,7.631-1.949,9.853-5.207l24.648-36.14l-148.081-86.195c-41.658-24.248-93.095-24.399-134.895-0.396L39.114,410.094z"/>
<path style="fill:#FF9811;" d="M351.743,280.604l97.062-39.248c3.95-1.598,8.453-0.965,11.811,1.656
	c3.358,2.622,5.064,6.837,4.471,11.057l-14.639,104.387c-0.591,4.219-3.39,7.803-7.34,9.401c-3.95,1.598-8.453,0.965-11.812-1.656
	l-83.082-64.871c-0.005-0.005-0.01-0.009-0.019-0.015c-5.192-4.054-6.115-11.549-2.061-16.741
	C347.633,282.656,349.597,281.321,351.743,280.604z"/>
<path style="fill:#FFC477;" d="M392.762,404.081l9.024-104.307c0.367-4.244,2.972-7.973,6.832-9.777
	c3.86-1.805,8.389-1.413,11.883,1.028l86.405,60.376c3.492,2.441,5.418,6.559,5.051,10.804c-0.367,4.245-2.972,7.973-6.832,9.777
	l-95.489,44.64c-0.006,0.002-0.013,0.005-0.021,0.009c-5.967,2.79-13.066,0.214-15.855-5.753
	C392.727,408.675,392.429,406.319,392.762,404.081z"/>
<path style="fill:#FF9811;" d="M160.255,280.604l-97.062-39.248c-3.95-1.598-8.453-0.965-11.812,1.656
	c-3.358,2.622-5.064,6.837-4.471,11.057L61.55,358.456c0.591,4.219,3.39,7.803,7.34,9.401c3.95,1.598,8.453,0.965,11.812-1.656
	l83.082-64.871c0.005-0.005,0.01-0.009,0.019-0.015c5.192-4.054,6.115-11.549,2.061-16.741
	C164.366,282.656,162.402,281.321,160.255,280.604z"/>
<path style="fill:#FFC477;" d="M119.237,404.081l-9.024-104.307c-0.367-4.244-2.972-7.973-6.832-9.777
	c-3.86-1.805-8.389-1.413-11.883,1.028L5.095,351.4c-3.492,2.441-5.418,6.559-5.051,10.804c0.367,4.245,2.972,7.973,6.832,9.777
	l95.489,44.64c0.006,0.002,0.013,0.005,0.021,0.009c5.967,2.79,13.066,0.214,15.855-5.753
	C119.271,408.675,119.57,406.319,119.237,404.081z"/>
<g>
	<path style="fill:#FFB655;" d="M102.386,416.632c5.967,2.79,13.066,0.214,15.855-5.753c1.03-2.204,1.329-4.56,0.996-6.797
		l-9.024-104.307c-0.323-3.728-2.373-7.055-5.482-9.033l-41.566,71.993c-5.941,10.288-7.282,22.495-4.066,33.662l43.264,20.225
		C102.371,416.624,102.378,416.627,102.386,416.632z"/>
	<path style="fill:#FFB655;" d="M409.613,416.632c-5.967,2.79-13.066,0.214-15.855-5.753c-1.03-2.204-1.329-4.56-0.996-6.797
		l9.024-104.307c0.323-3.728,2.373-7.055,5.482-9.033l41.566,71.993c5.941,10.288,7.282,22.495,4.066,33.662l-43.264,20.225
		C409.628,416.624,409.621,416.627,409.613,416.632z"/>
</g>
<path style="fill:#FFC477;" d="M443.766,126.399l-83.315-63.404c-3.391-2.58-7.902-3.156-11.831-1.51s-6.684,5.264-7.223,9.491
	l-13.343,104.561c-0.539,4.227,1.217,8.42,4.608,11.001c3.391,2.58,7.902,3.156,11.831,1.51l97.224-40.725
	c0.006-0.003,0.013-0.006,0.022-0.009c6.076-2.545,8.938-9.534,6.393-15.609C447.191,129.462,445.646,127.656,443.766,126.399z"/>
<path style="fill:#FFDAAA;" d="M458.373,173.995l-52.348-90.67c-2.131-3.69-6.069-5.963-10.329-5.963
	c-4.261,0-8.198,2.273-10.329,5.963l-52.705,91.286c-2.131,3.69-2.131,8.237,0,11.928c2.131,3.69,6.069,5.963,10.329,5.963H448.4
	c0.007-0.001,0.014-0.001,0.023,0c6.588,0,11.928-5.339,11.928-11.927C460.349,178.143,459.623,175.881,458.373,173.995z"/>
<path style="fill:#FFB655;" d="M337.16,104.915c-0.024-0.046-0.052-0.091-0.076-0.137l-9.03,70.758
	c-0.539,4.227,1.217,8.42,4.608,11.001c3.391,2.58,7.902,3.156,11.831,1.51l54.828-22.967
	C394.763,133.408,369.149,108.446,337.16,104.915z"/>
<path style="fill:#FFC477;" d="M399.81,169.25c-1.9-22.716-14.594-42.403-32.914-53.932l-34.233,59.293
	c-2.131,3.69-2.131,8.237,0,11.928c2.131,3.69,6.069,5.963,10.329,5.963h74.977C413.568,183.622,407.402,175.68,399.81,169.25z"/>
<path style="fill:#A4E276;" d="M386.478,248.345c4.825-6.719,7.676-14.951,7.676-23.854c0-17.702-11.233-32.777-26.958-38.494
	c0.979-3.435,1.514-7.055,1.514-10.803c0-21.737-17.622-39.359-39.359-39.359c-4.807,0-9.409,0.864-13.667,2.441
	c-4.552-28.867-29.536-50.945-59.684-50.945s-55.131,22.078-59.684,50.945c-4.258-1.577-8.862-2.441-13.667-2.441
	c-21.737,0-39.359,17.621-39.359,39.359c0,3.748,0.535,7.37,1.514,10.803c-15.726,5.717-26.958,20.793-26.958,38.494
	c0,8.903,2.85,17.135,7.676,23.854H386.478z"/>
<path style="fill:#91DC5A;" d="M255.999,87.33c-30.146,0-55.131,22.077-59.684,50.944c-4.258-1.577-8.861-2.441-13.668-2.441
	c-21.737,0-39.359,17.622-39.359,39.359c0,3.748,0.535,7.37,1.514,10.803c-15.726,5.717-26.958,20.793-26.958,38.495
	c0,8.904,2.85,17.135,7.675,23.854h58.201c-4.825-6.719-7.676-14.95-7.676-23.854c0-14.713,7.764-27.606,19.413-34.825l-0.004-0.001
	c5.901-3.263,6.018-6.416,6.034-14.472c0.047-21.737,17.637-40.169,39.359-39.359c14.106,0.526,15.59-5.86,15.59-5.86l0.021,0.011
	c4.647-15.106,15.035-27.694,28.641-35.188C276.467,90.043,266.552,87.33,255.999,87.33z"/>
<g>
	<path style="fill:#FF3F62;" d="M179.747,204.406c-2.059,0-4.075-0.836-5.538-2.288c-1.463-1.463-2.299-3.48-2.299-5.548
		c0-2.058,0.836-4.086,2.299-5.538c1.462-1.463,3.478-2.299,5.538-2.299c2.068,0,4.086,0.836,5.548,2.299
		c1.453,1.463,2.288,3.48,2.288,5.538c0,2.069-0.836,4.086-2.288,5.548C183.833,203.569,181.815,204.406,179.747,204.406z"/>
	<path style="fill:#FF3F62;" d="M271.698,150.605c-2.059,0-4.075-0.836-5.538-2.288c-1.463-1.463-2.299-3.48-2.299-5.548
		c0-2.058,0.836-4.086,2.299-5.538c1.462-1.463,3.478-2.299,5.538-2.299c2.068,0,4.086,0.836,5.548,2.299
		c1.453,1.463,2.288,3.48,2.288,5.538c0,2.069-0.836,4.086-2.288,5.548C275.784,149.768,273.766,150.605,271.698,150.605z"/>
	<path style="fill:#FF3F62;" d="M335.794,208.175c-2.06,0-4.075-0.836-5.538-2.288c-1.463-1.463-2.299-3.48-2.299-5.548
		c0-2.058,0.836-4.086,2.299-5.538c1.462-1.463,3.478-2.299,5.538-2.299c2.068,0,4.086,0.836,5.548,2.299
		c1.453,1.463,2.288,3.48,2.288,5.538c0,2.069-0.836,4.086-2.288,5.548C339.881,207.339,337.863,208.175,335.794,208.175z"/>
</g>
<g>
	<path style="fill:#FFFFFF;" d="M258.507,207.022c-2.06,0-4.075-0.836-5.538-2.288c-1.463-1.463-2.299-3.48-2.299-5.548
		c0-2.058,0.836-4.086,2.299-5.538c1.462-1.463,3.478-2.299,5.538-2.299c2.068,0,4.086,0.836,5.548,2.299
		c1.453,1.463,2.288,3.48,2.288,5.538c0,2.069-0.836,4.086-2.288,5.548C262.593,206.185,260.575,207.022,258.507,207.022z"/>
	<path style="fill:#FFFFFF;" d="M314.2,175.674c-2.059,0-4.075-0.836-5.538-2.288c-1.463-1.463-2.299-3.48-2.299-5.548
		c0-2.058,0.836-4.086,2.299-5.538c1.462-1.463,3.478-2.299,5.538-2.299c2.068,0,4.086,0.836,5.548,2.299
		c1.453,1.463,2.288,3.48,2.288,5.538c0,2.069-0.836,4.086-2.288,5.548C318.286,174.837,316.268,175.674,314.2,175.674z"/>
	<path style="fill:#FFFFFF;" d="M222.945,175.674c-2.059,0-4.075-0.836-5.538-2.288c-1.463-1.463-2.299-3.48-2.299-5.548
		c0-2.058,0.836-4.086,2.299-5.538c1.462-1.463,3.478-2.299,5.538-2.299c2.068,0,4.086,0.836,5.548,2.299
		c1.453,1.463,2.288,3.48,2.288,5.538c0,2.069-0.836,4.086-2.288,5.548C227.032,174.837,225.014,175.674,222.945,175.674z"/>
</g>
<path style="fill:#A78966;" d="M255.999,412.341c72.788,0,131.793-59.005,131.793-131.793H124.206
	C124.206,353.335,183.212,412.341,255.999,412.341z"/>
<path style="fill:#957856;" d="M190.243,280.548h-66.038c0,72.788,59.005,131.793,131.793,131.793
	c11.403,0,22.466-1.449,33.019-4.171C232.21,393.515,190.243,341.932,190.243,280.548z"/>
<path style="fill:#806749;" d="M392.014,234.125H119.985c-16.047,0-29.175,13.129-29.175,29.175l0,0
	c0,16.047,13.129,29.175,29.175,29.175h272.029c16.046,0,29.175-13.129,29.175-29.175l0,0
	C421.188,247.253,408.059,234.125,392.014,234.125z"/>
<path style="fill:#6A563D;" d="M170.605,263.3L170.605,263.3c0-16.046,13.129-29.175,29.175-29.175h-79.795
	c-16.047,0-29.175,13.128-29.175,29.175l0,0c0,16.046,13.129,29.175,29.175,29.175h79.795
	C183.734,292.474,170.605,279.346,170.605,263.3z"/>
<g>
	<path style="fill:#96C8EF;" d="M143.557,446.234l-24.648-36.14H39.114l24.648,36.14c2.222,3.258,5.91,5.207,9.853,5.207h79.796
		C149.467,451.441,145.779,449.491,143.557,446.234z"/>
	<path style="fill:#96C8EF;" d="M483.469,428.382H28.53c-7.729,0-14.053-6.324-14.053-14.053v-3.976
		c0-7.729,6.324-14.053,14.053-14.053h454.937c7.729,0,14.053,6.324,14.053,14.053v3.976
		C497.521,422.058,491.198,428.382,483.469,428.382z"/>
</g>
<path style="fill:#78B9EB;" d="M122.118,414.329v-3.976c0-7.729,6.324-14.053,14.053-14.053H28.53
	c-7.729,0-14.053,6.324-14.053,14.053v3.976c0,7.729,6.324,14.053,14.053,14.053h107.64
	C128.441,428.382,122.118,422.058,122.118,414.329z"/>
<g>
	<path style="fill:#FFDAAA;" d="M216.023,377.793l-52.348-90.67c-2.131-3.69-6.069-5.963-10.329-5.963
		c-4.261,0-8.198,2.273-10.329,5.963L90.312,378.41c-2.131,3.69-2.131,8.237,0,11.928c2.131,3.69,6.069,5.963,10.329,5.963h105.408
		c0.007-0.001,0.014-0.001,0.023,0c6.588,0,11.928-5.339,11.928-11.926C217.999,381.941,217.272,379.68,216.023,377.793z"/>
	<path style="fill:#FFDAAA;" d="M295.976,377.793l52.348-90.67c2.131-3.69,6.069-5.963,10.329-5.963s8.198,2.273,10.329,5.963
		l52.705,91.286c2.131,3.69,2.131,8.237,0,11.928c-2.131,3.69-6.069,5.963-10.329,5.963H305.95c-0.007-0.001-0.014-0.001-0.023,0
		c-6.588,0-11.926-5.339-11.926-11.926C294,381.941,294.726,379.68,295.976,377.793z"/>
</g>
<g>
	<path style="fill:#FFC477;" d="M136.469,376.789c-2.059,0-4.075-0.836-5.538-2.288c-1.463-1.463-2.299-3.479-2.299-5.548
		c0-2.058,0.836-4.086,2.299-5.538c1.462-1.463,3.478-2.299,5.538-2.299c2.068,0,4.086,0.836,5.548,2.299
		c1.453,1.463,2.288,3.48,2.288,5.538c0,2.069-0.836,4.086-2.288,5.548C140.555,375.953,138.537,376.789,136.469,376.789z"/>
	<path style="fill:#FFC477;" d="M153.356,346.566c-2.059,0-4.075-0.836-5.538-2.288c-1.463-1.463-2.299-3.48-2.299-5.548
		c0-2.058,0.836-4.086,2.299-5.538c1.462-1.463,3.478-2.299,5.538-2.299c2.068,0,4.086,0.836,5.548,2.299
		c1.453,1.463,2.288,3.479,2.288,5.538c0,2.069-0.836,4.086-2.288,5.548C157.442,345.731,155.425,346.566,153.356,346.566z"/>
	<path style="fill:#FFC477;" d="M171.91,376.563c-2.059,0-4.075-0.836-5.538-2.288c-1.463-1.463-2.299-3.479-2.299-5.548
		c0-2.058,0.836-4.086,2.299-5.538c1.462-1.463,3.478-2.299,5.538-2.299c2.068,0,4.086,0.836,5.548,2.299
		c1.453,1.463,2.288,3.479,2.288,5.538c0,2.069-0.836,4.086-2.288,5.548C175.996,375.727,173.978,376.563,171.91,376.563z"/>
	<path style="fill:#FFC477;" d="M351.468,357.495c-2.06,0-4.075-0.836-5.538-2.288c-1.463-1.463-2.299-3.479-2.299-5.548
		c0-2.058,0.836-4.086,2.299-5.538c1.462-1.463,3.478-2.299,5.538-2.299c2.068,0,4.086,0.836,5.548,2.299
		c1.453,1.463,2.288,3.48,2.288,5.538c0,2.069-0.836,4.086-2.288,5.548C355.554,356.658,353.536,357.495,351.468,357.495z"/>
	<path style="fill:#FFC477;" d="M374.516,373.169c-2.06,0-4.075-0.836-5.538-2.288c-1.463-1.463-2.299-3.479-2.299-5.548
		c0-2.058,0.836-4.086,2.299-5.538c1.462-1.463,3.478-2.299,5.538-2.299c2.068,0,4.086,0.836,5.548,2.299
		c1.453,1.463,2.288,3.479,2.288,5.538c0,2.069-0.836,4.086-2.288,5.548C378.602,372.332,376.585,373.169,374.516,373.169z"/>
</g>
<g>
</g>
<g>
</g>
<g>
</g>
<g>
</g>
<g>
</g>
<g>
</g>
<g>
</g>
<g>
</g>
<g>
</g>
<g>
</g>
<g>
</g>
<g>
</g>
<g>
</g>
<g>
</g>
<g>
</g>
</svg>
