<?xml version="1.0" encoding="iso-8859-1"?>
<!-- Generator: Adobe Illustrator 19.0.0, SVG Export Plug-In . SVG Version: 6.00 Build 0)  -->
<svg version="1.1" id="Layer_1" xmlns="http://www.w3.org/2000/svg" xmlns:xlink="http://www.w3.org/1999/xlink" x="0px" y="0px"
	 viewBox="0 0 512 512" style="enable-background:new 0 0 512 512;" xml:space="preserve">
<path style="fill:#F5F6F7;" d="M485.878,424.024c-153.252,32.883-306.503-46.346-459.755-13.464C11.755,413.613,0,405.55,0,391.171
	c0-90.113,0-180.226,0-270.34c0-14.355,11.755-29.8,26.122-32.855c153.252-32.883,306.503,46.346,459.755,13.464
	c14.367-3.053,26.122,5.01,26.122,19.39c0,90.113,0,180.226,0,270.34C512,405.524,500.245,420.972,485.878,424.024z"/>
<path style="fill:#FF3F62;" d="M485.878,101.44c-48.178,10.337-96.355,9.592-144.533,4.735v322.585
	c48.178,4.856,96.355,5.602,144.533-4.736c14.367-3.053,26.122-18.5,26.122-32.855c0-90.113,0-180.226,0-270.34
	C512,106.45,500.245,98.387,485.878,101.44z"/>
<path style="fill:#5EAC24;" d="M170.671,83.242c-48.183-4.858-96.366-5.605-144.548,4.734C11.755,91.03,0,106.477,0,120.831
	c0,90.113,0,180.226,0,270.34c0,14.38,11.755,22.443,26.122,19.39c48.182-10.338,96.365-9.591,144.548-4.734V83.242z"/>
<path style="fill:#47821C;" d="M63.739,120.826c0-14.355,11.755-29.8,26.122-32.855c17.128-3.675,34.255-5.941,51.383-7.129
	c-38.374-2.304-76.748-1.1-115.122,7.134C11.755,91.029,0,106.476,0,120.829c0,90.113,0,180.226,0,270.34
	c0,14.38,11.755,22.443,26.122,19.39c13.972-2.998,27.945-5.055,41.917-6.359c-2.714-3.337-4.301-7.758-4.301-13.035
	C63.739,301.052,63.739,210.939,63.739,120.826z"/>
<path style="fill:#D1E7F8;" d="M341.337,360.841c-56.888-5.734-113.778-17.198-170.666-22.932v67.918
	c56.888,5.735,113.778,17.198,170.666,22.933V360.841z"/>
<path style="fill:#47821C;" d="M26.122,342.642C11.755,345.695,0,337.632,0,323.252c0,22.64,0,45.279,0,67.918
	c0,14.38,11.755,22.443,26.122,19.39c48.182-10.338,96.365-9.591,144.548-4.734v-67.918
	C122.487,333.051,74.305,332.304,26.122,342.642z"/>
<path style="fill:#FFE477;" d="M256.003,315.742c-26.531,0-50.985-14.48-63.819-37.791c-2.088-3.791-0.705-8.557,3.086-10.644
	c3.792-2.09,8.558-0.706,10.644,3.086c10.079,18.306,29.272,29.676,50.089,29.676c20.569,0,39.65-11.171,49.798-29.154
	c2.126-3.769,6.906-5.1,10.677-2.974c3.769,2.127,5.1,6.907,2.974,10.677C306.529,301.517,282.218,315.742,256.003,315.742z"/>
<circle style="fill:#AA6100;" cx="256" cy="242.939" r="38.839"/>
<path style="fill:#FF0C38;" d="M485.878,424.025c14.367-3.053,26.122-18.5,26.122-32.855c0-22.64,0-45.279,0-67.918
	c0,14.355-11.755,29.802-26.122,32.855c-48.185,10.339-96.372,9.591-144.557,4.733v67.918
	C389.506,433.617,437.692,434.365,485.878,424.025z"/>
<g>
</g>
<g>
</g>
<g>
</g>
<g>
</g>
<g>
</g>
<g>
</g>
<g>
</g>
<g>
</g>
<g>
</g>
<g>
</g>
<g>
</g>
<g>
</g>
<g>
</g>
<g>
</g>
<g>
</g>
</svg>
