<?xml version="1.0" encoding="iso-8859-1"?>
<!-- Generator: Adobe Illustrator 19.0.0, SVG Export Plug-In . SVG Version: 6.00 Build 0)  -->
<svg version="1.1" id="Layer_1" xmlns="http://www.w3.org/2000/svg" xmlns:xlink="http://www.w3.org/1999/xlink" x="0px" y="0px"
	 viewBox="0 0 512 512" style="enable-background:new 0 0 512 512;" xml:space="preserve">
<path style="fill:#2D2D30;" d="M346.048,270.072c-6.081-11.409-9.539-24.43-9.539-38.261c0-17.161,5.319-33.075,14.379-46.206
	c-10.41-10.264-16.869-24.525-16.869-40.3c0-31.258,25.34-56.599,56.599-56.599s61.562,24.287,55.684,66.692
	c31.037,11.506,53.159,41.374,53.159,76.413c0,12.196-2.698,23.755-7.5,34.142C504.276,277.274,512,293.513,512,311.56
	c0,34.209-27.732,61.94-61.94,61.94c-11.619,0-22.486-3.206-31.777-8.772c-11.192,13.309-27.958,21.774-46.709,21.774
	c-33.697,0-61.014-27.317-61.014-61.014C310.559,300.906,325.103,279.736,346.048,270.072z"/>
<path style="fill:#1D1D1F;" d="M421.801,189.978c0-38.063-12.9-73.164-34.547-101.177c-29.692,1.742-53.234,26.363-53.234,56.49
	c0,15.775,6.458,30.036,16.869,40.3c-9.061,13.132-14.379,29.045-14.379,46.206c0,13.831,3.458,26.852,9.539,38.261
	c-20.945,9.664-35.489,30.835-35.489,55.416c0,22.948,12.675,42.926,31.399,53.344c41.798-27.872,69.393-75.44,69.393-129.337
	v-17.365C421.991,218.361,421.801,189.978,421.801,189.978z"/>
<path style="fill:#3E3D42;" d="M165.952,270.072c6.081-11.409,9.539-24.43,9.539-38.261c0-17.161-5.319-33.075-14.379-46.206
	c10.41-10.264,16.869-24.525,16.869-40.3c0-31.258-25.34-56.599-56.599-56.599s-62.345,27.422-55.683,66.693
	c-31.038,11.505-53.16,41.373-53.16,76.412c0,12.196,2.698,23.755,7.5,34.142C7.724,277.274,0,293.513,0,311.56
	c0,34.209,27.732,61.94,61.941,61.94c11.619,0,22.486-3.206,31.777-8.772c11.192,13.309,27.958,21.774,46.709,21.774
	c33.697,0,61.014-27.317,61.014-61.014C201.441,300.906,186.897,279.736,165.952,270.072z"/>
<path style="fill:#2D2D30;" d="M201.441,325.474c0-24.58-14.544-45.752-35.489-55.416c6.081-11.409,9.539-24.429,9.539-38.261
	c0-17.161-5.319-33.074-14.379-46.206c10.41-10.264,16.869-24.525,16.869-40.3c0-30.131-23.548-54.754-53.243-56.491
	c-21.646,28.014-34.539,63.117-34.539,101.178c0,0-2.95,31.255,10.449,44.089v15.413c0,53.898,27.595,101.466,69.393,129.337
	C188.766,368.401,201.441,348.422,201.441,325.474z"/>
<g>
	<path style="fill:#1D1D1F;" d="M458.273,219.014c-3.313-10.342-10.657-19.236-20.148-24.4c-3.802-2.068-5.207-6.827-3.138-10.629
		c2.069-3.801,6.828-5.205,10.629-3.139c13.189,7.175,22.986,19.033,27.583,33.386c1.321,4.121-0.953,8.526-5.072,9.854
		C463.76,225.493,459.34,222.341,458.273,219.014z"/>
	<path style="fill:#1D1D1F;" d="M466.115,253.707c-6.36-0.698-8.742-5.891-7.523-10.044c0.544-1.858,0.963-3.775,1.243-5.701
		c0.624-4.284,4.599-7.244,8.885-6.626c4.283,0.625,7.249,4.602,6.626,8.885c-0.387,2.65-0.962,5.292-1.714,7.852
		C472.63,251.491,469.505,253.707,466.115,253.707z"/>
</g>
<path style="fill:#FFA733;" d="M395.17,375.94c-20.689-33.985-60.95-68.404-139.17-68.404c-77.249,0-117.573,33.575-138.584,67.15
	c-10.869,17.369,66.102,56.274,143.174,55.945C332.502,430.322,404.908,391.936,395.17,375.94z"/>
<path style="fill:#FF9811;" d="M94.705,441.835c-0.041,0.513-2.504,32.643,26.997,32.638h58.052
	c-29.501,0.004-27.039-32.125-26.997-32.638c0,0,5.939-116.927,132.267-132.563c-9.048-1.12-18.695-1.738-29.025-1.738
	C101.502,307.534,94.705,441.835,94.705,441.835z"/>
<path style="fill:#C2DFF6;" d="M393.638,373.5c-142.961,110.315-273.092,2.036-275.479,0.031
	c-21.703,33.955-23.454,68.304-23.454,68.304c-0.041,0.513-2.504,32.643,26.997,32.638h268.21
	c29.738,0.004,26.995-32.662,26.995-32.662S415.254,407.456,393.638,373.5z"/>
<path style="fill:#96C8EF;" d="M121.702,474.473h58.052c-29.501,0.004-27.039-32.125-26.997-32.638c0,0,0.929-18.171,9.784-41.141
	c-27.119-12.791-43.549-26.463-44.383-27.163c-0.001,0.001-0.002,0.003-0.003,0.004c-21.699,33.954-23.451,68.3-23.451,68.3
	C94.664,442.349,92.202,474.478,121.702,474.473z"/>
<circle style="fill:#FF9811;" cx="127.697" cy="264.474" r="37.689"/>
<circle style="fill:#FFA733;" cx="384.303" cy="264.474" r="37.689"/>
<g>
	<path style="fill:#EE8700;" d="M127.699,226.783c-8.138,0-15.666,2.588-21.826,6.973v15.74c0,17.639,3.068,34.574,8.681,50.309
		c4.094,1.523,8.521,2.36,13.146,2.36c20.815,0,37.691-16.875,37.691-37.691C165.39,243.658,148.514,226.783,127.699,226.783z"/>
	<path style="fill:#EE8700;" d="M384.301,226.783c8.138,0,15.666,2.588,21.826,6.973v15.74c0,17.639-3.068,34.574-8.681,50.309
		c-4.094,1.523-8.521,2.36-13.146,2.36c-20.815,0-37.69-16.875-37.69-37.691C346.61,243.658,363.486,226.783,384.301,226.783z"/>
</g>
<circle style="fill:#FFE477;" cx="116.652" cy="315.099" r="20.55"/>
<g>
	<path style="fill:#FFDA44;" d="M116.654,351.189c-2.059,0-4.075-0.836-5.538-2.288c-1.463-1.463-2.299-3.48-2.299-5.548
		c0-2.058,0.836-4.086,2.299-5.538c1.462-1.463,3.478-2.299,5.538-2.299c2.068,0,4.086,0.836,5.548,2.299
		c1.453,1.463,2.288,3.479,2.288,5.538c0,2.069-0.836,4.086-2.288,5.548C120.74,350.353,118.723,351.189,116.654,351.189z"/>
	<path style="fill:#FFDA44;" d="M103.593,347.009c-2.059,0-4.075-0.836-5.538-2.288c-1.463-1.463-2.299-3.479-2.299-5.548
		c0-2.058,0.836-4.086,2.299-5.538c1.462-1.463,3.478-2.299,5.538-2.299c2.068,0,4.086,0.836,5.548,2.299
		c1.453,1.463,2.288,3.479,2.288,5.538c0,2.069-0.836,4.086-2.288,5.548C107.679,346.174,105.662,347.009,103.593,347.009z"/>
	<path style="fill:#FFDA44;" d="M129.716,347.009c-2.059,0-4.075-0.836-5.538-2.288c-1.463-1.463-2.299-3.479-2.299-5.548
		c0-2.058,0.836-4.086,2.299-5.538c1.462-1.463,3.478-2.299,5.538-2.299c2.068,0,4.086,0.836,5.548,2.299
		c1.453,1.463,2.288,3.479,2.288,5.538c0,2.069-0.836,4.086-2.288,5.548C133.801,346.174,131.785,347.009,129.716,347.009z"/>
</g>
<circle style="fill:#FFE477;" cx="395.348" cy="315.099" r="20.55"/>
<g>
	<path style="fill:#FFDA44;" d="M395.345,351.189c-2.06,0-4.075-0.836-5.538-2.288c-1.463-1.463-2.299-3.48-2.299-5.548
		c0-2.058,0.836-4.086,2.299-5.538c1.462-1.463,3.478-2.299,5.538-2.299c2.068,0,4.086,0.836,5.548,2.299
		c1.453,1.463,2.288,3.479,2.288,5.538c0,2.069-0.836,4.086-2.288,5.548C399.431,350.353,397.413,351.189,395.345,351.189z"/>
	<path style="fill:#FFDA44;" d="M382.284,347.009c-2.06,0-4.075-0.836-5.538-2.288c-1.463-1.463-2.299-3.479-2.299-5.548
		c0-2.058,0.836-4.086,2.299-5.538c1.462-1.463,3.478-2.299,5.538-2.299c2.068,0,4.086,0.836,5.548,2.299
		c1.453,1.463,2.288,3.479,2.288,5.538c0,2.069-0.836,4.086-2.288,5.548C386.37,346.174,384.352,347.009,382.284,347.009z"/>
	<path style="fill:#FFDA44;" d="M408.407,347.009c-2.06,0-4.075-0.836-5.538-2.288c-1.463-1.463-2.299-3.479-2.299-5.548
		c0-2.058,0.836-4.086,2.299-5.538c1.462-1.463,3.478-2.299,5.538-2.299c2.068,0,4.086,0.836,5.548,2.299
		c1.453,1.463,2.288,3.479,2.288,5.538c0,2.069-0.836,4.086-2.288,5.548C412.492,346.174,410.475,347.009,408.407,347.009z"/>
</g>
<path style="fill:#FFC477;" d="M256,65.986L256,65.986c-68.203,0-124.005,55.802-124.005,124.005v59.504
	c0,68.203,55.802,124.005,124.005,124.005l0,0c68.203,0,124.005-55.802,124.005-124.005v-59.504
	C380.005,121.789,324.203,65.986,256,65.986z"/>
<path style="fill:#FFB655;" d="M180.713,247.536v-59.504c0-58.146,40.564-107.271,94.789-120.496
	c-6.357-1.016-12.87-1.55-19.502-1.55l0,0c-68.203,0-124.005,55.803-124.005,124.005v59.504
	c0,68.203,55.803,124.005,124.005,124.005l0,0c10.056,0,19.838-1.221,29.215-3.509C226.192,360.565,180.713,309.107,180.713,247.536
	z"/>
<path style="fill:#FF0C38;" d="M229.116,311.376c0,0-7.056,31.976,27.126,31.976s27.126-31.933,27.126-31.933L229.116,311.376z"/>
<path style="fill:#FF3F62;" d="M256.241,324.944c3.511-1.649,27.275-13.595,27.126-13.525c-15.813-14.683-25.45-8.752-27.097-7.53
	c-1.451-1.107-11.126-7.396-27.154,7.486C228.965,311.306,256.241,324.944,256.241,324.944z"/>
<g>
	<path style="fill:#3E3D42;" d="M256.467,332.056c-1.154,0-2.307-0.255-3.374-0.763l-36.473-17.4
		c-3.906-1.864-5.562-6.542-3.699-10.448c1.863-3.907,6.539-5.563,10.448-3.699l33.127,15.804l33.66-15.783
		c3.919-1.835,8.585-0.149,10.423,3.768c1.837,3.919,0.15,8.586-3.768,10.424l-37.017,17.357
		C258.74,331.809,257.603,332.056,256.467,332.056z"/>
	<path style="fill:#3E3D42;" d="M201.281,228.16c-2.212,0-4.377-0.899-5.948-2.459c-1.572-1.57-2.469-3.737-2.469-5.958
		c0-2.211,0.898-4.388,2.469-5.949c1.57-1.57,3.736-2.468,5.948-2.468c2.221,0,4.388,0.898,5.958,2.468
		c1.561,1.57,2.459,3.738,2.459,5.949c0,2.221-0.898,4.388-2.459,5.958C205.669,227.262,203.502,228.16,201.281,228.16z"/>
	<path style="fill:#3E3D42;" d="M316.938,228.16c-2.212,0-4.377-0.899-5.948-2.459c-1.572-1.57-2.469-3.737-2.469-5.958
		c0-2.211,0.898-4.388,2.469-5.949c1.57-1.57,3.736-2.468,5.948-2.468c2.221,0,4.388,0.898,5.958,2.468
		c1.561,1.57,2.459,3.737,2.459,5.949c0,2.221-0.898,4.388-2.459,5.958C321.327,227.262,319.16,228.16,316.938,228.16z"/>
	<path style="fill:#3E3D42;" d="M390.454,205.212v-15.22c0-74.138-60.316-134.454-134.454-134.454
		c-6.357,0-12.61,0.453-18.735,1.311l19.474,45.963c0,0,35.285,78.648,120.204,110.293
		C389.6,217.218,390.454,205.212,390.454,205.212z"/>
</g>
<path style="fill:#57565C;" d="M256,55.537c-74.139,0-134.454,60.317-134.454,134.454v17.562c0,10.372,13.981,6.254,14.026,6.239
	C276.474,172.445,312.404,67.96,312.405,67.958C295.241,59.994,276.133,55.537,256,55.537z"/>
<path style="fill:#3E3D42;" d="M256.493,55.545c-0.165,0-0.328-0.007-0.493-0.007c-74.139,0-134.454,60.317-134.454,134.454v17.562
	c0,10.372,13.981,6.254,14.026,6.239c15.951-4.681,30.546-10.177,43.907-16.234C189.02,126.844,210.791,77.041,256.493,55.545z"/>
<path style="fill:#FF3F62;" d="M110.998,208.6c-26.467,45.843-65.65-22.022-12.715-22.022c-52.935,0-13.753-67.865,12.714-22.022
	c-26.467-45.843,51.897-45.843,25.43,0c26.467-45.843,65.649,22.022,12.714,22.022c52.935,0,13.753,67.865-12.714,22.022
	C162.894,254.443,84.531,254.443,110.998,208.6z"/>
<circle style="fill:#FFE477;" cx="123.716" cy="186.577" r="15.326"/>
<path style="fill:#FF3F62;" d="M337.752,115.953c-26.467,45.843-65.649-22.022-12.714-22.022c-52.935,0-13.753-67.865,12.714-22.022
	c-26.467-45.843,51.897-45.843,25.43,0c26.467-45.843,65.649,22.022,12.714,22.022c52.935,0,13.753,67.865-12.714,22.022
	C389.649,161.795,311.284,161.795,337.752,115.953z"/>
<circle style="fill:#FFE477;" cx="350.469" cy="93.926" r="15.326"/>
<path style="fill:#FFA733;" d="M256.739,278.521L256.739,278.521c-9.77,0-17.763-7.993-17.763-17.763v-1.972
	c0-9.77,7.993-17.763,17.763-17.763l0,0c9.77,0,17.763,7.993,17.763,17.763v1.972C274.502,270.527,266.509,278.521,256.739,278.521z
	"/>
<path style="fill:#EE8700;" d="M255.842,260.757v-1.972c0-6.723,3.786-12.604,9.33-15.619c-2.513-1.367-5.386-2.144-8.433-2.144
	c-9.77,0-17.763,7.993-17.763,17.763v1.972c0,9.77,7.993,17.763,17.763,17.763c3.047,0,5.92-0.778,8.433-2.144
	C259.628,273.362,255.842,267.48,255.842,260.757z"/>
<g>
</g>
<g>
</g>
<g>
</g>
<g>
</g>
<g>
</g>
<g>
</g>
<g>
</g>
<g>
</g>
<g>
</g>
<g>
</g>
<g>
</g>
<g>
</g>
<g>
</g>
<g>
</g>
<g>
</g>
</svg>
