<?xml version="1.0" encoding="iso-8859-1"?>
<!-- Generator: Adobe Illustrator 19.0.0, SVG Export Plug-In . SVG Version: 6.00 Build 0)  -->
<svg version="1.1" id="Layer_1" xmlns="http://www.w3.org/2000/svg" xmlns:xlink="http://www.w3.org/1999/xlink" x="0px" y="0px"
	 viewBox="0 0 511.999 511.999" style="enable-background:new 0 0 511.999 511.999;" xml:space="preserve">
<path style="fill:#4E901E;" d="M511.921,54.044c0.401-3.356-0.761-6.71-3.15-9.1l-29.381-29.381c-2.39-2.39-5.744-3.551-9.1-3.15
	c-3.356,0.401-6.341,2.32-8.101,5.206l-45.91,75.291c-2.648,4.343-1.98,9.933,1.616,13.529s9.187,4.264,13.529,1.616l75.291-45.91
	C509.602,60.387,511.521,57.4,511.921,54.044z"/>
<path style="fill:#47821C;" d="M443.034,49.086L416.3,92.929c-2.648,4.343-1.98,9.933,1.616,13.529s9.187,4.264,13.529,1.616
	l43.637-26.608C465.502,66.176,448.964,53.845,443.034,49.086z"/>
<path style="fill:#FF3F62;" d="M402,317.079c-29.97,39.572-117.4,109.608-205.099,147.301
	C109.731,504.34,22.29,511.956,4.52,478.995c-19.006-33.666,25.387-98.598,68.654-167.189
	c45.162-67.885,89.2-139.43,113.232-170.008c47.864-58.261,132.645-81.91,199.869-44.56C453.26,134.251,466.637,237.638,402,317.079
	z"/>
<g>
	<path style="fill:#FF0C38;" d="M240.37,195.754c45.893-55.862,125.716-79.866,191.47-48.827
		c-9.768-21.012-25.176-38.429-45.561-49.692c-67.225-37.35-152.005-13.702-199.869,44.56
		c-24.033,30.577-68.071,102.122-113.232,170.008C29.91,380.394-14.483,445.326,4.523,478.992
		c7.189,13.333,25.78,20.024,51.14,20.622c7.588-35.454,39.816-83.665,71.473-133.851
		C172.299,297.877,216.336,226.332,240.37,195.754z"/>
	<path style="fill:#FF0C38;" d="M401.987,317.066c64.636-79.442,51.26-182.829-15.725-219.84
		c-66.894-37.166-151.157-13.919-199.146,43.716c0.381,0.405,0.747,0.825,1.141,1.219c8.516,8.516,19.779,14.099,31.722,15.723
		l50.468,6.845l-1.503,32.563c-0.693,14.997,4.843,29.838,15.289,40.826c0.274,0.285,0.552,0.569,0.831,0.848
		c10.43,10.43,24.274,16.206,38.98,16.267l37.375,0.154l4.58,46.714c0.589,6.01,3.35,21.379,16.228,34.258
		c0.002,0.002,0.002,0.002,0.004,0.004c0.497,0.497,1.03,0.943,1.543,1.418C391.119,330.285,397.268,323.297,401.987,317.066z"/>
	<path style="fill:#FF0C38;" d="M296.114,370.945c-2.501-3.532-1.857-8.382,1.617-10.964c5.389-4.004,10.767-8.137,15.983-12.283
		c3.39-2.693,8.317-2.13,11.011,1.258c2.694,3.389,2.131,8.317-1.258,11.011c-5.35,4.253-10.864,8.49-16.389,12.595
		C305.674,373.605,299.624,375.902,296.114,370.945z"/>
	<path style="fill:#FF0C38;" d="M176.977,438.816c-3.262-7.012,4.459-10.439,4.459-10.439c30.275-13.012,63.242-31.495,95.332-53.45
		c3.571-2.446,8.449-1.529,10.893,2.043c2.444,3.573,1.529,8.449-2.043,10.893c-32.914,22.518-66.802,41.508-98,54.917l-0.35,0.15
		C186.261,443.363,180.221,445.789,176.977,438.816z"/>
</g>
<path style="fill:#5EAC24;" d="M436.857,306.463c24.81-34.883,38.118-75.782,37.492-115.308
	c-0.627-39.534-14.804-75.138-39.923-100.257c-70.943-70.943-160.697-46.024-218.12-2.615c-5.965,4.51-8.622,12.172-6.727,19.407
	c1.895,7.235,7.967,12.609,15.378,13.616l66.411,9.008c0.062,0.008,17.395-0.373,16.869,16.872l-2.392,51.823
	c-0.232,5.026,1.597,9.928,5.064,13.575c3.485,3.636,8.272,5.719,13.303,5.739l55.675,0.229c2.073,0.04,15.127,0.926,16.703,16.986
	l6.172,62.973c0.427,4.354,3.983,15.272,15.829,16.508C431.911,316.407,436.122,307.646,436.857,306.463z"/>
<path style="fill:#4E901E;" d="M458.209,123.811c-6.249-12.247-14.217-23.344-23.784-32.911
	c-70.943-70.943-160.697-46.024-218.12-2.615c-5.965,4.51-8.622,12.172-6.727,19.407c1.895,7.235,7.967,12.609,15.378,13.616
	l66.411,9.008c0.034,0.005,5.508-0.112,10.213,2.831C347.112,107.14,405.157,95.197,458.209,123.811z"/>
<g>
</g>
<g>
</g>
<g>
</g>
<g>
</g>
<g>
</g>
<g>
</g>
<g>
</g>
<g>
</g>
<g>
</g>
<g>
</g>
<g>
</g>
<g>
</g>
<g>
</g>
<g>
</g>
<g>
</g>
</svg>
