<?xml version="1.0" encoding="iso-8859-1"?>
<!-- Generator: Adobe Illustrator 16.0.0, SVG Export Plug-In . SVG Version: 6.00 Build 0)  -->
<!DOCTYPE svg PUBLIC "-//W3C//DTD SVG 1.1//EN" "http://www.w3.org/Graphics/SVG/1.1/DTD/svg11.dtd">
<svg xmlns="http://www.w3.org/2000/svg" xmlns:xlink="http://www.w3.org/1999/xlink" version="1.1" id="Layer_1" x="0px" y="0px" width="512" height="512" viewBox="0 0 329.998 329.998" style="enable-background:new 0 0 329.998 329.998;" xml:space="preserve">
<g>
	<path style="fill:#E3E3E5;" d="M274.999,0h-110h-110c-8.284,0-15,6.715-15,15v21.785V75v179.998v31.066v28.934   c0,8.284,6.716,15,15,15h110h110c8.284,0,15-6.716,15-15v-28.934v-31.066V75V36.785V15C289.999,6.715,283.283,0,274.999,0z"/>
	<path style="fill:#D6D5D8;" d="M274.999,0h-110v329.998h110c8.284,0,15-6.716,15-15v-28.934v-31.066V75V36.785V15   C289.999,6.715,283.283,0,274.999,0z"/>
	<path style="fill:#FF509D;" d="M274.999,60h-110h-110c-8.284,0-15,6.715-15,15v179.998c0,8.284,6.716,15,15,15h110h110   c8.284,0,15-6.716,15-15V75C289.999,66.715,283.283,60,274.999,60z"/>
	<path style="fill:#FF017B;" d="M274.999,60h-110v209.998h110c8.284,0,15-6.716,15-15V75C289.999,66.715,283.283,60,274.999,60z"/>
	<path style="fill:#9B4C00;" d="M185.786,122.568c-1.18-0.167-2.376-0.252-3.557-0.252c-6.654,0-12.725,2.526-17.23,6.67   c-4.189,3.854-7.03,9.104-7.688,15.075c-0.457,4.154-1.621,6.829-4.012,9.227c-2.4,2.398-5.075,3.563-9.25,4.018   c-6.47,0.718-12.275,3.996-16.344,9.231c-4.219,5.422-6.093,12.435-5.143,19.238c2.006,14.38,15.563,21.902,27.92,21.902   c0.331,0,0.667-0.002,0.94-0.014c4.481-0.129,9.042-1.039,13.575-2.646c8.372-2.97,16.65-8.356,24.158-15.861   c11.566-11.565,18.139-24.966,18.507-37.733C208.028,138.65,200.626,124.638,185.786,122.568z"/>
	<path style="fill:#671F03;" d="M185.786,122.568c-1.18-0.167-2.376-0.252-3.557-0.252c-6.654,0-12.725,2.526-17.23,6.67v76.031   c8.372-2.97,16.65-8.356,24.158-15.861c11.566-11.565,18.139-24.966,18.507-37.733C208.028,138.65,200.626,124.638,185.786,122.568   z"/>
</g>















</svg>
