<?xml version="1.0" encoding="iso-8859-1"?>
<!-- Generator: Adobe Illustrator 16.0.0, SVG Export Plug-In . SVG Version: 6.00 Build 0)  -->
<!DOCTYPE svg PUBLIC "-//W3C//DTD SVG 1.1//EN" "http://www.w3.org/Graphics/SVG/1.1/DTD/svg11.dtd">
<svg xmlns="http://www.w3.org/2000/svg" xmlns:xlink="http://www.w3.org/1999/xlink" version="1.1" id="Layer_1" x="0px" y="0px" width="512" height="512" viewBox="0 0 390 390" style="enable-background:new 0 0 390 390;" xml:space="preserve">
<g>
	<path style="fill:#61D338;" d="M314.996,120c-24.814,0-45.002,20.188-45.002,45.003V180H240V45c0-24.813-20.188-45-45-45   c-24.813,0-45,20.187-45,45v75h-29.994v-14.997C120.006,80.188,99.816,60,75.002,60S30,80.188,30,105.003V195   c0,8.283,6.715,15,15,15h105v165c0,8.283,6.715,15,15,15h30h30c8.284,0,15-6.717,15-15V270h105c8.284,0,15-6.717,15-15v-89.997   C360,140.188,339.812,120,314.996,120z"/>
	<path style="fill:#00B10E;" d="M314.996,120c-24.814,0-45.002,20.188-45.002,45.003V180H240V45c0-24.813-20.188-45-45-45v390h30   c8.284,0,15-6.717,15-15V270h105c8.284,0,15-6.717,15-15v-89.997C360,140.188,339.812,120,314.996,120z"/>
	<g>
		<line style="fill:#D6D5D8;" x1="345" y1="255" x2="375" y2="255"/>
		<line style="fill:#D6D5D8;" x1="345" y1="195" x2="375" y2="195"/>
		<g>
			<line style="fill:#D6D5D8;" x1="15" y1="195" x2="45" y2="195"/>
			<line style="fill:#D6D5D8;" x1="15" y1="135" x2="45" y2="135"/>
		</g>
		<g>
			<line style="fill:#D6D5D8;" x1="225" y1="105" x2="255" y2="105"/>
			<g>
				<line style="fill:#D6D5D8;" x1="225" y1="45" x2="255" y2="45"/>
				<g>
					<path style="fill:#3C3A3F;" d="M375,240h-30c-8.285,0-15,6.716-15,15c0,8.283,6.715,15,15,15h30c8.284,0,15-6.717,15-15       C390,246.716,383.284,240,375,240z"/>
					<path style="fill:#3C3A3F;" d="M345,210h30c8.284,0,15-6.717,15-15c0-8.284-6.716-15-15-15h-30c-8.285,0-15,6.716-15,15       C330,203.283,336.715,210,345,210z"/>
					<path style="fill:#57555D;" d="M45,180H15c-8.285,0-15,6.716-15,15c0,8.283,6.715,15,15,15h30c8.284,0,15-6.717,15-15       C60,186.716,53.284,180,45,180z"/>
					<path style="fill:#57555D;" d="M45,120H15c-8.285,0-15,6.716-15,15c0,8.283,6.715,15,15,15h30c8.284,0,15-6.717,15-15       C60,126.716,53.284,120,45,120z"/>
					<path style="fill:#3C3A3F;" d="M255,90h-30c-8.285,0-15,6.716-15,15c0,8.283,6.715,15,15,15h30c8.284,0,15-6.717,15-15       C270,96.716,263.284,90,255,90z"/>
					<path style="fill:#3C3A3F;" d="M255,30h-30c-8.285,0-15,6.716-15,15c0,8.283,6.715,15,15,15h30c8.284,0,15-6.717,15-15       C270,36.716,263.284,30,255,30z"/>
				</g>
			</g>
		</g>
	</g>
</g>















</svg>
