<?xml version="1.0" encoding="iso-8859-1"?>
<!-- Generator: Adobe Illustrator 16.0.0, SVG Export Plug-In . SVG Version: 6.00 Build 0)  -->
<!DOCTYPE svg PUBLIC "-//W3C//DTD SVG 1.1//EN" "http://www.w3.org/Graphics/SVG/1.1/DTD/svg11.dtd">
<svg xmlns="http://www.w3.org/2000/svg" xmlns:xlink="http://www.w3.org/1999/xlink" version="1.1" id="Layer_1" x="0px" y="0px" width="512" height="512" viewBox="0 0 360 360" style="enable-background:new 0 0 360 360;" xml:space="preserve">
<g>
	<g>
		<path style="fill:#FFDE51;" d="M210,75c0,16.568-13.432,30-30,30s-30-13.432-30-30s30-60,30-60S210,58.432,210,75z"/>
		<line style="fill:#76B46D;" x1="180" y1="225" x2="180" y2="345"/>
	</g>
	<path style="fill:#FF8600;" d="M207.975,31.261c-7.708-13.288-15.313-24.322-15.633-24.785C189.541,2.421,184.928,0,180,0   s-9.541,2.421-12.342,6.476c-0.32,0.463-7.925,11.497-15.633,24.785C136.765,57.566,135,68.822,135,75c0,24.813,20.187,45,45,45   s45-20.187,45-45C225,68.822,223.235,57.566,207.975,31.261z M180,90c-8.271,0-15-6.729-15-14.982   c0.122-4.585,6.36-17.654,15-32.212c0.001-0.001,0.002-0.003,0.003-0.005C188.641,57.35,194.877,70.416,195,75   C195,83.271,188.271,90,180,90z"/>
	<path style="fill:#E07200;" d="M207.975,31.261c-7.708-13.288-15.313-24.322-15.633-24.785C189.541,2.421,184.928,0,180,0v42.806   c0.001-0.001,0.002-0.003,0.003-0.005C188.641,57.35,194.877,70.416,195,75c0,8.271-6.729,15-15,15v30c24.813,0,45-20.187,45-45   C225,68.822,223.235,57.566,207.975,31.261z"/>
	<path style="fill:#D6D5D8;" d="M270,90h-90H90c-8.284,0-15,6.717-15,15v60c0,8.285,6.716,15,15,15h90h90c8.284,0,15-6.715,15-15   v-60C285,96.717,278.284,90,270,90z"/>
	<path style="fill:#C3C3C7;" d="M270,90h-90v90h90c8.284,0,15-6.715,15-15v-60C285,96.717,278.284,90,270,90z"/>
	<path style="fill:#FF509D;" d="M270,150h-90H90c-8.284,0-15,6.717-15,15v180c0,8.285,6.716,15,15,15h90h90c8.284,0,15-6.715,15-15   V165C285,156.717,278.284,150,270,150z"/>
	<path style="fill:#FF017B;" d="M270,150h-90v210h90c8.284,0,15-6.715,15-15V165C285,156.717,278.284,150,270,150z"/>
	<path style="fill:#8D59C6;" d="M180,210c-8.284,0-15,6.717-15,15v120c0,8.285,6.716,15,15,15s15-6.715,15-15V225   C195,216.717,188.284,210,180,210z"/>
	<path style="fill:#7F40BD;" d="M180,210v150c8.284,0,15-6.715,15-15V225C195,216.717,188.284,210,180,210z"/>
</g>















</svg>
