<?xml version="1.0" encoding="iso-8859-1"?>
<!-- Generator: Adobe Illustrator 16.0.0, SVG Export Plug-In . SVG Version: 6.00 Build 0)  -->
<!DOCTYPE svg PUBLIC "-//W3C//DTD SVG 1.1//EN" "http://www.w3.org/Graphics/SVG/1.1/DTD/svg11.dtd">
<svg xmlns="http://www.w3.org/2000/svg" xmlns:xlink="http://www.w3.org/1999/xlink" version="1.1" id="Layer_1" x="0px" y="0px" width="512" height="512" viewBox="0 0 312.844 312.844" style="enable-background:new 0 0 312.844 312.844;" xml:space="preserve">
<g>
	<g>
		<path style="fill:#FFB65B;" d="M301.721,74.75c5.527-5.908,5.373-15.135-0.348-20.855l-21.215-21.209l-21.215-21.213    c-5.723-5.721-14.947-5.873-20.854-0.348L25.965,209.109c-2.969,2.775-4.683,6.639-4.752,10.703    c-0.066,4.064,1.518,7.982,4.392,10.857l28.284,28.283l28.286,28.283c2.874,2.875,6.792,4.459,10.856,4.393    c4.065-0.068,7.927-1.783,10.703-4.752L301.721,74.75z"/>
		<path style="fill:#FFA828;" d="M301.721,74.75c5.527-5.908,5.373-15.135-0.348-20.855l-21.215-21.209L53.889,258.953    l28.286,28.283c2.874,2.875,6.792,4.459,10.856,4.393c4.065-0.068,7.927-1.783,10.703-4.752L301.721,74.75z"/>
	</g>
	<polygon style="fill:#EFC27B;" points="18.535,237.74 27.965,247.168 18.531,237.736  "/>
	<g>
		<path style="fill:#9B4C00;" d="M308.45,4.395c0,0,0,0-0.001-0.002c-5.857-5.855-15.355-5.857-21.211,0L269.552,22.08    l-10.599,10.598c-5.861,5.857-5.861,15.354-0.002,21.213c0.002,0,0.002,0,0.002,0l0,0c2.928,2.93,6.768,4.395,10.605,4.393    c3.838,0.002,7.68-1.463,10.607-4.393l10.602-10.602l17.682-17.682C314.308,19.75,314.309,10.252,308.45,4.395z"/>
		<path style="fill:#6D3802;" d="M258.953,53.891L258.953,53.891c2.928,2.93,6.768,4.395,10.605,4.393    c3.838,0.002,7.68-1.463,10.607-4.393l10.602-10.602l17.682-17.682c5.858-5.857,5.859-15.355,0.001-21.213c0,0,0,0-0.001-0.002    l-49.498,49.498C258.953,53.891,258.953,53.891,258.953,53.891z"/>
	</g>
	<path style="fill:#9B4C00;" d="M110.459,287.236l-3.885-3.883l-38.541-38.543l0,0L29.49,206.268l-3.883-3.885   c-5.856-5.857-15.355-5.857-21.214,0c-5.858,5.859-5.858,15.357-0.001,21.215l14.139,14.139l9.434,9.432l18.857,18.855   l42.424,42.428c2.93,2.928,6.768,4.393,10.607,4.393c3.839,0.002,7.678-1.465,10.607-4.395   C116.318,302.592,116.317,293.096,110.459,287.236z"/>
	<path style="fill:#6D3802;" d="M110.459,287.236l-3.885-3.883l-38.541-38.543l0,0l-21.211,21.213l42.424,42.428   c2.93,2.928,6.768,4.393,10.607,4.393c3.839,0.002,7.678-1.465,10.607-4.395C116.318,302.592,116.317,293.096,110.459,287.236z"/>
	<g>
		<path style="fill:#9B4C00;" d="M152.887,244.811l-5.297-5.297l-37.129-37.131l0,0l-37.129-37.127l-5.297-5.297    c-5.859-5.857-15.355-5.857-21.213-0.002c-5.859,5.857-5.859,15.357,0,21.215l4.588,4.59l37.837,37.836l0,0l37.837,37.836    l4.59,4.59c2.927,2.928,6.768,4.395,10.605,4.393c3.84,0,7.676-1.465,10.605-4.393    C158.745,260.166,158.745,250.67,152.887,244.811z"/>
		<path style="fill:#6D3802;" d="M110.461,202.383l-21.214,21.215l0,0l37.837,37.836l4.59,4.59    c2.927,2.928,6.768,4.395,10.605,4.393c3.84,0,7.676-1.465,10.605-4.393c5.86-5.857,5.86-15.354,0.002-21.213l-5.297-5.297    L110.461,202.383L110.461,202.383z"/>
	</g>
	<path style="fill:#9B4C00;" d="M273.092,110.463l-2.47-2.469l-32.888-32.885h-0.001l-32.888-32.883l-2.469-2.471   c-5.86-5.857-15.356-5.855-21.215,0.002c-5.857,5.857-5.855,15.355,0.002,21.215l1.76,1.76l33.596,33.592l33.596,33.592   l1.763,1.764c2.932,2.928,6.769,4.391,10.608,4.393c3.836-0.002,7.676-1.467,10.605-4.396   C278.949,125.818,278.946,116.32,273.092,110.463z"/>
	<path style="fill:#6D3802;" d="M237.733,75.109L216.52,96.324l33.596,33.592l1.763,1.764c2.932,2.928,6.769,4.391,10.608,4.393   c3.836-0.002,7.676-1.467,10.605-4.396c5.857-5.857,5.854-15.355,0-21.213l-2.47-2.469L237.733,75.109L237.733,75.109z"/>
</g>















</svg>
