<?xml version="1.0" encoding="iso-8859-1"?>
<!-- Generator: Adobe Illustrator 16.0.0, SVG Export Plug-In . SVG Version: 6.00 Build 0)  -->
<!DOCTYPE svg PUBLIC "-//W3C//DTD SVG 1.1//EN" "http://www.w3.org/Graphics/SVG/1.1/DTD/svg11.dtd">
<svg xmlns="http://www.w3.org/2000/svg" xmlns:xlink="http://www.w3.org/1999/xlink" version="1.1" id="Layer_1" x="0px" y="0px" width="512" height="512" viewBox="0 0 366.215 366.216" style="enable-background:new 0 0 366.215 366.216;" xml:space="preserve">
<g>
	<path style="fill:#FF4B0C;" d="M366.215,57.431c0-3.979-1.58-7.793-4.395-10.607L340.608,25.61L319.393,4.396   c-5.855-5.857-15.354-5.857-21.211,0L153.639,148.935c-5.857,5.859-5.857,15.357,0,21.213l21.215,21.215l21.213,21.215   c2.813,2.813,6.629,4.395,10.607,4.395c3.979-0.002,7.793-1.582,10.605-4.395L361.823,68.038   C364.635,65.224,366.213,61.407,366.215,57.431z"/>
	<path style="fill:#FF2300;" d="M366.215,57.431c0-3.979-1.58-7.793-4.395-10.607L340.608,25.61L174.854,191.362l21.213,21.215   c2.813,2.813,6.629,4.395,10.607,4.395c3.979-0.002,7.793-1.582,10.605-4.395L361.823,68.038   C364.635,65.224,366.213,61.407,366.215,57.431z"/>
	<path style="fill:#E3E3E5;" d="M176.936,252.921l40.344-40.344c5.859-5.857,5.859-15.355,0-21.215l-21.213-21.213l-21.211-21.211   c-2.814-2.814-6.629-4.395-10.606-4.395c-3.979,0-7.796,1.58-10.606,4.395l-40.346,40.342c-7.578-2.029-15.385-3.053-23.319-3.055   c-24.032,0.002-46.624,9.359-63.614,26.35C9.362,229.573,0,252.175,0,276.216c0,24.039,9.361,46.641,26.361,63.639   c16.998,16.998,39.6,26.361,63.64,26.359c24.038,0,46.642-9.359,63.638-26.359C176.54,316.956,185.19,283.737,176.936,252.921z"/>
	<path style="fill:#D6D5D8;" d="M176.936,252.921l40.344-40.344c5.859-5.857,5.859-15.355,0-21.215l-21.213-21.213L26.361,339.854   c16.998,16.998,39.6,26.361,63.64,26.359c24.038,0,46.642-9.359,63.638-26.359C176.54,316.956,185.19,283.737,176.936,252.921z"/>
</g>















</svg>
