<?xml version="1.0" encoding="iso-8859-1"?>
<!-- Generator: Adobe Illustrator 16.0.0, SVG Export Plug-In . SVG Version: 6.00 Build 0)  -->
<!DOCTYPE svg PUBLIC "-//W3C//DTD SVG 1.1//EN" "http://www.w3.org/Graphics/SVG/1.1/DTD/svg11.dtd">
<svg xmlns="http://www.w3.org/2000/svg" xmlns:xlink="http://www.w3.org/1999/xlink" version="1.1" id="Layer_1" x="0px" y="0px" width="512" height="512" viewBox="0 0 307.164 307.164" style="enable-background:new 0 0 307.164 307.164;" xml:space="preserve">
<g>
	<path style="fill:#FF509D;" d="M306.021,147.843c-7.396-17.86-20.039-32.535-36.256-42.386c0.01-0.036,0.017-0.073,0.025-0.11   c-0.009,0.037-0.02,0.073-0.029,0.109h-68.055V37.398c0.01-0.002,0.021-0.006,0.031-0.008c-0.01,0.002-0.021,0.004-0.031,0.007   v-0.005h-0.004c-9.85-16.21-24.521-28.852-42.381-36.25C157.484,0.38,155.531,0,153.579,0c-1.95,0-3.899,0.381-5.737,1.142   c-17.859,7.398-32.531,20.04-42.381,36.25h-0.029v68.064H37.414c-0.043-0.17-0.092-0.342-0.133-0.514   c0.041,0.17,0.072,0.344,0.115,0.515c-16.215,9.851-28.857,24.525-36.256,42.386c-0.762,1.842-1.143,3.797-1.141,5.752   c0.002,1.947,0.383,3.895,1.143,5.729c7.398,17.858,20.041,32.531,36.254,42.382v0.002h68.035v68.059h0.025   c9.85,16.215,24.523,28.857,42.383,36.255c1.84,0.762,3.789,1.143,5.739,1.143h0.001c1.951,0,3.904-0.381,5.741-1.143   c17.86-7.397,32.536-20.04,42.386-36.255c0.982,0.24,1.968,0.459,2.955,0.666c-0.988-0.207-1.973-0.449-2.955-0.688v-68.036h68.055   c0.011,0.043,0.023,0.086,0.034,0.13c-0.011-0.044-0.019-0.087-0.03-0.13c16.215-9.852,28.857-24.523,36.256-42.385   c0.76-1.834,1.141-3.781,1.143-5.729C307.164,151.64,306.785,149.685,306.021,147.843z"/>
	<path style="fill:#FF017B;" d="M306.021,147.843c-7.396-17.86-20.039-32.535-36.256-42.386c0.01-0.036,0.017-0.073,0.025-0.11   c-0.009,0.037-0.02,0.073-0.029,0.109h-68.055V37.398c0.01-0.002,0.021-0.006,0.031-0.008c-0.01,0.002-0.021,0.004-0.031,0.007   v-0.005h-0.004c-9.85-16.21-24.521-28.852-42.381-36.25C157.484,0.38,155.531,0,153.579,0v153.595v153.569h0.001   c1.951,0,3.904-0.381,5.741-1.143c17.86-7.397,32.536-20.04,42.386-36.255c0.982,0.24,1.968,0.459,2.955,0.666   c-0.988-0.207-1.973-0.449-2.955-0.688v-68.036h68.055c0.011,0.043,0.023,0.086,0.034,0.13c-0.011-0.044-0.019-0.087-0.03-0.13   c16.215-9.852,28.857-24.523,36.256-42.385c0.76-1.834,1.141-3.781,1.143-5.729C307.164,151.64,306.785,149.685,306.021,147.843z"/>
	<path style="fill:#CE5498;" d="M88.161,272.236c-1.29,0.057-2.579,0.096-3.87,0.096C85.582,272.332,86.871,272.294,88.161,272.236z   "/>
	<path style="fill:#CE5498;" d="M222.871,272.332c-1.287,0-2.572-0.039-3.857-0.095   C220.299,272.294,221.584,272.332,222.871,272.332z"/>
	<path style="fill:#CE5498;" d="M257.314,265.433c-11.104,4.599-22.775,6.898-34.441,6.899h0.001   C234.542,272.332,246.211,270.032,257.314,265.433c3.676-1.523,6.596-4.443,8.119-8.119c0.527-1.272,1.016-2.555,1.482-3.842   c-0.467,1.287-0.957,2.569-1.483,3.843C263.91,260.989,260.99,263.909,257.314,265.433z"/>
	<path style="fill:#CE5498;" d="M41.73,257.314c1.523,3.675,4.443,6.595,8.119,8.118c5.658,2.344,11.463,4.082,17.339,5.231   c-5.876-1.149-11.681-2.889-17.339-5.231C46.174,263.909,43.254,260.989,41.73,257.314z"/>
	<path style="fill:#F99BC8;" d="M272.238,219.063c-0.033-0.76-0.089-1.521-0.141-2.28c-0.037-0.54-0.073-1.081-0.121-1.62   c-0.066-0.773-0.148-1.547-0.235-2.318c-0.058-0.516-0.123-1.029-0.19-1.541c-0.104-0.794-0.211-1.587-0.337-2.378   c-0.071-0.444-0.155-0.89-0.232-1.335c-0.335-1.924-0.723-3.845-1.186-5.753c-1.101-4.533-2.544-9.015-4.363-13.407   c-5.698-13.754-14.507-25.619-25.66-34.848c11.153-9.232,19.962-21.096,25.66-34.85c1.815-4.385,3.26-8.86,4.358-13.387   c0.467-1.921,0.856-3.854,1.193-5.792c0.076-0.437,0.159-0.874,0.229-1.312c0.127-0.796,0.234-1.593,0.339-2.391   c0.067-0.508,0.132-1.016,0.188-1.525c0.088-0.775,0.17-1.553,0.237-2.33c0.047-0.535,0.082-1.07,0.12-1.605   c0.052-0.764,0.107-1.528,0.141-2.293c0.025-0.58,0.029-1.161,0.043-1.74c0.029-1.258,0.033-2.514,0.009-3.771   c-0.013-0.665-0.021-1.33-0.05-1.995c-0.026-0.657-0.07-1.314-0.111-1.971c-0.045-0.686-0.094-1.371-0.152-2.057   c-0.055-0.629-0.115-1.258-0.184-1.885c-0.082-0.752-0.178-1.504-0.279-2.255c-0.074-0.56-0.144-1.118-0.23-1.675   c-0.182-1.191-0.387-2.378-0.619-3.563c-0.07-0.363-0.152-0.727-0.229-1.09c-0.215-1.032-0.443-2.063-0.695-3.09   c-0.117-0.475-0.246-0.949-0.371-1.422c-0.225-0.856-0.459-1.71-0.711-2.561c-0.142-0.485-0.288-0.969-0.439-1.451   c-0.275-0.884-0.568-1.764-0.873-2.641c-0.145-0.42-0.284-0.84-0.436-1.258c-0.461-1.27-0.945-2.535-1.464-3.793   c-0.005-0.012-0.009-0.023-0.014-0.035c-1.522-3.675-4.443-6.596-8.118-8.118c-0.029-0.011-0.06-0.022-0.09-0.034   c-1.238-0.512-2.484-0.988-3.735-1.441c-0.419-0.152-0.842-0.293-1.263-0.438c-0.877-0.305-1.754-0.598-2.637-0.873   c-0.482-0.15-0.967-0.297-1.45-0.439c-0.854-0.252-1.709-0.486-2.567-0.712c-0.471-0.124-0.94-0.253-1.412-0.368   c-1.037-0.254-2.078-0.486-3.121-0.703c-0.338-0.07-0.676-0.146-1.014-0.213c-1.203-0.237-2.408-0.444-3.616-0.63   c-0.552-0.083-1.103-0.153-1.655-0.227c-0.758-0.103-1.517-0.199-2.276-0.282c-0.622-0.068-1.245-0.127-1.868-0.181   c-0.693-0.061-1.387-0.11-2.08-0.154c-0.65-0.042-1.299-0.085-1.949-0.111c-0.679-0.029-1.357-0.038-2.037-0.051   c-1.207-0.021-2.414-0.019-3.62,0.008c-0.622,0.013-1.243,0.02-1.864,0.046c-0.756,0.033-1.51,0.088-2.264,0.141   c-0.545,0.037-1.092,0.073-1.637,0.12c-0.77,0.068-1.541,0.147-2.311,0.236c-0.517,0.058-1.033,0.125-1.548,0.192   c-0.792,0.104-1.583,0.21-2.372,0.336c-0.447,0.07-0.891,0.154-1.337,0.233c-1.958,0.341-3.91,0.733-5.853,1.207   c-4.5,1.097-8.948,2.535-13.309,4.341c-13.754,5.699-25.617,14.509-34.848,25.661c0,0-0.002-0.001-0.003-0.002   c-9.229-11.152-21.093-19.961-34.849-25.66c-4.357-1.805-8.803-3.241-13.299-4.337c-1.939-0.474-3.891-0.866-5.848-1.208   c-0.451-0.078-0.9-0.164-1.351-0.234c-0.787-0.125-1.575-0.232-2.364-0.336c-0.52-0.067-1.037-0.134-1.557-0.193   c-0.769-0.088-1.537-0.167-2.306-0.233c-0.548-0.048-1.094-0.084-1.641-0.121c-0.753-0.053-1.507-0.108-2.261-0.141   c-0.617-0.026-1.234-0.031-1.851-0.045c-1.218-0.028-2.434-0.03-3.65-0.008c-0.672,0.014-1.344,0.022-2.017,0.05   c-0.655,0.027-1.311,0.07-1.967,0.113c-0.686,0.043-1.369,0.092-2.053,0.151c-0.633,0.055-1.264,0.116-1.895,0.184   c-0.744,0.081-1.49,0.177-2.234,0.276c-0.565,0.077-1.132,0.147-1.697,0.233c-1.16,0.178-2.318,0.379-3.474,0.605   c-0.411,0.079-0.818,0.169-1.228,0.255c-1.01,0.211-2.017,0.434-3.021,0.68c-0.489,0.119-0.976,0.253-1.462,0.381   c-0.84,0.222-1.679,0.451-2.515,0.697c-0.496,0.146-0.992,0.297-1.487,0.451c-0.867,0.271-1.732,0.56-2.596,0.859   c-0.432,0.148-0.863,0.291-1.295,0.448c-1.248,0.452-2.491,0.927-3.727,1.438c-0.029,0.012-0.061,0.023-0.09,0.034   c-3.675,1.522-6.596,4.442-8.119,8.118c-0.004,0.012-0.008,0.022-0.014,0.035c-0.52,1.256-1.002,2.521-1.463,3.793   c-0.152,0.416-0.29,0.836-0.436,1.253c-0.305,0.88-0.598,1.763-0.875,2.647c-0.15,0.48-0.295,0.961-0.438,1.442   c-0.252,0.856-0.488,1.715-0.715,2.575c-0.123,0.469-0.252,0.938-0.367,1.408c-0.256,1.042-0.488,2.088-0.705,3.137   c-0.068,0.321-0.142,0.641-0.205,0.961c-0.238,1.217-0.448,2.436-0.637,3.657c-0.084,0.546-0.15,1.093-0.225,1.64   c-0.104,0.766-0.201,1.531-0.285,2.297c-0.066,0.615-0.125,1.234-0.179,1.851c-0.062,0.7-0.11,1.402-0.155,2.105   c-0.041,0.642-0.084,1.283-0.11,1.925c-0.03,0.697-0.038,1.394-0.052,2.09c-0.021,1.143-0.019,2.283,0.004,3.425   c0.014,0.676,0.021,1.351,0.051,2.026c0.031,0.739,0.086,1.478,0.137,2.216c0.039,0.563,0.076,1.128,0.125,1.691   c0.066,0.757,0.145,1.512,0.23,2.267c0.061,0.537,0.129,1.073,0.199,1.608c0.102,0.774,0.207,1.546,0.328,2.318   c0.076,0.481,0.168,0.96,0.252,1.44c0.31,1.768,0.666,3.53,1.084,5.285c1.109,4.662,2.58,9.274,4.449,13.789   c5.697,13.756,14.508,25.619,25.661,34.852c-11.153,9.229-19.962,21.094-25.662,34.848c-1.802,4.35-3.237,8.787-4.333,13.275   c-0.482,1.977-0.883,3.964-1.229,5.957c-0.072,0.416-0.15,0.83-0.217,1.246c-0.129,0.805-0.236,1.609-0.343,2.418   c-0.065,0.5-0.128,0.998-0.186,1.498c-0.089,0.782-0.171,1.564-0.238,2.348c-0.046,0.529-0.081,1.059-0.118,1.589   c-0.053,0.769-0.109,1.536-0.143,2.305c-0.025,0.577-0.029,1.156-0.043,1.734c-0.028,1.257-0.032,2.514-0.008,3.771   c0.012,0.668,0.021,1.336,0.049,2.002c0.027,0.654,0.07,1.309,0.112,1.963c0.044,0.689,0.093,1.379,0.153,2.066   c0.055,0.625,0.113,1.252,0.182,1.877c0.082,0.757,0.18,1.513,0.281,2.268c0.074,0.555,0.143,1.109,0.228,1.664   c0.187,1.208,0.394,2.416,0.63,3.619c0.066,0.336,0.143,0.67,0.213,1.005c0.217,1.044,0.449,2.086,0.703,3.125   c0.115,0.47,0.244,0.938,0.367,1.407c0.227,0.861,0.463,1.721,0.715,2.579c0.143,0.479,0.287,0.958,0.436,1.436   c0.279,0.89,0.574,1.776,0.881,2.659c0.143,0.414,0.279,0.829,0.43,1.242c0.467,1.283,0.953,2.562,1.479,3.831   c1.523,3.675,4.443,6.595,8.119,8.118c5.658,2.343,11.463,4.082,17.339,5.231c5.657,1.107,11.378,1.668,17.103,1.668   c1.291,0,2.58-0.039,3.87-0.096c0.29-0.013,0.581-0.023,0.872-0.04c1.201-0.064,2.402-0.152,3.602-0.266   c0.375-0.036,0.75-0.08,1.125-0.121c0.922-0.098,1.842-0.213,2.761-0.341c0.556-0.077,1.11-0.159,1.665-0.246   c0.875-0.139,1.748-0.292,2.621-0.456c0.568-0.107,1.137-0.219,1.704-0.337c0.981-0.206,1.96-0.424,2.937-0.662   c0,0,0.006-0.001,0.01-0.002c4.488-1.096,8.926-2.532,13.273-4.333c13.756-5.695,25.619-14.504,34.849-25.656   c0,0,0.001-0.002,0.003-0.004c9.23,11.153,21.096,19.963,34.85,25.66c5.303,2.195,10.734,3.852,16.23,5   c0.563,0.117,1.125,0.227,1.688,0.333c0.875,0.165,1.751,0.319,2.629,0.458c0.557,0.088,1.113,0.168,1.672,0.248   c0.912,0.125,1.824,0.24,2.738,0.338c0.383,0.041,0.766,0.084,1.149,0.121c1.192,0.113,2.386,0.201,3.581,0.266   c0.299,0.017,0.597,0.027,0.895,0.041c1.285,0.056,2.57,0.095,3.857,0.095h0.002c11.666-0.001,23.338-2.301,34.441-6.899   c3.676-1.523,6.596-4.443,8.118-8.118c0.526-1.273,1.017-2.556,1.483-3.843c0.146-0.401,0.279-0.805,0.419-1.209   c0.31-0.893,0.608-1.788,0.889-2.687c0.147-0.476,0.292-0.95,0.433-1.427c0.253-0.857,0.49-1.72,0.717-2.583   c0.123-0.469,0.25-0.937,0.365-1.405c0.255-1.035,0.485-2.074,0.702-3.113c0.071-0.346,0.149-0.688,0.218-1.033   c0.234-1.197,0.441-2.398,0.627-3.602c0.085-0.557,0.154-1.115,0.229-1.673c0.102-0.751,0.197-1.503,0.279-2.257   c0.068-0.627,0.129-1.256,0.184-1.885c0.059-0.684,0.107-1.371,0.152-2.057c0.041-0.656,0.085-1.313,0.111-1.97   c0.028-0.665,0.037-1.331,0.05-1.996c0.024-1.247,0.021-2.493-0.009-3.741C272.268,220.244,272.264,219.653,272.238,219.063z"/>
	<path style="fill:#F48CC2;" d="M272.238,219.063c-0.033-0.76-0.089-1.521-0.141-2.28c-0.037-0.54-0.073-1.081-0.121-1.62   c-0.066-0.773-0.148-1.547-0.235-2.318c-0.058-0.516-0.123-1.029-0.19-1.541c-0.104-0.794-0.211-1.587-0.337-2.378   c-0.071-0.444-0.155-0.89-0.232-1.335c-0.335-1.924-0.723-3.845-1.186-5.753c-1.101-4.533-2.544-9.015-4.363-13.407   c-5.698-13.754-14.507-25.619-25.66-34.848c11.153-9.232,19.962-21.096,25.66-34.85c1.815-4.385,3.26-8.86,4.358-13.387   c0.467-1.921,0.856-3.854,1.193-5.792c0.076-0.437,0.159-0.874,0.229-1.312c0.127-0.796,0.234-1.593,0.339-2.391   c0.067-0.508,0.132-1.016,0.188-1.525c0.088-0.775,0.17-1.553,0.237-2.33c0.047-0.535,0.082-1.07,0.12-1.605   c0.052-0.764,0.107-1.528,0.141-2.293c0.025-0.58,0.029-1.161,0.043-1.74c0.029-1.258,0.033-2.514,0.009-3.771   c-0.013-0.665-0.021-1.33-0.05-1.995c-0.026-0.657-0.07-1.314-0.111-1.971c-0.045-0.686-0.094-1.371-0.152-2.057   c-0.055-0.629-0.115-1.258-0.184-1.885c-0.082-0.752-0.178-1.504-0.279-2.255c-0.074-0.56-0.144-1.118-0.23-1.675   c-0.182-1.191-0.387-2.378-0.619-3.563c-0.07-0.363-0.152-0.727-0.229-1.09c-0.215-1.032-0.443-2.063-0.695-3.09   c-0.117-0.475-0.246-0.949-0.371-1.422c-0.225-0.856-0.459-1.71-0.711-2.561c-0.142-0.485-0.288-0.969-0.439-1.451   c-0.275-0.884-0.568-1.764-0.873-2.641c-0.145-0.42-0.284-0.84-0.436-1.258c-0.461-1.27-0.945-2.535-1.464-3.793   c-0.005-0.012-0.009-0.023-0.014-0.035c-1.522-3.675-4.443-6.596-8.118-8.118c-0.029-0.011-0.06-0.022-0.09-0.034   c-1.238-0.512-2.484-0.988-3.735-1.441c-0.419-0.152-0.842-0.293-1.263-0.438c-0.877-0.305-1.754-0.598-2.637-0.873   c-0.482-0.15-0.967-0.297-1.45-0.439c-0.854-0.252-1.709-0.486-2.567-0.712c-0.471-0.124-0.94-0.253-1.412-0.368   c-1.037-0.254-2.078-0.486-3.121-0.703c-0.338-0.07-0.676-0.146-1.014-0.213c-1.203-0.237-2.408-0.444-3.616-0.63   c-0.552-0.083-1.103-0.153-1.655-0.227c-0.758-0.103-1.517-0.199-2.276-0.282c-0.622-0.068-1.245-0.127-1.868-0.181   c-0.693-0.061-1.387-0.11-2.08-0.154c-0.65-0.042-1.299-0.085-1.949-0.111c-0.679-0.029-1.357-0.038-2.037-0.051   c-1.207-0.021-2.414-0.019-3.62,0.008c-0.622,0.013-1.243,0.02-1.864,0.046c-0.756,0.033-1.51,0.088-2.264,0.141   c-0.545,0.037-1.092,0.073-1.637,0.12c-0.77,0.068-1.541,0.147-2.311,0.236c-0.517,0.058-1.033,0.125-1.548,0.192   c-0.792,0.104-1.583,0.21-2.372,0.336c-0.447,0.07-0.891,0.154-1.337,0.233c-1.958,0.341-3.91,0.733-5.853,1.207   c-4.5,1.097-8.948,2.535-13.309,4.341c-13.754,5.699-25.617,14.509-34.848,25.661c0,0-0.002-0.001-0.003-0.002v41.205v15h0.003   v59.975h-0.003v15v41.207c0,0,0.001-0.002,0.003-0.004c9.23,11.153,21.096,19.963,34.85,25.66c5.303,2.195,10.734,3.852,16.23,5   c0.563,0.117,1.125,0.227,1.688,0.333c0.875,0.165,1.751,0.319,2.629,0.458c0.557,0.088,1.113,0.168,1.672,0.248   c0.912,0.125,1.824,0.24,2.738,0.338c0.383,0.041,0.766,0.084,1.149,0.121c1.192,0.113,2.386,0.201,3.581,0.266   c0.299,0.017,0.597,0.027,0.895,0.041c1.285,0.056,2.57,0.095,3.857,0.095h0.002c11.666-0.001,23.338-2.301,34.441-6.899   c3.676-1.523,6.596-4.443,8.118-8.118c0.526-1.273,1.017-2.556,1.483-3.843c0.146-0.401,0.279-0.805,0.419-1.209   c0.31-0.893,0.608-1.788,0.889-2.687c0.147-0.476,0.292-0.95,0.433-1.427c0.253-0.857,0.49-1.72,0.717-2.583   c0.123-0.469,0.25-0.937,0.365-1.405c0.255-1.035,0.485-2.074,0.702-3.113c0.071-0.346,0.149-0.688,0.218-1.033   c0.234-1.197,0.441-2.398,0.627-3.602c0.085-0.557,0.154-1.115,0.229-1.673c0.102-0.751,0.197-1.503,0.279-2.257   c0.068-0.627,0.129-1.256,0.184-1.885c0.059-0.684,0.107-1.371,0.152-2.057c0.041-0.656,0.085-1.313,0.111-1.97   c0.028-0.665,0.037-1.331,0.05-1.996c0.024-1.247,0.021-2.493-0.009-3.741C272.268,220.244,272.264,219.653,272.238,219.063z"/>
	<path style="fill:#FFDE51;" d="M165.063,125.866c-3.758-1.559-7.65-2.275-11.48-2.271h-0.003c-1.929,0.002-3.846,0.174-5.718,0.539   c-9.54,1.862-17.998,8.314-21.996,17.967c-0.785,1.896-1.359,3.825-1.738,5.762c-0.372,1.906-0.547,3.82-0.545,5.72   c0.004,11.768,6.969,22.933,18.519,27.716c3.753,1.555,7.641,2.271,11.466,2.271c0,0,0.008,0,0.013,0h0.003   c1.93,0,3.846-0.174,5.719-0.539c9.541-1.862,18-8.314,21.998-17.967c0.785-1.896,1.359-3.823,1.736-5.76   c0.373-1.908,0.547-3.821,0.547-5.722C183.576,141.814,176.611,130.649,165.063,125.866z"/>
	<path style="fill:#FFD400;" d="M159.301,183.03c9.541-1.862,18-8.314,21.998-17.967c0.785-1.896,1.359-3.823,1.736-5.76   c0.373-1.908,0.547-3.821,0.547-5.722c-0.006-11.768-6.971-22.933-18.52-27.716c-3.758-1.559-7.65-2.275-11.48-2.271h-0.003v59.975   h0.003C155.512,183.569,157.428,183.396,159.301,183.03z"/>
</g>















</svg>
