<?xml version="1.0" encoding="iso-8859-1"?>
<!-- Generator: Adobe Illustrator 16.0.0, SVG Export Plug-In . SVG Version: 6.00 Build 0)  -->
<!DOCTYPE svg PUBLIC "-//W3C//DTD SVG 1.1//EN" "http://www.w3.org/Graphics/SVG/1.1/DTD/svg11.dtd">
<svg xmlns="http://www.w3.org/2000/svg" xmlns:xlink="http://www.w3.org/1999/xlink" version="1.1" id="Layer_1" x="0px" y="0px" width="512" height="512" viewBox="0 0 389.992 389.992" style="enable-background:new 0 0 389.992 389.992;" xml:space="preserve">
<g>
	<path style="fill:#FF509D;" d="M374.992,179.996h-23.787H209.996v-141.2V15c0-8.284-6.716-15-15-15c-8.283,0-15,6.716-15,15v23.778   v141.218H38.797H15c-8.285,0-15,6.716-15,15s6.715,15,15,15h23.777h141.219v141.21v23.786c0,8.284,6.717,15,15,15   c8.284,0,15-6.716,15-15v-23.787V209.996h141.21h23.786c8.284,0,15-6.716,15-15S383.276,179.996,374.992,179.996z"/>
	<path style="fill:#FF017B;" d="M374.992,179.996h-23.787H209.996v-141.2V15c0-8.284-6.716-15-15-15v389.992c8.284,0,15-6.716,15-15   v-23.787V209.996h141.21h23.786c8.284,0,15-6.716,15-15S383.276,179.996,374.992,179.996z"/>
	<g>
		<path style="fill:#009BE8;" d="M355.598,184.382l-4.393-4.395L209.996,38.78l-4.39-4.391c-2.929-2.93-6.767-4.392-10.608-4.392    h-0.002c-3.837,0-7.675,1.464-10.603,4.392l-4.397,4.397l-141.199,141.2l-4.403,4.402c-2.813,2.811-4.391,6.623-4.393,10.598    L30,194.996c0,3.978,1.58,7.793,4.394,10.606l4.384,4.385l141.219,141.217l4.397,4.398c2.813,2.813,6.627,4.393,10.603,4.394    h0.002H195c3.979,0,7.794-1.581,10.607-4.395l4.389-4.389l141.21-141.226l4.392-4.395c2.931-2.928,4.395-6.768,4.395-10.605    C359.992,191.148,358.527,187.31,355.598,184.382z"/>
		<polygon style="fill:#8D59C6;" points="195,66.209 194.998,66.21 66.213,194.996 194.998,323.782 323.779,194.987   "/>
		<path style="fill:#F99BC8;" d="M270.746,184.385l-65.142-65.143c-2.813-2.813-6.628-4.394-10.606-4.394h-0.001    c-3.979,0-7.793,1.581-10.605,4.394l-65.146,65.147c-5.858,5.858-5.858,15.354,0,21.213l65.146,65.148    c2.813,2.813,6.629,4.393,10.605,4.393h0.001c3.979,0,7.794-1.58,10.607-4.395l65.141-65.151    C276.605,199.739,276.604,190.242,270.746,184.385z"/>
		<polygon style="fill:#FF509D;" points="194.997,151.063 194.997,151.063 151.063,194.996 194.997,238.931 238.928,194.992   "/>
		<g>
			<path style="fill:#7F40BD;" d="M195,114.849c3.979,0,7.794,1.581,10.606,4.394l65.142,65.143c5.858,5.857,5.859,15.354,0,21.213     l-65.141,65.151c-2.813,2.814-6.629,4.395-10.607,4.395h-0.002v48.639l128.781-128.795L195,66.209l-0.002,0.001v48.639H195z"/>
			<path style="fill:#0082CF;" d="M359.992,194.987c0-3.839-1.465-7.678-4.395-10.605l-4.393-4.395L209.996,38.78l-4.39-4.391     c-2.929-2.93-6.767-4.392-10.608-4.392V66.21L195,66.209l128.779,128.778L194.998,323.782v36.214H195     c3.979,0,7.794-1.581,10.607-4.395l4.389-4.389l141.21-141.226l4.392-4.395C358.528,202.665,359.992,198.825,359.992,194.987z"/>
			<polygon style="fill:#FF017B;" points="238.931,194.992 195,151.063 194.998,151.063 194.998,238.931    "/>
			<path style="fill:#F48CC2;" d="M205.607,270.749l65.141-65.151c5.859-5.858,5.858-15.355,0-21.213l-65.142-65.143     c-2.813-2.813-6.628-4.394-10.606-4.394h-0.002v36.215l0.002-0.001l43.931,43.93l-43.933,43.938v36.213H195     C198.979,275.144,202.794,273.563,205.607,270.749z"/>
		</g>
	</g>
</g>















</svg>
