<?xml version="1.0" encoding="iso-8859-1"?>
<!-- Generator: Adobe Illustrator 16.0.0, SVG Export Plug-In . SVG Version: 6.00 Build 0)  -->
<!DOCTYPE svg PUBLIC "-//W3C//DTD SVG 1.1//EN" "http://www.w3.org/Graphics/SVG/1.1/DTD/svg11.dtd">
<svg xmlns="http://www.w3.org/2000/svg" xmlns:xlink="http://www.w3.org/1999/xlink" version="1.1" id="Layer_1" x="0px" y="0px" width="512" height="512" viewBox="0 0 329.998 329.998" style="enable-background:new 0 0 329.998 329.998;" xml:space="preserve">
<g>
	<path style="fill:#FFDBAA;" d="M224.999,80h-60h-60c-8.285,0-15,6.716-15,15c0,41.355,33.645,75,75,75s75-33.645,75-75   C239.999,86.716,233.284,80,224.999,80z"/>
	<path style="fill:#FFC86D;" d="M224.999,80h-60v90c41.355,0,75-33.645,75-75C239.999,86.716,233.284,80,224.999,80z"/>
	<path style="fill:#FF8600;" d="M164.999,200c-63.41,0-115,51.588-115,114.998c0,8.285,6.715,15,15,15h100h100   c8.285,0,15-6.715,15-15C279.999,251.588,228.411,200,164.999,200z"/>
	<path style="fill:#E07200;" d="M164.999,200v129.998h100c8.285,0,15-6.715,15-15C279.999,251.588,228.411,200,164.999,200z"/>
	<g>
		<path style="fill:#57555D;" d="M104.999,60c-8.285,0-15,6.716-15,15v90c0,8.284,6.715,15,15,15s15-6.716,15-15V75    C119.999,66.716,113.284,60,104.999,60z"/>
		<path style="fill:#3C3A3F;" d="M224.999,60c-8.285,0-15,6.716-15,15v90c0,8.284,6.715,15,15,15s15-6.716,15-15V75    C239.999,66.716,233.284,60,224.999,60z"/>
	</g>
	<path style="fill:#FF8600;" d="M272.749,60h-34.258c-6.969-34.191-37.273-60-73.492-60s-66.521,25.809-73.49,60h-34.26   c-8.285,0-15,6.716-15,15s6.715,15,15,15h107.75h107.75c8.285,0,15-6.716,15-15S281.034,60,272.749,60z"/>
	<path style="fill:#E07200;" d="M272.749,60h-34.258c-6.969-34.191-37.273-60-73.492-60v90h107.75c8.285,0,15-6.716,15-15   S281.034,60,272.749,60z"/>
</g>















</svg>
