<?xml version="1.0" encoding="iso-8859-1"?>
<!-- Generator: Adobe Illustrator 16.0.0, SVG Export Plug-In . SVG Version: 6.00 Build 0)  -->
<!DOCTYPE svg PUBLIC "-//W3C//DTD SVG 1.1//EN" "http://www.w3.org/Graphics/SVG/1.1/DTD/svg11.dtd">
<svg xmlns="http://www.w3.org/2000/svg" xmlns:xlink="http://www.w3.org/1999/xlink" version="1.1" id="Layer_1" x="0px" y="0px" width="512" height="512" viewBox="0 0 354.744 354.744" style="enable-background:new 0 0 354.744 354.744;" xml:space="preserve">
<g>
	<g>
		<path style="fill:#FFB65B;" d="M209.989,248.705c4.192-2.769,8.101-5.959,11.683-9.543c14.16-14.157,21.953-32.982,21.951-53.011    c0-3.555-0.25-7.105-0.746-10.615l89.795-89.796l-10.609-10.61l-10.604-10.606l-10.602-10.602l-10.609-10.612l-10.613-10.606    l-10.602-10.605l-89.803,89.801c-23.16-3.276-46.889,4.462-63.624,21.199c-3.579,3.582-6.771,7.485-9.542,11.678    c-28.161-0.315-55.172,10.61-75.309,30.748C10.922,195.354-0.002,221.719,0,249.76c0.002,0.005,0,0.008,0,0.01    c0.004,28.05,10.928,54.416,30.755,74.246c0.001,0,0.005,0.001,0.005,0.002c40.938,40.937,107.548,40.934,148.488-0.002    C199.326,303.937,210.285,277.111,209.989,248.705z"/>
		<path style="fill:#FFA828;" d="M209.989,248.705c4.192-2.769,8.101-5.959,11.683-9.543c14.16-14.157,21.953-32.982,21.951-53.011    c0-3.555-0.25-7.105-0.746-10.615l89.795-89.796l-10.609-10.61l-10.604-10.606l-10.602-10.602l-121.609,121.61l-49.496,49.498    l-14.139,14.137l-21.215,21.213L30.76,324.018c40.938,40.937,107.548,40.934,148.488-0.002    C199.326,303.937,210.285,277.111,209.989,248.705z"/>
	</g>
	<path style="fill:#EBBE7B;" d="M293.781,18.56l42.426,42.428c0.004,0.001,0.008,0.008,0.016,0.012l-42.451-42.451   C293.771,18.554,293.779,18.557,293.781,18.56z"/>
	<g>
		<g>
			<path style="fill:#9B4C00;" d="M258.426,25.632l3.535,3.533v0.001l10.605,10.606l10.607,10.608l10.613,10.613l10.602,10.6     l10.607,10.606L325.6,92.806l0.002,0.002l3.537,3.533c5.859,5.858,15.354,5.858,21.211,0c5.859-5.858,5.859-15.354,0-21.214     L336.223,61c-0.008-0.004-0.012-0.011-0.016-0.012l-21.205-21.209L293.781,18.56c-0.002-0.003-0.01-0.006-0.01-0.011     l-14.131-14.13c-5.861-5.856-15.357-5.857-21.217-0.001c-2.926,2.929-4.393,6.769-4.391,10.608     C254.031,18.864,255.498,22.703,258.426,25.632z"/>
			<path style="fill:#9B4C00;" d="M307.924,117.554l-3.535-3.532l-0.002-0.004l-10.605-10.605l-10.605-10.607l-10.602-10.601     l-10.609-10.61l-10.611-10.608L240.75,50.379l-3.535-3.535c-5.857-5.857-15.352-5.858-21.215,0.002     c-2.926,2.929-4.394,6.765-4.391,10.605c-0.003,3.838,1.464,7.677,4.391,10.605l3.537,3.536l10.602,10.605l10.613,10.605     l10.609,10.612l0.002,0.001l10.6,10.602l10.605,10.606l10.609,10.61l3.533,3.536c5.861,5.855,15.357,5.857,21.213-0.001     C313.781,132.91,313.781,123.411,307.924,117.554z"/>
		</g>
		<path style="fill:#6D3802;" d="M314.996,82.199L325.6,92.806l0.002,0.002l3.537,3.533c5.859,5.858,15.354,5.858,21.211,0    c5.859-5.858,5.859-15.354,0-21.214L336.223,61c-0.008-0.004-0.012-0.011-0.016-0.012l-21.205-21.209l-21.215,21.215l10.602,10.6    L314.996,82.199z"/>
		<path style="fill:#6D3802;" d="M307.924,117.554l-3.535-3.532l-0.002-0.004l-10.605-10.605l-10.605-10.607l-10.602-10.601    l-21.211,21.212l10.6,10.602l10.605,10.606l10.609,10.61l3.533,3.536c5.861,5.855,15.357,5.857,21.213-0.001    C313.781,132.91,313.781,123.411,307.924,117.554z"/>
	</g>
	<path style="fill:#57555D;" d="M189.494,200.273c0-0.585-0.016-1.167-0.042-1.747c-0.002-0.054-0.011-0.112-0.012-0.168   c-0.03-0.522-0.066-1.044-0.116-1.561c-0.01-0.105-0.025-0.209-0.037-0.314c-0.052-0.468-0.105-0.936-0.172-1.4   c-0.004-0.025-0.01-0.053-0.015-0.08c-0.081-0.54-0.175-1.078-0.28-1.612c-0.021-0.109-0.049-0.214-0.072-0.321   c-1.373-6.596-4.627-12.659-9.5-17.539c-0.003-0.004-0.007-0.006-0.01-0.01c-13.639-13.64-35.842-13.642-49.492,0   c-6.615,6.617-10.254,15.404-10.252,24.751c0.002,9.35,3.642,18.138,10.254,24.751c-0.002,0.002,0,0.002,0.004,0.004   c1.236,1.238,2.553,2.374,3.936,3.398c0.107,0.081,0.221,0.155,0.33,0.234c0.354,0.255,0.709,0.513,1.072,0.754   c0.187,0.125,0.377,0.238,0.564,0.359c0.293,0.187,0.584,0.38,0.879,0.558c0.952,0.57,1.928,1.092,2.926,1.566   c0.025,0.013,0.051,0.026,0.076,0.04c2.543,1.203,5.229,2.091,8.006,2.646c0.023,0.006,0.049,0.013,0.07,0.017   c2.242,0.445,4.545,0.673,6.883,0.673c9.346,0,18.136-3.641,24.747-10.252C185.854,218.412,189.494,209.624,189.494,200.273z"/>
	<path style="fill:#3C3A3F;" d="M133.688,228.427c0.107,0.081,0.221,0.155,0.33,0.234c0.354,0.255,0.709,0.513,1.072,0.754   c0.187,0.125,0.377,0.238,0.564,0.359c0.293,0.187,0.584,0.38,0.879,0.558c0.952,0.57,1.928,1.092,2.926,1.566   c0.025,0.013,0.051,0.026,0.076,0.04c2.543,1.203,5.229,2.091,8.006,2.646c0.023,0.006,0.049,0.013,0.07,0.017   c2.242,0.445,4.545,0.673,6.883,0.673c9.346,0,18.136-3.641,24.747-10.252c6.613-6.61,10.253-15.398,10.253-24.749   c0-0.585-0.016-1.167-0.042-1.747c-0.002-0.054-0.011-0.112-0.012-0.168c-0.03-0.522-0.066-1.044-0.116-1.561   c-0.01-0.105-0.025-0.209-0.037-0.314c-0.052-0.468-0.105-0.936-0.172-1.4c-0.004-0.025-0.01-0.053-0.015-0.08   c-0.081-0.54-0.175-1.078-0.28-1.612c-0.021-0.109-0.049-0.214-0.072-0.321c-1.373-6.596-4.627-12.659-9.5-17.539l-49.496,49.496   C130.988,226.266,132.305,227.402,133.688,228.427z"/>
	<path style="fill:#9B4C00;" d="M136.82,260.374l-21.207-21.208l-21.219-21.216c-5.858-5.859-15.354-5.859-21.211,0   c-2.931,2.928-4.398,6.768-4.398,10.606c0,3.84,1.465,7.679,4.398,10.605l21.215,21.218l21.21,21.208   c5.856,5.86,15.353,5.858,21.212,0C142.676,275.729,142.679,266.229,136.82,260.374z"/>
	<path style="fill:#6D3802;" d="M115.608,281.586c5.856,5.86,15.353,5.858,21.212,0c5.855-5.856,5.858-15.357,0-21.212   l-21.207-21.208l-21.215,21.213L115.608,281.586z"/>
</g>















</svg>
