<?xml version="1.0" encoding="iso-8859-1"?>
<!-- Generator: Adobe Illustrator 16.0.0, SVG Export Plug-In . SVG Version: 6.00 Build 0)  -->
<!DOCTYPE svg PUBLIC "-//W3C//DTD SVG 1.1//EN" "http://www.w3.org/Graphics/SVG/1.1/DTD/svg11.dtd">
<svg xmlns="http://www.w3.org/2000/svg" xmlns:xlink="http://www.w3.org/1999/xlink" version="1.1" id="Layer_1" x="0px" y="0px" width="512" height="512" viewBox="0 0 330.001 330.001" style="enable-background:new 0 0 330.001 330.001;" xml:space="preserve">
<g>
	<path style="fill:#FF4B0C;" d="M280.225,73.15C279.292,65.639,272.909,60,265.338,60H165H64.663   c-7.568,0-13.951,5.639-14.885,13.15c-13.58,109.293,12.195,239.328,13.299,244.811C64.487,324.963,70.639,330,77.782,330H135   c0.008,0.002,0.016,0,0.02,0c8.285,0,15-6.715,15-15c0-1.83-0.326-3.582-0.926-5.203l-14.049-45.658   c5.813-2.066,9.975-7.617,9.975-14.139c0-1.09-0.115-2.15-0.336-3.176L137.221,200H165h27.779l-7.592,47.639   c-0.691,4.336,0.553,8.758,3.402,12.098c1.723,2.018,3.926,3.52,6.369,4.391l-14.295,46.463c-1.4,4.549-0.557,9.492,2.271,13.322   C185.762,327.74,190.241,330,195,330h57.219c7.143,0,13.295-5.037,14.705-12.039C268.028,312.479,293.803,182.443,280.225,73.15z"/>
	<path style="fill:#FF2300;" d="M280.225,73.15C279.292,65.639,272.909,60,265.338,60H165v140h27.779l-7.592,47.639   c-0.691,4.336,0.553,8.758,3.402,12.098c1.723,2.018,3.926,3.52,6.369,4.391l-14.295,46.463c-1.4,4.549-0.557,9.492,2.271,13.322   C185.762,327.74,190.241,330,195,330h57.219c7.143,0,13.295-5.037,14.705-12.039C268.028,312.479,293.803,182.443,280.225,73.15z"/>
	<path style="fill:#57555D;" d="M291.127,170H165H38.874c-8.283,0-15,6.717-15,15c0,8.285,6.717,15,15,15H165h126.127   c8.285,0,15-6.715,15-15C306.127,176.717,299.413,170,291.127,170z"/>
	<path style="fill:#3C3A3F;" d="M291.127,170H165v30h126.127c8.285,0,15-6.715,15-15C306.127,176.717,299.413,170,291.127,170z"/>
	<path style="fill:#E3E3E5;" d="M280.225,73.15c-2.938-23.643-7.586-44.846-13.816-63.016C264.331,4.072,258.629,0,252.219,0H165   H77.782c-6.408,0-12.109,4.072-14.188,10.135c-6.23,18.166-10.879,39.367-13.816,63.016c-0.531,4.268,0.797,8.559,3.645,11.781   C56.268,88.154,60.362,90,64.663,90H165h100.338c4.301,0,8.395-1.846,11.242-5.068S280.754,77.418,280.225,73.15z"/>
	<path style="fill:#D6D5D8;" d="M280.225,73.15c-2.938-23.643-7.586-44.846-13.816-63.016C264.331,4.072,258.629,0,252.219,0H165v90   h100.338c4.301,0,8.395-1.846,11.242-5.068S280.754,77.418,280.225,73.15z"/>
</g>















</svg>
