<?xml version="1.0" encoding="iso-8859-1"?>
<!-- Generator: Adobe Illustrator 16.0.0, SVG Export Plug-In . SVG Version: 6.00 Build 0)  -->
<!DOCTYPE svg PUBLIC "-//W3C//DTD SVG 1.1//EN" "http://www.w3.org/Graphics/SVG/1.1/DTD/svg11.dtd">
<svg xmlns="http://www.w3.org/2000/svg" xmlns:xlink="http://www.w3.org/1999/xlink" version="1.1" id="Layer_1" x="0px" y="0px" width="512" height="512" viewBox="0 0 300.418 300.418" style="enable-background:new 0 0 300.418 300.418;" xml:space="preserve">
<g>
	<g>
		<path style="fill:#FFC37E;" d="M83.881,216.525L83.881,216.525l-31.819-31.82l-38.894,38.893    c-17.541,17.543-17.541,46.092,0.001,63.639l0.001,0.002c8.5,8.5,19.799,13.178,31.82,13.18    c12.018-0.002,23.318-4.68,31.818-13.182l38.892-38.891L83.881,216.525z"/>
		<path style="fill:#FFB85D;" d="M83.881,216.525L83.881,216.525l-70.712,70.711l0.001,0.002c8.5,8.5,19.799,13.178,31.82,13.18    c12.018-0.002,23.318-4.68,31.818-13.182l38.892-38.891L83.881,216.525z"/>
	</g>
	<path style="fill:#FF7D54;" d="M296.01,103.391l-49.496-49.498l-49.497-49.5C194.204,1.582,190.391,0,186.41,0   c-3.98,0-7.795,1.58-10.605,4.395L27.313,152.887c-2.814,2.813-4.394,6.627-4.394,10.605c-0.001,3.979,1.579,7.793,4.394,10.605   l17.678,17.68l31.818,31.818l31.82,31.82l17.679,17.678c2.813,2.816,6.628,4.395,10.606,4.395   c3.979-0.002,7.793-1.582,10.605-4.395l148.492-148.492C301.87,118.744,301.87,109.246,296.01,103.391z"/>
	<path style="fill:#FF4B0C;" d="M296.01,103.391l-49.496-49.498l-63.64,63.639L76.809,223.596l31.82,31.82l17.679,17.678   c2.813,2.816,6.628,4.395,10.606,4.395c3.979-0.002,7.793-1.582,10.605-4.395l148.492-148.492   C301.87,118.744,301.87,109.246,296.01,103.391z"/>
	<path style="fill:#FF2300;" d="M182.875,117.531c-5.858-5.857-15.354-5.857-21.213,0l-74.245,74.246l-10.605,10.605   c-5.857,5.859-5.857,15.355-0.002,21.213c2.928,2.928,6.768,4.393,10.607,4.395c3.838,0,7.68-1.463,10.606-4.395l10.603-10.605   l74.248-74.244C188.735,132.889,188.731,123.389,182.875,117.531z"/>
</g>















</svg>
