<?xml version="1.0" encoding="iso-8859-1"?>
<!-- Generator: Adobe Illustrator 16.0.0, SVG Export Plug-In . SVG Version: 6.00 Build 0)  -->
<!DOCTYPE svg PUBLIC "-//W3C//DTD SVG 1.1//EN" "http://www.w3.org/Graphics/SVG/1.1/DTD/svg11.dtd">
<svg xmlns="http://www.w3.org/2000/svg" xmlns:xlink="http://www.w3.org/1999/xlink" version="1.1" id="Layer_1" x="0px" y="0px" width="512" height="512" viewBox="0 0 330 330" style="enable-background:new 0 0 330 330;" xml:space="preserve">
<g>
	<path style="fill:#45D739;" d="M165,0C74.019,0,0,74.019,0,165c0,90.982,74.019,165,165,165c90.98,0,165-74.018,165-165   C330,74.019,255.98,0,165,0z"/>
	<path style="fill:#16AF15;" d="M165,0v330c90.98,0,165-74.018,165-165C330,74.019,255.98,0,165,0z"/>
	<g>
		<path style="fill:#FFDE51;" d="M89.109,103.865L150,139.02V68.654C125.516,72.452,104.02,85.394,89.109,103.865z"/>
		<path style="fill:#FFD400;" d="M180,68.654v70.365l60.891-35.154C225.98,85.394,204.484,72.452,180,68.654z"/>
		<path style="fill:#FFDE51;" d="M74.068,129.822C69.83,140.74,67.5,152.603,67.5,165c0,12.398,2.33,24.261,6.568,35.18L135,165.001    L74.068,129.822z"/>
		<path style="fill:#FFDE51;" d="M150,261.348v-70.367l-60.891,35.156C104.02,244.608,125.516,257.55,150,261.348z"/>
		<path style="fill:#FFD400;" d="M180,261.348c24.483-3.798,45.98-16.739,60.891-35.21L180,190.982V261.348z"/>
		<path style="fill:#FFD400;" d="M255.932,129.822l-60.934,35.179l60.932,35.179c4.239-10.918,6.57-22.781,6.57-35.18    C262.5,152.603,260.169,140.74,255.932,129.822z"/>
	</g>
</g>















</svg>
