<?xml version="1.0" encoding="iso-8859-1"?>
<!-- Generator: Adobe Illustrator 16.0.0, SVG Export Plug-In . SVG Version: 6.00 Build 0)  -->
<!DOCTYPE svg PUBLIC "-//W3C//DTD SVG 1.1//EN" "http://www.w3.org/Graphics/SVG/1.1/DTD/svg11.dtd">
<svg xmlns="http://www.w3.org/2000/svg" xmlns:xlink="http://www.w3.org/1999/xlink" version="1.1" id="Layer_1" x="0px" y="0px" width="512" height="512" viewBox="0 0 373.757 373.757" style="enable-background:new 0 0 373.757 373.757;" xml:space="preserve">
<g>
	<g>
		<path style="fill:#6D3802;" d="M227.303,218.387c-0.008-0.008-0.017-0.016-0.025-0.024c-3.57-3.569-6.624-7.606-9.169-12.043    l-31.228,31.227l-10.606,10.607l-10.606,10.606l-17.514,17.514c-2.93,2.93-4.394,6.768-4.393,10.606    c-0.001,3.838,1.465,7.679,4.393,10.605c0.008,0.009,0.018,0.016,0.026,0.024c5.86,5.834,15.338,5.826,21.187-0.023l17.514-17.514    l10.606-10.606l10.608-10.606l31.214-31.215C234.9,225.009,230.877,221.956,227.303,218.387z"/>
		<path style="fill:#FFB65B;" d="M373.757,153.546c0-21.802-8.484-42.298-23.892-57.72c-0.01-0.009-0.018-0.018-0.025-0.024    c0-0.001-0.001-0.002-0.002-0.003c-15.426-15.424-35.932-23.918-57.745-23.921c-21.814,0-42.321,8.495-57.747,23.92    c-19.357,19.36-32.365,51.666-32.365,80.392c0,14.217,3.104,26.821,9.057,37.201c2.545,4.437,5.598,8.472,9.168,12.041    l0.002,0.002c0.008,0.008,0.017,0.016,0.025,0.025c3.573,3.568,7.596,6.621,12.006,9.157c14.74,8.483,33.846,11.135,55.323,7.448    c23.815-4.088,47.097-15.592,62.279-30.773C365.265,195.866,373.756,175.359,373.757,153.546z"/>
		<path style="fill:#FFA828;" d="M373.757,153.546c0-21.802-8.484-42.298-23.892-57.72c-0.01-0.009-0.018-0.018-0.025-0.024    c0-0.001-0.001-0.002-0.002-0.003L220.205,225.432l0.002,0.002c0.008,0.008,0.017,0.016,0.025,0.025    c3.573,3.568,7.596,6.621,12.006,9.157c14.74,8.483,33.846,11.135,55.323,7.448c23.815-4.088,47.097-15.592,62.279-30.773    C365.265,195.866,373.756,175.359,373.757,153.546z"/>
		<path style="fill:#FF509D;" d="M363.209,189.547v-0.003c0.001-8.283-6.714-14.998-14.996-15.001l-31.031-0.006l-0.004-31.027    c0-4.142-1.679-7.891-4.393-10.605c-2.713-2.713-6.461-4.393-10.604-4.394l-31.033-0.009l-0.002-31.024    c0-8.284-6.717-15-15.001-14.997c-8.284-0.001-14.999,6.715-14.999,14.999l0.004,46.021c0,8.282,6.715,14.998,14.996,14.999    l31.033,0.007v0.004l0.002,31.023c0,8.283,6.715,14.998,14.996,14.999l46.029,0.012    C356.491,204.546,363.207,197.831,363.209,189.547z"/>
		<path style="fill:#FF017B;" d="M287.182,189.533c0,8.283,6.715,14.998,14.996,14.999l46.029,0.012    c8.284,0.002,15-6.713,15.002-14.997v-0.003c0.001-8.283-6.714-14.998-14.996-15.001l-31.031-0.006l-0.004-31.027    c0-4.142-1.679-7.891-4.393-10.605L287.18,158.51L287.182,189.533z"/>
	</g>
	<g>
		<path style="fill:#9B4C00;" d="M146.509,218.331c-0.009,0.009-0.016,0.017-0.024,0.026c-3.569,3.569-7.605,6.623-12.043,9.168    l31.227,31.228l10.607,10.606l10.607,10.606l17.512,17.514c2.931,2.931,6.77,4.394,10.608,4.394    c3.837,0.002,7.678-1.465,10.605-4.393c0.009-0.008,0.015-0.019,0.023-0.026c5.835-5.86,5.827-15.338-0.023-21.188l-17.514-17.513    l-10.606-10.607l-10.607-10.607l-31.213-31.215C153.131,210.734,150.078,214.758,146.509,218.331z"/>
		<path style="fill:#FFB65B;" d="M81.668,71.877c-21.803,0-42.297,8.484-57.719,23.894c-0.01,0.009-0.018,0.016-0.025,0.023    c-0.001,0.001-0.002,0.001-0.002,0.002C8.496,111.223,0.003,131.728,0,153.543c0,21.813,8.496,42.32,23.92,57.746    c19.359,19.357,51.666,32.365,80.392,32.364c14.216,0.001,26.821-3.104,37.202-9.057c4.436-2.544,8.471-5.598,12.041-9.168    l0.001-0.001c0.009-0.009,0.017-0.018,0.024-0.025c3.568-3.574,6.622-7.598,9.158-12.007c8.483-14.739,11.135-33.845,7.447-55.323    c-4.088-23.814-15.591-47.096-30.773-62.278C123.988,80.37,103.48,71.877,81.668,71.877z"/>
		<path style="fill:#FFA828;" d="M81.668,71.877c-21.803,0-42.297,8.484-57.719,23.894c-0.01,0.009-0.018,0.016-0.025,0.023    c-0.001,0.001-0.002,0.001-0.002,0.002l129.633,129.633l0.001-0.001c0.009-0.009,0.017-0.018,0.024-0.025    c3.568-3.574,6.622-7.598,9.158-12.007c8.483-14.739,11.135-33.845,7.447-55.323c-4.088-23.814-15.591-47.096-30.773-62.278    C123.988,80.37,103.48,71.877,81.668,71.877z"/>
		<path style="fill:#45D739;" d="M117.668,82.425l-0.002-0.001c-8.283,0-14.998,6.715-15.002,14.997l-0.005,31.032l-31.026,0.003    c-4.143,0-7.892,1.68-10.606,4.393c-2.714,2.714-4.392,6.463-4.394,10.604l-0.008,31.033L25.6,174.487    c-8.285,0-15,6.717-14.998,15.001c0,8.285,6.715,15,15,14.999l46.021-0.004c8.282-0.001,14.997-6.714,14.999-14.996l0.008-31.033    h0.003l31.024-0.002c8.281,0,14.996-6.715,15-14.996l0.01-46.028C132.668,89.143,125.953,82.428,117.668,82.425z"/>
		<path style="fill:#16AF15;" d="M117.656,158.452c8.281,0,14.996-6.715,15-14.996l0.01-46.028c0.002-8.285-6.713-15-14.998-15.003    l-0.002-0.001c-8.283,0-14.998,6.715-15.002,14.997l-0.005,31.032l-31.026,0.003c-4.143,0-7.892,1.68-10.606,4.393l25.605,25.605    L117.656,158.452z"/>
	</g>
</g>















</svg>
