<?xml version="1.0" encoding="iso-8859-1"?>
<!-- Generator: Adobe Illustrator 16.0.0, SVG Export Plug-In . SVG Version: 6.00 Build 0)  -->
<!DOCTYPE svg PUBLIC "-//W3C//DTD SVG 1.1//EN" "http://www.w3.org/Graphics/SVG/1.1/DTD/svg11.dtd">
<svg xmlns="http://www.w3.org/2000/svg" xmlns:xlink="http://www.w3.org/1999/xlink" version="1.1" id="Layer_1" x="0px" y="0px" width="512" height="512" viewBox="0 0 360 360" style="enable-background:new 0 0 360 360;" xml:space="preserve">
<g>
	<circle style="fill:#FFDE51;" cx="270" cy="75" r="75"/>
	<path style="fill:#FFD400;" d="M270,0v150c41.421,0,75-33.579,75-75S311.421,0,270,0z"/>
	<g>
		<path style="fill:#D2FA52;" d="M252.43,90h-0.025c-1.988,5.59-5.067,10.753-9.051,15.168    C247.307,100.801,250.422,95.662,252.43,90z"/>
		<path style="fill:#D2FA52;" d="M134.197,208.311c0.269,0.058,0.533,0.126,0.803,0.181v-0.017    C134.732,208.42,134.464,208.368,134.197,208.311z"/>
		<path style="fill:#D2FA52;" d="M165,208.491c0.27-0.055,0.533-0.123,0.803-0.181c-0.267,0.058-0.535,0.11-0.803,0.164V208.491z"/>
	</g>
	<g>
		<path style="fill:#FFFFFF;" d="M252.404,80H210H47.57H33.415l4.729,13.341C45.918,115.268,66.758,130,90,130    c1.791,0,3.404,0.936,4.317,2.504C94.771,133.284,95,134.122,95,135c0,6.249,1.055,12.403,3.137,18.289    c0.043,0.131,0.082,0.247,0.123,0.359c0.061,0.172,0.131,0.353,0.197,0.532l0.059,0.152l0.012,0.033l0.013,0.033    c0.202,0.536,0.413,1.067,0.632,1.595c0.102,0.248,0.212,0.51,0.326,0.772c0.23,0.537,0.484,1.096,0.746,1.649l0.047,0.1    c0.071,0.155,0.144,0.311,0.219,0.464c0.359,0.74,0.729,1.461,1.103,2.153l0.032,0.059l0.033,0.059l0.141,0.25l0.035,0.061    c0.334,0.603,0.654,1.159,0.98,1.701c0.133,0.221,0.268,0.437,0.4,0.653c0.3,0.483,0.609,0.965,0.926,1.441l0.049,0.073    c0.127,0.194,0.256,0.386,0.387,0.577c0.372,0.542,0.746,1.069,1.131,1.589c0.1,0.141,0.185,0.258,0.271,0.373    c0.479,0.637,0.98,1.276,1.496,1.903c0.094,0.115,0.205,0.246,0.316,0.376l0.049,0.056c0.4,0.478,0.799,0.938,1.205,1.393    c0.145,0.162,0.267,0.294,0.388,0.425l0.122,0.132c0.412,0.448,0.814,0.87,1.223,1.285l0.109,0.112    c0.143,0.145,0.283,0.289,0.43,0.432c0.502,0.5,1.008,0.981,1.514,1.446l0.01,0.009l0.102,0.096l0.104,0.094    c0.57,0.515,1.182,1.044,1.814,1.571c0.152,0.126,0.313,0.256,0.474,0.385l0.067,0.054c0.449,0.365,0.904,0.723,1.367,1.075    c0.182,0.139,0.377,0.284,0.57,0.428l0.021,0.015l0.053,0.04c0.468,0.343,0.94,0.681,1.417,1.009l0.144,0.101    c0.148,0.101,0.295,0.204,0.443,0.303c0.707,0.474,1.375,0.901,2.025,1.297c0.106,0.064,0.184,0.11,0.258,0.154    c0.613,0.368,1.225,0.719,1.832,1.052c0.181,0.101,0.363,0.198,0.548,0.295l0.128,0.067c0.498,0.268,1.016,0.532,1.539,0.79    c0.236,0.117,0.48,0.237,0.729,0.354c0.557,0.263,1.121,0.519,1.689,0.765l0.091,0.04c0.149,0.066,0.298,0.133,0.446,0.195    c0.735,0.31,1.498,0.611,2.267,0.896c0.173,0.063,0.31,0.111,0.447,0.158l0.058,0.021c0.67,0.238,1.27,0.441,1.849,0.625    c0.266,0.085,0.528,0.165,0.792,0.245c0.541,0.162,1.086,0.318,1.639,0.465l0.025,0.008l0.023,0.007l0.178,0.046    c0.185,0.049,0.369,0.098,0.555,0.145c0.68,0.171,1.34,0.324,1.979,0.459c0.164,0.038,0.303,0.069,0.443,0.099    c0.838,0.169,1.664,0.317,2.494,0.446c0.159,0.026,0.359,0.055,0.561,0.081l0.123,0.017c0.601,0.087,1.217,0.167,1.836,0.234    c0.306,0.033,0.586,0.062,0.866,0.087c0.583,0.055,1.185,0.1,1.787,0.137l0.167,0.011c0.203,0.013,0.406,0.025,0.609,0.035    c0.955,0.043,1.793,0.064,2.582,0.064s1.627-0.021,2.561-0.063c0.225-0.011,0.428-0.023,0.631-0.036l0.17-0.011    c0.6-0.037,1.201-0.082,1.799-0.138c0.268-0.025,0.553-0.053,0.834-0.083c0.635-0.069,1.252-0.148,1.865-0.237l0.111-0.016    c0.201-0.026,0.401-0.055,0.601-0.086c0.79-0.124,1.616-0.272,2.415-0.434c0.188-0.039,0.338-0.073,0.486-0.108    c0.613-0.129,1.287-0.285,1.961-0.454c0.2-0.051,0.383-0.1,0.568-0.148l0.178-0.046l0.023-0.007l0.025-0.008    c0.552-0.147,1.098-0.304,1.643-0.467c0.264-0.08,0.529-0.16,0.795-0.245c0.572-0.182,1.174-0.385,1.826-0.618l0.072-0.025    c0.139-0.047,0.275-0.095,0.412-0.145c0.805-0.298,1.567-0.6,2.303-0.909c0.149-0.063,0.297-0.128,0.445-0.195l0.08-0.035    c0.58-0.251,1.145-0.507,1.705-0.772c0.182-0.086,0.365-0.175,0.549-0.266l0.146-0.072c0.551-0.27,1.064-0.534,1.574-0.806    l0.119-0.063c0.178-0.094,0.354-0.188,0.53-0.285c0.644-0.353,1.263-0.71,1.854-1.065c0.078-0.044,0.148-0.086,0.219-0.128    c0.688-0.419,1.355-0.847,2.078-1.332c0.145-0.096,0.302-0.206,0.459-0.315l0.108-0.076c0.478-0.328,0.956-0.67,1.429-1.018    c0.209-0.154,0.43-0.317,0.648-0.484c0.455-0.348,0.909-0.704,1.355-1.067l0.064-0.051c0.162-0.13,0.322-0.26,0.483-0.393    c0.642-0.533,1.237-1.049,1.814-1.572l0.048-0.043l0.047-0.043l0.082-0.079c0.516-0.472,1.032-0.965,1.576-1.504    c0.127-0.125,0.258-0.26,0.389-0.393l0.111-0.113c0.412-0.42,0.813-0.838,1.203-1.263c0.172-0.187,0.344-0.372,0.513-0.56    c0.43-0.48,0.829-0.942,1.22-1.409l0.057-0.066c0.114-0.131,0.227-0.264,0.336-0.398c0.496-0.604,0.999-1.244,1.477-1.877    c0.09-0.121,0.174-0.237,0.256-0.352c0.402-0.546,0.777-1.073,1.143-1.606c0.135-0.196,0.262-0.387,0.389-0.579l0.057-0.086    c0.313-0.47,0.623-0.952,0.924-1.44c0.128-0.204,0.264-0.423,0.396-0.645c0.336-0.558,0.664-1.128,1.008-1.748l0.007-0.013    l0.144-0.253l0.029-0.053l0.03-0.054c0.372-0.686,0.733-1.392,1.104-2.155c0.078-0.163,0.152-0.317,0.223-0.472l0.045-0.098    c0.264-0.558,0.518-1.117,0.76-1.68c0.111-0.259,0.218-0.51,0.32-0.761c0.213-0.512,0.423-1.044,0.627-1.58l0.012-0.031    l0.012-0.031l0.057-0.15c0.068-0.183,0.138-0.364,0.203-0.548c0.039-0.107,0.08-0.228,0.12-0.349    C203.945,147.396,205,141.246,205,135c0-0.878,0.229-1.716,0.682-2.493c0.913-1.571,2.527-2.507,4.318-2.507    c9.882,0,19.586-2.669,28.066-7.719c0.307-0.182,0.648-0.39,0.988-0.602c0.314-0.196,0.648-0.409,0.982-0.626    c0.311-0.203,0.621-0.414,0.93-0.626l0.043-0.029c0.305-0.207,0.609-0.415,0.907-0.628c0.29-0.207,0.565-0.411,0.841-0.617    l0.14-0.105l0.208-0.155c0.211-0.156,0.422-0.314,0.629-0.476c0.547-0.424,1.117-0.888,1.689-1.37    c0.147-0.124,0.297-0.255,0.445-0.386l0.086-0.076c0.4-0.348,0.814-0.711,1.221-1.084l0.035-0.032l0.035-0.033l0.283-0.269    l0.119-0.111c0.438-0.413,0.869-0.828,1.289-1.251c0.098-0.097,0.192-0.193,0.287-0.292c0.465-0.474,0.879-0.911,1.27-1.335    l0.033-0.032l0.25-0.277c4.889-5.419,8.605-11.648,11.049-18.517L266.574,80H252.404z"/>
		<path style="fill:#FFDE51;" d="M58.322,119.928C67.399,126.33,78.4,130,90,130c1.791,0,3.404,0.936,4.317,2.504    C94.771,133.284,95,134.122,95,135c0,6.249,1.055,12.403,3.137,18.289c0.043,0.131,0.082,0.247,0.123,0.359    c0.061,0.172,0.131,0.353,0.197,0.532l0.059,0.152l0.012,0.033l0.013,0.033c0.202,0.536,0.413,1.067,0.632,1.595    c0.102,0.248,0.212,0.51,0.326,0.772c0.23,0.537,0.484,1.096,0.746,1.649l0.047,0.1c0.071,0.155,0.144,0.311,0.219,0.464    c0.359,0.74,0.729,1.461,1.103,2.153l0.032,0.059l0.033,0.059l0.141,0.25l0.035,0.061c0.334,0.603,0.654,1.159,0.98,1.701    c0.133,0.221,0.268,0.437,0.4,0.653c0.3,0.483,0.609,0.965,0.926,1.441l0.049,0.073c0.127,0.194,0.256,0.386,0.387,0.577    c0.372,0.542,0.746,1.069,1.131,1.589c0.1,0.141,0.185,0.258,0.271,0.373c0.479,0.637,0.98,1.276,1.496,1.903    c0.094,0.115,0.205,0.246,0.316,0.376l0.049,0.056c0.4,0.478,0.799,0.938,1.205,1.393c0.145,0.162,0.267,0.294,0.388,0.425    l0.122,0.132c0.412,0.448,0.814,0.87,1.223,1.285l0.109,0.112c0.143,0.145,0.283,0.289,0.43,0.432    c0.502,0.5,1.008,0.981,1.514,1.446l0.01,0.009l0.102,0.096l0.104,0.094c0.57,0.515,1.182,1.044,1.814,1.571    c0.152,0.126,0.313,0.256,0.474,0.385l0.067,0.054c0.449,0.365,0.904,0.723,1.367,1.075c0.182,0.139,0.377,0.284,0.57,0.428    l0.021,0.015l0.053,0.04c0.468,0.343,0.94,0.681,1.417,1.009l0.144,0.101c0.148,0.101,0.295,0.204,0.443,0.303    c0.707,0.474,1.375,0.901,2.025,1.297c0.106,0.064,0.184,0.11,0.258,0.154c0.613,0.368,1.225,0.719,1.832,1.052    c0.181,0.101,0.363,0.198,0.548,0.295l0.128,0.067c0.498,0.268,1.016,0.532,1.539,0.79c0.236,0.117,0.48,0.237,0.729,0.354    c0.557,0.263,1.121,0.519,1.689,0.765l0.091,0.04c0.149,0.066,0.298,0.133,0.446,0.195c0.735,0.31,1.498,0.611,2.267,0.896    c0.173,0.063,0.31,0.111,0.447,0.158l0.058,0.021c0.67,0.238,1.27,0.441,1.849,0.625c0.266,0.085,0.528,0.165,0.792,0.245    c0.541,0.162,1.086,0.318,1.639,0.465l0.025,0.008l0.023,0.007l0.178,0.046c0.185,0.049,0.369,0.098,0.555,0.145    c0.68,0.171,1.34,0.324,1.979,0.459c0.164,0.038,0.303,0.069,0.443,0.099c0.838,0.169,1.664,0.317,2.494,0.446    c0.159,0.026,0.359,0.055,0.561,0.081l0.123,0.017c0.601,0.087,1.217,0.167,1.836,0.234c0.306,0.033,0.586,0.062,0.866,0.087    c0.583,0.055,1.185,0.1,1.787,0.137l0.167,0.011c0.203,0.013,0.406,0.025,0.609,0.035c0.955,0.043,1.793,0.064,2.582,0.064    s1.627-0.021,2.561-0.063c0.225-0.011,0.428-0.023,0.631-0.036l0.17-0.011c0.6-0.037,1.201-0.082,1.799-0.138    c0.268-0.025,0.553-0.053,0.834-0.083c0.635-0.069,1.252-0.148,1.865-0.237l0.111-0.016c0.201-0.026,0.401-0.055,0.601-0.086    c0.79-0.124,1.616-0.272,2.415-0.434c0.188-0.039,0.338-0.073,0.486-0.108c0.613-0.129,1.287-0.285,1.961-0.454    c0.2-0.051,0.383-0.1,0.568-0.148l0.178-0.046l0.023-0.007l0.025-0.008c0.552-0.147,1.098-0.304,1.643-0.467    c0.264-0.08,0.529-0.16,0.795-0.245c0.572-0.182,1.174-0.385,1.826-0.618l0.072-0.025c0.139-0.047,0.275-0.095,0.412-0.145    c0.805-0.298,1.567-0.6,2.303-0.909c0.149-0.063,0.297-0.128,0.445-0.195l0.08-0.035c0.58-0.251,1.145-0.507,1.705-0.772    c0.182-0.086,0.365-0.175,0.549-0.266l0.146-0.072c0.551-0.27,1.064-0.534,1.574-0.806l0.119-0.063    c0.178-0.094,0.354-0.188,0.53-0.285c0.644-0.353,1.263-0.71,1.854-1.065c0.078-0.044,0.148-0.086,0.219-0.128    c0.688-0.419,1.355-0.847,2.078-1.332c0.145-0.096,0.302-0.206,0.459-0.315l0.108-0.076c0.478-0.328,0.956-0.67,1.429-1.018    c0.209-0.154,0.43-0.317,0.648-0.484c0.455-0.348,0.909-0.704,1.355-1.067l0.064-0.051c0.162-0.13,0.322-0.26,0.483-0.393    c0.642-0.533,1.237-1.049,1.814-1.572l0.048-0.043l0.047-0.043l0.082-0.079c0.516-0.472,1.032-0.965,1.576-1.504    c0.127-0.125,0.258-0.26,0.389-0.393l0.111-0.113c0.412-0.42,0.813-0.838,1.203-1.263c0.172-0.187,0.344-0.372,0.513-0.56    c0.43-0.48,0.829-0.942,1.22-1.409l0.057-0.066c0.114-0.131,0.227-0.264,0.336-0.398c0.496-0.604,0.999-1.244,1.477-1.877    c0.09-0.121,0.174-0.237,0.256-0.352c0.402-0.546,0.777-1.073,1.143-1.606c0.135-0.196,0.262-0.387,0.389-0.579l0.057-0.086    c0.313-0.47,0.623-0.952,0.924-1.44c0.128-0.204,0.264-0.423,0.396-0.645c0.336-0.558,0.664-1.128,1.008-1.748l0.007-0.013    l0.144-0.253l0.029-0.053l0.03-0.054c0.372-0.686,0.733-1.392,1.104-2.155c0.078-0.163,0.152-0.317,0.223-0.472l0.045-0.098    c0.264-0.558,0.518-1.117,0.76-1.68c0.111-0.259,0.218-0.51,0.32-0.761c0.213-0.512,0.423-1.044,0.627-1.58l0.012-0.031    l0.012-0.031l0.057-0.15c0.068-0.183,0.138-0.364,0.203-0.548c0.039-0.107,0.08-0.228,0.12-0.349    C203.945,147.396,205,141.246,205,135c0-0.878,0.229-1.716,0.682-2.493c0.913-1.571,2.527-2.507,4.318-2.507    c9.882,0,19.586-2.669,28.066-7.719c0.307-0.182,0.648-0.39,0.988-0.602c0.314-0.196,0.648-0.409,0.982-0.626    c0.311-0.203,0.621-0.414,0.93-0.626l0.043-0.029c0.229-0.155,0.455-0.312,0.68-0.471H58.322z"/>
		<path style="fill:#FFD400;" d="M149.994,119.928V190H150c0.789,0,1.627-0.021,2.561-0.063c0.225-0.011,0.428-0.023,0.631-0.036    l0.17-0.011c0.6-0.037,1.201-0.082,1.799-0.138c0.268-0.025,0.553-0.053,0.834-0.083c0.635-0.069,1.252-0.148,1.865-0.237    l0.111-0.016c0.201-0.026,0.401-0.055,0.601-0.086c0.79-0.124,1.616-0.272,2.415-0.434c0.188-0.039,0.338-0.073,0.486-0.108    c0.613-0.129,1.287-0.285,1.961-0.454c0.2-0.051,0.383-0.1,0.568-0.148l0.178-0.046l0.023-0.007l0.025-0.008    c0.552-0.147,1.098-0.304,1.643-0.467c0.264-0.08,0.529-0.16,0.795-0.245c0.572-0.182,1.174-0.385,1.826-0.618l0.072-0.025    c0.139-0.047,0.275-0.095,0.412-0.145c0.805-0.298,1.567-0.6,2.303-0.909c0.149-0.063,0.297-0.128,0.445-0.195l0.08-0.035    c0.58-0.251,1.145-0.507,1.705-0.772c0.182-0.086,0.365-0.175,0.549-0.266l0.146-0.072c0.551-0.27,1.064-0.534,1.574-0.806    l0.119-0.063c0.178-0.094,0.354-0.188,0.53-0.285c0.644-0.353,1.263-0.71,1.854-1.065c0.078-0.044,0.148-0.086,0.219-0.128    c0.688-0.419,1.355-0.847,2.078-1.332c0.145-0.096,0.302-0.206,0.459-0.315l0.108-0.076c0.478-0.328,0.956-0.67,1.429-1.018    c0.209-0.154,0.43-0.317,0.648-0.484c0.455-0.348,0.909-0.704,1.355-1.067l0.064-0.051c0.162-0.13,0.322-0.26,0.483-0.393    c0.642-0.533,1.237-1.049,1.814-1.572l0.048-0.043l0.047-0.043l0.082-0.079c0.516-0.472,1.032-0.965,1.576-1.504    c0.127-0.125,0.258-0.26,0.389-0.393l0.111-0.113c0.412-0.42,0.813-0.838,1.203-1.263c0.172-0.187,0.344-0.372,0.513-0.56    c0.43-0.48,0.829-0.942,1.22-1.409l0.057-0.066c0.114-0.131,0.227-0.264,0.336-0.398c0.496-0.604,0.999-1.244,1.477-1.877    c0.09-0.121,0.174-0.237,0.256-0.352c0.402-0.546,0.777-1.073,1.143-1.606c0.135-0.196,0.262-0.387,0.389-0.579l0.057-0.086    c0.313-0.47,0.623-0.952,0.924-1.44c0.128-0.204,0.264-0.423,0.396-0.645c0.336-0.558,0.664-1.128,1.008-1.748l0.007-0.013    l0.144-0.253l0.029-0.053l0.03-0.054c0.372-0.686,0.733-1.392,1.104-2.155c0.078-0.163,0.152-0.317,0.223-0.472l0.045-0.098    c0.264-0.558,0.518-1.117,0.76-1.68c0.111-0.259,0.218-0.51,0.32-0.761c0.213-0.512,0.423-1.044,0.627-1.58l0.012-0.031    l0.012-0.031l0.057-0.15c0.068-0.183,0.138-0.364,0.203-0.548c0.039-0.107,0.08-0.228,0.12-0.349    C203.945,147.396,205,141.246,205,135c0-0.878,0.229-1.716,0.682-2.493c0.913-1.571,2.527-2.507,4.318-2.507    c9.882,0,19.586-2.669,28.066-7.719c0.307-0.182,0.648-0.39,0.988-0.602c0.314-0.196,0.648-0.409,0.982-0.626    c0.311-0.203,0.621-0.414,0.93-0.626l0.043-0.029c0.229-0.155,0.455-0.312,0.68-0.471H149.994z"/>
	</g>
	<path style="fill:#89C7EA;" d="M270,60h-42.43h-15.68H196.51H150H30c-8.284,0-15,6.717-15,15c0,36.663,26.445,67.267,61.261,73.739   c0.048,0.254,0.108,0.503,0.158,0.756c0.093,0.471,0.192,0.939,0.294,1.406c0.149,0.692,0.309,1.381,0.478,2.066   c0.116,0.467,0.233,0.931,0.356,1.394c0.184,0.684,0.379,1.362,0.58,2.037c0.134,0.45,0.266,0.899,0.408,1.344   c0.223,0.7,0.463,1.392,0.705,2.083c0.144,0.406,0.279,0.816,0.43,1.219c0.295,0.794,0.611,1.579,0.932,2.36   c0.118,0.287,0.227,0.58,0.348,0.865c0.45,1.058,0.924,2.103,1.42,3.135c0.125,0.261,0.264,0.516,0.393,0.776   c0.381,0.768,0.768,1.533,1.174,2.287c0.205,0.382,0.424,0.755,0.636,1.133c0.349,0.622,0.7,1.242,1.067,1.853   c0.242,0.406,0.495,0.805,0.746,1.206c0.355,0.57,0.717,1.138,1.09,1.697c0.268,0.406,0.543,0.808,0.82,1.207   c0.375,0.545,0.76,1.084,1.15,1.618c0.287,0.394,0.576,0.784,0.87,1.17c0.407,0.533,0.823,1.057,1.241,1.579   c0.297,0.368,0.591,0.738,0.894,1.101c0.452,0.542,0.919,1.071,1.386,1.6c0.287,0.325,0.568,0.655,0.861,0.974   c0.573,0.625,1.162,1.236,1.756,1.842c0.203,0.206,0.396,0.42,0.602,0.623c0.797,0.796,1.613,1.573,2.445,2.333   c0.26,0.236,0.53,0.462,0.793,0.695c0.588,0.521,1.178,1.04,1.781,1.543c0.344,0.287,0.697,0.563,1.047,0.844   c0.541,0.433,1.082,0.864,1.633,1.283c0.381,0.29,0.768,0.569,1.153,0.851c0.538,0.393,1.08,0.78,1.629,1.159   c0.401,0.277,0.806,0.549,1.214,0.818c0.553,0.367,1.111,0.724,1.676,1.075c0.41,0.257,0.822,0.513,1.239,0.761   c0.584,0.349,1.175,0.686,1.771,1.019c0.406,0.229,0.812,0.459,1.223,0.681c0.646,0.347,1.303,0.676,1.959,1.004   c0.371,0.186,0.737,0.378,1.111,0.557c0.869,0.416,1.748,0.81,2.633,1.192c0.172,0.075,0.34,0.157,0.514,0.23   c1.057,0.447,2.129,0.869,3.21,1.268c0.345,0.128,0.696,0.241,1.042,0.362c0.748,0.263,1.498,0.524,2.256,0.766   c0.43,0.135,0.865,0.259,1.299,0.387c0.688,0.204,1.377,0.405,2.072,0.59c0.465,0.123,0.934,0.237,1.401,0.353   c0.678,0.165,1.358,0.324,2.042,0.472c0.267,0.058,0.535,0.11,0.803,0.164v0.017V330h-25c-8.284,0-15,6.717-15,15   c0,8.285,6.716,15,15,15h40h40c8.284,0,15-6.715,15-15c0-8.283-6.716-15-15-15h-25V208.491v-0.017   c0.268-0.054,0.536-0.106,0.803-0.164c0.685-0.147,1.363-0.307,2.042-0.472c0.468-0.115,0.937-0.229,1.4-0.353   c0.696-0.185,1.386-0.386,2.074-0.59c0.433-0.128,0.868-0.252,1.298-0.387c0.758-0.241,1.508-0.502,2.256-0.766   c0.346-0.122,0.697-0.234,1.043-0.362c1.08-0.399,2.151-0.821,3.209-1.268c0.173-0.073,0.341-0.155,0.514-0.23   c0.885-0.382,1.765-0.777,2.633-1.192c0.373-0.179,0.74-0.372,1.111-0.557c0.656-0.328,1.313-0.658,1.959-1.004   c0.411-0.221,0.816-0.452,1.223-0.681c0.595-0.333,1.186-0.67,1.77-1.019c0.418-0.248,0.83-0.504,1.24-0.761   c0.564-0.352,1.123-0.708,1.676-1.075c0.406-0.269,0.813-0.541,1.214-0.818c0.55-0.379,1.091-0.767,1.629-1.159   c0.386-0.282,0.772-0.561,1.153-0.851c0.551-0.418,1.092-0.85,1.632-1.283c0.35-0.281,0.704-0.557,1.048-0.844   c0.604-0.503,1.193-1.022,1.781-1.543c0.263-0.233,0.533-0.459,0.793-0.695c0.832-0.76,1.648-1.538,2.445-2.333   c0.205-0.202,0.398-0.417,0.601-0.623c0.595-0.606,1.184-1.217,1.757-1.842c0.293-0.319,0.574-0.649,0.861-0.974   c0.467-0.529,0.934-1.058,1.386-1.6c0.302-0.362,0.597-0.732,0.894-1.101c0.419-0.521,0.835-1.046,1.24-1.579   c0.295-0.387,0.584-0.777,0.871-1.17c0.391-0.533,0.774-1.073,1.15-1.618c0.277-0.399,0.552-0.801,0.821-1.207   c0.372-0.56,0.731-1.127,1.089-1.697c0.25-0.401,0.504-0.8,0.746-1.206c0.367-0.611,0.719-1.231,1.067-1.853   c0.212-0.377,0.431-0.751,0.636-1.133c0.406-0.753,0.793-1.519,1.174-2.287c0.129-0.261,0.268-0.515,0.393-0.776   c0.496-1.032,0.969-2.077,1.42-3.135c0.121-0.286,0.229-0.578,0.348-0.865c0.32-0.781,0.637-1.566,0.932-2.36   c0.15-0.403,0.286-0.813,0.43-1.219c0.242-0.69,0.482-1.383,0.705-2.083c0.143-0.445,0.274-0.894,0.408-1.344   c0.201-0.674,0.396-1.353,0.58-2.037c0.123-0.463,0.241-0.927,0.356-1.394c0.169-0.686,0.329-1.374,0.478-2.066   c0.102-0.467,0.201-0.935,0.294-1.406c0.05-0.253,0.11-0.501,0.158-0.756c5.663-1.053,11.099-2.754,16.241-5.006   c6.072-2.659,11.721-6.1,16.83-10.194c4.924-3.945,9.34-8.494,13.137-13.539c7.111-9.45,12.039-20.626,14.04-32.781   c0.009-0.055,0.018-0.11,0.026-0.165c0.146-0.905,0.281-1.814,0.396-2.73c0.029-0.239,0.053-0.479,0.08-0.719   c0.088-0.757,0.172-1.518,0.236-2.283c0.04-0.478,0.066-0.959,0.098-1.439c0.035-0.556,0.08-1.109,0.104-1.667   C284.973,77.148,285,76.078,285,75C285,66.717,278.284,60,270,60z M243.354,105.168c-0.01,0.009-0.02,0.02-0.029,0.03   c-0.396,0.439-0.805,0.87-1.221,1.294c-0.082,0.084-0.164,0.168-0.248,0.252c-0.346,0.349-0.701,0.69-1.061,1.029   c-0.125,0.118-0.248,0.237-0.373,0.354c-0.336,0.308-0.677,0.608-1.021,0.906c-0.141,0.122-0.279,0.249-0.422,0.369   c-0.457,0.385-0.921,0.763-1.394,1.13c-0.22,0.171-0.446,0.334-0.669,0.502c-0.27,0.201-0.537,0.403-0.811,0.599   c-0.258,0.184-0.521,0.362-0.785,0.542c-0.25,0.172-0.502,0.344-0.757,0.51c-0.267,0.174-0.534,0.344-0.806,0.513   c-0.267,0.167-0.535,0.331-0.809,0.492C226.226,117.693,218.379,120,210,120c-5.538,0-10.363,3.01-12.961,7.475   C195.75,129.689,195,132.255,195,135c0,5.259-0.915,10.306-2.58,15c-0.031,0.088-0.059,0.177-0.09,0.264   c-0.07,0.196-0.146,0.389-0.219,0.583c-0.168,0.442-0.341,0.881-0.521,1.317c-0.085,0.206-0.172,0.412-0.26,0.616   c-0.196,0.456-0.401,0.907-0.613,1.355c-0.074,0.157-0.145,0.316-0.221,0.473c-0.291,0.598-0.593,1.19-0.908,1.772   c-0.055,0.098-0.113,0.195-0.167,0.294c-0.267,0.482-0.54,0.959-0.823,1.43c-0.109,0.182-0.221,0.361-0.332,0.54   c-0.246,0.397-0.498,0.789-0.756,1.177c-0.117,0.177-0.234,0.355-0.354,0.53c-0.302,0.439-0.61,0.874-0.927,1.303   c-0.076,0.103-0.148,0.208-0.225,0.31c-0.396,0.528-0.805,1.046-1.224,1.556c-0.101,0.123-0.206,0.241-0.308,0.363   c-0.324,0.386-0.654,0.768-0.99,1.144c-0.143,0.159-0.286,0.314-0.432,0.471c-0.318,0.347-0.645,0.688-0.976,1.024   c-0.14,0.142-0.277,0.285-0.419,0.425c-0.434,0.43-0.875,0.853-1.326,1.265c-0.035,0.032-0.068,0.065-0.103,0.097   c-0.489,0.443-0.989,0.875-1.497,1.296c-0.143,0.119-0.287,0.234-0.432,0.35c-0.373,0.303-0.752,0.601-1.135,0.893   c-0.172,0.13-0.345,0.259-0.52,0.388c-0.388,0.286-0.781,0.566-1.179,0.84c-0.151,0.104-0.302,0.211-0.456,0.314   c-0.549,0.368-1.104,0.727-1.67,1.072c-0.057,0.034-0.114,0.066-0.17,0.1c-0.51,0.308-1.027,0.604-1.549,0.891   c-0.182,0.1-0.363,0.195-0.546,0.292c-0.414,0.221-0.831,0.436-1.253,0.643c-0.197,0.096-0.393,0.193-0.592,0.288   c-0.459,0.217-0.922,0.427-1.389,0.629c-0.148,0.064-0.295,0.132-0.443,0.195c-0.613,0.258-1.234,0.503-1.861,0.736   c-0.135,0.049-0.271,0.093-0.406,0.142c-0.498,0.178-1,0.35-1.506,0.51c-0.211,0.067-0.422,0.132-0.635,0.196   c-0.451,0.135-0.904,0.264-1.361,0.387c-0.213,0.056-0.424,0.114-0.638,0.168c-0.547,0.138-1.099,0.266-1.653,0.382   c-0.111,0.024-0.223,0.053-0.336,0.076c-0.666,0.135-1.338,0.254-2.014,0.36c-0.186,0.03-0.373,0.052-0.561,0.079   c-0.499,0.072-1,0.137-1.506,0.192c-0.231,0.025-0.465,0.048-0.697,0.07c-0.488,0.046-0.979,0.083-1.471,0.112   c-0.217,0.013-0.432,0.029-0.647,0.039C151.408,179.979,150.707,180,150,180s-1.408-0.021-2.106-0.053   c-0.216-0.01-0.431-0.026-0.647-0.039c-0.492-0.03-0.982-0.066-1.471-0.112c-0.232-0.021-0.466-0.045-0.699-0.07   c-0.504-0.055-1.005-0.12-1.504-0.192c-0.188-0.027-0.375-0.049-0.561-0.079c-0.676-0.105-1.348-0.225-2.014-0.36   c-0.113-0.023-0.225-0.052-0.336-0.076c-0.555-0.116-1.105-0.244-1.653-0.382c-0.214-0.054-0.425-0.112-0.638-0.168   c-0.457-0.123-0.91-0.252-1.361-0.387c-0.213-0.064-0.425-0.128-0.637-0.196c-0.505-0.16-1.006-0.332-1.504-0.51   c-0.135-0.049-0.271-0.093-0.406-0.142c-0.627-0.233-1.248-0.478-1.861-0.736c-0.148-0.063-0.295-0.131-0.443-0.195   c-0.467-0.202-0.93-0.412-1.389-0.629c-0.199-0.094-0.396-0.191-0.592-0.288c-0.422-0.208-0.84-0.422-1.253-0.643   c-0.183-0.097-0.366-0.192-0.546-0.292c-0.523-0.287-1.039-0.583-1.549-0.891c-0.056-0.034-0.113-0.065-0.17-0.1   c-0.566-0.345-1.121-0.704-1.67-1.072c-0.154-0.103-0.305-0.21-0.457-0.314c-0.396-0.274-0.79-0.555-1.179-0.84   c-0.173-0.128-0.347-0.257-0.519-0.388c-0.384-0.292-0.762-0.59-1.135-0.893c-0.145-0.116-0.289-0.231-0.432-0.35   c-0.508-0.422-1.008-0.853-1.498-1.296c-0.033-0.032-0.066-0.065-0.102-0.097c-0.451-0.412-0.893-0.835-1.326-1.265   c-0.143-0.14-0.279-0.283-0.419-0.425c-0.331-0.336-0.657-0.678-0.977-1.024c-0.144-0.157-0.288-0.312-0.431-0.471   c-0.336-0.375-0.666-0.757-0.99-1.144c-0.102-0.122-0.207-0.24-0.308-0.363c-0.419-0.51-0.827-1.028-1.224-1.556   c-0.076-0.102-0.148-0.207-0.225-0.31c-0.316-0.429-0.625-0.863-0.927-1.303c-0.12-0.175-0.237-0.354-0.354-0.53   c-0.258-0.388-0.51-0.78-0.756-1.177c-0.111-0.179-0.223-0.358-0.332-0.54c-0.283-0.471-0.557-0.948-0.823-1.43   c-0.056-0.099-0.112-0.196-0.167-0.294c-0.314-0.582-0.617-1.174-0.908-1.772c-0.076-0.157-0.146-0.316-0.221-0.473   c-0.212-0.448-0.417-0.899-0.613-1.355c-0.089-0.205-0.175-0.41-0.26-0.616c-0.181-0.436-0.354-0.875-0.521-1.317   c-0.072-0.194-0.148-0.387-0.219-0.583c-0.031-0.087-0.059-0.176-0.09-0.264c-1.665-4.694-2.58-9.741-2.58-15   c0-2.745-0.75-5.311-2.039-7.525C100.363,123.01,95.537,120,90,120c-19.557,0-36.239-12.539-42.43-30H150h60h42.404h0.025   C250.422,95.662,247.307,100.801,243.354,105.168z"/>
	<path style="fill:#00B5EC;" d="M270,60h-42.43h-15.68H196.51H150v30h60h42.404h0.025c-2.008,5.662-5.123,10.801-9.076,15.168   c-0.01,0.009-0.02,0.02-0.029,0.03c-0.396,0.439-0.805,0.87-1.221,1.294c-0.082,0.084-0.164,0.168-0.248,0.252   c-0.346,0.349-0.701,0.69-1.061,1.029c-0.125,0.118-0.248,0.237-0.373,0.354c-0.336,0.308-0.677,0.608-1.021,0.906   c-0.141,0.122-0.279,0.249-0.422,0.369c-0.457,0.385-0.921,0.763-1.394,1.13c-0.22,0.171-0.446,0.334-0.669,0.502   c-0.27,0.201-0.537,0.403-0.811,0.599c-0.258,0.184-0.521,0.362-0.785,0.542c-0.25,0.172-0.502,0.344-0.757,0.51   c-0.267,0.174-0.534,0.344-0.806,0.513c-0.267,0.167-0.535,0.331-0.809,0.492C226.226,117.693,218.379,120,210,120   c-5.538,0-10.363,3.01-12.961,7.475C195.75,129.689,195,132.255,195,135c0,5.259-0.915,10.306-2.58,15   c-0.031,0.088-0.059,0.177-0.09,0.264c-0.07,0.196-0.146,0.389-0.219,0.583c-0.168,0.442-0.341,0.881-0.521,1.317   c-0.085,0.206-0.172,0.412-0.26,0.616c-0.196,0.456-0.401,0.907-0.613,1.355c-0.074,0.157-0.145,0.316-0.221,0.473   c-0.291,0.598-0.593,1.19-0.908,1.772c-0.055,0.098-0.113,0.195-0.167,0.294c-0.267,0.482-0.54,0.959-0.823,1.43   c-0.109,0.182-0.221,0.361-0.332,0.54c-0.246,0.397-0.498,0.789-0.756,1.177c-0.117,0.177-0.234,0.355-0.354,0.53   c-0.302,0.439-0.61,0.874-0.927,1.303c-0.076,0.103-0.148,0.208-0.225,0.31c-0.396,0.528-0.805,1.046-1.224,1.556   c-0.101,0.123-0.206,0.241-0.308,0.363c-0.324,0.386-0.654,0.768-0.99,1.144c-0.143,0.159-0.286,0.314-0.432,0.471   c-0.318,0.347-0.645,0.688-0.976,1.024c-0.14,0.142-0.277,0.285-0.419,0.425c-0.434,0.43-0.875,0.853-1.326,1.265   c-0.035,0.032-0.068,0.065-0.103,0.097c-0.489,0.443-0.989,0.875-1.497,1.296c-0.143,0.119-0.287,0.234-0.432,0.35   c-0.373,0.303-0.752,0.601-1.135,0.893c-0.172,0.13-0.345,0.259-0.52,0.388c-0.388,0.286-0.781,0.566-1.179,0.84   c-0.151,0.104-0.302,0.211-0.456,0.314c-0.549,0.368-1.104,0.727-1.67,1.072c-0.057,0.034-0.114,0.066-0.17,0.1   c-0.51,0.308-1.027,0.604-1.549,0.891c-0.182,0.1-0.363,0.195-0.546,0.292c-0.414,0.221-0.831,0.436-1.253,0.643   c-0.197,0.096-0.393,0.193-0.592,0.288c-0.459,0.217-0.922,0.427-1.389,0.629c-0.148,0.064-0.295,0.132-0.443,0.195   c-0.613,0.258-1.234,0.503-1.861,0.736c-0.135,0.049-0.271,0.093-0.406,0.142c-0.498,0.178-1,0.35-1.506,0.51   c-0.211,0.067-0.422,0.132-0.635,0.196c-0.451,0.135-0.904,0.264-1.361,0.387c-0.213,0.056-0.424,0.114-0.638,0.168   c-0.547,0.138-1.099,0.266-1.653,0.382c-0.111,0.024-0.223,0.053-0.336,0.076c-0.666,0.135-1.338,0.254-2.014,0.36   c-0.186,0.03-0.373,0.052-0.561,0.079c-0.499,0.072-1,0.137-1.506,0.192c-0.231,0.025-0.465,0.048-0.697,0.07   c-0.488,0.046-0.979,0.083-1.471,0.112c-0.217,0.013-0.432,0.029-0.647,0.039C151.408,179.979,150.707,180,150,180v180h40   c8.284,0,15-6.715,15-15c0-8.283-6.716-15-15-15h-25V208.491v-0.017c0.268-0.054,0.536-0.106,0.803-0.164   c0.685-0.147,1.363-0.307,2.042-0.472c0.468-0.115,0.937-0.229,1.4-0.353c0.696-0.185,1.386-0.386,2.074-0.59   c0.433-0.128,0.868-0.252,1.298-0.387c0.758-0.241,1.508-0.502,2.256-0.766c0.346-0.122,0.697-0.234,1.043-0.362   c1.08-0.399,2.151-0.821,3.209-1.268c0.173-0.073,0.341-0.155,0.514-0.23c0.885-0.382,1.765-0.777,2.633-1.192   c0.373-0.179,0.74-0.372,1.111-0.557c0.656-0.328,1.313-0.658,1.959-1.004c0.411-0.221,0.816-0.452,1.223-0.681   c0.595-0.333,1.186-0.67,1.77-1.019c0.418-0.248,0.83-0.504,1.24-0.761c0.564-0.352,1.123-0.708,1.676-1.075   c0.406-0.269,0.813-0.541,1.214-0.818c0.55-0.379,1.091-0.767,1.629-1.159c0.386-0.282,0.772-0.561,1.153-0.851   c0.551-0.418,1.092-0.85,1.632-1.283c0.35-0.281,0.704-0.557,1.048-0.844c0.604-0.503,1.193-1.022,1.781-1.543   c0.263-0.233,0.533-0.459,0.793-0.695c0.832-0.76,1.648-1.538,2.445-2.333c0.205-0.202,0.398-0.417,0.601-0.623   c0.595-0.606,1.184-1.217,1.757-1.842c0.293-0.319,0.574-0.649,0.861-0.974c0.467-0.529,0.934-1.058,1.386-1.6   c0.302-0.362,0.597-0.732,0.894-1.101c0.419-0.521,0.835-1.046,1.24-1.579c0.295-0.387,0.584-0.777,0.871-1.17   c0.391-0.533,0.774-1.073,1.15-1.618c0.277-0.399,0.552-0.801,0.821-1.207c0.372-0.56,0.731-1.127,1.089-1.697   c0.25-0.401,0.504-0.8,0.746-1.206c0.367-0.611,0.719-1.231,1.067-1.853c0.212-0.377,0.431-0.751,0.636-1.133   c0.406-0.753,0.793-1.519,1.174-2.287c0.129-0.261,0.268-0.515,0.393-0.776c0.496-1.032,0.969-2.077,1.42-3.135   c0.121-0.286,0.229-0.578,0.348-0.865c0.32-0.781,0.637-1.566,0.932-2.36c0.15-0.403,0.286-0.813,0.43-1.219   c0.242-0.69,0.482-1.383,0.705-2.083c0.143-0.445,0.274-0.894,0.408-1.344c0.201-0.674,0.396-1.353,0.58-2.037   c0.123-0.463,0.241-0.927,0.356-1.394c0.169-0.686,0.329-1.374,0.478-2.066c0.102-0.467,0.201-0.935,0.294-1.406   c0.05-0.253,0.11-0.501,0.158-0.756c5.663-1.053,11.099-2.754,16.241-5.006c6.072-2.659,11.721-6.1,16.83-10.194   c4.924-3.945,9.34-8.494,13.137-13.539c7.111-9.45,12.039-20.626,14.04-32.781c0.009-0.055,0.018-0.11,0.026-0.165   c0.146-0.905,0.281-1.814,0.396-2.73c0.029-0.239,0.053-0.479,0.08-0.719c0.088-0.757,0.172-1.518,0.236-2.283   c0.04-0.478,0.066-0.959,0.098-1.439c0.035-0.556,0.08-1.109,0.104-1.667C284.973,77.148,285,76.078,285,75   C285,66.717,278.284,60,270,60z"/>
</g>















</svg>
