<?xml version="1.0" encoding="iso-8859-1"?>
<!-- Generator: Adobe Illustrator 16.0.0, SVG Export Plug-In . SVG Version: 6.00 Build 0)  -->
<!DOCTYPE svg PUBLIC "-//W3C//DTD SVG 1.1//EN" "http://www.w3.org/Graphics/SVG/1.1/DTD/svg11.dtd">
<svg xmlns="http://www.w3.org/2000/svg" xmlns:xlink="http://www.w3.org/1999/xlink" version="1.1" id="Layer_1" x="0px" y="0px" width="512" height="512" viewBox="0 0 329.654 329.653" style="enable-background:new 0 0 329.654 329.653;" xml:space="preserve">
<g>
	<path style="fill:#9B4C00;" d="M327.898,198.698c-2.604-4.898-7.698-7.959-13.244-7.959h-40.466c-3.427,0-6.75,1.174-9.418,3.326   L247.125,208.3l-27.524-12.289v-49.828c0-3.164-1-6.246-2.855-8.807l-34.01-46.902c-2.822-3.893-7.337-6.195-12.143-6.195h-5.766   h-14.83l-32.173-23.611c-3.905-2.865-8.956-3.67-13.553-2.16L69.157,70.032L20.721,50.048c-4.995-2.061-10.715-1.273-14.97,2.059   s-6.388,8.695-5.584,14.041l8.323,55.32c-6.083,3.291-9.263,10.482-7.247,17.391l20.645,70.738   c2.211,7.576,9.914,12.143,17.624,10.447c7.708-1.697,12.783-9.076,11.608-16.883l-10.228-67.975l63.752,104.549   c1.11,1.82,2.596,3.383,4.358,4.584l49.609,33.814c1.87,1.275,3.996,2.105,6.215,2.439c0.736,0.109,1.482,0.166,2.233,0.166   h107.128c4.987,0,9.646-2.479,12.436-6.611l40.467-60C330.191,209.528,330.501,203.595,327.898,198.698z"/>
	<path style="fill:#6D3802;" d="M314.654,190.739h-40.466c-3.427,0-6.75,1.174-9.418,3.326L247.125,208.3l-27.524-12.289v-49.828   c0-3.164-1-6.246-2.855-8.807l-34.01-46.902c-2.822-3.893-7.337-6.195-12.143-6.195h-5.766v196.295   c0.736,0.109,1.482,0.166,2.233,0.166h107.128c4.987,0,9.646-2.479,12.436-6.611l40.467-60c3.101-4.6,3.41-10.533,0.808-15.43   C325.294,193.8,320.2,190.739,314.654,190.739z"/>
</g>















</svg>
