<?xml version="1.0" encoding="iso-8859-1"?>
<!-- Generator: Adobe Illustrator 16.0.0, SVG Export Plug-In . SVG Version: 6.00 Build 0)  -->
<!DOCTYPE svg PUBLIC "-//W3C//DTD SVG 1.1//EN" "http://www.w3.org/Graphics/SVG/1.1/DTD/svg11.dtd">
<svg xmlns="http://www.w3.org/2000/svg" xmlns:xlink="http://www.w3.org/1999/xlink" version="1.1" id="Layer_1" x="0px" y="0px" width="512" height="512" viewBox="0 0 329.996 329.997" style="enable-background:new 0 0 329.996 329.997;" xml:space="preserve">
<g>
	<path style="fill:#FFDBAA;" d="M224.998,80h-60h-60c-8.285,0-15,6.715-15,15c0,41.354,33.645,75,75,75s75-33.646,75-75   C239.998,86.715,233.283,80,224.998,80z"/>
	<path style="fill:#FFC86D;" d="M224.998,80h-60v90c41.355,0,75-33.646,75-75C239.998,86.715,233.283,80,224.998,80z"/>
	<path style="fill:#FF8600;" d="M164.998,200c-63.41,0-115,51.587-115,114.997c0,8.285,6.715,15,15,15h100h100   c8.285,0,15-6.715,15-15C279.998,251.587,228.41,200,164.998,200z"/>
	<path style="fill:#E07200;" d="M164.998,200v129.997h100c8.285,0,15-6.715,15-15C279.998,251.587,228.41,200,164.998,200z"/>
	<path style="fill:#FF8600;" d="M272.748,60H238.49c-6.969-34.192-37.273-60-73.492-60s-66.521,25.808-73.49,60h-34.26   c-8.285,0-15,6.715-15,15c0,8.283,6.715,15,15,15h107.75h107.75c8.285,0,15-6.717,15-15C287.748,66.715,281.033,60,272.748,60z"/>
	<path style="fill:#E07200;" d="M272.748,60H238.49c-6.969-34.192-37.273-60-73.492-60v90h107.75c8.285,0,15-6.717,15-15   C287.748,66.715,281.033,60,272.748,60z"/>
</g>















</svg>
