<?xml version="1.0" encoding="iso-8859-1"?>
<!-- Generator: Adobe Illustrator 16.0.0, SVG Export Plug-In . SVG Version: 6.00 Build 0)  -->
<!DOCTYPE svg PUBLIC "-//W3C//DTD SVG 1.1//EN" "http://www.w3.org/Graphics/SVG/1.1/DTD/svg11.dtd">
<svg xmlns="http://www.w3.org/2000/svg" xmlns:xlink="http://www.w3.org/1999/xlink" version="1.1" id="Layer_1" x="0px" y="0px" width="512" height="512" viewBox="0 0 360 360" style="enable-background:new 0 0 360 360;" xml:space="preserve">
<g>
	<path style="fill:#DEDEE0;" d="M180.01,0c0,0-0.006,0-0.01,0C89.019,0,15,69.534,15,155c0,24.593,6.287,49.076,18.182,70.804   C43.386,244.447,57.751,261.176,75,274.573V345c0,8.285,6.716,15,15,15h60h30.01H210h60c8.284,0,15-6.715,15-15v-70.427   c17.249-13.397,31.615-30.126,41.82-48.77C338.714,204.076,345,179.593,345,155C345,69.536,270.986,0.007,180.01,0z"/>
	<path style="fill:#D6D5D8;" d="M180.01,0v205.001V265v95H210h60c8.284,0,15-6.715,15-15v-70.427   c17.249-13.397,31.615-30.126,41.82-48.77C338.714,204.076,345,179.593,345,155C345,69.536,270.986,0.007,180.01,0z"/>
	<g>
		<g>
			<path style="fill:#8D59C6;" d="M120,110c-24.813,0-45,20.187-45,45s20.187,45,45,45s45-20.187,45-45S144.813,110,120,110z      M120,170c-8.271,0-15-6.729-15-15s6.729-15,15-15s15,6.729,15,15S128.271,170,120,170z"/>
			<path style="fill:#7F40BD;" d="M240,110c-24.813,0-45,20.187-45,45s20.187,45,45,45s45-20.187,45-45S264.813,110,240,110z      M240,170c-8.271,0-15-6.729-15-15s6.729-15,15-15s15,6.729,15,15S248.271,170,240,170z"/>
		</g>
		<path style="fill:#009BE8;" d="M150,292.007c-8.284,0-15,6.717-15,15V345c0,8.285,6.716,15,15,15s15-6.715,15-15v-37.993    C165,298.724,158.284,292.007,150,292.007z"/>
		<path style="fill:#0082CF;" d="M210,292.007c-8.284,0-15,6.717-15,15V345c0,8.285,6.716,15,15,15s15-6.715,15-15v-37.993    C225,298.724,218.284,292.007,210,292.007z"/>
		<path style="fill:#FF509D;" d="M208.07,242.599l-14.654-29.307c-2.539-5.079-7.729-8.288-13.406-8.292c0,0-0.006-0.001-0.01-0.001    c-5.682,0-10.876,3.21-13.416,8.292l-15,30c-2.326,4.65-2.078,10.172,0.656,14.595c2.734,4.421,7.562,7.113,12.76,7.113h15.01H195    c0.006,0,0.014,0,0.014,0c8.291,0,15.006-6.715,15.006-15C210.02,247.31,209.312,244.783,208.07,242.599z"/>
		<path style="fill:#FE057B;" d="M208.07,242.599l-14.654-29.307c-2.539-5.079-7.729-8.288-13.406-8.292V265H195    c0.006,0,0.014,0,0.014,0c8.291,0,15.006-6.715,15.006-15C210.02,247.31,209.312,244.783,208.07,242.599z"/>
	</g>
</g>















</svg>
