<?xml version="1.0" encoding="iso-8859-1"?>
<!-- Generator: Adobe Illustrator 16.0.0, SVG Export Plug-In . SVG Version: 6.00 Build 0)  -->
<!DOCTYPE svg PUBLIC "-//W3C//DTD SVG 1.1//EN" "http://www.w3.org/Graphics/SVG/1.1/DTD/svg11.dtd">
<svg xmlns="http://www.w3.org/2000/svg" xmlns:xlink="http://www.w3.org/1999/xlink" version="1.1" id="Layer_1" x="0px" y="0px" width="512" height="512" viewBox="0 0 330 330" style="enable-background:new 0 0 330 330;" xml:space="preserve">
<g>
	<path style="fill:#FF017B;" d="M235,0h-70c-8.285,0-15,6.717-15,15v55h30V30h55c8.284,0,15-6.715,15-15C250,6.717,243.284,0,235,0z   "/>
	<g>
		<polygon style="fill:#FFFFFF;" points="101.302,80 105.486,135 118.802,310 165,310 211.198,310 224.514,135 228.697,80   "/>
		<polygon style="fill:#DEDEE0;" points="105.486,135 118.802,310 165,310 211.198,310 224.514,135   "/>
		<polygon style="fill:#D6D5D8;" points="165,135 165,310 211.198,310 224.514,135   "/>
	</g>
	<path style="fill:#89C7EA;" d="M246.037,64.844C243.198,61.757,239.194,60,235,60h-55h-15h-15H95   c-4.193,0-8.198,1.757-11.038,4.844c-2.841,3.088-4.259,7.223-3.911,11.402l20,240C100.699,324.02,107.198,330,115,330h50h50   c7.802,0,14.301-5.98,14.948-13.754l20-240C250.297,72.066,248.879,67.932,246.037,64.844z M214.948,135l-13.75,165H165h-36.198   l-13.751-165l-3.749-45H165h53.697L214.948,135z"/>
	<path style="fill:#00B5EC;" d="M246.037,64.844C243.198,61.757,239.194,60,235,60h-55h-15v30h53.697l-3.749,45l-13.75,165H165v30   h50c7.802,0,14.301-5.98,14.948-13.754l20-240C250.297,72.066,248.879,67.932,246.037,64.844z"/>
</g>















</svg>
