<?xml version="1.0" encoding="iso-8859-1"?>
<!-- Generator: Adobe Illustrator 16.0.0, SVG Export Plug-In . SVG Version: 6.00 Build 0)  -->
<!DOCTYPE svg PUBLIC "-//W3C//DTD SVG 1.1//EN" "http://www.w3.org/Graphics/SVG/1.1/DTD/svg11.dtd">
<svg xmlns="http://www.w3.org/2000/svg" xmlns:xlink="http://www.w3.org/1999/xlink" version="1.1" id="Layer_1" x="0px" y="0px" width="512" height="512" viewBox="0 0 330 330" style="enable-background:new 0 0 330 330;" xml:space="preserve">
<g>
	<g>
		<path style="fill:#3C3A3F;" d="M295.606,23.777c-17.542-17.544-46.093-17.546-63.641,0l-89.999,90    c-5.857,5.858-5.857,15.355,0,21.213c5.857,5.858,15.356,5.858,21.215,0l10.605-10.606h48.639c0,3.839,1.465,7.678,4.394,10.606    s6.767,4.394,10.606,4.394c3.838,0,7.678-1.465,10.606-4.394l47.575-47.574C313.15,69.87,313.15,41.321,295.606,23.777z"/>
		<path style="fill:#3C3A3F;" d="M165.001,259.382L165.001,259.382c-8.284,0-15,6.716-15.001,15l-0.002,30    c-0.001,8.283,6.715,15,14.999,15h0.001c8.283,0,14.999-6.715,15-14.998l0.002-30    C180.001,266.099,173.285,259.383,165.001,259.382z"/>
		<path style="fill:#3C3A3F;" d="M104.997,246.899c-8.284,0.001-14.999,6.717-14.999,15.001L90,304.383    c0,8.285,6.717,15,15.001,14.999c8.284,0,14.999-6.716,14.999-15l-0.002-42.482C119.998,253.615,113.281,246.899,104.997,246.899z    "/>
		<path style="fill:#3C3A3F;" d="M224.997,246.899c-8.284,0.001-14.999,6.717-14.999,15.001L210,304.383    c0,8.285,6.717,15,15.001,14.999c8.284,0,14.999-6.716,14.999-15l-0.002-42.482C239.998,253.615,233.281,246.899,224.997,246.899z    "/>
	</g>
	<path style="fill:#57555D;" d="M325.606,113.777c-2.813-2.813-6.628-4.394-10.606-4.394H164.998H15c-8.285,0-15,6.715-15,15   c-0.002,44.072,17.16,85.507,48.326,116.672c31.165,31.164,72.6,48.326,116.672,48.326H165c90.979,0,164.998-74.018,165-164.997   C330,120.405,328.42,116.59,325.606,113.777z"/>
	<path style="fill:#3C3A3F;" d="M325.606,113.777c-2.813-2.813-6.628-4.394-10.606-4.394H164.998v179.998H165   c90.979,0,164.998-74.018,165-164.997C330,120.405,328.42,116.59,325.606,113.777z"/>
</g>















</svg>
