<?xml version="1.0" encoding="iso-8859-1"?>
<!-- Generator: Adobe Illustrator 16.0.0, SVG Export Plug-In . SVG Version: 6.00 Build 0)  -->
<!DOCTYPE svg PUBLIC "-//W3C//DTD SVG 1.1//EN" "http://www.w3.org/Graphics/SVG/1.1/DTD/svg11.dtd">
<svg xmlns="http://www.w3.org/2000/svg" xmlns:xlink="http://www.w3.org/1999/xlink" version="1.1" id="Layer_1" x="0px" y="0px" width="512" height="512" viewBox="0 0 402.626 402.626" style="enable-background:new 0 0 402.626 402.626;" xml:space="preserve">
<g>
	<path style="fill:#57555D;" d="M366.265,97.549c-5.857-5.857-15.354-5.856-21.213,0.001c-5.858,5.858-5.857,15.355,0,21.213   c0.024,0.023,0.046,0.047,0.069,0.068c7.431,7.467,11.521,17.374,11.521,27.912c0,10.568-4.116,20.505-11.59,27.979   c-7.474,7.474-17.41,11.589-27.979,11.589c-10.57,0-20.507-4.115-27.98-11.59c-13.141-13.14-30.611-20.375-49.193-20.375   c-13.941,0-27.256,4.072-38.585,11.653h-0.001c-11.33-7.582-24.646-11.655-38.586-11.655c-18.583,0-36.054,7.236-49.193,20.377   c-7.474,7.474-17.412,11.59-27.98,11.59c-10.57,0-20.507-4.115-27.979-11.589c-15.428-15.429-15.428-40.533-0.001-55.96   c5.858-5.858,5.858-15.355,0-21.213c-5.856-5.857-15.355-5.858-21.213,0c0,0,0,0-0.003,0.002C12.913,120.998,0,152.171,0,185.33   s12.912,64.332,36.359,87.778c23.445,23.448,54.62,36.361,87.779,36.361c28.378,0,55.302-9.457,77.173-26.883l0.001,0.001   c21.871,17.425,48.795,26.882,77.173,26.882c33.159,0,64.333-12.913,87.779-36.36c23.447-23.447,36.361-54.621,36.361-87.779   C402.626,152.17,389.712,120.996,366.265,97.549z"/>
	<path style="fill:#3C3A3F;" d="M345.052,97.55c-5.858,5.858-5.857,15.355,0,21.213c0.024,0.023,0.046,0.047,0.069,0.068   c7.431,7.467,11.521,17.374,11.521,27.912c0,10.568-4.116,20.505-11.59,27.979c-7.474,7.474-17.41,11.589-27.979,11.589   c-10.57,0-20.507-4.115-27.98-11.59c-13.141-13.14-30.611-20.375-49.193-20.375c-13.941,0-27.256,4.072-38.585,11.653h-0.001   v116.587c21.871,17.425,48.795,26.882,77.173,26.882c33.159,0,64.333-12.913,87.779-36.36   c23.447-23.447,36.361-54.621,36.361-87.779c0-33.159-12.914-64.334-36.361-87.78C360.407,91.692,350.91,91.693,345.052,97.55z"/>
</g>















</svg>
