<?xml version="1.0" encoding="iso-8859-1"?>
<!-- Generator: Adobe Illustrator 16.0.0, SVG Export Plug-In . SVG Version: 6.00 Build 0)  -->
<!DOCTYPE svg PUBLIC "-//W3C//DTD SVG 1.1//EN" "http://www.w3.org/Graphics/SVG/1.1/DTD/svg11.dtd">
<svg xmlns="http://www.w3.org/2000/svg" xmlns:xlink="http://www.w3.org/1999/xlink" version="1.1" id="Layer_1" x="0px" y="0px" width="512" height="512" viewBox="0 0 340.004 340.004" style="enable-background:new 0 0 340.004 340.004;" xml:space="preserve">
<g>
	<polygon style="fill:#8D59C6;" points="100.002,190.003 130.002,190.003 144.876,190.003 145.002,190.003 160.002,190.003    160.002,140.003 145.002,140.003 144.626,140.003 130.002,140.003 100.002,140.003 85.002,140.003 70.002,140.003 70.002,190.003    85.002,190.003  "/>
	<path style="fill:#F99BC8;" d="M128.418,8.296c-3.704-7.412-12.714-10.413-20.124-6.709s-10.413,12.715-6.708,20.124l19.146,38.292   v7.969h33.541v-7.969L128.418,8.296z"/>
	<path style="fill:#F48CC2;" d="M315.002,180.003h-45v30h45c8.284,0,15-6.717,15-15   C330.002,186.718,323.286,180.003,315.002,180.003z"/>
	<g>
		<path style="fill:#FFD400;" d="M250.002,290.004h-30h-15h-15v35c0,8.283,6.716,15,15,15h60c8.284,0,15-6.717,15-15v-35h-15    H250.002z"/>
		<path style="fill:#FFDE51;" d="M130.002,290.004h-30h-15h-15v35c0,8.283,6.716,15,15,15h60c8.284,0,15-6.717,15-15v-35h-15    H130.002z"/>
	</g>
	<g>
		<polygon style="fill:#8D59C6;" points="130.002,260.004 100.002,260.004 85.002,260.004 70.002,260.004 70.002,300.004     85.002,300.004 100.002,300.004 130.002,300.004 145.002,300.004 160.002,300.004 160.002,260.004 145.002,260.004   "/>
		<polygon style="fill:#7F40BD;" points="250.002,260.004 220.002,260.004 205.002,260.004 190.002,260.004 190.002,300.004     205.002,300.004 220.002,300.004 250.002,300.004 265.002,300.004 280.002,300.004 280.002,260.004 265.002,260.004   "/>
	</g>
	<g>
		<polygon style="fill:#F99BC8;" points="265.002,230.003 250.002,230.003 205.002,230.003 160.002,230.003 145.002,230.003     100.002,230.003 85.002,230.003 70.002,230.003 70.002,270.004 85.002,270.004 100.002,270.004 130.002,270.004 145.002,270.004     160.002,270.004 190.002,270.004 205.002,270.004 220.002,270.004 250.002,270.004 265.002,270.004 280.002,270.004     280.002,230.003   "/>
		<polygon style="fill:#F48CC2;" points="250.002,230.003 205.002,230.003 160.002,230.003 160.002,270.004 190.002,270.004     205.002,270.004 220.002,270.004 250.002,270.004 265.002,270.004 280.002,270.004 280.002,230.003 265.002,230.003   "/>
	</g>
	<g>
		<polygon style="fill:#009BE8;" points="265.002,200.003 250.002,200.003 160.002,200.003 145.002,200.003 100.002,200.003     85.002,200.003 70.002,200.003 70.002,240.003 85.002,240.003 100.002,240.003 145.002,240.003 160.002,240.003 205.002,240.003     250.002,240.003 265.002,240.003 280.002,240.003 280.002,200.003   "/>
		<polygon style="fill:#0082CF;" points="250.002,200.003 160.002,200.003 160.002,240.003 205.002,240.003 250.002,240.003     265.002,240.003 280.002,240.003 280.002,200.003 265.002,200.003   "/>
	</g>
	<g>
		<polygon style="fill:#FFDE51;" points="265.002,180.003 160.002,180.003 145.002,180.003 144.876,180.003 130.002,180.003     100.002,180.003 85.002,180.003 70.002,180.003 70.002,195.003 70.002,210.003 85.002,210.003 100.002,210.003 145.002,210.003     160.002,210.003 250.002,210.003 265.002,210.003 280.002,210.003 280.002,180.003   "/>
		<polygon style="fill:#FFD400;" points="265.002,180.003 160.002,180.003 160.002,210.003 250.002,210.003 265.002,210.003     280.002,210.003 280.002,180.003   "/>
	</g>
	<path style="fill:#F99BC8;" d="M100.002,150.003h30h14.624h0.376h15v-15v-25h-15.626h-14.374h-45h-45h-15h-15v25   c0,8.283,6.716,15,15,15h45h15H100.002z"/>
	<g>
		<path style="fill:#FFDE51;" d="M40.002,100.003h90h11.769h2.231h0.124h4.107h11.769v-25c0-2.328-0.542-4.625-1.584-6.707    l-4.146-8.293h-33.541H53.493H25.002c-8.284,0-15,6.715-15,15v25h15H40.002z"/>
	</g>
	<polygon style="fill:#009BE8;" points="40.002,120.003 85.002,120.003 130.002,120.003 144.376,120.003 160.002,120.003    160.002,90.003 148.233,90.003 144.126,90.003 144.002,90.003 141.771,90.003 130.002,90.003 40.002,90.003 25.002,90.003    10.002,90.003 10.002,120.003 25.002,120.003  "/>
</g>















</svg>
