<?xml version="1.0" encoding="iso-8859-1"?>
<!-- Generator: Adobe Illustrator 16.0.0, SVG Export Plug-In . SVG Version: 6.00 Build 0)  -->
<!DOCTYPE svg PUBLIC "-//W3C//DTD SVG 1.1//EN" "http://www.w3.org/Graphics/SVG/1.1/DTD/svg11.dtd">
<svg xmlns="http://www.w3.org/2000/svg" xmlns:xlink="http://www.w3.org/1999/xlink" version="1.1" id="Layer_1" x="0px" y="0px" width="512" height="512" viewBox="0 0 355.004 355.004" style="enable-background:new 0 0 355.004 355.004;" xml:space="preserve">
<g>
	<g>
		<path style="fill:#0082CF;" d="M250.001,231.031l-0.002,17.775c0,8.285,6.715,15.001,15.001,15.002    c8.282,0.001,14.999-6.714,14.999-14.998L280,231.031h0.003v-30h-30.002V231.031z"/>
		<path style="fill:#009BE8;" d="M49.999,231.026L49.999,231.026L50,248.809c0,8.284,6.714,15,14.999,15s15.001-6.716,15-15v-17.782    v-30.001h-30V231.026z"/>
		<g>
			<path style="fill:#61D338;" d="M0.005,145.078v53.461c0,8.283,6.715,15,15,15c8.283,0,15-6.716,15-14.999v-17.51v-36.035H0.009     C0.009,145.023,0.005,145.051,0.005,145.078z"/>
			<path style="fill:#00B10E;" d="M329.985,145.081h-29.986v35.95v17.514c0,8.285,6.715,14.999,15.001,15     c8.284,0,14.999-6.716,15-15v-17.514v-35.95c-0.001-0.044-0.007-0.086-0.007-0.13     C329.992,144.995,329.987,145.038,329.985,145.081z"/>
		</g>
		<polyline style="fill:#9B4C00;" points="104.851,40.292 165.001,100.44 225.149,40.293   "/>
		<path style="fill:#E9A440;" d="M204.249,55.277l10.607-10.606c2.85-2.85,6.561-4.301,10.293-4.379    c3.943-0.082,7.912,1.37,10.92,4.38l89.536,89.534c2.964,2.964,4.423,6.86,4.388,10.745c-0.035,3.791-1.492,7.573-4.387,10.467    l-25.607,25.613l-27.066,27.07l-14.848,14.853c-0.026,0.026-0.055,0.048-0.082,0.074l0.074-0.073    c5.855-5.856,5.857-15.353,0-21.21c0-0.001,0-0.002-0.002-0.003l-10.598-10.598l-0.006-0.006l-14.684-14.684l-15-15l-15-15    l-23.645-23.645l-10.605-10.606l-10.607-10.606l31.318-31.32L204.249,55.277z"/>
		<g>
			<path style="fill:#8D59C6;" d="M100.885,299.711c-0.001,8.284,6.714,15,14.999,15s15-6.716,15-15v-17.8v-30h-29.998     L100.885,299.711z"/>
			<path style="fill:#7F40BD;" d="M199.116,281.917l0.002,17.799c0.002,8.283,6.717,14.999,15,14.998l0.002,0.001     c8.283-0.001,15-6.718,14.998-15.001l-0.003-47.797h-29.999V281.917z"/>
		</g>
		<path style="fill:#FFDBAA;" d="M4.393,134.206c-2.813,2.813-4.394,6.628-4.393,10.606c-0.001,0.062,0.007,0.121,0.009,0.183    c0.048,3.912,1.614,7.654,4.384,10.424l25.612,25.611l19.994,19.995l15,15l15,15.001l20.887,20.885l14.998,15l15,15l23.514,23.514    c2.813,2.813,6.627,4.393,10.607,4.394c3.979,0,7.793-1.581,10.606-4.394l23.505-23.508l15-15l14.999-15l20.886-20.886l15-15.003    l0.072-0.071l0.074-0.073c5.855-5.856,5.857-15.352,0-21.209c0-0.002,0-0.003-0.001-0.004l-10.598-10.598l-0.007-0.006    l-14.684-14.684l-14.998-15l-15-15l-23.646-23.645l-10.605-10.606l-10.607-10.606l-24.248-24.249l-15-15l-10.606-10.606    c-2.85-2.85-6.562-4.301-10.296-4.379c-3.941-0.082-7.91,1.37-10.918,4.378L4.393,134.206z"/>
		<path style="fill:#FF509D;" d="M70.38,89.436L70.38,89.436l10.607,10.607l9.158,9.159l14.998,15.002l15.002,15l20.785,20.787    l15,15l14.998,15l38.842,38.844l2.069,2.068l8.532,8.533c0.003,0.002,0.002,0.004,0.004,0.006    c5.854,5.858,5.852,15.352-0.004,21.208c-1.811,1.809-3.966,3.056-6.256,3.747c-1.418,0.428-2.885,0.646-4.352,0.646    c-3.836,0-7.672-1.463-10.6-4.388c-0.002-0.001-0.004-0.003-0.006-0.006l-0.043-0.042l-10.559-10.559l-60.053-60.058l-15-14.999    l-8.361-8.362l-15-14.999l-30.37-30.375l-10.608-10.606v-0.001c-5.855-5.858-5.855-15.354,0.002-21.213    C55.024,83.58,64.521,83.579,70.38,89.436z"/>
	</g>
	<polygon style="fill:#EFC27B;" points="355.004,94.526 355,94.522 355,94.531 355.004,94.526  "/>
	<g>
		<path style="fill:#FFC86D;" d="M325.608,134.206l-89.536-89.534c-3.008-3.01-6.977-4.462-10.92-4.38    c-0.005,0-0.01,0.001-0.015,0.001H165v54.229l0.004,0.004L165,94.531v5.905v8.228v75.395v42.428v83.332c0.003,0,0.005,0,0.008,0    c3.979,0,7.793-1.581,10.606-4.394l23.505-23.508l15-15l14.999-15l20.886-20.886l8.091-8.093c-0.005,0.005-0.01,0.011-0.015,0.017    l-0.074,0.073c0.027-0.026,0.056-0.048,0.082-0.074l14.848-14.853l27.066-27.07l25.607-25.613    c2.895-2.894,4.352-6.676,4.387-10.467C330.031,141.066,328.572,137.17,325.608,134.206z"/>
		<path style="fill:#FFB65B;" d="M325.608,134.206l-89.536-89.534c-3.008-3.01-6.977-4.462-10.92-4.38    c-0.005,0-0.01,0.001-0.015,0.001H165v54.229l0.004,0.004l2.957,2.957l7.65,7.649l10.605,10.606l23.646,23.645l15,15l14.998,15    l14.684,14.684l0.007,0.006l10.598,10.598c0,0,0.001,0.002,0.001,0.004c5.857,5.857,5.855,15.353,0,21.209l-0.074,0.073    l-0.072,0.071l-6.909,6.91c-0.005,0.005-0.01,0.011-0.015,0.017l-0.074,0.073c0.027-0.026,0.056-0.048,0.082-0.074l14.848-14.853    l27.066-27.07l25.607-25.613c2.895-2.894,4.352-6.676,4.387-10.467C330.031,141.066,328.572,137.17,325.608,134.206z"/>
		<path style="fill:#6D3802;" d="M165.004,94.526L165.004,94.526l24.248-24.249l15-15l10.607-10.606    c2.846-2.846,6.551-4.296,10.278-4.378H165v54.229L165.004,94.526z"/>
		<path style="fill:#FF017B;" d="M188.561,250.049l10.559,10.559l0.043,0.042c0.002,0.003,0.004,0.005,0.006,0.006    c2.928,2.925,6.764,4.388,10.6,4.388c1.467,0,2.934-0.218,4.352-0.646c2.29-0.691,4.445-1.938,6.256-3.747    c5.855-5.856,5.858-15.35,0.004-21.208c-0.002-0.002-0.001-0.004-0.004-0.006l-8.532-8.533l-2.069-2.068l-38.842-38.844    L165,184.059v42.428L188.561,250.049z"/>
	</g>
	<polygon style="fill:#EFC27B;" points="355.004,94.526 355,94.522 355,94.531 355.004,94.526  "/>
</g>















</svg>
