<?xml version="1.0" encoding="iso-8859-1"?>
<!-- Generator: Adobe Illustrator 16.0.0, SVG Export Plug-In . SVG Version: 6.00 Build 0)  -->
<!DOCTYPE svg PUBLIC "-//W3C//DTD SVG 1.1//EN" "http://www.w3.org/Graphics/SVG/1.1/DTD/svg11.dtd">
<svg xmlns="http://www.w3.org/2000/svg" xmlns:xlink="http://www.w3.org/1999/xlink" version="1.1" id="Layer_1" x="0px" y="0px" width="512" height="512" viewBox="0 0 330 330" style="enable-background:new 0 0 330 330;" xml:space="preserve">
<g>
	<path style="fill:#FF509D;" d="M217.834,1.153C216.007,0.393,214.046,0,212.066,0H165h-47.066c-1.979,0-3.94,0.393-5.768,1.153   C60.733,22.578,27.5,72.417,27.5,128.124V192.5c0,75.776,61.647,137.458,137.5,137.5h0.068h0.007   c75.777-0.042,137.425-61.724,137.425-137.5v-64.376C302.5,72.417,269.267,22.578,217.834,1.153z"/>
	<path style="fill:#FF017B;" d="M217.834,1.153C216.007,0.393,214.046,0,212.066,0H165v330h0.068h0.007   c75.777-0.042,137.425-61.724,137.425-137.5v-64.376C302.5,72.417,269.267,22.578,217.834,1.153z"/>
	<g>
		<path style="fill:#57555D;" d="M106.749,112.624c-3.95,0-7.82,1.601-10.609,4.39c-2.791,2.801-4.391,6.66-4.391,10.61    s1.6,7.819,4.391,10.61c2.789,2.789,6.659,4.39,10.609,4.39s7.809-1.601,10.609-4.39c2.791-2.801,4.391-6.66,4.391-10.61    s-1.6-7.81-4.391-10.61C114.558,114.225,110.699,112.624,106.749,112.624z"/>
		<path style="fill:#3C3A3F;" d="M223.249,112.624c-3.95,0-7.811,1.601-10.6,4.399c-2.791,2.791-4.4,6.65-4.4,10.601    s1.609,7.819,4.4,10.61c2.789,2.789,6.649,4.39,10.6,4.39s7.82-1.601,10.609-4.39c2.791-2.791,4.391-6.66,4.391-10.61    s-1.6-7.81-4.391-10.601C231.069,114.225,227.199,112.624,223.249,112.624z"/>
		<path style="fill:#57555D;" d="M106.749,187.624c-3.95,0-7.82,1.601-10.609,4.399c-2.791,2.791-4.391,6.65-4.391,10.601    s1.6,7.819,4.391,10.61c2.789,2.789,6.659,4.39,10.609,4.39s7.809-1.601,10.609-4.39c2.791-2.791,4.391-6.66,4.391-10.61    s-1.6-7.81-4.391-10.601C114.558,189.225,110.699,187.624,106.749,187.624z"/>
		<path style="fill:#3C3A3F;" d="M223.249,187.624c-3.95,0-7.811,1.601-10.6,4.399c-2.791,2.791-4.4,6.65-4.4,10.601    s1.609,7.819,4.4,10.61c2.789,2.789,6.658,4.39,10.6,4.39c3.95,0,7.82-1.601,10.609-4.39c2.791-2.801,4.391-6.66,4.391-10.61    c0-3.94-1.6-7.81-4.391-10.601C231.069,189.225,227.199,187.624,223.249,187.624z"/>
		<g>
			<path style="fill:#57555D;" d="M165,154.374L165,154.374c-3.951,0-7.812,1.601-10.61,4.39c-2.791,2.801-4.391,6.66-4.391,10.61     s1.6,7.81,4.391,10.61c2.799,2.789,6.659,4.39,10.609,4.39H165c3.949,0,7.819-1.601,10.608-4.39     c2.791-2.801,4.391-6.66,4.391-10.61s-1.6-7.81-4.391-10.61C172.819,155.975,168.949,154.374,165,154.374z"/>
			<path style="fill:#57555D;" d="M165,229.374L165,229.374c-3.951,0-7.812,1.601-10.61,4.39c-2.791,2.801-4.391,6.66-4.391,10.61     s1.6,7.819,4.391,10.61c2.799,2.789,6.659,4.39,10.609,4.39H165c3.949,0,7.819-1.601,10.608-4.39     c2.791-2.801,4.391-6.66,4.391-10.61s-1.6-7.81-4.391-10.61C172.819,230.975,168.949,229.374,165,229.374z"/>
			<path style="fill:#57555D;" d="M164.999,109.374L164.999,109.374c3.95,0,7.809-1.601,10.609-4.39     c2.791-2.801,4.391-6.66,4.391-10.61s-1.6-7.81-4.391-10.61c-2.789-2.789-6.659-4.39-10.608-4.39h-0.001     c-3.95,0-7.811,1.601-10.609,4.39c-2.791,2.801-4.391,6.66-4.391,10.61s1.6,7.81,4.391,10.61     C157.188,107.773,161.049,109.374,164.999,109.374z"/>
		</g>
		<path style="fill:#57555D;" d="M42.5,180h-20c-8.284,0-15,6.716-15,15s6.716,15,15,15h20c8.284,0,15-6.716,15-15    S50.784,180,42.5,180z"/>
		<path style="fill:#57555D;" d="M42.5,120h-20c-8.284,0-15,6.716-15,15s6.716,15,15,15h20c8.284,0,15-6.716,15-15    S50.784,120,42.5,120z"/>
		<path style="fill:#3C3A3F;" d="M307.5,180h-20c-8.284,0-15,6.716-15,15s6.716,15,15,15h20c8.284,0,15-6.716,15-15    S315.784,180,307.5,180z"/>
		<path style="fill:#3C3A3F;" d="M287.5,150h20c8.284,0,15-6.716,15-15s-6.716-15-15-15h-20c-8.284,0-15,6.716-15,15    S279.216,150,287.5,150z"/>
	</g>
	<path style="fill:#3C3A3F;" d="M175.608,179.984c2.791-2.801,4.391-6.66,4.391-10.61s-1.6-7.81-4.391-10.61   c-2.789-2.789-6.659-4.39-10.608-4.39v30C168.949,184.374,172.819,182.773,175.608,179.984z"/>
	<path style="fill:#3C3A3F;" d="M175.608,254.984c2.791-2.801,4.391-6.66,4.391-10.61s-1.6-7.81-4.391-10.61   c-2.789-2.789-6.659-4.39-10.608-4.39v30C168.949,259.374,172.819,257.773,175.608,254.984z"/>
	<path style="fill:#3C3A3F;" d="M179.999,94.374c0-3.95-1.6-7.81-4.391-10.61c-2.789-2.789-6.659-4.39-10.608-4.39v30   c3.949,0,7.808-1.601,10.608-4.39C178.399,102.184,179.999,98.324,179.999,94.374z"/>
</g>















</svg>
