<?xml version="1.0" encoding="iso-8859-1"?>
<!-- Generator: Adobe Illustrator 16.0.0, SVG Export Plug-In . SVG Version: 6.00 Build 0)  -->
<!DOCTYPE svg PUBLIC "-//W3C//DTD SVG 1.1//EN" "http://www.w3.org/Graphics/SVG/1.1/DTD/svg11.dtd">
<svg xmlns="http://www.w3.org/2000/svg" xmlns:xlink="http://www.w3.org/1999/xlink" version="1.1" id="Layer_1" x="0px" y="0px" width="512" height="512" viewBox="0 0 330 330" style="enable-background:new 0 0 330 330;" xml:space="preserve">
<g>
	<path style="fill:#FFB65B;" d="M10.004,230.666c0.184,16.938,7.34,33.067,20.204,45.481C42.621,288.128,58.947,295,74.998,295H75   h0.002c16.052,0,32.377-6.871,44.789-18.851c12.863-12.416,20.021-28.543,20.205-45.481l9.081-108.976   C149.689,117.792,150,113.864,150,110c0-20.032-7.803-38.867-21.967-53.032C113.867,42.8,95.032,35,75,35   c-20.033,0-38.869,7.801-53.033,21.967C7.801,71.133-0.002,89.967,0,110.004c0,3.897,0.316,7.855,0.938,11.771L10.004,230.666z"/>
	<path style="fill:#FFA828;" d="M255,295c20.033,0,38.867-7.801,53.033-21.965c14.166-14.167,21.967-33,21.967-53.038   c-0.002-3.898-0.316-7.854-0.938-11.771l-9.066-108.891c-0.184-16.939-7.342-33.066-20.205-45.481   C287.379,41.873,271.053,35,255,35h-0.002c-16.053,0-32.377,6.873-44.791,18.853c-12.861,12.415-20.021,28.542-20.203,45.48   l-9.082,108.976C180.311,212.208,180,216.139,180,220c0,20.034,7.801,38.867,21.967,53.034C216.133,287.2,234.967,295,255,295z"/>
	<path style="fill:#FF511F;" d="M132.316,142.188l-13.983-12.816l-33.197-30.43c-0.026-0.024-0.056-0.045-0.083-0.068   c-0.221-0.2-0.453-0.381-0.684-0.566c-0.164-0.131-0.322-0.27-0.49-0.393c-0.232-0.172-0.475-0.324-0.717-0.481   c-0.178-0.115-0.354-0.241-0.536-0.35c-0.223-0.132-0.452-0.244-0.681-0.362c-0.211-0.111-0.42-0.229-0.635-0.33   c-0.202-0.094-0.41-0.168-0.613-0.252c-0.25-0.104-0.497-0.211-0.75-0.301c-0.182-0.063-0.369-0.109-0.553-0.166   c-0.281-0.086-0.561-0.176-0.844-0.244c-0.178-0.044-0.357-0.071-0.537-0.107c-0.292-0.06-0.582-0.123-0.877-0.166   c-0.195-0.027-0.392-0.039-0.588-0.059c-0.279-0.029-0.558-0.063-0.838-0.076c-0.227-0.012-0.453-0.003-0.68-0.003   c-0.25-0.001-0.5-0.01-0.75,0.003c-0.256,0.012-0.512,0.045-0.768,0.069c-0.219,0.022-0.439,0.035-0.658,0.067   c-0.271,0.038-0.539,0.099-0.809,0.152c-0.203,0.04-0.406,0.071-0.606,0.12c-0.263,0.063-0.52,0.147-0.779,0.228   c-0.205,0.061-0.413,0.114-0.615,0.186c-0.235,0.081-0.464,0.184-0.694,0.276c-0.225,0.091-0.449,0.174-0.668,0.275   c-0.199,0.093-0.391,0.202-0.586,0.304c-0.244,0.127-0.492,0.249-0.73,0.39c-0.167,0.099-0.326,0.214-0.49,0.319   c-0.257,0.166-0.516,0.328-0.764,0.512c-0.152,0.113-0.298,0.241-0.447,0.36c-0.244,0.195-0.49,0.387-0.725,0.599   c-0.025,0.023-0.053,0.042-0.078,0.065L31.672,129.37l-13.984,12.818l-8.562,7.848c-6.108,5.598-6.52,15.087-0.922,21.193   c2.958,3.229,7.003,4.864,11.062,4.864c0.414,0,0.828-0.021,1.24-0.056c3.201-0.266,6.342-1.549,8.891-3.887l5.424-4.971   L75,130.348l40.184,36.832l5.423,4.971c2.55,2.338,5.69,3.621,8.89,3.887c0.414,0.034,0.828,0.056,1.242,0.056   c4.057,0,8.104-1.636,11.061-4.864c5.598-6.107,5.186-15.596-0.921-21.193L132.316,142.188z"/>
	<g>
		<path style="fill:#FF2300;" d="M321.795,158.772c-2.959-3.228-7.002-4.864-11.061-4.864c-0.414,0-0.828,0.022-1.24,0.056    c-3.201,0.264-6.342,1.549-8.893,3.887l-5.422,4.972L255,199.653l-40.184-36.832l-5.424-4.971    c-2.549-2.338-5.689-3.623-8.889-3.887c-0.414-0.033-0.828-0.056-1.242-0.056c-4.059,0-8.104,1.637-11.063,4.864    c-5.598,6.107-5.184,15.596,0.922,21.192l8.561,7.847l13.984,12.818l33.197,30.43c0.027,0.023,0.057,0.043,0.082,0.066    c0.227,0.205,0.463,0.391,0.699,0.58c0.158,0.125,0.311,0.26,0.473,0.379c0.242,0.178,0.492,0.338,0.74,0.498    c0.172,0.111,0.338,0.229,0.512,0.332c0.234,0.138,0.475,0.256,0.713,0.381c0.201,0.104,0.398,0.217,0.604,0.313    c0.213,0.098,0.432,0.179,0.646,0.266c0.238,0.098,0.475,0.203,0.717,0.287c0.193,0.066,0.389,0.117,0.584,0.176    c0.27,0.082,0.539,0.169,0.813,0.236c0.186,0.046,0.375,0.074,0.563,0.112c0.285,0.058,0.566,0.119,0.854,0.16    c0.199,0.028,0.4,0.04,0.602,0.061c0.275,0.028,0.549,0.063,0.824,0.075c0.227,0.012,0.455,0.002,0.682,0.004    c0.25,0,0.5,0.008,0.75-0.004c0.252-0.012,0.504-0.044,0.756-0.068c0.223-0.021,0.447-0.035,0.672-0.068    c0.264-0.037,0.525-0.097,0.787-0.148c0.209-0.043,0.42-0.074,0.627-0.125c0.256-0.063,0.504-0.145,0.756-0.219    c0.213-0.064,0.43-0.119,0.641-0.193c0.227-0.08,0.447-0.178,0.672-0.268c0.23-0.094,0.463-0.18,0.689-0.287    c0.193-0.088,0.379-0.195,0.568-0.293c0.25-0.129,0.504-0.254,0.748-0.398c0.162-0.096,0.316-0.207,0.475-0.311    c0.262-0.168,0.525-0.334,0.777-0.521c0.15-0.109,0.295-0.236,0.441-0.354c0.246-0.197,0.494-0.391,0.73-0.604    c0.025-0.022,0.053-0.042,0.076-0.063l33.193-30.428l13.984-12.818l8.561-7.849C326.98,174.367,327.393,164.877,321.795,158.772z"/>
	</g>
</g>















</svg>
