<?xml version="1.0" encoding="iso-8859-1"?>
<!-- Generator: Adobe Illustrator 16.0.0, SVG Export Plug-In . SVG Version: 6.00 Build 0)  -->
<!DOCTYPE svg PUBLIC "-//W3C//DTD SVG 1.1//EN" "http://www.w3.org/Graphics/SVG/1.1/DTD/svg11.dtd">
<svg xmlns="http://www.w3.org/2000/svg" xmlns:xlink="http://www.w3.org/1999/xlink" version="1.1" id="Layer_1" x="0px" y="0px" width="512" height="512" viewBox="0 0 341.137 341.136" style="enable-background:new 0 0 341.137 341.136;" xml:space="preserve">
<g>
	<g>
		<g>
			<path style="fill:#FFB65B;" d="M304.32,225.783c18.553-9.725,31.248-29.164,31.248-51.523c0-22.361-12.695-41.8-31.25-51.524     l13.431-13.43c5.858-5.858,5.858-15.355,0-21.213l-61.015-61.015c-2.813-2.814-6.628-4.394-10.606-4.394     c-3.979,0-7.794,1.58-10.606,4.392l-24.506,24.506l-27.713-44.51c-2.738-4.398-7.55-7.071-12.73-7.072h-0.002     c-5.181,0-9.995,2.674-12.733,7.072l-27.714,44.51l-24.502-24.502c-2.814-2.813-6.629-4.394-10.607-4.394     s-7.795,1.581-10.606,4.394L23.39,88.097c-5.858,5.858-5.858,15.355,0,21.213l13.397,13.398c-5.164,2.705-9.949,6.2-14.188,10.44     c-10.982,10.982-17.03,25.583-17.03,41.112c0,22.359,12.693,41.798,31.247,51.522l-13.429,13.429     c-5.857,5.857-5.857,15.354,0,21.212l61.017,61.016c5.857,5.858,15.354,5.857,21.213,0l49.222-49.223     c5.139,0.819,10.389,1.258,15.727,1.259h0.002h0.001h0.001c0.002,0,0.002,0,0.002,0c5.354,0,10.605-0.432,15.73-1.252     l49.218,49.218c2.929,2.929,6.767,4.394,10.606,4.394c3.838,0,7.678-1.465,10.606-4.394l61.018-61.018     c2.813-2.813,4.394-6.628,4.394-10.607c0-3.978-1.58-7.793-4.394-10.605L304.32,225.783z"/>
			<path style="fill:#FFB65B;" d="M170.572,282.99c0,0-0.002,0-0.004,0c-16.031,0-29.073,13.042-29.073,29.073     c0,16.031,13.042,29.073,29.073,29.073c0.002,0,0.002,0,0.002,0c16.029-0.002,29.067-13.043,29.067-29.073     C199.638,296.034,186.6,282.992,170.572,282.99z"/>
			<path style="fill:#FFA828;" d="M170.572,341.136c16.027-0.002,29.065-13.043,29.065-29.073c0-16.029-13.038-29.071-29.065-29.073     c0,0-0.002,0-0.004,0v58.146C170.57,341.136,170.57,341.136,170.572,341.136z"/>
		</g>
		<path style="fill:#FFA828;" d="M304.32,225.783c18.553-9.725,31.248-29.164,31.248-51.523c0-22.361-12.695-41.8-31.25-51.524    l13.431-13.43c5.858-5.858,5.858-15.355,0-21.213l-61.015-61.015c-2.813-2.814-6.628-4.394-10.606-4.394    c-3.979,0-7.794,1.58-10.606,4.392l-24.506,24.506l-27.713-44.51c-2.738-4.398-7.55-7.071-12.73-7.072h-0.002    c-0.002,0-0.002,0-0.002,0v273.475c0.002,0,0.002,0,0.002,0c5.354,0,10.605-0.432,15.73-1.252l49.218,49.218    c2.929,2.929,6.767,4.394,10.606,4.394c3.838,0,7.678-1.465,10.606-4.394l61.018-61.018c2.813-2.813,4.394-6.628,4.394-10.607    c0-3.978-1.58-7.793-4.394-10.605L304.32,225.783z"/>
	</g>
	<path style="fill:#FFC86D;" d="M297.324,154.361c-4.526-4.526-10.324-7.314-16.588-8.044l-12.21,12.212   c0.82,5.125,1.251,10.378,1.251,15.731c0,0,0,0.002,0,0.002v0v0c0,0,0,0,0,0c0,5.351-0.431,10.602-1.25,15.725l12.212,12.212   c13.961-1.646,24.829-13.544,24.829-27.941C305.568,166.744,302.641,159.678,297.324,154.361z"/>
	<path style="fill:#FFDBAA;" d="M72.604,189.994c-0.826-5.186-1.249-10.449-1.249-15.732c0-5.282,0.423-10.547,1.251-15.736   l-12.209-12.208c-6.264,0.731-12.059,3.518-16.584,8.043c-5.316,5.316-8.244,12.383-8.244,19.898   c0,14.396,10.867,26.294,24.828,27.941L72.604,189.994z"/>
	<path style="fill:#FFDBAA;" d="M90.111,232.402c-2.465-3.413-4.723-6.998-6.752-10.739l-10.738,10.739l-17.414,17.414   l39.803,39.803l28.156-28.155C110.151,254.397,98.832,244.474,90.111,232.402z"/>
	<path style="fill:#FFC86D;" d="M253.306,119.508c0.089,0.143,0.159,0.292,0.243,0.438c1.482,2.258,2.88,4.576,4.178,6.956   l10.785-10.784l17.418-17.419l-39.802-39.802l-18.833,18.834l23.899,38.387L253.306,119.508z"/>
	<path style="fill:#FFC86D;" d="M257.729,221.616c-2.045,3.749-4.328,7.35-6.824,10.786c-8.674,11.955-19.942,21.909-32.979,29.02   l28.199,28.199l39.805-39.805l-17.414-17.414L257.729,221.616z"/>
	<path style="fill:#FFDBAA;" d="M83.361,126.855c1.542-2.844,3.228-5.59,5.025-8.248l1.551-2.49l23.904-38.39L95.014,58.899   L55.209,98.703l17.414,17.415L83.361,126.855z"/>
	<path style="fill:#FFC86D;" d="M224.63,217.402c3.65-4.566,6.731-9.6,9.146-15c0.492-1.1,0.957-2.215,1.393-3.347   c1.217-3.16,2.207-6.43,2.955-9.793h-12.748h-39.809v13.14v15v11.661v3.339v9.417c3.365-0.746,6.639-1.737,9.801-2.955   c4.467-1.722,8.711-3.894,12.68-6.462C214.352,228.324,219.953,223.251,224.63,217.402z"/>
	<g>
		<path style="fill:#FFDBAA;" d="M170.568,75.047c0.002,0,0.002,0,0.002,0c5.354,0,10.605,0.432,15.729,1.252    c1.817,0.29,3.618,0.633,5.402,1.021l-2.465-3.958l-18.664-29.976l-0.004-0.007L151.9,73.361l-2.457,3.947    c1.783-0.387,3.586-0.714,5.4-1.004C159.98,75.486,165.231,75.047,170.568,75.047z"/>
		<path style="fill:#FFDBAA;" d="M235.166,149.462c-0.434-1.129-0.898-2.244-1.391-3.344c-2.414-5.4-5.496-10.435-9.146-15    c-1.008-1.262-2.054-2.493-3.146-3.679c-3.974-4.319-8.492-8.122-13.439-11.321c-3.967-2.566-8.21-4.739-12.678-6.459    c-5.393-2.078-11.105-3.501-17.047-4.167c-2.545-0.285-5.127-0.445-7.746-0.445c0,0-0.002,0-0.004,0    c-2.616,0-5.2,0.159-7.752,0.443c-5.926,0.661-11.652,2.068-17.07,4.143c-4.494,1.722-8.776,3.897-12.783,6.485    c-4.934,3.186-9.451,6.99-13.43,11.326c-1.088,1.185-2.133,2.412-3.138,3.674c-1.022,1.283-1.995,2.608-2.929,3.967    c-0.305,0.446-0.612,0.891-0.908,1.345c-1.994,3.06-3.758,6.293-5.262,9.688c-0.482,1.087-0.932,2.195-1.359,3.315    c-0.971,2.542-1.811,5.157-2.488,7.849c-0.166,0.657-0.32,1.319-0.467,1.98h12.784h54.751c0.016,0,0.033-0.002,0.049-0.002    l0.006,0c0.014,0,0.027,0.002,0.043,0.002h54.752h12.756C237.377,155.897,236.385,152.625,235.166,149.462z"/>
	</g>
	<path style="fill:#FFC86D;" d="M186.299,76.299c1.817,0.29,3.618,0.633,5.402,1.021l-2.465-3.958l-18.664-29.976v31.662   C175.924,75.048,181.176,75.479,186.299,76.299z"/>
	<path style="fill:#FFC86D;" d="M170.615,159.262h54.752h12.756c-0.746-3.365-1.738-6.638-2.957-9.8   c-0.434-1.129-0.898-2.244-1.391-3.344c-2.414-5.4-5.496-10.435-9.146-15c-1.008-1.262-2.054-2.493-3.146-3.679   c-3.974-4.319-8.492-8.122-13.439-11.321c-3.967-2.566-8.21-4.739-12.678-6.459c-5.393-2.078-11.105-3.501-17.047-4.167   c-2.545-0.285-5.127-0.445-7.746-0.445v54.213C170.586,159.26,170.6,159.262,170.615,159.262z"/>
	<path style="fill:#FFDBAA;" d="M102.982,189.262c0.146,0.66,0.299,1.318,0.465,1.973c0.678,2.692,1.518,5.309,2.49,7.851   c0.428,1.12,0.877,2.229,1.359,3.315c2.406,5.432,5.48,10.458,9.099,15c4.683,5.88,10.284,10.942,16.567,15   c4.006,2.587,8.287,4.763,12.781,6.484c3.176,1.217,6.455,2.207,9.822,2.95v-9.434v-3.339v-11.661v-15v-13.14h-39.806H102.982z"/>
</g>















</svg>
