<?xml version="1.0" encoding="iso-8859-1"?>
<!-- Generator: Adobe Illustrator 16.0.0, SVG Export Plug-In . SVG Version: 6.00 Build 0)  -->
<!DOCTYPE svg PUBLIC "-//W3C//DTD SVG 1.1//EN" "http://www.w3.org/Graphics/SVG/1.1/DTD/svg11.dtd">
<svg xmlns="http://www.w3.org/2000/svg" xmlns:xlink="http://www.w3.org/1999/xlink" version="1.1" id="Layer_1" x="0px" y="0px" width="512" height="512" viewBox="0 0 390 390" style="enable-background:new 0 0 390 390;" xml:space="preserve">
<g>
	<g>
		<path style="fill:#61D338;" d="M160,0c-8.285,0-15,6.717-15,15v55.783v39.262v0v0h50V98.047V70.783V0H160z"/>
		<path style="fill:#00B10E;" d="M230,0h-35v70.783v27.264v11.998h50v0v0V70.783V15C245,6.717,238.284,0,230,0z"/>
	</g>
	<path style="fill:#FF509D;" d="M273.845,179.228L245,110.045l-1.155-2.771c-2.329-5.588-7.79-9.228-13.845-9.228h-15h-20h-20h-15   c-6.055,0-11.516,3.64-13.845,9.228L145,110.045l-28.845,69.183c-0.763,1.83-1.155,3.791-1.155,5.772v64.995v0.012V375   c0,8.285,6.715,15,15,15h65h65c8.284,0,15-6.715,15-15V250.007v-0.012V185C275,183.019,274.607,181.058,273.845,179.228z"/>
	<path style="fill:#FF017B;" d="M273.845,179.228L245,110.045l-1.155-2.771c-2.329-5.588-7.79-9.228-13.845-9.228h-15h-20V170v160   v60h65c8.284,0,15-6.715,15-15V250.007v-0.012V185C275,183.019,274.607,181.058,273.845,179.228z"/>
	<path style="fill:#FFFFFF;" d="M270.606,239.394L260,228.788l-15-15l-39.394-39.394c-2.929-2.929-6.769-4.393-10.606-4.394   c-3.84,0-7.678,1.465-10.606,4.394L145,213.788l-15,15l-10.606,10.606c-2.928,2.928-4.392,6.764-4.394,10.601v0.012   c0.002,3.836,1.466,7.672,4.394,10.6L130,271.213l15,15l39.394,39.394C187.322,328.536,191.16,330,195,330   c3.838,0,7.678-1.464,10.606-4.393L245,286.213l15-15l10.606-10.606c2.927-2.928,4.392-6.764,4.394-10.6v-0.012   C274.998,246.158,273.533,242.322,270.606,239.394z"/>
	<path style="fill:#D6D5D8;" d="M260,228.788l-15-15l-39.394-39.394c-2.929-2.929-6.769-4.393-10.606-4.394v160   c3.838,0,7.678-1.464,10.606-4.393L245,286.213l15-15l10.606-10.606c2.927-2.928,4.392-6.764,4.394-10.6v-0.012   c-0.002-3.837-1.467-7.673-4.394-10.601L260,228.788z"/>
</g>















</svg>
