<?xml version="1.0" encoding="iso-8859-1"?>
<!-- Generator: Adobe Illustrator 16.0.0, SVG Export Plug-In . SVG Version: 6.00 Build 0)  -->
<!DOCTYPE svg PUBLIC "-//W3C//DTD SVG 1.1//EN" "http://www.w3.org/Graphics/SVG/1.1/DTD/svg11.dtd">
<svg xmlns="http://www.w3.org/2000/svg" xmlns:xlink="http://www.w3.org/1999/xlink" version="1.1" id="Layer_1" x="0px" y="0px" width="512" height="512" viewBox="0 0 333.395 333.395" style="enable-background:new 0 0 333.395 333.395;" xml:space="preserve">
<g>
	<path style="fill:#AF2E08;" d="M333.395,226.021c0-20.73-9.755-40.094-26.248-52.459l-0.008-0.01h-4.649v-7.099   c4.331-21.42-2.237-43.624-17.917-59.306c-12.383-12.381-28.845-19.2-46.356-19.2c-5.214,0-10.417,0.629-15.469,1.852   c-11.677-19.294-32.668-31.476-56.049-31.476c-1.682,0-3.349,0.07-5.003,0.194c-21.348,1.602-40.21,13.375-51.046,31.282   c-5.053-1.224-10.256-1.853-15.47-1.853c-17.51,0-33.973,6.819-46.355,19.2c-15.68,15.68-22.246,37.881-17.918,59.298v7.106h-4.645   C9.761,185.917,0,205.286,0,226.021c0,6.095,0.84,12.101,2.486,17.902h26.661h12.806l-0.002-0.006h119.744h129.752v0.006h12.807   h26.66l-0.002-0.027C332.553,238.103,333.395,232.107,333.395,226.021z"/>
	<g>
		<path style="fill:#9B4C00;" d="M110.649,89.8c-5.053-1.224-10.256-1.853-15.47-1.853c-17.51,0-33.973,6.819-46.355,19.2    c-15.68,15.68-22.246,37.881-17.918,59.298v7.106h-4.645C9.761,185.917,0,205.286,0,226.021c0,6.095,0.84,12.101,2.486,17.902    h26.661h12.806l-0.002-0.006h119.744V58.518C140.348,60.119,121.485,71.893,110.649,89.8z"/>
		<path style="fill:#6D3802;" d="M333.395,226.021c0-20.73-9.755-40.094-26.248-52.459l-0.008-0.01h-4.649v-7.099    c4.331-21.42-2.237-43.624-17.917-59.306c-12.383-12.381-28.845-19.2-46.356-19.2c-5.214,0-10.417,0.629-15.469,1.852    c-11.677-19.294-32.668-31.476-56.049-31.476c-1.682,0-3.349,0.07-5.003,0.194v185.399h129.752v0.006h12.807h26.66l-0.002-0.027    C332.553,238.103,333.395,232.107,333.395,226.021z"/>
	</g>
	<path style="fill:#FFB65B;" d="M330.906,243.917c-2.5-25.609-10.881-49.518-23.768-70.361c-1.49-2.41-3.041-4.777-4.649-7.103   c-4.253-6.149-8.906-12.003-13.934-17.511c-17.706-19.398-39.968-34.57-65.075-43.802c-3.77-1.386-7.602-2.637-11.494-3.749   c-14.395-4.114-29.589-6.32-45.288-6.32c-1.674,0-3.34,0.033-5.003,0.082c-13.928,0.417-27.428,2.571-40.29,6.248   c-3.886,1.11-7.712,2.361-11.476,3.744c-25.116,9.232-47.381,24.41-65.092,43.813c-5.021,5.503-9.682,11.343-13.932,17.486   c-1.609,2.326-3.154,4.697-4.645,7.106C13.371,194.397,4.986,218.31,2.486,243.923c-0.519,5.314-0.788,10.7-0.788,16.148   c0,8.284,6.716,15,15,15h144.997h155.003c8.284,0,15-6.716,15-15C331.698,254.621,331.426,249.233,330.906,243.917z"/>
	<path style="fill:#FFA828;" d="M331.698,260.071c0-5.45-0.272-10.838-0.792-16.154c-2.5-25.609-10.881-49.518-23.768-70.361   c-1.49-2.41-3.041-4.777-4.649-7.103c-4.253-6.149-8.906-12.003-13.934-17.511c-17.706-19.398-39.968-34.57-65.075-43.802   c-3.77-1.386-7.602-2.637-11.494-3.749c-14.395-4.114-29.589-6.32-45.288-6.32c-1.674,0-3.34,0.033-5.003,0.082v14.006v15.013   v150.899h155.003C324.982,275.071,331.698,268.355,331.698,260.071z"/>
	<path style="fill:#E07200;" d="M246.695,191.068c-3.948,0-7.809,1.601-10.607,4.39c-2.791,2.801-4.393,6.661-4.393,10.61   c0,3.95,1.602,7.82,4.393,10.61c2.799,2.79,6.659,4.39,10.607,4.39c3.951,0,7.821-1.6,10.611-4.39s4.389-6.66,4.389-10.61   c0-3.94-1.599-7.81-4.389-10.61C254.517,192.669,250.646,191.068,246.695,191.068z"/>
	<path style="fill:#E07200;" d="M196.695,171.068c-3.948,0-7.809,1.601-10.607,4.4c-2.791,2.79-4.393,6.65-4.393,10.6   c0,3.95,1.602,7.82,4.393,10.61c2.799,2.79,6.659,4.39,10.607,4.39c3.951,0,7.812-1.6,10.611-4.39   c2.79-2.79,4.389-6.66,4.389-10.61c0-3.949-1.599-7.81-4.389-10.6C204.507,172.669,200.646,171.068,196.695,171.068z"/>
</g>















</svg>
