<?xml version="1.0" encoding="iso-8859-1"?>
<!-- Generator: Adobe Illustrator 16.0.0, SVG Export Plug-In . SVG Version: 6.00 Build 0)  -->
<!DOCTYPE svg PUBLIC "-//W3C//DTD SVG 1.1//EN" "http://www.w3.org/Graphics/SVG/1.1/DTD/svg11.dtd">
<svg xmlns="http://www.w3.org/2000/svg" xmlns:xlink="http://www.w3.org/1999/xlink" version="1.1" id="Layer_1" x="0px" y="0px" width="512" height="512" viewBox="0 0 362.354 362.354" style="enable-background:new 0 0 362.354 362.354;" xml:space="preserve">
<g>
	<path style="fill:#FFB65B;" d="M357.954,138.743c5.857-5.857,5.857-15.355,0-21.213L301.392,60.97L244.817,4.394   c-5.857-5.857-15.355-5.857-21.213,0l-42.429,42.425c-2.813,2.813-4.394,6.628-4.393,10.606c-0.001,3.979,1.579,7.794,4.393,10.607   l56.578,56.577l56.561,56.563c2.813,2.813,6.629,4.394,10.605,4.394c3.979,0,7.795-1.582,10.607-4.395L357.954,138.743z"/>
	<path style="fill:#FFA828;" d="M357.954,138.743c5.857-5.857,5.857-15.355,0-21.213L301.392,60.97l-63.639,63.64l56.561,56.563   c2.813,2.813,6.629,4.394,10.605,4.394c3.979,0,7.795-1.582,10.607-4.395L357.954,138.743z"/>
	<path style="fill:#FFDE51;" d="M153.446,357.395L322.597,188.24c5.859-5.857,5.859-15.354,0.002-21.213l-63.633-63.632   L195.319,39.75c-5.859-5.858-15.356-5.858-21.214-0.001L4.4,209.454c-5.857,5.857-5.857,15.355,0.001,21.214l63.646,63.646   l63.633,63.633c0.004,0.005,0.01,0.011,0.014,0.014c5.857,5.858,15.355,5.857,21.213,0   C153.091,357.775,153.272,357.587,153.446,357.395z"/>
	<path style="fill:#FFD400;" d="M153.446,357.395L322.597,188.24c5.859-5.857,5.859-15.354,0.002-21.213l-63.633-63.632   L68.047,294.314l63.633,63.633c0.004,0.005,0.01,0.011,0.014,0.014c5.857,5.858,15.355,5.857,21.213,0   C153.091,357.775,153.272,357.587,153.446,357.395z"/>
	<path style="fill:#FF8600;" d="M156.536,352.027l62.366-189.646c1.768-5.374,0.361-11.284-3.637-15.286   c-0.002-0.002-0.004-0.004-0.006-0.006c-4.002-4.003-9.916-5.41-15.291-3.643L10.321,205.812   c-4.948,1.628-8.698,5.705-9.905,10.774c-1.207,5.067,0.302,10.398,3.985,14.082l63.646,63.646l63.633,63.633   c3.683,3.683,9.014,5.192,14.081,3.984C150.829,360.726,154.908,356.975,156.536,352.027z"/>
	<path style="fill:#E07200;" d="M156.536,352.027l62.366-189.646c1.768-5.374,0.361-11.284-3.637-15.286L68.047,294.314   l63.633,63.633c3.683,3.683,9.014,5.192,14.081,3.984C150.829,360.726,154.908,356.975,156.536,352.027z"/>
</g>















</svg>
