<?xml version="1.0" encoding="iso-8859-1"?>
<!-- Generator: Adobe Illustrator 16.0.0, SVG Export Plug-In . SVG Version: 6.00 Build 0)  -->
<!DOCTYPE svg PUBLIC "-//W3C//DTD SVG 1.1//EN" "http://www.w3.org/Graphics/SVG/1.1/DTD/svg11.dtd">
<svg xmlns="http://www.w3.org/2000/svg" xmlns:xlink="http://www.w3.org/1999/xlink" version="1.1" id="Layer_1" x="0px" y="0px" width="512" height="512" viewBox="0 0 370 370" style="enable-background:new 0 0 370 370;" xml:space="preserve">
<g>
	<g>
		<path style="fill:#FF8600;" d="M177.99,197.499L150,149.026V79.129c-1.566,0.555-3.244,0.871-5,0.871h-10h-15h-15H90H75H65    c-1.756,0-3.434-0.316-5-0.871v69.897l-27.99,48.473C30.693,199.781,30,202.367,30,205v105v10v35c0,8.285,6.715,15,15,15h60h60    c8.284,0,15-6.715,15-15v-35v-10V205C180,202.367,179.307,199.781,177.99,197.499z"/>
		<path style="fill:#E07200;" d="M177.99,197.499L150,149.026V79.129c-1.566,0.555-3.244,0.871-5,0.871h-10h-15h-15v58.047v30V310    v10v20v30h60c8.284,0,15-6.715,15-15v-35v-10V205C180,202.367,179.307,199.781,177.99,197.499z"/>
		<rect x="90" y="80" style="fill:#FFFFFF;" width="30" height="58.047"/>
	</g>
	<g>
		<g>
			<polygon style="fill:#FFFFFF;" points="231.198,230 234.275,280 234.984,289.216 238.891,350 275,350 311.109,350      315.016,289.216 315.725,280 318.802,230    "/>
			<polygon style="fill:#FF8600;" points="275,280 234.275,280 234.984,289.216 238.891,350 275,350 311.109,350 315.016,289.216      315.725,280    "/>
			<polygon style="fill:#E07200;" points="275,280 275,350 311.109,350 315.016,289.216 315.725,280    "/>
		</g>
	</g>
	<polygon style="fill:#FFFFFF;" points="165,210 150,210 105,210 60,210 45,210 30,210 30,310 45,310 60,310 105,310 150,310    165,310 180,310 180,210  "/>
	<polygon style="fill:#D6D5D8;" points="165,210 150,210 105,210 105,310 150,310 165,310 180,310 180,210  "/>
	<path style="fill:#FF511F;" d="M145,0h-40H65c-8.285,0-15,6.717-15,15v60c0,6.529,4.178,12.068,10,14.129   C61.566,89.684,63.244,90,65,90h10h15h15h15h15h10c1.756,0,3.434-0.316,5-0.871c5.822-2.061,10-7.6,10-14.129V15   C160,6.717,153.284,0,145,0z"/>
	<path style="fill:#FF2300;" d="M120,90h15h10c1.756,0,3.434-0.316,5-0.871c5.822-2.061,10-7.6,10-14.129V15c0-8.283-6.716-15-15-15   h-40v90H120z"/>
	<path style="fill:#89C7EA;" d="M336.006,214.809C333.166,211.743,329.178,210,325,210h-50h-50c-4.178,0-8.167,1.743-11.006,4.809   s-4.27,7.177-3.95,11.342l10,130C220.645,363.967,227.162,370,235,370h40h40c7.838,0,14.354-6.033,14.956-13.85l10-130   C340.275,221.985,338.845,217.874,336.006,214.809z M305.725,280l-0.709,9.216L301.109,340H275h-26.109l-3.906-50.784L244.275,280   l-3.077-40H275h33.802L305.725,280z"/>
	<path style="fill:#00B5EC;" d="M336.006,214.809C333.166,211.743,329.178,210,325,210h-50v30h33.802l-3.077,40l-0.709,9.216   L301.109,340H275v30h40c7.838,0,14.354-6.033,14.956-13.85l10-130C340.275,221.985,338.845,217.874,336.006,214.809z"/>
</g>















</svg>
