<?xml version="1.0" encoding="iso-8859-1"?>
<!-- Generator: Adobe Illustrator 16.0.0, SVG Export Plug-In . SVG Version: 6.00 Build 0)  -->
<!DOCTYPE svg PUBLIC "-//W3C//DTD SVG 1.1//EN" "http://www.w3.org/Graphics/SVG/1.1/DTD/svg11.dtd">
<svg xmlns="http://www.w3.org/2000/svg" xmlns:xlink="http://www.w3.org/1999/xlink" version="1.1" id="Layer_1" x="0px" y="0px" width="512" height="512" viewBox="0 0 330 330" style="enable-background:new 0 0 330 330;" xml:space="preserve">
<g>
	<path style="fill:#FFA828;" d="M190,0C112.805,0,50,62.804,50,140c0,77.197,62.805,140,140,140c77.196,0,140-62.803,140-140   C330,62.804,267.196,0,190,0z"/>
	<path style="fill:#FFDBAA;" d="M140,50C62.805,50,0,112.804,0,190c0,77.197,62.805,140,140,140c77.196,0,140-62.803,140-140   C280,112.804,217.196,50,140,50z"/>
	<path style="fill:#FFC86D;" d="M140,50v280c77.196,0,140-62.803,140-140C280,112.804,217.196,50,140,50z"/>
	<path style="fill:#FFA828;" d="M174.998,250.002c3.951,0,7.812-1.6,10.611-4.4c2.79-2.791,4.389-6.66,4.389-10.6   c0-3.95-1.599-7.82-4.389-10.61s-6.66-4.39-10.611-4.39c-3.948,0-7.818,1.6-10.607,4.39c-2.791,2.79-4.393,6.66-4.393,10.61   s1.602,7.81,4.393,10.6C167.189,248.403,171.05,250.002,174.998,250.002z"/>
	<path style="fill:#FFA828;" d="M194.391,195.603c1.193,1.194,2.588,2.154,4.092,2.881c2.023,0.977,4.252,1.519,6.516,1.519   c3.951,0,7.821-1.6,10.611-4.4c2.79-2.791,4.389-6.65,4.389-10.6s-1.599-7.82-4.389-10.61c-2.8-2.79-6.66-4.39-10.611-4.39   c-3.939,0-7.809,1.6-10.607,4.39c-2.791,2.8-4.393,6.66-4.393,10.61c0,2.265,0.543,4.494,1.518,6.515   C192.242,193.02,193.199,194.413,194.391,195.603z"/>
	<path style="fill:#FFB65B;" d="M94.998,140.002c-3.948,0-7.809,1.6-10.607,4.39c-2.791,2.79-4.393,6.66-4.393,10.61   s1.602,7.81,4.393,10.6c2.789,2.8,6.659,4.4,10.607,4.4c3.951,0,7.821-1.6,10.611-4.4c2.79-2.791,4.389-6.65,4.389-10.6   s-1.599-7.81-4.389-10.61C102.81,141.603,98.949,140.002,94.998,140.002z"/>
</g>















</svg>
