<?xml version="1.0" encoding="iso-8859-1"?>
<!-- Generator: Adobe Illustrator 16.0.0, SVG Export Plug-In . SVG Version: 6.00 Build 0)  -->
<!DOCTYPE svg PUBLIC "-//W3C//DTD SVG 1.1//EN" "http://www.w3.org/Graphics/SVG/1.1/DTD/svg11.dtd">
<svg xmlns="http://www.w3.org/2000/svg" xmlns:xlink="http://www.w3.org/1999/xlink" version="1.1" id="Layer_1" x="0px" y="0px" width="512" height="512" viewBox="0 0 330 330" style="enable-background:new 0 0 330 330;" xml:space="preserve">
<g>
	<path style="fill:#FF511F;" d="M326.999,168.498l-60-79.982c-2.833-3.777-7.278-5.999-11.999-5.999l-15,0.001h-44.971   c-0.01,0-0.02-0.001-0.029-0.001h-60h-30H75H30H15c-0.063,0-0.123,0.009-0.187,0.01c-0.405,0.005-0.809,0.024-1.206,0.061   c-0.061,0.006-0.121,0.007-0.182,0.014c-0.424,0.044-0.842,0.112-1.254,0.19c-0.139,0.027-0.275,0.057-0.414,0.086   c-0.34,0.076-0.675,0.162-1.006,0.26c-0.104,0.03-0.207,0.058-0.311,0.09c-0.369,0.118-0.73,0.252-1.087,0.397   c-0.143,0.06-0.284,0.12-0.425,0.183c-0.283,0.126-0.563,0.262-0.836,0.404c-0.105,0.054-0.214,0.104-0.318,0.162   c-0.362,0.199-0.715,0.414-1.057,0.643c-0.096,0.063-0.188,0.13-0.281,0.194c-0.283,0.197-0.559,0.403-0.826,0.618   c-0.075,0.061-0.152,0.119-0.227,0.182c-0.33,0.275-0.649,0.563-0.953,0.867c-0.047,0.044-0.088,0.092-0.133,0.137   c-0.26,0.266-0.51,0.541-0.75,0.826c-0.069,0.082-0.139,0.162-0.206,0.246c-0.265,0.326-0.519,0.661-0.755,1.01   c-0.041,0.061-0.077,0.123-0.117,0.184c-0.191,0.29-0.371,0.588-0.542,0.893c-0.071,0.128-0.142,0.256-0.21,0.386   c-0.16,0.306-0.311,0.618-0.451,0.937c-0.059,0.135-0.115,0.271-0.17,0.408c-0.123,0.305-0.238,0.615-0.342,0.93   c-0.049,0.15-0.096,0.301-0.141,0.453c-0.1,0.339-0.189,0.683-0.266,1.032c-0.021,0.098-0.043,0.196-0.063,0.296   c-0.077,0.39-0.136,0.785-0.182,1.186c-0.014,0.122-0.026,0.245-0.037,0.369C0.028,96.613,0,97.061,0,97.516v60v99.969   c0,8.284,6.716,15,15,15h37.301h95.398H180h2.301h95.398H315c8.284,0,15-6.716,15-15v-79.986   C330,174.251,328.947,171.093,326.999,168.498z"/>
	<path style="fill:#DEDEE0;" d="M225,22.515h-90H45c-8.285,0-15,6.716-15,15v55.001h45h60h60c0.01,0,0.02,0.001,0.029,0.001H240   V37.515C240,29.231,233.283,22.515,225,22.515z"/>
	<path style="fill:#D6D5D8;" d="M195.029,92.517H240V37.515c0-8.284-6.717-15-15-15h-90v70.001h60   C195.01,92.516,195.02,92.517,195.029,92.517z"/>
	<path style="fill:#FF2300;" d="M326.999,168.498l-60-79.982c-2.833-3.777-7.278-5.999-11.999-5.999l-15,0.001h-44.971   C203.3,82.534,210,89.242,210,97.516v14.999v45.001c0,8.284-6.716,15-15,15h-15v18.618v51.351v15v15.001h111.361v-0.001H315   c8.284,0,15-6.716,15-15v-79.986C330,174.251,328.947,171.093,326.999,168.498z"/>
	<g>
		<path style="fill:#57555D;" d="M100,207.485c-22.346,0-41.311,14.736-47.697,35c-0.373,1.185-0.704,2.388-0.99,3.607    C50.455,249.751,50,253.566,50,257.485v0.002c0,5.224,0.809,10.261,2.301,14.998c6.387,20.263,25.352,35,47.699,35    s41.313-14.737,47.699-35c1.492-4.737,2.301-9.774,2.301-14.998c0-0.001,0-0.002,0-0.002c0-5.225-0.809-10.263-2.303-15    C141.311,222.221,122.346,207.485,100,207.485z"/>
		<path style="fill:#3C3A3F;" d="M230,207.485c-7.109,0-13.871,1.501-20,4.188c-5.611,2.458-10.686,5.917-15,10.151    c-9.248,9.078-15,21.707-15,35.661v0.002c0,5.224,0.809,10.261,2.301,14.998c6.387,20.263,25.352,35,47.699,35    s41.313-14.737,47.699-35c1.492-4.737,2.301-9.774,2.301-14.998c0-0.001,0-0.002,0-0.002c0-5.225-0.809-10.263-2.303-15    C271.311,222.221,252.346,207.485,230,207.485z"/>
		<path style="fill:#FFFFFF;" d="M116.611,246.386c-0.194-0.289-0.396-0.572-0.605-0.85c-0.416-0.557-0.861-1.09-1.333-1.599    c-0.472-0.51-0.968-0.995-1.489-1.453c-3.523-3.103-8.131-5-13.184-5s-9.66,1.897-13.184,5c-0.521,0.458-1.018,0.943-1.489,1.453    c-0.472,0.509-0.917,1.042-1.334,1.599c-0.208,0.277-0.41,0.561-0.604,0.85c-0.389,0.577-0.748,1.176-1.075,1.793    c-1.476,2.778-2.313,5.944-2.313,9.306c0,0,0,0.001,0,0.002c0,5.974,2.647,11.329,6.814,14.998c3.525,3.102,8.133,5,13.186,5    s9.66-1.898,13.186-5c4.167-3.669,6.814-9.024,6.814-14.998v-0.002c0-3.361-0.838-6.527-2.313-9.306    C117.359,247.562,117,246.963,116.611,246.386z"/>
		<path style="fill:#FFFFFF;" d="M246.611,246.386c-0.194-0.289-0.396-0.572-0.605-0.85c-0.416-0.557-0.861-1.09-1.333-1.599    c-0.472-0.51-0.968-0.995-1.489-1.453c-3.523-3.103-8.131-5-13.184-5s-9.66,1.897-13.184,5c-0.521,0.458-1.018,0.943-1.489,1.453    c-0.472,0.509-0.917,1.042-1.334,1.599c-0.208,0.277-0.41,0.561-0.604,0.85c-0.389,0.577-0.748,1.176-1.075,1.793    c-1.476,2.778-2.313,5.944-2.313,9.306c0,0,0,0.001,0,0.002c0,5.974,2.647,11.329,6.814,14.998c3.525,3.102,8.133,5,13.186,5    s9.66-1.898,13.186-5c4.167-3.669,6.814-9.024,6.814-14.998v-0.002c0-3.361-0.838-6.527-2.313-9.306    C247.359,247.562,247,246.963,246.611,246.386z"/>
	</g>
	<g>
		<path style="fill:#FFB65B;" d="M195.029,82.517c-0.01,0-0.02-0.001-0.029-0.001h-60h-30H75H30H15c-0.063,0-0.123,0.009-0.187,0.01    c-0.405,0.005-0.809,0.024-1.206,0.061c-0.061,0.006-0.121,0.007-0.182,0.014c-0.424,0.044-0.842,0.112-1.254,0.19    c-0.139,0.027-0.275,0.057-0.414,0.086c-0.34,0.076-0.675,0.162-1.006,0.26c-0.104,0.03-0.207,0.058-0.311,0.09    c-0.369,0.118-0.73,0.252-1.087,0.397c-0.143,0.06-0.284,0.12-0.425,0.183c-0.283,0.126-0.563,0.262-0.836,0.404    c-0.105,0.054-0.214,0.104-0.318,0.162c-0.362,0.199-0.715,0.414-1.057,0.643c-0.096,0.063-0.188,0.13-0.281,0.194    c-0.283,0.197-0.559,0.403-0.826,0.618c-0.075,0.061-0.152,0.119-0.227,0.182c-0.33,0.275-0.649,0.563-0.953,0.867    c-0.047,0.044-0.088,0.092-0.133,0.137c-0.26,0.266-0.51,0.541-0.75,0.826c-0.069,0.082-0.139,0.162-0.206,0.246    c-0.265,0.326-0.519,0.661-0.755,1.01c-0.041,0.061-0.077,0.123-0.117,0.184c-0.191,0.29-0.371,0.588-0.542,0.893    c-0.071,0.128-0.142,0.256-0.21,0.386c-0.16,0.306-0.311,0.618-0.451,0.937c-0.059,0.135-0.115,0.271-0.17,0.408    c-0.123,0.305-0.238,0.615-0.342,0.93c-0.049,0.15-0.096,0.301-0.141,0.453c-0.1,0.339-0.189,0.683-0.266,1.032    c-0.021,0.098-0.043,0.196-0.063,0.296c-0.077,0.39-0.136,0.785-0.182,1.186c-0.014,0.122-0.026,0.245-0.037,0.369    C0.028,96.613,0,97.061,0,97.516v60c0,8.284,6.716,15,15,15h60h30h30h45h15c8.284,0,15-6.716,15-15v-45.001V97.516    C210,89.242,203.3,82.534,195.029,82.517z"/>
		<path style="fill:#FFA828;" d="M195.029,82.517c-0.01,0-0.02-0.001-0.029-0.001h-60h-30v30v30v30h30h45h15c8.284,0,15-6.716,15-15    v-45.001V97.516C210,89.242,203.3,82.534,195.029,82.517z"/>
	</g>
	<rect x="90" y="112.516" style="fill:#FFFFFF;" width="30" height="30"/>
	<polygon style="fill:#FFFFFF;" points="150,142.516 180,142.516 180,112.517 180,112.516 150,112.516  "/>
	<rect x="30" y="112.516" style="fill:#FFFFFF;" width="30" height="30"/>
</g>















</svg>
