<?xml version="1.0" encoding="iso-8859-1"?>
<!-- Generator: Adobe Illustrator 16.0.0, SVG Export Plug-In . SVG Version: 6.00 Build 0)  -->
<!DOCTYPE svg PUBLIC "-//W3C//DTD SVG 1.1//EN" "http://www.w3.org/Graphics/SVG/1.1/DTD/svg11.dtd">
<svg xmlns="http://www.w3.org/2000/svg" xmlns:xlink="http://www.w3.org/1999/xlink" version="1.1" id="Layer_1" x="0px" y="0px" width="512" height="512" viewBox="0 0 350 350" style="enable-background:new 0 0 350 350;" xml:space="preserve">
<g>
	<path style="fill:#FFFFFF;" d="M275.811,78.372c-4.947-11.097-10.67-21.404-17.01-30.636L257.607,46h-2.105h-80.507H94.497h-2.106   l-1.191,1.736c-6.34,9.231-12.063,19.539-17.01,30.636L71.68,84h6.162h97.153h97.161h6.164L275.811,78.372z"/>
	<path style="fill:#FF509D;" d="M294.086,95H174.995H55.914c-9.107,27.053-14.248,57.623-14.248,90   c0,59.738,17.469,113.353,45.154,150h88.175h88.185c27.686-36.647,45.154-90.262,45.154-150   C308.334,152.623,303.193,122.053,294.086,95z"/>
	<path style="fill:#FF017B;" d="M308.334,185c0-32.377-5.141-62.947-14.248-90H174.995v240h88.185   C290.865,298.353,308.334,244.738,308.334,185z"/>
	<path style="fill:#89C7EA;" d="M275.148,25.959C272.313,22.206,267.883,20,263.18,20h-5.873c0.556-1.565,0.873-3.244,0.873-5   c0-8.283-6.716-15-15-15h-68.185H106.82c-8.284,0-15,6.717-15,15c0,1.756,0.318,3.435,0.871,5H86.82   c-4.703,0-9.134,2.206-11.969,5.959C44.229,66.493,26.666,124.463,26.666,185c0,60.538,17.563,118.507,48.186,159.042   C77.687,347.795,82.117,350,86.82,350h88.175h88.185c4.703,0,9.134-2.205,11.969-5.958c30.623-40.535,48.186-98.504,48.186-159.042   C323.334,124.463,305.771,66.493,275.148,25.959z M94.497,50h80.498h80.507c6.279,9.142,11.846,19.211,16.654,30h-97.161H77.842   C82.652,69.211,88.219,59.142,94.497,50z M66.967,110h108.028h108.038c2.778,9.672,5.02,19.705,6.692,30h-114.73H60.273   C61.947,129.705,64.188,119.672,66.967,110z M255.502,320h-80.507H94.497c-6.278-9.141-11.845-19.211-16.653-30h97.151h97.161   C267.348,300.789,261.781,310.859,255.502,320z M283.032,260H174.995H66.968c-2.78-9.671-5.02-19.705-6.692-30h114.72h114.729   C288.051,240.295,285.812,250.329,283.032,260z M174.995,200H57.064c-0.262-4.969-0.398-9.972-0.398-15   c0-5.027,0.137-10.03,0.398-15h117.931h117.94c0.262,4.97,0.398,9.973,0.398,15c0,5.028-0.137,10.031-0.398,15H174.995z"/>
	<path style="fill:#00B5EC;" d="M275.148,25.959C272.313,22.206,267.883,20,263.18,20h-5.873c0.556-1.565,0.873-3.244,0.873-5   c0-8.283-6.716-15-15-15h-68.185v50h80.507c6.279,9.142,11.846,19.211,16.654,30h-97.161v30h108.038   c2.778,9.672,5.02,19.705,6.692,30h-114.73v30h117.94c0.262,4.97,0.398,9.973,0.398,15c0,5.028-0.137,10.031-0.398,15h-117.94v30   h114.729c-1.674,10.295-3.913,20.329-6.692,30H174.995v30h97.161c-4.809,10.789-10.375,20.859-16.654,30h-80.507v30h88.185   c4.703,0,9.134-2.205,11.969-5.958c30.623-40.535,48.186-98.504,48.186-159.042C323.334,124.463,305.771,66.493,275.148,25.959z"/>
</g>















</svg>
