<?xml version="1.0" encoding="iso-8859-1"?>
<!-- Generator: Adobe Illustrator 18.0.0, SVG Export Plug-In . SVG Version: 6.00 Build 0)  -->
<!DOCTYPE svg PUBLIC "-//W3C//DTD SVG 1.1//EN" "http://www.w3.org/Graphics/SVG/1.1/DTD/svg11.dtd">
<svg version="1.1" id="Capa_1" xmlns="http://www.w3.org/2000/svg" xmlns:xlink="http://www.w3.org/1999/xlink" x="0px" y="0px"
	 viewBox="0 0 56.973 56.973" style="enable-background:new 0 0 56.973 56.973;" xml:space="preserve">
<g>
	<path style="fill:#F4F0EA;" d="M44.61,56.973c-1.603,0-3.11-0.625-4.243-1.758L10.753,25.601c-5.849-5.848-5.849-15.364,0-21.212
		C13.582,1.558,17.348,0,21.359,0c4.01,0,7.777,1.558,10.606,4.388c1.133,1.132,1.757,2.639,1.757,4.242s-0.625,3.11-1.758,4.243
		c-1.132,1.133-2.639,1.757-4.242,1.757s-3.11-0.625-4.243-1.758c-0.564-0.564-1.318-0.875-2.121-0.875s-1.557,0.311-2.122,0.875
		c-0.565,0.565-0.876,1.319-0.876,2.122c0,0.803,0.311,1.556,0.876,2.121l29.615,29.616c2.339,2.339,2.339,6.146,0,8.484
		C47.72,56.349,46.213,56.973,44.61,56.973z"/>
	<path style="fill:#FF4238;" d="M27.853,25.731l-1.471-1.471c-2.927,1.966-5.097,6.079-5.796,11.174l1.825,1.825
		C22.809,31.926,24.997,27.428,27.853,25.731z"/>
	<path style="fill:#24AE5F;" d="M29.91,27.787l-1.434-1.434c-2.721,2.061-4.57,6.359-5.021,11.95l1.902,1.902
		C25.502,34.212,27.278,29.558,29.91,27.787z"/>
	<path style="fill:#FF4238;" d="M36.519,34.397l-1.505-1.505c-3.069,1.681-5.415,5.635-6.292,10.678l1.772,1.772
		C31.106,40.014,33.513,35.677,36.519,34.397z"/>
	<path style="fill:#24AE5F;" d="M38.547,36.425l-1.475-1.475c-2.889,1.764-4.922,5.901-5.535,11.435l1.854,1.854
		C33.72,42.253,35.718,37.762,38.547,36.425z"/>
	<path style="fill:#FF4238;" d="M44.519,42.397l-1.505-1.505c-3.069,1.681-5.415,5.635-6.292,10.678l1.772,1.772
		C39.106,48.014,41.513,43.677,44.519,42.397z"/>
	<path style="fill:#24AE5F;" d="M46.547,44.425l-1.475-1.475c-2.888,1.764-4.922,5.901-5.535,11.435l0.83,0.83
		c0.318,0.318,0.667,0.591,1.038,0.826C41.766,50.155,43.749,45.747,46.547,44.425z"/>
	<path style="fill:#24AE5F;" d="M21.771,19.649l-1.429-1.429c-2.579,2.484-4.402,6.859-4.872,12.098l1.891,1.891
		C17.52,26.792,19.29,22.04,21.771,19.649z"/>
	<path style="fill:#24AE5F;" d="M15.824,16.901c0.77-0.221,1.426-0.222,1.902-0.032c0.288-0.249,0.584-0.475,0.888-0.677
		c-0.158-0.365-0.245-0.76-0.249-1.17c-0.047-0.037-0.084-0.079-0.137-0.112c-0.846-0.268-1.85-0.247-2.953,0.068
		c-2.642,0.754-5.42,2.988-7.647,6.018c0.299,0.687,0.65,1.356,1.057,2.001C10.962,19.578,13.759,17.49,15.824,16.901z"/>
	<path style="fill:#FF4238;" d="M19.238,17.115c-0.062-0.062-0.108-0.134-0.164-0.2c-0.187-0.222-0.346-0.462-0.46-0.724
		c-0.304,0.202-0.6,0.428-0.888,0.677c-2.474,2.142-4.314,5.975-5.039,10.665l1.793,1.793c0.542-5.378,2.67-9.848,5.406-11.565
		L19.238,17.115z"/>
	<path style="fill:#0096E6;" d="M18.364,14.972c-0.047-0.017-0.088-0.047-0.136-0.062c0.052,0.033,0.09,0.076,0.137,0.112
		c0-0.009-0.003-0.018-0.003-0.028C18.362,14.987,18.364,14.979,18.364,14.972z"/>
	<path style="fill:#FF4238;" d="M20.123,12.269c0.384-0.173,0.801-0.272,1.236-0.272c0.439,0,0.859,0.101,1.245,0.277
		c-1.815-3.224-6.79-6.392-12.552-7.11c-0.52,0.597-0.987,1.223-1.396,1.877C13.88,7.34,18.138,9.916,20.123,12.269z"/>
	<path style="fill:#24AE5F;" d="M16.112,12.471c0.072-0.002,0.146-0.009,0.218-0.009c0,0,0,0,0,0c1.069,0,1.977,0.231,2.721,0.637
		c0.062-0.076,0.116-0.156,0.186-0.226c0.14-0.14,0.292-0.264,0.453-0.372c-0.318-0.287-0.663-0.568-1.045-0.837
		c-2.259-1.59-6.229-3.143-10.831-3.075C7.503,9.25,7.229,9.925,7.019,10.617C10.65,10.39,13.882,11.312,16.112,12.471z"/>
	<path style="fill:#FF4238;" d="M16.331,12.462C16.33,12.462,16.33,12.462,16.331,12.462c-0.072,0-0.146,0.007-0.219,0.009
		c-3.025,0.077-6.596,1.757-9.608,4.447c0.1,0.777,0.247,1.548,0.468,2.305c3.443-3.495,7.138-4.76,9.358-4.76
		c0.789,0,1.441,0.158,1.897,0.448c0.048,0.015,0.089,0.045,0.136,0.062c0.002-0.293,0.057-0.576,0.14-0.849
		c0.113-0.374,0.297-0.719,0.548-1.024C18.308,12.693,17.4,12.462,16.331,12.462z"/>
	<path style="fill:#FF4238;" d="M25.773,14.301c0.62,0.213,1.275,0.329,1.95,0.329c0.047,0,0.093-0.006,0.14-0.007
		c1.308-2.714,1.992-7.228,1.03-12.586c-0.725-0.423-1.481-0.782-2.266-1.075C28.108,7.312,27.046,12.156,25.773,14.301z"/>
	<path style="fill:#24AE5F;" d="M23.387,12.796c0.03,0.028,0.065,0.048,0.094,0.077c0.457,0.457,0.977,0.827,1.538,1.111
		c1.411-2.553,1.949-7.56,0.282-13.449c-0.725-0.196-1.465-0.343-2.22-0.428C24.989,6.01,24.41,10.694,23.387,12.796z"/>
</g>
<g>
</g>
<g>
</g>
<g>
</g>
<g>
</g>
<g>
</g>
<g>
</g>
<g>
</g>
<g>
</g>
<g>
</g>
<g>
</g>
<g>
</g>
<g>
</g>
<g>
</g>
<g>
</g>
<g>
</g>
</svg>
