<?xml version="1.0" encoding="iso-8859-1"?>
<!-- Generator: Adobe Illustrator 19.0.0, SVG Export Plug-In . SVG Version: 6.00 Build 0)  -->
<svg version="1.1" id="Layer_1" xmlns="http://www.w3.org/2000/svg" xmlns:xlink="http://www.w3.org/1999/xlink" x="0px" y="0px"
	 viewBox="0 0 512 512" style="enable-background:new 0 0 512 512;" xml:space="preserve">
<path style="fill:#E6E6E6;" d="M381.53,95.749c-4.957-18.071-13.717-34.594-25.388-48.625C335.016,21.67,304.396,4.374,269.75,0.728
	c-4.931-0.525-9.953-0.774-15.028-0.721c-11.881,0.118-23.368,1.836-34.253,4.983c-30.122,8.655-55.72,28.063-72.662,53.7
	c-9.73,14.727-16.602,31.499-19.841,49.491c-1.39,7.671-2.111,15.566-2.111,23.618v71.797v69.331v93.277v69.331v38.567
	c0,20.929,16.969,37.898,37.898,37.898c10.635,0,20.26-4.38,27.119-11.448c6.675-6.819,10.792-16.156,10.792-26.45V442v-93.277
	v-69.331v-97.513v-51.733c0-5.613,0.852-11.042,2.452-16.143c4.996-16.051,17.257-28.929,32.915-34.777
	c6.295-2.36,13.14-3.58,20.274-3.41c11.986,0.288,22.949,4.524,31.761,11.448c8.668,6.806,15.251,16.222,18.661,26.988v0.013
	c1.705,5.35,2.623,11.042,2.623,16.903v10.412c0,10.465,4.249,19.933,11.094,26.804c1.482,1.469,3.082,2.819,4.786,4.039
	c6.203,4.432,13.809,7.055,22.018,7.055c20.929,0,37.898-16.969,37.898-37.898v-11.435
	C386.146,118.239,384.546,106.712,381.53,95.749z"/>
<g>
	<path style="fill:#F95428;" d="M381.53,95.749l-55.3,76.675c-1.705-1.22-3.305-2.57-4.786-4.039
		c-6.845-6.872-11.094-16.34-11.094-26.804v-10.412c0-5.862-0.918-11.553-2.623-16.903v-0.013l48.415-67.128
		C367.813,61.155,376.573,77.679,381.53,95.749z"/>
	<path style="fill:#F95428;" d="M269.75,0.728l19.316,86.536c-8.812-6.924-19.775-11.16-31.761-11.448
		c-7.134-0.17-13.979,1.049-20.274,3.41L220.469,4.99c10.884-3.147,22.372-4.865,34.253-4.983
		C259.797-0.046,264.819,0.204,269.75,0.728z"/>
	<path style="fill:#F95428;" d="M201.651,112.534l2.465,1.469c-1.6,5.101-2.452,10.53-2.452,16.143v51.733h-0.013l-73.685-73.698
		c3.239-17.992,10.111-34.764,19.841-49.491L201.651,112.534z"/>
	<polygon style="fill:#F95428;" points="201.664,279.392 201.664,348.723 201.651,348.723 125.854,272.927 125.854,203.595 
		201.651,279.392 	"/>
	<path style="fill:#F95428;" d="M201.664,442v32.102c0,10.294-4.118,19.631-10.792,26.45l-65.017-65.017v-69.331L201.651,442
		H201.664z"/>
</g>
<g>
</g>
<g>
</g>
<g>
</g>
<g>
</g>
<g>
</g>
<g>
</g>
<g>
</g>
<g>
</g>
<g>
</g>
<g>
</g>
<g>
</g>
<g>
</g>
<g>
</g>
<g>
</g>
<g>
</g>
</svg>
