<?xml version="1.0" encoding="iso-8859-1"?>
<!-- Generator: Adobe Illustrator 19.0.0, SVG Export Plug-In . SVG Version: 6.00 Build 0)  -->
<svg version="1.1" id="Layer_1" xmlns="http://www.w3.org/2000/svg" xmlns:xlink="http://www.w3.org/1999/xlink" x="0px" y="0px"
	 viewBox="0 0 512.325 512.325" style="enable-background:new 0 0 512.325 512.325;" xml:space="preserve">
<g>
	<g>
		<path style="fill:#D85C81;" d="M382.715,74.682c12.994,2.71,25.388,9.066,35.478,19.156l0,0
			c10.134,10.134,16.516,22.59,19.2,35.655c10.328-3.054,20.842-5.429,31.55-6.612l22.078-2.454
			c17.461-1.942,27.577-22.29,16.984-36.299c-0.733-0.962-1.545-1.889-2.419-2.772c-4.317-4.308-9.737-6.824-15.351-7.539
			c-7.45-0.953-13.612-7.124-14.565-14.574c-0.715-5.606-3.231-11.034-7.539-15.342s-9.737-6.824-15.342-7.539
			c-7.45-0.953-13.612-7.115-14.565-14.566c-0.724-5.614-3.231-11.034-7.548-15.342V6.445c-13.444-12.888-36.74-4.926-38.991,13.868
			l-2.622,23.631C387.905,54.369,385.645,64.618,382.715,74.682"/>
		<path style="fill:#D85C81;" d="M129.186,437.629c-12.994-2.71-25.388-9.066-35.478-19.156l0,0
			c-10.134-10.134-16.516-22.59-19.2-35.655c-10.328,3.054-20.842,5.429-31.55,6.612l-22.087,2.454
			c-17.099,1.651-26.712,21.53-16.993,36.273c0.671,1.015,1.554,1.907,2.436,2.798c4.308,4.308,9.737,6.824,15.351,7.539
			c7.442,0.953,13.612,7.124,14.566,14.574c0.715,5.606,3.231,11.034,7.539,15.342c4.308,4.308,9.737,6.824,15.342,7.539
			c7.45,0.953,13.612,7.115,14.566,14.565c0.724,5.614,3.231,11.034,7.548,15.342l0.309,0.309
			c10.761,12.385,34.913,4.626,38.63-13.727l2.675-24.073C123.996,457.941,126.255,447.692,129.186,437.629"/>
	</g>
	<g>
		<path style="fill:#6F58A8;" d="M418.296,102.707c-2.26,0-4.52-0.865-6.241-2.586c-3.452-3.452-3.452-9.031,0-12.482l24.973-24.964
			c3.452-3.452,9.039-3.452,12.482,0c3.452,3.443,3.452,9.031,0,12.482l-24.973,24.964
			C422.816,101.842,420.556,102.707,418.296,102.707"/>
		<path style="fill:#6F58A8;" d="M455.752,102.707h-37.455c-4.882,0-8.828-3.946-8.828-8.828c0-4.882,3.946-8.828,8.828-8.828
			h37.455c4.882,0,8.828,3.946,8.828,8.828C464.58,98.761,460.634,102.707,455.752,102.707"/>
		<path style="fill:#6F58A8;" d="M418.296,102.707c-4.882,0-8.828-3.946-8.828-8.828V56.433c0-4.882,3.946-8.828,8.828-8.828
			c4.882,0,8.828,3.946,8.828,8.828v37.447C427.123,98.761,423.178,102.707,418.296,102.707"/>
		<path style="fill:#6F58A8;" d="M68.744,452.268c-2.26,0-4.52-0.865-6.241-2.586c-3.452-3.452-3.452-9.031,0-12.482l24.973-24.973
			c3.443-3.452,9.031-3.452,12.482,0c3.443,3.443,3.443,9.031,0,12.482l-24.973,24.973
			C73.263,451.403,71.004,452.268,68.744,452.268"/>
		<path style="fill:#6F58A8;" d="M93.713,427.294H56.258c-4.873,0-8.828-3.946-8.828-8.828c0-4.882,3.955-8.828,8.828-8.828h37.455
			c4.873,0,8.828,3.946,8.828,8.828C102.541,423.348,98.586,427.294,93.713,427.294"/>
		<path style="fill:#6F58A8;" d="M93.713,464.75c-4.873,0-8.828-3.946-8.828-8.828v-37.455c0-4.882,3.955-8.828,8.828-8.828
			c4.873,0,8.828,3.946,8.828,8.828v37.455C102.541,460.804,98.586,464.75,93.713,464.75"/>
		<path style="fill:#6F58A8;" d="M93.607,418.424L93.607,418.424c-27.577-27.577-27.577-72.298,0-99.875L318.322,93.834
			c27.577-27.577,72.289-27.577,99.875,0l0,0c27.577,27.586,27.577,72.298,0,99.875L193.482,418.424
			C165.905,446.002,121.184,446.002,93.607,418.424"/>
	</g>
	<g>
		<path style="fill:#D85C81;" d="M193.479,418.424l13.365-13.365c-10.319-6.162-17.293-17.32-17.293-30.217
			c0-19.518-15.793-35.31-35.31-35.31s-35.31-15.793-35.31-35.31c0-3.328-0.6-6.479-1.465-9.534l-23.861,23.861
			c-5.235,5.235-9.463,11.087-12.703,17.32c0.309,1.898,0.583,3.814,0.583,5.809c0,19.518,15.793,35.31,35.31,35.31
			c19.509,0,35.31,15.793,35.31,35.31c0,9.454,3.761,17.991,9.799,24.329C173.467,433.52,184.405,427.499,193.479,418.424"/>
		<path style="fill:#D85C81;" d="M244.294,367.61l37.455-37.455c-10.319-6.162-17.293-17.32-17.293-30.217
			c0-19.518-15.793-35.31-35.31-35.31s-35.31-15.793-35.31-35.31c0-3.328-0.6-6.479-1.465-9.534l-37.447,37.455
			c0.856,3.046,1.465,6.206,1.465,9.534c0,19.518,15.793,35.31,35.31,35.31s35.31,15.793,35.31,35.31
			C227.009,350.29,233.974,361.449,244.294,367.61"/>
		<path style="fill:#D85C81;" d="M319.198,292.705l37.455-37.455c-10.319-6.162-17.293-17.32-17.293-30.217
			c0-19.518-15.793-35.31-35.31-35.31s-35.31-15.793-35.31-35.31c0-3.328-0.6-6.479-1.465-9.534l-37.447,37.455
			c0.856,3.046,1.465,6.206,1.465,9.534c0,19.518,15.793,35.31,35.31,35.31s35.31,15.793,35.31,35.31
			C301.914,275.386,308.879,286.544,319.198,292.705"/>
		<path style="fill:#D85C81;" d="M414.268,150.128c0-19.518-15.793-35.31-35.31-35.31c-19.518,0-35.31-15.793-35.31-35.31
			c0-0.618-0.15-1.192-0.185-1.81c-9.163,3.434-17.77,8.766-25.141,16.137l-13.594,13.594c0.865,3.046,1.465,6.206,1.465,9.534
			c0,19.518,15.793,35.31,35.31,35.31c19.518,0,35.31,15.793,35.31,35.31c0,12.897,6.974,24.055,17.293,30.217l24.09-24.09
			c4.476-4.476,8.148-9.446,11.176-14.68C420.253,172.656,414.268,162.115,414.268,150.128"/>
	</g>
</g>
<g>
</g>
<g>
</g>
<g>
</g>
<g>
</g>
<g>
</g>
<g>
</g>
<g>
</g>
<g>
</g>
<g>
</g>
<g>
</g>
<g>
</g>
<g>
</g>
<g>
</g>
<g>
</g>
<g>
</g>
</svg>
