<?xml version="1.0" encoding="iso-8859-1"?>
<!-- Generator: Adobe Illustrator 19.0.0, SVG Export Plug-In . SVG Version: 6.00 Build 0)  -->
<svg version="1.1" id="Layer_1" xmlns="http://www.w3.org/2000/svg" xmlns:xlink="http://www.w3.org/1999/xlink" x="0px" y="0px"
	 viewBox="0 0 512.332 512.332" style="enable-background:new 0 0 512.332 512.332;" xml:space="preserve">
<g transform="translate(-1 -1)">
	<g>
		<path style="fill:#BE3A2B;" d="M383.722,75.718c12.994,2.71,25.388,9.066,35.478,19.156l0,0
			c10.134,10.134,16.516,22.59,19.2,35.655c10.328-3.054,20.842-5.429,31.55-6.612l22.078-2.454
			c17.443-1.942,27.569-22.263,17.002-36.273c-0.733-0.971-1.554-1.907-2.436-2.798c-4.317-4.308-9.737-6.824-15.351-7.539
			c-7.45-0.953-13.612-7.124-14.566-14.574c-0.715-5.606-3.231-11.034-7.539-15.342c-4.308-4.308-9.737-6.824-15.342-7.539
			c-7.45-0.953-13.612-7.115-14.565-14.566c-0.724-5.614-3.231-11.034-7.548-15.342l-0.309-0.309
			C416.26-5.16,394.13,2.458,392.744,20.908l-2.675,24.073C388.913,55.406,386.653,65.655,383.722,75.718"/>
		<path style="fill:#BE3A2B;" d="M130.194,438.665c-12.994-2.71-25.388-9.066-35.478-19.156l0,0
			c-10.134-10.134-16.516-22.59-19.2-35.655c-10.328,3.054-20.842,5.429-31.55,6.612l-22.078,2.454
			C4.78,394.863-4.851,415.184,4.886,429.193c0.697,0.997,1.554,1.907,2.436,2.798c4.317,4.308,9.737,6.824,15.351,7.539
			c7.45,0.953,13.612,7.124,14.566,14.574c0.715,5.606,3.231,11.034,7.539,15.342c4.308,4.308,9.737,6.824,15.342,7.539
			c7.45,0.953,13.612,7.115,14.566,14.565c0.724,5.614,3.231,11.034,7.548,15.342l0.309,0.309
			c14.054,12.262,36.776,4.652,38.63-13.727l2.675-24.073C125.003,458.978,127.263,448.729,130.194,438.665"/>
	</g>
	<g>
		<path style="fill:#F0C419;" d="M419.303,103.743c-2.26,0-4.52-0.865-6.241-2.586c-3.452-3.452-3.452-9.031,0-12.482l24.973-24.964
			c3.452-3.452,9.039-3.452,12.482,0c3.452,3.443,3.452,9.031,0,12.482l-24.973,24.964
			C423.823,102.878,421.563,103.743,419.303,103.743"/>
		<path style="fill:#F0C419;" d="M456.76,103.743h-37.455c-4.882,0-8.828-3.946-8.828-8.828c0-4.882,3.946-8.828,8.828-8.828h37.455
			c4.882,0,8.828,3.946,8.828,8.828C465.587,99.797,461.641,103.743,456.76,103.743"/>
		<path style="fill:#F0C419;" d="M419.303,103.743c-4.882,0-8.828-3.946-8.828-8.828V57.469c0-4.882,3.946-8.828,8.828-8.828
			s8.828,3.946,8.828,8.828v37.447C428.131,99.797,424.185,103.743,419.303,103.743"/>
		<path style="fill:#F0C419;" d="M69.751,453.304c-2.26,0-4.52-0.865-6.241-2.586c-3.452-3.452-3.452-9.031,0-12.482l24.964-24.973
			c3.452-3.452,9.039-3.452,12.482,0c3.452,3.443,3.452,9.031,0,12.482l-24.964,24.973
			C74.271,452.439,72.011,453.304,69.751,453.304"/>
		<path style="fill:#F0C419;" d="M94.717,428.33H57.27c-4.882,0-8.828-3.946-8.828-8.828c0-4.882,3.946-8.828,8.828-8.828h37.447
			c4.882,0,8.828,3.946,8.828,8.828C103.544,424.384,99.598,428.33,94.717,428.33"/>
		<path style="fill:#F0C419;" d="M94.717,465.786c-4.882,0-8.828-3.946-8.828-8.828v-37.455c0-4.882,3.946-8.828,8.828-8.828
			s8.828,3.946,8.828,8.828v37.455C103.544,461.84,99.598,465.786,94.717,465.786"/>
		<path style="fill:#F0C419;" d="M94.614,419.461L94.614,419.461c-27.577-27.577-27.577-72.298,0-99.875L319.329,94.871
			c27.577-27.577,72.289-27.577,99.875,0l0,0c27.577,27.586,27.577,72.298,0,99.875L194.489,419.461
			C166.912,447.038,122.192,447.038,94.614,419.461"/>
	</g>
	<path style="fill:#BE3A2B;" d="M281.975,282.185c-31.029,31.029-67.354,45.003-81.143,31.214
		c-13.789-13.798,0.177-50.123,31.206-81.152s67.355-44.994,81.152-31.206C326.978,214.83,313.004,251.156,281.975,282.185"/>
</g>
<g>
</g>
<g>
</g>
<g>
</g>
<g>
</g>
<g>
</g>
<g>
</g>
<g>
</g>
<g>
</g>
<g>
</g>
<g>
</g>
<g>
</g>
<g>
</g>
<g>
</g>
<g>
</g>
<g>
</g>
</svg>
