<?xml version="1.0" encoding="iso-8859-1"?>
<!-- Generator: Adobe Illustrator 19.0.0, SVG Export Plug-In . SVG Version: 6.00 Build 0)  -->
<svg version="1.1" id="Layer_1" xmlns="http://www.w3.org/2000/svg" xmlns:xlink="http://www.w3.org/1999/xlink" x="0px" y="0px"
	 viewBox="0 0 512 512" style="enable-background:new 0 0 512 512;" xml:space="preserve">
<path style="fill:#7AC943;" d="M316.331,378.987V133.014L422.964,13.585c2.437-2.731,2.757-6.751,0.782-9.831
	c-1.976-3.083-5.765-4.469-9.262-3.39L361.08,16.795L329.217,0.862c-2.295-1.149-4.998-1.149-7.293,0l-31.138,15.569L259.647,0.862
	c-2.295-1.149-4.998-1.149-7.293,0l-31.139,15.569L190.076,0.862c-2.295-1.149-4.998-1.149-7.293,0L150.92,16.795L97.515,0.362
	c-3.497-1.077-7.284,0.31-9.262,3.39c-1.975,3.081-1.656,7.101,0.782,9.831l106.633,119.429v245.974L89.037,498.416
	c-2.437,2.731-2.757,6.751-0.782,9.831c1.976,3.081,5.763,4.464,9.262,3.39l53.404-16.432l31.863,15.932
	c2.295,1.149,4.998,1.149,7.293,0l31.138-15.569l31.139,15.569c2.295,1.149,4.998,1.149,7.293,0l31.139-15.569l31.138,15.569
	c2.295,1.149,4.998,1.149,7.293,0l31.862-15.932l53.404,16.432c0.792,0.245,1.6,0.362,2.398,0.362c2.723,0,5.334-1.371,6.862-3.752
	c1.975-3.081,1.656-7.101-0.782-9.831L316.331,378.987z"/>
<path style="fill:#51862D;" d="M252.354,0.862l-31.139,15.569L190.076,0.862c-2.295-1.149-4.998-1.149-7.293,0L150.92,16.795
	L97.515,0.362c-3.497-1.077-7.284,0.31-9.262,3.39c-1.975,3.081-1.656,7.101,0.782,9.831l106.633,119.429v245.974L89.037,498.416
	c-2.437,2.731-2.757,6.751-0.782,9.831c1.976,3.081,5.763,4.464,9.262,3.39l53.404-16.432l31.863,15.932
	c2.295,1.149,4.998,1.149,7.293,0l31.138-15.569l31.139,15.569c1.148,0.574,2.397,0.862,3.646,0.862V0.002
	C254.751,0.002,253.501,0.289,252.354,0.862z"/>
<g>
	<path style="fill:#FF1D25;" d="M423.745,3.754c-1.975-3.081-5.758-4.468-9.262-3.39L361.08,16.795L329.217,0.862
		c-2.295-1.149-4.998-1.149-7.293,0l-31.138,15.569L259.647,0.862c-2.295-1.149-4.998-1.149-7.293,0l-31.139,15.569L190.076,0.862
		c-2.295-1.149-4.998-1.149-7.293,0L150.92,16.795L97.515,0.362c-3.502-1.079-7.285,0.311-9.262,3.39
		c-1.975,3.081-1.656,7.101,0.782,9.831l52.339,58.62c2.451,2.745,6.435,3.509,9.728,1.862l35.326-17.662l31.139,15.569
		c2.295,1.149,4.998,1.149,7.293,0l31.138-15.569l31.138,15.569c2.295,1.149,4.998,1.149,7.293,0l31.139-15.569l35.326,17.662
		c1.161,0.58,2.408,0.861,3.644,0.861c2.269,0,4.498-0.946,6.085-2.723l52.339-58.62C425.401,10.855,425.721,6.835,423.745,3.754z"
		/>
	<path style="fill:#FF1D25;" d="M422.964,498.416l-52.339-58.62c-2.452-2.744-6.435-3.509-9.728-1.862l-35.326,17.662
		l-31.139-15.569c-2.295-1.149-4.998-1.149-7.293,0l-31.138,15.569l-31.138-15.569c-2.295-1.149-4.998-1.149-7.293,0l-31.139,15.569
		l-35.326-17.662c-3.293-1.647-7.277-0.882-9.728,1.862l-52.339,58.62c-2.437,2.731-2.757,6.751-0.782,9.831
		c1.976,3.081,5.76,4.469,9.262,3.39l53.404-16.432l31.863,15.932c2.295,1.149,4.998,1.149,7.293,0l31.138-15.569l31.139,15.569
		c2.295,1.149,4.998,1.149,7.293,0l31.139-15.569l31.138,15.569c2.295,1.149,4.998,1.149,7.293,0l31.862-15.932l53.404,16.432
		c0.792,0.245,1.6,0.362,2.397,0.362c2.724-0.001,5.335-1.371,6.864-3.752C425.721,505.166,425.401,501.146,422.964,498.416z"/>
</g>
<g>
	<path style="fill:#BF1D23;" d="M256,442.428c-4.504,0-8.153-3.649-8.153-8.153v-39.134c0-4.504,3.649-8.153,8.153-8.153
		s8.153,3.649,8.153,8.153v39.134C264.152,438.778,260.503,442.428,256,442.428z"/>
	<path style="fill:#BF1D23;" d="M208.163,429.384c-1.641,0-3.296-0.494-4.733-1.52c-3.663-2.617-4.512-7.708-1.895-11.373
		l21.741-30.437c2.617-3.663,7.71-4.512,11.373-1.895c3.663,2.617,4.512,7.708,1.895,11.373l-21.741,30.437
		C213.214,428.197,210.707,429.384,208.163,429.384z"/>
	<path style="fill:#BF1D23;" d="M303.836,429.384c-2.544,0-5.049-1.187-6.64-3.415l-21.741-30.437
		c-2.618-3.664-1.769-8.756,1.895-11.373c3.663-2.619,8.755-1.771,11.373,1.895l21.741,30.437c2.618,3.664,1.769,8.756-1.895,11.373
		C307.132,428.891,305.476,429.384,303.836,429.384z"/>
	<path style="fill:#BF1D23;" d="M256,125.011c-4.504,0-8.153-3.649-8.153-8.153V77.725c0-4.504,3.649-8.153,8.153-8.153
		s8.153,3.649,8.153,8.153v39.134C264.152,121.362,260.503,125.011,256,125.011z"/>
	<path style="fill:#BF1D23;" d="M282.082,129.361c-1.641,0-3.296-0.494-4.732-1.52c-3.663-2.617-4.512-7.708-1.895-11.373
		l21.741-30.437c2.617-3.663,7.711-4.511,11.373-1.895c3.663,2.617,4.512,7.708,1.895,11.373l-21.741,30.437
		C287.133,128.174,284.626,129.361,282.082,129.361z"/>
	<path style="fill:#BF1D23;" d="M229.917,129.361c-2.544,0-5.049-1.187-6.64-3.415l-21.741-30.437
		c-2.618-3.664-1.769-8.756,1.895-11.373c3.663-2.62,8.755-1.772,11.373,1.895l21.741,30.437c2.618,3.664,1.769,8.756-1.895,11.373
		C233.213,128.867,231.558,129.361,229.917,129.361z"/>
	<path style="fill:#BF1D23;" d="M252.354,0.862l-31.139,15.569L190.076,0.862c-2.295-1.149-4.998-1.149-7.293,0L150.92,16.795
		L97.515,0.362c-3.502-1.079-7.285,0.311-9.262,3.39c-1.975,3.081-1.656,7.101,0.782,9.831l52.339,58.62
		c2.451,2.745,6.435,3.509,9.728,1.862l35.326-17.662l31.139,15.569c2.295,1.149,4.998,1.149,7.293,0l31.138-15.569V0.002
		C254.751,0.002,253.501,0.289,252.354,0.862z"/>
	<path style="fill:#BF1D23;" d="M224.861,440.027c-2.295-1.149-4.998-1.149-7.293,0l-31.139,15.569l-35.326-17.662
		c-3.293-1.647-7.277-0.882-9.728,1.862l-52.339,58.62c-2.437,2.731-2.757,6.751-0.782,9.831c1.976,3.081,5.76,4.469,9.262,3.39
		l53.404-16.432l31.863,15.932c2.295,1.149,4.998,1.149,7.293,0l31.138-15.569l31.139,15.569c1.148,0.574,2.397,0.862,3.646,0.862
		v-56.402L224.861,440.027z"/>
</g>
<g>
	<path style="fill:#FF1D25;" d="M310.666,123.881c-17.35-7.183-35.743-10.827-54.666-10.827s-37.316,3.644-54.668,10.828
		c-53.627,22.22-88.278,74.08-88.278,132.118s34.651,109.898,88.278,132.118c0.001,0,0.001,0,0.002,0.001
		c17.35,7.183,35.743,10.827,54.666,10.827s37.316-3.644,54.668-10.828c53.627-22.22,88.278-74.08,88.278-132.118
		S364.295,146.103,310.666,123.881z"/>
	<path style="fill:#FF1D25;" d="M395.573,225.019H116.427c-1.943,8.822-3.06,17.913-3.302,27.176h285.751
		C398.633,242.933,397.516,233.842,395.573,225.019z"/>
</g>
<g>
	<path style="fill:#BF1D23;" d="M378.02,181.382c-3.448-5.643-7.294-11.036-11.497-16.15H145.476
		c-4.242,5.161-8.117,10.606-11.589,16.306h242.557C376.984,181.538,377.51,181.483,378.02,181.382z"/>
	<path style="fill:#BF1D23;" d="M390.96,208.714H121.04c-1.853,5.312-3.39,10.756-4.612,16.306h279.146
		C394.351,219.471,392.813,214.026,390.96,208.714z"/>
	<path style="fill:#BF1D23;" d="M398.875,252.195H113.124c-0.034,1.266-0.071,2.532-0.071,3.805c0,4.204,0.203,8.37,0.561,12.501
		h284.77c0.358-4.131,0.561-8.297,0.561-12.501C398.946,254.728,398.909,253.462,398.875,252.195z"/>
	<path style="fill:#BF1D23;" d="M118.641,295.677c1.599,5.568,3.518,11.014,5.762,16.306h263.192
		c2.235-5.269,4.147-10.691,5.742-16.235c-0.336-0.042-0.675-0.071-1.023-0.071H118.641z"/>
	<path style="fill:#BF1D23;" d="M139.632,339.159c4.111,5.753,8.647,11.207,13.588,16.306h205.562
		c4.409-4.55,8.489-9.39,12.24-14.465c-1.406-1.149-3.2-1.84-5.157-1.84H139.632z"/>
</g>
<g>
	<path style="fill:#FFFFFF;" d="M352.084,229.37c-3.334,0-6.464-2.061-7.666-5.375c-3.101-8.554-7.455-16.63-12.941-24.001
		c-2.688-3.611-1.939-8.719,1.673-11.407c3.612-2.689,8.72-1.939,11.407,1.673c6.436,8.647,11.547,18.129,15.19,28.177
		c1.535,4.234-0.653,8.908-4.885,10.443C353.945,229.212,353.006,229.37,352.084,229.37z"/>
	<path style="fill:#FFFFFF;" d="M321.218,185.55c-1.837,0-3.683-0.616-5.205-1.881c-11.577-9.616-25.412-16.378-40.009-19.558
		c-4.399-0.959-7.189-5.301-6.23-9.702c0.959-4.398,5.298-7.188,9.702-6.23c17.139,3.734,33.375,11.667,46.955,22.946
		c3.463,2.877,3.939,8.017,1.063,11.481C325.881,184.548,323.559,185.55,321.218,185.55z"/>
</g>
<path style="fill:#E5E5E5;" d="M355.111,240.583c-1.045-3.434-4.211-5.78-7.799-5.78H283.84l-20.019-68.066
	c-0.998-3.393-4.069-5.756-7.605-5.849c-0.072-0.002-0.146-0.003-0.219-0.003c-3.447,0-6.533,2.173-7.685,5.44l-24.169,68.479
	h-59.454c-3.565,0-6.719,2.318-7.782,5.722c-1.062,3.405,0.209,7.104,3.142,9.133l51.387,35.577l-19.639,54.987
	c-1.195,3.344-0.087,7.077,2.738,9.227c2.827,2.155,6.718,2.23,9.625,0.188l51.144-35.891l52.626,35.95
	c1.389,0.949,2.995,1.421,4.597,1.421c1.752,0,3.502-0.564,4.961-1.683c2.795-2.144,3.898-5.84,2.735-9.165l-19.657-56.149
	l51.288-34.393C354.832,247.729,356.155,244.016,355.111,240.583z"/>
<g>
</g>
<g>
</g>
<g>
</g>
<g>
</g>
<g>
</g>
<g>
</g>
<g>
</g>
<g>
</g>
<g>
</g>
<g>
</g>
<g>
</g>
<g>
</g>
<g>
</g>
<g>
</g>
<g>
</g>
</svg>
