<?xml version="1.0" encoding="iso-8859-1"?>
<!-- Generator: Adobe Illustrator 19.0.0, SVG Export Plug-In . SVG Version: 6.00 Build 0)  -->
<svg version="1.1" id="Layer_1" xmlns="http://www.w3.org/2000/svg" xmlns:xlink="http://www.w3.org/1999/xlink" x="0px" y="0px"
	 viewBox="0 0 511.985 511.985" style="enable-background:new 0 0 511.985 511.985;" xml:space="preserve">
<path style="fill:#7F4545;" d="M96,501.314V10.657h262.242c-0.469,8.016,2.124,16.125,7.593,22.546
	c-0.531,9.031,2.781,18.016,9.312,24.546c6.047,6.031,14.078,9.359,22.625,9.359c0.641,0,1.281-0.016,1.922-0.047
	c4.656,3.953,10.265,6.469,16.296,7.297v426.956L96,501.314L96,501.314z"/>
<rect x="85.341" y="255.993" width="331.73" height="21.327"/>
<rect x="85.341" y="341.313" width="331.73" height="21.328"/>
<polygon style="fill:#FFCE54;" points="426.645,234.65 85.337,106.654 85.337,511.985 426.645,511.985 "/>
<path style="fill:#602B2B;" d="M420.396,63.999c-5.453,0-10.906-2.094-15.062-6.25c-0.672-0.656-1.281-1.359-1.828-2.078
	c-1.875,0.516-3.797,0.781-5.734,0.781c-5.453,0-10.906-2.078-15.078-6.25c-5.641-5.641-7.453-13.641-5.453-20.812
	c-0.719-0.547-1.438-1.156-2.094-1.812c-7.5-7.516-8.25-19.234-2.188-27.578H85.337v85.326v21.328l21.327,8v-8h42.671v23.999
	l21.327,8v-31.999h42.671v47.999l21.327,8v-55.998h42.679v63.998h-21.344l56.889,21.343h28.453v10.656l21.311,8v-18.656h42.688
	v34.655l21.311,8V63.061C424.614,63.686,422.521,63.999,420.396,63.999z M149.335,85.326h-42.671V21.328h42.671V85.326z
	 M213.333,85.326h-42.671V21.328h42.671V85.326z M277.339,85.326H234.66V21.328h42.679V85.326z M341.337,170.652H298.65v-63.998
	h42.688V170.652z M341.337,85.326H298.65V21.328h42.688V85.326z M405.335,170.652h-42.688v-63.998h42.688V170.652z M405.335,85.326
	h-42.688V59.327c1.469,2.109,3.125,4.109,4.969,5.953c7.656,7.672,17.719,12.062,28.5,12.469c2.875,2,5.969,3.625,9.219,4.844
	V85.326z"/>
<path style="fill:#ED5564;" d="M351.992,330.647c0,53.029-42.983,95.997-95.997,95.997c-53.021,0-95.997-42.968-95.997-95.997
	c0-53.015,42.976-95.997,95.997-95.997C309.009,234.65,351.992,277.633,351.992,330.647z"/>
<g>
	<path style="fill:#FFCE54;" d="M295.525,301.773c-2.062-2.078-4.812-3.125-7.531-3.125h-63.99c-2.734,0-5.469,1.047-7.547,3.125
		c-4.171,4.172-4.171,10.922,0,15.093c2.078,2.078,4.812,3.125,7.539,3.125l0,0h63.998l0,0c2.719,0,5.469-1.047,7.531-3.125
		C299.712,312.695,299.712,305.945,295.525,301.773z"/>
	<path style="fill:#FFCE54;" d="M277.339,341.318L277.339,341.318H234.66l0,0c-2.727,0-5.461,1.047-7.539,3.125
		c-4.164,4.172-4.164,10.922,0,15.078c2.086,2.094,4.812,3.141,7.547,3.125h42.655c2.733,0.016,5.452-1.031,7.546-3.125
		c4.156-4.156,4.156-10.906,0-15.078C282.791,342.365,280.056,341.318,277.339,341.318z"/>
</g>
<g>
</g>
<g>
</g>
<g>
</g>
<g>
</g>
<g>
</g>
<g>
</g>
<g>
</g>
<g>
</g>
<g>
</g>
<g>
</g>
<g>
</g>
<g>
</g>
<g>
</g>
<g>
</g>
<g>
</g>
</svg>
