<?xml version="1.0" encoding="iso-8859-1"?>
<!-- Generator: Adobe Illustrator 19.0.0, SVG Export Plug-In . SVG Version: 6.00 Build 0)  -->
<svg version="1.1" id="Layer_1" xmlns="http://www.w3.org/2000/svg" xmlns:xlink="http://www.w3.org/1999/xlink" x="0px" y="0px"
	 viewBox="0 0 512 512" style="enable-background:new 0 0 512 512;" xml:space="preserve">
<g>
	<path style="fill:#593617;" d="M193.649,0.398h225.44c18.294,0,33.261,14.967,33.261,33.261v444.657
		c0,18.297-14.967,33.261-33.261,33.261h-225.44c-18.294,0-33.261-14.967-33.261-33.261V33.663
		C160.384,15.366,175.355,0.398,193.649,0.398z"/>
	<path style="fill:#FCE3C8;" d="M182.276,0.398L409.128,0c18.294,0,31.849,15.366,31.849,33.663V478.32
		c0,18.297-15.52,33.68-33.814,33.68l-224.887-0.415c-18.294,0-33.265-14.967-33.265-33.261V33.663
		C149.012,15.366,163.982,0.398,182.276,0.398z"/>
	<path style="fill:#593617;" d="M104.568,0.398h225.443c18.294,0,33.261,14.967,33.261,33.261v444.657
		c0,18.297-14.967,33.261-33.261,33.261H104.568c-18.294,0-33.261-14.967-33.261-33.261V33.663
		C71.307,15.366,86.274,0.398,104.568,0.398z"/>
	<path style="fill:#744C29;" d="M92.911,0.398h225.443c18.294,0,33.261,14.967,33.261,33.261v444.657
		c0,18.297-14.967,33.261-33.261,33.261H92.911c-18.294,0-33.261-14.967-33.261-33.261V33.663
		C59.65,15.366,74.617,0.398,92.911,0.398z"/>
	<g>
		<path style="fill:#593617;" d="M114.472,71.269c4.933,0,8.956-4.907,8.956-10.918c0-6.014-4.023-10.921-8.956-10.921
			c-4.933,0-8.956,4.907-8.956,10.921C105.516,66.362,109.539,71.269,114.472,71.269z"/>
		<path style="fill:#593617;" d="M175.248,71.269c4.933,0,8.956-4.907,8.956-10.918c0-6.014-4.023-10.921-8.956-10.921
			s-8.956,4.907-8.956,10.921C166.292,66.362,170.315,71.269,175.248,71.269z"/>
		<path style="fill:#593617;" d="M236.024,71.269c4.933,0,8.956-4.907,8.956-10.918c0-6.014-4.023-10.921-8.956-10.921
			c-4.933,0-8.956,4.907-8.956,10.921C227.065,66.362,231.087,71.269,236.024,71.269z"/>
		<path style="fill:#593617;" d="M296.797,71.269c4.933,0,8.956-4.907,8.956-10.918c0-6.014-4.023-10.921-8.956-10.921
			c-4.933,0-8.956,4.907-8.956,10.921C287.841,66.362,291.864,71.269,296.797,71.269z"/>
		<path style="fill:#593617;" d="M144.862,120.18c4.933,0,8.956-4.907,8.956-10.918c0-6.014-4.023-10.921-8.956-10.921
			s-8.956,4.907-8.956,10.921C135.902,115.273,139.928,120.18,144.862,120.18z"/>
		<path style="fill:#593617;" d="M205.634,120.18c4.933,0,8.956-4.907,8.956-10.918c0-6.014-4.023-10.921-8.956-10.921
			c-4.933,0-8.956,4.907-8.956,10.921C196.678,115.273,200.701,120.18,205.634,120.18z"/>
		<path style="fill:#593617;" d="M266.41,120.18c4.933,0,8.956-4.907,8.956-10.918c0-6.014-4.023-10.921-8.956-10.921
			s-8.956,4.907-8.956,10.921C257.454,115.273,261.477,120.18,266.41,120.18z"/>
		<path style="fill:#593617;" d="M114.472,169.088c4.933,0,8.956-4.907,8.956-10.918c0-6.014-4.023-10.921-8.956-10.921
			c-4.933,0-8.956,4.907-8.956,10.921S109.539,169.088,114.472,169.088z"/>
		<path style="fill:#593617;" d="M175.248,169.088c4.933,0,8.956-4.907,8.956-10.918c0-6.014-4.023-10.921-8.956-10.921
			s-8.956,4.907-8.956,10.921S170.315,169.088,175.248,169.088z"/>
		<path style="fill:#593617;" d="M236.024,169.088c4.933,0,8.956-4.907,8.956-10.918c0-6.014-4.023-10.921-8.956-10.921
			c-4.933,0-8.956,4.907-8.956,10.921C227.065,164.185,231.087,169.088,236.024,169.088z"/>
		<path style="fill:#593617;" d="M296.797,169.088c4.933,0,8.956-4.907,8.956-10.918c0-6.014-4.023-10.921-8.956-10.921
			c-4.933,0-8.956,4.907-8.956,10.921S291.864,169.088,296.797,169.088z"/>
		<path style="fill:#593617;" d="M144.862,218.003c4.933,0,8.956-4.907,8.956-10.921s-4.023-10.918-8.956-10.918
			s-8.956,4.903-8.956,10.918S139.928,218.003,144.862,218.003z"/>
		<path style="fill:#593617;" d="M205.634,218.003c4.933,0,8.956-4.907,8.956-10.921s-4.023-10.918-8.956-10.918
			c-4.933,0-8.956,4.903-8.956,10.918S200.701,218.003,205.634,218.003z"/>
		<path style="fill:#593617;" d="M266.41,218.003c4.933,0,8.956-4.907,8.956-10.921s-4.023-10.918-8.956-10.918
			s-8.956,4.903-8.956,10.918S261.477,218.003,266.41,218.003z"/>
		<path style="fill:#593617;" d="M114.472,266.911c4.933,0,8.956-4.907,8.956-10.921c0-6.011-4.023-10.918-8.956-10.918
			c-4.933,0-8.956,4.907-8.956,10.918C105.516,262.004,109.539,266.911,114.472,266.911z"/>
		<path style="fill:#593617;" d="M175.248,266.911c4.933,0,8.956-4.907,8.956-10.921c0-6.011-4.023-10.918-8.956-10.918
			s-8.956,4.907-8.956,10.918C166.292,262.004,170.315,266.911,175.248,266.911z"/>
		<path style="fill:#593617;" d="M236.024,266.911c4.933,0,8.956-4.907,8.956-10.921c0-6.011-4.023-10.918-8.956-10.918
			c-4.933,0-8.956,4.907-8.956,10.918C227.065,262.004,231.087,266.911,236.024,266.911z"/>
		<path style="fill:#593617;" d="M296.797,266.911c4.933,0,8.956-4.907,8.956-10.921c0-6.011-4.023-10.918-8.956-10.918
			c-4.933,0-8.956,4.907-8.956,10.918C287.841,262.004,291.864,266.911,296.797,266.911z"/>
		<path style="fill:#593617;" d="M144.862,315.819c4.933,0,8.956-4.907,8.956-10.921c0-6.011-4.023-10.918-8.956-10.918
			s-8.956,4.907-8.956,10.918C135.902,310.912,139.928,315.819,144.862,315.819z"/>
		<path style="fill:#593617;" d="M205.634,315.819c4.933,0,8.956-4.907,8.956-10.921c0-6.011-4.023-10.918-8.956-10.918
			c-4.933,0-8.956,4.907-8.956,10.918C196.678,310.912,200.701,315.819,205.634,315.819z"/>
		<path style="fill:#593617;" d="M266.41,315.819c4.933,0,8.956-4.907,8.956-10.921c0-6.011-4.023-10.918-8.956-10.918
			s-8.956,4.907-8.956,10.918C257.454,310.912,261.477,315.819,266.41,315.819z"/>
		<path style="fill:#593617;" d="M114.472,364.734c4.933,0,8.956-4.907,8.956-10.921c0-6.011-4.023-10.918-8.956-10.918
			c-4.933,0-8.956,4.907-8.956,10.918C105.516,359.827,109.539,364.734,114.472,364.734z"/>
		<path style="fill:#593617;" d="M175.248,364.734c4.933,0,8.956-4.907,8.956-10.921c0-6.011-4.023-10.918-8.956-10.918
			s-8.956,4.907-8.956,10.918C166.292,359.827,170.315,364.734,175.248,364.734z"/>
		<path style="fill:#593617;" d="M236.024,364.734c4.933,0,8.956-4.907,8.956-10.921c0-6.011-4.023-10.918-8.956-10.918
			c-4.933,0-8.956,4.907-8.956,10.918C227.065,359.827,231.087,364.734,236.024,364.734z"/>
		<path style="fill:#593617;" d="M296.797,364.734c4.933,0,8.956-4.907,8.956-10.921c0-6.011-4.023-10.918-8.956-10.918
			c-4.933,0-8.956,4.907-8.956,10.918C287.841,359.827,291.864,364.734,296.797,364.734z"/>
		<path style="fill:#593617;" d="M144.862,413.642c4.933,0,8.956-4.907,8.956-10.921c0-6.011-4.023-10.918-8.956-10.918
			s-8.956,4.907-8.956,10.918C135.902,408.735,139.928,413.642,144.862,413.642z"/>
		<path style="fill:#593617;" d="M205.634,413.642c4.933,0,8.956-4.907,8.956-10.921c0-6.011-4.023-10.918-8.956-10.918
			c-4.933,0-8.956,4.907-8.956,10.918C196.678,408.735,200.701,413.642,205.634,413.642z"/>
		<path style="fill:#593617;" d="M266.41,413.642c4.933,0,8.956-4.907,8.956-10.921c0-6.011-4.023-10.918-8.956-10.918
			s-8.956,4.907-8.956,10.918C257.454,408.735,261.477,413.642,266.41,413.642z"/>
		<path style="fill:#593617;" d="M114.472,462.55c4.933,0,8.956-4.907,8.956-10.918c0-6.014-4.023-10.921-8.956-10.921
			c-4.933,0-8.956,4.907-8.956,10.921C105.516,457.643,109.539,462.55,114.472,462.55z"/>
		<path style="fill:#593617;" d="M175.248,462.55c4.933,0,8.956-4.907,8.956-10.918c0-6.014-4.023-10.921-8.956-10.921
			s-8.956,4.907-8.956,10.921C166.292,457.643,170.315,462.55,175.248,462.55z"/>
		<path style="fill:#593617;" d="M236.024,462.55c4.933,0,8.956-4.907,8.956-10.918c0-6.014-4.023-10.921-8.956-10.921
			c-4.933,0-8.956,4.907-8.956,10.921C227.065,457.643,231.087,462.55,236.024,462.55z"/>
		<path style="fill:#593617;" d="M296.797,462.55c4.933,0,8.956-4.907,8.956-10.918c0-6.014-4.023-10.921-8.956-10.921
			c-4.933,0-8.956,4.907-8.956,10.921C287.841,457.643,291.864,462.55,296.797,462.55z"/>
	</g>
</g>
<g>
</g>
<g>
</g>
<g>
</g>
<g>
</g>
<g>
</g>
<g>
</g>
<g>
</g>
<g>
</g>
<g>
</g>
<g>
</g>
<g>
</g>
<g>
</g>
<g>
</g>
<g>
</g>
<g>
</g>
</svg>
