<?xml version="1.0" encoding="iso-8859-1"?>
<!-- Generator: Adobe Illustrator 19.0.0, SVG Export Plug-In . SVG Version: 6.00 Build 0)  -->
<svg version="1.1" id="Layer_1" xmlns="http://www.w3.org/2000/svg" xmlns:xlink="http://www.w3.org/1999/xlink" x="0px" y="0px"
	 viewBox="0 0 480 480" style="enable-background:new 0 0 480 480;" xml:space="preserve">
<path style="fill:#AF7518;" d="M431.2,120.24c6.24,6.24,9.36,14.4,9.36,22.64c0,8.16-3.12,16.32-9.36,22.64L340.72,256l-45.28-47.2
	l90.48-90.48C398.48,107.76,418.72,107.76,431.2,120.24z"/>
<path style="fill:#BF9146;" d="M318.32,218.176l90.48-90.48c6.152-5.168,14.144-7.768,22.16-7.648
	c-12.496-12.256-32.552-12.224-45.04-1.728l-90.48,90.48l45.28,47.2l7.088-7.088L318.32,218.176z"/>
<path style="fill:#132C47;" d="M340.72,264c-0.032,0-0.056,0-0.088,0c-2.152-0.024-4.192-0.904-5.688-2.464l-45.28-47.2
	c-3.016-3.144-2.96-8.12,0.12-11.192l90.48-90.48c16.864-14.216,41.512-13.176,56.592,1.92c7.544,7.528,11.704,17.584,11.704,28.296
	c0,10.608-4.144,20.64-11.664,28.264l-90.52,90.512C344.88,263.16,342.84,264,340.72,264z M306.632,208.912l34.2,35.656
	l84.704-84.704c4.504-4.568,7.016-10.616,7.016-16.984c0-6.432-2.496-12.464-7.016-16.976c-9.128-9.144-24.584-9.784-34.48-1.464
	L306.632,208.912z"/>
<ellipse style="fill:#F85766;" cx="151.432" cy="93.841" rx="39.999" ry="39.999"/>
<path style="fill:#F97985;" d="M131.44,85.36c19.12-11.04,43.6-4.48,54.64,14.64c1.264,2.184,2.232,4.448,3.04,6.744
	c3.608-10.552,2.976-22.496-3.04-32.904c-11.04-19.12-35.52-25.68-54.64-14.64c-16.936,9.776-23.952,30.088-17.68,47.896
	C116.784,98.264,122.728,90.392,131.44,85.36z"/>
<path style="fill:#BB413F;" d="M399.44,320l-33.76,128.16C362,462.24,349.28,472,334.8,472H128.08c-14.48,0-27.2-9.76-30.88-23.84
	L63.44,320H399.44z"/>
<path style="fill:#CD807F;" d="M399.44,320l-16,56h-40v24c0,8.8-7.2,16-16,16c-4.4,0-8.4-1.76-11.28-4.72
	c-2.96-2.88-4.72-6.88-4.72-11.28v-24h-32v24c0,8.8-7.2,16-16,16c-4.4,0-8.4-1.76-11.28-4.72c-2.96-2.88-4.72-6.88-4.72-11.28v-24
	h-32v24c0,8.8-7.2,16-16,16c-4.4,0-8.4-1.76-11.28-4.72c-2.96-2.88-4.72-6.88-4.72-11.28v-24h-32v24c0,8.8-7.2,16-16,16
	c-4.4,0-8.4-1.76-11.28-4.72c-2.96-2.88-4.72-6.88-4.72-11.28v-24h-40l-16-56H399.44z"/>
<path style="fill:#132C47;" d="M423.44,312h-24h-336h-24c-4.424,0-8,3.576-8,8s3.576,8,8,8h17.832l32.184,122.176
	C94.04,467.736,109.928,480,128.08,480H334.8c18.16,0,34.04-12.264,38.616-29.808L405.608,328h17.832c4.424,0,8-3.576,8-8
	S427.864,312,423.44,312z M388.832,328l-11.424,40H343.44c-4.424,0-8,3.576-8,8v24c0,4.416-3.584,8-8,8
	c-2.136,0-4.112-0.824-5.704-2.456c-1.472-1.432-2.296-3.408-2.296-5.544v-24c0-4.424-3.576-8-8-8h-32c-4.424,0-8,3.576-8,8v24
	c0,4.416-3.584,8-8,8c-2.136,0-4.112-0.824-5.704-2.456c-1.472-1.432-2.296-3.408-2.296-5.544v-24c0-4.424-3.576-8-8-8h-32
	c-4.424,0-8,3.576-8,8v24c0,4.416-3.584,8-8,8c-2.136,0-4.112-0.824-5.704-2.456c-1.472-1.432-2.296-3.408-2.296-5.544v-24
	c0-4.424-3.576-8-8-8h-32c-4.424,0-8,3.576-8,8v24c0,4.416-3.584,8-8,8c-2.136,0-4.112-0.824-5.704-2.456
	c-1.472-1.432-2.296-3.408-2.296-5.544v-24c0-4.424-3.576-8-8-8H85.472l-11.424-40H388.832z M357.936,446.136
	C355.2,456.656,345.672,464,334.8,464H128.08c-10.872,0-20.4-7.344-23.152-17.88L88.568,384h22.872v16
	c0,6.496,2.528,12.528,6.984,16.856c4.488,4.616,10.52,7.144,17.016,7.144c13.232,0,24-10.768,24-24v-16h16v16
	c0,6.496,2.528,12.528,6.984,16.856c4.488,4.616,10.52,7.144,17.016,7.144c13.232,0,24-10.768,24-24v-16h16v16
	c0,6.496,2.528,12.528,6.984,16.856c4.488,4.616,10.52,7.144,17.016,7.144c13.232,0,24-10.768,24-24v-16h16v16
	c0,6.496,2.528,12.528,6.984,16.856c4.488,4.616,10.52,7.144,17.016,7.144c13.232,0,24-10.768,24-24v-16h22.864L357.936,446.136z"/>
<path style="fill:#FCB23C;" d="M255.44,320h-192c0-53.04,42.96-96,96-96S255.44,266.96,255.44,320z"/>
<path style="fill:#FDC163;" d="M167.44,248c37.984,0,70.696,22.088,86.272,54.072C245.312,257.616,206.344,224,159.44,224
	c-53.04,0-96,42.96-96,96h11.144C85.248,278.608,122.704,248,167.44,248z"/>
<path style="fill:#132C47;" d="M255.44,328h-192c-4.424,0-8-3.576-8-8c0-57.344,46.656-104,104-104s104,46.656,104,104
	C263.44,324.424,259.864,328,255.44,328z M71.8,312h175.28c-4.056-44.792-41.808-80-87.64-80S75.856,267.208,71.8,312z"/>
<path style="fill:#F85766;" d="M399.44,320h-192c0-53.04,42.96-96,96-96S399.44,266.96,399.44,320z"/>
<path style="fill:#F97985;" d="M295.44,248c44.736,0,82.192,30.608,92.856,72h11.144c0-53.04-42.96-96-96-96
	c-46.904,0-85.872,33.616-94.272,78.072C224.744,270.088,257.456,248,295.44,248z"/>
<path style="fill:#132C47;" d="M399.44,328h-192c-4.424,0-8-3.576-8-8c0-57.344,46.656-104,104-104s104,46.656,104,104
	C407.44,324.424,403.864,328,399.44,328z M215.8,312h175.28c-4.056-44.792-41.808-80-87.64-80
	C257.608,232,219.856,267.208,215.8,312z"/>
<circle style="fill:#B376DD;" cx="231.44" cy="208" r="96"/>
<path style="fill:#C291E4;" d="M231.44,136c48.968,0,89.256,36.64,95.168,84c0.496-3.936,0.832-7.928,0.832-12
	c0-53.04-42.96-96-96-96s-96,42.96-96,96c0,4.072,0.336,8.064,0.832,12C142.184,172.64,182.472,136,231.44,136z"/>
<path style="fill:#FEDDDD;" d="M335.44,8v48c0,8.8-7.2,16-16,16h-88V24c0-8.8,7.2-16,16-16H335.44z"/>
<path style="fill:#FEEBEB;" d="M335.44,8v18c0,3.296-7.2,6-16,6h-88V14c0-3.296,7.2-6,16-6H335.44z"/>
<g>
	<circle style="fill:#F0E4F8;" cx="247.44" cy="192" r="8"/>
	<circle style="fill:#F0E4F8;" cx="279.44" cy="168" r="8"/>
	<circle style="fill:#F0E4F8;" cx="183.44" cy="192" r="8"/>
	<circle style="fill:#F0E4F8;" cx="215.44" cy="168" r="8"/>
</g>
<rect x="263.44" y="8" style="fill:#F95754;" width="40" height="64"/>
<rect x="263.44" y="8" style="fill:#FA7976;" width="40" height="24"/>
<path style="fill:#132C47;" d="M335.44,0h-88c-13.232,0-24,10.768-24,24v80.408c-9.376,0.72-18.384,2.696-26.904,5.752
	c4.64-12.856,3.824-27.584-3.528-40.312c-6.408-11.104-16.76-19.04-29.152-22.36c-9.776-2.616-19.864-2.064-29.144,1.408
	L122.36,27.504c-2.208-3.832-7.104-5.144-10.92-2.936c-3.832,2.208-5.144,7.104-2.928,10.928l12.36,21.408
	c-17.704,14.648-22.856,40.384-11,60.936c6.408,11.104,16.76,19.04,29.152,22.36c4.056,1.08,8.16,1.616,12.24,1.64
	c-14.88,17.992-23.824,41.048-23.824,66.16c0,57.344,46.656,104,104,104s104-46.656,104-104c0-54.64-42.392-99.48-96-103.592V80h80
	c13.232,0,24-10.768,24-24V8C343.44,3.576,339.864,0,335.44,0z M143.16,124.744c-8.256-2.208-15.168-7.504-19.432-14.896
	c-8.808-15.264-3.576-34.84,11.664-43.672c0.016-0.008,0.032-0.008,0.048-0.024s0.024-0.024,0.04-0.032
	c4.92-2.832,10.368-4.288,15.896-4.288c2.784,0,5.584,0.368,8.344,1.112c8.256,2.208,15.16,7.504,19.432,14.904
	s5.408,16.016,3.184,24.272c-2.208,8.256-7.504,15.168-14.896,19.432C160.04,125.832,151.408,126.968,143.16,124.744z M319.44,208
	c0,48.52-39.48,88-88,88s-88-39.48-88-88s39.48-88,88-88S319.44,159.48,319.44,208z M239.44,56V24c0-4.416,3.584-8,8-8h8v48h-16V56z
	 M271.44,64V16h24v48H271.44z M327.44,56c0,4.416-3.584,8-8,8h-8V16h16V56z"/>
<g>
</g>
<g>
</g>
<g>
</g>
<g>
</g>
<g>
</g>
<g>
</g>
<g>
</g>
<g>
</g>
<g>
</g>
<g>
</g>
<g>
</g>
<g>
</g>
<g>
</g>
<g>
</g>
<g>
</g>
</svg>
