<?xml version="1.0" encoding="iso-8859-1"?>
<!-- Generator: Adobe Illustrator 19.0.0, SVG Export Plug-In . SVG Version: 6.00 Build 0)  -->
<svg version="1.1" id="Layer_1" xmlns="http://www.w3.org/2000/svg" xmlns:xlink="http://www.w3.org/1999/xlink" x="0px" y="0px"
	 viewBox="0 0 489.022 489.022" style="enable-background:new 0 0 489.022 489.022;" xml:space="preserve">
<path style="fill:#8E6725;" d="M307.595,420.742l113.136-113.136c18.744-18.744,18.744-49.136,0-67.88l-67.88-67.88L171.835,352.862
	l67.88,67.88C258.459,439.486,288.851,439.486,307.595,420.742z"/>
<path d="M273.659,442.798c-14.96,0-29.016-5.824-39.6-16.4l-67.88-67.88c-1.504-1.504-2.344-3.536-2.344-5.656
	s0.84-4.16,2.344-5.656L347.195,166.19c3.128-3.128,8.184-3.128,11.312,0l67.88,67.88c21.832,21.832,21.832,57.36,0,79.192
	L313.251,426.398C302.675,436.974,288.619,442.798,273.659,442.798z M183.147,352.854l62.224,62.224
	c7.56,7.552,17.6,11.712,28.288,11.712c10.68,0,20.728-4.16,28.28-11.712l0,0L415.083,301.95c15.592-15.6,15.592-40.976,0-56.568
	l-62.224-62.224L183.147,352.854z"/>
<path style="fill:#D7B883;" d="M461.939,470.118l11.312-11.312c12.496-12.496,12.496-32.76,0-45.256l-79.192-79.2l-56.568,56.568
	l79.192,79.192C429.179,482.614,449.443,482.614,461.939,470.118z"/>
<path d="M477.299,409.43l-79.192-79.192c-3-3-8.312-3-11.312,0l-56.56,56.568c-3.128,3.128-3.128,8.184,0,11.312l79.192,79.192
	c7.552,7.552,17.592,11.712,28.28,11.712s20.728-4.16,28.28-11.712l11.312-11.32c7.552-7.552,11.72-17.6,11.72-28.288
	C489.019,427.022,484.851,416.982,477.299,409.43z M465.987,454.686l-11.312,11.32c-9.064,9.064-24.872,9.064-33.936,0
	l-73.536-73.536l16.968-16.976l33.944,33.944c1.56,1.56,3.608,2.344,5.656,2.344s4.096-0.784,5.656-2.344
	c3.128-3.128,3.128-8.184,0-11.312l-33.944-33.944l16.968-16.968l73.536,73.536c4.528,4.536,7.032,10.56,7.032,16.968
	C473.019,444.126,470.515,450.15,465.987,454.686z"/>
<path d="M432.051,420.742c-3.128-3.128-8.184-3.128-11.312,0c-3.128,3.12-3.128,8.184,0,11.312l16.968,16.976
	c1.56,1.56,3.608,2.344,5.656,2.344s4.096-0.784,5.656-2.344c3.128-3.12,3.128-8.184,0-11.312L432.051,420.742z"/>
<path style="fill:#E65039;" d="M386.795,205.782l-33.944-33.944l-135.76-135.76c-37.488-37.488-98.272-37.488-135.768,0
	L36.067,81.334c-37.488,37.488-37.488,98.272,0,135.768L171.835,352.87l22.624,22.624l11.312-11.312
	c6.248-6.248,16.376-6.248,22.624,0s16.376,6.248,22.624,0s6.248-16.376,0-22.624l22.624,22.624c6.248,6.248,16.376,6.248,22.624,0
	s6.248-16.376,0-22.624l-22.624-22.624c-6.248-6.248-6.248-16.376,0-22.624s16.376-6.248,22.624,0s16.376,6.248,22.624,0
	s6.248-16.376,0-22.624l22.624,22.624c6.248,6.248,16.376,6.248,22.624,0s6.248-16.376,0-22.624l-22.624-22.624
	c-6.248-6.248-6.248-16.376,0-22.624c6.248-6.248,16.376-6.248,22.624,0s16.376,6.248,22.624,0
	C393.043,222.158,393.043,212.03,386.795,205.782z"/>
<g>
	<path style="fill:#EB7361;" d="M274.411,319.67c-0.248,0.216-0.52,0.384-0.752,0.616c-6.248,6.248-6.248,16.376,0,22.624
		l21.872,21.872c0.248-0.216,0.52-0.384,0.752-0.616c6.248-6.248,6.248-16.376,0-22.624L274.411,319.67z"/>
	<path style="fill:#EB7361;" d="M36.067,105.334l45.256-45.256c37.488-37.488,98.272-37.488,135.768,0l135.768,135.768
		l33.184,33.184c0.248-0.216,0.52-0.384,0.752-0.616c6.248-6.248,6.248-16.376,0-22.624l-33.944-33.944L217.091,36.078
		c-37.488-37.488-98.272-37.488-135.768,0L36.067,81.334c-21.808,21.808-30.832,51.48-27.272,79.88
		C11.355,140.79,20.387,121.014,36.067,105.334z"/>
	<path style="fill:#EB7361;" d="M342.291,251.79c-0.248,0.216-0.52,0.384-0.752,0.616c-6.248,6.248-6.248,16.376,0,22.624
		l21.872,21.872c0.248-0.216,0.52-0.384,0.752-0.616c6.248-6.248,6.248-16.376,0-22.624L342.291,251.79z"/>
</g>
<path d="M194.459,383.486c-2.048,0-4.096-0.784-5.656-2.344L30.411,222.75c-40.544-40.552-40.544-106.528,0-147.08l45.256-45.256
	c40.544-40.552,106.528-40.552,147.08,0l169.704,169.704c4.528,4.528,7.032,10.56,7.032,16.976s-2.496,12.44-7.032,16.976
	c-9.04,9.048-24.864,9.072-33.936,0c-3.016-3.032-8.296-3.016-11.312,0c-1.504,1.512-2.344,3.52-2.344,5.656
	s0.832,4.152,2.344,5.664l22.624,22.624c9.36,9.352,9.36,24.584,0,33.944c-9.064,9.072-24.872,9.056-33.936,0l-6.632-6.632
	c-1.144,2.4-2.704,4.648-4.688,6.632c-9.056,9.056-24.864,9.064-33.936,0c-3.128-3.128-8.184-3.12-11.312,0
	c-1.512,1.512-2.344,3.52-2.344,5.656s0.832,4.152,2.344,5.664l22.624,22.624c4.528,4.528,7.032,10.56,7.032,16.968
	c0,6.416-2.496,12.44-7.032,16.976c-9.368,9.352-24.584,9.344-33.936,0l-6.632-6.632c-1.144,2.4-2.704,4.648-4.688,6.632
	c-9.368,9.344-24.584,9.352-33.936,0c-3.024-3.032-8.296-3.024-11.312,0l-11.32,11.312
	C198.555,382.702,196.507,383.486,194.459,383.486z M149.203,15.998c-22.536,0-45.072,8.576-62.224,25.736L41.723,86.99
	c-34.312,34.312-34.312,90.144,0,124.456l152.736,152.736l5.664-5.656c9.064-9.072,24.872-9.072,33.944,0
	c3.12,3.12,8.192,3.12,11.312,0c1.512-1.512,2.344-3.52,2.344-5.664c0-2.136-0.832-4.144-2.344-5.656
	c-3.128-3.128-3.128-8.184,0-11.312c3.128-3.128,8.184-3.128,11.312,0l22.632,22.632c3.128,3.12,8.184,3.112,11.312,0
	c3.12-3.12,3.12-8.192,0-11.312l-22.624-22.624c-4.528-4.528-7.032-10.56-7.032-16.976s2.496-12.44,7.032-16.976
	c9.36-9.352,24.576-9.352,33.936,0c3.024,3.024,8.296,3.016,11.312,0c3.12-3.12,3.12-8.192,0-11.32
	c-3.128-3.128-3.128-8.184,0-11.312s8.184-3.128,11.312,0l22.632,22.632c3.016,3.016,8.296,3.032,11.312,0
	c3.12-3.12,3.12-8.192,0-11.312l-22.624-22.624c-9.36-9.352-9.36-24.584,0-33.944c9.064-9.056,24.872-9.08,33.936,0
	c3.04,3.032,8.296,3.008,11.304,0c1.52-1.512,2.352-3.52,2.352-5.664s-0.832-4.152-2.344-5.664L211.435,41.734
	C194.275,24.574,171.739,15.998,149.203,15.998z"/>
<path d="M318.907,281.662c-2.048,0-4.096-0.784-5.656-2.344l-11.312-11.312c-3.128-3.128-3.128-8.184,0-11.312s8.184-3.128,11.312,0
	l11.312,11.312c3.128,3.128,3.128,8.184,0,11.312C323.003,280.878,320.955,281.662,318.907,281.662z"/>
<path d="M251.027,349.542c-2.048,0-4.096-0.784-5.656-2.344l-11.312-11.312c-3.128-3.128-3.128-8.192,0-11.312
	c3.128-3.128,8.184-3.128,11.312,0l11.312,11.312c3.128,3.128,3.128,8.192,0,11.312
	C255.123,348.766,253.075,349.542,251.027,349.542z"/>
<path d="M162.627,86.35c-4.416,0-8-3.584-8-8v-24c0-4.416,3.584-8,8-8s8,3.584,8,8v24C170.627,82.766,167.043,86.35,162.627,86.35z"
	/>
<path d="M98.627,94.35h-24c-4.416,0-8-3.584-8-8s3.584-8,8-8h24c4.416,0,8,3.584,8,8S103.043,94.35,98.627,94.35z"/>
<path d="M146.627,174.35c-4.416,0-8-3.584-8-8v-24c0-4.416,3.584-8,8-8s8,3.584,8,8v24
	C154.627,170.766,151.043,174.35,146.627,174.35z"/>
<path d="M82.627,182.35h-24c-4.416,0-8-3.584-8-8s3.584-8,8-8h24c4.416,0,8,3.584,8,8S87.043,182.35,82.627,182.35z"/>
<path d="M282.627,198.35c-4.424,0-8-3.584-8-8v-24c0-4.416,3.576-8,8-8s8,3.584,8,8v24
	C290.627,194.766,287.051,198.35,282.627,198.35z"/>
<path d="M218.627,214.35h-24c-4.416,0-8-3.584-8-8s3.584-8,8-8h24c4.416,0,8,3.584,8,8S223.043,214.35,218.627,214.35z"/>
<path d="M186.627,286.35h-24c-4.416,0-8-3.584-8-8s3.584-8,8-8h24c4.416,0,8,3.584,8,8S191.043,286.35,186.627,286.35z"/>
<path d="M242.627,126.35h-24c-4.416,0-8-3.584-8-8s3.584-8,8-8h24c4.416,0,8,3.584,8,8S247.043,126.35,242.627,126.35z"/>
<path d="M106.627,246.35c-4.416,0-8-3.584-8-8v-24c0-4.416,3.584-8,8-8s8,3.584,8,8v24
	C114.627,242.766,111.043,246.35,106.627,246.35z"/>
<path d="M106.627,486.35c-13.232,0-24-10.768-24-24v-72c0-4.408-3.592-8-8-8s-8,3.592-8,8v8c0,13.232-10.768,24-24,24
	s-24-10.768-24-24v-56c0-4.416,3.584-8,8-8s8,3.584,8,8v56c0,4.408,3.592,8,8,8s8-3.592,8-8v-8c0-13.232,10.768-24,24-24
	s24,10.768,24,24v72c0,4.408,3.592,8,8,8s8-3.592,8-8v-48c0-4.416,3.584-8,8-8s8,3.584,8,8v48
	C130.627,475.582,119.859,486.35,106.627,486.35z"/>
<path d="M26.627,318.35c-4.416,0-8-3.584-8-8v-32c0-4.416,3.584-8,8-8s8,3.584,8,8v32C34.627,314.766,31.043,318.35,26.627,318.35z"
	/>
<path d="M74.627,350.35c-4.416,0-8-3.584-8-8v-16c0-4.416,3.584-8,8-8s8,3.584,8,8v16C82.627,346.766,79.043,350.35,74.627,350.35z"
	/>
<path d="M122.627,390.35c-4.416,0-8-3.584-8-8v-32c0-4.416,3.584-8,8-8s8,3.584,8,8v32
	C130.627,386.766,127.043,390.35,122.627,390.35z"/>
<g>
</g>
<g>
</g>
<g>
</g>
<g>
</g>
<g>
</g>
<g>
</g>
<g>
</g>
<g>
</g>
<g>
</g>
<g>
</g>
<g>
</g>
<g>
</g>
<g>
</g>
<g>
</g>
<g>
</g>
</svg>
