<?xml version="1.0" encoding="iso-8859-1"?>
<!-- Generator: Adobe Illustrator 19.0.0, SVG Export Plug-In . SVG Version: 6.00 Build 0)  -->
<svg version="1.1" id="Capa_1" xmlns="http://www.w3.org/2000/svg" xmlns:xlink="http://www.w3.org/1999/xlink" x="0px" y="0px"
	 viewBox="0 0 320 320" style="enable-background:new 0 0 320 320;" xml:space="preserve">
<g id="XMLID_14_">
	<path id="XMLID_243_" style="fill:#FFDA44;" d="M145,280c0-0.313,0.028-0.618,0.047-0.926c-42.34-5.263-77.832-32.581-94.626-70.1
		C48.738,209.628,46.914,210,45,210c-8.284,0-15-6.716-15-15c0-7.16,5.02-13.138,11.729-14.632C40.597,173.748,40,166.944,40,160
		c0-35.929,15.795-68.165,40.814-90.157C80.295,68.322,80,66.697,80,65c0-8.284,6.716-15,15-15c3.671,0,7.031,1.323,9.639,3.514
		C121.203,44.884,140.03,40,160,40V0C71.634,0,0,71.634,0,160s71.634,160,160,160v-25C151.716,295,145,288.284,145,280z"/>
	<path id="XMLID_244_" style="fill:#FF9811;" d="M210.924,51.319C210.325,47.633,210,43.855,210,40
		c0-10.615,2.375-20.672,6.603-29.687C199.005,3.655,179.931,0,160,0v40C178.208,40,195.464,44.063,210.924,51.319z"/>
	<path id="XMLID_245_" style="fill:#FF9811;" d="M268.681,109.076C275.938,124.536,280,141.792,280,160
		c0,6.609-0.543,13.091-1.571,19.409C285.058,180.962,290,186.898,290,194c0,8.284-6.716,15-15,15c-1.773,0-3.465-0.323-5.044-0.888
		c-16.633,37.96-52.34,65.658-95.003,70.961c0.019,0.308,0.047,0.614,0.047,0.926c0,8.284-6.716,15-15,15v25
		c88.366,0,160-71.634,160-160c0-19.931-3.655-39.005-10.314-56.604C300.672,107.625,290.615,110,280,110
		C276.145,110,272.367,109.675,268.681,109.076z"/>
	<path id="XMLID_307_" style="fill:#EA348B;" d="M160,265v-55c-27.614,0-50-22.386-50-50s22.386-50,50-50V40
		c-19.97,0-38.797,4.884-55.361,13.514C107.914,56.265,110,60.387,110,65c0,8.284-6.716,15-15,15
		c-6.587,0-12.169-4.252-14.186-10.157C55.795,91.835,40,124.071,40,160c0,6.944,0.597,13.748,1.729,20.368
		C42.783,180.134,43.875,180,45,180c8.284,0,15,6.716,15,15c0,6.37-3.978,11.799-9.579,13.974
		c16.793,37.518,52.286,64.836,94.626,70.1C145.528,271.223,152.028,265,160,265z"/>
	<path id="XMLID_308_" style="fill:#B02768;" d="M160,110c27.614,0,50,22.386,50,50s-22.386,50-50,50v55
		c7.972,0,14.472,6.223,14.953,14.074c42.663-5.303,78.37-33.001,95.003-70.961C264.157,206.039,260,200.512,260,194
		c0-8.284,6.716-15,15-15c1.182,0,2.326,0.151,3.429,0.409c1.028-6.318,1.571-12.8,1.571-19.409
		c0-18.208-4.063-35.464-11.319-50.924c-29.589-4.813-52.943-28.167-57.756-57.756C195.464,44.063,178.208,40,160,40V110z"/>
	<path id="XMLID_309_" style="fill:#50412E;" d="M95,80c8.284,0,15-6.716,15-15c0-4.613-2.086-8.735-5.361-11.486
		C102.031,51.323,98.671,50,95,50c-8.284,0-15,6.716-15,15c0,1.697,0.295,3.322,0.814,4.843C82.831,75.748,88.413,80,95,80z"/>
	<path id="XMLID_311_" style="fill:#50412E;" d="M160,265c-7.972,0-14.472,6.223-14.953,14.074C145.028,279.382,145,279.688,145,280
		c0,8.284,6.716,15,15,15c8.284,0,15-6.716,15-15c0-0.313-0.028-0.618-0.047-0.926C174.472,271.223,167.972,265,160,265z"/>
	<path id="XMLID_312_" style="fill:#50412E;" d="M60,195c0-8.284-6.716-15-15-15c-1.125,0-2.217,0.134-3.271,0.368
		C35.02,181.862,30,187.84,30,195c0,8.284,6.716,15,15,15c1.914,0,3.738-0.372,5.421-1.026C56.022,206.799,60,201.37,60,195z"/>
	<path id="XMLID_333_" style="fill:#50412E;" d="M260,194c0,6.512,4.157,12.039,9.956,14.112c1.579,0.564,3.271,0.888,5.044,0.888
		c8.284,0,15-6.716,15-15c0-7.102-4.942-13.038-11.571-14.591C277.326,179.151,276.182,179,275,179C266.716,179,260,185.716,260,194
		z"/>
</g>
<g>
</g>
<g>
</g>
<g>
</g>
<g>
</g>
<g>
</g>
<g>
</g>
<g>
</g>
<g>
</g>
<g>
</g>
<g>
</g>
<g>
</g>
<g>
</g>
<g>
</g>
<g>
</g>
<g>
</g>
</svg>
