<?xml version="1.0" encoding="iso-8859-1"?>
<!-- Generator: Adobe Illustrator 19.0.0, SVG Export Plug-In . SVG Version: 6.00 Build 0)  -->
<svg version="1.1" id="Layer_1" xmlns="http://www.w3.org/2000/svg" xmlns:xlink="http://www.w3.org/1999/xlink" x="0px" y="0px"
	 viewBox="0 0 512 512" style="enable-background:new 0 0 512 512;" xml:space="preserve">
<path style="fill:#F26C9A;" d="M256,0C114.867,0,0,114.866,0,256c0,48.863,13.802,94.609,37.732,133.565
	c6.343,10.463,13.468,20.369,21.37,29.83c9.238-3.005,16.473-7.012,22.705-10.129c21.705-12.243,47.638-10.574,68.118,5.009
	c31.5,23.93,72.793,26.157,106.073,6.678c3.452-2.003,6.901-4.23,10.128-6.678c22.93-17.475,52.648-17.475,75.687,0
	c26.602,20.146,60.772,25.711,92.271,13.357c11.13-4.118,11.353-6.122,20.37-10.129c9.794-12.021,18.475-24.933,26.043-38.623
	C500.536,342.372,512,300.522,512,256C512,114.866,397.133,0,256,0z M256,345.043c-49.097,0-89.043-39.946-89.043-89.043
	s39.946-89.043,89.043-89.043s89.043,39.946,89.043,89.043S305.097,345.043,256,345.043z"/>
<path style="fill:#D95782;" d="M256,0v166.957c49.097,0,89.043,39.946,89.043,89.043S305.097,345.043,256,345.043v75.91
	c3.452-2.003,6.901-4.23,10.128-6.678c22.93-17.475,52.648-17.475,75.687,0c26.602,20.146,60.772,25.711,92.271,13.357
	c11.13-4.118,11.353-6.122,20.37-10.129c9.794-12.021,18.475-24.933,26.043-38.623C500.536,342.372,512,300.522,512,256
	C512,114.866,397.133,0,256,0z"/>
<path style="fill:#E6F3FF;" d="M78.076,235.337c-6.521-6.516-6.521-17.092,0-23.609l33.391-33.391
	c6.521-6.521,17.087-6.521,23.609,0c6.521,6.516,6.521,17.092,0,23.609l-33.391,33.391
	C95.163,241.859,84.598,241.859,78.076,235.337z"/>
<g>
	<path style="fill:#CFDBE6;" d="M378.597,335.511c-6.521-6.516-6.521-17.092,0-23.609l33.391-33.391
		c6.521-6.521,17.087-6.521,23.609,0c6.521,6.516,6.521,17.092,0,23.609l-33.391,33.391
		C395.685,342.033,385.12,342.033,378.597,335.511z"/>
	<path style="fill:#CFDBE6;" d="M311.815,135.164l-33.391-33.391c-6.521-6.516-6.521-17.092,0-23.609
		c6.521-6.521,17.087-6.521,23.609,0l33.391,33.391c6.521,6.516,6.521,17.092,0,23.609
		C328.902,141.685,318.337,141.685,311.815,135.164z"/>
</g>
<path style="fill:#E6F3FF;" d="M111.467,335.511L78.076,302.12c-6.521-6.516-6.521-17.092,0-23.609
	c6.521-6.521,17.087-6.521,23.609,0l33.391,33.391c6.521,6.516,6.521,17.092,0,23.609
	C128.554,342.033,117.989,342.033,111.467,335.511z"/>
<path style="fill:#CFDBE6;" d="M407.098,206.837h-33.391c-9.217,0-16.696-7.473-16.696-16.696s7.479-16.696,16.696-16.696h33.391
	c9.217,0,16.696,7.473,16.696,16.696S416.315,206.837,407.098,206.837z"/>
<path style="fill:#E6F3FF;" d="M206.75,140.054h-33.391c-9.217,0-16.696-7.473-16.696-16.696s7.479-16.696,16.696-16.696h33.391
	c9.217,0,16.696,7.473,16.696,16.696S215.967,140.054,206.75,140.054z"/>
<path style="fill:#FFD500;" d="M480.5,378.88c-7.568,13.69-16.25,26.602-26.043,38.623C407.485,475.158,335.915,512,256,512
	c-79.137,0-149.927-36.063-196.896-92.605c-7.904-9.461-15.027-19.367-21.372-29.83c16.25-2.003,29.05-10.463,35.283-13.134
	c31.61-14.358,68.562-10.463,97.169,11.241c23.039,17.475,52.758,17.475,75.687,0c3.227-2.449,6.677-4.786,10.128-6.678
	c33.28-19.478,74.574-17.252,106.073,6.678c19.923,15.25,45.635,17.141,67.005,5.455C444.548,383.777,461.357,378.657,480.5,378.88z
	"/>
<path style="fill:#FFAA00;" d="M480.5,378.88c-7.568,13.69-16.25,26.602-26.043,38.623C407.485,475.158,335.915,512,256,512V380.995
	c33.28-19.478,74.574-17.252,106.073,6.678c19.923,15.25,45.635,17.141,67.005,5.455C444.548,383.777,461.357,378.657,480.5,378.88z
	"/>
<g>
</g>
<g>
</g>
<g>
</g>
<g>
</g>
<g>
</g>
<g>
</g>
<g>
</g>
<g>
</g>
<g>
</g>
<g>
</g>
<g>
</g>
<g>
</g>
<g>
</g>
<g>
</g>
<g>
</g>
</svg>
