<?xml version="1.0" encoding="iso-8859-1"?>
<!-- Generator: Adobe Illustrator 19.0.0, SVG Export Plug-In . SVG Version: 6.00 Build 0)  -->
<svg version="1.1" id="Layer_1" xmlns="http://www.w3.org/2000/svg" xmlns:xlink="http://www.w3.org/1999/xlink" x="0px" y="0px"
	 viewBox="0 0 512 512" style="enable-background:new 0 0 512 512;" xml:space="preserve">
<path style="fill:#FFEDBE;" d="M256,0C114.841,0,0,114.841,0,256s114.841,256,256,256s256-114.841,256-256S397.159,0,256,0z
	 M256,319.037c-34.814,0-63.037-28.223-63.037-63.037c0-34.815,28.223-63.037,63.037-63.037s63.037,28.222,63.037,63.037
	C319.037,290.814,290.814,319.037,256,319.037z"/>
<path style="fill:#FFE49C;" d="M256,0v192.963c34.814,0,63.037,28.222,63.037,63.037c0,34.814-28.223,63.037-63.037,63.037V512
	c141.159,0,256-114.841,256-256S397.159,0,256,0z"/>
<g>
	<path style="fill:#CC9C56;" d="M270.857,137.007c-7.615-8.09-7.231-20.822,0.862-28.438l22.801-21.46
		c8.09-7.615,20.821-7.232,28.438,0.862c7.615,8.09,7.231,20.822-0.862,28.438l-22.801,21.46
		C291.204,145.482,278.475,145.101,270.857,137.007z"/>
	<path style="fill:#CC9C56;" d="M347.753,373.956c-7.615-8.09-7.231-20.822,0.862-28.438l22.801-21.46
		c8.09-7.615,20.821-7.232,28.438,0.862c7.615,8.09,7.23,20.822-0.862,28.438l-22.801,21.46
		C368.101,382.431,355.371,382.051,347.753,373.956z"/>
</g>
<path style="fill:#DBAC67;" d="M97.677,332.446l-17.215-26.154c-6.109-9.281-3.538-21.757,5.743-27.865
	c9.283-6.111,21.759-3.537,27.865,5.743l17.216,26.154c6.109,9.281,3.538,21.757-5.743,27.865
	C116.265,344.298,103.788,341.729,97.677,332.446z"/>
<g>
	<path style="fill:#CC9C56;" d="M381.196,220.065l-20.118-44.26c-4.599-10.115-0.126-22.043,9.989-26.639
		c10.111-4.599,22.043-0.126,26.639,9.989l20.118,44.26c4.599,10.115,0.126,22.042-9.989,26.639
		C397.717,234.654,385.793,230.176,381.196,220.065z"/>
	<path style="fill:#CC9C56;" d="M285.282,385.079c-5.161-9.841-17.323-13.635-27.16-8.474L256,377.718v45.432l20.808-10.911
		C286.648,407.08,290.443,394.92,285.282,385.079z"/>
</g>
<g>
	<path style="fill:#DBAC67;" d="M215.066,399.183c-9.841,5.16-13.635,17.319-8.474,27.16c5.161,9.843,17.325,13.632,27.16,8.474
		l22.25-11.667v-45.432L215.066,399.183z"/>
	<path style="fill:#DBAC67;" d="M130.333,186.265l-12.071-59.014c-2.226-10.885,4.794-21.515,15.679-23.741
		c10.891-2.232,21.516,4.792,23.742,15.678l12.071,59.014c2.226,10.885-4.794,21.515-15.679,23.741
		C143.222,204.169,132.565,197.175,130.333,186.265z"/>
</g>
<g>
</g>
<g>
</g>
<g>
</g>
<g>
</g>
<g>
</g>
<g>
</g>
<g>
</g>
<g>
</g>
<g>
</g>
<g>
</g>
<g>
</g>
<g>
</g>
<g>
</g>
<g>
</g>
<g>
</g>
</svg>
