<?xml version="1.0" encoding="iso-8859-1"?>
<!-- Generator: Adobe Illustrator 19.0.0, SVG Export Plug-In . SVG Version: 6.00 Build 0)  -->
<svg version="1.1" id="Layer_1" xmlns="http://www.w3.org/2000/svg" xmlns:xlink="http://www.w3.org/1999/xlink" x="0px" y="0px"
	 viewBox="0 0 512 512" style="enable-background:new 0 0 512 512;" xml:space="preserve">
<path style="fill:#FFEDBE;" d="M509.718,222.631c-1.348-10.275-10.267-17.825-20.638-17.487
	c-44.561,1.554-89.275-10.819-120.046-41.575c-22.527-22.519-36.583-51.945-109.422-54.943c-22.775-0.937-44.497,0.291-64.147-4.264
	c-25.545-5.92-49.507-22.74-63.384-47.014c-6.003-10.497-19.86-13.361-29.533-6.102C39.006,98.953,0.068,173.687,0.068,256.074
	C0.068,397.193,114.875,512,255.994,512C409.614,512,529.888,376.62,509.718,222.631z M255.994,319.093
	c-34.804,0-63.019-28.215-63.019-63.019s28.215-63.019,63.019-63.019s63.019,28.215,63.019,63.019
	C319.013,290.879,290.798,319.093,255.994,319.093z"/>
<path style="fill:#FFE49C;" d="M509.718,222.631c-1.348-10.275-10.267-17.825-20.638-17.487
	c-44.561,1.554-89.275-10.819-120.046-41.575c-22.527-22.519-36.583-51.945-109.422-54.943c-1.209-0.05-2.415-0.09-3.618-0.129
	v84.558c34.804,0,63.019,28.215,63.019,63.019s-28.215,63.019-63.019,63.019V512C409.614,512,529.886,376.62,509.718,222.631z"/>
<path style="fill:#FF5E5B;" d="M311.739,162.866c-30.878-22.333-80.359-8.89-125.356-19.316l0,0
	c-35.928-8.327-69.636-31.972-89.222-66.233c-5.036-8.807-2.725-19.984,5.39-26.071c156.175-117.171,381.78-22.228,407.166,171.385
	c1.543,11.79-7.422,22.305-19.246,22.715C370.753,249.472,332.437,177.838,311.739,162.866z"/>
<path style="fill:#ED3E3C;" d="M509.718,222.631C492.017,87.63,376.971,0.607,255.994,0.009v148.797
	c21.217,0.792,40.694,3.174,55.745,14.06c20.697,14.972,59.014,86.606,178.733,82.48
	C502.297,244.936,511.262,234.42,509.718,222.631z"/>
<circle style="fill:#FFDA79;" cx="223.57" cy="63.448" r="13.659"/>
<g>
	<circle style="fill:#FFC72D;" cx="322.979" cy="77.097" r="13.659"/>
	<circle style="fill:#FFC72D;" cx="402.343" cy="133.573" r="13.659"/>
</g>
<g>
</g>
<g>
</g>
<g>
</g>
<g>
</g>
<g>
</g>
<g>
</g>
<g>
</g>
<g>
</g>
<g>
</g>
<g>
</g>
<g>
</g>
<g>
</g>
<g>
</g>
<g>
</g>
<g>
</g>
</svg>
