<?xml version="1.0" encoding="iso-8859-1"?>
<!-- Generator: Adobe Illustrator 19.0.0, SVG Export Plug-In . SVG Version: 6.00 Build 0)  -->
<svg version="1.1" id="Layer_1" xmlns="http://www.w3.org/2000/svg" xmlns:xlink="http://www.w3.org/1999/xlink" x="0px" y="0px"
	 viewBox="0 0 347.222 347.222" style="enable-background:new 0 0 347.222 347.222;" xml:space="preserve">
<g id="XMLID_1045_">
	<path id="XMLID_1046_" style="fill:#FFE165;" d="M173.611,0C77.728,0,0,77.728,0,173.611s77.728,173.611,173.611,173.611
		s173.611-77.728,173.611-173.611S269.493,0,173.611,0z M173.611,254.226c-44.523,0-80.615-36.093-80.615-80.615
		s36.093-80.615,80.615-80.615s80.615,36.093,80.615,80.615S218.133,254.226,173.611,254.226z"/>
	<path id="XMLID_1049_" style="fill:#FF5959;" d="M295.338,123.189c-6.423-15.489-23.983-23.977-35.656-35.65
		c-11.673-11.672-20.161-29.233-35.65-35.655c-14.941-6.196-33.24,0.003-50.422,0.003s-35.481-6.199-50.422-0.003
		c-15.489,6.423-23.977,23.983-35.65,35.656s-29.233,20.161-35.655,35.65c-6.196,14.941,0.003,33.24,0.003,50.422
		s-6.199,35.481-0.003,50.422c6.423,15.489,23.983,23.977,35.656,35.65c11.673,11.672,20.161,29.233,35.65,35.655
		c14.941,6.196,33.24-0.003,50.422-0.003s35.481,6.199,50.422,0.003c15.489-6.423,23.977-23.983,35.65-35.656
		c11.673-11.673,29.233-20.161,35.655-35.65c6.196-14.941-0.003-33.24-0.003-50.422S301.534,138.13,295.338,123.189z
		 M173.611,250.23c-42.316,0-76.619-34.304-76.619-76.619s34.304-76.619,76.619-76.619c42.316,0,76.619,34.304,76.619,76.619
		S215.927,250.23,173.611,250.23z"/>
	<circle id="XMLID_1052_" style="fill:#5FD2DB;" cx="213.766" cy="76.587" r="14"/>
	<circle id="XMLID_1053_" style="fill:#5FD2DB;" cx="270.45" cy="133.516" r="14"/>
	<circle id="XMLID_1054_" style="fill:#5FD2DB;" cx="269.825" cy="214.715" r="14"/>
	<circle id="XMLID_1056_" style="fill:#5FD2DB;" cx="215.764" cy="271.212" r="14"/>
	<circle id="XMLID_565_" style="fill:#5FD2DB;" cx="135.255" cy="76.587" r="14"/>
	<circle id="XMLID_564_" style="fill:#5FD2DB;" cx="78.572" cy="133.516" r="14"/>
	<circle id="XMLID_563_" style="fill:#5FD2DB;" cx="79.196" cy="214.715" r="14"/>
	<circle id="XMLID_562_" style="fill:#5FD2DB;" cx="133.258" cy="271.212" r="14"/>
</g>
<g>
</g>
<g>
</g>
<g>
</g>
<g>
</g>
<g>
</g>
<g>
</g>
<g>
</g>
<g>
</g>
<g>
</g>
<g>
</g>
<g>
</g>
<g>
</g>
<g>
</g>
<g>
</g>
<g>
</g>
</svg>
