<?xml version="1.0" encoding="iso-8859-1"?>
<!-- Generator: Adobe Illustrator 19.0.0, SVG Export Plug-In . SVG Version: 6.00 Build 0)  -->
<svg version="1.1" id="Layer_1" xmlns="http://www.w3.org/2000/svg" xmlns:xlink="http://www.w3.org/1999/xlink" x="0px" y="0px"
	 viewBox="0 0 512 512" style="enable-background:new 0 0 512 512;" xml:space="preserve">
<g>
	<g>
		<path style="fill:#F3DDB9;" d="M320,256.001c0,35.345-28.654,63.997-64.002,63.997c-35.344,0-63.997-28.652-63.997-63.997
			c0-35.347,28.653-64.001,63.997-64.001C291.346,192,320,220.654,320,256.001L320,256.001z M362.665,256.001
			c0-58.912-47.755-106.667-106.666-106.667c-58.91,0-106.665,47.755-106.665,106.667c0,58.908,47.756,106.666,106.665,106.666
			C314.91,362.668,362.665,314.909,362.665,256.001z"/>
		<path style="fill:#F3DDB9;" d="M362.665,256.001c0,58.908-47.755,106.666-106.666,106.666
			c-58.91,0-106.665-47.759-106.665-106.666c0-58.912,47.756-106.667,106.665-106.667
			C314.91,149.333,362.665,197.089,362.665,256.001L362.665,256.001z M297.36,14.158c-13.449-2.283-27.261-3.49-41.362-3.49
			c-135.491,0-245.33,109.839-245.33,245.332c0,135.492,109.839,245.331,245.33,245.331c135.495,0,245.333-109.839,245.333-245.331
			c0-21.532-2.783-42.412-7.995-62.313c-4.964,2.65-10.544,4.344-16.512,4.82c-22.478,1.786-42.244-14.373-45.199-36.458
			c-8.295,4.403-17.602,7.222-27.558,8.012c-38.978,3.1-73.085-25.981-76.187-64.959c-0.978-12.329,1.264-24.169,6.016-34.694
			c-20.38-1.553-37.161-17.745-38.834-38.761C294.574,25.521,295.421,19.596,297.36,14.158z"/>
	</g>
	<path style="fill:#BF2345;" d="M362.665,256.001c0,58.908-47.755,106.666-106.666,106.666c-58.91,0-106.665-47.759-106.665-106.666
		c0-58.912,47.756-106.667,106.665-106.667C314.91,149.333,362.665,197.089,362.665,256.001L362.665,256.001z M255.998,53.333
		c-111.928,0-202.664,90.738-202.664,202.668c0,111.927,90.737,202.664,202.664,202.664c111.929,0,202.666-90.737,202.666-202.664
		c0-23.196-3.907-45.474-11.082-66.231c-8.481-6.589-14.439-16.372-15.958-27.719c-8.295,4.403-17.602,7.222-27.558,8.012
		c-38.978,3.1-73.085-25.981-76.187-64.959c-0.978-12.329,1.264-24.169,6.016-34.694c-9.009-0.688-17.31-4.237-23.921-9.796
		C292.79,55.876,274.693,53.333,255.998,53.333z"/>
</g>
<g>
	<path style="fill:#000003;" d="M503.657,190.986c-0.827-3.159-3.054-5.764-6.046-7.072c-2.991-1.309-6.417-1.175-9.298,0.363
		c-3.82,2.04-7.972,3.25-12.333,3.597c-0.846,0.067-1.703,0.101-2.546,0.101c-15.721,0-29.149-11.754-31.235-27.339
		c-0.463-3.461-2.59-6.477-5.696-8.073c-3.105-1.596-6.796-1.572-9.88,0.065c-7.265,3.856-15.138,6.144-23.403,6.8
		c-1.611,0.128-3.24,0.193-4.847,0.193c-31.096,0-57.388-24.318-59.859-55.361c-0.802-10.101,0.962-20.288,5.104-29.459
		c1.432-3.171,1.227-6.84-0.548-9.832c-1.773-2.993-4.896-4.932-8.364-5.197c-15.569-1.186-27.769-13.37-29.01-28.966
		c-0.355-4.483,0.221-8.88,1.712-13.067c1.057-2.97,0.749-6.256-0.846-8.977c-1.594-2.719-4.31-4.595-7.419-5.123
		C284.917,1.225,270.4,0,255.998,0C187.619,0,123.334,26.629,74.98,74.981C26.629,123.333,0,187.62,0,256.001
		s26.629,132.667,74.98,181.018C123.333,485.371,187.619,512,255.998,512c68.381,0,132.668-26.629,181.021-74.981
		S512,324.38,512,256C512,234.004,509.193,212.129,503.657,190.986z M255.998,490.663c-129.391,0-234.661-105.268-234.661-234.662
		S126.607,21.337,255.998,21.337c9.493,0,19.044,0.58,28.51,1.729c-0.305,3.11-0.334,6.257-0.081,9.429
		c1.71,21.5,15.859,39.13,35.355,45.82c-2.403,8.956-3.275,18.324-2.537,27.633c1.636,20.554,10.891,39.554,26.061,53.501
		c15.087,13.869,34.644,21.507,55.069,21.507c2.169,0,4.368-0.087,6.537-0.26c6.778-0.538,13.367-1.889,19.7-4.034
		c8.028,19.298,27.123,32.648,48.824,32.648c1.404,0,2.829-0.057,4.239-0.169c2.732-0.218,5.417-0.639,8.043-1.26
		c3.286,15.769,4.947,31.905,4.947,48.117C490.663,385.394,385.392,490.663,255.998,490.663z"/>
	<path style="fill:#000003;" d="M255.998,181.331c-41.172,0-74.666,33.497-74.666,74.669c0,41.171,33.496,74.666,74.666,74.666
		c41.174,0,74.67-33.496,74.67-74.666C330.669,214.828,297.172,181.331,255.998,181.331z M255.998,309.329
		c-29.406,0-53.329-23.923-53.329-53.329c0-29.407,23.924-53.332,53.329-53.332c29.407,0,53.333,23.925,53.333,53.332
		C309.331,285.407,285.407,309.329,255.998,309.329z"/>
	<path style="fill:#000003;" d="M149.333,71.247c-24.384,14.078-45.441,32.544-62.583,54.883s-29.528,47.457-36.817,74.656
		c-2.049,7.648-3.688,15.501-4.872,23.338c-0.88,5.826,3.13,11.262,8.956,12.142c0.54,0.082,1.075,0.122,1.606,0.122
		c5.187,0,9.738-3.792,10.536-9.077c1.065-7.053,2.54-14.119,4.384-21.001c13.274-49.538,45.044-90.941,89.458-116.583
		c5.102-2.946,6.851-9.471,3.905-14.573C160.961,70.049,154.435,68.3,149.333,71.247z"/>
	<path style="fill:#000003;" d="M457.983,275.733c-5.835-0.884-11.263,3.13-12.142,8.955c-1.065,7.046-2.54,14.112-4.387,21.002
		c-13.274,49.54-45.046,90.943-89.457,116.58c-5.103,2.946-6.853,9.471-3.906,14.573c1.977,3.423,5.562,5.337,9.25,5.337
		c1.809,0,3.644-0.461,5.324-1.431c24.385-14.077,45.442-32.543,62.584-54.881c17.139-22.338,29.528-47.456,36.816-74.656
		c2.052-7.657,3.692-15.509,4.875-23.339C467.82,282.05,463.809,276.614,457.983,275.733z"/>
	<path style="fill:#000003;" d="M53.48,244.869c-5.894-0.068-10.734,4.631-10.813,10.524l-0.002,0.606
		c0,5.892,4.776,10.669,10.669,10.669c5.891,0,10.669-4.776,10.669-10.669v-0.318C64.083,249.789,59.37,244.949,53.48,244.869z"/>
	<path style="fill:#000003;" d="M458.665,245.332c-5.892,0-10.669,4.776-10.669,10.669v0.463c0,5.892,4.776,10.669,10.669,10.669
		c5.892,0,10.669-4.776,10.669-10.669v-0.463C469.334,250.108,464.558,245.332,458.665,245.332z"/>
	<path style="fill:#000003;" d="M145.867,283.987l12.772-22.767c2.882-5.139,1.053-11.642-4.086-14.524
		c-5.137-2.882-11.64-1.052-14.523,4.086l-12.772,22.767c-2.882,5.139-1.052,11.642,4.086,14.524c1.65,0.926,3.443,1.366,5.21,1.366
		C140.286,289.438,143.911,287.475,145.867,283.987z"/>
	<path style="fill:#000003;" d="M114.773,320.176H87.272c-5.892,0-10.669,4.776-10.669,10.669s4.776,10.669,10.669,10.669h27.501
		c5.893,0,10.669-4.776,10.669-10.669C125.442,324.951,120.667,320.176,114.773,320.176z"/>
	<path style="fill:#000003;" d="M333.303,328.045l17.604,17.909c2.089,2.124,4.848,3.19,7.609,3.19c2.7,0,5.402-1.018,7.479-3.061
		c4.201-4.131,4.259-10.885,0.129-15.088l-17.603-17.909c-4.132-4.202-10.886-4.26-15.089-0.129
		C329.232,317.089,329.173,323.843,333.303,328.045z"/>
	<path style="fill:#000003;" d="M389.345,238.383c1.015,0,2.047-0.146,3.069-0.452l22.222-6.667
		c5.644-1.693,8.846-7.641,7.152-13.285c-1.692-5.644-7.639-8.846-13.284-7.153l-22.222,6.667
		c-5.644,1.693-8.847,7.641-7.152,13.285C380.516,235.399,384.755,238.383,389.345,238.383z"/>
	<path style="fill:#000003;" d="M200.98,165.163c2,3.334,5.534,5.182,9.158,5.182c1.868,0,3.76-0.491,5.478-1.522
		c5.053-3.031,6.69-9.585,3.659-14.637l-12.502-20.835c-3.032-5.053-9.586-6.69-14.638-3.659c-5.053,3.031-6.69,9.585-3.659,14.638
		L200.98,165.163z"/>
	<path style="fill:#000003;" d="M136.137,184.62l0.689-23.19c0.174-5.889-4.46-10.805-10.348-10.98
		c-5.915-0.174-10.806,4.458-10.981,10.348l-0.688,23.19c-0.175,5.889,4.458,10.805,10.348,10.98
		c0.108,0.003,0.214,0.004,0.322,0.004C131.224,194.973,135.964,190.403,136.137,184.62z"/>
	<path style="fill:#000003;" d="M350.631,396.93l0.687-23.19c0.175-5.889-4.457-10.805-10.348-10.98
		c-5.914-0.188-10.806,4.458-10.979,10.348l-0.688,23.19c-0.175,5.89,4.457,10.805,10.348,10.98
		c0.108,0.003,0.214,0.004,0.321,0.004C345.72,407.283,350.46,402.713,350.631,396.93z"/>
	<path style="fill:#000003;" d="M154.94,390.403c-1.356-5.734-7.098-9.282-12.837-7.929c-5.733,1.355-9.284,7.102-7.929,12.837
		l5.337,22.578c1.161,4.91,5.539,8.217,10.374,8.217c0.813,0,1.638-0.094,2.463-0.289c5.734-1.356,9.284-7.102,7.929-12.837
		L154.94,390.403z"/>
	<path style="fill:#000003;" d="M222.661,89.755c0.108,0.003,0.214,0.004,0.321,0.004c5.747,0,10.487-4.57,10.658-10.353
		l0.688-23.19c0.175-5.89-4.457-10.805-10.348-10.98c-5.92-0.194-10.805,4.458-10.979,10.348l-0.688,23.19
		C212.138,84.664,216.771,89.58,222.661,89.755z"/>
	<path style="fill:#000003;" d="M396.332,276.631l-0.688,23.191c-0.175,5.889,4.458,10.805,10.348,10.98
		c0.109,0.003,0.214,0.004,0.322,0.004c5.746,0,10.486-4.57,10.658-10.353l0.688-23.191c0.174-5.889-4.46-10.805-10.348-10.98
		C401.407,266.103,396.507,270.742,396.332,276.631z"/>
	<path style="fill:#000003;" d="M277.329,396.83c-5.14-2.884-11.642-1.053-14.524,4.086l-12.77,22.769
		c-2.883,5.139-1.054,11.642,4.085,14.524c1.652,0.926,3.443,1.366,5.21,1.366c3.734,0,7.358-1.963,9.315-5.452l12.77-22.769
		C284.298,406.215,282.469,399.712,277.329,396.83z"/>
	<path style="fill:#000003;" d="M256.134,136.106h27.499c5.892,0,10.669-4.776,10.669-10.669c0-5.892-4.776-10.669-10.669-10.669
		h-27.499c-5.892,0-10.669,4.776-10.669,10.669C245.465,131.33,250.242,136.106,256.134,136.106z"/>
	<path style="fill:#000003;" d="M222.658,371.163l-26.425-7.62c-5.661-1.633-11.575,1.634-13.207,7.295
		c-1.632,5.662,1.633,11.575,7.295,13.207l26.426,7.62c0.988,0.285,1.982,0.42,2.961,0.42c4.632,0,8.899-3.042,10.246-7.716
		C231.585,378.709,228.319,372.795,222.658,371.163z"/>
</g>
<g>
</g>
<g>
</g>
<g>
</g>
<g>
</g>
<g>
</g>
<g>
</g>
<g>
</g>
<g>
</g>
<g>
</g>
<g>
</g>
<g>
</g>
<g>
</g>
<g>
</g>
<g>
</g>
<g>
</g>
</svg>
