<?xml version="1.0" encoding="iso-8859-1"?>
<!-- Generator: Adobe Illustrator 19.0.0, SVG Export Plug-In . SVG Version: 6.00 Build 0)  -->
<svg version="1.1" id="Layer_1" xmlns="http://www.w3.org/2000/svg" xmlns:xlink="http://www.w3.org/1999/xlink" x="0px" y="0px"
	 viewBox="0 0 511.974 511.974" style="enable-background:new 0 0 511.974 511.974;" xml:space="preserve">
<path style="fill:#EC87C0;" d="M501.022,191.647c-2.142-3.656-36.64-44.654-36.64-44.654L362.653,96.995l-72.262-9.999l-55.739-4.5
	l-48.263,8.5l-90.433,23.498l-39.561,24.155l-45.498,45.842v45.998l85.058,71.09l32.467,26.405l29.967-2.656l76.262-14.343
	l63.989,0.5l56.247,16.499l34.436-2.656l87.105-80.684l24.593-28.655C501.022,215.989,503.163,195.302,501.022,191.647z
	 M261.464,227.739c-55.888,0-101.191-8.953-101.191-19.983c0-11.031,45.303-19.983,101.191-19.983
	c55.896,0,101.189,8.952,101.189,19.983C362.653,218.786,317.359,227.739,261.464,227.739z"/>
<path style="fill:#F4B68C;" d="M500.881,226.989c-0.343-2-13.343,6-13.343,6l-33.998,35.67l-80.324,59.997l-60.669-10l-63.661-3.999
	l-58.333,6.327l-65.661,5.328l-57.333-48.997l-51.326-46.326l-5.335,67.652l20.999,54.014l74.77,47.997l115.22,23.327l87.44-2
	l86.559-12.999l77.996-47.998l26.998-40.326C500.881,320.656,501.21,228.989,500.881,226.989z"/>
<path style="fill:#D770AD;" d="M359.138,171.242l-61.747-16.499l-56.255-3.5l-62.497,15.999l-11.75,3l-25.999,13.499l11.25,16.749
	l77.496-20.499l62.504,6.672l44.998,11.077c0,0,20.999,7.5,21.749,7.5s12.749-12.749,11.999-14.999S359.138,171.242,359.138,171.242
	z"/>
<path d="M255.987,74.652C114.611,74.652,0,137.868,0,202.646v106.683c0,64.777,114.611,127.993,255.987,127.993
	c141.368,0,255.987-63.216,255.987-127.993V202.646C511.974,137.868,397.355,74.652,255.987,74.652z M36.279,169.242
	c11.07-12.844,27.834-25.28,48.482-35.92c22.194-11.453,47.865-20.531,76.301-26.968c9.437-2.141,19.03-3.953,28.756-5.422
	c-6.234,11.655-21.421,16.593-22.171,16.827c-1.664,0.484-3.227,1.391-4.531,2.688c-4.164,4.172-4.164,10.922,0,15.077
	c2.875,2.875,6.977,3.781,10.609,2.688c2.078-0.625,34.209-10.718,39.396-40.154c0,0,0,0,0-0.016
	c14.101-1.358,28.413-2.046,42.865-2.046c32.639,0,64.591,3.483,94.933,10.358c14.155,3.203,27.624,7.063,40.311,11.546
	c-1.5,0.5-2.922,1.344-4.125,2.563c-4.155,4.156-4.155,10.906,0,15.062c4.156,4.188,10.922,4.188,15.094,0
	c3.468-3.468,4.03-8.78,1.687-12.843c8.141,3.281,15.938,6.813,23.343,10.641c20.624,10.64,37.404,23.076,48.467,35.92
	c9.921,11.515,14.937,22.749,14.937,33.404v16.624l-98.042,89.152c-6.266,5.688-19.546,9.593-27.89,8.219l-85.839-14.344
	c-12.772-2.124-32.795-2.124-45.584,0l-85.996,14.344c-8.343,1.374-21.64-2.531-27.897-8.219l-98.049-89.152v-16.624
	C21.335,191.991,26.358,180.757,36.279,169.242z M475.695,342.733c-11.063,12.844-27.843,25.28-48.467,35.92
	c-22.218,11.453-47.872,20.515-76.309,26.968c-30.342,6.874-62.294,10.358-94.933,10.358s-64.583-3.484-94.925-10.358
	c-28.437-6.453-54.107-15.515-76.309-26.968c-20.64-10.64-37.404-23.076-48.474-35.92c-9.921-11.515-14.944-22.749-14.944-33.404
	v-61.216l83.699,76.09c9.445,8.578,24.929,14.046,38.498,14.046c2.5,0,4.938-0.187,7.257-0.578l85.996-14.327
	c10.46-1.734,28.124-1.734,38.576,0.016l85.824,14.312c14.905,2.484,34.576-3.312,45.763-13.468l83.684-76.09v61.216
	C490.632,319.984,485.616,331.218,475.695,342.733z"/>
<path d="M256.073,244.644c70.504,0,127.658-23.718,127.658-52.997c0-29.249-57.154-52.998-127.658-52.998
	c-70.497,0-127.65,23.749-127.65,52.998C128.423,220.926,185.576,244.644,256.073,244.644z M338.171,209.427
	c-21.28,8.827-51.186,13.89-82.098,13.89c-30.897,0-60.817-5.063-82.082-13.89c-1.781-0.75-3.429-1.469-4.976-2.203
	c1.421-0.672,2.929-1.328,4.546-2.016c21.265-8.813,51.185-13.891,82.082-13.891c30.905,0,60.81,5.078,82.09,13.891
	c1.781,0.75,3.438,1.484,4.969,2.219C341.295,208.084,339.78,208.756,338.171,209.427z M173.991,173.882
	c21.265-8.827,51.185-13.89,82.082-13.89c30.912,0,60.817,5.063,82.098,13.89c19.905,8.266,24.218,16.234,24.218,17.766
	c0,0.344-0.188,0.969-0.719,1.843c-22.905-14.171-61.841-23.498-106.026-23.498c-43.779,0-82.395,9.155-105.394,23.092
	c-0.351-0.655-0.492-1.155-0.492-1.437C149.758,190.116,154.07,182.147,173.991,173.882z"/>
<path d="M80.121,211.989v-0.016c4.054,2.266,9.273,1.673,12.718-1.765c4.164-4.172,4.164-10.938,0-15.093
	c-0.719-0.719-1.516-1.313-2.368-1.782h0.008c-6.507-3.624-7.445-7.78-7.578-10.593c-0.195-4,1.375-7.469,1.391-7.499l-0.055,0.124
	l-0.008-0.016c1.953-3.984,1.289-8.921-2.023-12.233c-4.164-4.156-10.921-4.156-15.085,0c-0.852,0.844-1.523,1.813-2.031,2.844l0,0
	c-0.375,0.75-3.632,7.655-3.539,16.499C61.692,194.928,68.285,205.396,80.121,211.989z"/>
<path d="M364.169,271.846v0.016c-2.453,4.094-1.938,9.468,1.594,12.999c4.172,4.156,10.938,4.156,15.094,0
	c0.641-0.625,1.156-1.344,1.594-2.063h0.031c10.312-17.249,20.015-16.437,20.764-16.343c3.359,0.656,7-0.313,9.609-2.938
	c4.156-4.156,4.156-10.906,0-15.077c-1.453-1.453-3.219-2.391-5.078-2.828l0,0c-0.094-0.031-0.234-0.063-0.391-0.094
	c-0.031,0-0.047,0-0.063,0c-1.938-0.391-8.03-1.219-15.905,1.594C380.919,250.832,371.747,259.143,364.169,271.846z M403.23,266.456
	c-0.25-0.047-0.376-0.094-0.376-0.094l0,0C402.98,266.393,403.104,266.425,403.23,266.456z"/>
<path d="M416.01,171.366c0,0.063,0,0.173,0.016,0.281c0,0.032,0.016,0.048,0.016,0.063c0.188,1.921,1.219,8.374,6.938,15.062
	c7.265,8.468,18.812,13.78,34.295,15.796v-0.016c3.172,0.406,6.484-0.594,8.922-3.031c4.155-4.155,4.155-10.905,0-15.062
	c-1.751-1.75-3.922-2.75-6.188-3.031v-0.016c-20.812-2.703-22.701-11.608-22.78-11.983c0.063,0.344,0.063,0.531,0.063,0.531h-0.016
	c-0.156-2.5-1.172-4.938-3.078-6.844c-4.172-4.156-10.938-4.156-15.093,0C416.839,165.367,415.823,168.398,416.01,171.366
	L416.01,171.366z"/>
<path d="M295.516,124.869c4.188-4.156,4.188-10.921,0-15.093c-4.156-4.156-10.905-4.156-15.062,0
	c-4.188,4.172-4.188,10.937,0,15.093C284.611,129.025,291.36,129.025,295.516,124.869z"/>
<path d="M301.766,280.439c-4.156,4.172-4.156,10.922,0,15.078c4.171,4.172,10.937,4.172,15.093,0c4.156-4.156,4.156-10.906,0-15.078
	C312.703,276.268,305.937,276.268,301.766,280.439z"/>
<path d="M216.45,269.784c-4.172,4.172-4.172,10.921,0,15.077c4.164,4.172,10.914,4.172,15.077,0c4.172-4.156,4.172-10.905,0-15.077
	C227.363,265.612,220.614,265.612,216.45,269.784z"/>
<path d="M106.729,257.206c0.18,1.547,1.477,9.594,9.531,17.203c9.539,9.015,24.249,13.577,43.732,13.577l0,0
	c2.734,0,5.461-1.031,7.547-3.125c4.164-4.156,4.164-10.905,0-15.077c-2.086-2.078-4.813-3.125-7.547-3.125l0,0
	c-23.256,0-31.193-8.093-32.139-12.375c0.063,0.297,0.071,0.484,0.071,0.484h-0.008c-0.266-2.312-1.273-4.562-3.047-6.312
	c-4.164-4.188-10.921-4.188-15.085,0c-2.391,2.375-3.406,5.624-3.047,8.749h-0.008V257.206z"/>
<g>
</g>
<g>
</g>
<g>
</g>
<g>
</g>
<g>
</g>
<g>
</g>
<g>
</g>
<g>
</g>
<g>
</g>
<g>
</g>
<g>
</g>
<g>
</g>
<g>
</g>
<g>
</g>
<g>
</g>
</svg>
