<?xml version="1.0" encoding="iso-8859-1"?>
<!-- Generator: Adobe Illustrator 19.0.0, SVG Export Plug-In . SVG Version: 6.00 Build 0)  -->
<svg version="1.1" id="Layer_1" xmlns="http://www.w3.org/2000/svg" xmlns:xlink="http://www.w3.org/1999/xlink" x="0px" y="0px"
	 viewBox="0 0 480 480" style="enable-background:new 0 0 480 480;" xml:space="preserve">
<path style="fill:#FEF0D8;" d="M360.402,120l-30.64,337.44c-0.8,8.24-7.68,14.56-16,14.56h-146.72c-8.32,0-15.2-6.32-16-14.56
	L120.402,120H360.402z"/>
<path style="fill:#FEF6E8;" d="M175.042,457.44L144.402,120h-24l30.64,337.44c0.8,8.24,7.68,14.56,16,14.56h24
	C182.722,472,175.842,465.68,175.042,457.44z"/>
<path style="fill:#BD852D;" d="M352.402,192l-16,176h-57.36c-3.84,18.24-20,32-39.36,32c-19.44,0-35.6-13.76-39.44-32h-55.84
	l-16-176h71.76c3.6-18.48,19.92-32.48,39.52-32.48c19.52,0,35.84,14,39.44,32.48H352.402z"/>
<polygon style="fill:#D7B681;" points="128.402,192 144.402,368 168.402,368 152.402,192 "/>
<path style="fill:#BD852D;" d="M389.522,98.32l8.24,21.68H82.242l8.16-21.68c2.4-6.24,8.32-10.32,14.96-10.32h269.2
	C381.202,88,387.122,92.08,389.522,98.32z"/>
<path style="fill:#D7B681;" d="M143.522,88h-38.16c-6.64,0-12.56,4.08-14.96,10.32L82.242,120h38.16l8.16-21.68
	C130.962,92.08,136.882,88,143.522,88z"/>
<path style="fill:#FCB23C;" d="M352.642,59.36l8.72,28.64h-242.72l8.64-28.64c2.08-6.72,8.32-11.36,15.36-11.36h194.72
	C344.402,48,350.562,52.64,352.642,59.36z"/>
<path style="fill:#FDD18A;" d="M168.402,48h-25.76c-7.04,0-13.28,4.64-15.36,11.36L118.642,88h25.76l8.64-28.64
	C155.122,52.64,161.362,48,168.402,48z"/>
<polygon style="fill:#FCB23C;" points="320.402,8 320.402,48 248.402,48 248.402,16.64 "/>
<rect x="248.402" y="16" style="fill:#FDD18A;" width="24" height="32"/>
<circle style="fill:#FCB23C;" cx="240.402" cy="280" r="72"/>
<circle style="fill:#FEF0D8;" cx="240.402" cy="280" r="24"/>
<g>
	<path style="fill:#132C47;" d="M405.234,117.16l-8.248-21.712C393.378,86.064,384.57,80,374.562,80h-7.272l-7.008-23
		c-3.144-10.168-12.352-17-22.92-17h-8.96V8c0-2.288-0.984-4.464-2.688-5.984c-1.712-1.512-4-2.232-6.264-1.96l-72,8.64
		c-4.024,0.48-7.048,3.896-7.048,7.944V40h-97.76c-10.608,0-19.848,6.832-23.016,17.048L112.698,80h-7.336
		c-10.016,0-18.824,6.064-22.448,15.504l-8.16,21.68c-0.928,2.456-0.584,5.208,0.912,7.368c1.488,2.16,3.952,3.448,6.576,3.448
		h30.856l29.984,330.216C144.29,470.632,154.586,480,167.042,480h146.72c12.456,0,22.752-9.368,23.968-21.832L367.714,128h30.048
		c2.632,0,5.096-1.296,6.584-3.456S406.178,119.616,405.234,117.16z M256.402,23.736l56-6.72V40h-56V23.736z M134.922,61.728
		c1.048-3.376,4.216-5.728,7.72-5.728h105.76h72h16.96c3.504,0,6.576,2.304,7.624,5.688L350.562,80H129.41L134.922,61.728z
		 M313.762,464h-146.72c-4.176,0-7.632-3.152-8.032-7.28L151.682,376h42.536c6.8,18.88,24.984,32,45.464,32
		c20.44,0,38.592-13.12,45.384-32h44.056l-7.328,80.664C321.394,460.848,317.938,464,313.762,464z M137.162,200h63
		c3.832,0,7.12-2.712,7.848-6.472c2.936-15.072,16.256-26.008,31.664-26.008c15.368,0,28.656,10.936,31.584,26.008
		c0.744,3.76,4.032,6.472,7.864,6.472h64.52l-14.544,160h-50.056c-3.784,0-7.048,2.648-7.832,6.352
		C268.082,381.216,254.826,392,239.682,392c-15.184,0-28.488-10.784-31.616-25.648c-0.776-3.704-4.04-6.352-7.824-6.352h-48.536
		L137.162,200z M346.562,184h-61.32c-6.6-19.168-24.808-32.48-45.552-32.48c-20.784,0-39.024,13.32-45.64,32.48h-59.808l-5.088-56
		h222.488L346.562,184z M360.402,112h-240h-26.6l4.072-10.808c1.208-3.16,4.152-5.192,7.488-5.192h13.28h242.72h13.2
		c3.336,0,6.28,2.04,7.488,5.16l4.112,10.84H360.402z"/>
	<path style="fill:#132C47;" d="M320.402,280c0-44.112-35.888-80-80-80s-80,35.888-80,80s35.888,80,80,80
		S320.402,324.112,320.402,280z M176.402,280c0-35.288,28.712-64,64-64s64,28.712,64,64s-28.712,64-64,64
		S176.402,315.288,176.402,280z"/>
	<path style="fill:#132C47;" d="M248.402,320v-9.136c11.192-2.912,19.952-11.672,22.864-22.864h9.136c4.416,0,8-3.584,8-8
		s-3.584-8-8-8h-9.136c-2.912-11.192-11.672-19.952-22.864-22.864V240c0-4.416-3.584-8-8-8s-8,3.584-8,8v9.136
		c-11.192,2.912-19.952,11.672-22.864,22.864h-9.136c-4.416,0-8,3.584-8,8s3.584,8,8,8h9.136
		c2.912,11.192,11.672,19.952,22.864,22.864V320c0,4.416,3.584,8,8,8C244.818,328,248.402,324.416,248.402,320z M224.402,280
		c0-8.824,7.176-16,16-16s16,7.176,16,16s-7.176,16-16,16S224.402,288.824,224.402,280z"/>
</g>
<g>
</g>
<g>
</g>
<g>
</g>
<g>
</g>
<g>
</g>
<g>
</g>
<g>
</g>
<g>
</g>
<g>
</g>
<g>
</g>
<g>
</g>
<g>
</g>
<g>
</g>
<g>
</g>
<g>
</g>
</svg>
