<?xml version="1.0" encoding="iso-8859-1"?>
<!-- Generator: Adobe Illustrator 19.0.0, SVG Export Plug-In . SVG Version: 6.00 Build 0)  -->
<svg version="1.1" id="Layer_1" xmlns="http://www.w3.org/2000/svg" xmlns:xlink="http://www.w3.org/1999/xlink" x="0px" y="0px"
	 viewBox="0 0 428.057 428.057" style="enable-background:new 0 0 428.057 428.057;" xml:space="preserve">
<g>
	<polyline style="fill:#B3F0F2;" points="296.804,217.858 294.914,232.758 292.204,254.199 289.364,253.838 138.694,253.838 
		135.863,254.199 133.144,232.758 131.254,217.858 296.804,217.858 	"/>
	<polyline style="fill:#B3F0F2;" points="292.204,254.199 270.173,428.057 157.894,428.057 135.863,254.199 138.694,253.838 
		289.364,253.838 292.204,254.199 	"/>
	<polyline style="fill:#F75959;" points="169.35,415.058 150.569,266.838 277.498,266.838 258.718,415.058 169.35,415.058 	"/>
	<polyline style="fill:#B3F0F2;" points="306.764,175.109 313.844,217.858 296.804,217.858 131.254,217.858 114.213,217.858 
		121.304,175.109 134.974,175.109 293.084,175.109 306.764,175.109 	"/>
	<path style="fill:#B3F0F2;" d="M293.081,175.109h-158.11c0-8.25,1.261-16.21,3.61-23.69c9.251-29.48,35.31-51.531,66.951-54.9
		c2.79-0.31,5.63-0.46,8.5-0.46c2.871,0,5.711,0.15,8.5,0.46c31.641,3.37,57.691,25.42,66.94,54.9
		C291.822,158.898,293.081,166.859,293.081,175.109"/>
	<path style="fill:#A8DDDE;" d="M205.533,96.518c-31.64,3.37-57.7,25.42-66.95,54.9c-2.35,7.48-3.61,15.44-3.61,23.69h26
		c0-8.25,1.26-16.21,3.61-23.69c6.552-20.875,21.527-38.023,40.948-47.449v-7.452"/>
	<path style="fill:#FFFFFF;" d="M278.653,129.565c4.666,6.609,8.344,13.965,10.819,21.853c2.35,7.48,3.61,15.44,3.61,23.69h0.002
		c0-8.25-1.26-16.21-3.61-23.69C286.999,143.53,283.32,136.174,278.653,129.565"/>
	<path style="fill:#DCF8F9;" d="M222.531,96.518v7.454c19.419,9.426,34.391,26.572,40.942,47.446c2.35,7.48,3.61,15.44,3.61,23.69
		h25.998c0-8.25-1.26-16.21-3.61-23.69c-2.475-7.888-6.153-15.244-10.819-21.853C265.879,111.477,245.702,98.988,222.531,96.518"/>
	<path style="fill:#FFDE55;" d="M222.531,408.223h-16.999V42.203l79.291-41.242c4.165-2.167,9.297-0.547,11.464,3.619
		c2.166,4.165,0.545,9.297-3.619,11.462l-70.136,36.48L222.531,408.223"/>
	<path style="fill:#FFF0B1;" d="M214.032,96.058c-2.869,0-5.709,0.15-8.5,0.46v121.34h16.999v-42.75v-78.59
		C219.742,96.208,216.902,96.058,214.032,96.058"/>
	<polyline style="fill:#FFF0B1;" points="222.531,232.758 205.532,232.758 205.532,266.838 222.531,266.838 222.531,253.838 
		222.531,232.758 	"/>
	<rect x="205.534" y="266.838" style="fill:#DD4545;" width="17" height="141.39"/>
	<polyline style="fill:#A8DDDE;" points="296.804,217.858 222.531,217.858 222.531,232.758 294.914,232.758 296.804,217.858 	"/>
	<polyline style="fill:#A8DDDE;" points="205.532,217.858 131.254,217.858 133.144,232.758 171.45,232.758 205.532,232.758 
		205.532,217.858 	"/>
	<polyline style="fill:#E9DDA6;" points="222.531,217.858 205.532,217.858 205.532,232.758 222.531,232.758 222.531,217.858 	"/>
	<polyline style="fill:#E9E9E9;" points="133.144,232.758 157.894,428.057 135.863,254.199 133.144,232.758 	"/>
	<polyline style="fill:#A8DDDE;" points="171.45,232.758 133.144,232.758 135.863,254.199 138.694,253.838 172.907,253.838 
		171.45,232.758 	"/>
	<polyline style="fill:#A8DDDE;" points="172.907,253.838 138.694,253.838 135.863,254.199 157.894,428.057 184.949,428.057 
		184.051,415.058 169.35,415.058 150.569,266.838 173.806,266.838 172.907,253.838 	"/>
	<polyline style="fill:#E35B5B;" points="173.806,266.838 150.569,266.838 169.35,415.058 184.051,415.058 173.806,266.838 	"/>
	<polyline style="fill:#A8DDDE;" points="183.471,175.109 134.974,175.109 121.304,175.109 114.213,217.858 180.138,217.858 
		183.471,175.109 	"/>
	<polyline style="fill:#A8DDDE;" points="183.471,175.109 160.974,175.109 160.974,175.109 134.974,175.109 134.974,175.109 
		134.971,175.109 134.971,175.109 183.471,175.109 	"/>
</g>
<g>
</g>
<g>
</g>
<g>
</g>
<g>
</g>
<g>
</g>
<g>
</g>
<g>
</g>
<g>
</g>
<g>
</g>
<g>
</g>
<g>
</g>
<g>
</g>
<g>
</g>
<g>
</g>
<g>
</g>
</svg>
