<?xml version="1.0" encoding="iso-8859-1"?>
<!-- Generator: Adobe Illustrator 19.0.0, SVG Export Plug-In . SVG Version: 6.00 Build 0)  -->
<svg version="1.1" id="Layer_1" xmlns="http://www.w3.org/2000/svg" xmlns:xlink="http://www.w3.org/1999/xlink" x="0px" y="0px"
	 viewBox="0 0 512 512" style="enable-background:new 0 0 512 512;" xml:space="preserve">
<path style="fill:#2FCCC4;" d="M404.574,147.973l-2.33,30.308l-24.136,314.172C377.261,503.483,368.064,512,357.002,512H155.01
	c-11.062,0-20.259-8.517-21.106-19.547l-24.136-314.172l-2.33-30.308H404.574z"/>
<g>
	<path style="fill:#1DB2A7;" d="M107.438,147.973l26.465,344.48C134.751,503.483,143.948,512,155.01,512h51.704l-27.966-364.027
		L107.438,147.973L107.438,147.973z"/>
	<polygon style="fill:#1DB2A7;" points="404.574,147.973 402.244,178.281 109.768,178.281 107.438,147.973 	"/>
</g>
<rect x="236.995" style="fill:#9CBCDB;" width="38.033" height="102.215"/>
<rect x="236.995" style="fill:#3D85B7;" width="15.451" height="102.215"/>
<polygon style="fill:#FCD559;" points="417.612,99.243 430.531,151.539 404.574,151.539 107.438,151.539 81.469,151.539 
	94.4,99.243 236.989,99.243 275.023,99.243 "/>
<polygon style="fill:#E2B844;" points="94.4,99.243 81.469,151.539 107.438,151.539 167.039,151.539 179.971,99.243 "/>
<g>
</g>
<g>
</g>
<g>
</g>
<g>
</g>
<g>
</g>
<g>
</g>
<g>
</g>
<g>
</g>
<g>
</g>
<g>
</g>
<g>
</g>
<g>
</g>
<g>
</g>
<g>
</g>
<g>
</g>
</svg>
