<?xml version="1.0" encoding="iso-8859-1"?>
<!-- Generator: Adobe Illustrator 19.0.0, SVG Export Plug-In . SVG Version: 6.00 Build 0)  -->
<svg version="1.1" id="Layer_1" xmlns="http://www.w3.org/2000/svg" xmlns:xlink="http://www.w3.org/1999/xlink" x="0px" y="0px"
	 viewBox="0 0 511.979 511.979" style="enable-background:new 0 0 511.979 511.979;" xml:space="preserve">
<path style="fill:#434A54;" d="M285.837,4.245c-3.547-4.703-10.233-5.641-14.937-2.094c-2.344,1.766-3.766,4.328-4.141,7.031l0,0
	L228.01,284.438l21.124,2.969l38.75-275.255C288.259,9.448,287.618,6.605,285.837,4.245z"/>
<polygon style="fill:#ED5564;" points="362.553,511.979 149.232,511.979 106.748,147.991 405.224,147.991 "/>
<g>
	<path style="fill:#DA4453;" d="M184.449,504.432c-2.093,2.094-3.125,4.812-3.125,7.547h21.327c0-2.734-1.031-5.453-3.125-7.547
		C195.371,500.277,188.605,500.277,184.449,504.432z"/>
	<path style="fill:#DA4453;" d="M227.104,504.432c-2.078,2.094-3.109,4.812-3.109,7.547h21.328c0-2.734-1.047-5.453-3.125-7.547
		C238.026,500.277,231.276,500.277,227.104,504.432z"/>
	<path style="fill:#DA4453;" d="M269.775,504.432c-2.078,2.094-3.125,4.812-3.125,7.547h21.327c0-2.734-1.031-5.453-3.109-7.547
		C280.696,500.277,273.947,500.277,269.775,504.432z"/>
	<path style="fill:#DA4453;" d="M312.445,504.432c-2.094,2.094-3.125,4.812-3.125,7.547h21.328c0-2.734-1.031-5.453-3.125-7.547
		C323.367,500.277,316.601,500.277,312.445,504.432z"/>
</g>
<polygon style="fill:#FFCE54;" points="376.303,394.655 391.303,266.659 120.592,266.659 135.529,394.655 "/>
<g>
	<path style="fill:#434A54;" d="M327.523,301.783c-2.078-2.078-4.812-3.125-7.531-3.125l0,0H191.98l0,0
		c-2.719,0-5.453,1.047-7.531,3.125c-4.171,4.156-4.171,10.922,0,15.077c2.078,2.094,4.812,3.125,7.547,3.125h127.98
		c2.734,0,5.469-1.031,7.547-3.125C331.695,312.705,331.695,305.939,327.523,301.783z"/>
	<path style="fill:#434A54;" d="M293.306,341.312h-74.639c-2.734,0-5.468,1.047-7.562,3.125c-4.156,4.172-4.156,10.922,0,15.094
		c2.094,2.078,4.812,3.125,7.546,3.125l0,0h74.67l0,0c2.733,0,5.452-1.047,7.546-3.125c4.156-4.172,4.156-10.922,0-15.094
		C298.773,342.359,296.039,341.312,293.306,341.312z"/>
</g>
<rect x="95.994" y="127.99" style="fill:#E6E9ED;" width="319.99" height="63.998"/>
<g>
	<path style="fill:#F5F7FA;" d="M120.451,135.538c4.156,4.156,10.922,4.156,15.078,0c2.093-2.078,3.125-4.812,3.125-7.547h-21.327
		C117.327,130.726,118.358,133.46,120.451,135.538z"/>
	<path style="fill:#F5F7FA;" d="M163.106,135.538c4.172,4.156,10.921,4.156,15.093,0c2.078-2.078,3.125-4.812,3.125-7.547h-21.328
		C159.997,130.726,161.028,133.46,163.106,135.538z"/>
	<path style="fill:#F5F7FA;" d="M205.777,135.538c4.172,4.156,10.921,4.156,15.093,0c2.078-2.078,3.109-4.812,3.109-7.547h-21.328
		C202.652,130.726,203.699,133.46,205.777,135.538z"/>
	<path style="fill:#F5F7FA;" d="M248.447,135.538c4.156,4.156,10.922,4.156,15.078,0c2.094-2.078,3.125-4.812,3.125-7.547h-21.328
		C245.323,130.726,246.354,133.46,248.447,135.538z"/>
	<path style="fill:#F5F7FA;" d="M291.102,135.538c4.172,4.156,10.921,4.156,15.093,0c2.078-2.078,3.125-4.812,3.125-7.547h-21.327
		C287.993,130.726,289.024,133.46,291.102,135.538z"/>
	<path style="fill:#F5F7FA;" d="M333.773,135.538c4.172,4.156,10.921,4.156,15.093,0c2.078-2.078,3.109-4.812,3.109-7.547h-21.327
		C330.648,130.726,331.695,133.46,333.773,135.538z"/>
	<path style="fill:#F5F7FA;" d="M373.318,127.991c0,2.734,1.031,5.469,3.125,7.547c4.156,4.156,10.922,4.156,15.078,0
		c2.094-2.078,3.125-4.812,3.125-7.547H373.318z"/>
</g>
<g>
</g>
<g>
</g>
<g>
</g>
<g>
</g>
<g>
</g>
<g>
</g>
<g>
</g>
<g>
</g>
<g>
</g>
<g>
</g>
<g>
</g>
<g>
</g>
<g>
</g>
<g>
</g>
<g>
</g>
</svg>
