<?xml version="1.0" encoding="iso-8859-1"?>
<!-- Generator: Adobe Illustrator 19.0.0, SVG Export Plug-In . SVG Version: 6.00 Build 0)  -->
<svg version="1.1" id="Layer_1" xmlns="http://www.w3.org/2000/svg" xmlns:xlink="http://www.w3.org/1999/xlink" x="0px" y="0px"
	 viewBox="0 0 501.551 501.551" style="enable-background:new 0 0 501.551 501.551;" xml:space="preserve">
<rect x="98.22" y="99.265" style="fill:#FF7058;" width="305.11" height="350.041"/>
<path style="fill:#F2F2F2;" d="M375.118,0H126.433c-6.269,0-11.494,5.224-11.494,11.494s5.224,11.494,11.494,11.494h248.686
	c6.269,0,11.494-5.224,11.494-11.494S381.388,0,375.118,0z"/>
<polygon style="fill:#E2E2E2;" points="375.118,39.706 367.804,24.033 133.747,24.033 126.433,39.706 98.22,99.265 403.331,99.265 
	"/>
<path style="fill:#CDD6E0;" d="M375.118,39.706L375.118,39.706H126.433l0,0l7.314-15.673h234.057L375.118,39.706z"/>
<g>
	<path style="fill:#FFFFFF;" d="M403.331,117.029v26.122C293.616,185.992,204.8,291.527,98.22,344.816v-27.167
		C203.755,261.224,292.571,156.735,403.331,117.029z"/>
	<path style="fill:#FFFFFF;" d="M403.331,159.869v27.167C295.706,236.147,206.89,341.682,98.22,388.702v-27.167
		C205.845,312.424,294.661,206.89,403.331,159.869z"/>
	<path style="fill:#FFFFFF;" d="M403.331,204.8v27.167c-105.535,55.38-194.351,159.869-305.11,200.62v-26.122
		C207.935,362.58,296.751,257.045,403.331,204.8z"/>
</g>
<polygon style="fill:#E2E2E2;" points="98.22,449.306 119.118,501.551 382.433,501.551 403.331,449.306 "/>
<g>
</g>
<g>
</g>
<g>
</g>
<g>
</g>
<g>
</g>
<g>
</g>
<g>
</g>
<g>
</g>
<g>
</g>
<g>
</g>
<g>
</g>
<g>
</g>
<g>
</g>
<g>
</g>
<g>
</g>
</svg>
