<?xml version="1.0" encoding="utf-8"?>
<!-- Generator: Adobe Illustrator 16.0.0, SVG Export Plug-In . SVG Version: 6.00 Build 0)  -->
<!DOCTYPE svg PUBLIC "-//W3C//DTD SVG 1.1//EN" "http://www.w3.org/Graphics/SVG/1.1/DTD/svg11.dtd">
<svg xmlns="http://www.w3.org/2000/svg" xmlns:xlink="http://www.w3.org/1999/xlink" version="1.1" id="Layer_1" x="0px" y="0px" width="512" height="512" viewBox="0 0 512 512" enable-background="new 0 0 512 512" xml:space="preserve">
<g id="french_fries">
	<g>
		<polygon fill="#F5BA45" points="348.67,371.842 285.593,360.982 345.889,10.817 405.341,42.691   "/>
	</g>
	<g>
		<polygon fill="#F5BA45" points="254.859,393.825 192.095,381.357 261.297,32.832 319.921,66.222   "/>
	</g>
	<g>
		<polygon fill="#FECD57" points="256,382.795 319.608,389.904 359.014,36.77 293.046,50.863   "/>
	</g>
	<g>
		<polygon fill="#FECD57" points="199.438,381.092 136.799,394.216 64.004,46.41 131.018,54.191   "/>
	</g>
	<g>
		<polygon fill="#F5BA45" points="187.236,426.668 249.812,413.216 175.126,65.816 117.049,100.128   "/>
	</g>
	<g>
		<polygon fill="#FECD57" points="276.483,345.451 212.923,352.904 171.517,0.005 237.563,13.731   "/>
	</g>
	<g>
		<polygon fill="#FECD57" points="313.296,414.325 376.294,425.574 438.716,75.769 371.966,85.534   "/>
	</g>
	<g>
		<path fill="#EC5564" d="M405.341,511.995c0,0-72.201-10.672-149.341-10.672c-77.139,0-149.325,10.672-149.325,10.672    L64.004,149.33h74.67c0,0,29.749,85.326,117.326,85.326c87.593,0,117.341-85.326,117.341-85.326h74.655L405.341,511.995z"/>
	</g>
	<polygon fill="#F5BA45" points="429.185,309.327 82.832,309.327 95.378,415.997 416.622,415.997  "/>
	<g>
		<path fill="#FECD57" d="M351.998,363.576c0,53.014-42.983,95.998-95.998,95.998s-95.998-42.984-95.998-95.998    c0-53.015,42.983-95.998,95.998-95.998S351.998,310.562,351.998,363.576z"/>
	</g>
	<g>
		<path fill="#424953" d="M298.671,351.998c0-5.891-4.781-10.672-10.672-10.672l0,0H224l0,0l0,0    c-5.891,0-10.656,4.781-10.656,10.672s4.765,10.656,10.656,10.656l0,0l0,0h63.999l0,0    C293.89,362.654,298.671,357.889,298.671,351.998z"/>
		<path fill="#424953" d="M277.343,373.326L277.343,373.326h-42.67l0,0l0,0c-5.891,0-10.672,4.781-10.672,10.672    s4.781,10.655,10.672,10.655l0,0l0,0h42.67l0,0c5.891,0,10.656-4.765,10.656-10.655S283.233,373.326,277.343,373.326z"/>
	</g>
	<g opacity="0.2">
		<g>
			<path fill="#FFFFFF" d="M426.669,149.33l-42.344,359.962c13.203,1.547,21.016,2.703,21.016,2.703l42.655-362.665H426.669z"/>
		</g>
		<g>
			<path fill="#FFFFFF" d="M234.672,501.323c-51.78,0-101.342,4.812-128.31,7.969l0.312,2.703c0,0,65.67-9.703,138.669-10.609     C241.797,501.354,238.235,501.323,234.672,501.323z"/>
		</g>
	</g>
</g>
</svg>
