<?xml version="1.0" encoding="iso-8859-1"?>
<!-- Generator: Adobe Illustrator 19.0.0, SVG Export Plug-In . SVG Version: 6.00 Build 0)  -->
<svg version="1.1" id="Layer_1" xmlns="http://www.w3.org/2000/svg" xmlns:xlink="http://www.w3.org/1999/xlink" x="0px" y="0px"
	 viewBox="0 0 352.592 352.592" style="enable-background:new 0 0 352.592 352.592;" xml:space="preserve">
<g id="XMLID_1093_">
	<g id="XMLID_1094_">
		<rect id="XMLID_587_" x="139.058" y="20.742" style="fill:#FFE165;" width="37.238" height="206.935"/>
		<rect id="XMLID_586_" x="176.297" style="fill:#FFA250;" width="37.238" height="206.935"/>
		<rect id="XMLID_585_" x="250.773" y="51.855" style="fill:#FFA250;" width="37.238" height="206.935"/>
		<rect id="XMLID_584_" x="101.82" y="72.597" style="fill:#FFA250;" width="37.238" height="206.935"/>
		<rect id="XMLID_583_" x="213.535" y="72.597" style="fill:#FFE165;" width="37.238" height="206.935"/>
		<rect id="XMLID_582_" x="64.581" y="51.855" style="fill:#FFE165;" width="37.238" height="206.935"/>
	</g>
	<path id="XMLID_1095_" style="fill:#FF5959;" d="M240.73,145.184c-10.644,26.496-35.265,45.057-63.948,45.057
		s-53.304-18.561-63.948-45.057h-40.24c-13.453,0-23.756,12.791-21.76,27.014l22.501,160.359
		c1.616,11.516,10.869,20.035,21.76,20.035h162.404c10.892,0,20.145-8.519,21.76-20.035l22.5-160.359
		c1.996-14.223-8.308-27.014-21.76-27.014L240.73,145.184L240.73,145.184z"/>
	<rect id="XMLID_579_" x="114.334" y="226.349" style="fill:#FFFEB9;" width="123.926" height="64.882"/>
</g>
<g>
</g>
<g>
</g>
<g>
</g>
<g>
</g>
<g>
</g>
<g>
</g>
<g>
</g>
<g>
</g>
<g>
</g>
<g>
</g>
<g>
</g>
<g>
</g>
<g>
</g>
<g>
</g>
<g>
</g>
</svg>
