<?xml version="1.0" encoding="iso-8859-1"?>
<!-- Generator: Adobe Illustrator 19.0.0, SVG Export Plug-In . SVG Version: 6.00 Build 0)  -->
<svg version="1.1" id="Layer_1" xmlns="http://www.w3.org/2000/svg" xmlns:xlink="http://www.w3.org/1999/xlink" x="0px" y="0px"
	 viewBox="0 0 501.551 501.551" style="enable-background:new 0 0 501.551 501.551;" xml:space="preserve">
<path style="fill:#E2E2E2;" d="M60.604,178.678c10.449-2.09,21.943,3.135,25.078,12.539c13.584,40.751,74.188,72.098,155.69,72.098
	s142.106-30.302,155.69-72.098c3.135-10.449,14.629-15.673,25.078-12.539l20.898,5.224c-10.449-21.943-29.257-41.796-56.424-58.514
	l-106.58-65.829c-20.898-12.539-56.424-12.539-77.322,0l-106.58,65.829c-28.212,16.718-47.02,36.571-57.469,58.514L60.604,178.678z"
	/>
<g>
	<path style="fill:#F8B64C;" d="M159.869,251.82c-3.135-1.045-7.314-2.09-10.449-3.135c-3.135-1.045-5.224-2.09-8.359-3.135
		c-28.212-12.539-48.065-30.302-55.38-50.155v5.224l-7.314-26.122L50.155,79.412l53.29-15.673l4.18,15.673l33.437,111.804
		l8.359,27.167L159.869,251.82z"/>
	<path style="fill:#F8B64C;" d="M251.82,247.641l-38.661,11.494l-7.314,2.09l0,0l-6.269,2.09l-1.045-3.135L150.465,99.265
		l-25.078-83.592L178.678,0l16.718,54.335l11.494,37.616l8.359,26.122L251.82,247.641z"/>
	<path style="fill:#F8B64C;" d="M351.086,8.359l-10.449,71.053v1.045l-8.359,54.335l-17.763,120.163
		c-8.359,2.09-17.763,4.18-27.167,6.269l-10.449-1.045l-8.359-1.045l-10.449-1.045l10.449-71.053l8.359-56.424l11.494-76.278
		L296.751,0L351.086,8.359z"/>
	<path style="fill:#F8B64C;" d="M463.935,79.412l-30.302,102.4l-33.437-8.359c0,7.314-1.045,13.584-4.18,20.898
		c-6.269,15.673-18.808,29.257-36.571,40.751l36.571-121.208l14.629-50.155L463.935,79.412z"/>
</g>
<g>
	<path style="fill:#FFD15C;" d="M332.278,54.335v194.351c-5.224,2.09-11.494,4.18-17.763,6.269
		c-8.359,2.09-17.763,4.18-27.167,6.269c-3.135,1.045-7.314,1.045-10.449,2.09V54.335H332.278z"/>
	<path style="fill:#FFD15C;" d="M268.539,31.347v230.922c-9.404,1.045-17.763,1.045-28.212,1.045c-9.404,0-18.808,0-28.212-1.045
		V31.347H268.539z"/>
	<path style="fill:#FFD15C;" d="M396.016,79.412v114.939c-6.269,15.673-18.808,29.257-36.571,40.751
		c-6.269,3.135-12.539,7.314-19.853,10.449V79.412H396.016z"/>
	<path style="fill:#FFD15C;" d="M205.845,54.335v206.89l-6.269,2.09l-1.045-3.135c-13.584-2.09-26.122-5.224-37.616-8.359
		c-3.135-1.045-7.314-2.09-10.449-3.135V54.335H205.845z"/>
	<path style="fill:#FFD15C;" d="M142.106,79.412v166.139c-28.212-12.539-48.065-30.302-55.38-50.155V80.457h55.38V79.412z"/>
</g>
<path style="fill:#F2F2F2;" d="M400.196,173.453c0,50.155-64.784,89.861-158.824,89.861S82.547,223.608,82.547,173.453
	l-44.931,10.449l30.302,297.796c1.045,11.494,10.449,19.853,21.943,19.853h304.065c11.494,0,20.898-8.359,21.943-19.853
	l30.302-297.796L400.196,173.453z"/>
<g>
	<path style="fill:#CDD6E0;" d="M82.547,173.453c0,7.314,1.045,13.584,4.18,20.898v5.225l-8.359-25.078L82.547,173.453z"/>
	<path style="fill:#CDD6E0;" d="M205.845,261.224l-6.269,2.09l-1.045-3.135C200.62,261.224,202.71,261.224,205.845,261.224z"/>
</g>
<ellipse style="fill:#FF7058;" cx="241.371" cy="386.612" rx="103.445" ry="57.469"/>
<g>
</g>
<g>
</g>
<g>
</g>
<g>
</g>
<g>
</g>
<g>
</g>
<g>
</g>
<g>
</g>
<g>
</g>
<g>
</g>
<g>
</g>
<g>
</g>
<g>
</g>
<g>
</g>
<g>
</g>
</svg>
