<?xml version="1.0" encoding="iso-8859-1"?>
<!-- Generator: Adobe Illustrator 19.0.0, SVG Export Plug-In . SVG Version: 6.00 Build 0)  -->
<svg version="1.1" id="Layer_1" xmlns="http://www.w3.org/2000/svg" xmlns:xlink="http://www.w3.org/1999/xlink" x="0px" y="0px"
	 viewBox="0 0 512 512" style="enable-background:new 0 0 512 512;" xml:space="preserve">
<path style="fill:#FFB42B;" d="M511.096,68.603C358.469-19.63,164.42-26.069,0.904,68.664L255.983,512L511.096,68.603z"/>
<g>
	<path style="fill:#FF7C18;" d="M256.005,0.017v511.944L511.096,68.603C433.604,23.805,345.433,0.109,256.005,0.017z"/>
	<path style="fill:#FF7C18;" d="M511.096,68.603C358.469-19.631,164.42-26.069,0.904,68.664l34.11,59.285
		c65.002-37.74,140.469-59.345,220.968-59.345s155.968,21.605,220.968,59.345L511.096,68.603z"/>
</g>
<path style="fill:#EAEDF8;" d="M178.896,234.957c-33.334,0-60.453-27.119-60.453-60.453s27.119-60.453,60.453-60.453
	s60.453,27.119,60.453,60.453S212.23,234.957,178.896,234.957z"/>
<path style="fill:#FF5200;" d="M511.096,68.603C433.604,23.805,345.433,0.109,256.005,0.017v68.587
	c80.49,0.004,155.952,21.609,220.946,59.345L511.096,68.603z"/>
<path style="fill:#B3002E;" d="M345.259,256.357c-43.258,0-78.326,35.189-78.326,78.596c0,32.994,20.275,61.208,48.993,72.862
	l77.543-134.773C380.174,262.602,363.451,256.357,345.259,256.357z"/>
<g>
</g>
<g>
</g>
<g>
</g>
<g>
</g>
<g>
</g>
<g>
</g>
<g>
</g>
<g>
</g>
<g>
</g>
<g>
</g>
<g>
</g>
<g>
</g>
<g>
</g>
<g>
</g>
<g>
</g>
</svg>
