<?xml version="1.0" encoding="iso-8859-1"?>
<!-- Generator: Adobe Illustrator 19.0.0, SVG Export Plug-In . SVG Version: 6.00 Build 0)  -->
<svg version="1.1" id="Layer_1" xmlns="http://www.w3.org/2000/svg" xmlns:xlink="http://www.w3.org/1999/xlink" x="0px" y="0px"
	 viewBox="0 0 512 512" style="enable-background:new 0 0 512 512;" xml:space="preserve">
<path style="fill:#FF9013;" d="M395.13,512H116.87c-42.51,0-81.712-23.125-102.315-60.354c-8.331-15.054-8.005-33.048,0.886-48.13
	c9.119-15.467,25.854-25.081,43.674-25.081h393.773c17.821,0,34.549,9.614,43.668,25.081c8.891,15.082,9.228,33.076,0.892,48.136
	C476.842,488.875,437.641,512,395.13,512z"/>
<path style="fill:#EC7511;" d="M452.886,378.435H256V512h139.13c42.51,0,81.712-23.125,102.315-60.348
	c8.337-15.059,8.001-33.054-0.892-48.136C487.435,388.049,470.706,378.435,452.886,378.435z"/>
<path style="fill:#FF4B26;" d="M478.609,400.696H33.391C14.949,400.696,0,385.746,0,367.304l0,0
	c0-18.442,14.949-33.391,33.391-33.391h445.217c18.442,0,33.391,14.949,33.391,33.391l0,0
	C512,385.746,497.051,400.696,478.609,400.696z"/>
<path style="fill:#D93F21;" d="M478.609,333.913H256v66.783h222.609c18.442,0,33.391-14.949,33.391-33.391
	S497.051,333.913,478.609,333.913z"/>
<path style="fill:#FFAA00;" d="M278.261,300.522l71.674,95.282c3.261,3.261,7.533,4.892,11.804,4.892s8.544-1.631,11.804-4.892
	l71.674-95.282H278.261z"/>
<path style="fill:#70CC14;" d="M478.609,333.913H33.391C14.949,333.913,0,318.964,0,300.522l0,0
	c0-18.442,14.949-33.391,33.391-33.391h445.217c18.442,0,33.391,14.949,33.391,33.391l0,0
	C512,318.964,497.051,333.913,478.609,333.913z"/>
<path style="fill:#62B312;" d="M478.609,267.13H256v66.783h222.609c18.442,0,33.391-14.949,33.391-33.391
	S497.051,267.13,478.609,267.13z"/>
<path style="fill:#FFD500;" d="M66.783,233.739l71.674,95.282c3.261,3.261,7.533,4.892,11.804,4.892s8.544-1.631,11.804-4.892
	l71.674-95.282H66.783z"/>
<path style="fill:#FF9013;" d="M508.772,209.809C489.183,90.157,380.548,0,256,0S22.817,90.157,3.228,209.809
	c-2.226,14.024,1.78,28.383,11.13,39.402c9.682,11.353,23.707,17.92,38.623,17.92h406.038c14.916,0,28.94-6.567,38.623-17.92
	C506.991,238.191,510.997,223.833,508.772,209.809z"/>
<path style="fill:#EC7511;" d="M497.642,249.21c-9.682,11.353-23.707,17.92-38.623,17.92H256V0
	c124.548,0,233.183,90.157,252.772,209.809C510.997,223.833,506.991,238.191,497.642,249.21z"/>
<circle style="fill:#FFEFD9;" cx="256" cy="83.478" r="16.696"/>
<circle style="fill:#FFD9B3;" cx="322.783" cy="116.87" r="16.696"/>
<g>
	<circle style="fill:#FFEFD9;" cx="189.217" cy="116.87" r="16.696"/>
	<circle style="fill:#FFEFD9;" cx="256" cy="150.261" r="16.696"/>
</g>
<circle style="fill:#FFD9B3;" cx="322.783" cy="183.652" r="16.696"/>
<g>
	<circle style="fill:#FFEFD9;" cx="189.217" cy="183.652" r="16.696"/>
	<circle style="fill:#FFEFD9;" cx="122.435" cy="150.261" r="16.696"/>
</g>
<g>
	<circle style="fill:#FFD9B3;" cx="389.565" cy="150.261" r="16.696"/>
	<path style="fill:#FFD9B3;" d="M272.696,150.261c0-9.22-7.475-16.696-16.696-16.696v33.391
		C265.22,166.957,272.696,159.481,272.696,150.261z"/>
	<path style="fill:#FFD9B3;" d="M272.696,83.478c0-9.22-7.475-16.696-16.696-16.696v33.391
		C265.22,100.174,272.696,92.699,272.696,83.478z"/>
</g>
<g>
</g>
<g>
</g>
<g>
</g>
<g>
</g>
<g>
</g>
<g>
</g>
<g>
</g>
<g>
</g>
<g>
</g>
<g>
</g>
<g>
</g>
<g>
</g>
<g>
</g>
<g>
</g>
<g>
</g>
</svg>
