<?xml version="1.0" encoding="iso-8859-1"?>
<!-- Generator: Adobe Illustrator 19.0.0, SVG Export Plug-In . SVG Version: 6.00 Build 0)  -->
<svg version="1.1" id="Layer_1" xmlns="http://www.w3.org/2000/svg" xmlns:xlink="http://www.w3.org/1999/xlink" x="0px" y="0px"
	 viewBox="0 0 512 512" style="enable-background:new 0 0 512 512;" xml:space="preserve">
<g>
	<path style="fill:#98C8ED;" d="M380.343,120.686c-6.059,0-10.971-4.911-10.971-10.971V21.943c0-6.061,4.912-10.971,10.971-10.971
		h58.514c6.059,0,10.971,4.911,10.971,10.971s-4.912,10.971-10.971,10.971h-47.543v76.8
		C391.314,115.775,386.402,120.686,380.343,120.686z"/>
	<polygon style="fill:#98C8ED;" points="482.743,446.171 497.371,138.971 292.571,138.971 292.571,246.491 	"/>
</g>
<polygon style="fill:#7AB9E8;" points="438.857,138.971 427.015,387.657 482.743,446.171 497.371,138.971 "/>
<polyline style="fill:#EDEDED;" points="292.571,109.714 512,109.714 512,153.6 292.571,153.6 "/>
<polyline style="fill:#D8D8DA;" points="453.486,109.714 512,109.714 512,153.6 453.486,153.6 "/>
<polygon style="fill:#F6E27D;" points="263.314,51.2 263.314,7.314 219.429,7.314 219.429,36.571 175.543,36.571 175.543,21.943 
	131.657,21.943 131.657,7.314 87.771,7.314 87.771,36.571 43.886,36.571 43.886,65.829 0,65.829 0,182.857 307.2,182.857 
	307.2,51.2 "/>
<g>
	<path style="fill:#EFC27B;" d="M32.914,182.857c-6.059,0-10.971-4.911-10.971-10.971v-58.514c0-6.061,4.912-10.971,10.971-10.971
		s10.971,4.911,10.971,10.971v58.514C43.886,177.946,38.973,182.857,32.914,182.857z"/>
	<path style="fill:#EFC27B;" d="M120.686,153.6c-6.059,0-10.971-4.911-10.971-10.971V54.857c0-6.061,4.912-10.971,10.971-10.971
		s10.971,4.911,10.971,10.971v87.771C131.657,148.689,126.745,153.6,120.686,153.6z"/>
	<path style="fill:#EFC27B;" d="M171.886,204.8c-6.059,0-10.971-4.911-10.971-10.971V76.8c0-6.061,4.912-10.971,10.971-10.971
		s10.971,4.911,10.971,10.971v117.029C182.857,199.889,177.945,204.8,171.886,204.8z"/>
	<path style="fill:#EFC27B;" d="M237.714,95.086c-6.059,0-10.971-4.911-10.971-10.971V25.6c0-6.061,4.912-10.971,10.971-10.971
		c6.059,0,10.971,4.911,10.971,10.971v58.514C248.686,90.175,243.773,95.086,237.714,95.086z"/>
	<path style="fill:#EFC27B;" d="M223.086,182.857c-6.059,0-10.971-4.911-10.971-10.971V128c0-6.061,4.912-10.971,10.971-10.971
		c6.059,0,10.971,4.911,10.971,10.971v43.886C234.057,177.946,229.145,182.857,223.086,182.857z"/>
	<path style="fill:#EFC27B;" d="M76.8,124.343c-6.059,0-10.971-4.911-10.971-10.971V69.486c0-6.061,4.912-10.971,10.971-10.971
		c6.059,0,10.971,4.911,10.971,10.971v43.886C87.771,119.432,82.859,124.343,76.8,124.343z"/>
</g>
<path style="fill:#E07188;" d="M153.6,182.857C68.769,182.857,0,143.56,0,95.086v409.6h307.2v-409.6
	C307.2,143.56,238.431,182.857,153.6,182.857z"/>
<path style="fill:#DC4161;" d="M248.686,164.02v340.666H307.2v-409.6C307.2,123.042,284.324,147.946,248.686,164.02z"/>
<circle style="fill:#F6E27D;" cx="153.6" cy="336.457" r="80.457"/>
<path style="fill:#B29A7E;" d="M468.114,373.029V358.4H248.686v14.629l0,0c-12.118,0-21.943,9.825-21.943,21.943
	c0,12.118,9.825,21.943,21.943,21.943l0,0v14.629h219.429v-14.629l0,0c12.118,0,21.943-9.825,21.943-21.943
	C490.057,382.853,480.233,373.029,468.114,373.029z"/>
<path style="fill:#A58868;" d="M468.114,373.029V358.4h-51.2v14.629c12.118,0,21.943,9.825,21.943,21.943
	c0,12.118-9.825,21.943-21.943,21.943l0,0v14.629h51.2v-14.629l0,0c12.118,0,21.943-9.825,21.943-21.943
	C490.057,382.853,480.233,373.029,468.114,373.029z"/>
<path style="fill:#80CB93;" d="M453.486,329.143v-14.629H263.314v14.629c-24.238,0-43.886,9.825-43.886,21.943
	c0,12.118,19.648,21.943,43.886,21.943c8.764,0,16.919-1.289,23.771-3.502c6.852,2.213,15.007,3.502,23.771,3.502
	s16.919-1.289,23.771-3.502c6.852,2.213,15.007,3.502,23.771,3.502s16.919-1.289,23.771-3.502
	c6.852,2.213,15.007,3.502,23.771,3.502c8.764,0,16.919-1.289,23.771-3.502c6.852,2.213,15.007,3.502,23.771,3.502
	c24.238,0,43.886-9.825,43.886-21.943C497.371,338.967,477.724,329.143,453.486,329.143z"/>
<path style="fill:#6DC180;" d="M453.486,329.143v-14.629H409.6v14.629c24.238,0,43.886,9.825,43.886,21.943
	c0,8.116-8.82,15.198-21.921,18.994c6.453,1.868,13.928,2.949,21.921,2.949c24.238,0,43.886-9.825,43.886-21.943
	C497.371,338.967,477.724,329.143,453.486,329.143z"/>
<g>
	<path style="fill:#D8CCBC;" d="M219.429,416.914h277.943l0,0c0,48.475-39.297,87.771-87.771,87.771H307.2
		C258.725,504.686,219.429,465.389,219.429,416.914L219.429,416.914z"/>
	<path style="fill:#D8CCBC;" d="M358.4,226.743c-76.752,0-138.971,45.846-138.971,102.4h277.943
		C497.371,272.589,435.152,226.743,358.4,226.743z"/>
</g>
<g>
	<path style="fill:#B29A7E;" d="M438.857,416.914L438.857,416.914c0,48.475-39.297,87.771-87.771,87.771H409.6
		c48.475,0,87.771-39.297,87.771-87.771l0,0H438.857z"/>
	<path style="fill:#B29A7E;" d="M358.4,226.743c-10.038,0-19.823,0.791-29.257,2.281c62.701,9.902,109.714,50.962,109.714,100.119
		h58.514C497.371,272.589,435.152,226.743,358.4,226.743z"/>
</g>
<g>
	<circle style="fill:#EBE4DD;" cx="332.8" cy="259.657" r="10.971"/>
	<circle style="fill:#EBE4DD;" cx="288.914" cy="274.286" r="10.971"/>
	<circle style="fill:#EBE4DD;" cx="384" cy="274.286" r="10.971"/>
</g>
<circle style="fill:#D8CCBC;" cx="435.2" cy="266.971" r="10.971"/>
<g>
</g>
<g>
</g>
<g>
</g>
<g>
</g>
<g>
</g>
<g>
</g>
<g>
</g>
<g>
</g>
<g>
</g>
<g>
</g>
<g>
</g>
<g>
</g>
<g>
</g>
<g>
</g>
<g>
</g>
</svg>
