<?xml version="1.0" encoding="iso-8859-1"?>
<!-- Generator: Adobe Illustrator 19.0.0, SVG Export Plug-In . SVG Version: 6.00 Build 0)  -->
<svg version="1.1" id="Layer_1" xmlns="http://www.w3.org/2000/svg" xmlns:xlink="http://www.w3.org/1999/xlink" x="0px" y="0px"
	 viewBox="0 0 512.002 512.002" style="enable-background:new 0 0 512.002 512.002;" xml:space="preserve">
<path style="fill:#E09D70;" d="M220.53,512.002h70.943l22.601-179.171c26.275-9.129,43.463-24.279,43.463-41.424
	c0-12.036-8.473-23.089-22.606-31.766v-41.255H177.07v41.255c-14.136,8.678-22.606,19.728-22.606,31.766
	c0,17.148,17.189,32.297,43.463,41.424L220.53,512.002z"/>
<path style="fill:#D18B5C;" d="M237.46,512.002h23.845l-43.722-23.353l1.724,13.654L237.46,512.002L237.46,512.002z
	 M292.538,503.562l-78.354-41.852l-1.724-13.654l81.584,43.574L292.538,503.562L292.538,503.562z M297.012,468.092l1.506-11.933
	l-91.175-48.699l1.721,13.657L297.012,468.092L297.012,468.092z M301.485,432.621l-97.541-52.1l-1.724-13.657l100.768,53.824
	L301.485,432.621L301.485,432.621z M305.959,397.154l1.503-11.933l-148.867-79.516c6.59,11.12,20.67,20.644,39.333,27.126
	l0.895,7.098L305.959,397.154L305.959,397.154z M310.435,361.686l-153.279-81.873c1.529-3.237,3.686-6.356,6.4-9.319l148.384,79.26
	L310.435,361.686L310.435,361.686z M321.763,329.878l-144.691-77.287v-12.736l156.977,83.849
	C330.315,325.933,326.203,327.998,321.763,329.878L321.763,329.878z M351.859,308.093l-167.954-89.707h23.84l148.944,79.557
	C355.779,301.452,354.145,304.848,351.859,308.093L351.859,308.093z M343.482,265.761c-2.55-2.147-5.407-4.194-8.55-6.123v-11.179
	l-56.307-30.073h-23.843L343.482,265.761L343.482,265.761z M334.932,223.336v-4.953h-9.273L334.932,223.336z"/>
<path style="fill:#F7C29E;" d="M187.238,218.385l-10.168,5.43v-5.43H187.238L187.238,218.385z M251.594,512.002h23.845l17.191-9.183
	l1.724-13.654L251.594,512.002L251.594,512.002z M297.751,462.223l-78.231,41.786l-1.506-11.93l81.46-43.512L297.751,462.223
	L297.751,462.223z M302.871,421.63l1.724-13.657l-91.051,48.637l1.503,11.928L302.871,421.63L302.871,421.63z M307.991,381.034
	l-97.418,52.036l-1.506-11.93l100.648-53.76L307.991,381.034L307.991,381.034z M313.111,340.441l0.962-7.611
	c18.264-6.346,32.136-15.601,38.897-26.416L204.591,385.67l1.508,11.93L313.111,340.441L313.111,340.441z M355.025,280.197
	l-153.402,81.938l-1.506-11.936l148.62-79.38C351.423,273.802,353.539,276.942,355.025,280.197L355.025,280.197z M334.932,253.074
	l-144.19,77.015c-4.466-1.865-8.601-3.917-12.361-6.136l156.552-83.62L334.932,253.074L334.932,253.074z M328.999,218.385h-23.848
	l-149.728,79.975c0.967,3.486,2.647,6.857,4.971,10.081L328.999,218.385L328.999,218.385z M258.12,218.385h-23.845l-57.205,30.553
	v10.702c-3.745,2.298-7.093,4.763-9.991,7.37L258.12,218.385z"/>
<g>
	<path style="fill:#744C29;" d="M290.237,222.231c-38.497,21.56-128.751,28.021-122.143-23.717
		C174.702,146.773,334.896,177.572,290.237,222.231z"/>
	<path style="fill:#FFF1AD;" d="M197.803,144.01c-37.412,0.977-48.491,32.31-17.776,57.171
		c39.777,32.192,150.149,44.512,155.81,12.913C341.504,182.497,253.543,142.553,197.803,144.01z"/>
	<path style="fill:#744C29;" d="M217.337,107.324c-37.117-2.26-68.514,30.286-30.374,59.046
		c41.945,31.628,107.637,11.907,148.877,47.724C345.513,182.984,272.641,110.692,217.337,107.324z"/>
	<path style="fill:#FFF1AD;" d="M322.373,174.242c-37.756-42.491-74.948-26.567-110.11-44.346
		c-35.16-17.781-21.683-49.081-3.286-55.412c18.394-6.331-14.46-35.342,32.813-73.914c4.302,32.241,9.091,74.032,39.18,89.081
		C311.061,104.694,332.044,145.226,322.373,174.242z"/>
	<path style="fill:#744C29;" d="M209.27,61.087c-2.378-11.918,0.182-35.263,25.541-57.692c4.158-3.681,10.65-5.895,11.261,1.59
		c2.475,30.438,8.021,71.226,34.898,84.664c7.852,3.922,15.083,9.588,21.311,16.327C279.769,87.444,215.387,91.758,209.27,61.087z"
		/>
	<g>
		
			<path style="fill:none;stroke:#A67244;stroke-width:2.4;stroke-linecap:round;stroke-linejoin:round;stroke-miterlimit:22.926;" d="
			M236.639,13.115c-6.295,3.74-14.275,13.89-18.461,25.882"/>
		
			<path style="fill:none;stroke:#FFFFFF;stroke-width:2.4;stroke-linecap:round;stroke-linejoin:round;stroke-miterlimit:22.926;" d="
			M215.277,82.896c-7.087,0.582-16.778,12.536-16.681,23.381"/>
		
			<path style="fill:none;stroke:#A67244;stroke-width:2.4;stroke-linecap:round;stroke-linejoin:round;stroke-miterlimit:22.926;" d="
			M190.919,125.523c-5.412,0.444-12.823,9.578-12.746,17.869"/>
		
			<path style="fill:none;stroke:#FFFFFF;stroke-width:2.4;stroke-linecap:round;stroke-linejoin:round;stroke-miterlimit:22.926;" d="
			M175.225,161.986c-4.717,1.657-7.062,10.52-5.028,16.843"/>
		
			<path style="fill:none;stroke:#A67244;stroke-width:2.4;stroke-linecap:round;stroke-linejoin:round;stroke-miterlimit:22.926;" d="
			M174.738,203.898c-1.054,3.581,0.013,10.012,2.709,13.318"/>
	</g>
</g>
<g>
</g>
<g>
</g>
<g>
</g>
<g>
</g>
<g>
</g>
<g>
</g>
<g>
</g>
<g>
</g>
<g>
</g>
<g>
</g>
<g>
</g>
<g>
</g>
<g>
</g>
<g>
</g>
<g>
</g>
</svg>
