<?xml version="1.0" encoding="iso-8859-1"?>
<!-- Generator: Adobe Illustrator 19.0.0, SVG Export Plug-In . SVG Version: 6.00 Build 0)  -->
<svg version="1.1" id="Layer_1" xmlns="http://www.w3.org/2000/svg" xmlns:xlink="http://www.w3.org/1999/xlink" x="0px" y="0px"
	 viewBox="0 0 512 512" style="enable-background:new 0 0 512 512;" xml:space="preserve">
<g>
	<g>
		<path style="fill:#D2EDFC;" d="M340.868,316.597c-74.066,39.263-76.86,124.919-54.896,169.163
			c-5.521,16.037-22.486,19.293-22.486,19.293s-33.127-3.257-38.648-19.293c21.964-44.244,11.518-131.857-47.835-166.214
			L340.868,316.597z"/>
		<path style="fill:#D2EDFC;" d="M358.776,512H153.224v-13.12c0-7.216,5.903-13.12,13.12-13.12h179.312
			c7.216,0,13.12,5.903,13.12,13.12V512z"/>
	</g>
	<path style="fill:#FFFEFC;" d="M340.868,316.597c-6.786,3.596-12.965,7.585-18.587,11.89c-20.365,6.936-42.765,10.772-66.28,10.772
		c-23.347,0-45.594-3.783-65.845-10.628c-4.083-3.329-8.465-6.377-13.152-9.088L340.868,316.597z"/>
	<path style="fill:#C1EE89;" d="M260.374,209.03c57.564,0,104.516-46.952,104.516-104.516S317.938,0,260.374,0
		S155.858,46.95,155.858,104.514S202.81,209.03,260.374,209.03z"/>
	<path style="fill:#DBFFB0;" d="M174.303,77.908c6.018-17.865,17.28-40.282,41.463-51.687c15.184-7.157,16.101,8.981,6.47,12.732
		c-10.283,4.005-30.707,28.509-33.886,42.509C184.987,96.287,169.584,91.926,174.303,77.908z"/>
	<path style="fill:#744C29;" d="M201,306.964c57.564,0,104.516-46.952,104.516-104.517S258.564,97.934,201,97.934
		S96.483,144.884,96.483,202.448S143.433,306.964,201,306.964z"/>
	<path style="fill:#A67244;" d="M114.929,175.842c6.018-17.865,17.28-40.282,41.466-51.687c15.181-7.16,16.101,8.981,6.468,12.732
		c-10.283,4.005-30.707,28.512-33.886,42.509C125.61,194.221,110.21,189.86,114.929,175.842z"/>
	<path style="fill:#FFC273;" d="M312.837,306.964c57.564,0,104.516-46.952,104.516-104.517S370.401,97.934,312.837,97.934
		s-104.514,46.95-104.514,104.514S255.273,306.964,312.837,306.964z"/>
	<path style="fill:#FFD8A6;" d="M226.769,175.842c6.016-17.865,17.28-40.282,41.463-51.687c15.184-7.16,16.101,8.981,6.468,12.732
		c-10.283,4.005-30.704,28.512-33.886,42.509C237.45,194.221,222.047,189.86,226.769,175.842z"/>
	<path style="fill:#D33B3A;" d="M400.202,260.966c-27.314,36.624-91.03,69.959-144.202,69.959
		c-52.952,0-106.907-20.798-146.557-77.927c12.384-4.358,23.609-2.369,59.583,14.983c22.336,10.772,38.121,23.854,57.294,10.187
		c51.23-36.522,40.88,12.917,75.325,7.155C352.311,276.837,368.939,244.817,400.202,260.966z"/>
	<path style="opacity:0.5;fill:#E6F5FF;enable-background:new    ;" d="M422.687,189.162c0,81.753-74.628,148.028-166.687,148.028
		S89.313,270.918,89.313,189.162H422.687z"/>
</g>
<g>
</g>
<g>
</g>
<g>
</g>
<g>
</g>
<g>
</g>
<g>
</g>
<g>
</g>
<g>
</g>
<g>
</g>
<g>
</g>
<g>
</g>
<g>
</g>
<g>
</g>
<g>
</g>
<g>
</g>
</svg>
