<?xml version="1.0" encoding="iso-8859-1"?>
<!-- Generator: Adobe Illustrator 19.0.0, SVG Export Plug-In . SVG Version: 6.00 Build 0)  -->
<svg version="1.1" id="Layer_1" xmlns="http://www.w3.org/2000/svg" xmlns:xlink="http://www.w3.org/1999/xlink" x="0px" y="0px"
	 viewBox="0 0 512 512" style="enable-background:new 0 0 512 512;" xml:space="preserve">
<g>
	<path style="fill:#D18B5C;" d="M256,304.603L256,304.603c10.412,0,18.928,8.516,18.928,18.926v169.543
		c0,10.412-8.516,18.928-18.926,18.928H256c-10.41,0-18.926-8.516-18.926-18.928V323.529
		C237.074,313.119,245.59,304.603,256,304.603z"/>
	<polygon style="fill:#F6E385;" points="209.001,0 303.002,0 306.225,75.793 205.775,75.793 	"/>
	<polygon style="fill:#D33B3A;" points="202.555,151.589 309.445,151.589 306.225,75.793 205.775,75.793 	"/>
	<polygon style="fill:#744C29;" points="202.555,151.589 309.445,151.589 312.671,227.385 199.329,227.385 	"/>
	<polygon style="fill:#C1EE89;" points="196.106,303.178 315.894,303.178 312.671,227.385 199.329,227.385 	"/>
	<polygon style="fill:#FE7E8D;" points="196.106,303.178 315.894,303.178 319.117,378.971 192.883,378.971 	"/>
	<polygon style="fill:#FFF1AD;" points="235.315,75.793 224.258,75.793 226.014,17.648 237.074,17.648 	"/>
	<polygon style="fill:#E66363;" points="221.965,151.589 233.022,151.589 235.315,75.793 224.258,75.793 	"/>
	<polygon style="fill:#A67244;" points="221.965,151.589 233.022,151.589 230.732,227.385 219.675,227.385 	"/>
	<polygon style="fill:#DBFFB0;" points="217.382,303.178 228.439,303.178 230.732,227.385 219.675,227.385 	"/>
	<polygon style="fill:#FFABB5;" points="217.382,303.178 228.439,303.178 226.732,359.683 215.672,359.683 	"/>
</g>
<g>
</g>
<g>
</g>
<g>
</g>
<g>
</g>
<g>
</g>
<g>
</g>
<g>
</g>
<g>
</g>
<g>
</g>
<g>
</g>
<g>
</g>
<g>
</g>
<g>
</g>
<g>
</g>
<g>
</g>
</svg>
