<?xml version="1.0" encoding="iso-8859-1"?>
<!-- Generator: Adobe Illustrator 19.0.0, SVG Export Plug-In . SVG Version: 6.00 Build 0)  -->
<svg version="1.1" id="Layer_1" xmlns="http://www.w3.org/2000/svg" xmlns:xlink="http://www.w3.org/1999/xlink" x="0px" y="0px"
	 viewBox="0 0 421.41 421.41" style="enable-background:new 0 0 421.41 421.41;" xml:space="preserve">
<g>
	<path style="fill:#FCEDCA;" d="M323.55,163.25c0,11.54-4.93,21.93-12.79,29.19c-7.08,6.52-16.52,10.5-26.9,10.5H137.55
		c-10.38,0-19.82-3.98-26.89-10.5c-0.4-0.36-0.79-0.74-1.17-1.12c-7.19-7.19-11.63-17.11-11.63-28.07
		c0-18.66,12.88-34.31,30.23-38.55c3.03-0.75,6.2-1.14,9.46-1.14h146.31c3.26,0,6.42,0.39,9.45,1.14
		c7.17,1.74,13.57,5.43,18.62,10.48C319.11,142.37,323.55,152.29,323.55,163.25z"/>
	<path style="fill:#FCEDCA;" d="M307.4,94.37c0,12.16-5.47,23.04-14.09,30.33c-6.91,5.84-15.84,9.36-25.6,9.36H153.7
		c-9.76,0-18.69-3.52-25.61-9.36c-0.85-0.72-1.67-1.47-2.46-2.26c-7.18-7.19-11.62-17.11-11.62-28.07
		c0-21.92,17.77-39.69,39.69-39.69h114.01c10.96,0,20.88,4.44,28.06,11.62C302.96,73.49,307.4,83.41,307.4,94.37z"/>
	<path style="fill:#FCEDCA;" d="M263.09,54.68c0,12.71-4.34,24.41-11.62,33.7c-10,12.78-25.58,20.99-43.07,20.99
		c-30.21,0-54.7-24.48-54.7-54.69h18.41v-0.02c21.84-0.42,39.42-18.24,39.42-40.18c0-5.11-0.96-9.99-2.7-14.48
		C238.83,0.23,263.09,24.62,263.09,54.68z"/>
	<polygon style="fill:#FFD41D;" points="308.542,193.807 302.97,284.05 282.29,301.74 139.13,301.74 118.44,284.05 113.3,230.74 
		111.76,214.74 114.083,193.099 	"/>
	<path style="fill:#DDC89F;" d="M311.93,135.18c-5.05-5.05-11.45-8.74-18.62-10.48c8.62-7.29,14.09-18.17,14.09-30.33
		c0-10.96-4.44-20.88-11.63-28.07c-7.18-7.18-17.1-11.62-28.06-11.62h-4.62c0-30.06-24.26-54.45-54.26-54.68
		c22.944,17.769,20.671,32.849,14.29,42.643c-8.377,12.858-12.41,28.067-12.41,43.413V202.94h72.449
		c21.994,0,40.551-17.994,40.39-39.987C323.47,152.111,319.045,142.305,311.93,135.18z"/>
	<polygon style="fill:#FFA91F;" points="311.8,196.224 302.97,284.05 282.29,301.74 210.71,301.74 210.71,192.44 	"/>
	<path style="fill:#FFD41D;" d="M284.8,284.05l-14.64,118.84c-1.31,10.58-10.29,18.52-20.94,18.52H172.2
		c-10.66,0-19.64-7.94-20.94-18.52l-14.64-118.84H284.8z"/>
	<polygon style="fill:#FFA91F;" points="302.97,284.05 282.29,301.74 139.13,301.74 118.44,284.05 	"/>
	<path style="fill:#FFA91F;" d="M284.8,284.05l-14.64,118.84c-1.31,10.58-10.29,18.52-20.94,18.52h-38.51V284.05H284.8z"/>
	<path style="fill:#DDC89F;" d="M307.4,94.37c0,12.16-5.47,23.04-14.09,30.33H128.09c-0.85-0.72-1.67-1.47-2.46-2.26
		c-7.18-7.19-11.62-17.11-11.62-28.07H307.4z"/>
	<path style="fill:#DDC89F;" d="M323.55,163.25c0,11.54-4.93,21.93-12.79,29.19l-198.496,1.399c-0.4-0.36-2.394-2.139-2.774-2.519
		c-7.19-7.19-11.63-17.11-11.63-28.07H323.55z"/>
	<path style="fill:#FFD41D;" d="M317.32,205.92v8.82H104.1v-8.82c0-8.06,6.53-14.6,14.59-14.6h184.03
		C310.78,191.32,317.32,197.86,317.32,205.92z"/>
	<path style="fill:#FFA91F;" d="M317.32,205.92v8.82H210.71v-23.42h92.01C310.78,191.32,317.32,197.86,317.32,205.92z"/>
	<polygon style="fill:#FFA91F;" points="243.71,214.74 243.71,230.74 113.3,230.74 111.76,214.74 	"/>
	<path style="fill:#FFFFFF;" d="M192.043,145.06h-13.334c-3.038,0-5.5-2.462-5.5-5.5s2.462-5.5,5.5-5.5h13.334
		c3.038,0,5.5,2.462,5.5,5.5S195.081,145.06,192.043,145.06z"/>
	<path style="fill:#FFFFFF;" d="M117.759,155.682c-1.039,0-2.089-0.294-3.022-0.908c-2.536-1.672-3.237-5.083-1.565-7.619
		c4.053-6.149,10.236-10.502,17.411-12.255c2.247-0.556,4.596-0.84,6.967-0.84h20.66c3.038,0,5.5,2.462,5.5,5.5s-2.462,5.5-5.5,5.5
		h-20.66c-1.482,0-2.942,0.176-4.341,0.521c-4.483,1.096-8.332,3.803-10.853,7.627C121.299,154.812,119.546,155.682,117.759,155.682
		z"/>
	<path style="fill:#FFFFFF;" d="M133.981,86.747c-1.05,0-2.111-0.3-3.05-0.927c-2.526-1.687-3.206-5.103-1.519-7.628
		c5.441-8.147,14.521-13.011,24.288-13.011h28.342c3.038,0,5.5,2.462,5.5,5.5c0,3.038-2.462,5.5-5.5,5.5H153.7
		c-6.084,0-11.745,3.036-15.141,8.121C137.499,85.888,135.756,86.747,133.981,86.747z"/>
	<path style="fill:#FFA91F;" d="M210.71,402.89v18.52H172.2c-10.66,0-19.64-7.94-20.94-18.52H210.71z"/>
</g>
<g>
</g>
<g>
</g>
<g>
</g>
<g>
</g>
<g>
</g>
<g>
</g>
<g>
</g>
<g>
</g>
<g>
</g>
<g>
</g>
<g>
</g>
<g>
</g>
<g>
</g>
<g>
</g>
<g>
</g>
</svg>
