<?xml version="1.0" encoding="iso-8859-1"?>
<!-- Generator: Adobe Illustrator 19.0.0, SVG Export Plug-In . SVG Version: 6.00 Build 0)  -->
<svg version="1.1" id="Layer_1" xmlns="http://www.w3.org/2000/svg" xmlns:xlink="http://www.w3.org/1999/xlink" x="0px" y="0px"
	 viewBox="0 0 416.32 416.32" style="enable-background:new 0 0 416.32 416.32;" xml:space="preserve">
<g>
	<path style="fill:#98D8D0;" d="M307.655,415.35v0.97h-198.99v-0.97c0-14.08,11.41-25.5,25.5-25.5h147.99
		C296.235,389.85,307.655,401.27,307.655,415.35z"/>
	<g>
		<path style="fill:#FFD41D;" d="M284.435,76.28c0,21.67-9.04,41.24-23.56,55.12c-13.7,13.1-32.26,21.15-52.72,21.15
			c-42.12,0-76.27-34.15-76.27-76.27c0-42.13,34.15-76.28,76.27-76.28C250.285,0,284.435,34.15,284.435,76.28z"/>
		<path style="fill:#FFFFFF;" d="M153.817,55.709c-0.801,0-1.613-0.176-2.383-0.546c-2.736-1.318-3.887-4.605-2.568-7.342
			c6.111-12.687,16.349-23.279,28.827-29.826c2.69-1.412,6.014-0.375,7.426,2.315c1.411,2.689,0.375,6.014-2.314,7.425
			c-10.402,5.458-18.936,14.286-24.028,24.859C157.828,54.562,155.863,55.709,153.817,55.709z"/>
		<path style="fill:#FFA91F;" d="M284.435,76.28c0,21.67-9.04,41.24-23.56,55.12h-52.72V0C250.285,0,284.435,34.15,284.435,76.28z"
			/>
		<path style="fill:#E85858;" d="M218.765,136.12c0,11.67-2.62,22.72-7.31,32.61c-12.22,25.81-38.51,43.66-68.96,43.66
			c-42.13,0-76.27-34.15-76.27-76.27s34.14-76.27,76.27-76.27C184.615,59.85,218.765,94,218.765,136.12z"/>
		<path style="fill:#FFFFFF;" d="M123.008,84.58c-2.286,0-4.422-1.436-5.203-3.72c-0.984-2.874,0.548-6.001,3.422-6.985
			c3.135-1.073,6.379-1.914,9.642-2.499c2.978-0.538,5.848,1.453,6.384,4.443c0.535,2.99-1.454,5.848-4.444,6.384
			c-2.713,0.486-5.41,1.186-8.019,2.079C124.199,84.484,123.599,84.58,123.008,84.58z"/>
		<path style="fill:#FFFFFF;" d="M83.453,129.488c-0.366,0-0.738-0.037-1.111-0.113c-2.976-0.61-4.893-3.518-4.282-6.493
			c3.38-16.472,12.869-30.899,26.72-40.624c2.484-1.746,5.916-1.145,7.661,1.341c1.746,2.486,1.146,5.917-1.341,7.662
			c-11.544,8.105-19.451,20.121-22.265,33.832C88.301,127.695,86.01,129.488,83.453,129.488z"/>
		<path style="fill:#FFFFFF;" d="M215.382,126.865c-0.445,0-0.898-0.055-1.351-0.169c-2.945-0.744-4.729-3.734-3.986-6.679
			c1.606-6.36,4.159-12.436,7.589-18.058c1.582-2.593,4.968-3.411,7.56-1.831c2.593,1.582,3.413,4.966,1.831,7.56
			c-2.854,4.679-4.979,9.732-6.313,15.021C220.081,125.204,217.841,126.865,215.382,126.865z"/>
		<path style="fill:#CE3E3E;" d="M218.765,136.12c0,11.67-2.62,22.72-7.31,32.61h-68.96V59.85
			C184.615,59.85,218.765,94,218.765,136.12z"/>
		<path style="fill:#FFFFFF;" d="M196.135,22.709c-2.562,0-4.854-1.799-5.384-4.406c-0.604-2.977,1.318-5.88,4.295-6.485
			c1.24-0.251,2.503-0.47,3.753-0.649c2.996-0.433,5.793,1.658,6.224,4.665s-1.658,5.793-4.665,6.224
			c-1.04,0.149-2.09,0.331-3.122,0.541C196.866,22.673,196.497,22.709,196.135,22.709z"/>
		<path style="fill:#B5600B;" d="M350.095,136.12c0,13.68-3.6,26.51-9.91,37.61c-13.11,23.09-37.92,38.66-66.36,38.66
			c-42.13,0-76.27-34.15-76.27-76.27s34.14-76.27,76.27-76.27C315.945,59.85,350.095,94,350.095,136.12z"/>
		<path style="fill:#FFFFFF;" d="M253.419,84.907c-2.252,0-4.365-1.394-5.174-3.635c-1.03-2.857,0.45-6.009,3.307-7.04
			c3.272-1.181,6.663-2.105,10.078-2.749c2.989-0.561,5.861,1.403,6.423,4.388s-1.402,5.861-4.388,6.423
			c-2.839,0.534-5.658,1.303-8.379,2.285C254.669,84.802,254.039,84.907,253.419,84.907z"/>
		<path style="fill:#FFFFFF;" d="M214.081,133.689c-0.24,0-0.482-0.016-0.727-0.048c-3.012-0.397-5.131-3.161-4.733-6.173
			c2.231-16.894,10.845-32.088,24.255-42.785c2.374-1.895,5.836-1.504,7.729,0.87c1.895,2.375,1.505,5.835-0.87,7.729
			c-11.175,8.914-18.352,21.565-20.208,35.625C219.161,131.676,216.798,133.689,214.081,133.689z"/>
		<path style="fill:#914D09;" d="M350.095,136.12c0,13.68-3.6,26.51-9.91,37.61h-66.36V59.85
			C315.945,59.85,350.095,94,350.095,136.12z"/>
	</g>
	<polygon style="fill:#CAF9F5;" points="240.065,240.42 231.815,311.43 222.7,390.804 193.538,390.804 184.505,311.43 
		176.245,240.42 	"/>
	<path style="fill:#98D8D0;" d="M240.065,240.42l-8.25,71.01c-7.71,1.21-15.61,1.84-23.66,1.84s-15.95-0.63-23.65-1.84l-8.26-71.01
		L240.065,240.42L240.065,240.42z"/>
	<path style="fill:#CAF9F5;" d="M359.925,138.06v8.19c0,83.82-67.95,151.77-151.77,151.77c-42.33,0-80.62-17.33-108.14-45.29
		c-26.97-27.4-43.62-64.99-43.62-106.48v-8.19H359.925z"/>
	<path style="fill:#FFFFFF;" d="M90.693,171.9c-2.63,0-4.956-1.893-5.414-4.573c-0.727-4.248-1.238-8.59-1.519-12.907
		c-0.197-3.031,2.1-5.648,5.131-5.845c3.042-0.188,5.648,2.1,5.846,5.131c0.256,3.936,0.722,7.894,1.384,11.765
		c0.513,2.994-1.499,5.837-4.493,6.349C91.313,171.875,91.001,171.9,90.693,171.9z"/>
	<path style="fill:#FFFFFF;" d="M116.577,227.904c-1.576,0-3.141-0.674-4.229-1.98c-9.687-11.628-17.097-24.735-22.025-38.957
		c-0.994-2.87,0.526-6.003,3.396-6.998c2.869-0.995,6.004,0.527,6.998,3.396c4.491,12.963,11.248,24.913,20.082,35.518
		c1.944,2.334,1.629,5.802-0.705,7.746C119.067,227.486,117.818,227.904,116.577,227.904z"/>
	<polygon style="fill:#98D8D0;" points="240.065,240.42 222.7,390.804 208.16,390.804 208.155,240.42 	"/>
	<path style="fill:#CAF9F5;" d="M208.155,389.85v26.47h-99.49v-0.97c0-14.08,11.41-25.5,25.5-25.5H208.155z"/>
	<path style="fill:#98D8D0;" d="M208.155,138.06v77.261c0,20.66-16.749,37.409-37.409,37.409h-70.731
		c27.376,27.814,65.082,46.019,107.148,46.199c83.839,0.359,152.762-70.456,152.762-154.295v-6.573h-151.77V138.06z"/>
</g>
<g>
</g>
<g>
</g>
<g>
</g>
<g>
</g>
<g>
</g>
<g>
</g>
<g>
</g>
<g>
</g>
<g>
</g>
<g>
</g>
<g>
</g>
<g>
</g>
<g>
</g>
<g>
</g>
<g>
</g>
</svg>
