<?xml version="1.0" encoding="iso-8859-1"?>
<!-- Generator: Adobe Illustrator 19.0.0, SVG Export Plug-In . SVG Version: 6.00 Build 0)  -->
<svg version="1.1" id="Layer_1" xmlns="http://www.w3.org/2000/svg" xmlns:xlink="http://www.w3.org/1999/xlink" x="0px" y="0px"
	 viewBox="0 0 475.09 475.09" style="enable-background:new 0 0 475.09 475.09;" xml:space="preserve">
<g>
	<path style="fill:#FFD41D;" d="M318.545,238.157l-0.265,0.834l-4.887,15.364l-4.926,15.527h-0.016L244.97,469.657
		c-1.146,3.625-4.279,5.433-7.421,5.433c-3.134,0-6.283-1.808-7.428-5.433l-30.143-94.848l-38.281-120.454l-1.426-4.482
		l-3.461-10.882l-0.14-0.444l-0.125-0.39L318.545,238.157L318.545,238.157z"/>
	<path style="fill:#FFA91F;" d="M318.542,238.154l-10.079,31.73h-0.01l-63.481,199.771c-1.149,3.624-4.282,5.431-7.426,5.431
		V238.154H318.542z"/>
	<polygon style="fill:#FFA91F;" points="318.28,238.547 311.436,249.873 160.271,249.873 156.81,238.991 156.669,238.547 	"/>
	<g>
		<path style="fill:#EA587F;" d="M326.37,213.37c-1.62-1.63-3.62-2.88-5.85-3.62c-0.5-0.17-1.02-0.31-1.54-0.43
			c-3.08-42.28-38.37-75.63-81.43-75.63c-43.07,0-78.36,33.35-81.44,75.63c-0.52,0.12-1.04,0.26-1.54,0.43
			c-5.96,1.99-10.26,7.62-10.26,14.26c0,1.69,0.27,3.3,0.79,4.81c0.74,2.22,2,4.21,3.61,5.84c2.4,2.4,5.59,3.97,9.14,4.33
			c0.49,0.05,1,0.08,1.51,0.08h0.02h156.33h0.02c0.51,0,1.02-0.03,1.51-0.08c1.11-0.11,2.18-0.34,3.21-0.68
			c0.21-0.07,0.42-0.14,0.62-0.22s0.4-0.16,0.6-0.24c0.2-0.09,0.4-0.18,0.59-0.27c0.14-0.07,0.27-0.13,0.41-0.2
			c0.17-0.09,0.33-0.18,0.5-0.28c0.19-0.11,0.38-0.22,0.57-0.34c0.97-0.61,1.86-1.32,2.65-2.12c0.16-0.16,0.31-0.32,0.47-0.48
			c0.47-0.53,0.91-1.09,1.31-1.67c0.12-0.17,0.23-0.33,0.33-0.5c0.48-0.77,0.9-1.59,1.23-2.45c0.08-0.2,0.16-0.4,0.23-0.6
			c0.08-0.24,0.15-0.47,0.22-0.71c0.07-0.22,0.13-0.45,0.18-0.67c0.05-0.19,0.09-0.38,0.13-0.57c0.02-0.14,0.05-0.27,0.07-0.41
			c0.03-0.18,0.06-0.35,0.08-0.53c0.09-0.67,0.14-1.35,0.14-2.04C330.78,219.86,329.1,216.1,326.37,213.37z"/>
		<path style="fill:#CE3E6B;" d="M326.37,213.37c-1.62-1.63-3.62-2.88-5.85-3.62c-0.5-0.17-1.02-0.31-1.54-0.43
			c-3.08-42.28-38.37-75.63-81.43-75.63v75.28v19.844h-92.449c0.742,2.225,1.995,4.209,3.614,5.838
			c2.392,2.402,5.588,3.979,9.139,4.334c0.491,0.052,0.992,0.084,1.504,0.084h78.192h78.16h0.02h2.812v-0.282
			c0.649-0.123,1.288-0.273,1.908-0.478c0.21-0.07,0.42-0.14,0.62-0.22c0.2-0.08,0.4-0.16,0.6-0.24c0.2-0.09,0.4-0.18,0.59-0.27
			c0.14-0.07,0.27-0.13,0.41-0.2c0.17-0.09,0.33-0.18,0.5-0.28c0.19-0.11,0.38-0.22,0.57-0.34c0.97-0.61,1.86-1.32,2.65-2.12
			c0.16-0.16,0.31-0.32,0.47-0.48c0.47-0.53,0.91-1.09,1.31-1.67c0.12-0.17,0.23-0.33,0.33-0.5c0.48-0.77,0.9-1.59,1.23-2.45
			c0.08-0.2,0.16-0.4,0.23-0.6c0.08-0.24,0.15-0.47,0.22-0.71c0.07-0.22,0.13-0.45,0.18-0.67c0.05-0.19,0.09-0.38,0.13-0.57
			c0.02-0.14,0.05-0.27,0.07-0.41c0.03-0.18,0.06-0.35,0.08-0.53c0.09-0.67,0.14-1.35,0.14-2.04
			C330.78,219.86,329.1,216.1,326.37,213.37z"/>
	</g>
	<g>
		<path style="fill:#669FF2;" d="M319.21,148.5c0,4.59-0.38,9.09-1.1,13.46c-0.58,3.48-1.37,6.88-2.38,10.18
			c-0.01,0.04-0.02,0.05-0.02,0.08H159.38c0-0.03-0.01-0.04-0.02-0.08c-1-3.3-1.8-6.7-2.38-10.18c-0.72-4.37-1.1-8.87-1.1-13.46
			c0-1.87,0.06-3.76,0.2-5.61c0.01-0.14,0.02-0.27,0.03-0.42c0.76-10.39,3.46-20.24,7.74-29.19c1.31-2.72,2.75-5.36,4.35-7.9
			c14.41-23.13,40.08-38.53,69.35-38.53c29.26,0,54.94,15.4,69.34,38.53c1.6,2.54,3.05,5.18,4.35,7.9
			c4.28,8.95,6.99,18.8,7.74,29.19c0.01,0.15,0.02,0.28,0.03,0.42C319.15,144.74,319.21,146.63,319.21,148.5z"/>
		<path style="fill:#669FF2;" d="M330.78,157.165c0,0.35-0.01,0.69-0.04,1.02c-0.02,0.34-0.05,0.67-0.1,1.01
			c-0.02,0.16-0.04,0.32-0.07,0.47c-0.14,0.85-0.35,1.67-0.63,2.47c-0.06,0.19-0.13,0.38-0.21,0.56c-0.75,1.92-1.9,3.65-3.34,5.09
			c-0.2,0.21-0.41,0.41-0.63,0.6c-0.04,0.04-0.08,0.08-0.12,0.11c-0.21,0.19-0.43,0.37-0.65,0.54c-0.17,0.13-0.34,0.26-0.52,0.39
			c-0.19,0.13-0.37,0.26-0.57,0.38c-0.34,0.23-0.7,0.44-1.06,0.63c-0.29,0.16-0.57,0.3-0.87,0.44c-0.01,0-0.01,0-0.02,0.01
			c-0.29,0.13-0.58,0.25-0.88,0.36c-0.2,0.07-0.41,0.15-0.62,0.22c-0.31,0.1-0.62,0.19-0.94,0.27c-0.29,0.08-0.57,0.14-0.86,0.2
			c-0.04,0.01-0.08,0.02-0.11,0.02c-0.43,0.08-0.86,0.15-1.3,0.19c-0.49,0.05-1,0.08-1.51,0.08H159.36c-0.51,0-1.02-0.03-1.51-0.08
			c-3.55-0.36-6.74-1.93-9.14-4.34c-1.61-1.63-2.87-3.61-3.61-5.84c-0.52-1.5-0.79-3.11-0.79-4.8c0-6.64,4.3-12.27,10.26-14.27
			c0.5-0.17,1.02-0.31,1.54-0.42c1.05-0.23,2.14-0.35,3.25-0.35h156.37c0.56,0,1.12,0.03,1.66,0.09c0.27,0.03,0.53,0.07,0.8,0.11
			c0.26,0.04,0.53,0.09,0.79,0.15c0.27,0.06,0.54,0.12,0.8,0.2c0.25,0.06,0.5,0.14,0.74,0.22c2.23,0.74,4.23,2,5.85,3.63
			C329.1,149.245,330.78,153.005,330.78,157.165z"/>
		<path style="fill:#3678C6;" d="M326.37,146.525c-1.62-1.63-3.62-2.89-5.85-3.63c-0.24-0.08-0.49-0.16-0.74-0.22
			c-0.26-0.08-0.53-0.14-0.8-0.2c-3.07-42.27-38.36-75.63-81.43-75.63v75.28v19.84H145.1c0.74,2.23,2,4.21,3.61,5.84
			c2.4,2.41,5.59,3.98,9.14,4.34c0.49,0.05,1,0.08,1.51,0.08h78.19h78.16h0.02h2.81v-0.27c0.03,0,0.07-0.01,0.11-0.02
			c0.29-0.06,0.57-0.12,0.86-0.2c0.32-0.08,0.63-0.17,0.94-0.27c0.21-0.07,0.42-0.15,0.62-0.22c0.3-0.11,0.59-0.23,0.88-0.36
			c0.01-0.01,0.01-0.01,0.02-0.01c0.3-0.14,0.58-0.28,0.87-0.44c0.36-0.19,0.72-0.4,1.06-0.63c0.2-0.12,0.38-0.25,0.57-0.38
			c0.18-0.13,0.35-0.26,0.52-0.39c0.22-0.17,0.44-0.35,0.65-0.54c0.04-0.03,0.08-0.07,0.12-0.11c0.22-0.19,0.43-0.39,0.63-0.6
			c1.44-1.44,2.59-3.17,3.34-5.09c0.08-0.18,0.15-0.37,0.21-0.56c0.28-0.8,0.49-1.62,0.63-2.47c0.03-0.15,0.05-0.31,0.07-0.47
			c0.05-0.34,0.08-0.67,0.1-1.01c0.03-0.33,0.04-0.67,0.04-1.02C330.78,153.005,329.1,149.245,326.37,146.525z"/>
		<path style="fill:#FFFFFF;" d="M172.073,149.142c-0.134,0-0.269-0.005-0.404-0.015c-3.03-0.22-5.307-2.854-5.087-5.884
			c0.657-9.051,3.015-17.767,7.008-25.907c1.338-2.728,4.634-3.854,7.36-2.516c2.727,1.338,3.854,4.633,2.516,7.36
			c-3.369,6.868-5.358,14.222-5.914,21.859C177.343,146.934,174.929,149.142,172.073,149.142z"/>
		<path style="fill:#3678C6;" d="M311.24,113.28H163.85c1.31-2.72,2.75-5.36,4.35-7.9h138.69
			C308.49,107.92,309.94,110.56,311.24,113.28z"/>
	</g>
	<path style="fill:#FFFFFF;" d="M172.073,215.628c-0.134,0-0.269-0.004-0.404-0.015c-3.03-0.22-5.307-2.854-5.087-5.884
		c0.657-9.051,3.015-17.767,7.008-25.907c1.338-2.727,4.634-3.853,7.36-2.516c2.727,1.338,3.854,4.633,2.516,7.36
		c-3.369,6.868-5.358,14.222-5.914,21.859C177.343,213.42,174.929,215.628,172.073,215.628z"/>
	<g>
		<path style="fill:#A3E261;" d="M326.37,79.68c-1.62-1.63-3.62-2.89-5.85-3.63c-0.24-0.08-0.49-0.16-0.74-0.22
			c-0.26-0.08-0.53-0.14-0.8-0.2C315.91,33.36,280.62,0,237.55,0c-43.08,0-78.37,33.36-81.44,75.63c-0.52,0.11-1.04,0.25-1.54,0.42
			c-5.96,2-10.26,7.63-10.26,14.27c0,1.69,0.27,3.3,0.79,4.8c0.74,2.23,2,4.21,3.61,5.84c2.4,2.41,5.59,3.98,9.14,4.34
			c0.49,0.05,1,0.08,1.51,0.08h0.02h156.33h0.02c0.51,0,1.02-0.03,1.51-0.08c0.44-0.04,0.87-0.11,1.3-0.19
			c0.03,0,0.07-0.01,0.11-0.02c0.29-0.06,0.57-0.12,0.86-0.2c0.32-0.08,0.63-0.17,0.94-0.27c0.21-0.07,0.42-0.15,0.62-0.22
			c0.3-0.11,0.59-0.23,0.88-0.36c0.01-0.01,0.01-0.01,0.02-0.01c0.3-0.14,0.58-0.28,0.87-0.44c0.36-0.19,0.72-0.4,1.06-0.63
			c0.2-0.12,0.38-0.25,0.57-0.38c0.18-0.13,0.35-0.26,0.52-0.39c0.22-0.17,0.44-0.35,0.65-0.54c0.04-0.03,0.08-0.07,0.12-0.11
			c0.22-0.19,0.43-0.39,0.63-0.6c1.44-1.44,2.59-3.17,3.34-5.09c0.08-0.18,0.15-0.37,0.21-0.56c0.28-0.8,0.49-1.62,0.63-2.47
			c0.03-0.15,0.05-0.31,0.07-0.47c0.05-0.34,0.08-0.67,0.1-1.01c0.03-0.33,0.04-0.67,0.04-1.02
			C330.78,86.16,329.1,82.4,326.37,79.68z"/>
		<path style="fill:#FFFFFF;" d="M215.457,25.355c-2.253,0-4.367-1.395-5.175-3.637c-1.03-2.858,0.452-6.009,3.31-7.039
			c3.366-1.213,6.851-2.176,10.358-2.862c2.98-0.584,5.87,1.359,6.454,4.341c0.583,2.981-1.36,5.871-4.341,6.454
			c-2.959,0.58-5.901,1.392-8.743,2.416C216.705,25.25,216.075,25.355,215.457,25.355z"/>
		<path style="fill:#FFFFFF;" d="M172.988,75.173c-0.332,0-0.668-0.03-1.006-0.093c-2.987-0.552-4.96-3.421-4.408-6.408
			c3.375-18.258,14.165-34.854,29.602-45.534c2.499-1.729,5.925-1.104,7.652,1.394c1.729,2.498,1.104,5.924-1.394,7.652
			c-13.064,9.039-22.193,23.067-25.044,38.488C177.9,73.321,175.588,75.173,172.988,75.173z"/>
		<path style="fill:#90BC61;" d="M326.37,79.68c-1.62-1.63-3.62-2.89-5.85-3.63c-0.24-0.08-0.49-0.16-0.74-0.22
			c-0.26-0.08-0.53-0.14-0.8-0.2C315.91,33.36,280.62,0,237.55,0v75.28v19.84H145.1c0.74,2.23,2,4.21,3.61,5.84
			c2.4,2.41,5.59,3.98,9.14,4.34c0.49,0.05,1,0.08,1.51,0.08h78.19h78.16h0.02h2.81v-0.27c0.03,0,0.07-0.01,0.11-0.02
			c0.29-0.06,0.57-0.12,0.86-0.2c0.32-0.08,0.63-0.17,0.94-0.27c0.21-0.07,0.42-0.15,0.62-0.22c0.3-0.11,0.59-0.23,0.88-0.36
			c0.01-0.01,0.01-0.01,0.02-0.01c0.3-0.14,0.58-0.28,0.87-0.44c0.36-0.19,0.72-0.4,1.06-0.63c0.2-0.12,0.38-0.25,0.57-0.38
			c0.18-0.13,0.35-0.26,0.52-0.39c0.22-0.17,0.44-0.35,0.65-0.54c0.04-0.03,0.08-0.07,0.12-0.11c0.22-0.19,0.43-0.39,0.63-0.6
			c1.44-1.44,2.59-3.17,3.34-5.09c0.08-0.18,0.15-0.37,0.21-0.56c0.28-0.8,0.49-1.62,0.63-2.47c0.03-0.15,0.05-0.31,0.07-0.47
			c0.05-0.34,0.08-0.67,0.1-1.01c0.03-0.33,0.04-0.67,0.04-1.02C330.78,86.16,329.1,82.4,326.37,79.68z"/>
	</g>
	<path style="fill:#CE3E6B;" d="M311.24,180.125H163.85c1.31-2.72,2.75-5.36,4.35-7.9h138.69
		C308.49,174.765,309.94,177.405,311.24,180.125z"/>
</g>
<g>
</g>
<g>
</g>
<g>
</g>
<g>
</g>
<g>
</g>
<g>
</g>
<g>
</g>
<g>
</g>
<g>
</g>
<g>
</g>
<g>
</g>
<g>
</g>
<g>
</g>
<g>
</g>
<g>
</g>
</svg>
