<?xml version="1.0" encoding="iso-8859-1"?>
<!-- Generator: Adobe Illustrator 19.0.0, SVG Export Plug-In . SVG Version: 6.00 Build 0)  -->
<svg version="1.1" id="Layer_1" xmlns="http://www.w3.org/2000/svg" xmlns:xlink="http://www.w3.org/1999/xlink" x="0px" y="0px"
	 viewBox="0 0 450.363 450.363" style="enable-background:new 0 0 450.363 450.363;" xml:space="preserve">
<g>
	<path style="fill:#FCEDCA;" d="M278.427,20.92v309.3c0,7.25-3.68,13.63-9.27,17.38c-3.33,2.24-7.34,3.54-11.65,3.54h-64.65
		c-11.56,0-20.92-9.36-20.92-20.92V20.92c0-7.32,3.75-13.76,9.44-17.49c3.29-2.17,7.24-3.43,11.48-3.43h64.65
		C269.066,0,278.427,9.36,278.427,20.92z"/>
	<g>
		<path style="fill:#E85858;" d="M278.427,38.68v33.51l-53.24-19.33l-53.25-19.34v-12.6c0-7.32,3.75-13.76,9.44-17.49l43.81,15.91
			L278.427,38.68z"/>
		<polygon style="fill:#E85858;" points="278.427,108.38 278.427,141.88 225.186,122.55 171.936,103.21 171.936,69.7 225.186,89.04 
					"/>
		<polygon style="fill:#E85858;" points="278.427,178.07 278.427,211.58 225.186,192.25 171.936,172.91 171.936,139.39 
			225.186,158.73 		"/>
		<polygon style="fill:#E85858;" points="278.427,247.77 278.427,281.28 225.186,261.95 171.936,242.61 171.936,209.09 
			225.186,228.43 		"/>
		<path style="fill:#E85858;" d="M278.427,317.47v12.75c0,7.25-3.68,13.63-9.27,17.38l-43.97-15.97l-53.25-19.33v-33.51l53.25,19.34
			L278.427,317.47z"/>
	</g>
	<path style="fill:#DDC89F;" d="M278.427,20.92v309.3c0,7.25-3.68,13.63-9.27,17.38c-3.33,2.24-7.34,3.54-11.65,3.54h-32.32V0h32.32
		C269.066,0,278.427,9.36,278.427,20.92z"/>
	<g>
		<polygon style="fill:#CE3E3E;" points="278.427,38.68 278.427,72.19 225.186,52.86 225.186,19.34 		"/>
		<polygon style="fill:#CE3E3E;" points="278.427,108.38 278.427,141.88 225.186,122.55 225.186,89.04 		"/>
		<polygon style="fill:#CE3E3E;" points="278.427,178.07 278.427,211.58 225.186,192.25 225.186,158.73 		"/>
		<polygon style="fill:#CE3E3E;" points="278.427,247.77 278.427,281.28 225.186,261.95 225.186,228.43 		"/>
		<path style="fill:#CE3E3E;" d="M278.427,317.47v12.75c0,7.25-3.68,13.63-9.27,17.38l-43.97-15.97v-33.5L278.427,317.47z"/>
	</g>
	<path style="fill:#FFFFFF;" d="M187.936,86.7c-3.038,0-5.5-2.462-5.5-5.5V20.92c0-3.525,1.756-6.781,4.697-8.709
		c1.718-1.133,3.647-1.711,5.723-1.711h10.93c3.038,0,5.5,2.462,5.5,5.5s-2.462,5.5-5.5,5.5h-10.35v59.7
		C193.436,84.237,190.974,86.7,187.936,86.7z"/>
	<path style="fill:#FFFFFF;" d="M187.936,128.7c-3.038,0-5.5-2.462-5.5-5.5v-19c0-3.038,2.462-5.5,5.5-5.5s5.5,2.462,5.5,5.5v19
		C193.436,126.238,190.974,128.7,187.936,128.7z"/>
	<g>
		<path style="fill:#F9DB87;" d="M237.932,351.143v90.32c0,4.91-3.99,8.9-8.9,8.9h-7.7c-4.91,0-8.9-3.99-8.9-8.9v-90.32H237.932z"/>
		<rect x="212.432" y="351.14" style="fill:#E5B94C;" width="25.499" height="24.999"/>
		<path style="fill:#E5B94C;" d="M237.932,351.143v90.32c0,4.91-3.99,8.9-8.9,8.9h-3.85v-99.22H237.932z"/>
	</g>
</g>
<g>
</g>
<g>
</g>
<g>
</g>
<g>
</g>
<g>
</g>
<g>
</g>
<g>
</g>
<g>
</g>
<g>
</g>
<g>
</g>
<g>
</g>
<g>
</g>
<g>
</g>
<g>
</g>
<g>
</g>
</svg>
