<?xml version="1.0" encoding="iso-8859-1"?>
<!-- Generator: Adobe Illustrator 19.0.0, SVG Export Plug-In . SVG Version: 6.00 Build 0)  -->
<svg version="1.1" id="Layer_1" xmlns="http://www.w3.org/2000/svg" xmlns:xlink="http://www.w3.org/1999/xlink" x="0px" y="0px"
	 viewBox="0 0 459.716 459.716" style="enable-background:new 0 0 459.716 459.716;" xml:space="preserve">
<g>
	<g>
		<path style="fill:#F9DB87;" d="M259.107,326.986v103.48c0,16.16-13.1,29.25-29.25,29.25c-16.16,0-29.25-13.09-29.25-29.25v-103.48
			H259.107z"/>
		<path style="fill:#E5B94C;" d="M259.107,326.986v103.48c0,16.16-13.1,29.25-29.25,29.25v-132.73L259.107,326.986L259.107,326.986z
			"/>
		<rect x="200.607" y="326.985" style="fill:#E5B94C;" width="58.5" height="22.9"/>
	</g>
	<path style="fill:#EA587F;" d="M278.233,326.99h-96.75c-12.93,0-23.29-10.69-22.9-23.61l1.79-58.14h138.97l1.79,58.14
		C301.523,316.3,291.163,326.99,278.233,326.99z"/>
	<polygon style="fill:#44B9B1;" points="299.343,245.24 160.373,245.24 162.883,163.49 296.833,163.49 	"/>
	<polygon style="fill:#FFD41D;" points="296.833,163.49 162.883,163.49 165.393,81.75 294.323,81.75 	"/>
	<path style="fill:#669FF2;" d="M294.323,81.75h-128.93l1.83-59.55c0.38-12.37,10.52-22.2,22.89-22.2h79.49
		c12.37,0,22.51,9.83,22.89,22.2L294.323,81.75z"/>
	<path style="fill:#3678C6;" d="M294.323,81.75h-64.47V0h39.75c12.37,0,22.51,9.83,22.89,22.2L294.323,81.75z"/>
	<path style="fill:#CE3E6B;" d="M278.233,326.99h-48.38v-81.75h69.49l1.79,58.14C301.523,316.3,291.163,326.99,278.233,326.99z"/>
	<polygon style="fill:#28A599;" points="299.343,245.24 229.853,245.24 229.853,163.49 296.833,163.49 	"/>
	<polygon style="fill:#FFA91F;" points="296.833,163.49 229.853,163.49 229.853,81.75 294.323,81.75 	"/>
	<path style="fill:#FFFFFF;" d="M217.126,21.5h-6.666c-3.037,0-5.5-2.462-5.5-5.5s2.463-5.5,5.5-5.5h6.666
		c3.037,0,5.5,2.462,5.5,5.5S220.163,21.5,217.126,21.5z"/>
	<path style="fill:#FFFFFF;" d="M180.185,126.89c-0.057,0-0.114-0.001-0.172-0.003c-3.036-0.093-5.422-2.63-5.328-5.666
		l3.032-98.699c0.209-6.742,5.653-12.023,12.396-12.023c3.037,0,5.5,2.462,5.5,5.5s-2.463,5.5-5.5,5.5
		c-0.774,0-1.377,0.585-1.401,1.362l-3.032,98.698C185.589,124.538,183.144,126.89,180.185,126.89z"/>
</g>
<g>
</g>
<g>
</g>
<g>
</g>
<g>
</g>
<g>
</g>
<g>
</g>
<g>
</g>
<g>
</g>
<g>
</g>
<g>
</g>
<g>
</g>
<g>
</g>
<g>
</g>
<g>
</g>
<g>
</g>
</svg>
