<?xml version="1.0" encoding="iso-8859-1"?>
<!-- Generator: Adobe Illustrator 19.0.0, SVG Export Plug-In . SVG Version: 6.00 Build 0)  -->
<svg version="1.1" id="Layer_1" xmlns="http://www.w3.org/2000/svg" xmlns:xlink="http://www.w3.org/1999/xlink" x="0px" y="0px"
	 viewBox="0 0 443.646 443.646" style="enable-background:new 0 0 443.646 443.646;" xml:space="preserve">
<g>
	<path style="fill:#E85858;" d="M311.403,310.92h-179.16c-19.3,0-32.81-19.07-26.41-37.28l89.58-254.93
		C199.793,6.23,210.803,0,221.823,0c11.01,0,22.02,6.23,26.41,18.71l89.58,254.93C344.213,291.85,330.703,310.92,311.403,310.92z"/>
	<path style="fill:#CE3E3E;" d="M311.403,310.92h-89.58V0c11.01,0,22.02,6.23,26.41,18.71l89.58,254.93
		C344.213,291.85,330.703,310.92,311.403,310.92z"/>
	<path style="fill:#F9DB87;" d="M251.07,310.916v103.48c0,16.16-13.1,29.25-29.25,29.25c-16.16,0-29.25-13.09-29.25-29.25v-103.48
		H251.07z"/>
	<path style="fill:#E5B94C;" d="M251.07,310.916v103.48c0,16.16-13.1,29.25-29.25,29.25v-132.73L251.07,310.916L251.07,310.916z"/>
	<rect x="192.57" y="310.916" style="fill:#E5B94C;" width="58.5" height="22.9"/>
	<path style="fill:#FFFFFF;" d="M203.381,49.797c-0.605,0-1.221-0.101-1.823-0.313c-2.866-1.007-4.373-4.147-3.365-7.012
		l4.12-11.724c1.007-2.866,4.148-4.373,7.012-3.365c2.866,1.007,4.373,4.147,3.365,7.012l-4.12,11.724
		C207.775,48.382,205.65,49.797,203.381,49.797z"/>
	<path style="fill:#FFFFFF;" d="M151.218,198.245c-0.605,0-1.22-0.101-1.823-0.313c-2.866-1.007-4.373-4.146-3.365-7.012
		l44.82-127.55c1.007-2.866,4.145-4.372,7.012-3.366c2.866,1.007,4.373,4.146,3.365,7.012l-44.82,127.55
		C155.611,196.829,153.487,198.245,151.218,198.245z"/>
	<path style="fill:#A3E261;" d="M311.403,310.92h-179.16c-19.3,0-32.81-19.07-26.41-37.28h231.98
		C344.213,291.85,330.703,310.92,311.403,310.92z"/>
	<path style="fill:#90BC61;" d="M311.403,310.92h-89.58v-37.28h115.99C344.213,291.85,330.703,310.92,311.403,310.92z"/>
</g>
<g>
</g>
<g>
</g>
<g>
</g>
<g>
</g>
<g>
</g>
<g>
</g>
<g>
</g>
<g>
</g>
<g>
</g>
<g>
</g>
<g>
</g>
<g>
</g>
<g>
</g>
<g>
</g>
<g>
</g>
</svg>
