<?xml version="1.0" encoding="iso-8859-1"?>
<!-- Generator: Adobe Illustrator 19.0.0, SVG Export Plug-In . SVG Version: 6.00 Build 0)  -->
<svg version="1.1" id="Layer_1" xmlns="http://www.w3.org/2000/svg" xmlns:xlink="http://www.w3.org/1999/xlink" x="0px" y="0px"
	 viewBox="0 0 442.58 442.58" style="enable-background:new 0 0 442.58 442.58;" xml:space="preserve">
<g>
	<path style="fill:#A3E261;" d="M311.675,155.113c0,9.097-1.341,17.883-3.849,26.16c-11.213,37.164-45.707,64.226-86.536,64.226
		c-40.817,0-75.323-27.061-86.536-64.226c-2.509-8.277-3.849-17.062-3.849-26.16c0-2.069,0.069-4.161,0.22-6.208
		c3.179-47.013,42.332-84.178,90.166-84.178s86.987,37.165,90.166,84.178C311.606,150.951,311.675,153.044,311.675,155.113z"/>
	<path style="fill:#FFFFFF;" d="M175.349,102.192c-1.628,0-3.239-0.719-4.324-2.096c-1.88-2.386-1.47-5.844,0.917-7.724
		c2.073-1.634,4.25-3.181,6.47-4.6c2.559-1.636,5.96-0.887,7.597,1.672c1.636,2.559,0.887,5.96-1.673,7.596
		c-1.916,1.225-3.796,2.561-5.587,3.972C177.74,101.806,176.54,102.192,175.349,102.192z"/>
	<path style="fill:#FFFFFF;" d="M148.861,143.698c-0.415,0-0.836-0.047-1.257-0.146c-2.957-0.691-4.795-3.649-4.104-6.607
		c2.185-9.349,6.015-18.15,11.383-26.158c1.69-2.523,5.106-3.198,7.631-1.506c2.523,1.691,3.197,5.108,1.506,7.631
		c-4.627,6.902-7.927,14.485-9.809,22.536C153.619,141.986,151.358,143.698,148.861,143.698z"/>
	<path style="fill:#FFD41D;" d="M310.943,180.349l-0.3,0.92l-5.41,17.01l-5.45,17.18h-0.02l-70.26,221.11
		c-1.26,4.01-4.73,6.01-8.21,6.01c-3.47,0-6.95-2-8.22-6.01l-33.36-104.97l-36.55-115l-4.08-12.83l-1.74-5.49l-1.58-4.96
		l-3.83-12.05l-0.15-0.49l-0.14-0.43L310.943,180.349L310.943,180.349z"/>
	<path style="fill:#90BC61;" d="M311.675,155.113c0,9.097-1.341,17.883-3.849,26.16c-11.213,37.164-45.707,64.226-86.536,64.226
		V64.727c47.834,0,86.987,37.165,90.166,84.178C311.606,150.951,311.675,153.044,311.675,155.113z"/>
	<path style="fill:#FFA91F;" d="M310.935,180.348l-11.155,35.118h-0.012l-70.26,221.103c-1.272,4.011-4.74,6.011-8.219,6.011
		V180.348H310.935z"/>
	<path style="fill:#A3E261;" d="M324.483,164.696c0,8.15-5.826,14.912-13.548,16.369c-0.474,0.092-0.96,0.162-1.445,0.208
		c-0.543,0.058-1.098,0.092-1.665,0.092H134.754c-0.566,0-1.121-0.035-1.665-0.092c-3.93-0.393-7.468-2.139-10.115-4.797
		c-1.792-1.803-3.179-4-4-6.462c-0.578-1.665-0.878-3.445-0.878-5.318c0-7.352,4.762-13.583,11.363-15.791
		c1.665-0.555,3.445-0.855,5.294-0.855h173.072c1.85,0,3.63,0.301,5.294,0.855c2.474,0.821,4.681,2.208,6.485,4.011
		C322.622,155.933,324.483,160.095,324.483,164.696z"/>
	<path style="fill:#90BC61;" d="M324.483,164.696c0,8.647-6.566,15.733-14.993,16.577c-0.543,0.058-1.098,0.092-1.665,0.092H221.29
		l0.003-37.666h85.75c1.244,0,2.309,4.095,4.313,4.673c1.219,0.352,1.219,0.352,1.765,0.534c2.474,0.821,4.681,2.208,6.485,4.011
		C322.622,155.933,324.483,160.095,324.483,164.696z"/>
	<path style="fill:#90BC61;" d="M310.935,170.013v11.352H134.754c-0.566,0-1.121-0.035-1.665-0.092
		c-3.93-0.393-7.468-2.139-10.115-4.797c-1.792-1.803-3.179-4-4-6.462h191.961V170.013z"/>
	<path style="fill:#EA587F;" d="M271.143,38.859c-4.21-4.2-10.02-6.81-16.45-6.81h-2.702c0-0.001,0-0.001,0-0.002
		c0-17.618-14.218-31.912-31.801-32.047c1.02,2.632,1.583,5.492,1.583,8.487c0,12.859-10.303,23.303-23.104,23.549v0.012
		c0,0-10.79,0.001-10.79,0.002h-0.006c-12.84,0-23.26,10.42-23.26,23.26c0,6.43,2.6,12.24,6.81,16.46c0.47,0.46,0.95,0.9,1.44,1.32
		c4.06,3.42,9.29,5.49,15.01,5.49h66.82c5.72,0,10.96-2.07,15.01-5.49c5.05-4.27,8.26-10.65,8.26-17.78
		C277.964,48.889,275.353,43.079,271.143,38.859z"/>
	<path style="fill:#CE3E6B;" d="M277.965,55.304c0-6.42-2.61-12.23-6.82-16.45c-4.21-4.2-10.02-6.81-16.45-6.81h-2.7
		c0-17.61-14.22-31.91-31.8-32.04c13.44,10.41,12.11,19.25,8.37,24.99c-1.46,2.24-2.69,4.6-3.7,7.05
		c-2.4,5.79-3.57,12.07-3.57,18.39v4.875h-56.682c0,6.43,2.6,12.24,6.81,16.46c0.47,0.46,0.95,0.9,1.44,1.32
		c4.06,3.42,9.29,5.49,15.01,5.49h66.82c5.72,0,10.96-2.07,15.01-5.49c3.157-2.67,5.595-6.164,6.979-10.151
		C277.513,60.547,277.965,57.978,277.965,55.304z"/>
	<g>
		<path style="fill:#FFD41D;" d="M317.15,194.951v8.82H125.43v-8.82c0-8.06,6.53-14.6,14.59-14.6h162.53
			C310.61,180.351,317.15,186.891,317.15,194.951z"/>
		<path style="fill:#FFA91F;" d="M317.15,194.951v8.82h-95.86v-23.42h81.26C310.61,180.351,317.15,186.891,317.15,194.951z"/>
	</g>
	<polygon style="fill:#FFA91F;" points="238.403,203.769 238.403,216.599 143.163,216.599 139.083,203.769 	"/>
</g>
<g>
</g>
<g>
</g>
<g>
</g>
<g>
</g>
<g>
</g>
<g>
</g>
<g>
</g>
<g>
</g>
<g>
</g>
<g>
</g>
<g>
</g>
<g>
</g>
<g>
</g>
<g>
</g>
<g>
</g>
</svg>
