<?xml version="1.0" encoding="iso-8859-1"?>
<!-- Generator: Adobe Illustrator 19.0.0, SVG Export Plug-In . SVG Version: 6.00 Build 0)  -->
<svg version="1.1" id="Layer_1" xmlns="http://www.w3.org/2000/svg" xmlns:xlink="http://www.w3.org/1999/xlink" x="0px" y="0px"
	 viewBox="0 0 433.48 433.48" style="enable-background:new 0 0 433.48 433.48;" xml:space="preserve">
<g>
	<path style="fill:#B5600B;" d="M271.4,253.009l-86.667,0.333c-26.64,0-53.333,5.667-65.493-2.002l19.18-210.16
		C140.54,17.85,160.1,0,183.52,0h66.42c23.42,0,42.98,17.85,45.1,41.18l19.18,210.16C316.64,277.87,298.04,253.009,271.4,253.009z"
		/>
	<path style="fill:#914D09;" d="M269.11,300.75h-52.38V0h33.21c23.42,0,42.98,17.85,45.1,41.18l19.18,210.16
		C316.64,277.87,295.75,300.75,269.11,300.75z"/>
	<path style="fill:#F9DB87;" d="M245.98,300.75v103.48c0,16.16-13.1,29.25-29.25,29.25c-16.16,0-29.25-13.09-29.25-29.25V300.75
		H245.98z"/>
	<path style="fill:#E5B94C;" d="M245.98,300.75v103.48c0,16.16-13.1,29.25-29.25,29.25V300.75H245.98z"/>
	<path style="fill:#FCEDCA;" d="M269.11,300.75H164.35c-26.64,0-47.53-22.88-45.11-49.41h194.98
		C316.64,277.87,295.75,300.75,269.11,300.75z"/>
	<rect x="187.48" y="300.75" style="fill:#E5B94C;" width="58.5" height="22.9"/>
	<path style="fill:#DDC89F;" d="M269.11,300.75h-52.38v-49.41h97.49C316.64,277.87,295.75,300.75,269.11,300.75z"/>
	<path style="fill:#FFFFFF;" d="M203.369,21.5h-11c-3.037,0-5.5-2.462-5.5-5.5s2.463-5.5,5.5-5.5h11c3.037,0,5.5,2.462,5.5,5.5
		S206.406,21.5,203.369,21.5z"/>
	<path style="fill:#FFFFFF;" d="M149.597,100.326c-0.168,0-0.337-0.008-0.507-0.023c-3.024-0.276-5.253-2.952-4.978-5.977
		l4.763-52.191c1.087-11.954,8.061-22.344,18.656-27.79c2.703-1.39,6.018-0.324,7.406,2.377c1.389,2.702,0.324,6.017-2.377,7.406
		c-7.228,3.715-11.987,10.82-12.73,19.005l-4.763,52.193C154.807,98.18,152.409,100.326,149.597,100.326z"/>
</g>
<g>
</g>
<g>
</g>
<g>
</g>
<g>
</g>
<g>
</g>
<g>
</g>
<g>
</g>
<g>
</g>
<g>
</g>
<g>
</g>
<g>
</g>
<g>
</g>
<g>
</g>
<g>
</g>
<g>
</g>
</svg>
