<?xml version="1.0" encoding="iso-8859-1"?>
<!-- Generator: Adobe Illustrator 19.0.0, SVG Export Plug-In . SVG Version: 6.00 Build 0)  -->
<svg version="1.1" id="Layer_1" xmlns="http://www.w3.org/2000/svg" xmlns:xlink="http://www.w3.org/1999/xlink" x="0px" y="0px"
	 viewBox="0 0 458.53 458.53" style="enable-background:new 0 0 458.53 458.53;" xml:space="preserve">
<g>
	<g>
		<path style="fill:#F9DB87;" d="M258.51,325.8v103.48c0,16.16-13.1,29.25-29.25,29.25c-16.16,0-29.25-13.09-29.25-29.25V325.8
			H258.51z"/>
		<path style="fill:#E5B94C;" d="M258.51,325.8v103.48c0,16.16-13.1,29.25-29.25,29.25V325.8H258.51z"/>
	</g>
	<path style="fill:#E5B94C;" d="M252.821,325.8c0.03,9.6-5.67,18.71-15.1,22.56l-8.46,3.45l-29.25,11.92V325.8H252.821z"/>
	<path style="fill:#3678C6;" d="M279.771,46.71l-40.66,16.57c-3,1.22-6.1,1.8-9.15,1.8c-0.23,0-0.47,0-0.7-0.02
		c-9.3-0.26-18.01-5.91-21.75-15.08c-5.06-12.4,0.9-26.55,13.3-31.6l8.45-3.45L261.47,1.8c3-1.22,6.09-1.8,9.14-1.8
		c9.57,0,18.63,5.7,22.47,15.1C298.13,27.5,292.18,41.65,279.771,46.71z"/>
	<path style="fill:#FFD41D;" d="M197.056,342.52l40.662-16.573c12.401-5.054,18.356-19.204,13.302-31.605l0,0
		c-5.054-12.401-19.204-18.356-31.605-13.302l-40.662,16.573c-12.401,5.054-18.356,19.204-13.302,31.605l0,0
		C170.505,341.619,184.655,347.574,197.056,342.52z"/>
	<path style="fill:#FFD41D;" d="M293.081,67.12c-3.84,9.4-12.9,15.1-22.46,15.1c-3.05,0-6.15-0.58-9.15-1.8l-32.21-13.13
		l-50.51-20.58c-12.4-5.06-18.35-19.21-13.3-31.61C169.281,5.7,178.34,0,187.91,0c3.05,0,6.15,0.58,9.15,1.8l32.2,13.13l50.51,20.59
		C292.18,40.57,298.13,54.72,293.081,67.12z"/>
	<path style="fill:#669FF2;" d="M293.081,119.54c-3.84,9.4-12.9,15.1-22.46,15.1c-3.05,0-6.15-0.58-9.15-1.8l-32.21-13.13
		l-50.51-20.58c-12.4-5.06-18.35-19.21-13.3-31.61c3.83-9.4,12.89-15.1,22.46-15.1c3.05,0,6.15,0.58,9.15,1.8l32.2,13.13
		l50.51,20.59C292.18,92.99,298.13,107.14,293.081,119.54z"/>
	<path style="fill:#FFD41D;" d="M293.081,171.96c-3.84,9.4-12.9,15.1-22.46,15.1c-3.05,0-6.15-0.58-9.15-1.8l-32.21-13.13
		l-50.51-20.58c-12.4-5.06-18.35-19.21-13.3-31.61c3.83-9.4,12.89-15.1,22.46-15.1c3.05,0,6.15,0.58,9.15,1.8l32.2,13.13
		l50.51,20.59C292.18,145.41,298.13,159.56,293.081,171.96z"/>
	<path style="fill:#669FF2;" d="M293.081,224.38c-3.84,9.4-12.9,15.1-22.46,15.1c-3.05,0-6.15-0.58-9.15-1.8l-32.21-13.13
		l-50.51-20.58c-12.4-5.06-18.35-19.21-13.3-31.61c3.83-9.4,12.89-15.1,22.46-15.1c3.05,0,6.15,0.58,9.15,1.8l32.2,13.12
		l50.51,20.59C292.18,197.83,298.13,211.98,293.081,224.38z"/>
	<path style="fill:#FFD41D;" d="M293.081,276.8c-3.84,9.4-12.9,15.1-22.47,15.1c-3.05,0-6.14-0.58-9.14-1.8l-32.21-13.13
		l-50.51-20.58c-12.4-5.06-18.35-19.21-13.3-31.61c3.83-9.4,12.89-15.1,22.46-15.1c3.05,0,6.15,0.58,9.15,1.8l32.2,13.12
		l50.51,20.59C292.18,250.25,298.13,264.4,293.081,276.8z"/>
	<path style="fill:#669FF2;" d="M293.081,329.22c-3.84,9.4-12.9,15.1-22.47,15.1c-3.05,0-6.14-0.58-9.14-1.8l-32.21-13.13
		l-50.51-20.59c-12.4-5.05-18.35-19.2-13.3-31.6c3.83-9.4,12.89-15.1,22.46-15.1c3.05,0,6.15,0.58,9.15,1.8l32.2,13.12l50.51,20.59
		C292.18,302.67,298.13,316.82,293.081,329.22z"/>
	<path style="fill:#E5B94C;" d="M293.081,276.8c-3.84,9.4-12.9,15.1-22.47,15.1c-3.05,0-6.14-0.58-9.14-1.8l-32.21-13.13V224.6
		l50.51,20.59C292.18,250.25,298.13,264.4,293.081,276.8z"/>
	<path style="fill:#E5B94C;" d="M293.081,171.96c-3.84,9.4-12.9,15.1-22.46,15.1c-3.05,0-6.15-0.58-9.15-1.8l-32.21-13.13v-52.36
		l50.51,20.59C292.18,145.41,298.13,159.56,293.081,171.96z"/>
	<path style="fill:#E5B94C;" d="M261.47,80.42l-32.21-13.13V14.93l50.51,20.59c12.41,5.05,18.36,19.2,13.31,31.6
		c-3.84,9.4-12.9,15.1-22.46,15.1C267.571,82.22,264.47,81.64,261.47,80.42z"/>
	<path style="fill:#3678C6;" d="M293.081,329.22c-3.84,9.4-12.9,15.1-22.47,15.1c-3.05,0-6.14-0.58-9.14-1.8l-32.21-13.13v-52.37
		l50.51,20.59C292.18,302.67,298.13,316.82,293.081,329.22z"/>
	<path style="fill:#3678C6;" d="M293.081,224.38c-3.84,9.4-12.9,15.1-22.46,15.1c-3.05,0-6.15-0.58-9.15-1.8l-32.21-13.13v-52.37
		l50.51,20.59C292.18,197.83,298.13,211.98,293.081,224.38z"/>
	<path style="fill:#3678C6;" d="M293.081,119.54c-3.84,9.4-12.9,15.1-22.46,15.1c-3.05,0-6.15-0.58-9.15-1.8l-32.21-13.13V67.35
		l50.51,20.59C292.18,92.99,298.13,107.14,293.081,119.54z"/>
	<path style="fill:#FFFFFF;" d="M180.267,26.636c-0.691,0-1.394-0.131-2.073-0.408c-2.813-1.146-4.165-4.356-3.018-7.169
		c2.118-5.199,7.117-8.559,12.735-8.559c1.772,0,3.52,0.345,5.194,1.026c2.813,1.145,4.167,4.353,3.022,7.167
		s-4.352,4.167-7.167,3.022c-1.523-0.62-3.037,0.116-3.598,1.494C184.493,25.343,182.437,26.636,180.267,26.636z"/>
	<path style="fill:#FFFFFF;" d="M180.267,288.736c-0.691,0-1.394-0.131-2.073-0.408c-2.813-1.146-4.165-4.355-3.018-7.168
		c2.119-5.2,7.117-8.56,12.735-8.56c1.772,0,3.52,0.345,5.194,1.026c2.813,1.145,4.167,4.353,3.022,7.167
		c-1.145,2.813-4.352,4.167-7.167,3.022c-1.523-0.619-3.036,0.116-3.598,1.494C184.493,287.444,182.437,288.736,180.267,288.736z"/>
	<path style="fill:#FFFFFF;" d="M180.267,236.316c-0.691,0-1.394-0.131-2.073-0.408c-2.813-1.146-4.165-4.355-3.018-7.168
		c2.118-5.2,7.117-8.559,12.735-8.559c1.772,0,3.52,0.345,5.194,1.026c2.813,1.145,4.167,4.353,3.022,7.167
		c-1.145,2.813-4.352,4.166-7.167,3.022c-1.523-0.619-3.037,0.117-3.598,1.494C184.493,235.023,182.437,236.316,180.267,236.316z"/>
	<path style="fill:#FFFFFF;" d="M180.267,183.896c-0.691,0-1.394-0.131-2.073-0.408c-2.813-1.146-4.165-4.355-3.018-7.168
		c2.118-5.2,7.117-8.559,12.735-8.559c1.772,0,3.52,0.345,5.194,1.026c2.813,1.145,4.167,4.353,3.022,7.167
		c-1.145,2.813-4.352,4.167-7.167,3.022c-1.523-0.619-3.037,0.117-3.598,1.494C184.493,182.603,182.437,183.896,180.267,183.896z"/>
	<path style="fill:#FFFFFF;" d="M180.267,79.056c-0.691,0-1.394-0.131-2.073-0.408c-2.813-1.146-4.165-4.356-3.018-7.169
		c2.118-5.199,7.117-8.559,12.735-8.559c1.772,0,3.52,0.345,5.194,1.026c2.813,1.145,4.167,4.353,3.022,7.167
		c-1.145,2.813-4.352,4.168-7.167,3.022c-1.523-0.62-3.037,0.116-3.598,1.494C184.493,77.763,182.437,79.056,180.267,79.056z"/>
	<path style="fill:#FFFFFF;" d="M180.267,131.476c-0.691,0-1.394-0.131-2.073-0.408c-2.813-1.146-4.165-4.355-3.018-7.168
		c2.118-5.199,7.117-8.559,12.735-8.559c1.772,0,3.52,0.345,5.194,1.026c2.813,1.145,4.167,4.353,3.022,7.167
		c-1.145,2.813-4.352,4.166-7.167,3.022c-1.523-0.619-3.037,0.117-3.598,1.494C184.493,130.183,182.437,131.476,180.267,131.476z"/>
</g>
<g>
</g>
<g>
</g>
<g>
</g>
<g>
</g>
<g>
</g>
<g>
</g>
<g>
</g>
<g>
</g>
<g>
</g>
<g>
</g>
<g>
</g>
<g>
</g>
<g>
</g>
<g>
</g>
<g>
</g>
</svg>
