<?xml version="1.0" encoding="iso-8859-1"?>
<!-- Generator: Adobe Illustrator 19.0.0, SVG Export Plug-In . SVG Version: 6.00 Build 0)  -->
<svg version="1.1" id="Layer_1" xmlns="http://www.w3.org/2000/svg" xmlns:xlink="http://www.w3.org/1999/xlink" x="0px" y="0px"
	 viewBox="0 0 434.98 434.98" style="enable-background:new 0 0 434.98 434.98;" xml:space="preserve">
<g>
	<path style="fill:#EA587F;" d="M246.115,308.27V425.2c0,5.4-4.38,9.78-9.79,9.78h-34.43c-5.4,0-9.78-4.38-9.78-9.78V308.27
		c0-5.41,4.38-9.78,9.78-9.78h34.43C241.735,298.49,246.115,302.86,246.115,308.27z"/>
	<rect x="192.113" y="306.867" style="fill:#CE3E6B;" width="53.997" height="27.333"/>
	<path style="fill:#EA587F;" d="M334.115,282.82v12.635c0,6.398-4.751,11.811-11.097,12.626
		c-35.031,4.501-70.277,6.758-105.523,6.758c-35.255,0-70.501-2.258-105.533-6.758c-6.346-0.815-11.097-6.228-11.097-12.626V282.82
		H334.115z"/>
	<path style="fill:#CAF9F5;" d="M326.785,282.82h-218.59l20.45-254.83C129.915,12.18,143.115,0,158.975,0h117.04
		c15.86,0,29.06,12.18,30.33,27.99L326.785,282.82z"/>
	<path style="fill:#FFFFFF;" d="M203.495,21.5h-10c-3.038,0-5.5-2.462-5.5-5.5s2.462-5.5,5.5-5.5h10c3.038,0,5.5,2.462,5.5,5.5
		S206.533,21.5,203.495,21.5z"/>
	<path style="fill:#FFFFFF;" d="M138.956,105.096c-0.147,0-0.296-0.006-0.446-0.018c-3.028-0.243-5.286-2.895-5.042-5.922
		l5.644-70.326c0.826-10.279,9.551-18.33,19.864-18.33h12.52c3.038,0,5.5,2.462,5.5,5.5s-2.462,5.5-5.5,5.5h-12.52
		c-4.62,0-8.529,3.606-8.899,8.21l-5.644,70.326C144.202,102.914,141.794,105.096,138.956,105.096z"/>
	<path style="fill:#9AF7EB;" d="M326.785,282.82h-109.29V0h58.52c15.86,0,29.06,12.18,30.33,27.99L326.785,282.82z"/>
	<path style="fill:#CE3E6B;" d="M246.115,308.27V425.2c0,5.4-4.38,9.78-9.79,9.78h-18.83V298.49h18.83
		C241.735,298.49,246.115,302.86,246.115,308.27z"/>
	<path style="fill:#CE3E6B;" d="M334.115,282.82v12.635c0,6.398-4.751,11.811-11.097,12.626
		c-35.031,4.501-70.277,6.758-105.523,6.758v-32.02L334.115,282.82L334.115,282.82z"/>
	<path style="fill:#ACE5FC;" d="M256.615,188.7v94.12h-75V188.7c0-20.17,15.92-36.62,35.88-37.46c0.54-0.03,1.08-0.04,1.62-0.04
		C239.825,151.2,256.615,167.99,256.615,188.7z"/>
	<path style="fill:#A3D6EF;" d="M256.615,188.7v94.12h-39.12V151.24c0.54-0.03,1.08-0.04,1.62-0.04
		C239.825,151.2,256.615,167.99,256.615,188.7z"/>
</g>
<g>
</g>
<g>
</g>
<g>
</g>
<g>
</g>
<g>
</g>
<g>
</g>
<g>
</g>
<g>
</g>
<g>
</g>
<g>
</g>
<g>
</g>
<g>
</g>
<g>
</g>
<g>
</g>
<g>
</g>
</svg>
