<?xml version="1.0" encoding="iso-8859-1"?>
<!-- Generator: Adobe Illustrator 19.0.0, SVG Export Plug-In . SVG Version: 6.00 Build 0)  -->
<svg version="1.1" id="Layer_1" xmlns="http://www.w3.org/2000/svg" xmlns:xlink="http://www.w3.org/1999/xlink" x="0px" y="0px"
	 viewBox="0 0 433.481 433.481" style="enable-background:new 0 0 433.481 433.481;" xml:space="preserve">
<g>
	<g>
		<g>
			<path style="fill:#F9DB87;" d="M197.129,331.895v79.199c0,12.368-10.026,22.387-22.387,22.387
				c-12.368,0-22.387-10.018-22.387-22.387v-79.199H197.129z"/>
			<path style="fill:#E5B94C;" d="M197.129,331.895v79.199c0,12.368-10.026,22.387-22.387,22.387V331.895H197.129z"/>
			<rect x="152.355" y="331.895" style="fill:#E5B94C;" width="44.773" height="17.527"/>
		</g>
		<g>
			<path style="fill:#F9DB87;" d="M281.125,331.895v79.199c0,12.368-10.026,22.387-22.387,22.387
				c-12.368,0-22.387-10.018-22.387-22.387v-79.199H281.125z"/>
			<path style="fill:#E5B94C;" d="M281.125,331.895v79.199c0,12.368-10.026,22.387-22.387,22.387V331.895H281.125z"/>
			<rect x="236.352" y="329.895" style="fill:#E5B94C;" width="44.773" height="19.527"/>
		</g>
	</g>
	<path style="fill:#A3E261;" d="M329.296,48.18v260.31h-225.11V48.18c0-26.61,21.57-48.18,48.18-48.18h128.75
		C307.725,0,329.296,21.57,329.296,48.18z"/>
	<path style="fill:#FFFFFF;" d="M193.27,21.5h-14.999c-3.038,0-5.5-2.462-5.5-5.5s2.462-5.5,5.5-5.5h14.999
		c3.038,0,5.5,2.462,5.5,5.5S196.307,21.5,193.27,21.5z"/>
	<path style="fill:#FFFFFF;" d="M120.186,161.75c-3.038,0-5.5-2.462-5.5-5.5V48.18c0-20.777,16.903-37.68,37.68-37.68
		c3.038,0,5.5,2.462,5.5,5.5s-2.462,5.5-5.5,5.5c-14.711,0-26.68,11.968-26.68,26.68v108.07
		C125.686,159.287,123.223,161.75,120.186,161.75z"/>
	<path style="fill:#FCEDCA;" d="M329.296,308.49c0,12.93-10.48,23.41-23.4,23.41h-178.31c-6.46,0-12.31-2.62-16.54-6.86
		c-4.24-4.23-6.86-10.09-6.86-16.55L329.296,308.49L329.296,308.49z"/>
	<path style="fill:#90BC61;" d="M329.296,48.18v260.31h-112.56V0h64.38C307.725,0,329.296,21.57,329.296,48.18z"/>
	<path style="fill:#DDC89F;" d="M329.296,308.49c0,12.93-10.48,23.41-23.4,23.41h-89.16v-23.41H329.296z"/>
</g>
<g>
</g>
<g>
</g>
<g>
</g>
<g>
</g>
<g>
</g>
<g>
</g>
<g>
</g>
<g>
</g>
<g>
</g>
<g>
</g>
<g>
</g>
<g>
</g>
<g>
</g>
<g>
</g>
<g>
</g>
</svg>
