<?xml version="1.0" encoding="iso-8859-1"?>
<!-- Generator: Adobe Illustrator 19.0.0, SVG Export Plug-In . SVG Version: 6.00 Build 0)  -->
<svg version="1.1" id="Layer_1" xmlns="http://www.w3.org/2000/svg" xmlns:xlink="http://www.w3.org/1999/xlink" x="0px" y="0px"
	 viewBox="0 0 428.98 428.98" style="enable-background:new 0 0 428.98 428.98;" xml:space="preserve">
<g>
	<path style="fill:#F9DB87;" d="M243.744,296.25v103.48c0,16.16-13.1,29.25-29.25,29.25c-16.16,0-29.25-13.09-29.25-29.25V296.25
		H243.744z"/>
	<path style="fill:#E5B94C;" d="M243.744,296.25v103.48c0,16.16-13.1,29.25-29.25,29.25V296.25H243.744z"/>
	<rect x="185.244" y="296.25" style="fill:#E5B94C;" width="58.5" height="22.9"/>
	<path style="fill:#FCEDCA;" d="M274.88,296.25H154.1c-12.74,0-22.87-10.71-22.15-23.44l14.27-251.88C146.88,9.19,156.6,0,168.36,0
		h92.26c11.77,0,21.49,9.19,22.15,20.93l14.26,251.88C297.75,285.54,287.63,296.25,274.88,296.25z"/>
	<path style="fill:#FFFFFF;" d="M203.997,21.5h-9.537c-3.037,0-5.5-2.462-5.5-5.5s2.463-5.5,5.5-5.5h9.537
		c3.037,0,5.5,2.462,5.5,5.5S207.034,21.5,203.997,21.5z"/>
	<path style="fill:#FFFFFF;" d="M158.175,98.367c-0.104,0-0.21-0.003-0.316-0.009c-3.032-0.172-5.352-2.77-5.18-5.802l4.024-71.032
		c0.347-6.18,5.467-11.024,11.657-11.024h8.1c3.037,0,5.5,2.462,5.5,5.5s-2.463,5.5-5.5,5.5h-8.1c-0.358,0-0.654,0.282-0.675,0.643
		l-4.024,71.035C163.495,96.105,161.069,98.367,158.175,98.367z"/>
	<path style="fill:#DDC89F;" d="M274.88,296.25h-60.39V0h46.13c11.77,0,21.49,9.19,22.15,20.93l14.26,251.88
		C297.75,285.54,287.63,296.25,274.88,296.25z"/>
	<circle style="fill:#A56825;" cx="164.99" cy="136.984" r="9"/>
	<circle style="fill:#A56825;" cx="191.005" cy="77.15" r="9"/>
	<circle style="fill:#A56825;" cx="189.99" cy="196.817" r="9"/>
	<circle style="fill:#A56825;" cx="159.99" cy="252.15" r="9"/>
	<circle style="fill:#914D09;" cx="257.46" cy="157.15" r="9"/>
	<circle style="fill:#914D09;" cx="259.46" cy="40.15" r="9"/>
	<circle style="fill:#914D09;" cx="237.46" cy="100.15" r="9"/>
	<circle style="fill:#914D09;" cx="238.99" cy="216.15" r="9"/>
	<circle style="fill:#914D09;" cx="268.99" cy="270.15" r="9"/>
</g>
<g>
</g>
<g>
</g>
<g>
</g>
<g>
</g>
<g>
</g>
<g>
</g>
<g>
</g>
<g>
</g>
<g>
</g>
<g>
</g>
<g>
</g>
<g>
</g>
<g>
</g>
<g>
</g>
<g>
</g>
</svg>
