<?xml version="1.0" encoding="iso-8859-1"?>
<!-- Generator: Adobe Illustrator 19.0.0, SVG Export Plug-In . SVG Version: 6.00 Build 0)  -->
<svg version="1.1" id="Layer_1" xmlns="http://www.w3.org/2000/svg" xmlns:xlink="http://www.w3.org/1999/xlink" x="0px" y="0px"
	 viewBox="0 0 416.36 416.36" style="enable-background:new 0 0 416.36 416.36;" xml:space="preserve">
<g>
	<path style="fill:#FCEDCA;" d="M352.71,0l-18.76,57.58l-7.18,22.02L223.577,396.315c-4.856,14.902-25.938,14.902-30.793,0
		L89.59,79.6l-7.18-22.02L63.65,0H352.71z"/>
	<path style="fill:#DDC89F;" d="M352.71,0l-18.76,57.58l-7.18,22.02l-88.124,270.467c-5.507,16.902-30.466,12.939-30.466-4.838V0
		H352.71z"/>
	<path style="fill:#B5600B;" d="M333.95,57.58l-7.18,22.02l-99.561,305.567c-6.001,18.418-32.057,18.418-38.058,0L89.59,79.6
		l-7.18-22.02C82.41,57.58,333.95,57.58,333.95,57.58z"/>
	<path style="fill:#FFD41D;" d="M326.77,79.6l-7.7,23.62l-2,6.13l-7.69,23.62l-5.43,16.65l-84.16,258.32
		c-1.83,5.62-6.72,8.42-11.61,8.42s-9.78-2.8-11.61-8.42l-71.9-220.68l-17.69-54.29l-9.69-29.75l-7.7-23.62H326.77z"/>
	<path style="fill:#EA587F;" d="M83.88,0c3.89,25.03,8.3,46.63,15.9,46.63c7.6,0,12.01-21.6,15.9-46.63"/>
	<path style="fill:#EA587F;" d="M228.4,0c3.89,25.03,8.3,46.63,15.9,46.63c7.6,0,12.01-21.6,15.9-46.63"/>
	<path style="fill:#EA587F;" d="M300.67,0c3.89,25.03,8.29,46.63,15.9,46.63s12.01-21.6,15.9-46.63"/>
	<path style="fill:#EA587F;" d="M156.14,0c3.89,25.03,8.3,46.63,15.9,46.63c7.6,0,12.01-21.6,15.9-46.63"/>
	<polygon style="fill:#FFA91F;" points="319.07,103.22 309.38,132.97 106.98,132.97 97.29,103.22 	"/>
	<path style="fill:#FFD41D;" d="M334.23,94.47c0,4.11-1.66,7.83-4.36,10.52c-2.69,2.69-6.4,4.36-10.51,4.36H97
		c-8.21,0-14.87-6.66-14.87-14.88c0-4.11,1.66-7.82,4.36-10.51c2.69-2.7,6.4-4.36,10.51-4.36h222.36
		C327.57,79.6,334.23,86.26,334.23,94.47z"/>
	<path style="fill:#FFA91F;" d="M334.23,94.47c0,4.11-1.66,7.83-4.36,10.52c-2.69,2.69-6.4,4.36-10.51,4.36H208.18V79.6h111.18
		C327.57,79.6,334.23,86.26,334.23,94.47z"/>
	<polygon style="fill:#914D09;" points="333.95,57.58 326.77,79.6 208.18,79.6 208.18,57.58 	"/>
	<path style="fill:#FFA91F;" d="M317.07,109.35l-7.69,23.62l-89.59,274.97c-1.83,5.62-6.72,8.42-11.61,8.42V109.35H317.07z"/>
	<path style="fill:#EA587F;" d="M303.95,149.62l-84.16,258.32c-1.83,5.62-6.72,8.42-11.61,8.42s-9.78-2.8-11.61-8.42l-71.9-220.68
		l83.51-17.53L303.95,149.62z"/>
	<path style="fill:#CE3E6B;" d="M303.95,149.62l-84.16,258.32c-1.83,5.62-6.72,8.42-11.61,8.42V169.73L303.95,149.62z"/>
	<path style="fill:#FFA91F;" d="M208.18,109.35H97.01c-8.218,0-14.88-6.662-14.88-14.88l0,0h126.05L208.18,109.35L208.18,109.35z"/>
</g>
<g>
</g>
<g>
</g>
<g>
</g>
<g>
</g>
<g>
</g>
<g>
</g>
<g>
</g>
<g>
</g>
<g>
</g>
<g>
</g>
<g>
</g>
<g>
</g>
<g>
</g>
<g>
</g>
<g>
</g>
</svg>
