<?xml version="1.0" encoding="iso-8859-1"?>
<!-- Generator: Adobe Illustrator 19.0.0, SVG Export Plug-In . SVG Version: 6.00 Build 0)  -->
<svg version="1.1" id="Layer_1" xmlns="http://www.w3.org/2000/svg" xmlns:xlink="http://www.w3.org/1999/xlink" x="0px" y="0px"
	 viewBox="0 0 428.86 428.86" style="enable-background:new 0 0 428.86 428.86;" xml:space="preserve">
<g>
	<path style="fill:#EA587F;" d="M316.205,101.78c0,28.92-12.06,55.03-31.44,73.55c-18.28,17.48-43.04,28.22-70.34,28.22
		c-56.2,0-101.77-45.57-101.77-101.77C112.655,45.57,158.225,0,214.425,0C270.635,0,316.205,45.57,316.205,101.78z"/>
	<path style="fill:#FFFFFF;" d="M141.92,72.494c-0.801,0-1.613-0.176-2.383-0.546c-2.736-1.318-3.887-4.605-2.568-7.342
		c7.983-16.575,21.359-30.414,37.662-38.967c2.689-1.412,6.015-0.375,7.426,2.315c1.411,2.689,0.375,6.014-2.314,7.425
		c-14.227,7.464-25.897,19.539-32.863,34C145.931,71.347,143.967,72.494,141.92,72.494z"/>
	<path style="fill:#CE3E6B;" d="M316.205,101.782c0,28.915-12.062,55.027-31.437,73.547h-70.345V0
		C270.638,0,316.205,45.567,316.205,101.782z"/>
	<path style="fill:#FFFFFF;" d="M198.386,28.461c-2.563,0-4.855-1.8-5.385-4.408c-0.604-2.977,1.32-5.879,4.298-6.483
		c1.624-0.33,3.272-0.615,4.901-0.848c3.014-0.429,5.793,1.659,6.223,4.666c0.431,3.007-1.658,5.793-4.666,6.224
		c-1.418,0.203-2.855,0.451-4.272,0.738C199.117,28.425,198.749,28.461,198.386,28.461z"/>
	<path style="fill:#FFD41D;" d="M319.555,106.65c0,6.52-0.59,12.9-1.73,19.08c-0.94,5.14-2.26,10.15-3.92,15
		c-5.51,16.08-14.81,30.4-26.83,41.89c-4.83,4.62-10.09,8.78-15.73,12.41c-16.4,10.59-35.92,16.74-56.91,16.74h-0.01
		c-20.98,0-40.53-6.15-56.93-16.74c-8.47-5.46-16.09-12.1-22.65-19.7c-8.68-10.05-15.49-21.76-19.88-34.6
		c-1.67-4.85-2.99-9.86-3.93-15c-1.14-6.18-1.73-12.56-1.73-19.08C109.305,106.65,319.555,106.65,319.555,106.65z"/>
	<path style="fill:#FFD41D;" d="M278.205,203.95v0.61c0,5.1-4.14,9.24-9.24,9.24h-109.07c-5.1,0-9.24-4.14-9.24-9.24v-0.61
		c0-4.27,2.9-7.86,6.84-8.92c0.77-0.2,1.57-0.31,2.4-0.31h109.07c0.82,0,1.62,0.11,2.38,0.31
		C275.295,196.08,278.205,199.67,278.205,203.95z"/>
	<path style="fill:#FFD41D;" d="M251.115,377.73v0.61c0,5.1-4.14,9.23-9.24,9.23h-54.89c-5.1,0-9.24-4.13-9.24-9.23v-0.61
		c0-5.1,4.14-9.24,9.24-9.24h54.89C246.975,368.49,251.115,372.63,251.115,377.73z"/>
	<path style="fill:#FFD41D;" d="M332.765,115.89v0.61c0,5.1-4.13,9.23-9.23,9.23h-218.21c-5.1,0-9.23-4.13-9.23-9.23v-0.61
		c0-5.1,4.13-9.24,9.23-9.24h218.21C328.635,106.65,332.765,110.79,332.765,115.89z"/>
	<path style="fill:#FFD41D;" d="M268.665,213.8l-2.9,15l-27,139.69l-3.69,19.08l-2.9,15l-2.68,13.86c-0.7,3.61-2.63,6.72-5.3,8.92
		c-2.68,2.21-6.09,3.51-9.76,3.51c-7.35,0-13.67-5.21-15.07-12.43l-2.68-13.86l-2.9-15l-3.69-19.08l-27-139.69l-2.9-15
		L268.665,213.8L268.665,213.8z"/>
	<path style="fill:#FFA91F;" d="M317.825,125.73c-0.94,5.14-2.26,10.15-3.92,15h-198.94c-1.67-4.85-2.99-9.86-3.93-15
		C111.035,125.73,317.825,125.73,317.825,125.73z"/>
	<polygon style="fill:#FFA91F;" points="268.665,213.8 265.765,228.8 163.095,228.8 160.195,213.8 	"/>
	<polygon style="fill:#FFA91F;" points="235.075,387.57 232.175,402.57 196.685,402.57 193.785,387.57 	"/>
	<path style="fill:#FFA91F;" d="M235.075,377.73v9.84h-48.09c-5.1,0-9.24-4.13-9.24-9.23v-0.61H235.075z"/>
	<path style="fill:#FFA91F;" d="M214.435,125.73h-108.5c-5.435,0-9.84-4.406-9.84-9.84l0,0h118.34V125.73z"/>
	<path style="fill:#FFA91F;" d="M268.965,213.8h-108.46c-5.44,0-9.85-4.41-9.85-9.85l0,0h118.31V213.8z"/>
	<path style="fill:#FFA91F;" d="M323.525,106.65h-109.09v41.928c0,14.775-11.977,26.752-26.752,26.752h-52.838
		c6.56,7.6,14.18,14.24,22.65,19.7h56.94v233.83c3.67,0,7.08-1.3,9.76-3.51c2.67-2.2,4.6-5.31,5.3-8.92l5.58-28.86h6.8
		c5.103,0,9.24-4.137,9.24-9.24v-0.6c0-5.103-4.137-9.24-9.24-9.24h-3.11l29.9-154.69h0.3c5.103,0,9.24-4.137,9.24-9.24v-0.61
		c0-4.28-2.91-7.87-6.86-8.92c5.64-3.63,10.9-7.79,15.73-12.41c15.65-14.96,26.68-34.71,30.75-56.89h5.71
		c5.098,0,9.23-4.132,9.23-9.23v-0.61C332.765,110.787,328.628,106.65,323.525,106.65z"/>
</g>
<g>
</g>
<g>
</g>
<g>
</g>
<g>
</g>
<g>
</g>
<g>
</g>
<g>
</g>
<g>
</g>
<g>
</g>
<g>
</g>
<g>
</g>
<g>
</g>
<g>
</g>
<g>
</g>
<g>
</g>
</svg>
