<?xml version="1.0" encoding="iso-8859-1"?>
<!-- Generator: Adobe Illustrator 19.0.0, SVG Export Plug-In . SVG Version: 6.00 Build 0)  -->
<svg version="1.1" id="Layer_1" xmlns="http://www.w3.org/2000/svg" xmlns:xlink="http://www.w3.org/1999/xlink" x="0px" y="0px"
	 viewBox="0 0 406.21 406.21" style="enable-background:new 0 0 406.21 406.21;" xml:space="preserve">
<g>
	<path style="fill:#A3E261;" d="M317.105,114c0,12.32-1.95,24.19-5.58,35.3c-14.85,45.68-57.78,78.7-108.42,78.7
		c-62.96,0-114-51.04-114-114s51.04-114,114-114c51.56,0,95.13,34.24,109.21,81.22C315.435,91.6,317.105,102.6,317.105,114z"/>
	<path style="fill:#FFD41D;" d="M322.605,153l-2.8,24.84l-22.75,201.76c-1.71,15.16-14.53,26.61-29.79,26.61h-128.32
		c-10.56,0-19.95-5.48-25.3-13.88c-2.38-3.74-3.97-8.06-4.49-12.73l-22.75-201.76l-0.09-0.83L83.605,153H322.605z"/>
	<path style="fill:#90BC61;" d="M317.105,114c0,12.32-1.95,24.19-5.58,35.3c-14.85,45.68-57.78,78.7-108.42,78.7V0
		c51.56,0,95.13,34.24,109.21,81.22C315.435,91.6,317.105,102.6,317.105,114z"/>
	<path style="fill:#FFD41D;" d="M337.745,139.52V153H68.465v-13.48c0-14.09,11.43-25.52,25.52-25.52h218.24
		C326.315,114,337.745,125.43,337.745,139.52z"/>
	<path style="fill:#FFA91F;" d="M322.605,153l-25.55,226.6c-1.71,15.16-14.53,26.61-29.79,26.61h-64.16V153H322.605z"/>
	<polygon style="fill:#FFA91F;" points="322.605,153 319.805,177.84 86.405,177.84 86.315,177.01 83.605,153 	"/>
	<path style="fill:#FFA91F;" d="M337.745,139.52V153h-134.64v-39h109.12C326.315,114,337.745,125.43,337.745,139.52z"/>
	<path style="fill:#FFFFFF;" d="M175.59,25.432c-2.379,0-4.573-1.556-5.276-3.955c-0.854-2.915,0.817-5.97,3.732-6.824
		c5.285-1.549,10.743-2.679,16.22-3.36c3.02-0.373,5.762,1.765,6.137,4.78s-1.765,5.762-4.779,6.136
		c-4.892,0.608-9.765,1.618-14.484,3C176.623,25.36,176.102,25.432,175.59,25.432z"/>
	<path style="fill:#FFFFFF;" d="M106.947,100.565c-0.352,0-0.708-0.034-1.066-0.104c-2.981-0.586-4.922-3.477-4.336-6.458
		c5.479-27.875,22.511-52.571,46.728-67.756c2.574-1.614,5.968-0.835,7.582,1.738s0.835,5.968-1.738,7.582
		c-21.655,13.577-36.882,35.65-41.777,60.557C111.822,98.748,109.522,100.565,106.947,100.565z"/>
	<path style="fill:#FFA91F;" d="M203.105,392.33v13.88h-64.16c-10.56,0-19.95-5.48-25.3-13.88H203.105z"/>
</g>
<g>
</g>
<g>
</g>
<g>
</g>
<g>
</g>
<g>
</g>
<g>
</g>
<g>
</g>
<g>
</g>
<g>
</g>
<g>
</g>
<g>
</g>
<g>
</g>
<g>
</g>
<g>
</g>
<g>
</g>
</svg>
