<?xml version="1.0" encoding="iso-8859-1"?>
<!-- Generator: Adobe Illustrator 19.0.0, SVG Export Plug-In . SVG Version: 6.00 Build 0)  -->
<svg version="1.1" id="Layer_1" xmlns="http://www.w3.org/2000/svg" xmlns:xlink="http://www.w3.org/1999/xlink" x="0px" y="0px"
	 viewBox="0 0 444.726 444.726" style="enable-background:new 0 0 444.726 444.726;" xml:space="preserve">
<g>
	<path style="fill:#F9DB87;" d="M251.613,311.996v103.48c0,16.16-13.1,29.25-29.25,29.25c-16.16,0-29.25-13.09-29.25-29.25v-103.48
		H251.613z"/>
	<path style="fill:#E5B94C;" d="M251.613,311.996v103.48c0,16.16-13.1,29.25-29.25,29.25v-132.73L251.613,311.996L251.613,311.996z"
		/>
	<rect x="193.113" y="311.996" style="fill:#E5B94C;" width="58.5" height="22.9"/>
	<path style="fill:#44B9B1;" d="M297.363,286c0,14.36-11.64,26-26,26h-98c-7.18,0-13.68-2.91-18.38-7.61
		c-4.71-4.71-7.62-11.21-7.62-18.39c0-14.36,11.64-26,26-26h98c7.18,0,13.68,2.91,18.38,7.61
		C294.453,272.32,297.363,278.82,297.363,286z"/>
	<path style="fill:#FCEDCA;" d="M297.363,234c0,14.36-11.64,26-26,26h-98c-7.18,0-13.68-2.91-18.38-7.61
		c-4.71-4.71-7.62-11.21-7.62-18.39c0-14.36,11.64-26,26-26h98c7.18,0,13.68,2.91,18.38,7.61
		C294.453,220.32,297.363,226.82,297.363,234z"/>
	<path style="fill:#44B9B1;" d="M297.363,182c0,14.36-11.64,26-26,26h-98c-7.18,0-13.68-2.91-18.38-7.61
		c-4.71-4.71-7.62-11.21-7.62-18.39c0-14.36,11.64-26,26-26h98c7.18,0,13.68,2.91,18.38,7.61
		C294.453,168.32,297.363,174.82,297.363,182z"/>
	<path style="fill:#FCEDCA;" d="M297.363,130c0,14.36-11.64,26-26,26h-98c-7.18,0-13.68-2.91-18.38-7.61
		c-4.71-4.71-7.62-11.21-7.62-18.39c0-14.36,11.64-26,26-26h98c7.18,0,13.68,2.91,18.38,7.61
		C294.453,116.32,297.363,122.82,297.363,130z"/>
	<path style="fill:#44B9B1;" d="M297.363,78c0,14.36-11.64,26-26,26h-98c-7.18,0-13.68-2.91-18.38-7.61
		c-4.71-4.71-7.62-11.21-7.62-18.39c0-14.36,11.64-26,26-26h98c7.18,0,13.68,2.91,18.38,7.61
		C294.453,64.32,297.363,70.82,297.363,78z"/>
	<path style="fill:#FCEDCA;" d="M297.363,26c0,14.36-11.64,26-26,26h-98c-7.18,0-13.68-2.91-18.38-7.61
		c-4.71-4.71-7.62-11.21-7.62-18.39c0-14.36,11.64-26,26-26h98c7.18,0,13.68,2.91,18.38,7.61
		C294.453,12.32,297.363,18.82,297.363,26z"/>
	<g>
		<path style="fill:#FFFFFF;" d="M212.243,21.5h-8.367c-3.038,0-5.5-2.462-5.5-5.5s2.462-5.5,5.5-5.5h8.367
			c3.038,0,5.5,2.462,5.5,5.5S215.28,21.5,212.243,21.5z"/>
		<path style="fill:#FFFFFF;" d="M163.363,31.5c-3.038,0-5.5-2.462-5.5-5.5c0-8.547,6.953-15.5,15.5-15.5h12.212
			c3.038,0,5.5,2.462,5.5,5.5s-2.462,5.5-5.5,5.5h-12.212c-2.481,0-4.5,2.019-4.5,4.5C168.863,29.038,166.401,31.5,163.363,31.5z"/>
	</g>
	<g>
		<path style="fill:#FFFFFF;" d="M163.363,83.5c-3.038,0-5.5-2.462-5.5-5.5c0-8.547,6.953-15.5,15.5-15.5h12.212
			c3.038,0,5.5,2.462,5.5,5.5s-2.462,5.5-5.5,5.5h-12.212c-2.481,0-4.5,2.019-4.5,4.5C168.863,81.038,166.401,83.5,163.363,83.5z"/>
	</g>
	<g>
		<path style="fill:#FFFFFF;" d="M163.363,135.5c-3.038,0-5.5-2.462-5.5-5.5c0-8.547,6.953-15.5,15.5-15.5h12.212
			c3.038,0,5.5,2.462,5.5,5.5s-2.462,5.5-5.5,5.5h-12.212c-2.481,0-4.5,2.019-4.5,4.5C168.863,133.038,166.401,135.5,163.363,135.5z
			"/>
	</g>
	<g>
		<path style="fill:#FFFFFF;" d="M163.363,187.5c-3.038,0-5.5-2.462-5.5-5.5c0-8.547,6.953-15.5,15.5-15.5h12.212
			c3.038,0,5.5,2.462,5.5,5.5s-2.462,5.5-5.5,5.5h-12.212c-2.481,0-4.5,2.019-4.5,4.5C168.863,185.038,166.401,187.5,163.363,187.5z
			"/>
	</g>
	<g>
		<path style="fill:#FFFFFF;" d="M163.363,239.5c-3.038,0-5.5-2.462-5.5-5.5c0-8.547,6.953-15.5,15.5-15.5h12.212
			c3.038,0,5.5,2.462,5.5,5.5s-2.462,5.5-5.5,5.5h-12.212c-2.481,0-4.5,2.019-4.5,4.5C168.863,237.038,166.401,239.5,163.363,239.5z
			"/>
	</g>
	<g>
		<path style="fill:#FFFFFF;" d="M163.363,291.5c-3.038,0-5.5-2.462-5.5-5.5c0-8.547,6.953-15.5,15.5-15.5h12.212
			c3.038,0,5.5,2.462,5.5,5.5s-2.462,5.5-5.5,5.5h-12.212c-2.481,0-4.5,2.019-4.5,4.5C168.863,289.038,166.401,291.5,163.363,291.5z
			"/>
	</g>
	<path style="fill:#28A599;" d="M289.743,267.61c4.71,4.71,7.62,11.21,7.62,18.39c0,14.36-11.64,26-26,26h-49v-52h49
		C278.543,260,285.043,262.91,289.743,267.61z"/>
	<path style="fill:#28A599;" d="M289.743,163.61c4.71,4.71,7.62,11.21,7.62,18.39c0,14.36-11.64,26-26,26h-49v-52h49
		C278.543,156,285.043,158.91,289.743,163.61z"/>
	<path style="fill:#28A599;" d="M271.363,104h-49V52h49c7.18,0,13.68,2.91,18.38,7.61c4.71,4.71,7.62,11.21,7.62,18.39
		C297.363,92.36,285.723,104,271.363,104z"/>
	<path style="fill:#DDC89F;" d="M289.743,215.61c4.71,4.71,7.62,11.21,7.62,18.39c0,14.36-11.64,26-26,26h-49v-52h49
		C278.543,208,285.043,210.91,289.743,215.61z"/>
	<path style="fill:#DDC89F;" d="M289.743,111.61c4.71,4.71,7.62,11.21,7.62,18.39c0,14.36-11.64,26-26,26h-49v-52h49
		C278.543,104,285.043,106.91,289.743,111.61z"/>
	<path style="fill:#DDC89F;" d="M271.363,52h-49V0h49c7.18,0,13.68,2.91,18.38,7.61c4.71,4.71,7.62,11.21,7.62,18.39
		C297.363,40.36,285.723,52,271.363,52z"/>
</g>
<g>
</g>
<g>
</g>
<g>
</g>
<g>
</g>
<g>
</g>
<g>
</g>
<g>
</g>
<g>
</g>
<g>
</g>
<g>
</g>
<g>
</g>
<g>
</g>
<g>
</g>
<g>
</g>
<g>
</g>
</svg>
