<?xml version="1.0" encoding="iso-8859-1"?>
<!-- Generator: Adobe Illustrator 19.0.0, SVG Export Plug-In . SVG Version: 6.00 Build 0)  -->
<svg version="1.1" id="Layer_1" xmlns="http://www.w3.org/2000/svg" xmlns:xlink="http://www.w3.org/1999/xlink" x="0px" y="0px"
	 viewBox="0 0 464.22 464.22" style="enable-background:new 0 0 464.22 464.22;" xml:space="preserve">
<g>
	<path style="fill:#B5600B;" d="M316.105,22.852v285.79c0,12.62-10.22,22.85-22.84,22.85h-122.3c-12.62,0-22.85-10.23-22.85-22.85
		V22.852c0-12.62,10.23-22.85,22.85-22.85h122.3C305.885,0.002,316.105,10.232,316.105,22.852z"/>
	<g>
		<path style="fill:#F9DB87;" d="M261.364,331.49v103.48c0,16.16-13.1,29.25-29.25,29.25c-16.16,0-29.25-13.09-29.25-29.25V331.49
			H261.364z"/>
		<path style="fill:#E5B94C;" d="M261.364,331.49v103.48c0,16.16-13.1,29.25-29.25,29.25V331.49H261.364z"/>
		<polygon style="fill:#E5B94C;" points="261.364,354.39 202.864,354.39 204.597,331.49 263.097,331.49 		"/>
	</g>
	<path style="fill:#FCEDCA;" d="M316.105,22.852v142.9h-167.99v-142.9c0-12.62,10.23-22.85,22.85-22.85h122.3
		C305.885,0.002,316.105,10.232,316.105,22.852z"/>
	<path style="fill:#FFFFFF;" d="M210.895,21.502h-11.3c-3.038,0-5.5-2.462-5.5-5.5s2.462-5.5,5.5-5.5h11.3
		c3.038,0,5.5,2.462,5.5,5.5S213.932,21.502,210.895,21.502z"/>
	<path style="fill:#FFFFFF;" d="M164.115,132.882c-3.038,0-5.5-2.462-5.5-5.5V22.852c0-6.81,5.541-12.35,12.351-12.35h8.93
		c3.038,0,5.5,2.462,5.5,5.5s-2.462,5.5-5.5,5.5h-8.93c-0.745,0-1.351,0.605-1.351,1.35v104.53
		C169.615,130.42,167.152,132.882,164.115,132.882z"/>
	<path style="fill:#914D09;" d="M316.104,22.85v285.79c0,12.62-10.22,22.85-22.84,22.85h-61.15V0h61.15
		C305.884,0,316.104,10.23,316.104,22.85z"/>
	<path style="fill:#DDC89F;" d="M316.105,22.852v142.9h-83.99V0.002h61.15C305.885,0.002,316.105,10.232,316.105,22.852z"/>
</g>
<g>
</g>
<g>
</g>
<g>
</g>
<g>
</g>
<g>
</g>
<g>
</g>
<g>
</g>
<g>
</g>
<g>
</g>
<g>
</g>
<g>
</g>
<g>
</g>
<g>
</g>
<g>
</g>
<g>
</g>
</svg>
