<?xml version="1.0" encoding="iso-8859-1"?>
<!-- Generator: Adobe Illustrator 19.0.0, SVG Export Plug-In . SVG Version: 6.00 Build 0)  -->
<svg version="1.1" id="Layer_1" xmlns="http://www.w3.org/2000/svg" xmlns:xlink="http://www.w3.org/1999/xlink" x="0px" y="0px"
	 viewBox="0 0 425.175 425.175" style="enable-background:new 0 0 425.175 425.175;" xml:space="preserve">
<g>
	<g>
		<path style="fill:#E85858;" d="M120.328,14.398v396.366c0,7.958-6.452,14.411-14.399,14.411h-49.47
			c-7.958,0-14.398-6.452-14.398-14.411V14.398C42.06,6.452,48.501,0,56.459,0h49.47C113.876,0,120.328,6.452,120.328,14.398z"/>
		<path style="fill:#FFFFFF;" d="M58.06,36.548c-3.037,0-5.5-2.462-5.5-5.5V16c0-3.038,2.463-5.5,5.5-5.5s5.5,2.462,5.5,5.5v15.048
			C63.56,34.085,61.097,36.548,58.06,36.548z"/>
		<path style="fill:#FFFFFF;" d="M58.06,247.214c-3.037,0-5.5-2.462-5.5-5.5v-184c0-3.038,2.463-5.5,5.5-5.5s5.5,2.462,5.5,5.5
			v183.999C63.56,244.751,61.097,247.214,58.06,247.214z"/>
		<path style="fill:#CE3E3E;" d="M120.328,14.398v396.366c0,7.958-6.452,14.411-14.399,14.411H81.188V0h24.741
			C113.876,0,120.328,6.452,120.328,14.398z"/>
	</g>
	<g>
		<path style="fill:#44B9B1;" d="M251.721,14.398v396.366c0,7.958-6.452,14.411-14.399,14.411h-49.47
			c-7.958,0-14.398-6.452-14.398-14.411V14.398c0-7.946,6.44-14.398,14.398-14.398h49.47C245.269,0,251.721,6.452,251.721,14.398z"
			/>
		<path style="fill:#FFFFFF;" d="M189.454,36.548c-3.037,0-5.5-2.462-5.5-5.5V16c0-3.038,2.463-5.5,5.5-5.5s5.5,2.462,5.5,5.5
			v15.048C194.954,34.085,192.491,36.548,189.454,36.548z"/>
		<path style="fill:#FFFFFF;" d="M189.454,247.214c-3.037,0-5.5-2.462-5.5-5.5v-184c0-3.038,2.463-5.5,5.5-5.5s5.5,2.462,5.5,5.5
			v183.999C194.954,244.751,192.491,247.214,189.454,247.214z"/>
		<path style="fill:#28A599;" d="M251.721,14.398v396.366c0,7.958-6.452,14.411-14.399,14.411h-24.741V0h24.741
			C245.269,0,251.721,6.452,251.721,14.398z"/>
	</g>
	<g>
		<path style="fill:#FFD41D;" d="M383.114,14.398v396.366c0,7.958-6.452,14.411-14.399,14.411h-49.47
			c-7.958,0-14.398-6.452-14.398-14.411V14.398c0-7.946,6.44-14.398,14.398-14.398h49.47C376.662,0,383.114,6.452,383.114,14.398z"
			/>
		<path style="fill:#FFFFFF;" d="M320.846,36.548c-3.037,0-5.5-2.462-5.5-5.5V16c0-3.038,2.463-5.5,5.5-5.5s5.5,2.462,5.5,5.5
			v15.048C326.346,34.085,323.883,36.548,320.846,36.548z"/>
		<path style="fill:#FFFFFF;" d="M320.846,247.214c-3.037,0-5.5-2.462-5.5-5.5v-184c0-3.038,2.463-5.5,5.5-5.5s5.5,2.462,5.5,5.5
			v183.999C326.346,244.751,323.883,247.214,320.846,247.214z"/>
		<path style="fill:#FFA91F;" d="M383.114,14.398v396.366c0,7.958-6.452,14.411-14.399,14.411h-24.741V0h24.741
			C376.662,0,383.114,6.452,383.114,14.398z"/>
	</g>
</g>
<g>
</g>
<g>
</g>
<g>
</g>
<g>
</g>
<g>
</g>
<g>
</g>
<g>
</g>
<g>
</g>
<g>
</g>
<g>
</g>
<g>
</g>
<g>
</g>
<g>
</g>
<g>
</g>
<g>
</g>
</svg>
