<?xml version="1.0" encoding="iso-8859-1"?>
<!-- Generator: Adobe Illustrator 19.0.0, SVG Export Plug-In . SVG Version: 6.00 Build 0)  -->
<svg version="1.1" id="Layer_1" xmlns="http://www.w3.org/2000/svg" xmlns:xlink="http://www.w3.org/1999/xlink" x="0px" y="0px"
	 viewBox="0 0 459.7 459.7" style="enable-background:new 0 0 459.7 459.7;" xml:space="preserve">
<g>
	<path style="fill:#BC6491;" d="M286.85,60.96v276.357c0,12.79-10.37,23.16-23.16,23.16h-67.68c-12.79,0-23.16-10.37-23.16-23.16
		V60.96c0-2.75,1.12-5.24,2.92-7.05c1.81-1.8,4.3-2.92,7.05-2.92c4.69,0,8.75-3.26,9.75-7.84l7.71-35.31c1-4.58,5.06-7.84,9.74-7.84
		h39.66c4.69,0,8.74,3.26,9.74,7.84l7.72,35.31c0.5,2.29,1.76,4.25,3.49,5.64c1.72,1.39,3.9,2.2,6.25,2.2
		C282.38,50.99,286.85,55.46,286.85,60.96z"/>
	<path style="fill:#FFFFFF;" d="M208.207,52.064c-0.389,0-0.782-0.041-1.178-0.127c-2.968-0.648-4.849-3.579-4.2-6.547l6.673-30.563
		c0.647-2.968,3.575-4.849,6.546-4.2c2.968,0.648,4.849,3.579,4.2,6.547l-6.673,30.563
		C213.013,50.308,210.736,52.064,208.207,52.064z"/>
	<path style="fill:#FFFFFF;" d="M188.85,191.558c-3.037,0-5.5-2.462-5.5-5.5V66.432c0-3.038,2.463-5.5,5.5-5.5s5.5,2.462,5.5,5.5
		v119.626C194.35,189.095,191.887,191.558,188.85,191.558z"/>
	<path style="fill:#92496A;" d="M286.85,60.96v276.357c0,12.79-10.37,23.16-23.16,23.16h-33.84V0h19.83c4.69,0,8.74,3.26,9.74,7.84
		l7.72,35.31c0.5,2.29,1.76,4.25,3.49,5.64c1.72,1.39,3.9,2.2,6.25,2.2C282.38,50.99,286.85,55.46,286.85,60.96z"/>
	<path style="fill:#92496A;" d="M249.35,97.49v208.867c0,10.77-8.73,19.5-19.5,19.5s-19.5-8.73-19.5-19.5V97.49
		c0-10.77,8.73-19.5,19.5-19.5c5.38,0,10.26,2.18,13.79,5.71C247.17,87.23,249.35,92.1,249.35,97.49z"/>
	<path style="fill:#D676AB;" d="M249.35,97.49v208.867c0,10.77-8.73,19.5-19.5,19.5V77.99c5.38,0,10.26,2.18,13.79,5.71
		C247.17,87.23,249.35,92.1,249.35,97.49z"/>
	<path style="fill:#F9DB87;" d="M242.6,360.48v90.32c0,4.91-3.99,8.9-8.9,8.9H226c-4.91,0-8.9-3.99-8.9-8.9v-90.32H242.6z"/>
	<rect x="217.101" y="360.477" style="fill:#E5B94C;" width="25.499" height="24.999"/>
	<path style="fill:#E5B94C;" d="M242.6,360.48v90.32c0,4.91-3.99,8.9-8.9,8.9h-3.85v-99.22H242.6z"/>
</g>
<g>
</g>
<g>
</g>
<g>
</g>
<g>
</g>
<g>
</g>
<g>
</g>
<g>
</g>
<g>
</g>
<g>
</g>
<g>
</g>
<g>
</g>
<g>
</g>
<g>
</g>
<g>
</g>
<g>
</g>
</svg>
