<?xml version="1.0" encoding="iso-8859-1"?>
<!-- Generator: Adobe Illustrator 19.0.0, SVG Export Plug-In . SVG Version: 6.00 Build 0)  -->
<svg version="1.1" id="Layer_1" xmlns="http://www.w3.org/2000/svg" xmlns:xlink="http://www.w3.org/1999/xlink" x="0px" y="0px"
	 viewBox="0 0 439.92 439.92" style="enable-background:new 0 0 439.92 439.92;" xml:space="preserve">
<g>
	<path style="fill:#F9DB87;" d="M249.215,307.19v103.48c0,16.16-13.1,29.25-29.25,29.25c-16.16,0-29.25-13.09-29.25-29.25V307.19
		H249.215z"/>
	<path style="fill:#E5B94C;" d="M249.212,307.188v103.48c0,16.16-13.1,29.25-29.25,29.25v-132.73H249.212z"/>
	<path style="fill:#E5B94C;" d="M249.215,307.19v25.2c-9.48,1.76-19.26,2.68-29.25,2.68c-9.99,0-19.77-0.92-29.25-2.68v-25.2
		H249.215z"/>
	<path style="fill:#FFD41D;" d="M379.495,159.53c0,88.11-71.43,159.54-159.53,159.54c-88.11,0-159.54-71.43-159.54-159.54
		S131.855,0,219.965,0C308.065,0,379.495,71.42,379.495,159.53z"/>
	<path style="fill:#FFFFFF;" d="M176.821,28.124c-2.335,0-4.502-1.5-5.243-3.845c-0.914-2.896,0.692-5.986,3.589-6.901
		c4.845-1.53,9.824-2.823,14.802-3.844c2.974-0.612,5.883,1.307,6.492,4.283c0.61,2.976-1.307,5.883-4.283,6.493
		c-4.605,0.945-9.215,2.142-13.698,3.558C177.929,28.041,177.37,28.124,176.821,28.124z"/>
	<path style="fill:#FFFFFF;" d="M76.425,165.03c-3.037,0-5.5-2.462-5.5-5.5c0-55.992,31.002-106.774,80.906-132.528
		c2.701-1.393,6.018-0.333,7.41,2.365c1.393,2.7,0.334,6.017-2.365,7.41c-46.231,23.858-74.951,70.894-74.951,122.752
		C81.925,162.568,79.462,165.03,76.425,165.03z"/>
	<path style="fill:#FFA91F;" d="M341.805,159.53c0,67.293-54.558,121.84-121.84,121.84c-67.293,0-121.84-54.547-121.84-121.84
		c0-67.282,54.547-121.84,121.84-121.84C287.247,37.69,341.805,92.248,341.805,159.53z"/>
	<path style="fill:#FCEDCA;" d="M326.735,159.53c0,58.97-47.81,106.77-106.77,106.77c-58.97,0-106.77-47.8-106.77-106.77
		c0-58.96,47.8-106.77,106.77-106.77C278.925,52.76,326.735,100.57,326.735,159.53z"/>
	<path style="fill:#FFFFFF;" d="M186.717,80.567c-2.192,0-4.264-1.319-5.117-3.481c-1.116-2.825,0.27-6.02,3.095-7.136
		c5.138-2.029,10.485-3.622,15.895-4.731c2.979-0.611,5.883,1.307,6.493,4.282c0.61,2.976-1.307,5.883-4.282,6.494
		c-4.786,0.982-9.518,2.391-14.064,4.187C188.072,80.443,187.389,80.567,186.717,80.567z"/>
	<path style="fill:#FFFFFF;" d="M129.195,165.03c-3.037,0-5.5-2.462-5.5-5.5c0-28.87,12.835-55.981,35.213-74.381
		c2.347-1.929,5.813-1.592,7.741,0.755c1.93,2.346,1.592,5.812-0.755,7.741c-19.827,16.304-31.199,40.318-31.199,65.885
		C134.695,162.568,132.233,165.03,129.195,165.03z"/>
	<path style="fill:#FFA91F;" d="M379.495,159.53c0,88.11-71.43,159.54-159.53,159.54V0C308.065,0,379.495,71.42,379.495,159.53z"/>
	<path style="fill:#DDC89F;" d="M326.735,159.53c0,58.97-47.81,106.77-106.77,106.77V52.76
		C278.925,52.76,326.735,100.57,326.735,159.53z"/>
</g>
<g>
</g>
<g>
</g>
<g>
</g>
<g>
</g>
<g>
</g>
<g>
</g>
<g>
</g>
<g>
</g>
<g>
</g>
<g>
</g>
<g>
</g>
<g>
</g>
<g>
</g>
<g>
</g>
<g>
</g>
</svg>
