<?xml version="1.0" encoding="iso-8859-1"?>
<!-- Generator: Adobe Illustrator 19.0.0, SVG Export Plug-In . SVG Version: 6.00 Build 0)  -->
<svg version="1.1" id="Layer_1" xmlns="http://www.w3.org/2000/svg" xmlns:xlink="http://www.w3.org/1999/xlink" x="0px" y="0px"
	 viewBox="0 0 512 512" style="enable-background:new 0 0 512 512;" xml:space="preserve">
<circle style="fill:#00447D;" cx="256" cy="256" r="256"/>
<path style="fill:#062964;" d="M267.976,511.712C403.799,505.456,512,393.369,512,256c0-8.166-0.4-16.237-1.146-24.209
	L405.095,126.033l-82.258,69.251L131.574,375.31L267.976,511.712z"/>
<path style="fill:#E2982B;" d="M134.594,378.459c39.257,39.257,93.961,36.286,107.196-13.502
	c13.234-49.788,22.273-25.424,50.335-53.486c32.892-32.892-1.308-63.302-14.245-76.298c-12.781-12.84-42.024-47.09-75.585-13.529
	c-28.062,28.062-3.696,37.098-53.486,50.335C99.023,285.213,95.337,339.203,134.594,378.459z"/>
<path style="fill:#D35933;" d="M277.909,235.203L134.477,378.335c0.041,0.041,0.078,0.083,0.117,0.124
	c39.257,39.257,93.961,36.286,107.196-13.502c13.234-49.788,22.273-25.424,50.335-53.486
	C324.994,278.604,290.868,248.215,277.909,235.203z"/>
<rect x="290.276" y="95.44" transform="matrix(-0.7071 -0.7071 0.7071 -0.7071 372.5769 572.0876)" style="fill:#EEBB46;" width="28.991" height="226.881"/>
<polygon style="fill:#E2982B;" points="224.235,288.765 234.824,299.351 395.255,138.921 384.834,128.502 "/>
<rect x="147.437" y="334.093" transform="matrix(-0.7071 -0.7071 0.7071 -0.7071 55.4845 703.4589)" style="fill:#FFBF1A;" width="51.993" height="12.29"/>
<g>
	<polygon style="fill:#E2982B;" points="168.696,344.188 187.475,362.967 196.165,354.276 177.395,335.508 	"/>
	<path style="fill:#E2982B;" d="M361.375,178.572l-25.402-25.402l38.447-43.303c3.701-4.168,10.15-4.36,14.091-0.419l16.584,16.584
		c3.943,3.943,3.751,10.39-0.419,14.091L361.375,178.572z"/>
</g>
<path style="fill:#D35933;" d="M405.095,126.033l-8.885-8.885l-48.18,48.078l13.345,13.345l43.303-38.447
	C408.847,136.425,409.038,129.976,405.095,126.033z"/>
<g>
	<polygon style="fill:#EEBB46;" points="214.881,307.484 195.496,318.18 206.191,298.794 	"/>
	<polyline style="fill:#EEBB46;" points="196.399,316.542 210.184,302.787 206.191,298.794 	"/>
</g>
<polygon style="fill:#E2982B;" points="196.399,316.542 195.496,318.18 214.881,307.484 210.184,302.787 "/>
<polygon style="fill:#EEBB46;" points="206.191,272.612 195.496,253.226 214.881,263.923 "/>
<g>
	<polygon style="fill:#E2982B;" points="249.753,298.794 260.449,318.18 241.064,307.484 	"/>
	<polygon style="fill:#E2982B;" points="234.117,310.362 227.973,331.631 221.829,310.362 	"/>
	<polygon style="fill:#E2982B;" points="216.404,362.836 210.258,384.107 204.114,362.836 	"/>
</g>
<g>
	<polygon style="fill:#EEBB46;" points="221.827,261.046 227.973,239.775 234.117,261.046 	"/>
	<polygon style="fill:#EEBB46;" points="203.312,291.849 182.043,285.705 203.314,279.559 	"/>
	<polygon style="fill:#EEBB46;" points="152.845,311.568 131.574,305.423 152.845,299.279 	"/>
	<polygon style="fill:#EEBB46;" points="252.63,279.559 273.901,285.703 252.63,291.849 	"/>
</g>
<circle style="fill:#9A421C;" cx="228.59" cy="285.082" r="27.415"/>
<path style="fill:#94252C;" d="M247.641,265.409l-38.778,38.697c0.117,0.121,0.217,0.252,0.336,0.372
	c10.707,10.705,28.065,10.705,38.771,0c10.705-10.705,10.705-28.065,0-38.771C247.865,265.6,247.748,265.513,247.641,265.409z"/>
<g>
</g>
<g>
</g>
<g>
</g>
<g>
</g>
<g>
</g>
<g>
</g>
<g>
</g>
<g>
</g>
<g>
</g>
<g>
</g>
<g>
</g>
<g>
</g>
<g>
</g>
<g>
</g>
<g>
</g>
</svg>
