<?xml version="1.0" encoding="iso-8859-1"?>
<!-- Generator: Adobe Illustrator 19.0.0, SVG Export Plug-In . SVG Version: 6.00 Build 0)  -->
<svg version="1.1" id="Layer_1" xmlns="http://www.w3.org/2000/svg" xmlns:xlink="http://www.w3.org/1999/xlink" x="0px" y="0px"
	 viewBox="0 0 512 512" style="enable-background:new 0 0 512 512;" xml:space="preserve">
<circle style="fill:#BDFBFD;" cx="256" cy="256" r="256"/>
<path style="fill:#00E4ED;" d="M512,256c0-11.09-0.707-22.014-2.074-32.732l-79.026-79.024
	c-1.472,1.472-326.308,151.111-326.308,151.111l33.037,33.037l-5.463,1.45l20.113,19.082l-3.162,114.807l39.21,39.21
	C209.887,508.837,232.572,512,256,512C397.384,512,512,397.384,512,256z"/>
<rect x="149.687" y="324.956" style="fill:#007699;" width="5.172" height="138.774"/>
<rect x="151.411" y="324.956" style="fill:#005E8B;" width="3.448" height="138.774"/>
<rect x="253.414" y="360.296" style="fill:#007699;" width="5.172" height="138.774"/>
<rect x="255.431" y="360.296" style="fill:#005E8B;" width="3.16" height="138.774"/>
<rect x="366.899" y="314.613" style="fill:#007699;" width="5.172" height="138.774"/>
<rect x="368.623" y="314.613" style="fill:#005E8B;" width="3.448" height="138.774"/>
<rect x="366.899" y="314.613" style="fill:#007699;" width="1.724" height="138.774"/>
<polygon style="fill:#D62D2A;" points="349.377,348.924 369.492,328.811 389.604,348.924 "/>
<polygon style="fill:#9A421C;" points="369.49,328.809 368.63,329.671 368.63,348.924 389.604,348.924 "/>
<polygon style="fill:#51A448;" points="132.165,329.842 152.279,309.727 172.392,329.842 "/>
<polygon style="fill:#488440;" points="152.278,309.729 151.418,310.589 151.418,329.84 172.392,329.84 "/>
<path style="fill:#72BD39;" d="M237.611,200.404c0,54.982-38.205,117.657-85.333,117.657s-85.333-62.674-85.333-117.657
	s38.205-99.556,85.333-99.556S237.611,145.422,237.611,200.404z"/>
<path style="fill:#51A448;" d="M152.278,100.848c-0.29,0-0.574,0.022-0.862,0.026v217.152c0.288,0.003,0.572,0.036,0.862,0.036
	c47.128,0,85.333-62.673,85.333-117.657S199.408,100.848,152.278,100.848z"/>
<path style="fill:#E44C47;" d="M454.823,213.333c0,54.982-38.205,123.69-85.333,123.69s-85.333-68.708-85.333-123.69
	s38.205-99.556,85.333-99.556S454.823,158.351,454.823,213.333z"/>
<path style="fill:#D62D2A;" d="M369.49,113.778c-0.29,0-0.574,0.022-0.862,0.026v223.201c0.288,0.005,0.574,0.019,0.862,0.019
	c47.128,0,85.333-68.706,85.333-123.69S416.62,113.778,369.49,113.778z"/>
<polygon style="fill:#E6F3FF;" points="235.887,373.801 256,353.687 276.113,373.801 "/>
<polygon style="fill:#CFDBE6;" points="256,353.689 255.426,354.263 255.426,373.8 276.113,373.8 "/>
<path style="fill:#FFFFFF;" d="M341.333,241.778c0,54.982-38.205,119.38-85.333,119.38s-85.333-64.398-85.333-119.38
	s38.205-99.556,85.333-99.556S341.333,186.796,341.333,241.778z"/>
<path style="fill:#D0D1D3;" d="M256,142.222c-0.193,0-0.381,0.016-0.574,0.017v218.895c0.193,0.002,0.381,0.024,0.574,0.024
	c47.128,0,85.333-64.396,85.333-119.38S303.128,142.222,256,142.222z"/>
<g>
</g>
<g>
</g>
<g>
</g>
<g>
</g>
<g>
</g>
<g>
</g>
<g>
</g>
<g>
</g>
<g>
</g>
<g>
</g>
<g>
</g>
<g>
</g>
<g>
</g>
<g>
</g>
<g>
</g>
</svg>
