<?xml version="1.0" encoding="iso-8859-1"?>
<!-- Generator: Adobe Illustrator 19.0.0, SVG Export Plug-In . SVG Version: 6.00 Build 0)  -->
<svg version="1.1" id="Layer_1" xmlns="http://www.w3.org/2000/svg" xmlns:xlink="http://www.w3.org/1999/xlink" x="0px" y="0px"
	 viewBox="0 0 512.002 512.002" style="enable-background:new 0 0 512.002 512.002;" xml:space="preserve">
<circle style="fill:#F4E882;" cx="256.001" cy="256" r="256"/>
<path style="fill:#F3D64E;" d="M511.956,259.556l-114.788-114.79l-21.79,28.348l-71.687-71.687l-46.478,171.372L157.056,172.642
	l-21.44,34.226l-20.254,26.926L279.067,397.5l-123.461,25.526l88.697,88.698c3.879,0.174,7.777,0.278,11.698,0.278
	C396.197,512,510.051,399.3,511.956,259.556z"/>
<ellipse style="fill:#E2982B;" cx="256.001" cy="417.823" rx="103.434" ry="21.549"/>
<path style="fill:#B77825;" d="M256.001,396.278c-0.193,0-0.381,0.002-0.574,0.003v43.092c0.193,0,0.381,0.002,0.574,0.002
	c57.125,0,103.434-9.647,103.434-21.549C359.435,405.925,313.126,396.278,256.001,396.278z"/>
<path style="fill:#51A448;" d="M163.841,192.284v12.39c0,10.752,8.716,19.47,19.47,19.47h44.246v31.858h-64.002
	c-35.03,0-63.428-28.398-63.428-63.428v-0.288c0-17.594,14.264-31.858,31.858-31.858l0,0
	C149.577,160.427,163.841,174.69,163.841,192.284z"/>
<path style="fill:#3E7C35;" d="M331.277,169.62v14.636c0,12.703-10.299,23.002-23,23.002h-52.274v37.638l75.614-0.002
	c41.386,0,74.936-33.551,74.936-74.938v-0.34c0-20.787-16.851-37.638-37.638-37.638l0,0
	C348.126,131.982,331.277,148.833,331.277,169.62z"/>
<path style="fill:#72BD39;" d="M276.355,426.667c0,0,43.008-162.909,46.789-256c3.781-93.091-67.584-90.505-67.584-90.505h-2.453
	c0,0-71.366-2.586-67.584,90.505c3.782,93.091,46.789,256,46.789,256H276.355z"/>
<path style="fill:#51A448;" d="M255.56,80.162h-0.133v346.505h20.928c0,0,43.008-162.909,46.789-256
	C326.924,77.576,255.56,80.162,255.56,80.162z"/>
<g>
</g>
<g>
</g>
<g>
</g>
<g>
</g>
<g>
</g>
<g>
</g>
<g>
</g>
<g>
</g>
<g>
</g>
<g>
</g>
<g>
</g>
<g>
</g>
<g>
</g>
<g>
</g>
<g>
</g>
</svg>
