<?xml version="1.0" encoding="iso-8859-1"?>
<!-- Generator: Adobe Illustrator 19.0.0, SVG Export Plug-In . SVG Version: 6.00 Build 0)  -->
<svg version="1.1" id="Layer_1" xmlns="http://www.w3.org/2000/svg" xmlns:xlink="http://www.w3.org/1999/xlink" x="0px" y="0px"
	 viewBox="0 0 512 512" style="enable-background:new 0 0 512 512;" xml:space="preserve">
<circle style="fill:#062964;" cx="256" cy="256" r="256"/>
<path style="fill:#070C49;" d="M512,256c0-3.696-0.097-7.37-0.252-11.028l-148.48-148.48L232.441,315.187l-47.552,124.84
	l71.963,71.963C397.843,511.529,512,397.1,512,256z"/>
<circle style="fill:#EEBB46;" cx="327.111" cy="127.138" r="47.407"/>
<path style="fill:#E2982B;" d="M327.111,79.731c-0.145,0-0.286,0.009-0.431,0.01v94.792c0.145,0.002,0.286,0.01,0.431,0.01
	c26.183,0,47.407-21.225,47.407-47.407S353.294,79.731,327.111,79.731z"/>
<circle style="fill:#F3D64E;" cx="327.111" cy="127.138" r="39.65"/>
<path style="fill:#EEBB46;" d="M327.111,87.488c-0.145,0-0.286,0.009-0.431,0.01v79.277c0.143,0.002,0.286,0.01,0.431,0.01
	c21.899,0,39.65-17.751,39.65-39.65S349.01,87.488,327.111,87.488z"/>
<rect x="184.889" y="127.138" style="fill:#FFFFFF;" width="142.222" height="312.889"/>
<rect x="256" y="127.138" style="fill:#E6F3FF;" width="71.111" height="312.889"/>
<path style="fill:#EEBB46;" d="M193.098,170.667l5.435,213.938c0.321,15.229,12.76,27.408,27.993,27.408h58.949
	c15.232,0,27.672-12.178,27.993-27.408l5.434-213.938H193.098z"/>
<path style="fill:#E2982B;" d="M256,170.667v241.347h29.474c15.232,0,27.672-12.178,27.993-27.408l5.435-213.938H256z"/>
<g>
</g>
<g>
</g>
<g>
</g>
<g>
</g>
<g>
</g>
<g>
</g>
<g>
</g>
<g>
</g>
<g>
</g>
<g>
</g>
<g>
</g>
<g>
</g>
<g>
</g>
<g>
</g>
<g>
</g>
</svg>
