<?xml version="1.0" encoding="iso-8859-1"?>
<!-- Generator: Adobe Illustrator 19.0.0, SVG Export Plug-In . SVG Version: 6.00 Build 0)  -->
<svg version="1.1" id="Layer_1" xmlns="http://www.w3.org/2000/svg" xmlns:xlink="http://www.w3.org/1999/xlink" x="0px" y="0px"
	 viewBox="0 0 512 512" style="enable-background:new 0 0 512 512;" xml:space="preserve">
<circle style="fill:#062964;" cx="256" cy="256" r="256"/>
<path style="fill:#070C49;" d="M511.712,267.96L410.56,166.807l-3.558,3.991l-94.361-94.36l-9.935,219.538l-0.781,0.247H105.501
	l-18.444,67.868l146.958,146.958c7.247,0.617,14.577,0.95,21.985,0.95C393.375,511.998,505.463,403.79,511.712,267.96z"/>
<path style="fill:#EEBB46;" d="M309.632,75.755c-6.44,0.341-12.14,2.529-12.14,22.764s-5.058,48.562-12.14,59.185
	s-10.623,36.421-14.164,53.115s-15.207,32.327-106.736,28.834c-66.267-2.529-57.161,72.337-77.395,124.44
	c0,0,9.106,11.635,22.257,10.623c0,0,8.094-18.716,10.623-76.89c0,0,3.541,35.409,9.106,48.056
	c5.565,12.647,2.529,47.551,7.082,58.678c4.553,11.13,8.599,15.681,33.892,14.67s19.223-28.834,19.223-36.928
	s-10.118-43.503,20.233-48.056s62.219-2.024,67.784,5.058c5.565,7.082,6.577,10.623,7.589,54.125c0,0-3.036,22.764,17.199,27.822
	c20.233,5.058,30.351,0,33.387-24.786c3.036-24.786,15.681-65.255,16.693-85.995c0.665-13.641-3.036-96.113,12.647-102.688
	c15.681-6.577,56.149-4.553,53.115-27.822c-3.036-23.269-42.998-25.798-60.197-34.399c-17.199-8.599-43.282-12.057-44.799-31.785
	C311.375,94.049,319.786,75.217,309.632,75.755z"/>
<path style="fill:#E2982B;" d="M417.885,179.96c-3.036-23.269-42.998-25.798-60.197-34.399
	c-17.199-8.601-43.282-12.057-44.799-31.785c-1.517-19.728,6.897-38.559-3.256-38.022c-6.44,0.341-12.14,2.529-12.14,22.764
	c0,20.233-5.058,48.562-12.14,59.185c-7.082,10.623-10.623,36.421-14.164,53.115c-1.543,7.273-4.63,14.343-15.188,19.718v102.178
	c10.769,1.102,18.73,3.375,21.257,6.59c5.565,7.082,6.577,10.623,7.587,54.125c0,0-3.036,22.764,17.199,27.822
	c20.235,5.058,30.351,0,33.387-24.786c3.036-24.786,15.681-65.255,16.693-85.995c0.665-13.641-3.036-96.113,12.647-102.688
	C380.452,201.206,420.921,203.23,417.885,179.96z"/>
<circle style="fill:#FFFFFF;" cx="353.142" cy="166.805" r="10.118"/>
<circle cx="353.142" cy="166.805" r="5.058"/>
<path style="fill:#00BCCE;" d="M268.667,218.477c-6.599,13.441-26.953,24.123-104.215,21.173
	c-23.681-0.903-37.733,8.08-46.942,22.371h235.073c0.591-16.358,2-32.994,5.27-43.544L268.667,218.477L268.667,218.477z"/>
<path style="fill:#008EAD;" d="M357.855,218.477h-89.188c-2.186,4.451-5.899,8.595-12.667,12.047v31.497h96.584
	C353.177,245.663,354.583,229.028,357.855,218.477z"/>
<g>
	<path style="fill:#72BD39;" d="M114.991,350.725c1.689-10.364,3.377-24.586,4.472-43.544h-17.868
		c-3.169,14.345-5.937,29.417-10.056,43.544H114.991z"/>
	<path style="fill:#72BD39;" d="M121.025,307.181c1.45,11.4,4.275,30.194,8.018,38.7c0.602,1.369,1.1,3.012,1.52,4.844h58.711
		c2.441-7.939,8.099-14.664,20.199-16.479c30.351-4.553,62.219-2.024,67.784,5.058c2.51,3.194,4.091,5.679,5.167,11.421h62.397
		c3.558-15.37,6.811-30.153,7.304-40.255c0.041-0.845,0.065-1.953,0.079-3.291H121.025V307.181z"/>
</g>
<path style="fill:#51A448;" d="M256,307.181v25.533c10.769,1.102,18.73,3.374,21.257,6.59c2.51,3.194,4.091,5.679,5.167,11.421
	h62.397c3.558-15.37,6.811-30.153,7.304-40.255c0.041-0.845,0.065-1.953,0.079-3.291H256V307.181z"/>
<g>
</g>
<g>
</g>
<g>
</g>
<g>
</g>
<g>
</g>
<g>
</g>
<g>
</g>
<g>
</g>
<g>
</g>
<g>
</g>
<g>
</g>
<g>
</g>
<g>
</g>
<g>
</g>
<g>
</g>
</svg>
