<?xml version="1.0" encoding="iso-8859-1"?>
<!-- Generator: Adobe Illustrator 19.0.0, SVG Export Plug-In . SVG Version: 6.00 Build 0)  -->
<svg version="1.1" id="Layer_1" xmlns="http://www.w3.org/2000/svg" xmlns:xlink="http://www.w3.org/1999/xlink" x="0px" y="0px"
	 viewBox="0 0 512 512" style="enable-background:new 0 0 512 512;" xml:space="preserve">
<circle style="fill:#E44C47;" cx="256" cy="256" r="256"/>
<path style="fill:#D62D2A;" d="M320.945,503.679c100.361-26.245,176.693-111.868,189.228-217.081L360.789,137.214L156.482,309.517
	l70.358,70.358l-11.097,18.603L320.945,503.679z"/>
<path style="fill:#FFFFFF;" d="M256,414.148c69.232,0,42.474-72.987,82.101-92.265c39.627-19.278,70.932-91.419,39.548-157.567
	S290.656,97.852,256,97.852s-90.265,0.312-121.649,66.46s-0.079,138.288,39.548,157.567
	C213.526,341.157,186.768,414.148,256,414.148z"/>
<path style="fill:#D0D1D3;" d="M377.649,164.314c-31.384-66.148-86.993-66.46-121.647-66.46v316.294
	c69.232,0,42.474-72.987,82.101-92.265C377.728,302.602,409.033,230.462,377.649,164.314z"/>
<path style="fill:#324A5E;" d="M237.908,298.724c0-9.992,18.092-35.399,18.092-35.399s18.092,25.407,18.092,35.399
	c0,9.992-18.092-4.929-18.092-4.929S237.908,308.717,237.908,298.724z"/>
<path style="fill:#2B3B4E;" d="M256,263.327v30.47c0.014,0.012,18.092,14.917,18.092,4.929
	C274.092,288.735,256.014,263.346,256,263.327z"/>
<g>
	<circle style="fill:#E44C47;" cx="193.181" cy="206.593" r="10.052"/>
	<circle style="fill:#E44C47;" cx="193.181" cy="270.429" r="10.052"/>
	<circle style="fill:#E44C47;" cx="225.09" cy="238.502" r="10.052"/>
	<circle style="fill:#E44C47;" cx="161.271" cy="238.502" r="10.052"/>
	<circle style="fill:#E44C47;" cx="215.747" cy="215.936" r="10.052"/>
	<circle style="fill:#E44C47;" cx="170.615" cy="261.068" r="10.052"/>
	<circle style="fill:#E44C47;" cx="170.615" cy="215.936" r="10.052"/>
	<circle style="fill:#E44C47;" cx="215.747" cy="261.068" r="10.052"/>
</g>
<g>
	<circle style="fill:#D62D2A;" cx="318.819" cy="206.593" r="10.052"/>
	<circle style="fill:#D62D2A;" cx="318.819" cy="270.429" r="10.052"/>
	<circle style="fill:#D62D2A;" cx="350.746" cy="238.502" r="10.052"/>
	<circle style="fill:#D62D2A;" cx="286.91" cy="238.502" r="10.052"/>
	<circle style="fill:#D62D2A;" cx="341.385" cy="215.954" r="10.052"/>
	<circle style="fill:#D62D2A;" cx="296.253" cy="261.068" r="10.052"/>
	<circle style="fill:#D62D2A;" cx="296.253" cy="215.954" r="10.052"/>
	<circle style="fill:#D62D2A;" cx="341.385" cy="261.068" r="10.052"/>
</g>
<circle style="fill:#324A5E;" cx="193.181" cy="238.502" r="30.155"/>
<circle style="fill:#2B3B4E;" cx="318.819" cy="238.502" r="30.155"/>
<path style="fill:#EEBB46;" d="M242.721,97.982c-5.656,26.305-9.335,60.881-9.335,68.408c0,12.49,10.124,22.616,22.616,22.616
	c12.49,0,22.616-10.126,22.616-22.616c0-7.527-3.681-42.103-9.337-68.408c-4.673-0.121-9.13-0.129-13.281-0.129
	C251.849,97.852,247.393,97.861,242.721,97.982z"/>
<g>
	<path style="fill:#E2982B;" d="M278.616,166.39c0-7.527-3.681-42.103-9.337-68.408c-4.673-0.121-9.13-0.129-13.279-0.129v91.153
		C268.491,189.006,278.616,178.881,278.616,166.39z"/>
	<path style="fill:#E2982B;" d="M298.924,154.409c3.134,8.607,12.65,13.045,21.257,9.912s13.045-12.65,9.912-21.257
		c-1.696-4.661-10.921-23.63-20.387-39.552c-7.514-2.17-14.986-3.496-22.211-4.32C289.614,119.274,296.844,148.699,298.924,154.409z
		"/>
</g>
<path style="fill:#EEBB46;" d="M202.295,103.512c-9.468,15.922-18.692,34.892-20.389,39.552c-3.132,8.607,1.305,18.125,9.912,21.257
	c8.607,3.134,18.125-1.305,21.257-9.912c2.079-5.711,9.307-35.137,11.429-55.217C217.281,100.018,209.808,101.343,202.295,103.512z"
	/>
<path style="fill:#CFDBE6;" d="M285.727,355.99h-59.452c-2.734,0-4.951-2.217-4.951-4.951v-8.19c0-2.734,2.217-4.951,4.951-4.951
	h59.452c2.734,0,4.951,2.217,4.951,4.951v8.19C290.678,353.773,288.461,355.99,285.727,355.99z"/>
<path style="fill:#B8C9D9;" d="M285.727,337.896H256v18.094h29.725c2.734,0,4.951-2.217,4.951-4.953v-8.189
	C290.678,340.115,288.461,337.896,285.727,337.896z"/>
<g>
</g>
<g>
</g>
<g>
</g>
<g>
</g>
<g>
</g>
<g>
</g>
<g>
</g>
<g>
</g>
<g>
</g>
<g>
</g>
<g>
</g>
<g>
</g>
<g>
</g>
<g>
</g>
<g>
</g>
</svg>
