<?xml version="1.0" encoding="iso-8859-1"?>
<!-- Generator: Adobe Illustrator 19.0.0, SVG Export Plug-In . SVG Version: 6.00 Build 0)  -->
<svg version="1.1" id="Layer_1" xmlns="http://www.w3.org/2000/svg" xmlns:xlink="http://www.w3.org/1999/xlink" x="0px" y="0px"
	 viewBox="0 0 512 512" style="enable-background:new 0 0 512 512;" xml:space="preserve">
<circle style="fill:#FF764C;" cx="256" cy="256" r="256"/>
<path style="fill:#FF450C;" d="M405.126,292.123l-88.002-88.002L100.562,345.212l167.44,166.5
	c101.292-4.675,187.206-68.208,224.342-157.194l-74.326-74.326L405.126,292.123z"/>
<path style="fill:#72BD39;" d="M123.413,327.87c-14.764-7.442-37.076-58.116,0-74.149s18.035-12.024,33.066-33.066
	s25.717-22.712,66.132-9.018c40.415,13.695,28.389-29.393,66.132-24.048s43.086,54.777,66.132,66.132s55.779,3.339,66.132,33.066
	c10.355,29.727-33.066,33.066-33.066,33.066S189.85,361.357,123.413,327.87z"/>
<path style="fill:#51A448;" d="M421.012,286.787c-10.355-29.727-43.086-21.711-66.132-33.066
	c-23.047-11.355-28.389-60.788-66.132-66.132c-20.032-2.838-26.045,7.971-33.32,16.689v134.49
	c67.837-5.368,132.518-18.915,132.518-18.915S431.366,316.514,421.012,286.787z"/>
<path style="fill:#FFDC86;" d="M118.806,352.921c-16.503,0-28.593-15.45-24.748-31.499
	c16.056-67.051,82.318-117.301,161.621-117.301s145.565,50.25,161.621,117.301c3.843,16.05-8.245,31.499-24.748,31.499H118.806z"/>
<path style="fill:#FFBF1A;" d="M417.301,321.422c-16.056-67.051-82.318-117.301-161.621-117.301c-0.084,0-0.169,0.005-0.253,0.005
	v148.795h137.125C409.055,352.921,421.143,337.472,417.301,321.422z"/>
<g>
</g>
<g>
</g>
<g>
</g>
<g>
</g>
<g>
</g>
<g>
</g>
<g>
</g>
<g>
</g>
<g>
</g>
<g>
</g>
<g>
</g>
<g>
</g>
<g>
</g>
<g>
</g>
<g>
</g>
</svg>
