<?xml version="1.0" encoding="iso-8859-1"?>
<!-- Generator: Adobe Illustrator 19.0.0, SVG Export Plug-In . SVG Version: 6.00 Build 0)  -->
<svg version="1.1" id="Layer_1" xmlns="http://www.w3.org/2000/svg" xmlns:xlink="http://www.w3.org/1999/xlink" x="0px" y="0px"
	 viewBox="0 0 512 512" style="enable-background:new 0 0 512 512;" xml:space="preserve">
<circle style="fill:#BDFBFD;" cx="256" cy="256" r="256"/>
<path style="fill:#00E4ED;" d="M512,256c0-5.061-0.164-10.081-0.453-15.07L391.308,120.691l-13.181,14.741l-45.547-45.547
	l-16.391,15.284l46.985,46.985l-9.285,10.383L256,64.646l-28.874,55.605l-28.991-28.989l-16.525,14.76l115.895,115.895
	l-14.927,14.667l-99.054-99.054l-45.996,45.994l98.651,98.652l-15.551,15.281L106.191,183.02l-15.846,15.846l26.817,26.817
	L64.646,256l73.176,73.176l8.656,20.546l-39.215-39.215l-15,16.586l50.514,50.514l-22.085,13.702l120.239,120.239
	C245.919,511.836,250.94,512,256,512C397.384,512,512,397.384,512,256z"/>
<circle style="fill:#EEBB46;" cx="256" cy="256" r="113.778"/>
<path style="fill:#E2982B;" d="M256,142.222c-0.193,0-0.381,0.014-0.574,0.014v227.526c0.193,0,0.381,0.014,0.574,0.014
	c62.838,0,113.778-50.94,113.778-113.778C369.778,193.162,318.838,142.222,256,142.222z"/>
<circle style="fill:#FFD15D;" cx="256" cy="256" r="87.919"/>
<path style="fill:#F9B54C;" d="M256,168.081c-0.193,0-0.381,0.014-0.574,0.014v175.809c0.193,0,0.381,0.014,0.574,0.014
	c48.557,0,87.919-39.362,87.919-87.919S304.557,168.081,256,168.081z"/>
<polygon style="fill:#FF764C;" points="223.477,120.979 256,64.646 288.523,120.979 "/>
<polygon style="fill:#FF450C;" points="256,64.646 255.426,65.641 255.426,120.979 288.523,120.979 "/>
<polygon style="fill:#FF764C;" points="288.523,391.021 256,447.354 223.477,391.021 "/>
<g>
	<polygon style="fill:#FF450C;" points="288.523,391.021 255.426,391.021 255.426,446.359 256,447.354 	"/>
	<polygon style="fill:#FF450C;" points="391.021,223.477 447.354,256 391.021,288.523 	"/>
</g>
<polygon style="fill:#FF764C;" points="120.979,288.523 64.646,256 120.979,223.477 "/>
<polygon style="fill:#FF450C;" points="328.478,137.528 391.308,120.692 374.472,183.522 "/>
<polygon style="fill:#FF764C;" points="183.522,374.472 120.692,391.308 137.528,328.476 "/>
<polygon style="fill:#FF450C;" points="374.472,328.478 391.308,391.308 328.478,374.472 "/>
<polygon style="fill:#FF764C;" points="137.528,183.522 120.694,120.692 183.524,137.528 "/>
<circle style="fill:#9A421C;" cx="188.768" cy="97.401" r="11.205"/>
<g>
	<circle style="fill:#94252C;" cx="324.094" cy="409.428" r="11.205"/>
	<circle style="fill:#94252C;" cx="413.599" cy="188.475" r="11.205"/>
</g>
<g>
	<circle style="fill:#9A421C;" cx="99.262" cy="318.336" r="11.205"/>
	<circle style="fill:#9A421C;" cx="98.263" cy="190.94" r="11.205"/>
</g>
<g>
	<circle style="fill:#94252C;" cx="414.599" cy="315.888" r="11.205"/>
	<circle style="fill:#94252C;" cx="324.387" cy="97.521" r="11.205"/>
</g>
<circle style="fill:#9A421C;" cx="188.475" cy="409.307" r="11.205"/>
<g>
</g>
<g>
</g>
<g>
</g>
<g>
</g>
<g>
</g>
<g>
</g>
<g>
</g>
<g>
</g>
<g>
</g>
<g>
</g>
<g>
</g>
<g>
</g>
<g>
</g>
<g>
</g>
<g>
</g>
</svg>
