<?xml version="1.0" encoding="iso-8859-1"?>
<!-- Generator: Adobe Illustrator 19.0.0, SVG Export Plug-In . SVG Version: 6.00 Build 0)  -->
<svg version="1.1" id="Layer_1" xmlns="http://www.w3.org/2000/svg" xmlns:xlink="http://www.w3.org/1999/xlink" x="0px" y="0px"
	 viewBox="0 0 512 512" style="enable-background:new 0 0 512 512;" xml:space="preserve">
<circle style="fill:#FF764C;" cx="256" cy="256" r="256"/>
<path style="fill:#FF450C;" d="M287.53,510.066c109.115-13.402,196.986-95.454,219.088-201.635L369.126,170.939l-5.599,53.222
	l-77.54-77.54l-84.002,61.109l-44.523,42.718l68.537,68.537l-82.542,47.461L287.53,510.066z"/>
<path style="fill:#F3D64E;" d="M168.479,98.832l114.388,45.756c6.678,2.672,7.995,11.554,2.377,16.048l-114.388,91.51
	c-6.147,4.918-15.253,0.541-15.253-7.332V107.549C155.605,100.907,162.313,96.365,168.479,98.832z"/>
<path style="fill:#EEBB46;" d="M155.605,107.549v137.266c0,7.871,9.106,12.248,15.253,7.332l57.17-45.737l-68.87-106.198
	C157.029,101.902,155.605,104.498,155.605,107.549z"/>
<path style="fill:#F3D64E;" d="M371.981,176.071l23.205,120.994c1.355,7.065-5.413,12.965-12.228,10.662l-138.771-46.921
	c-7.458-2.522-8.687-12.55-2.058-16.798l115.564-74.073C363.287,166.352,370.731,169.548,371.981,176.071z"/>
<path style="fill:#EEBB46;" d="M395.188,297.067l-23.205-120.996c-0.776-4.044-3.932-6.806-7.552-7.47l-55.72,114.019l74.25,25.105
	C389.775,310.032,396.543,304.131,395.188,297.067z"/>
<path style="fill:#F3D64E;" d="M143.662,350.901l77.055-50.709c6.01-3.955,14.052,0.041,14.529,7.218l7.287,109.437
	c0.522,7.854-8.273,12.828-14.733,8.328l-84.34-58.728C138.007,362.653,138.112,354.552,143.662,350.901z"/>
<path style="fill:#EEBB46;" d="M235.244,307.412c-0.222-3.334-2.084-5.965-4.608-7.449l-42.501,97.595l39.664,27.619
	c6.459,4.498,15.255-0.472,14.733-8.328L235.244,307.412z"/>
<g>
</g>
<g>
</g>
<g>
</g>
<g>
</g>
<g>
</g>
<g>
</g>
<g>
</g>
<g>
</g>
<g>
</g>
<g>
</g>
<g>
</g>
<g>
</g>
<g>
</g>
<g>
</g>
<g>
</g>
</svg>
