<?xml version="1.0" encoding="iso-8859-1"?>
<!-- Generator: Adobe Illustrator 19.0.0, SVG Export Plug-In . SVG Version: 6.00 Build 0)  -->
<svg version="1.1" id="Layer_1" xmlns="http://www.w3.org/2000/svg" xmlns:xlink="http://www.w3.org/1999/xlink" x="0px" y="0px"
	 viewBox="0 0 512.003 512.003" style="enable-background:new 0 0 512.003 512.003;" xml:space="preserve">
<circle style="fill:#00E4ED;" cx="256.002" cy="255.998" r="255.998"/>
<path style="fill:#00D2DE;" d="M507.175,305.641L411.8,210.267l-10.997,12.06l-63.777-63.777l-136.334,77.684L48.274,340.098
	l168.988,168.988c12.634,1.919,25.572,2.915,38.741,2.915C380.401,512,484.059,423.264,507.175,305.641z"/>
<path style="fill:#FFFFFF;" d="M411.8,210.267l-103.865-51.932H204.071l-103.865,51.932L48.274,340.098l77.898,51.932v84.633
	c38.067,22.447,82.44,35.34,129.832,35.34c47.39,0,91.763-12.893,129.83-35.34v-84.631l77.899-51.932L411.8,210.267z"/>
<path style="fill:#D0D1D3;" d="M411.8,210.267l-103.865-51.932h-53.08v353.648c0.384,0.002,0.764,0.019,1.15,0.019
	c47.39,0,91.763-12.893,129.83-35.34v-84.631l77.899-51.932L411.8,210.267z"/>
<polygon style="fill:#C1321F;" points="230.036,236.232 178.104,340.097 230.036,340.097 256.003,236.232 "/>
<path style="fill:#E44C47;" d="M256.003,158.334c0,0-76.587,36.195-103.865,77.899c0,0,77.898,38.581,103.865,24.943
	C281.97,247.536,256.003,158.334,256.003,158.334z"/>
<polygon style="fill:#750D08;" points="281.969,236.232 333.901,340.097 281.969,340.097 256.003,236.232 "/>
<path style="fill:#AF2020;" d="M256.003,158.334c0,0-0.441,1.538-1.148,4.222v98.965c0.371,0.243,0.753,0.469,1.148,0.677
	c25.967,13.639,103.865-25.967,103.865-25.967C332.591,194.529,256.003,158.334,256.003,158.334z"/>
<polygon style="fill:#E6F3FF;" points="256.003,158.55 204.578,132.583 174.98,158.55 226.404,210.482 "/>
<polygon style="fill:#CFDBE6;" points="256.003,158.55 307.427,132.583 337.026,158.55 285.601,210.482 "/>
<polygon style="fill:#E6F3FF;" points="48.274,340.097 100.207,210.267 126.172,392.029 "/>
<polygon style="fill:#CFDBE6;" points="463.733,340.097 411.8,210.267 385.833,392.029 "/>
<g>
</g>
<g>
</g>
<g>
</g>
<g>
</g>
<g>
</g>
<g>
</g>
<g>
</g>
<g>
</g>
<g>
</g>
<g>
</g>
<g>
</g>
<g>
</g>
<g>
</g>
<g>
</g>
<g>
</g>
</svg>
