<?xml version="1.0" encoding="iso-8859-1"?>
<!-- Generator: Adobe Illustrator 19.0.0, SVG Export Plug-In . SVG Version: 6.00 Build 0)  -->
<svg version="1.1" id="Layer_1" xmlns="http://www.w3.org/2000/svg" xmlns:xlink="http://www.w3.org/1999/xlink" x="0px" y="0px"
	 viewBox="0 0 512 512" style="enable-background:new 0 0 512 512;" xml:space="preserve">
<circle style="fill:#00447D;" cx="256" cy="256" r="256"/>
<path style="fill:#062964;" d="M511.359,274.034L365.09,128.107l-35.509,69.801l-96.815-96.815l-29.901,98.325l-21.037,196.818
	l112.855,112.855C411.896,491.325,503.003,394.08,511.359,274.034z"/>
<path style="fill:#FF9367;" d="M193.66,403.918c8.111,0,18.791-10.297,15.365-32.785c-3.427-22.488-8.863-111.216,0.16-143.893
	c9.023-32.675,31.306-32.12,36.116-80.57c4.922-49.566-31.608-61.335-51.652-61.337s-56.585,9.942-51.648,61.333
	c4.656,48.468,27.096,47.897,36.121,80.574s3.596,121.403,0.171,143.893C174.87,393.619,185.549,403.918,193.66,403.918z"/>
<path style="fill:#FF764C;" d="M245.301,146.67c4.922-49.566-31.608-61.337-51.652-61.337c-0.093,0-0.191,0.003-0.284,0.005v318.557
	c0.098,0.002,0.198,0.022,0.297,0.022c8.111,0,18.791-10.297,15.363-32.785s-8.863-111.216,0.16-143.893
	C218.209,194.565,240.492,195.122,245.301,146.67z"/>
<path style="fill:#EEBB46;" d="M245.303,146.67c4.922-49.566-31.608-61.337-51.652-61.337c-20.046,0-56.585,9.942-51.648,61.333
	c4.382,45.621,24.519,47.804,34.395,75.154h34.513C220.77,194.47,240.774,192.276,245.303,146.67z"/>
<path style="fill:#E2982B;" d="M193.65,85.333c-0.093,0-0.191,0.003-0.284,0.003v136.482h17.546
	c9.859-27.35,29.863-29.544,34.392-75.15C250.223,97.104,213.695,85.333,193.65,85.333z"/>
<path style="fill:#72BD39;" d="M141.667,142.089h103.977c0.357-7.14-0.202-13.424-1.458-18.963H142.976
	C141.815,128.652,141.307,134.925,141.667,142.089z"/>
<path style="fill:#51A448;" d="M244.188,123.127h-50.822v18.963h52.281C246.003,134.949,245.443,128.665,244.188,123.127z"/>
<path style="fill:#E44C47;" d="M145.292,165.793h96.666c1.439-5.384,2.586-11.6,3.325-18.963H142.019
	C142.734,154.193,143.865,160.409,145.292,165.793z"/>
<path style="fill:#D62D2A;" d="M245.284,146.83h-51.919v18.963h48.595C243.398,160.409,244.546,154.193,245.284,146.83z"/>
<g>
	<circle style="fill:#E44C47;" cx="163.926" cy="178.717" r="4.756"/>
	<circle style="fill:#E44C47;" cx="183.734" cy="178.717" r="4.756"/>
</g>
<g>
	<circle style="fill:#D62D2A;" cx="203.559" cy="178.717" r="4.756"/>
	<circle style="fill:#D62D2A;" cx="223.366" cy="178.717" r="4.756"/>
</g>
<path style="fill:#FF9367;" d="M326.403,431.275c8.111,0,18.791-10.297,15.365-32.785c-3.427-22.488-8.863-111.216,0.16-143.893
	c9.023-32.675,31.306-32.12,36.116-80.57c4.922-49.566-31.608-61.335-51.652-61.337c-20.046,0-56.585,9.942-51.648,61.333
	c4.656,48.468,27.096,47.897,36.121,80.574c9.025,32.677,3.596,121.403,0.171,143.893
	C307.61,420.979,318.292,431.275,326.403,431.275z"/>
<path style="fill:#FF764C;" d="M378.044,174.027c4.922-49.566-31.608-61.335-51.652-61.337c-0.281,0-0.574,0.009-0.862,0.014
	v318.502c0.291,0.026,0.586,0.069,0.872,0.069c8.111,0,18.791-10.297,15.365-32.785c-3.427-22.488-8.863-111.218,0.16-143.893
	C350.951,221.922,373.234,222.477,378.044,174.027z"/>
<path style="fill:#EEBB46;" d="M378.044,174.027c4.922-49.566-31.608-61.337-51.652-61.337c-20.046,0-56.585,9.942-51.648,61.333
	c4.382,45.621,24.519,47.804,34.395,75.154h34.513C353.513,221.827,373.517,219.632,378.044,174.027z"/>
<path style="fill:#E2982B;" d="M326.392,112.69c-0.281,0-0.576,0.009-0.862,0.014v136.473h18.122
	c9.859-27.35,29.863-29.544,34.392-75.15C382.966,124.461,346.438,112.692,326.392,112.69z"/>
<path style="fill:#72BD39;" d="M274.41,169.446h103.977c0.357-7.14-0.202-13.424-1.458-18.963H275.718
	C274.558,156.008,274.049,162.282,274.41,169.446z"/>
<path style="fill:#51A448;" d="M376.93,150.483h-51.398v18.963h52.857C378.746,162.306,378.185,156.022,376.93,150.483z"/>
<path style="fill:#E44C47;" d="M278.035,193.15h96.666c1.439-5.384,2.586-11.6,3.325-18.963H274.761
	C275.477,181.55,276.608,187.766,278.035,193.15z"/>
<path style="fill:#D62D2A;" d="M378.027,174.187H325.53v18.963h49.171C376.141,187.766,377.289,181.55,378.027,174.187z"/>
<g>
	<circle style="fill:#E44C47;" cx="296.667" cy="206.076" r="4.756"/>
	<circle style="fill:#E44C47;" cx="316.492" cy="206.076" r="4.756"/>
</g>
<g>
	<circle style="fill:#D62D2A;" cx="336.3" cy="206.076" r="4.756"/>
	<circle style="fill:#D62D2A;" cx="356.107" cy="206.076" r="4.756"/>
</g>
<g>
</g>
<g>
</g>
<g>
</g>
<g>
</g>
<g>
</g>
<g>
</g>
<g>
</g>
<g>
</g>
<g>
</g>
<g>
</g>
<g>
</g>
<g>
</g>
<g>
</g>
<g>
</g>
<g>
</g>
</svg>
