<?xml version="1.0" encoding="iso-8859-1"?>
<!-- Generator: Adobe Illustrator 19.0.0, SVG Export Plug-In . SVG Version: 6.00 Build 0)  -->
<svg version="1.1" id="Layer_1" xmlns="http://www.w3.org/2000/svg" xmlns:xlink="http://www.w3.org/1999/xlink" x="0px" y="0px"
	 viewBox="0 0 512 512" style="enable-background:new 0 0 512 512;" xml:space="preserve">
<circle style="fill:#BDFBFD;" cx="256" cy="256" r="256"/>
<path style="fill:#00E4ED;" d="M309.086,506.473c99.73-21.033,178.052-100.112,197.973-200.249L398.222,197.387l-51.024-28.419
	l-79.67-79.67l-11.342,195.62l-104.769-104.77l-29.02,17.239l131.256,131.256l-26.098,96.299L309.086,506.473z"/>
<rect x="227.556" y="396.498" style="fill:#6FAF37;" width="56.889" height="28.444"/>
<rect x="255.431" y="396.498" style="fill:#558C1F;" width="29.018" height="28.444"/>
<path style="fill:#EEBB46;" d="M312.889,296.943c0,86.402-25.471,99.556-56.889,99.556s-56.889-13.153-56.889-99.556
	S224.582,83.609,256,83.609S312.889,210.541,312.889,296.943z"/>
<path style="fill:#E2982B;" d="M256,83.609c-0.191,0-0.383,0.026-0.574,0.036v312.849c0.191,0,0.383,0.003,0.574,0.003
	c31.418,0,56.889-13.153,56.889-99.556S287.418,83.609,256,83.609z"/>
<path style="fill:#82C936;" d="M122.397,197.387c0,0,34.19-41.086,56.889-28.444c22.699,12.641,113.778,225.832,113.778,225.832
	s-60.051,35.628-85.333-26.721S190.492,155.726,122.397,197.387z"/>
<path style="fill:#73C61A;" d="M293.064,394.774c0,0-16.732-39.164-37.638-84.909v95.032
	C275.532,405.17,293.064,394.774,293.064,394.774z"/>
<path style="fill:#72BD39;" d="M398.222,197.387c0,0-34.19-41.086-56.889-28.444c-22.699,12.641-113.778,227.556-113.778,227.556
	s60.051,33.904,85.333-28.444S330.128,155.726,398.222,197.387z"/>
<path style="fill:#51A448;" d="M341.333,168.943c-14.545,8.101-57.163,99.247-85.907,163.688v72.604
	c19.16,2.277,43.565-2.907,57.463-37.181c25.283-62.348,17.239-212.328,85.333-170.667
	C398.222,197.387,364.032,156.301,341.333,168.943z"/>
<g>
</g>
<g>
</g>
<g>
</g>
<g>
</g>
<g>
</g>
<g>
</g>
<g>
</g>
<g>
</g>
<g>
</g>
<g>
</g>
<g>
</g>
<g>
</g>
<g>
</g>
<g>
</g>
<g>
</g>
</svg>
