<?xml version="1.0" encoding="iso-8859-1"?>
<!-- Generator: Adobe Illustrator 19.0.0, SVG Export Plug-In . SVG Version: 6.00 Build 0)  -->
<svg version="1.1" id="Layer_1" xmlns="http://www.w3.org/2000/svg" xmlns:xlink="http://www.w3.org/1999/xlink" x="0px" y="0px"
	 viewBox="0 0 512 512" style="enable-background:new 0 0 512 512;" xml:space="preserve">
<circle style="fill:#F4E882;" cx="256" cy="256" r="256"/>
<path style="fill:#F3D64E;" d="M270.21,511.602c129.893-7.108,233.987-111.04,241.359-240.862L381.045,140.216l-19.854,26.798
	l-63.824-63.824L103.762,297.906l63.36,61.967L135.32,376.71L270.21,511.602z"/>
<path style="fill:#E44C47;" d="M426.667,256c0-25.433-16.691-46.961-39.715-54.244c11.133-21.433,7.714-48.461-10.271-66.443
	c-17.982-17.979-45.006-21.397-66.436-10.264c-7.284-23.024-28.812-39.715-54.244-39.715c-25.431,0-46.959,16.689-54.243,39.712
	c-21.43-11.13-48.454-7.708-66.436,10.274c-17.982,17.982-21.404,45.006-10.274,66.436c-23.025,7.285-39.714,28.813-39.714,54.244
	c0,25.436,16.696,46.968,39.724,54.248c-11.147,21.437-7.73,48.476,10.261,66.463c17.984,17.982,45.013,21.397,66.445,10.261
	c7.289,23.014,28.813,39.695,54.238,39.695c25.431,0,46.959-16.689,54.243-39.712c21.43,11.13,48.454,7.708,66.436-10.274
	c17.982-17.982,21.404-45.006,10.274-66.436C409.978,302.959,426.667,281.431,426.667,256z M229.778,319.297
	c-2.662-8.432-7.32-16.368-14.005-23.052c-6.69-6.689-14.636-11.348-23.076-14.008c4.091-7.852,6.415-16.77,6.415-26.236
	c0-9.459-2.322-18.37-6.406-26.217c8.437-2.662,16.381-7.321,23.068-14.008s11.348-14.631,14.008-23.068
	c7.847,4.084,16.76,6.406,26.217,6.406s18.368-2.32,26.215-6.404c2.662,8.439,7.321,16.384,14.012,23.073
	c6.689,6.687,14.631,11.345,23.068,14.005c-4.084,7.847-6.404,16.758-6.404,26.215c0,9.459,2.322,18.37,6.406,26.217
	c-8.437,2.662-16.381,7.321-23.068,14.008c-6.687,6.687-11.348,14.631-14.008,23.068c-7.847-4.084-16.76-6.406-26.217-6.406
	C246.539,312.889,237.627,315.211,229.778,319.297z"/>
<path style="fill:#D62D2A;" d="M426.667,256c0-25.433-16.691-46.961-39.715-54.244c11.133-21.433,7.714-48.461-10.271-66.443
	c-17.982-17.979-45.006-21.397-66.436-10.264c-7.284-23.024-28.812-39.715-54.244-39.715c-0.193,0-0.381,0.021-0.574,0.024v113.736
	c0.193,0.002,0.381,0.017,0.574,0.017c9.457,0,18.368-2.32,26.215-6.404c2.662,8.439,7.321,16.384,14.012,23.073
	c6.689,6.687,14.631,11.345,23.068,14.005c-4.084,7.847-6.404,16.758-6.404,26.215c0,9.459,2.322,18.37,6.406,26.217
	c-8.437,2.662-16.381,7.321-23.068,14.008c-6.687,6.687-11.348,14.631-14.008,23.068c-7.847-4.084-16.76-6.406-26.217-6.406
	c-0.193,0-0.381,0.016-0.574,0.017v113.736c0.193,0.002,0.381,0.024,0.574,0.024c25.431,0,46.959-16.689,54.243-39.712
	c21.43,11.13,48.454,7.708,66.436-10.274c17.982-17.982,21.404-45.006,10.275-66.436C409.978,302.959,426.667,281.431,426.667,256z"
	/>
<circle style="fill:#EEBB46;" cx="256" cy="256" r="113.778"/>
<path style="fill:#E2982B;" d="M256,142.222c-0.193,0-0.381,0.014-0.574,0.014v227.526c0.193,0,0.381,0.014,0.574,0.014
	c62.838,0,113.778-50.94,113.778-113.778S318.838,142.222,256,142.222z"/>
<circle style="fill:#9A421C;" cx="256" cy="256" r="105.158"/>
<path style="fill:#94252C;" d="M256,150.842c-0.193,0-0.381,0.014-0.574,0.014v210.287c0.193,0,0.381,0.014,0.574,0.014
	c58.077,0,105.158-47.082,105.158-105.158S314.077,150.842,256,150.842z"/>
<circle style="fill:#EEBB46;" cx="256" cy="256" r="83.609"/>
<path style="fill:#E2982B;" d="M256,172.391c-0.193,0-0.381,0.014-0.574,0.014v167.19c0.193,0,0.381,0.014,0.574,0.014
	c46.177,0,83.609-37.433,83.609-83.609S302.177,172.391,256,172.391z"/>
<path style="fill:#722688;" d="M327.111,256c0-10.597-6.954-19.566-16.548-22.602c4.639-8.93,3.213-20.192-4.28-27.684
	c-7.492-7.492-18.753-8.916-27.682-4.277c-3.034-9.594-12.005-16.548-22.602-16.548s-19.566,6.954-22.602,16.546
	c-8.93-4.637-20.189-3.212-27.682,4.28c-7.492,7.492-8.918,18.753-4.282,27.682c-9.592,3.034-16.546,12.005-16.546,22.602
	c0,10.599,6.956,19.57,16.551,22.604c-4.644,8.932-3.22,20.199,4.275,27.693c7.494,7.492,18.756,8.916,27.684,4.275
	c3.038,9.588,12.005,16.539,22.599,16.539c10.597,0,19.566-6.954,22.602-16.546c8.93,4.637,20.189,3.212,27.682-4.28
	c7.492-7.492,8.918-18.753,4.282-27.682C320.157,275.566,327.111,266.597,327.111,256z M245.074,282.374
	c-1.108-3.513-3.05-6.82-5.835-9.606c-2.788-2.788-6.099-4.729-9.616-5.837c1.705-3.272,2.674-6.987,2.674-10.931
	c0-3.941-0.967-7.654-2.669-10.924c3.515-1.108,6.825-3.05,9.613-5.837c2.788-2.788,4.729-6.096,5.837-9.613
	c3.27,1.701,6.984,2.669,10.924,2.669c3.941,0,7.654-0.967,10.923-2.669c1.108,3.517,3.051,6.827,5.839,9.614
	c2.786,2.786,6.096,4.727,9.611,5.835c-1.702,3.27-2.669,6.982-2.669,10.923c0,3.941,0.967,7.654,2.669,10.924
	c-3.515,1.108-6.825,3.05-9.613,5.837c-2.788,2.788-4.729,6.096-5.837,9.612c-3.27-1.701-6.984-2.669-10.924-2.669
	C252.057,279.704,248.344,280.671,245.074,282.374z"/>
<path style="fill:#55146D;" d="M327.111,256c0-10.597-6.954-19.568-16.548-22.602c4.639-8.93,3.213-20.192-4.28-27.684
	c-7.492-7.49-18.753-8.914-27.681-4.277c-3.034-9.594-12.005-16.548-22.602-16.548c-0.193,0-0.381,0.019-0.574,0.024v47.349
	c0.193,0.005,0.379,0.034,0.574,0.034c3.941,0,7.654-0.967,10.923-2.669c1.108,3.517,3.051,6.827,5.839,9.613
	c2.786,2.786,6.096,4.727,9.611,5.835c-1.702,3.27-2.669,6.984-2.669,10.923c0,3.941,0.967,7.654,2.669,10.924
	c-3.515,1.108-6.825,3.05-9.613,5.837c-2.788,2.788-4.729,6.096-5.837,9.613c-3.27-1.702-6.984-2.669-10.924-2.669
	c-0.195,0-0.381,0.031-0.574,0.034v47.349c0.193,0.005,0.381,0.024,0.574,0.024c10.597,0,19.566-6.954,22.602-16.546
	c8.93,4.637,20.189,3.212,27.682-4.28c7.494-7.492,8.918-18.753,4.282-27.682C320.157,275.566,327.111,266.597,327.111,256z"/>
<circle style="fill:#D61159;" cx="256" cy="256" r="47.407"/>
<path style="fill:#AF084C;" d="M256,208.593c-0.193,0-0.383,0.012-0.574,0.014v94.785c0.191,0.002,0.381,0.014,0.574,0.014
	c26.183,0,47.407-21.225,47.407-47.407S282.183,208.593,256,208.593z"/>
<g>
</g>
<g>
</g>
<g>
</g>
<g>
</g>
<g>
</g>
<g>
</g>
<g>
</g>
<g>
</g>
<g>
</g>
<g>
</g>
<g>
</g>
<g>
</g>
<g>
</g>
<g>
</g>
<g>
</g>
</svg>
