<?xml version="1.0" encoding="iso-8859-1"?>
<!-- Generator: Adobe Illustrator 19.0.0, SVG Export Plug-In . SVG Version: 6.00 Build 0)  -->
<svg version="1.1" id="Layer_1" xmlns="http://www.w3.org/2000/svg" xmlns:xlink="http://www.w3.org/1999/xlink" x="0px" y="0px"
	 viewBox="0 0 512 512" style="enable-background:new 0 0 512 512;" xml:space="preserve">
<circle style="fill:#FFEBB4;" cx="256" cy="256" r="256"/>
<path style="fill:#FFDC86;" d="M341.838,255.569L108.656,307.99l198.828,198.83C424.195,482.99,512,379.751,512,256
	c0-2.15-0.029-4.293-0.081-6.43l-117.61-118.768L341.838,255.569z"/>
<path style="fill:#FF450C;" d="M369.788,188.912c0,0-28.858-33.973-72.328,0s-91.688,130.41-216.983,85.478
	c0,0,48.585,87.669,144.656,59.176C336.165,300.637,418.737,228.364,369.788,188.912z"/>
<path style="fill:#C92F00;" d="M369.788,188.912c0,0-28.858-33.973-72.328,0c-15.031,11.747-30.634,30.963-49.79,49.221v88.074
	C346.927,290.814,415.358,225.642,369.788,188.912z"/>
<path style="fill:#51A448;" d="M329.44,162.725c2.179,0.75,4.482,1.543,6.856,2.36c27.626,9.513,48.602,32.313,55.777,60.637l0,0
	c2.586,10.209-6.93,19.466-17.01,16.415c-20.568-6.228-53.129-19.251-59.847-66.658C314.016,167.002,321.346,159.937,329.44,162.725
	z"/>
<path style="fill:#72BD39;" d="M359.929,200.659c-1.508,0-3.003-0.657-4.025-1.92c-1.796-2.222-1.45-5.477,0.771-7.273
	c27.588-22.3,28.756-57.115,28.765-57.463c0.071-2.853,2.513-5.137,5.287-5.049c2.851,0.066,5.113,2.422,5.055,5.273
	c-0.034,1.617-1.188,39.889-32.604,65.283C362.218,200.283,361.07,200.659,359.929,200.659z"/>
<g>
</g>
<g>
</g>
<g>
</g>
<g>
</g>
<g>
</g>
<g>
</g>
<g>
</g>
<g>
</g>
<g>
</g>
<g>
</g>
<g>
</g>
<g>
</g>
<g>
</g>
<g>
</g>
<g>
</g>
</svg>
