<?xml version="1.0" encoding="iso-8859-1"?>
<!-- Generator: Adobe Illustrator 19.0.0, SVG Export Plug-In . SVG Version: 6.00 Build 0)  -->
<svg version="1.1" id="Layer_1" xmlns="http://www.w3.org/2000/svg" xmlns:xlink="http://www.w3.org/1999/xlink" x="0px" y="0px"
	 viewBox="0 0 512 512" style="enable-background:new 0 0 512 512;" xml:space="preserve">
<circle style="fill:#00E4ED;" cx="256" cy="256" r="256"/>
<path style="fill:#00D2DE;" d="M165.838,393.295l117.277,117.276c112.112-11.804,202.647-95.968,224.059-204.933L290.12,88.583
	L165.838,393.295z"/>
<path style="fill:#72BD39;" d="M373.893,319.397C369.954,384.388,321.11,437.289,256,437.289s-113.954-52.901-117.893-117.893
	c-4.449-73.406,68.956-97.875,68.956-195.748c0-27.026,21.911-48.937,48.937-48.937s48.936,21.911,48.936,48.937
	C304.936,221.522,378.34,245.989,373.893,319.397z"/>
<path style="fill:#51A448;" d="M304.936,123.649c0-27.026-21.911-48.937-48.936-48.937c-0.193,0-0.381,0.012-0.574,0.016v362.549
	c0.193,0,0.381,0.016,0.574,0.016c65.11,0,113.954-52.903,117.893-117.893C378.34,245.989,304.936,221.522,304.936,123.649z"/>
<path style="fill:#F4E882;" d="M363.567,316.283c-3.594,61.8-48.159,112.107-107.567,112.107s-103.972-50.305-107.567-112.107
	c-4.06-69.803,62.916-93.07,62.916-186.139c0-25.7,19.992-46.535,44.651-46.535s44.651,20.835,44.651,46.535
	C300.649,223.213,367.625,246.481,363.567,316.283z"/>
<path style="fill:#F3D64E;" d="M300.649,130.145c0-25.7-19.992-46.535-44.651-46.535c-0.193,0-0.381,0.012-0.574,0.016v344.75
	c0.193,0,0.381,0.016,0.574,0.016c59.408,0,103.972-50.305,107.567-112.107C367.625,246.482,300.649,223.213,300.649,130.145z"/>
<ellipse style="fill:#935635;" cx="256" cy="309.769" rx="48.221" ry="64.302"/>
<path style="fill:#804000;" d="M255.998,245.479c-0.193,0-0.381,0.017-0.574,0.019v128.555c0.191,0.002,0.381,0.019,0.574,0.019
	c26.633,0,48.221-28.786,48.221-64.297C304.221,274.265,282.631,245.479,255.998,245.479z"/>
<g>
</g>
<g>
</g>
<g>
</g>
<g>
</g>
<g>
</g>
<g>
</g>
<g>
</g>
<g>
</g>
<g>
</g>
<g>
</g>
<g>
</g>
<g>
</g>
<g>
</g>
<g>
</g>
<g>
</g>
</svg>
