<?xml version="1.0" encoding="iso-8859-1"?>
<!-- Generator: Adobe Illustrator 19.0.0, SVG Export Plug-In . SVG Version: 6.00 Build 0)  -->
<svg version="1.1" id="Layer_1" xmlns="http://www.w3.org/2000/svg" xmlns:xlink="http://www.w3.org/1999/xlink" x="0px" y="0px"
	 viewBox="0 0 512 512" style="enable-background:new 0 0 512 512;" xml:space="preserve">
<circle style="fill:#062964;" cx="256" cy="256" r="256"/>
<path style="fill:#070C49;" d="M511.997,256.283L367.804,112.538l-48.588-16.344l-27.212,9.381l-29.703-30.139l-6.697,16.193
	l-20.175-19.923l0.638,13.867L230.141,102l34.826,34.819l-1.271,1.271l-55.853-56.282l0.391,5.418l0.341,0.341l-0.572,16.387
	l34.714,34.24l-47.949-16.241l-42.031,3.305l-30.351,18.804l-21.971,65.965l17.927,157.382l15.22,15.424l-33.147,20.847
	l102.874,102.874C220.303,510.118,237.932,512,256,512C397.29,512,511.843,397.538,511.997,256.283z"/>
<path style="fill:#F4E882;" d="M122.387,368.981c-2.576,0-4.96-1.66-5.761-4.249c-2.045-6.599-49.505-162.285,1.212-220.567
	c21.682-24.919,50.252-33.585,82.634-25.062c23.854,6.28,41.174,19.635,41.9,20.201c2.629,2.048,3.098,5.841,1.05,8.468
	c-2.048,2.629-5.839,3.1-8.468,1.05c-2.648-2.051-63.34-48.075-108.013,3.263c-46.351,53.265,0.731,207.522,1.212,209.074
	c0.986,3.182-0.795,6.563-3.977,7.549C123.58,368.893,122.977,368.981,122.387,368.981z"/>
<polygon style="fill:#BDFBFD;" points="122.389,419.645 115.598,405.888 100.418,403.682 111.402,392.975 108.809,377.854 
	122.389,384.993 135.966,377.854 133.373,392.975 144.358,403.682 129.177,405.888 "/>
<polygon style="fill:#00E4ED;" points="108.809,377.854 111.402,392.975 100.418,403.682 115.598,405.888 122.389,419.645 
	129.121,406.004 110.275,378.625 "/>
<polygon style="fill:#BDFBFD;" points="412.884,377.884 406.095,364.127 390.915,361.922 401.899,351.213 399.307,336.094 
	412.884,343.233 426.463,336.094 423.87,351.213 434.855,361.922 419.674,364.127 "/>
<polygon style="fill:#00E4ED;" points="399.307,336.094 401.899,351.213 390.915,361.922 406.095,364.127 412.884,377.884 
	419.545,364.387 399.453,336.17 "/>
<polygon style="fill:#FF858C;" points="182.929,402.991 174.351,396.11 163.819,399.276 167.712,388.991 161.445,379.952 
	172.43,380.476 179.09,371.726 181.986,382.335 192.367,385.964 183.172,391.995 "/>
<polygon style="fill:#FF6178;" points="172.43,380.478 161.445,379.952 167.712,388.991 163.819,399.276 174.351,396.109 
	182.929,402.991 182.937,402.61 172.446,380.459 "/>
<polygon style="fill:#FF858C;" points="354.623,367.359 346.045,360.477 335.513,363.644 339.406,353.359 333.141,344.321 
	344.126,344.845 350.784,336.094 353.68,346.703 364.061,350.332 354.866,356.364 "/>
<polygon style="fill:#FF6178;" points="333.141,344.321 339.406,353.359 335.513,363.644 346.045,360.477 354.623,367.359 
	354.637,366.766 343.302,344.807 "/>
<g>
	<path style="fill:#F3D64E;" d="M421.26,314.609c-3.22,0-5.894-2.544-6.025-5.791c-0.065-1.624-7.247-162.768-68.691-197.473
		c-59.218-33.444-100.992,33.027-102.743,35.873c-1.743,2.838-5.458,3.731-8.295,1.986c-2.839-1.741-3.732-5.449-1.995-8.29
		c0.493-0.805,12.302-19.894,32.628-34.526c27.66-19.911,57.518-21.828,86.338-5.549c67.272,37.997,74.536,200.592,74.812,207.496
		c0.134,3.331-2.457,6.137-5.785,6.27C421.424,314.608,421.343,314.609,421.26,314.609z"/>
	<path style="fill:#F3D64E;" d="M233.515,140.914c-1.738,2.839-0.845,6.549,1.995,8.29c1.915,1.177,4.22,1.127,6.06,0.114
		l-2.513-16.293C235.611,137.523,233.706,140.602,233.515,140.914z"/>
</g>
<path style="fill:#FFFFFF;" d="M341.304,139.095c-47.066-32.297-93.305-7.846-103.883-1.396
	c-12.043-1.981-62.852-7.158-96.273,38.791c-37.554,51.633,12.472,175.749,14.62,181.007c0.955,2.338,3.21,3.753,5.589,3.753
	c0.759,0,1.533-0.145,2.279-0.45c3.084-1.26,4.563-4.782,3.305-7.868c-0.502-1.226-49.674-123.09-16.032-169.344
	c21.471-29.518,50.483-35.113,68.83-35.262c-9.704,6.956-22.023,17.913-32.285,33.87c-18.279,28.419-33.085,78.6,0.183,156.275
	c0.979,2.289,3.208,3.66,5.549,3.66c0.793,0,1.598-0.157,2.372-0.49c3.063-1.312,4.484-4.858,3.17-7.921
	c-24.919-58.18-25.405-106.796-1.445-144.496c15.6-24.547,37.114-36.34,42.508-39.019c7.204,0.691,41.443,5.451,67.646,34.663
	c24.719,27.557,35.523,68.489,32.109,121.658c-0.214,3.325,2.308,6.194,5.635,6.408c0.131,0.009,0.262,0.012,0.393,0.012
	c3.156,0,5.811-2.453,6.015-5.648c3.636-56.639-8.249-100.6-35.326-130.663c-19.684-21.854-42.949-31.344-58.801-35.461
	c17.279-6.837,46.914-12.783,77.012,7.871c47.125,32.339,41.515,163.654,41.451,164.976c-0.157,3.329,2.413,6.154,5.742,6.311
	c0.098,0.003,0.193,0.007,0.29,0.007c3.201,0,5.868-2.517,6.022-5.748C388.249,308.915,393.949,175.219,341.304,139.095z"/>
<path style="fill:#D0D1D3;" d="M341.304,139.095c-44.372-30.448-88.009-10.457-101.724-2.665l2.158,13.993
	c10.116,1.279,41.369,7.32,65.7,34.444c24.719,27.557,35.523,68.489,32.109,121.658c-0.214,3.325,2.308,6.194,5.635,6.408
	c0.131,0.009,0.262,0.012,0.393,0.012c3.156,0,5.811-2.453,6.015-5.647c3.636-56.639-8.249-100.6-35.326-130.663
	c-19.684-21.854-42.949-31.344-58.801-35.461c17.279-6.837,46.914-12.783,77.012,7.871c47.125,32.339,41.515,163.654,41.451,164.976
	c-0.157,3.329,2.413,6.154,5.742,6.311c0.098,0.003,0.193,0.007,0.29,0.007c3.201,0,5.868-2.517,6.022-5.748
	C388.249,308.915,393.949,175.219,341.304,139.095z"/>
<path style="fill:#F4E882;" d="M234.267,103.65c-2.939,0-5.515-2.151-5.961-5.146l-3.255-21.854
	c-0.491-3.296,1.784-6.366,5.079-6.858c3.298-0.493,6.366,1.783,6.858,5.079l3.255,21.854c0.491,3.296-1.784,6.366-5.079,6.858
	C234.861,103.629,234.561,103.65,234.267,103.65z"/>
<g>
	<path style="fill:#F3D64E;" d="M235.163,103.584c3.296-0.491,5.57-3.56,5.079-6.858l-3.255-21.854
		c-0.491-3.296-3.558-5.572-6.858-5.079c-0.278,0.041-0.536,0.126-0.798,0.202l5.189,33.635
		C234.734,103.622,234.946,103.615,235.163,103.584z"/>
	<path style="fill:#F3D64E;" d="M252.585,100.454c-0.602,0-1.214-0.091-1.819-0.283c-3.177-1.003-4.939-4.393-3.936-7.571
		l4.882-15.458c1.003-3.177,4.387-4.939,7.571-3.936c3.177,1.003,4.939,4.393,3.936,7.571l-4.882,15.458
		C257.524,98.807,255.147,100.454,252.585,100.454z"/>
</g>
<path style="fill:#F4E882;" d="M212.185,105.665c-1.995,0-3.946-0.988-5.096-2.796l-8.702-13.676c-1.789-2.812-0.96-6.54,1.851-8.33
	c2.81-1.791,6.54-0.96,8.33,1.851l8.702,13.676c1.789,2.812,0.96,6.54-1.851,8.33C214.414,105.36,213.294,105.665,212.185,105.665z"
	/>
<g>
</g>
<g>
</g>
<g>
</g>
<g>
</g>
<g>
</g>
<g>
</g>
<g>
</g>
<g>
</g>
<g>
</g>
<g>
</g>
<g>
</g>
<g>
</g>
<g>
</g>
<g>
</g>
<g>
</g>
</svg>
