<?xml version="1.0" encoding="iso-8859-1"?>
<!-- Generator: Adobe Illustrator 19.0.0, SVG Export Plug-In . SVG Version: 6.00 Build 0)  -->
<svg version="1.1" id="Layer_1" xmlns="http://www.w3.org/2000/svg" xmlns:xlink="http://www.w3.org/1999/xlink" x="0px" y="0px"
	 viewBox="0 0 512 512" style="enable-background:new 0 0 512 512;" xml:space="preserve">
<circle style="fill:#FFDC86;" cx="256" cy="256" r="256"/>
<path style="fill:#FFBF1A;" d="M261.82,511.926c108.216-2.413,199.859-71.975,234.915-168.665L325.66,172.185l-71.311,24.35
	l-47.48-20.039l-20.528-4.31l52.588,52.588L67.232,317.34L261.82,511.926z"/>
<path style="fill:#57442F;" d="M256,240.793l-56.889,40.86c-77.864,57.751-131.879,35.685-131.879,35.685
	c69.53-106.365,136.525-127.388,136.525-127.388c-0.05-10.295-17.417-17.767-17.417-17.767C221.234,170.46,256,189.95,256,189.95
	s34.766-19.49,69.66-17.767c0,0-17.367,7.47-17.417,17.767c0,0,66.994,21.021,136.525,127.388c0,0-54.015,22.066-131.879-35.685
	L256,240.793z"/>
<path style="fill:#42301D;" d="M308.243,189.952c0.05-10.295,17.417-17.767,17.417-17.767c-34.887-1.724-69.646,17.758-69.66,17.765
	v50.843l56.889,40.86c77.864,57.751,131.879,35.685,131.879,35.685C375.237,210.973,308.243,189.952,308.243,189.952z"/>
<g>
</g>
<g>
</g>
<g>
</g>
<g>
</g>
<g>
</g>
<g>
</g>
<g>
</g>
<g>
</g>
<g>
</g>
<g>
</g>
<g>
</g>
<g>
</g>
<g>
</g>
<g>
</g>
<g>
</g>
</svg>
