<?xml version="1.0" encoding="iso-8859-1"?>
<!-- Generator: Adobe Illustrator 19.0.0, SVG Export Plug-In . SVG Version: 6.00 Build 0)  -->
<svg version="1.1" id="Layer_1" xmlns="http://www.w3.org/2000/svg" xmlns:xlink="http://www.w3.org/1999/xlink" x="0px" y="0px"
	 viewBox="0 0 512 512" style="enable-background:new 0 0 512 512;" xml:space="preserve">
<circle style="fill:#062964;" cx="256" cy="256" r="256"/>
<path style="fill:#070C49;" d="M268.96,511.676c118.887-5.928,216.4-92.963,238.38-206.905L345.643,143.074l-1.92,1.895
	l-77.991-77.991l-5.423,106.927l-78.614-2.596l74.945,74.945l-81.46,171.644L268.96,511.676z"/>
<path style="fill:#FFDC86;" d="M284.444,199.111v-56.889h-56.889v56.889h-34.764c-12.219,0-22.125,9.906-22.125,22.123v183.308
	c0,12.219,9.906,22.123,22.125,22.123H319.21c12.219,0,22.123-9.906,22.123-22.123V221.234c0-12.219-9.906-22.123-22.123-22.123
	H284.444L284.444,199.111z"/>
<path style="fill:#FFBF1A;" d="M319.21,199.111h-34.766v-56.889H256v284.444h63.209c12.219,0,22.123-9.906,22.123-22.123v-183.31
	C341.333,209.017,331.428,199.111,319.21,199.111z"/>
<rect x="199.111" y="227.556" style="fill:#FFFFFF;" width="113.778" height="170.667"/>
<rect x="256" y="227.556" style="fill:#D0D1D3;" width="56.889" height="170.667"/>
<path style="fill:#EEBB46;" d="M332.836,168.686c-6.468,7.632-27.329,12.807-76.836,12.807s-70.628-4.139-76.836-12.807
	l-12.807-25.612h179.286L332.836,168.686z"/>
<path style="fill:#E2982B;" d="M256,143.074v38.419c49.509,0,70.368-5.173,76.836-12.807l12.807-25.612L256,143.074L256,143.074z"/>
<ellipse style="fill:#F3D64E;" cx="256" cy="143.074" rx="89.643" ry="12.807"/>
<g>
	<path style="fill:#EEBB46;" d="M345.643,143.074c0-7.073-40.134-12.807-89.643-12.807v25.612
		C305.509,155.879,345.643,150.145,345.643,143.074z"/>
	<path style="fill:#EEBB46;" d="M228.835,143.127c5.62,3.687,15.581,6.154,27.165,6.154c11.69,0,21.576-2.467,27.165-6.21
		c0-4.637-0.131-9.183-0.379-13.609c-2.16-38.529-13.329-67.886-26.786-67.886c-13.457,0-24.626,29.356-26.786,67.886
		C228.966,133.891,228.835,138.49,228.835,143.127z"/>
</g>
<path style="fill:#E2982B;" d="M282.786,129.464c-2.16-38.528-13.328-67.884-26.784-67.886v87.704c11.69,0,21.576-2.467,27.164-6.21
	C283.165,138.435,283.034,133.891,282.786,129.464z"/>
<g>
	<polygon style="fill:#9A421C;" points="186.363,168.669 194.891,159.079 198.782,171.308 	"/>
	<polygon style="fill:#9A421C;" points="204.745,172.889 213.237,161.473 218.715,174.602 	"/>
	<polygon style="fill:#9A421C;" points="226.12,175.359 234.625,163.05 240.866,176.649 	"/>
</g>
<g>
	<polygon style="fill:#94252C;" points="325.637,168.669 317.109,159.079 313.218,171.308 	"/>
	<polygon style="fill:#94252C;" points="307.255,172.889 298.763,161.473 293.285,174.602 	"/>
	<polygon style="fill:#94252C;" points="285.88,175.359 277.375,163.05 271.134,176.649 	"/>
</g>
<polygon style="fill:#9A421C;" points="248.239,177.443 256,163.807 263.761,177.443 "/>
<polygon style="fill:#94252C;" points="256,163.807 256,177.443 263.761,177.443 "/>
<polyline style="fill:#9A421C;" points="248.239,177.445 256,177.443 256,163.807 256,163.807 "/>
<ellipse style="fill:#E2982B;" cx="255.017" cy="359.658" rx="28.513" ry="5.941"/>
<path style="fill:#D35933;" d="M283.524,359.658c0-3.212-12.238-5.82-27.522-5.93v11.86
	C271.286,365.478,283.524,362.868,283.524,359.658z"/>
<path style="fill:#51A448;" d="M229.605,297.484v3.415c0,2.963,2.403,5.367,5.367,5.367h12.197v8.782h-17.644
	c-9.657,0-17.486-7.828-17.486-17.486v-0.079c0-4.851,3.932-8.782,8.782-8.782l0,0C225.673,288.702,229.605,292.633,229.605,297.484
	z"/>
<path style="fill:#317A26;" d="M275.761,291.237v4.034c0,3.501-2.839,6.341-6.341,6.341h-14.41v10.376h20.844
	c11.409,0,20.658-9.249,20.658-20.658v-0.093c0-5.73-4.646-10.376-10.376-10.376l0,0
	C280.405,280.86,275.761,285.506,275.761,291.237z"/>
<path style="fill:#72BD39;" d="M260.622,362.096c0,0,11.855-44.908,12.898-70.57c1.043-25.662-18.63-24.95-18.63-24.95h-0.676
	c0,0-19.673-0.712-18.63,24.95c1.043,25.662,12.898,70.57,12.898,70.57H260.622z"/>
<path style="fill:#51A448;" d="M256,266.614v95.48h4.62c0,0,11.855-44.908,12.898-70.572
	C274.411,269.557,260.132,266.919,256,266.614z"/>
<g>
</g>
<g>
</g>
<g>
</g>
<g>
</g>
<g>
</g>
<g>
</g>
<g>
</g>
<g>
</g>
<g>
</g>
<g>
</g>
<g>
</g>
<g>
</g>
<g>
</g>
<g>
</g>
<g>
</g>
</svg>
