<?xml version="1.0" encoding="iso-8859-1"?>
<!-- Generator: Adobe Illustrator 19.0.0, SVG Export Plug-In . SVG Version: 6.00 Build 0)  -->
<svg version="1.1" id="Layer_1" xmlns="http://www.w3.org/2000/svg" xmlns:xlink="http://www.w3.org/1999/xlink" x="0px" y="0px"
	 viewBox="0 0 512 512" style="enable-background:new 0 0 512 512;" xml:space="preserve">
<circle style="fill:#BDFBFD;" cx="256" cy="256" r="256"/>
<path style="fill:#00E4ED;" d="M510.923,279.421L345.815,114.314L59.978,361.482l145.529,145.529
	C221.832,510.276,238.714,512,256,512C389.487,512,499.091,409.826,510.923,279.421z"/>
<rect x="107.055" y="213.178" style="fill:#B97850;" width="301.304" height="49.433"/>
<g>
	<rect x="256" y="213.178" style="fill:#935635;" width="152.359" height="49.433"/>
	<rect x="137.188" y="163.754" style="fill:#935635;" width="241.054" height="49.433"/>
</g>
<rect x="256" y="163.754" style="fill:#804000;" width="122.235" height="49.433"/>
<rect x="169.615" y="114.312" style="fill:#B97850;" width="176.2" height="49.433"/>
<g>
	<rect x="256" y="114.312" style="fill:#935635;" width="89.815" height="49.433"/>
	<rect x="81.949" y="262.62" style="fill:#935635;" width="351.522" height="49.433"/>
</g>
<rect x="256" y="262.62" style="fill:#804000;" width="177.476" height="49.433"/>
<rect x="59.978" y="312.044" style="fill:#B97850;" width="395.464" height="49.433"/>
<rect x="256" y="312.044" style="fill:#935635;" width="199.439" height="49.433"/>
<polygon style="fill:#734B46;" points="279.683,163.747 367.564,360.593 147.861,360.593 235.742,163.747 "/>
<polygon style="fill:#512E2B;" points="279.683,163.747 256,163.747 256,360.593 367.564,360.593 "/>
<g>
</g>
<g>
</g>
<g>
</g>
<g>
</g>
<g>
</g>
<g>
</g>
<g>
</g>
<g>
</g>
<g>
</g>
<g>
</g>
<g>
</g>
<g>
</g>
<g>
</g>
<g>
</g>
<g>
</g>
</svg>
