<?xml version="1.0" encoding="iso-8859-1"?>
<!-- Generator: Adobe Illustrator 19.0.0, SVG Export Plug-In . SVG Version: 6.00 Build 0)  -->
<svg version="1.1" id="Layer_1" xmlns="http://www.w3.org/2000/svg" xmlns:xlink="http://www.w3.org/1999/xlink" x="0px" y="0px"
	 viewBox="0 0 512 512" style="enable-background:new 0 0 512 512;" xml:space="preserve">
<circle style="fill:#00447D;" cx="256" cy="256" r="256"/>
<path style="fill:#062964;" d="M511.598,270.252L383.569,142.222L187.62,189.918l-56.603,18.675l111.519,111.519l-100.314,87.592
	L246.319,511.8c3.215,0.119,6.439,0.2,9.681,0.2C392.601,512,504.203,405.006,511.598,270.252z"/>
<polygon style="fill:#F3D64E;" points="335.3,142.222 287.03,142.222 238.761,142.222 190.492,142.222 142.222,142.222 
	142.222,407.704 190.492,407.704 190.492,383.569 238.761,383.569 238.761,359.434 287.03,359.434 287.03,335.3 335.3,335.3 
	335.3,311.165 383.569,311.165 383.569,142.222 "/>
<rect x="190.492" y="142.222" style="fill:#EEBB46;" width="48.269" height="241.347"/>
<rect x="238.761" y="142.222" style="fill:#F3D64E;" width="48.269" height="217.212"/>
<rect x="261.534" y="142.222" style="fill:#EEBB46;" width="25.5" height="217.212"/>
<rect x="142.222" y="142.222" style="fill:#F3D64E;" width="48.269" height="265.481"/>
<rect x="287.03" y="142.222" style="fill:#E2982B;" width="48.269" height="193.077"/>
<rect x="335.3" y="142.222" style="fill:#EEBB46;" width="48.269" height="168.943"/>
<rect x="131.017" y="170.667" style="fill:#B97850;" width="263.758" height="37.926"/>
<rect x="261.534" y="170.667" style="fill:#935635;" width="133.241" height="37.926"/>
<g>
</g>
<g>
</g>
<g>
</g>
<g>
</g>
<g>
</g>
<g>
</g>
<g>
</g>
<g>
</g>
<g>
</g>
<g>
</g>
<g>
</g>
<g>
</g>
<g>
</g>
<g>
</g>
<g>
</g>
</svg>
