<?xml version="1.0" encoding="iso-8859-1"?>
<!-- Generator: Adobe Illustrator 19.0.0, SVG Export Plug-In . SVG Version: 6.00 Build 0)  -->
<svg version="1.1" id="Layer_1" xmlns="http://www.w3.org/2000/svg" xmlns:xlink="http://www.w3.org/1999/xlink" x="0px" y="0px"
	 viewBox="0 0 512 512" style="enable-background:new 0 0 512 512;" xml:space="preserve">
<circle style="fill:#00447D;" cx="256" cy="256" r="256"/>
<path style="fill:#062964;" d="M181.196,365.268L319.89,503.961c93.068-23.911,165.657-98.842,186.221-193.207L336.636,141.279
	L181.196,365.268z"/>
<ellipse style="fill:#FFCE9B;" cx="256" cy="167.219" rx="85.333" ry="56.889"/>
<path style="fill:#FFB181;" d="M341.333,167.219c0-31.418-38.205-56.889-85.333-56.889v113.778
	C303.128,224.108,341.333,198.637,341.333,167.219z"/>
<path style="fill:#EEBB46;" d="M256.45,132.829c0,0,12.067-14.079,28.444,0c0,0,10.63-13.503,28.444,0
	c0,0,31.03-2.586,28.444,28.444c-2.586,31.03-41.088,42.524-56.889,28.444C269.093,175.638,243.233,146.332,256.45,132.829z"/>
<path style="fill:#E2982B;" d="M313.339,132.829c-5.454-4.136-10.231-5.73-14.241-5.965v68.608
	c17.767,1.798,40.71-10.487,42.686-34.201C344.369,130.243,313.339,132.829,313.339,132.829z"/>
<path style="fill:#FF6178;" d="M178.576,189.531c0,0-16.718-30.548,9.049-39.195c0,0,2.986-20.161,24.123-15.074
	c0,0,28.813-22.747,39.195,9.049c10.381,31.796-33.171,54.269-33.171,54.269L178.576,189.531z"/>
<path style="fill:#FF0647;" d="M250.944,144.312c-10.361-31.728-39.067-9.15-39.19-9.054v61.933l6.018,1.389
	C217.772,198.58,261.327,176.107,250.944,144.312z"/>
<path style="fill:#E44C47;" d="M227.556,176.621c0,0,2.01-34.766,28.444-28.444c0,0,13.215-15.515,28.444,0
	c0,0,36.488-4.022,28.444,28.444C304.845,209.087,256,205.065,256,205.065L227.556,176.621z"/>
<path style="fill:#D62D2A;" d="M284.444,148.177c-4.822-4.913-9.44-6.709-13.503-6.877v63.421
	c15.069-1.526,36.814-7.375,41.948-28.098C320.933,144.155,284.444,148.177,284.444,148.177z"/>
<path style="fill:#79D720;" d="M170.513,145.032c0,0,12.067-14.079,28.444,0c0,0,10.63-13.503,28.444,0
	c0,0,31.03-2.586,28.444,28.444c-2.586,31.03-41.088,42.524-56.889,28.444S157.296,158.536,170.513,145.032z"/>
<g>
	<path style="fill:#72BD39;" d="M227.402,145.032c-5.313-4.027-9.981-5.642-13.926-5.939v68.617
		c17.72,1.622,40.405-10.661,42.37-34.233C258.432,142.446,227.402,145.032,227.402,145.032z"/>
	<path style="fill:#72BD39;" d="M199.111,167.219c0,0,12.067-14.079,28.444,0c0,0,10.63-13.503,28.444,0
		c0,0,31.03-2.586,28.444,28.444c-2.586,31.03-41.088,42.524-56.889,28.444C211.754,210.029,185.894,180.722,199.111,167.219z"/>
</g>
<path style="fill:#51A448;" d="M256,167.219c-4.996-3.787-9.426-5.449-13.215-5.882v68.63c17.61,1.233,39.722-11.049,41.66-34.304
	C287.03,164.633,256,167.219,256,167.219z"/>
<path style="fill:#FFB181;" d="M170.667,167.219v170.667c0,31.418,38.205,56.889,85.333,56.889V224.108
	C230.141,172.678,170.667,167.219,170.667,167.219z"/>
<path style="fill:#FF9367;" d="M227.556,252.552c-0.455,46.187-0.429,99.197-0.303,138.904c8.983,2.143,18.658,3.319,28.748,3.319
	c47.128,0,85.333-25.471,85.333-56.889V167.219h-1.377C327.125,167.334,228.361,170.882,227.556,252.552z"/>
<path style="fill:#FF764C;" d="M339.956,167.219c-8.387,0.076-53.493,1.624-83.956,25.497v202.059
	c47.128,0,85.333-25.471,85.333-56.889V167.219H339.956z"/>
<g>
</g>
<g>
</g>
<g>
</g>
<g>
</g>
<g>
</g>
<g>
</g>
<g>
</g>
<g>
</g>
<g>
</g>
<g>
</g>
<g>
</g>
<g>
</g>
<g>
</g>
<g>
</g>
<g>
</g>
</svg>
