<?xml version="1.0" encoding="iso-8859-1"?>
<!-- Generator: Adobe Illustrator 19.0.0, SVG Export Plug-In . SVG Version: 6.00 Build 0)  -->
<svg version="1.1" id="Layer_1" xmlns="http://www.w3.org/2000/svg" xmlns:xlink="http://www.w3.org/1999/xlink" x="0px" y="0px"
	 viewBox="0 0 512 512" style="enable-background:new 0 0 512 512;" xml:space="preserve">
<circle style="fill:#FF0647;" cx="256" cy="256" r="256"/>
<path style="fill:#C1321F;" d="M511.931,261.415L367.842,117.326l-63.352,70.653l-82.972-82.972l-6.984,21.111l76.672,76.674
	l-131.081,61.256l-12.524,135.227l112.673,112.673C397.884,509.688,509.078,398.876,511.931,261.415z"/>
<g>
	<rect x="147.601" y="314.268" style="fill:#FFFFFF;" width="9.016" height="85.006"/>
	<rect x="174.011" y="314.268" style="fill:#FFFFFF;" width="9.016" height="85.006"/>
	<rect x="200.404" y="314.268" style="fill:#FFFFFF;" width="9.016" height="85.006"/>
	<rect x="226.814" y="314.268" style="fill:#FFFFFF;" width="9.016" height="85.006"/>
</g>
<g>
	<rect x="279.617" y="314.268" style="fill:#D0D1D3;" width="9.016" height="85.006"/>
	<rect x="306.028" y="314.268" style="fill:#D0D1D3;" width="9.016" height="85.006"/>
	<rect x="332.421" y="314.268" style="fill:#D0D1D3;" width="9.016" height="85.006"/>
</g>
<g>
	<rect x="253.207" y="314.268" style="fill:#FFFFFF;" width="9.016" height="85.006"/>
	<polyline style="fill:#FFFFFF;" points="253.216,399.272 257.15,399.272 257.15,314.27 253.216,314.27 	"/>
</g>
<g>
	<rect x="257.155" y="314.268" style="fill:#D0D1D3;" width="5.082" height="85.006"/>
	<rect x="358.831" y="314.268" style="fill:#D0D1D3;" width="9.016" height="85.006"/>
</g>
<path style="fill:#F4E882;" d="M293.928,105.007c-2.879,17.399-36.204,36.068-36.204,36.068s-33.325-18.668-36.204-36.068
	l-73.914,12.319v201.328h220.238V117.326L293.928,105.007z"/>
<path style="fill:#F3D64E;" d="M367.844,117.326l-73.914-12.319c-2.879,17.399-36.204,36.068-36.204,36.068
	s-0.214-0.121-0.574-0.329v177.909h110.694V117.326H367.844z"/>
<polygon style="fill:#FFEBB4;" points="257.724,227.083 334.591,111.783 322.053,109.694 257.724,206.188 193.395,109.694 
	180.857,111.783 "/>
<polygon style="fill:#FFDC86;" points="334.591,111.783 322.053,109.692 257.724,206.188 257.15,205.326 257.15,226.223 
	257.724,227.083 "/>
<rect x="147.601" y="167.771" style="fill:#E2982B;" width="220.229" height="16.743"/>
<rect x="257.155" y="167.771" style="fill:#D35933;" width="110.692" height="16.743"/>
<rect x="147.601" y="208.006" style="fill:#72BD39;" width="220.229" height="21.251"/>
<rect x="257.155" y="208.024" style="fill:#51A448;" width="110.692" height="21.251"/>
<g>
	<circle style="fill:#FFFFFF;" cx="160.134" cy="244.691" r="5.763"/>
	<circle style="fill:#FFFFFF;" cx="187.044" cy="244.691" r="5.763"/>
	<circle style="fill:#FFFFFF;" cx="213.954" cy="244.691" r="5.763"/>
	<circle style="fill:#FFFFFF;" cx="240.864" cy="244.691" r="5.763"/>
</g>
<g>
	<circle style="fill:#E6F3FF;" cx="267.757" cy="244.691" r="5.763"/>
	<circle style="fill:#E6F3FF;" cx="294.667" cy="244.691" r="5.763"/>
	<circle style="fill:#E6F3FF;" cx="321.577" cy="244.691" r="5.763"/>
	<circle style="fill:#E6F3FF;" cx="348.488" cy="244.691" r="5.763"/>
</g>
<g>
</g>
<g>
</g>
<g>
</g>
<g>
</g>
<g>
</g>
<g>
</g>
<g>
</g>
<g>
</g>
<g>
</g>
<g>
</g>
<g>
</g>
<g>
</g>
<g>
</g>
<g>
</g>
<g>
</g>
</svg>
