<?xml version="1.0" encoding="iso-8859-1"?>
<!-- Generator: Adobe Illustrator 19.0.0, SVG Export Plug-In . SVG Version: 6.00 Build 0)  -->
<svg version="1.1" id="Layer_1" xmlns="http://www.w3.org/2000/svg" xmlns:xlink="http://www.w3.org/1999/xlink" x="0px" y="0px"
	 viewBox="0 0 512 512" style="enable-background:new 0 0 512 512;" xml:space="preserve">
<circle style="fill:#BDFBFD;" cx="256" cy="256" r="256"/>
<path style="fill:#00E4ED;" d="M299.744,508.261c86.183-14.841,157.618-72.763,191.345-150.802L360.072,226.442l-75.666,49.197
	l-85.28-85.28l-71.201,46.857l75.636,75.636l-75.636,23.586L299.744,508.261z"/>
<g>
	<path style="fill:#EEBB46;" d="M130.481,228.1l59.256-38.995c4.622-3.041,10.805,0.031,11.173,5.551l5.604,84.158
		c0.402,6.041-6.361,9.864-11.329,6.404l-64.859-45.163C126.133,237.137,126.214,230.909,130.481,228.1z"/>
	<path style="fill:#EEBB46;" d="M266.771,174.856l90.664,49.245c5.294,2.875,5.672,10.688,0.684,14.114l-101.585,69.782
		c-5.46,3.75-12.617-0.807-11.991-7.633l10.919-119.025C255.991,175.578,261.884,172.201,266.771,174.856z"/>
</g>
<path style="fill:#E2982B;" d="M357.435,224.101l-90.664-49.245c-4.198-2.281-9.126-0.105-10.771,4.203v129.25
	c0.179-0.103,0.36-0.191,0.536-0.312l101.585-69.782C363.108,234.789,362.729,226.976,357.435,224.101z"/>
<path style="fill:#FF764C;" d="M120.66,292.53c0,0,5.441-31.685,31.685-31.685s37.124,13.441,63.369,0
	c26.245-13.441,44.806-16.322,63.369,0c18.563,16.322,41.925-21.123,63.369,0c21.444,21.123,67.849-4.801,31.685,63.369
	S120.66,292.53,120.66,292.53z"/>
<path style="fill:#FF450C;" d="M342.456,260.844c-21.444-21.123-44.806,16.324-63.371,0c-7.525-6.616-15.05-10.076-23.087-10.957
	v89.745c51.809,12.069,102.316,14.412,118.141-15.417C410.305,256.043,363.899,281.967,342.456,260.844z"/>
<path style="fill:#9A421C;" d="M104.295,283.888c5.089,57.889,71.058,103.696,151.704,103.696s146.615-45.808,151.704-103.696
	H104.295z"/>
<path style="fill:#94252C;" d="M407.702,283.888H255.998v103.696C336.646,387.584,402.615,341.776,407.702,283.888z"/>
<g>
</g>
<g>
</g>
<g>
</g>
<g>
</g>
<g>
</g>
<g>
</g>
<g>
</g>
<g>
</g>
<g>
</g>
<g>
</g>
<g>
</g>
<g>
</g>
<g>
</g>
<g>
</g>
<g>
</g>
</svg>
